<svg width="88" height="88" viewBox="0 0 88 88" fill="none" xmlns="http://www.w3.org/2000/svg">
<g clip-path="url(#clip0_1397_217389)">
<path d="M52.1774 86.9122C52.1068 87.2556 51.874 87.3109 51.626 87.3452C50.1323 87.5531 48.6386 87.7572 47.1315 87.8736C45.6626 87.9881 44.1956 88.0186 42.7285 87.9881C41.4269 87.9531 40.128 87.8513 38.8369 87.6829C38.5736 87.6504 38.3084 87.6275 38.0452 87.6008C37.9871 87.6055 37.9289 87.5953 37.8759 87.5712C37.8228 87.5472 37.7768 87.51 37.7421 87.4633C37.7074 87.4166 37.6851 87.3618 37.6774 87.3041C37.6697 87.2464 37.6767 87.1877 37.698 87.1335C37.717 87.0381 37.7361 86.9427 37.7495 86.8473C37.7575 86.8174 37.7587 86.786 37.753 86.7555C37.7473 86.725 37.7348 86.6962 37.7165 86.6711C37.6982 86.646 37.6746 86.6254 37.6473 86.6107C37.6199 86.5959 37.5897 86.5875 37.5587 86.586C37.5293 86.5785 37.4986 86.5771 37.4687 86.5822C37.4388 86.5872 37.4102 86.5984 37.3849 86.6151C37.3596 86.6318 37.338 86.6536 37.3216 86.6792C37.3052 86.7047 37.2943 86.7334 37.2897 86.7634C37.2897 86.7748 37.2897 86.7882 37.2802 86.7996C37.0894 87.473 37.0894 87.4539 36.3855 87.3261C34.864 87.0618 33.3569 86.7206 31.87 86.3037C31.6391 86.2369 31.3968 86.1969 31.2309 85.9947C31.2007 85.9564 31.157 85.9311 31.1088 85.9241C30.4583 85.9241 29.905 85.6227 29.3098 85.4224C28.6173 85.1878 27.9229 84.9531 27.2476 84.6784C25.9948 84.1712 24.7696 83.5981 23.5772 82.9616C22.4211 82.3417 21.288 81.6931 20.1682 81.0006C19.6912 80.7031 19.2353 80.373 18.7717 80.0469C17.753 79.3515 16.7723 78.602 15.8339 77.8016C14.5557 76.7067 13.2699 75.6117 12.1597 74.3413C11.5874 73.6927 10.9521 73.1186 10.416 72.4337C10.189 72.1495 10.1184 71.9397 10.3397 71.6097C10.6526 71.1404 10.912 70.6311 11.1753 70.1313C11.4386 69.6315 11.5263 69.6506 11.8621 70.055C12.4344 70.7436 13.0067 71.4246 13.6114 72.0808C14.6156 73.1614 15.6758 74.1884 16.7877 75.1578C17.9479 76.176 19.1685 77.1232 20.4429 77.9943C21.7788 78.9331 23.1701 79.7905 24.6093 80.5619C25.1644 80.8518 25.7291 81.1227 26.288 81.4031C26.309 81.4127 26.3434 81.4165 26.3529 81.4337C26.6085 81.8514 27.116 81.695 27.467 81.9182C27.8553 82.1395 28.2634 82.3241 28.686 82.4695C29.1114 82.6392 29.5464 82.7804 29.9794 82.933C31.5345 83.4882 33.1182 83.9594 34.7239 84.3446C35.3095 84.4819 35.9028 84.5907 36.4942 84.6975C36.8052 84.7528 36.9139 84.8883 36.7861 85.1935C36.6869 85.4338 36.7327 85.617 37.0379 85.657C37.2477 85.6837 37.2859 85.9031 37.4423 86.0652C37.5377 85.7715 37.6331 85.5044 37.7094 85.2374C37.7182 85.1903 37.7369 85.1456 37.7643 85.1063C37.7917 85.067 37.8272 85.034 37.8683 85.0095C37.9095 84.9849 37.9554 84.9694 38.0029 84.964C38.0505 84.9586 38.0987 84.9633 38.1444 84.9779C40.7847 85.3328 43.4513 85.4528 46.1128 85.3365C47.2574 85.2888 48.381 85.1572 49.5123 85.0161C50.3918 84.9092 51.254 84.7128 52.1258 84.5697C52.3567 84.5315 52.4654 84.5869 52.4769 84.8329C52.4611 85.1055 52.4908 85.3789 52.5646 85.6418C52.6943 85.3156 52.618 85.0466 52.6314 84.7891C52.6447 84.5315 52.7325 84.4285 52.9557 84.3904C54.2671 84.1247 55.5605 83.7768 56.8283 83.3489C57.4826 83.1428 58.1255 82.8949 58.7722 82.6621C58.9802 82.5858 59.1862 82.4847 59.2988 82.8529C59.2644 82.4332 59.5296 82.3607 59.789 82.2501C60.7772 81.8323 61.7559 81.3936 62.7154 80.9148C63.6233 80.4666 64.5072 79.9712 65.3633 79.4307C65.5541 79.3105 65.8078 79.0683 66.031 79.4937C66.0147 79.3537 66.041 79.2121 66.1063 79.0872C66.1716 78.9623 66.273 78.86 66.3973 78.7936C67.7612 77.9277 69.0658 76.9718 70.3023 75.9322C70.8079 75.503 71.3077 75.07 71.8113 74.6427C72.5897 73.977 73.286 73.2349 73.9975 72.5062C74.7191 71.7781 75.3963 71.0073 76.0254 70.1981C76.5596 69.5018 77.1071 68.8151 77.6393 68.1169C77.7862 67.9262 77.8988 67.7049 78.2803 68.0139C78.1048 67.5942 78.0323 67.3138 78.4711 67.268C78.4924 67.2596 78.5113 67.2458 78.5259 67.2282C78.5406 67.2105 78.5506 67.1895 78.555 67.1669C78.5111 66.5756 78.9366 66.1941 79.2094 65.7553C79.6386 65.0572 80.0449 64.3456 80.4475 63.6322C80.623 63.3194 80.8195 63.1477 81.1838 63.3022C81.2334 63.3251 81.283 63.327 81.3059 63.2736C81.3218 63.2213 81.3233 63.1657 81.3102 63.1127C81.2971 63.0596 81.2699 63.0111 81.2315 62.9722C81.2229 62.9555 81.2106 62.9411 81.1956 62.9299C81.1805 62.9188 81.1631 62.9113 81.1446 62.9079C81.1262 62.9046 81.1072 62.9056 81.0892 62.9108C81.0712 62.916 81.0546 62.9252 81.0407 62.9379C80.9625 62.9875 80.932 63.1019 80.8099 63.1C80.7584 62.9398 80.871 62.8272 80.932 62.707C82.1003 60.3778 83.0543 57.9471 83.7821 55.4449C83.9939 54.7029 84.0473 53.9074 84.4288 53.2131C84.4746 53.1291 84.5204 53.0433 84.5681 52.9613C84.6425 52.8392 84.8027 52.7438 84.5681 52.5931C84.4632 52.5282 84.5395 52.3413 84.5681 52.2116C84.8696 50.7473 85.083 49.2663 85.2072 47.7765C85.368 46.242 85.4107 44.6974 85.335 43.1564C85.3178 42.8683 85.3617 42.5841 85.3464 42.2903C85.2499 40.4054 85.048 38.5273 84.7417 36.6649C84.6654 36.2147 84.4517 35.7722 84.4612 35.3296C84.4746 34.784 84.2361 34.33 84.114 33.836C83.9347 33.113 83.6924 32.4053 83.5112 31.6823C83.1793 30.3623 82.6127 29.13 82.1014 27.8786C81.9107 27.4075 81.7351 26.9477 81.9278 26.3869C81.5883 26.6311 81.5844 26.633 81.4185 26.3049C80.6554 24.7998 79.8752 23.3062 78.9804 21.8774C78.5879 21.2409 78.16 20.627 77.6985 20.0385C77.2864 19.5197 76.9507 18.9474 76.5329 18.4304C75.518 17.1714 74.4592 15.9506 73.326 14.8061C71.9617 13.4446 70.508 12.1758 68.9746 11.0081C67.6624 10.006 66.2894 9.08603 64.8635 8.25356C64.6422 8.12003 64.482 8.01321 64.791 7.81101C64.7548 7.77858 64.7338 7.74615 64.7223 7.74996C64.255 7.89494 63.8677 7.71181 63.4652 7.49244C61.0701 6.19252 58.5459 5.14596 55.9336 4.36975C53.5353 3.63288 51.0711 3.13074 48.5756 2.8704C47.5932 2.77311 46.605 2.73687 45.6225 2.65675C43.7663 2.50606 41.9197 2.65675 40.073 2.79982C40.0365 2.8008 40.0002 2.80463 39.9643 2.81127C39.7201 2.85514 39.392 3.00202 39.2604 2.77311C39.1287 2.54421 39.3462 2.30385 39.4683 2.08448C39.5016 2.02258 39.5316 1.9589 39.558 1.89373C39.2957 2.13989 39.0527 2.40582 38.8311 2.68918C38.6404 2.98295 38.3504 3.02301 38.0681 3.06116C36.788 3.23284 35.527 3.49227 34.2717 3.78603C32.9384 4.09966 31.6233 4.48621 30.3324 4.94393C29.1286 5.37313 27.9344 5.83286 26.7802 6.37842C25.8342 6.79577 24.912 7.26511 24.0179 7.7843C23.5371 8.08188 23.045 8.37183 22.5413 8.61982C21.7382 9.01278 21.0934 9.62129 20.3418 10.0772C20.1455 10.1776 19.9221 10.2124 19.7046 10.1764C18.8747 10.1592 18.3482 9.47059 17.5928 9.2951C17.2627 9.21879 17.2666 9.0681 17.5336 8.86971C17.8541 8.63317 18.1708 8.39091 18.4875 8.16009C18.6573 8.04182 18.8404 7.92737 18.9205 8.30697C19.0999 7.56111 19.5978 7.25781 20.2311 7.11284C20.2521 7.11284 20.2864 7.11284 20.296 7.11284C20.9312 6.28114 21.9232 5.97974 22.776 5.46851C23.6287 4.95728 24.5482 4.53952 25.4467 4.11032C26.7192 3.50488 28.0234 2.96871 29.3537 2.50415C30.3762 2.14743 31.4197 1.85176 32.4613 1.55036C33.6556 1.20319 34.8803 1.00098 36.086 0.716755C36.2991 0.675271 36.5144 0.645342 36.7308 0.627099C37.3183 0.552704 37.3183 0.552704 37.6064 1.09255C37.7881 1.48302 38.0202 1.84795 38.297 2.17795L38.3885 2.13217C38.1882 1.71251 38.007 1.28712 37.7838 0.876991C37.593 0.525998 37.6484 0.371485 38.0452 0.373392C38.6632 0.373392 39.2604 0.224602 39.8727 0.197896C40.1055 0.188358 40.2676 0.197896 40.1875 0.5012C40.1684 0.57178 40.1608 0.65762 40.2371 0.691957C40.3134 0.726293 40.3954 0.655713 40.4431 0.592763C40.7865 0.140669 41.2539 0.0624585 41.79 0.0548283C43.2093 0.0395677 44.6286 -0.0539032 46.0498 0.0548283C46.5039 0.0891645 46.9732 0.0548283 47.4119 0.154022C47.7759 0.206959 48.143 0.235635 48.5108 0.239863C51.6238 0.545641 54.6942 1.18975 57.6677 2.16078C59.6761 2.81257 61.632 3.61606 63.5186 4.56432C64.5335 5.07174 65.514 5.63638 66.5079 6.17813C66.7464 6.30784 67.105 6.4223 67.0955 6.69126C67.0955 6.89347 66.6987 6.88202 66.4812 6.97931C66.2638 7.07659 66.0711 7.10902 65.97 7.47146C66.3468 7.29027 66.7341 7.13166 67.1299 6.99647C67.2674 6.93376 67.4196 6.91019 67.5697 6.92836C67.7199 6.94653 67.862 7.00575 67.9807 7.09948C69.4363 8.10859 70.8899 9.11197 72.2444 10.2622C73.7174 11.5029 75.1121 12.8338 76.4203 14.2471C77.2979 15.2047 78.1347 16.2005 78.9308 17.2344C79.8623 18.4364 80.7284 19.6877 81.5253 20.9828C82.2752 22.1895 82.9536 23.4392 83.557 24.7254C83.6047 24.8232 83.6156 24.935 83.5875 25.0402C83.557 25.1737 83.5627 25.2748 83.7497 25.2805C83.8737 25.2805 83.9118 25.4045 83.9557 25.5056C84.4059 26.5338 84.86 27.5582 85.2453 28.6131C85.3178 28.8133 85.4361 29.0117 85.3445 29.2406C85.3312 29.2731 85.3197 29.3265 85.335 29.3437C85.9721 30.0437 86.0179 30.9784 86.2888 31.8235C86.6605 33.0055 86.9549 34.2105 87.1702 35.4307C87.4926 37.2563 87.7425 39.0856 87.8913 40.9379C88.0423 42.9697 88.0462 45.0097 87.9027 47.0421C87.7153 49.8965 87.2424 52.7249 86.491 55.485C86.3003 56.2041 86.1629 56.9405 85.6555 57.5375C85.6182 57.5689 85.588 57.6079 85.567 57.6519C85.546 57.6958 85.5345 57.7437 85.5334 57.7925C85.5323 57.8412 85.5417 57.8896 85.5607 57.9344C85.5798 57.9793 85.6082 58.0195 85.644 58.0526C85.7356 58.1441 85.6173 58.3273 85.5715 58.4608C85.056 59.9663 84.4554 61.4413 83.7726 62.8787C83.5055 63.451 83.1564 63.9737 82.8855 64.5288C82.5574 65.2002 82.1873 65.845 81.8324 66.4993C81.2022 67.6243 80.4859 68.6989 79.6901 69.7135C79.4993 69.9577 79.3219 70.2076 79.1445 70.4632C78.4218 71.4709 77.6429 72.437 76.8114 73.357C75.8468 74.4602 74.8139 75.5019 73.719 76.4759C72.1337 77.8913 70.5122 79.2667 68.7151 80.415C68.0494 80.8404 67.4046 81.2887 66.7044 81.6702C66.1111 81.9926 65.5369 82.3817 64.9417 82.7213C64.0966 83.2039 63.2248 83.6293 62.3339 84.0299C61.6643 84.3332 60.9833 84.6021 60.3022 84.8825C60.1019 84.9665 59.9665 84.9588 59.8501 84.7585C59.7278 84.4828 59.5133 84.2582 59.2434 84.1233C59.1904 84.0941 59.1442 84.054 59.1077 84.0057C59.0712 83.9574 59.0453 83.9019 59.0317 83.8429C59.0213 83.8139 59.0047 83.7875 58.983 83.7656C58.9612 83.7438 58.935 83.727 58.906 83.7164C58.877 83.7058 58.8461 83.7018 58.8154 83.7045C58.7847 83.7073 58.755 83.7168 58.7284 83.7323C58.6063 83.7819 58.6692 83.8963 58.6921 83.986C58.7804 84.3128 58.9257 84.6215 59.1214 84.8978C59.2988 85.1534 59.2358 85.3289 58.9497 85.4205C57.8356 85.7772 56.7253 86.1434 55.6055 86.4792C54.648 86.7605 53.6754 86.9879 52.6924 87.1602C52.4616 87.185 52.2708 87.2346 52.1774 86.9122Z" fill="#BBD1DC"/>
<path d="M34.6838 55.1075L34.2088 54.9168C33.9093 54.8023 33.7567 54.5944 33.8902 54.2834C34.0638 53.8809 33.7853 53.5071 33.8578 53.1141C33.873 53.0283 33.8311 52.8928 33.7166 52.8909C33.564 52.8909 33.5812 53.034 33.5793 53.1389C33.5793 53.4269 33.5793 53.7112 33.5793 54.0068C33.5793 54.1194 33.6365 54.2777 33.4991 54.333C33.3618 54.3884 33.2588 54.2491 33.1729 54.1556C32.8028 53.7093 32.5072 53.2063 32.2973 52.6658C31.8108 51.5575 31.725 50.3767 31.725 49.1959C31.7078 47.5802 31.725 45.9645 31.725 44.3488C31.725 43.6697 31.7669 42.9887 31.7727 42.3077C31.7727 41.9853 32.0035 41.7354 32.0302 41.4226C32.055 41.1365 32.0817 40.8713 31.8604 40.6462C31.8047 40.5821 31.7641 40.5063 31.7413 40.4245C31.7185 40.3427 31.7143 40.2568 31.7288 40.1731C31.8185 38.8626 31.7879 37.5426 32.0493 36.2436C32.5567 33.7313 34.5465 32.2014 37.0837 32.705C38.8388 33.0522 40.0082 34.1357 40.5004 35.8945C40.7779 37.006 40.9005 38.1506 40.8647 39.2957C40.8647 40.3429 40.8876 41.394 40.8857 42.4393C40.8857 43.5953 40.8743 44.7513 40.8514 45.9073C40.8247 47.4124 40.8914 48.9194 40.7598 50.4244C40.6473 51.7082 40.3268 52.9272 39.5351 53.9611C38.9937 54.6848 38.1878 55.1649 37.2935 55.2964C36.4199 55.4142 35.5314 55.3499 34.6838 55.1075ZM36.8014 51.3134C36.8261 50.9891 36.8796 50.6056 36.8834 50.2203C36.8948 48.5588 36.8834 46.8954 36.8834 45.232C36.8967 43.004 36.933 40.7759 36.9292 38.546C36.9589 37.8839 36.9219 37.2206 36.8185 36.5659C36.8043 36.4454 36.7455 36.3346 36.6537 36.2552C36.562 36.1758 36.4438 36.1335 36.3225 36.1367C36.2072 36.1188 36.0893 36.1453 35.9927 36.2107C35.8961 36.2762 35.8278 36.3759 35.8017 36.4896C35.7695 36.6061 35.7497 36.7257 35.7426 36.8463C35.6739 37.8726 35.6739 38.9141 35.6739 39.9442C35.6739 41.1117 35.6586 42.281 35.6567 43.4504C35.6567 44.8581 35.6567 46.2678 35.6567 47.6756C35.6567 48.8678 35.5938 50.062 35.6987 51.2542C35.7311 51.6357 35.9105 51.8437 36.2405 51.8627C36.5705 51.8818 36.6735 51.6128 36.8014 51.3134Z" fill="#BBD1DC"/>
<path d="M51.6165 51.6946C51.2121 52.9707 50.7066 54.0924 49.6058 54.8268C48.8218 55.3476 47.9385 55.4353 47.0381 55.3762C46.6832 55.3533 46.3074 55.3876 45.9717 55.1244C45.8496 55.0271 45.5596 55.1244 45.3364 55.0252C44.4531 54.6437 43.8865 53.9779 43.4688 53.1443C42.9384 52.0761 42.7744 50.9525 42.7324 49.787C42.6542 47.992 42.6981 46.197 42.7095 44.4038C42.7209 42.3818 42.6561 40.3579 42.7858 38.3359C42.8583 37.2047 42.9518 36.064 43.4535 35.0224C44.2814 33.3056 45.9545 32.4358 47.8565 32.7085C48.3835 32.8021 48.8894 32.9895 49.3502 33.2617C50.1204 33.6595 50.7508 34.2832 51.1568 35.0491C51.3478 35.4254 51.4846 35.8268 51.5631 36.2414C51.7446 37.1144 51.8404 38.0031 51.8493 38.8948C51.8779 40.1843 51.8607 41.47 51.8493 42.7595C51.8493 43.9365 51.8264 45.1135 51.834 46.2904C51.834 47.435 51.8531 48.5795 51.7806 49.7241C51.7367 50.3993 51.7501 51.0899 51.6165 51.6946ZM46.9198 51.8357C47.4501 51.9902 47.6676 51.8663 47.7821 51.3569C47.8155 51.2162 47.8347 51.0724 47.8393 50.9277C47.8596 50.3745 47.8704 49.8207 47.8717 49.2662C47.8717 46.8303 47.9003 44.3962 47.9137 41.9602C47.9137 40.6097 47.9289 39.2591 47.9137 37.9086C47.9302 37.438 47.8853 36.9673 47.7802 36.5084C47.7642 36.4185 47.721 36.3355 47.6566 36.2708C47.5922 36.206 47.5095 36.1624 47.4196 36.146C47.3238 36.13 47.2255 36.1435 47.1376 36.1848C47.0497 36.226 46.9764 36.293 46.9274 36.3768C46.8009 36.5693 46.7345 36.795 46.7366 37.0254C46.6909 37.5976 46.6832 38.1566 46.6832 38.7231C46.6832 40.4679 46.6769 42.2133 46.6641 43.9594C46.6641 44.9723 46.6451 45.9852 46.6107 46.9962C46.5669 48.2304 46.3551 49.4646 46.6336 50.7007C46.6871 50.9248 46.691 51.1579 46.6451 51.3836C46.5802 51.6335 46.6012 51.8567 46.9293 51.8338L46.9198 51.8357ZM45.8686 54.4854C45.9335 53.8845 46.0594 53.2893 45.9087 52.6884C45.8915 52.6121 45.8973 52.4977 45.779 52.5072C45.7103 52.5072 45.6798 52.5721 45.6645 52.6293C45.4525 53.2357 45.4398 53.8941 45.6283 54.5082C45.6531 54.575 45.6779 54.6589 45.7656 54.6494C45.8534 54.6399 45.8457 54.5426 45.8686 54.4834V54.4854ZM48.4993 37.6453C48.5814 37.3477 48.6768 37.0521 48.7397 36.7507C48.9004 36.0458 49.022 35.3325 49.1041 34.6142C49.1155 34.5093 49.1384 34.3815 48.9572 34.3967C48.8446 34.4082 48.7664 34.4501 48.7931 34.5875C48.9 35.3391 48.6672 36.043 48.5032 36.7583C48.4383 37.033 48.3105 37.3229 48.4993 37.6434V37.6453Z" fill="#BBD1DC"/>
<path d="M1.01687 53.1977C0.800727 52.4178 0.640079 51.6235 0.53613 50.8209C0.414038 50.035 0.301484 49.2472 0.215637 48.4574C0.148868 47.8508 0.118345 47.2366 0.087822 46.6262C0.0248681 45.3882 -0.030455 44.1463 0.0210527 42.9083C0.0477604 42.2445 0.110714 41.5845 0.129791 40.9225C0.167945 39.6922 0.385422 38.4828 0.51133 37.2638C0.572376 36.6534 0.702099 36.0506 0.826099 35.4478C0.828532 35.3958 0.842631 35.345 0.867355 35.2992C0.892078 35.2534 0.926791 35.2137 0.968925 35.1831C1.01106 35.1525 1.05953 35.1318 1.11076 35.1225C1.16199 35.1131 1.21466 35.1155 1.26487 35.1292H1.2973C1.47281 35.1102 1.76468 35.1159 1.7437 34.9385C1.7189 34.7172 1.48998 34.9213 1.36216 34.929C0.980623 34.948 0.9501 34.929 1.03022 34.5665C1.55946 32.1254 2.29857 29.7346 3.23933 27.4208C3.799 26.0114 4.44372 24.6373 5.16992 23.3061C5.51521 22.69 5.80327 22.0204 6.24586 21.4882C6.58924 21.0743 6.69607 20.5669 7.02038 20.1529C7.34469 19.739 7.59269 19.2659 7.91318 18.8405C8.70487 17.7723 9.45269 16.6735 10.334 15.6701C11.2154 14.6667 12.0643 13.7339 12.9724 12.7973C13.1136 12.6504 13.2624 12.4711 13.5084 12.5036C13.5733 12.5036 13.5981 12.4921 13.6076 12.4368C13.6859 11.9427 14.1132 11.7253 14.4318 11.4353C14.9907 10.9241 15.5764 10.4434 16.1487 9.94742C16.1955 9.89359 16.2547 9.85193 16.3211 9.82602C16.3876 9.8001 16.4593 9.7907 16.5302 9.79863C17.4726 9.95124 18.3864 10.2164 19.3097 10.4472C19.388 10.4663 19.5005 10.4796 19.5005 10.5903C19.5005 10.7009 19.3841 10.7658 19.2964 10.8287C18.56 11.3533 17.858 11.9218 17.1693 12.5074C15.9855 13.5153 14.8619 14.5917 13.8041 15.7312C12.6678 16.9418 11.6052 18.2197 10.6221 19.5578C10.4046 19.8592 10.17 20.1453 9.90481 20.4753C9.80752 20.1453 9.93152 19.8248 9.76746 19.4986C9.6034 19.863 9.70069 20.1987 9.68161 20.5211C9.67811 20.7379 9.61544 20.9496 9.50038 21.1334C8.46459 22.7292 7.52497 24.3854 6.68653 26.0931C6.6045 26.261 6.58924 26.5299 6.25158 26.4574C6.12758 26.4307 6.15238 26.631 6.18863 26.7207C6.21899 26.8178 6.22891 26.9201 6.21774 27.0212C6.20658 27.1224 6.17458 27.2201 6.12376 27.3082C5.57244 28.6969 4.94672 30.0589 4.56899 31.5049C4.56899 31.5297 4.56899 31.5583 4.54801 31.5735C4.08635 32.0466 4.22752 32.7047 4.04056 33.2636C3.8021 33.9809 3.69146 34.1144 2.93219 34.2174C2.74446 34.2108 2.55905 34.2606 2.39995 34.3605C2.67167 34.3985 2.94815 34.3842 3.21453 34.3185C3.74296 34.2289 3.77349 34.227 3.64567 34.763C3.28139 36.3404 3.01949 37.9398 2.86161 39.551C2.66457 41.2028 2.58934 42.8669 2.6365 44.5298C2.65558 44.9799 2.52967 45.1402 2.0909 45.2813C1.76278 45.3862 1.41176 45.4492 1.12561 45.6743C1.01496 45.7464 0.935334 45.8573 0.902407 45.9852C0.871884 46.1207 0.829915 46.2523 0.971084 46.3438C1.11225 46.4354 1.19428 46.3286 1.29539 46.2656C1.67693 46.0272 2.09472 45.8574 2.33699 45.4473C2.37705 45.3786 2.47625 45.2871 2.58118 45.3424C2.6861 45.3977 2.65749 45.4854 2.67084 45.5694C2.72616 45.8765 2.61552 46.1893 2.70136 46.4965C2.70136 46.5174 2.70136 46.5575 2.70136 46.5651C2.31982 46.8284 2.6365 47.0783 2.71662 47.3282C2.82918 47.6791 2.80629 48.0454 2.85779 48.4021C2.97798 49.2243 3.08481 50.0483 3.19736 50.8724C3.22187 50.9661 3.22551 51.064 3.20804 51.1593C3.19057 51.2545 3.15241 51.3448 3.09625 51.4237C2.50869 52.1314 1.90776 52.8181 1.01687 53.1977Z" fill="#BBD1DC"/>
<path d="M68.5167 31.9624C68.3744 31.7989 68.2574 31.615 68.1695 31.4169C67.8128 30.6081 67.2996 29.8908 66.8341 29.1526C66.3095 28.3266 65.7143 27.5559 65.1172 26.7815C64.7643 26.3198 64.3675 25.8983 63.9726 25.4729C63.7971 25.2821 63.6616 25.1085 63.7608 24.8033C63.7416 24.8398 63.7132 24.8708 63.6785 24.8932C63.6438 24.9156 63.6039 24.9286 63.5627 24.9311C63.5215 24.9336 63.4804 24.9254 63.4432 24.9074C63.4061 24.8894 63.3742 24.8621 63.3507 24.8281C61.8756 23.3468 60.2358 22.0392 58.4632 20.931C55.8348 19.2816 52.9505 18.0806 49.9281 17.3772C49.188 17.1998 48.4401 17.1196 47.6942 17.0147C47.368 16.967 47.4787 16.7362 47.4024 16.534C47.389 17.0777 47.059 16.9346 46.7614 16.9003C45.5615 16.7726 44.3542 16.7286 43.1482 16.7686C42.0147 16.7955 40.8845 16.902 39.7659 17.0872C38.7243 17.278 37.6674 17.4058 36.6601 17.732C35.8971 17.9838 35.1054 18.2203 34.3404 18.5103C33.005 19.0196 31.744 19.6968 30.4716 20.3434C30.2045 20.4808 29.9622 20.662 29.7085 20.8184C28.2533 21.7126 26.8886 22.7463 25.6337 23.9049C24.7831 24.6853 23.9774 25.5132 23.2204 26.3847C22.2927 27.4775 21.4496 28.6394 20.6985 29.8603C20.5401 30.1102 20.5306 30.1045 20.191 30.051C20.4486 30.8236 19.8629 31.3177 19.5844 31.9014C18.4874 34.1905 17.6137 36.5654 17.2169 39.0891C17.1925 39.3541 17.1079 39.61 16.9698 39.8374C16.8316 40.0648 16.6434 40.2577 16.4195 40.4015C16.2373 40.5374 16.1079 40.7322 16.0532 40.9528C16.3394 40.9528 16.4653 40.7621 16.6255 40.6342C16.7057 40.5751 16.7858 40.5083 16.8869 40.5637C16.988 40.619 16.9403 40.7144 16.9327 40.7945C16.8014 42.042 16.7473 43.2963 16.7705 44.5505C16.8112 46.406 17.0374 48.2529 17.4458 50.0634C17.8245 51.7346 18.3597 53.3664 19.0445 54.9372C19.4933 55.9588 20.0029 56.9525 20.5706 57.913C21.3887 59.2953 22.3366 60.5964 23.4017 61.7987C23.6325 62.0658 23.5772 62.268 23.415 62.5331C22.8599 63.4488 22.9152 63.2351 22.3887 62.6323C20.3156 60.256 18.6656 57.5416 17.5107 54.6072C16.9628 53.2445 16.5215 51.8414 16.1906 50.4105C15.7123 48.3678 15.4729 46.2765 15.4771 44.1785C15.4771 43.4155 15.5439 42.6658 15.5878 41.9142C15.6393 41.0348 15.7385 40.165 15.8548 39.297C15.935 38.6904 16.0838 38.0915 16.223 37.4944C16.4615 36.4719 16.7686 35.4685 17.0948 34.4709C17.1223 34.3136 17.2015 34.1699 17.3199 34.0627C17.4592 34.1485 17.3791 34.3431 17.5107 34.4308C17.6309 34.4098 17.6233 34.2992 17.6042 34.2401C17.3772 33.477 17.7186 32.8132 18.0372 32.1685C18.228 31.7774 18.3711 31.3539 18.7164 31.0239C18.8785 30.8751 18.8175 30.547 18.9548 30.3086C19.9065 28.6175 21.0106 27.0167 22.2532 25.5263C24.4233 22.9637 27.0381 20.8138 29.9718 19.1798C31.4356 18.3475 32.9672 17.6405 34.5502 17.0662C35.8012 16.619 37.0851 16.2701 38.3904 16.0228C40.0453 15.6882 41.7272 15.505 43.4153 15.4753C44.3432 15.4511 45.2718 15.4785 46.1967 15.5573C46.4256 15.5802 46.708 15.5459 46.7194 15.9389C46.8377 15.6508 47.038 15.6146 47.2917 15.6584C48.5489 15.8664 49.8175 16.0132 51.048 16.3623C52.3242 16.7248 53.6138 17.0529 54.8233 17.6003C55.4414 17.8788 56.0538 18.2012 56.6661 18.4797C57.4781 18.8628 58.2684 19.2901 59.0336 19.7597C60.25 20.4975 61.4025 21.3359 62.4789 22.2663C64.254 23.7731 65.8412 25.4883 67.2061 27.3747C68.2032 28.7689 69.0783 30.2463 69.8216 31.7908C69.8583 31.8464 69.8834 31.9088 69.8956 31.9744C69.9077 32.0399 69.9065 32.1072 69.8922 32.1723C69.5294 31.987 69.1999 31.7427 68.9173 31.4493C68.8467 31.3863 68.7857 31.2738 68.6808 31.31C68.5759 31.3463 68.6541 31.4779 68.6388 31.5638C68.6159 31.6935 68.5816 31.8213 68.5511 31.9453L68.5167 31.9624Z" fill="#BBD1DC"/>
<path d="M29.2393 54.8442C28.6956 54.9759 28.1786 54.8996 27.6673 54.911C27.1847 54.9224 26.7001 54.8862 26.2194 54.911C25.8779 54.9282 25.773 54.7927 25.7768 54.4742C25.7768 53.2075 25.7768 51.9428 25.7768 50.6781C25.7768 48.7 25.8054 46.7237 25.8073 44.7475C25.8073 43.3855 25.7825 42.0235 25.7787 40.6615C25.7787 39.7439 25.483 39.3662 24.5731 39.2231C24.1915 39.1621 23.8214 39.0553 23.4284 39.1049C23.2587 39.1259 23.2377 39.0095 23.2243 38.8779C23.1232 38.1454 23.2243 37.411 23.2071 36.6765C23.2071 36.4991 23.3369 36.44 23.4838 36.3885C24.4527 36.0793 25.335 35.546 26.0591 34.8319C26.5265 34.355 26.9996 33.8781 27.3087 33.2582C27.3364 33.1791 27.3879 33.1105 27.4563 33.062C27.5247 33.0134 27.6064 32.9873 27.6902 32.9873C28.2625 32.9873 28.8234 32.9873 29.39 33.0045C29.6799 33.0045 29.7887 33.1189 29.7849 33.447C29.7658 35.5072 29.7849 37.5674 29.7849 39.6276C29.7849 40.6996 29.7486 41.7717 29.741 42.8437C29.741 44.055 29.741 45.2682 29.741 46.4815C29.7667 46.7583 29.7269 47.0374 29.6246 47.296C29.5876 47.3593 29.5747 47.4338 29.5884 47.5058C29.9222 48.2841 29.6876 49.0948 29.7334 49.8884C29.7963 50.9795 29.6857 52.0706 29.7467 53.1637C29.7658 53.5185 29.7047 53.8809 29.7467 54.2414C29.7576 54.2959 29.7493 54.3525 29.7232 54.4015C29.6972 54.4505 29.6549 54.489 29.6036 54.5104C29.5503 54.5223 29.4947 54.5181 29.4438 54.4984C29.3929 54.4787 29.3489 54.4444 29.3175 54.3998C29.2297 54.3082 29.1839 54.0736 29.0008 54.2224C28.8177 54.3712 28.9913 54.499 29.0847 54.621C29.1343 54.684 29.1878 54.747 29.2393 54.8442Z" fill="#BBD1DC"/>
<path d="M63.1599 8.42365C62.8108 8.49614 62.5228 8.31874 62.2366 8.17185C59.5857 6.80777 56.7865 5.75356 53.8943 5.03009C53.734 4.99003 53.5509 4.97858 53.4822 4.7802C53.467 4.73632 53.4422 4.6791 53.3868 4.70199C52.7363 4.97858 52.1487 4.59707 51.5459 4.49788C50.1514 4.26706 48.7549 4.08584 47.349 3.92561C47.1296 3.90271 46.8988 3.90081 46.9312 3.51929C46.6851 3.91988 46.0498 3.97711 45.7866 3.68334C45.7332 3.62421 45.6874 3.54981 45.6321 3.63947C45.4813 3.88555 45.2505 3.7978 45.0464 3.7978H43.381C43.215 3.7978 43.0395 3.83595 42.9155 3.6719C42.8983 3.64519 42.8411 3.61276 42.8354 3.61849C42.3165 4.07058 41.6812 3.86266 41.0994 3.91034C39.4705 4.04265 37.8503 4.26554 36.2462 4.57799C33.9281 5.01956 31.655 5.67081 29.4548 6.52372C28.1258 7.02736 26.8332 7.62202 25.586 8.30348C24.9488 8.66019 24.304 9.01882 23.6478 9.34501C22.837 9.74941 22.1598 10.3484 21.3795 10.7929C21.0152 11.0008 20.7214 11.3651 20.2082 11.1248C20.0175 11.0389 19.9068 11.2793 19.9106 11.4414C19.9106 11.8229 19.6951 12.0499 19.4184 12.2273C18.8461 12.586 18.4016 13.0762 17.8732 13.4768C17.7339 13.5817 17.6176 13.7477 17.402 13.6828C17.3524 13.6695 17.2914 13.6828 17.2914 13.74C17.2914 14.1616 16.9232 14.3123 16.6828 14.5317C15.3598 15.7652 14.1119 17.0768 12.9456 18.4594C12.1434 19.4004 11.4005 20.3904 10.7213 21.4237C10.086 22.3909 9.40305 23.3313 8.90133 24.3919C8.598 25.031 8.2012 25.6261 7.89788 26.2632C7.47819 27.1426 7.12145 28.0544 6.70939 28.9338C6.07603 30.292 5.74409 31.7513 5.27862 33.1648C5.11074 33.678 5.0268 34.2197 4.89708 34.7443C4.84175 34.9579 4.85511 35.2136 4.6052 35.3356C4.59157 35.3466 4.58068 35.3606 4.5734 35.3765C4.56611 35.3924 4.56263 35.4097 4.56323 35.4272C4.73301 36.1769 4.40489 36.8731 4.31714 37.5923C4.22938 38.3115 4.14926 38.981 4.03671 39.6716C4.00618 39.8623 4.06341 40.0874 3.83449 40.2171C3.79825 40.2362 3.79443 40.3583 3.81351 40.4193C4.01572 41.0641 3.84212 41.7107 3.84403 42.3574C3.84403 43.0556 3.82495 43.7557 3.81351 44.4557C3.82931 44.5956 3.81566 44.7373 3.77345 44.8716C3.65708 44.904 3.64181 44.8067 3.59221 44.7648C3.5766 44.7463 3.55466 44.7343 3.53067 44.7311C3.50669 44.7279 3.48238 44.7338 3.46249 44.7476C3.43749 44.765 3.42017 44.7914 3.41413 44.8212C3.40809 44.8511 3.4138 44.8821 3.43006 44.9078C3.4892 45.0261 3.56741 45.131 3.62083 45.2474C4.09203 46.1077 3.87837 47.0596 3.98901 47.9657C4.02145 48.2175 4.17978 48.5055 3.94895 48.7687C3.93751 48.7821 4.11111 48.9595 4.13018 49.1217C4.39741 51.1543 4.81118 53.1651 5.36828 55.1381C5.48465 55.5635 5.55905 56.0042 5.67923 56.42C5.79942 56.8359 6.06077 57.2345 6.19049 57.6656C6.51289 58.7015 6.96502 59.6858 7.3828 60.6796C7.82729 61.7345 8.43776 62.7226 8.9948 63.7317C9.82634 65.2414 10.7674 66.688 11.8106 68.06C11.8787 68.1291 11.922 68.2188 11.9337 68.315C11.9455 68.4113 11.925 68.5088 11.8754 68.5922C11.6846 68.9489 11.5721 68.9642 11.3184 68.6437C10.7104 67.8803 10.1491 67.0809 9.63769 66.2497C8.9948 65.212 8.31948 64.1914 7.77197 63.0946C7.22446 61.9977 6.66169 60.899 6.19812 59.7583C5.58033 58.2554 5.0485 56.7186 4.6052 55.1553C4.29615 54.0514 4.03098 52.9374 3.80969 51.8132C3.47847 50.1125 3.25798 48.3921 3.14963 46.6628C3.10003 45.8864 2.9932 45.0929 3.10575 44.3356C3.18206 43.8224 3.07714 43.3493 3.08858 42.8591C3.11721 41.5194 3.21783 40.1821 3.39 38.8532C3.59221 37.3119 3.79634 35.7629 4.25991 34.275C4.51363 33.4681 4.62428 32.6326 4.89517 31.8276C5.56502 29.8136 6.35626 27.842 7.26452 25.9237C7.76434 24.8783 8.40914 23.9188 8.88606 22.8601C8.89349 22.8374 8.90587 22.8165 8.92231 22.7991C9.42213 22.4042 9.59191 21.7805 9.95246 21.2864C10.313 20.7923 10.6621 20.2544 11.0303 19.747C11.6255 18.9267 12.2551 18.1351 12.9189 17.3721C12.98 17.3034 13.0296 17.1164 13.1898 17.2576C13.2528 17.3129 13.2757 17.2729 13.2776 17.2233C13.2871 16.7216 13.6954 16.4717 13.9796 16.1665C15.5956 14.4318 17.355 12.8365 19.2391 11.3976C19.9831 10.8253 20.7119 10.2072 21.5646 9.81618C21.8813 9.67311 22.0739 9.43467 22.3277 9.27824C23.5099 8.53047 24.7306 7.84535 25.9847 7.2257C27.2468 6.60062 28.5429 6.04656 29.8669 5.56612C30.9199 5.1846 31.987 4.84378 33.068 4.54366C34.6195 4.09536 36.2031 3.7663 37.8048 3.55935C38.6785 3.45634 39.5465 3.31328 40.4317 3.25796C41.3989 3.19501 42.3718 3.14922 43.3409 3.0672C43.7453 3.03096 44.1536 3.09772 44.5637 3.05003C44.8423 3.0176 44.8194 3.35524 45.0044 3.51929C45.1189 3.01379 45.5157 3.04431 45.8381 3.10154C46.6374 3.2446 47.4482 3.17975 48.2437 3.30565C49.1975 3.45444 50.1628 3.4449 51.0881 3.71577C51.3425 3.82637 51.6177 3.88101 51.895 3.87601C52.2079 3.84358 52.5379 3.95803 52.8489 4.02289C53.1598 4.08775 53.5032 4.17359 53.8294 4.25752C54.1556 4.34146 54.459 4.42539 54.7737 4.51123C55.0885 4.59707 55.43 4.67719 55.7505 4.7821C57.6754 5.37527 59.557 6.1006 61.382 6.95292C61.9447 7.2257 62.5171 7.48513 63.0627 7.79225C63.3316 7.94295 63.4308 8.1337 63.2038 8.40076C63.1898 8.40953 63.1751 8.41719 63.1599 8.42365Z" fill="#BBD1DC"/>
<path d="M64.0718 43.3354C65.3824 43.5815 66.0463 44.8443 66.1398 45.7809C66.2161 46.5439 66.2313 47.3222 66.2409 48.0872C66.2409 48.648 66.197 49.2184 66.218 49.7811C66.2313 50.1187 65.8708 50.3305 65.949 50.6013C66.0272 50.8722 66.2237 51.0744 66.2065 51.3873C66.1646 52.1503 66.1569 52.9324 65.888 53.6763C65.7183 54.1446 65.4063 54.5479 64.9958 54.8299C64.5852 55.1118 64.0967 55.258 63.5987 55.2482C63.2869 55.2699 62.9736 55.259 62.664 55.2158C61.3705 54.9315 60.6246 54.0712 60.493 52.6672C60.3789 51.5149 60.3744 50.3544 60.4797 49.2012C60.556 48.4382 60.3556 47.7152 60.4472 46.9636C60.5445 46.1643 60.4777 45.3403 60.8764 44.6001C61.195 44.0069 61.6395 43.5548 62.3282 43.3945C62.9215 43.2477 63.5129 43.1447 64.0718 43.3354ZM63.6159 52.8027C63.6502 52.3658 63.7742 51.8394 63.7151 51.3358C63.6121 50.4564 63.6998 49.5808 63.6712 48.7033C63.6407 47.7495 63.6712 46.7805 63.6617 45.8191C63.6617 45.5921 63.6216 45.3326 63.3565 45.3231C63.0627 45.3231 63.0188 45.5882 63.0093 45.8248C62.9959 46.172 62.9978 46.523 62.9978 46.8701C62.9978 48.8311 63.0016 50.7921 63.0093 52.7531C63.0093 52.9438 63.0093 53.1232 63.2573 53.1689C63.5053 53.2147 63.5472 53.0507 63.6159 52.8027Z" fill="#BBD1DC"/>
<path d="M57.7192 43.7648C57.6334 44.4668 57.3759 44.6842 56.7654 44.6976C56.4277 44.6976 56.092 44.6976 55.7543 44.6632C54.8367 44.6003 53.7989 43.9574 53.5052 42.5916C53.3335 41.7923 53.3659 40.9835 53.3564 40.1785C53.3392 38.973 53.3373 37.7674 53.3697 36.5542C53.3643 35.8176 53.4638 35.0841 53.6654 34.3757C53.7707 34.0017 53.9735 33.6624 54.2531 33.3926C54.5326 33.1228 54.8789 32.9321 55.2564 32.8401C55.489 32.761 55.7295 32.7073 55.9737 32.6799C57.0382 32.6589 57.9978 32.9145 58.6006 33.8836C58.9116 34.3286 59.0848 34.8554 59.0985 35.3982C59.0985 36.4454 59.234 37.4965 59.0985 38.5399C59.0298 39.0741 59.1138 39.5815 59.1233 40.1022C59.163 40.9816 59.099 41.8626 58.9325 42.727C58.8462 43.1933 58.616 43.6209 58.2744 43.9498C58.0397 44.1787 57.8795 44.2913 57.7192 43.7648ZM55.9432 34.1449C55.8364 34.2269 55.8745 34.307 55.8612 34.3757C55.8039 34.6752 56.0023 34.9384 55.9565 35.257C55.8939 35.7587 55.876 36.2649 55.9031 36.7697C55.9451 37.9143 55.8783 39.0588 55.884 40.2033C55.884 40.9129 55.8364 41.6245 55.9375 42.3322C55.9642 42.5134 56.0195 42.666 56.2465 42.6507C56.4735 42.6355 56.5308 42.4886 56.5422 42.3055C56.5613 41.9926 56.5765 41.6798 56.5784 41.367C56.5784 40.2701 56.5784 39.1732 56.5937 38.0783C56.5937 37.9448 56.546 37.7483 56.7177 37.6968C56.9619 37.6224 56.918 37.4641 56.8837 37.2981C56.7368 36.5656 56.5269 35.8445 56.5804 35.0853C56.5804 35.0071 56.5575 34.8831 56.504 34.8545C56.2366 34.6945 56.0371 34.4421 55.9432 34.1449Z" fill="#BBD1DC"/>
<path d="M11.2555 69.5444L10.5401 70.8701C10.4256 71.0819 10.3226 71.3012 10.1891 71.4996C10.0078 71.7705 9.8476 71.7838 9.65492 71.5187C9.33633 71.078 8.97959 70.6679 8.66482 70.2273C7.86741 69.1113 7.07762 67.9897 6.37559 66.807C5.03796 64.5738 3.88935 62.2327 2.94174 59.8081C2.24925 58.0169 1.72082 56.1837 1.21147 54.3353C1.2014 54.3001 1.19312 54.2645 1.18667 54.2285C1.08747 53.4445 0.879528 53.5284 1.66931 53.0973C2.18057 52.8169 2.56402 52.3743 2.97799 51.9718C3.06193 51.8917 3.12488 51.7486 3.26414 51.7811C3.40341 51.8135 3.38242 51.9718 3.40341 52.0863C3.61516 53.1869 3.90131 54.2704 4.21799 55.3444C4.48507 56.2537 4.77122 57.1585 5.07645 58.0589C5.26722 58.6407 5.51522 59.2034 5.74224 59.7757C5.78014 59.8363 5.80023 59.9064 5.80023 59.9779C5.80023 60.0494 5.78014 60.1195 5.74224 60.1801C5.62968 60.3403 5.64685 60.491 5.89104 60.47C6.08181 60.4529 6.09707 60.6131 6.14285 60.7142C6.66556 61.8588 7.21879 62.9766 7.83307 64.0677C8.33479 64.9605 8.85369 65.8418 9.4279 66.6906C10.0021 67.5395 10.542 68.3483 11.1696 69.1266C11.2253 69.1789 11.2634 69.2471 11.2788 69.3219C11.2942 69.3967 11.286 69.4744 11.2555 69.5444Z" fill="#BBD1DC"/>
<path d="M68.5492 31.9424C69.6175 32.1923 70.3043 32.8542 70.6896 33.8728C71.1092 34.9388 71.4565 36.0318 71.7293 37.1443C72.1586 38.9966 72.4924 40.8717 72.4924 42.7793C72.3646 42.9014 72.3264 42.6286 72.2101 42.7373C72.2101 42.7545 72.1814 42.7831 72.1891 42.7965C72.4884 43.3354 72.6143 43.9536 72.5496 44.5667C72.4809 45.6006 72.4886 46.6402 72.2959 47.6627C72.2895 47.7904 72.245 47.9133 72.1681 48.0156C71.9315 47.8153 71.9773 47.4872 71.7865 47.2525C71.7522 47.3765 71.756 47.5024 71.6931 47.573C71.6283 47.6425 71.581 47.7265 71.555 47.8179C71.5291 47.9093 71.5253 48.0056 71.5439 48.0988C71.5626 48.192 71.6031 48.2794 71.6622 48.3538C71.7213 48.4282 71.7973 48.4875 71.8838 48.5268C72.336 48.7519 72.0746 49.0342 72.046 49.2517C71.8774 50.336 71.6222 51.4051 71.2829 52.4488C71.033 53.2309 70.7583 54.0015 70.4512 54.7607C68.7572 58.9564 66.0738 62.6802 62.6296 65.6148C62.5743 65.6606 62.5361 65.7235 62.4846 65.775C62.3225 65.9467 62.2004 65.8876 62.1451 65.6892C62.0611 65.3764 62.0001 65.0559 61.9295 64.7354C61.9144 64.6761 61.9178 64.6136 61.9393 64.5563C61.9608 64.499 61.9993 64.4497 62.0497 64.4149C62.828 63.8198 63.3984 63.0167 64.1233 62.3681C64.1405 62.3529 64.152 62.3204 64.171 62.3147C64.6651 62.1602 64.7166 61.6299 65.0257 61.3113C65.3495 60.9548 65.6491 60.5769 65.9223 60.1801C66.2085 59.7986 66.4736 59.3904 66.7502 58.9955C67.2922 58.2273 67.7676 57.4143 68.1715 56.5653C68.2382 56.4203 68.3355 56.3268 68.5149 56.4108C68.5893 56.4432 68.6484 56.6015 68.7495 56.4661C68.7898 56.4191 68.8119 56.3592 68.8119 56.2973C68.8119 56.2354 68.7898 56.1755 68.7495 56.1285C68.4748 55.9186 68.616 55.7145 68.719 55.5009C69.5838 53.6666 70.2342 51.7386 70.6572 49.7553C71.1316 47.5386 71.3296 45.2717 71.2467 43.0063C71.2314 42.3482 71.0559 41.6901 71.2333 41.03C71.2462 40.9576 71.239 40.8831 71.2123 40.8145C70.764 39.4391 70.6839 37.9779 70.2432 36.5969C69.8367 35.2359 69.3402 33.9033 68.7571 32.6081C68.6618 32.4021 68.6045 32.1789 68.5282 31.9634L68.5492 31.9424Z" fill="#BBD1DC"/>
<path d="M63.16 8.42347C63.1815 8.41433 63.202 8.40282 63.221 8.38914C64.1748 8.06867 64.7758 8.77065 65.4835 9.15216C66.1913 9.53368 66.8189 10.0525 67.5286 10.4379C67.7667 10.5895 67.9819 10.7745 68.1676 10.9872C68.3279 11.1532 68.1123 11.405 68.2211 11.6053C68.2497 11.6053 68.2897 11.6053 68.2917 11.5919C68.4099 11.1608 68.4156 11.1532 68.7838 11.426C69.9181 12.2814 71.0046 13.1984 72.0384 14.1729C73.4579 15.4964 74.7802 16.9206 75.9949 18.4344C76.8497 19.4938 77.6458 20.5993 78.3795 21.7459C79.0625 22.8123 79.7149 23.8958 80.2968 25.0212C80.7298 25.8663 81.1457 26.7171 81.4986 27.6041C81.6894 28.0924 81.9488 28.5579 82.1301 29.0577C82.7024 30.5837 83.2899 32.1193 83.6276 33.7198C83.7993 34.5267 84.0454 35.3145 84.1904 36.1328C84.3354 36.9512 84.4899 37.7676 84.6005 38.5879C84.7837 39.9612 84.8888 41.3439 84.9153 42.7292C84.9305 43.4922 84.9573 44.2553 84.9248 45.0068C84.9153 45.2434 84.9725 45.4914 84.8104 45.7069C84.7922 45.738 84.7855 45.7744 84.7913 45.8099C84.9515 47.3608 84.612 48.862 84.4097 50.3881C84.1407 52.2611 83.7274 54.1106 83.1736 55.92C82.8952 56.9069 82.5569 57.8758 82.1606 58.8215C82.0976 58.9683 82.0919 59.2182 81.8306 59.1686C81.7066 59.1211 81.6037 59.0306 81.5407 58.9137C81.4777 58.7968 81.4587 58.6612 81.4872 58.5315C81.618 58.0776 81.7753 57.6317 81.9584 57.1962C82.2539 56.4715 82.4962 55.7262 82.6833 54.9663C83.1478 53.3714 83.5035 51.7469 83.7478 50.1039C83.8565 49.3675 83.9385 48.6217 84.032 47.8835C84.1622 46.6952 84.2183 45.5 84.1999 44.3049C84.1999 43.4617 84.1369 42.6128 84.116 41.7716C84.0873 40.732 83.9805 39.7076 83.8527 38.6852C83.4477 35.488 82.6434 32.3542 81.4585 29.3571C80.5215 26.9913 79.3722 24.7152 78.0247 22.5567C77.3379 21.4484 76.5424 20.4164 75.7793 19.3634C75.684 19.2299 75.4093 19.104 75.7011 18.8712C75.7793 18.8083 75.6267 18.7339 75.5542 18.732C75.2051 18.7167 75.0315 18.4592 74.8408 18.2284C74.0568 17.2658 73.2199 16.3475 72.3341 15.4777C72.2062 15.3556 72.0422 15.2488 72.0651 15.0332C72.0651 14.9855 72.0651 14.9207 72.0078 14.9207C71.5309 14.9207 71.3325 14.5105 71.054 14.253C70.0677 13.351 69.0362 12.4998 67.9635 11.7026C67.4904 11.3573 67.0478 10.9396 66.5633 10.6534C65.9547 10.2986 65.3843 9.87132 64.7472 9.56229C64.3758 9.41624 64.0448 9.18338 63.7819 8.8832C63.7075 8.784 63.635 8.81453 63.5396 8.80499C63.3183 8.78591 63.1237 8.70579 63.16 8.42347Z" fill="#BBD1DC"/>
<path d="M60.0028 46.2543C59.6734 47.4662 59.344 48.6744 59.0146 49.8787C58.5548 51.5745 58.0893 53.2684 57.6448 54.9681C57.5552 55.3114 57.3873 55.464 57.0401 55.4278C56.9925 55.4249 56.9447 55.4249 56.897 55.4278C55.8459 55.4412 55.9432 55.5136 56.1931 54.4893C56.4716 53.3295 56.8112 52.183 57.126 51.0309C57.1657 50.8919 57.2141 50.7555 57.2709 50.6226C57.3091 50.5349 57.3263 50.3804 57.4865 50.5311C57.58 50.6207 57.62 50.5177 57.6048 50.451C57.2881 49.1901 57.9863 48.1085 58.2419 46.9525C58.5624 45.5065 58.9936 44.0911 59.3866 42.6566C59.5411 42.1034 59.7681 41.5502 59.8788 41.0028C60.0848 40.049 60.3557 39.1124 60.598 38.17C61.0386 36.4532 61.5232 34.7497 61.9829 33.0387C61.9963 32.9364 62.0495 32.8436 62.1309 32.7803C62.2124 32.7171 62.3155 32.6886 62.4179 32.701C62.7183 32.6791 63.0199 32.6791 63.3202 32.701C63.511 32.7315 63.5873 32.8059 63.532 33.0158C63.3031 33.8646 63.1314 34.7326 62.8528 35.5643C62.5362 36.5181 62.3683 37.5024 62.0898 38.4638C61.9206 39.0666 61.7534 39.6694 61.588 40.2722C61.0463 42.2624 60.5057 44.2507 59.9665 46.2371L60.0028 46.2543Z" fill="#BBD1DC"/>
<path d="M45.5463 72.4871C45.5043 72.4737 45.4509 72.4737 45.4394 72.4509C45.2696 72.1075 45.3517 71.7489 45.3879 71.3941C45.4127 71.1652 45.6035 71.2033 45.7523 71.2033C47.9808 71.0598 50.1834 70.644 52.3109 69.9653C53.7896 69.4906 55.2234 68.8861 56.5956 68.1588C58.193 67.3199 59.7047 66.327 61.1092 65.1945C61.445 64.9179 61.5327 64.9541 61.6682 65.3852C61.9314 66.2265 61.9353 66.2303 61.2237 66.7644C59.5935 67.9894 57.8412 69.0428 55.9947 69.9081C53.8706 70.8877 51.6357 71.6064 49.3388 72.0484C48.1578 72.2875 46.9599 72.4335 45.7561 72.4852L45.5463 72.4871Z" fill="#BBD1DC"/>
<path d="M39.1078 71.2356C38.9532 70.8236 38.9819 70.7797 39.413 70.8541C40.7886 71.0983 42.1823 71.2259 43.5794 71.2356C43.8923 71.2356 44.2051 71.2356 44.518 71.2356C44.6286 71.2356 44.7565 71.2566 44.7755 71.3844C44.8251 71.7068 44.8633 72.0291 44.8862 72.3534C44.8976 72.5041 44.7603 72.5079 44.6515 72.5098C43.1573 72.564 41.6614 72.4765 40.1837 72.2485C39.2299 72.0921 38.276 71.9681 37.3432 71.7468C35.9492 71.4118 34.5825 70.9718 33.255 70.4306C31.6812 69.7786 30.1633 68.999 28.7166 68.0995C28.2473 67.8134 28.2339 67.781 28.4667 67.2717C28.749 66.6536 28.7948 66.6422 29.3652 66.9779C29.6073 67.0909 29.8047 67.2816 29.926 67.5196C29.9661 67.6131 30.0462 67.7486 30.1683 67.6532C30.3324 67.5216 30.443 67.6398 30.5594 67.7009C31.6908 68.342 32.8671 68.9004 34.0791 69.3719C35.4488 69.8717 36.8204 70.3772 38.276 70.6233C38.5507 70.6709 38.7911 70.7396 38.8388 71.0754C38.8445 71.1841 38.9323 71.2699 39.1078 71.2356Z" fill="#BBD1DC"/>
<path d="M16.6771 74.0976C16.8926 73.739 17.0586 73.8076 17.2494 73.985C17.4401 74.1624 17.587 74.2941 17.7568 74.4467C17.9266 74.5993 17.8503 74.75 17.8217 74.9159C17.8045 75.0075 17.7931 75.1429 17.9056 75.1658C18.0621 75.1963 18.0163 75.0533 18.0182 74.9751C18.0182 74.8053 18.1326 74.769 18.2223 74.8778C18.6458 75.3947 19.3288 75.574 19.7599 76.07C20.2864 76.6766 21.019 76.9876 21.6676 77.4263C22.888 78.2447 24.1529 78.9949 25.4563 79.6734C25.7081 79.8088 25.6184 79.9977 25.6222 80.28C25.8912 79.8489 26.1507 80.0168 26.4158 80.1522C27.8371 80.8752 29.3403 81.3998 30.8035 82.0159C31.4674 82.2963 32.179 82.365 32.8448 82.6282C33.5106 82.8915 34.2393 83.0097 34.9432 83.1757C35.7769 83.3779 36.6201 83.5172 37.4614 83.6698C37.6522 83.7041 37.944 83.6354 37.9002 83.9941C37.8563 84.3527 37.7094 84.4671 37.305 84.408C35.4869 84.139 33.7261 83.6202 31.9634 83.1223C29.9799 82.5526 28.0552 81.7951 26.2155 80.8599C25.689 80.5967 25.1358 80.3887 24.6283 80.0816C24.1209 79.7745 23.5772 79.5094 23.0507 79.208C23.0141 79.1948 22.9808 79.1741 22.9529 79.1471C22.9249 79.1201 22.903 79.0876 22.8886 79.0515C22.8742 79.0155 22.8676 78.9768 22.8692 78.938C22.8708 78.8992 22.8807 78.8612 22.8981 78.8264C22.9259 78.7774 22.9377 78.7209 22.9319 78.6648C22.9261 78.6088 22.9029 78.5559 22.8656 78.5136C22.7073 79.0363 22.4593 78.8455 22.1865 78.6433C22.0129 78.5155 21.8049 78.4335 21.6142 78.3209C21.3929 78.1855 21.2326 78.0272 21.3795 77.7334C21.4291 77.6361 21.4597 77.4873 21.3223 77.4587C21.1849 77.4301 21.2307 77.577 21.2155 77.6647C21.1754 77.9108 21.0247 77.865 20.874 77.7773C20.3781 77.4796 19.9032 77.1482 19.4528 76.7853C18.1823 75.8282 16.9641 74.8037 15.8033 73.7161C14.8972 72.8729 14.0673 71.9458 13.2299 71.0283C12.7758 70.5285 12.3733 69.9906 11.9479 69.4698C11.867 69.3527 11.8305 69.2107 11.8448 69.0691C11.8592 68.9276 11.9234 68.7958 12.0261 68.6973C12.2054 68.5408 12.2894 68.7106 12.3733 68.8098C12.69 69.1913 12.9952 69.5728 13.3081 69.9543C14.112 70.9447 14.9827 71.8791 15.914 72.7508C15.9312 72.768 15.9655 72.7833 15.9655 72.7985C15.9655 73.1362 16.2803 73.161 16.4634 73.3193C16.6942 73.5024 16.6923 73.5043 16.6771 74.0976Z" fill="#BBD1DC"/>
<path d="M38.9036 83.8809C39.2375 84.1918 39.6667 83.9248 40.0692 83.9915C40.4753 84.0501 40.8841 84.0877 41.294 84.1041C42.4226 84.1877 43.5549 84.2093 44.6859 84.1689C45.8858 84.1136 47.0876 84.127 48.2799 83.9782C50.2731 83.7486 52.2487 83.3867 54.1938 82.8947C55.2545 82.6143 56.2923 82.2671 57.3453 81.96C58.1389 81.7292 58.8886 81.3438 59.6574 81.0291C61.5283 80.239 63.3352 79.3054 65.0619 78.2364C65.3328 78.0743 65.4091 78.1239 65.4435 78.4272C65.467 78.5582 65.4485 78.6934 65.3906 78.8133C65.3327 78.9332 65.2383 79.0317 65.1211 79.0948C63.0578 80.3165 60.9004 81.3715 58.6692 82.2499C57.2556 82.8088 55.8077 83.2323 54.3464 83.652C53.7894 83.8122 53.2247 84.0335 52.6295 83.9686C52.5093 83.9553 52.4654 84.0621 52.3815 84.085C52.227 84.127 52.0419 84.2147 51.9732 83.961C51.9523 83.8847 51.9732 83.7703 51.8454 83.7817C51.8022 83.7831 51.7607 83.7991 51.7277 83.8272C51.6948 83.8553 51.6724 83.8937 51.6642 83.9362C51.6032 84.3006 51.3399 84.3177 51.048 84.3463C50.5444 84.3959 50.056 84.5466 49.5467 84.5714C49.4178 84.6013 49.2826 84.5844 49.1651 84.5237C49.1376 84.4996 49.1037 84.4839 49.0675 84.4785C49.0313 84.4731 48.9944 84.4782 48.961 84.4932C48.1006 84.932 47.162 84.8061 46.2502 84.8614C45.6988 84.8938 45.1475 84.9549 44.5981 84.9434C43.2532 84.9148 41.9025 84.9549 40.5691 84.7775C40.2104 84.7317 39.8651 84.7393 39.5141 84.7202C39.1437 84.6864 38.7756 84.6316 38.4115 84.5562C38.2531 84.5295 38.0776 84.4856 38.1367 84.2643C38.1959 84.043 38.2207 83.8122 38.5278 83.8332C38.6289 83.8313 38.7472 83.858 38.9036 83.8809Z" fill="#BBD1DC"/>
<path d="M29.3671 21.8776C29.2526 21.3511 29.5578 21.2462 29.802 21.1145C30.4869 20.7178 31.1755 20.3267 31.8757 19.9586C32.0207 19.8823 32.2305 19.6076 32.4022 19.9586C32.551 20.2676 32.5071 20.4393 32.179 20.6033C31.5647 20.9104 30.9104 21.1756 30.3552 21.5457C29.5826 22.0702 28.8043 22.5967 28.066 23.169C27.0062 24.0016 26.0049 24.906 25.069 25.8758C24.112 26.8701 23.2367 27.9399 22.4517 29.0748C21.2873 30.7342 20.3266 32.5274 19.5901 34.416C19.0309 35.8004 18.603 37.2342 18.312 38.6985C18.2471 39.0247 18.2318 39.3852 17.8637 39.5569C17.8195 39.5884 17.7679 39.6076 17.7139 39.6126C17.66 39.6176 17.6057 39.6083 17.5565 39.5855C17.4497 39.5207 17.4859 39.41 17.5012 39.3204C17.6638 38.2717 17.9191 37.2394 18.2643 36.2359C18.455 35.6636 18.6134 35.0627 18.8366 34.4885C19.0979 33.8018 19.3784 33.1227 19.697 32.4608C19.7523 32.3425 19.7942 32.1727 19.985 32.1765C20.0251 32.1765 20.0613 32.1765 20.0537 32.1269C19.9373 31.4707 20.4543 31.0682 20.7099 30.5761C21.3477 29.4001 22.0951 28.2869 22.9419 27.2512C24.0658 25.8528 25.3169 24.5616 26.6791 23.3941C27.3468 22.8104 28.0908 22.3106 28.8043 21.7784C28.9435 21.6506 29.1191 21.5132 29.3671 21.8776Z" fill="#BBD1DC"/>
<path d="M24.1438 61.423C24.0542 61.5261 24.0294 61.7263 23.85 61.7473C23.6707 61.7683 23.6078 61.6195 23.5181 61.5032C23.2835 61.196 23.0355 60.9004 22.8008 60.5952C21.4737 58.9064 20.3518 57.0661 19.4585 55.1128C18.9493 53.9829 18.5172 52.8198 18.1651 51.6315C17.7213 50.1205 17.4123 48.5731 17.2418 47.0075C17.1026 45.6892 17.051 44.3631 17.0873 43.0379C17.0873 42.8681 17.0319 42.6564 17.3276 42.6564C17.4039 42.6564 17.4097 42.5763 17.3658 42.5209C17.3219 42.4656 17.2303 42.4256 17.217 42.3683C17.0701 41.7159 17.2799 41.0788 17.3047 40.4321C17.3143 40.1803 17.507 40.0506 17.6863 39.9362C17.7893 39.8637 17.9019 39.7187 18.0297 39.7969C18.1575 39.8751 18.0774 40.022 18.0602 40.1365C17.9111 41.175 17.8144 42.2204 17.7702 43.2687C17.7495 44.3763 17.7966 45.4841 17.9114 46.586C18.0904 48.6899 18.5464 50.761 19.2678 52.7455C19.6982 53.9194 20.1996 55.066 20.7691 56.1791C21.6428 57.9112 22.7836 59.4582 24.0122 60.9481C24.1171 61.0873 24.2507 61.2113 24.1438 61.423Z" fill="#BBD1DC"/>
<path d="M78.6752 42.0154C78.8984 41.7007 79.0358 41.8018 79.1159 42.0536C79.3429 42.7479 79.7531 43.179 80.5428 43.1638C80.8074 43.179 81.0696 43.2225 81.325 43.2935C81.4147 43.3126 81.5291 43.3202 81.5501 43.4404C81.5711 43.5605 81.4929 43.5968 81.4261 43.6464C81.0446 43.9344 80.7718 44.3522 80.3654 44.625C80.1346 44.7814 80.1346 45.0275 80.1747 45.2793C80.2452 45.7065 80.3215 46.1338 80.3654 46.563C80.4093 46.9102 80.3444 46.9579 80.0487 46.8072C79.5928 46.5707 79.0949 46.4066 78.7572 45.9774C78.6313 45.8153 78.4883 45.9297 78.3757 45.9984C77.9302 46.2634 77.4711 46.5047 77.0003 46.7214C76.8953 46.771 76.7847 46.8854 76.6702 46.7977C76.5558 46.7099 76.6168 46.5688 76.655 46.4581C76.7961 46.048 76.7713 45.6074 76.9011 45.1934C76.9383 45.0648 76.9363 44.9279 76.8951 44.8004C76.854 44.6729 76.7757 44.5607 76.6702 44.4781C76.3364 44.1652 76.0235 43.8314 75.7049 43.5014C75.5351 43.324 75.5142 43.2019 75.8213 43.1676C76.3001 43.1161 76.7751 43.034 77.2559 42.9768C77.3642 42.973 77.4692 42.9386 77.5587 42.8775C77.6482 42.8163 77.7185 42.7311 77.7614 42.6315C77.9732 42.2119 78.183 41.7922 78.4024 41.3764C78.4539 41.2791 78.5035 41.115 78.658 41.1971C78.7149 41.2338 78.7549 41.2916 78.7692 41.3577C78.7835 41.4239 78.7709 41.493 78.7343 41.55C78.6905 41.6183 78.6624 41.6955 78.6522 41.776C78.642 41.8565 78.6498 41.9383 78.6752 42.0154Z" fill="#BBD1DC"/>
<path d="M10.6335 45.3652C10.5228 45.3823 10.4179 45.4052 10.3092 45.4148C9.51749 45.493 8.89749 45.9737 8.21072 46.298C7.99896 46.3991 7.75287 46.6528 7.56592 46.5173C7.37896 46.3819 7.53921 46.0691 7.58499 45.8421C7.87115 44.4076 7.87687 44.4076 6.75133 43.4538C6.69601 43.4061 6.63496 43.366 6.58345 43.3145C6.50333 43.2325 6.35835 43.1638 6.41939 43.0265C6.46518 42.9216 6.61016 42.933 6.70936 42.9197C7.23398 42.8529 7.7605 42.7919 8.2813 42.7022C8.54456 42.6564 8.75059 42.6011 8.79638 42.2024C8.84216 41.8037 9.11496 41.4032 9.36869 41.0579C9.53084 40.8385 9.60906 41.0159 9.67201 41.1418C9.87511 41.4982 10.0511 41.8693 10.1985 42.252C10.2435 42.427 10.346 42.5818 10.4896 42.6915C10.6332 42.8012 10.8095 42.8594 10.9902 42.8567C11.2211 42.8758 11.4481 42.8968 11.6064 43.1047C11.6636 43.1791 11.7361 43.2001 11.8144 43.1047C11.9288 42.9616 12.0795 43.0379 12.2169 43.0666C12.3065 43.0837 12.421 43.0875 12.4363 43.2153C12.4515 43.3432 12.3695 43.3756 12.2932 43.4404C11.946 43.7399 11.6121 44.0509 11.2707 44.3542C11.1732 44.4315 11.0997 44.535 11.0589 44.6526C11.018 44.7701 11.0114 44.8968 11.0398 45.018C11.1238 45.4186 11.181 45.8249 11.2459 46.2293C11.2688 46.359 11.3164 46.5154 11.2115 46.6108C11.1066 46.7062 10.9711 46.5708 10.8567 46.5231C10.8243 46.5097 10.7956 46.483 10.7632 46.4678C10.5515 46.3571 10.2252 46.298 10.1909 46.0862C10.1451 45.8344 10.4904 45.7581 10.664 45.6036C10.7079 45.5655 10.7747 45.5311 10.7499 45.4625C10.7308 45.4167 10.6831 45.3995 10.6335 45.3652Z" fill="#BBD1DC"/>
<path d="M62.1279 24.546C62.2729 24.2313 62.4121 24.3343 62.5457 24.4735C62.8757 24.8169 63.1847 25.1965 63.5205 25.5151C64.0612 26.0259 64.5624 26.5768 65.0199 27.1632C65.4854 27.7603 65.9242 28.3783 66.3706 28.9888C66.4146 29.0352 66.4471 29.0913 66.4653 29.1526C66.4836 29.214 66.4871 29.2787 66.4755 29.3417C66.2981 29.3111 66.1283 29.1738 65.9395 29.3302C65.8174 29.4294 65.7201 29.2959 65.6953 29.2043C65.6419 29.0136 65.4797 28.8514 65.5045 28.632C65.5089 28.5901 65.5007 28.5477 65.481 28.5104C65.4613 28.473 65.431 28.4423 65.3939 28.4222C64.9361 28.0919 64.527 27.6989 64.1787 27.2548C63.0193 25.845 61.7134 24.5622 60.2831 23.4282C60.0752 23.2603 59.7776 23.1611 59.7604 22.8235C59.7604 22.8025 59.7395 22.7644 59.7318 22.7644C59.1233 22.8254 58.778 22.3275 58.3583 22.0528C57.5337 21.5085 56.6782 21.0123 55.7963 20.5668C53.797 19.5768 51.4639 18.6936 49.3711 18.335H49.3349C49.1899 18.2873 48.9534 18.3121 48.9228 18.1671C48.8809 17.9764 49.1479 18.005 49.2452 17.8982C49.499 17.6158 49.787 17.6921 50.0999 17.7761C51.4047 18.1252 52.7191 18.4456 53.9706 18.9645C55.2106 19.4689 56.4124 20.0624 57.5666 20.7404C58.6105 21.3443 59.6078 22.0253 60.5502 22.7777C60.8745 23.0448 61.2255 23.2775 61.5365 23.5655C61.8475 23.8536 62.166 24.0348 62.1279 24.546Z" fill="#BBD1DC"/>
<path d="M45.447 70.3682C45.4795 70.1775 45.6378 70.1775 45.7809 70.1775C46.8873 70.0916 47.9884 69.9464 49.0793 69.7425C50.6855 69.4198 52.2593 68.9531 53.7817 68.3481C54.8806 67.9128 55.9455 67.3963 56.9676 66.803C58.1272 66.1396 59.2355 65.3904 60.2832 64.5616C60.5006 64.3918 60.6647 64.0751 61.0348 64.1934C61.0348 64.1934 61.0729 64.1667 61.0768 64.1476C61.0939 64.0637 61.0233 63.9054 61.1645 63.9244C61.3057 63.9435 61.2218 64.1266 61.2637 64.2296C61.3122 64.3346 61.321 64.4535 61.2883 64.5644C61.2557 64.6753 61.1839 64.7705 61.0863 64.8324C59.3451 66.2597 57.4337 67.4656 55.3957 68.4225C54.2035 68.973 52.9737 69.4384 51.7157 69.815C49.7784 70.3956 47.7793 70.7452 45.7599 70.8565C45.4413 70.8756 45.3383 70.7154 45.447 70.3682Z" fill="#BBD1DC"/>
<path d="M81.7199 59.937C81.3594 60.7229 81.0427 61.5298 80.6344 62.2967C80.2682 62.9872 79.9019 63.6797 79.5242 64.3645C79.2743 64.8166 78.9271 65.2076 78.7248 65.6902C78.6581 65.8524 78.5169 65.8696 78.3605 65.8409C78.204 65.8123 78.0934 65.8409 78.206 66.0203C78.2565 66.1108 78.2768 66.215 78.2641 66.3179C78.2515 66.4208 78.2063 66.517 78.1354 66.5925C77.647 67.3021 77.1548 68.0079 76.6588 68.7099C76.5882 68.811 76.5348 68.9617 76.3517 68.8625C76.2849 68.8263 76.2353 68.8778 76.2315 68.9503C76.1991 69.5645 75.6802 69.885 75.3616 70.3104C74.837 71.0124 74.2036 71.6323 73.6122 72.2847C73.481 72.458 73.3058 72.5931 73.1048 72.6758C73.0285 72.6987 72.9636 72.7273 72.9522 72.8074C72.9159 73.0764 72.6927 73.2061 72.5248 73.3797C72.4066 73.4941 72.2463 73.7402 72.0956 73.5819C71.9449 73.4235 71.7904 73.1164 71.9926 72.8913C72.1948 72.6662 72.3741 72.2904 72.7652 72.2313C72.7884 72.2274 72.8105 72.2188 72.8301 72.206C72.8498 72.1932 72.8667 72.1765 72.8797 72.1569C73.2612 71.3576 74.0071 70.8559 74.5298 70.1692C75.0087 69.5378 75.5352 68.9407 76.0255 68.317C76.2526 68.0503 76.458 67.7657 76.6397 67.4662C76.7709 67.2762 76.9705 67.1443 77.1968 67.098C77.3456 67.0465 77.5249 67.0084 77.3303 66.7871C77.1911 66.6307 77.3303 66.4876 77.4143 66.3636C77.9688 65.509 78.5055 64.6423 79.0243 63.7636C79.1789 63.5004 79.2151 63.115 79.6329 63.0673C79.6806 63.0673 79.6558 62.991 79.6501 62.9433C79.5986 62.5141 79.7264 62.1803 80.1404 61.9896C80.1671 61.9781 80.2071 61.94 80.2033 61.9285C80.0545 61.547 80.3521 61.2628 80.4685 60.9499C80.6478 60.4788 80.8748 60.0248 81.098 59.5708C81.1533 59.4582 81.1648 59.214 81.3517 59.2942C81.4677 59.332 81.5686 59.4058 81.6396 59.505C81.7107 59.6042 81.7482 59.7235 81.7466 59.8455C81.7407 59.8768 81.7317 59.9074 81.7199 59.937Z" fill="#BBD1DC"/>
<path d="M66.031 29.5498C66.7941 30.1602 67.5057 30.6943 67.9387 31.5871C68.6687 33.0499 69.2823 34.5679 69.7739 36.1271C70.1005 37.2231 70.3636 38.3371 70.5618 39.4634C70.8976 41.3119 70.9433 43.1718 70.9433 45.0393C70.956 45.2781 70.9101 45.5165 70.8098 45.7336C70.4607 45.2834 70.2222 44.8523 70.2375 44.2724C70.2521 42.8162 70.1442 41.3613 69.9151 39.9232C69.6407 38.1652 69.1888 36.4396 68.5664 34.7727C68.1405 33.6332 67.6343 32.5253 67.0516 31.4574C66.7655 30.9175 66.4259 30.4044 66.0978 29.8836C66.0576 29.8392 66.0301 29.7847 66.0183 29.7259C66.0066 29.6672 66.011 29.6063 66.031 29.5498Z" fill="#BBD1DC"/>
<path d="M36.6278 69.8876C34.5503 69.3306 32.6426 68.4646 30.7845 67.486C30.258 67.2094 29.7982 66.8126 29.2584 66.5322C29.2006 66.4952 29.1514 66.4461 29.1144 66.3883C29.0774 66.3305 29.0534 66.2654 29.0439 66.1974C29.0345 66.1294 29.0399 66.0602 29.0598 65.9945C29.0797 65.9288 29.1136 65.8682 29.1592 65.8169C29.2927 65.6643 29.3995 65.7921 29.5026 65.8608C33.1086 68.2431 37.245 69.7026 41.5477 70.1108C42.5016 70.1948 43.4554 70.2138 44.3997 70.2348C44.6611 70.2348 44.7679 70.3245 44.7622 70.5953C44.7565 70.8662 44.5962 70.9196 44.3616 70.9234C42.0817 70.9651 39.8064 70.7047 37.595 70.149C37.2652 70.092 36.9414 70.0045 36.6278 69.8876Z" fill="#BBD1DC"/>
<path d="M70.2032 46.0963C70.3501 46.1249 70.2928 46.3061 70.4168 46.3347C70.5676 46.2165 70.5599 45.9647 70.7984 45.917C70.8662 46.0734 70.8796 46.248 70.8365 46.413C70.6328 48.6839 70.1411 50.9197 69.3733 53.0666C68.8936 54.4293 68.3035 55.7505 67.6087 57.0171C66.7893 58.4913 65.8346 59.886 64.7567 61.1833C64.6728 61.2844 64.566 61.4808 64.4172 61.3263C64.2684 61.1718 64.0719 60.9582 64.2722 60.6911C64.5755 60.2867 64.8712 59.8785 65.1783 59.4779C65.9607 58.4258 66.6573 57.3127 67.2615 56.1492C68.2466 54.2824 68.9982 52.3014 69.4992 50.251C69.8161 48.9391 70.043 47.607 70.1784 46.2642C70.1708 46.2088 70.186 46.1631 70.2032 46.0963Z" fill="#BBD1DC"/>
<path d="M47.9213 17.3589C48.2284 17.3837 48.3391 17.5096 48.3028 17.7729C48.2666 18.0361 48.0911 18.0838 47.8545 18.0475C46.2195 17.8112 44.5662 17.725 42.9155 17.79C41.4478 17.8584 39.9883 18.0499 38.5526 18.3623C37.0226 18.7004 35.5206 19.1551 34.06 19.7224C33.6994 19.8559 33.3713 20.0448 33.0146 20.1726C32.8906 20.2164 32.7227 20.4301 32.633 20.1726C32.5624 19.9646 32.4423 19.6785 32.7456 19.5354C33.3045 19.2817 33.8749 19.0528 34.4396 18.8163C35.3935 18.4138 36.4179 18.2097 37.3946 17.8625C37.4159 17.8518 37.4383 17.8434 37.4614 17.8377C38.2455 17.8186 38.957 17.4562 39.7373 17.3932C40.5175 17.3303 41.2882 17.1567 42.0685 17.1147C44.0225 16.9844 45.9849 17.0663 47.9213 17.3589Z" fill="#BBD1DC"/>
<path d="M12.1425 54.6339C11.8239 54.4565 11.4977 54.2276 11.1334 54.0616C11.0493 54.0158 10.9545 53.9929 10.8588 53.9952C10.763 53.9975 10.6695 54.0251 10.5878 54.075C10.3073 54.2371 10.0155 54.384 9.72739 54.5328C9.62247 54.5862 9.50801 54.6816 9.39355 54.6148C9.27908 54.5481 9.33631 54.3916 9.35539 54.2829C9.41008 53.9624 9.47367 53.6445 9.54616 53.3291C9.58356 53.2063 9.58199 53.0748 9.54168 52.9529C9.50138 52.831 9.42431 52.7245 9.32105 52.6481C9.06229 52.4118 8.82127 52.1568 8.59995 51.8851C8.47213 51.7458 8.49121 51.6581 8.69151 51.6295C9.03681 51.5799 9.37828 51.5112 9.72548 51.475C9.86355 51.4681 9.99661 51.4211 10.1084 51.3398C10.2202 51.2585 10.3059 51.1464 10.355 51.0172C10.4741 50.7195 10.6237 50.435 10.8014 50.1683C10.935 49.9775 11.0418 49.9451 11.1563 50.1816C11.3279 50.5403 11.5168 50.8894 11.6828 51.2499C11.7167 51.3332 11.774 51.405 11.8478 51.4564C11.9216 51.5079 12.0087 51.5369 12.0987 51.5398C12.4687 51.5837 12.8369 51.6428 13.2032 51.7134C13.4169 51.7554 13.4569 51.8641 13.2852 52.0301C12.9915 52.3143 12.7129 52.6214 12.4134 52.8942C12.3472 52.9441 12.2978 53.013 12.2719 53.0918C12.2459 53.1706 12.2448 53.2554 12.2684 53.3349C12.3409 53.6878 12.4039 54.0445 12.4459 54.4031C12.4783 54.6625 12.4001 54.7236 12.1425 54.6339Z" fill="#BBD1DC"/>
<path d="M77.3761 33.3554C77.425 33.4212 77.4696 33.49 77.5096 33.5615C77.6565 33.8648 77.811 34.1642 77.937 34.4771C77.9762 34.5847 78.0453 34.6788 78.1362 34.7484C78.2271 34.8181 78.336 34.8602 78.4501 34.87C78.7706 34.9235 79.0911 34.9788 79.404 35.0494C79.7951 35.1352 79.795 35.1657 79.5509 35.4652C79.3429 35.7227 79.0472 35.8715 78.8183 36.1042C78.7215 36.1852 78.6499 36.2921 78.6117 36.4124C78.5735 36.5327 78.5704 36.6614 78.6027 36.7833C78.6755 37.0875 78.7246 37.3968 78.7496 37.7085C78.7763 38.0328 78.6829 38.09 78.4024 37.9393C78.122 37.7886 77.7824 37.6189 77.4829 37.4395C77.4082 37.3896 77.3207 37.362 77.2309 37.36C77.141 37.358 77.0524 37.3816 76.9755 37.4281C76.655 37.596 76.3326 37.7619 76.0045 37.9107C75.7336 38.0347 75.6458 37.9698 75.6821 37.6761C75.6979 37.4958 75.7364 37.3183 75.7965 37.1477C76.0598 36.48 75.7221 35.9802 75.3463 35.4919C75.2635 35.4047 75.1749 35.3231 75.0811 35.2477C75.0239 35.1905 74.9266 35.1428 74.9686 35.0417C75.0106 34.9406 75.1098 34.9425 75.188 34.9463C76.1762 35.0112 76.8019 34.582 77.0594 33.611C77.0694 33.536 77.1079 33.4677 77.1668 33.4201C77.2257 33.3725 77.3006 33.3494 77.3761 33.3554Z" fill="#BBD1DC"/>
<path d="M77.0117 53.2931C77.0038 53.318 76.998 53.3435 76.9946 53.3694C76.9774 53.6651 77.1052 54.0237 76.8896 54.2412C76.57 54.5176 76.1946 54.7219 75.7889 54.8402C75.5981 54.9069 75.5791 54.7677 75.5981 54.638C75.6229 54.4103 75.6715 54.1859 75.7431 53.9684C75.9759 53.3751 75.7431 52.9478 75.3005 52.5835C75.0869 52.408 74.7588 52.202 74.816 51.9674C74.8732 51.7327 75.2796 51.7766 75.5276 51.7766C76.1685 51.7594 76.6321 51.5477 76.8229 50.8877C76.8841 50.717 76.9668 50.5548 77.069 50.4051C77.172 50.2277 77.2693 50.1227 77.4028 50.4051C77.5364 50.6874 77.71 50.922 77.8168 51.2081C77.8651 51.3641 77.9591 51.502 78.0866 51.6041C78.2142 51.7061 78.3694 51.7675 78.5322 51.7804C78.8202 51.8109 79.1045 51.872 79.3887 51.9197C79.4936 51.9368 79.6234 51.9197 79.6653 52.0475C79.7073 52.1753 79.589 52.2134 79.5261 52.2802C79.3497 52.4926 79.15 52.6845 78.9309 52.8525C78.4463 53.1539 78.5055 53.5754 78.5894 54.0237C78.6295 54.2374 78.6657 54.451 78.6886 54.6666C78.7115 54.8821 78.5932 54.9565 78.4025 54.8573C78.0934 54.6952 77.7863 54.5254 77.4925 54.3385C77.2884 54.2087 77.3341 53.9474 77.2464 53.7547C77.1815 53.6021 77.1796 53.4247 77.0117 53.2931Z" fill="#BBD1DC"/>
<path d="M9.52324 36.9379C9.53468 36.8502 9.62244 36.7186 9.64915 36.5564C9.74262 36.0242 9.32675 35.7686 9.06539 35.431C9.03678 35.3947 8.98336 35.3814 8.94521 35.3528C8.78115 35.2269 8.56367 35.0743 8.61327 34.8721C8.66287 34.6698 8.92613 34.6813 9.10927 34.6946C9.87235 34.7099 10.4447 34.481 10.6888 33.676C10.748 33.4852 10.8147 33.1362 11.0399 33.1457C11.265 33.1552 11.3451 33.491 11.4023 33.718C11.5931 34.481 12.1215 34.7347 12.835 34.7748C13.0544 34.7862 13.3768 34.7404 13.4474 34.9655C13.5179 35.1906 13.1975 35.2822 13.0448 35.4252C12.2818 36.1291 12.2818 36.1272 12.4363 37.1535C12.4687 37.3614 12.6271 37.6228 12.4363 37.7677C12.2455 37.9127 12.1215 37.6094 11.9307 37.577C11.7931 37.5369 11.6638 37.4723 11.5492 37.3862C11.2096 37.1764 10.8777 37.0047 10.4885 37.3004C10.4065 37.3633 10.2119 37.4911 10.1719 37.2145C10.149 37.0543 10.0173 37.1421 9.93911 37.1325C9.83038 37.1192 9.80367 37.2126 9.80176 37.3042C9.80747 37.388 9.80747 37.4722 9.80176 37.556C9.79727 37.5892 9.78595 37.621 9.76853 37.6496C9.7511 37.6782 9.72795 37.7028 9.70053 37.722C9.67311 37.7412 9.64201 37.7544 9.6092 37.761C9.57639 37.7676 9.54257 37.7673 9.50988 37.7601C9.34201 37.7468 9.39161 37.5999 9.40305 37.5045C9.42595 37.3328 9.47173 37.1688 9.52324 36.9379Z" fill="#BBD1DC"/>
<path d="M28.2683 66.9557C28.0775 67.6615 28.0184 67.6863 27.4385 67.2457C26.7097 66.6925 25.9886 66.1278 25.2713 65.5613C25.1149 65.4354 24.9298 65.3076 24.9108 65.0844C24.8917 64.8612 24.7352 65.052 24.636 64.968C24.1496 64.5522 23.7204 64.0791 23.274 63.6327C23.2317 63.5884 23.2058 63.531 23.2006 63.4699C23.1954 63.4088 23.2112 63.3478 23.2453 63.297C23.314 63.1692 23.3827 63.0414 23.4628 62.9155C23.7566 62.4729 23.9836 62.4538 24.3117 62.8773C24.5712 63.2092 24.9909 63.4286 25.0481 63.9112C25.0525 63.9388 25.0627 63.9651 25.0778 63.9885C25.093 64.0119 25.1129 64.0319 25.1363 64.0471C25.1596 64.0624 25.1859 64.0726 25.2134 64.0771C25.2409 64.0817 25.2691 64.0804 25.2961 64.0734C25.3852 64.0538 25.478 64.0605 25.5634 64.0927C25.6487 64.1249 25.7228 64.1811 25.7768 64.2546C26.2096 64.6553 26.6636 65.0322 27.137 65.3839C27.3908 65.5746 27.5586 65.8856 27.7704 66.1469C27.8257 66.2137 27.8429 66.3682 27.9955 66.187C28.1042 66.0572 28.398 66.3148 28.377 66.5475C28.3532 66.6866 28.3168 66.8232 28.2683 66.9557Z" fill="#BBD1DC"/>
<path d="M69.6099 75.5067C69.3103 75.1519 69.5374 74.9726 69.7148 74.8792C70.3615 74.5358 70.7602 73.9254 71.3211 73.4847C71.4451 73.3893 71.5385 73.1356 71.756 73.294C71.9277 73.4218 71.9468 73.8662 71.7999 74.0207C71.3935 74.5015 70.8842 74.8677 70.4073 75.2683C69.6919 75.873 68.9708 76.4739 68.2172 77.0271C67.7823 77.3456 67.334 77.6528 66.8914 77.9637C66.8117 78.0392 66.7105 78.0881 66.6018 78.1035C66.4931 78.1189 66.3822 78.1 66.2847 78.0495C66.094 77.9465 65.9414 77.9675 66.0329 78.2555C66.0711 78.37 66.0673 78.4864 65.928 78.515C65.7887 78.5436 65.7659 78.4043 65.7372 78.3051C65.6342 77.8092 65.8593 77.5421 66.3897 77.5421C66.4564 77.5421 66.5194 77.5536 66.527 77.4773C66.5518 77.1835 66.8132 77.1091 66.9982 76.9698C67.6239 76.4987 68.2573 76.039 68.8849 75.5735C68.9841 75.4889 69.107 75.4371 69.2368 75.4251C69.3666 75.4132 69.4969 75.4417 69.6099 75.5067Z" fill="#BBD1DC"/>
<path d="M28.0794 65.0938C27.9783 65.4581 27.7951 65.5172 27.5071 65.2845C26.3391 64.3749 25.2475 63.3714 24.243 62.2839C24.1912 62.2355 24.1512 62.1758 24.1263 62.1094C24.1013 62.043 24.0921 61.9717 24.0993 61.9011C24.1065 61.8305 24.1299 61.7626 24.1678 61.7026C24.2056 61.6426 24.2568 61.5921 24.3174 61.5552C24.4739 61.4503 24.575 61.5552 24.657 61.6582C25.4725 62.5909 26.366 63.4524 27.3278 64.2335C27.5185 64.3956 27.7284 64.5406 27.923 64.6989C28.0431 64.8038 28.1462 64.9259 28.0794 65.0938Z" fill="#BBD1DC"/>
<path d="M64.2378 61.6966C64.1966 61.8272 64.1231 61.9453 64.0242 62.04C63.3736 62.7019 62.7346 63.3753 62.0459 63.9952C61.8055 64.2146 61.6644 64.1307 61.4736 63.9532C61.2561 63.7434 61.4164 63.5984 61.5556 63.4725C62.3765 62.7634 63.1353 61.9854 63.8239 61.1472C63.9421 60.9965 64.0928 60.9565 64.1501 61.214C64.2143 61.3665 64.2443 61.5312 64.2378 61.6966Z" fill="#BBD1DC"/>
<path d="M62.954 70.971C62.3629 70.2809 61.8071 69.5615 61.2885 68.8154C61.2103 68.7086 61.176 68.5941 61.2885 68.493C61.5391 68.2501 61.8169 68.0369 62.1165 67.8578C62.2691 67.7758 62.3588 67.8139 62.4084 67.9875C62.6602 68.8803 62.8242 69.7921 63.0169 70.6982C63.0338 70.7449 63.0369 70.7955 63.0257 70.8439C63.0146 70.8923 62.9896 70.9364 62.954 70.971Z" fill="#BBD1DC"/>
<path d="M28.335 65.889C28.1996 65.8108 27.9668 65.7383 28.0317 65.5342C28.0965 65.3301 28.2682 65.1145 28.5029 65.1756C28.6937 65.2271 28.9607 65.3816 28.913 65.6467C28.8653 65.9119 28.5945 65.9233 28.335 65.889Z" fill="#BBD1DC"/>
<path d="M25.5327 18.8142L24.72 18.1808C24.7104 18.1736 24.6987 18.1696 24.6866 18.1696C24.6746 18.1696 24.6628 18.1736 24.6532 18.1808L23.1633 19.3864C23.1582 19.3896 23.1537 19.3937 23.1502 19.3985C23.1466 19.4034 23.1441 19.4089 23.1426 19.4147C23.1412 19.4206 23.141 19.4267 23.1419 19.4326C23.1428 19.4385 23.1449 19.4442 23.148 19.4494L23.5964 20.3784C23.6104 20.406 23.614 20.4377 23.6067 20.4678C23.5993 20.4979 23.5815 20.5244 23.5563 20.5424L22.591 21.3207C22.5223 21.3779 22.4689 21.3646 22.4288 21.2825L19.5044 14.7262C19.4903 14.697 19.4874 14.6636 19.4962 14.6324C19.505 14.6011 19.5248 14.5741 19.552 14.5565L20.7081 13.6218C20.7331 13.6011 20.7644 13.5898 20.7968 13.5898C20.8292 13.5898 20.8606 13.6011 20.8855 13.6218L26.6792 17.8604L26.7116 17.8852C26.7498 17.9348 26.7402 17.9805 26.683 18.0282L25.7101 18.8142C25.6856 18.8359 25.6541 18.8479 25.6214 18.8479C25.5887 18.8479 25.5571 18.8359 25.5327 18.8142ZM22.6349 18.3563C22.6499 18.3563 22.6646 18.3517 22.6769 18.343L23.728 17.4922C23.7399 17.4834 23.7481 17.4705 23.7509 17.456C23.7527 17.4474 23.7516 17.4384 23.7478 17.4305C23.744 17.4226 23.7377 17.4161 23.7299 17.4121L21.3128 15.5446C21.29 15.5274 21.2728 15.5236 21.2632 15.5331C21.2537 15.5427 21.2632 15.5579 21.2632 15.5827L22.5986 18.3277C22.601 18.3357 22.6057 18.3427 22.6122 18.3478C22.6187 18.3529 22.6266 18.3559 22.6349 18.3563Z" fill="white"/>
<path d="M26.8852 9.74581C26.8895 9.73004 26.8969 9.71531 26.9071 9.70252C26.9172 9.68973 26.9299 9.67914 26.9443 9.67141L27.9897 9.09914C28.0045 9.093 28.0204 9.08984 28.0365 9.08984C28.0525 9.08984 28.0684 9.093 28.0832 9.09914C28.0988 9.10323 28.1134 9.11062 28.1259 9.12082C28.1384 9.13103 28.1486 9.1438 28.1557 9.15828L31.4598 15.2472C31.4679 15.2613 31.473 15.2768 31.4746 15.293C31.4763 15.3091 31.4745 15.3253 31.4694 15.3407C31.4651 15.3565 31.4576 15.3712 31.4475 15.384C31.4373 15.3968 31.4246 15.4074 31.4102 15.4151L30.3114 16.0103C30.2854 16.0265 30.2549 16.034 30.2243 16.0316C30.1937 16.0292 30.1647 16.017 30.1416 15.9969L26.4311 13.2615C26.4234 13.2576 26.415 13.2556 26.4063 13.2556C26.3977 13.2556 26.3892 13.2576 26.3815 13.2615C26.3682 13.2615 26.3701 13.2844 26.3815 13.3072L28.3617 16.9316C28.377 16.9603 28.3805 16.9939 28.3713 17.0251C28.3669 17.0408 28.3594 17.0555 28.3492 17.0683C28.3391 17.0811 28.3265 17.0917 28.3121 17.0995L27.2667 17.6718C27.2527 17.6799 27.2371 17.6849 27.221 17.6866C27.2049 17.6882 27.1886 17.6864 27.1732 17.6813C27.1575 17.677 27.1427 17.6696 27.1299 17.6594C27.1171 17.6492 27.1066 17.6366 27.0988 17.6222L23.7966 11.5198C23.7883 11.5059 23.783 11.4904 23.781 11.4743C23.779 11.4582 23.7805 11.4419 23.7852 11.4264C23.79 11.4108 23.7979 11.3964 23.8084 11.384C23.8189 11.3715 23.8317 11.3613 23.8462 11.3539L24.9355 10.7625C24.9615 10.7466 24.9918 10.7391 25.0222 10.7412C25.0526 10.7432 25.0817 10.7547 25.1053 10.774L28.8158 13.5075C28.8235 13.5114 28.8319 13.5134 28.8406 13.5134C28.8492 13.5134 28.8577 13.5114 28.8654 13.5075C28.8787 13.5075 28.8768 13.4846 28.8654 13.4618L26.8985 9.83928C26.8898 9.82555 26.8841 9.8101 26.8818 9.79399C26.8795 9.77787 26.8806 9.76144 26.8852 9.74581Z" fill="white"/>
<path d="M33.1462 14.5546C32.756 14.4913 32.3927 14.3157 32.1008 14.049C31.7891 13.759 31.5595 13.3918 31.435 12.9846L30.5804 10.396C30.4386 9.99806 30.4043 9.56968 30.4812 9.15422C30.5585 8.76614 30.7459 8.40853 31.0211 8.12413C31.3245 7.81633 31.6994 7.58829 32.1123 7.4603C32.5222 7.31692 32.9609 7.27567 33.3904 7.34012C33.7825 7.40281 34.1478 7.57848 34.4415 7.84563C34.7506 8.13305 34.9783 8.49693 35.1016 8.90051L35.9582 11.4891C36.1005 11.8902 36.1353 12.3217 36.0593 12.7405C35.9811 13.13 35.7916 13.4885 35.5137 13.7724C35.209 14.0816 34.832 14.3098 34.4167 14.4363C34.0099 14.5816 33.573 14.6222 33.1462 14.5546ZM34.5942 12.7805C34.6974 12.5329 34.7021 12.2552 34.6075 12.0041L33.7185 9.31827C33.646 9.05713 33.476 8.83383 33.2435 8.6945C33.1312 8.63215 33.0065 8.59507 32.8784 8.58585C32.7502 8.57662 32.6216 8.59547 32.5014 8.64109C32.38 8.67649 32.2676 8.73779 32.1721 8.82078C32.0766 8.90376 32.0002 9.00646 31.9482 9.12179C31.8443 9.37284 31.8409 9.65422 31.9387 9.90771L32.8257 12.5898C32.8992 12.8474 33.0685 13.0672 33.2988 13.204C33.4092 13.2659 33.5318 13.303 33.658 13.3125C33.7843 13.3221 33.911 13.3039 34.0295 13.2593C34.1528 13.2253 34.2671 13.1649 34.3647 13.0822C34.4622 12.9995 34.5405 12.8966 34.5942 12.7805Z" fill="white"/>
<path d="M39.8079 5.86899C39.8172 5.85586 39.8291 5.84483 39.8429 5.83661C39.8567 5.8284 39.8721 5.82318 39.888 5.8213L41.0651 5.65152C41.0974 5.64719 41.1301 5.65538 41.1566 5.67441C41.1826 5.69449 41.1997 5.72393 41.2043 5.75644L42.1906 12.6122C42.1949 12.6446 42.1867 12.6773 42.1677 12.7038C42.1583 12.7172 42.1461 12.7285 42.132 12.7367C42.1178 12.745 42.102 12.75 42.0857 12.7515L40.8495 12.9308C40.8191 12.9368 40.7876 12.9329 40.7595 12.9199C40.7314 12.9069 40.7082 12.8853 40.6931 12.8583L38.1539 9.00885C38.149 9.00177 38.1424 8.996 38.1348 8.99201C38.1272 8.98803 38.1187 8.98595 38.11 8.98595C38.0967 8.98595 38.091 9.00122 38.0948 9.02792L38.6938 13.1139C38.6981 13.1463 38.6899 13.179 38.6709 13.2055C38.6615 13.2189 38.6493 13.2302 38.6352 13.2384C38.621 13.2466 38.6052 13.2517 38.5889 13.2532L37.4118 13.423C37.3958 13.4259 37.3794 13.4253 37.3636 13.4214C37.3478 13.4174 37.333 13.4102 37.3203 13.4001C37.2943 13.38 37.2772 13.3506 37.2726 13.318L36.2863 6.46224C36.284 6.44609 36.285 6.42965 36.2893 6.41391C36.2935 6.39817 36.301 6.38346 36.3111 6.37068C36.3202 6.35738 36.332 6.34622 36.3459 6.33798C36.3597 6.32974 36.3752 6.32463 36.3912 6.32299L37.6179 6.14558C37.6482 6.13964 37.6797 6.14345 37.7078 6.15647C37.7359 6.16948 37.7592 6.19104 37.7743 6.21807L40.3058 10.0675C40.3211 10.0847 40.3363 10.0943 40.3497 10.0923C40.363 10.0904 40.3688 10.0752 40.3649 10.0485L39.7774 5.96055C39.7753 5.94398 39.777 5.92717 39.7823 5.91133C39.7876 5.89549 39.7963 5.88103 39.8079 5.86899Z" fill="white"/>
<path d="M44.5618 12.7176C44.5399 12.693 44.5283 12.6609 44.5294 12.6279L44.6153 10.0069V9.94395L42.9804 5.67672C42.9767 5.65654 42.9767 5.63586 42.9804 5.61568C42.9804 5.56036 43.0185 5.53365 43.0853 5.53747L44.3768 5.57943C44.409 5.57741 44.4408 5.58712 44.4664 5.60675C44.492 5.62639 44.5097 5.65463 44.5161 5.68626L45.3841 8.30917C45.3841 8.33015 45.3993 8.33969 45.4146 8.34159C45.4298 8.3435 45.4375 8.34159 45.4451 8.31107L46.4829 5.75112C46.4917 5.72005 46.5114 5.69317 46.5384 5.67533C46.5653 5.65749 46.5977 5.64986 46.6298 5.65383L47.9213 5.6958C47.969 5.6958 47.9976 5.71106 48.011 5.73967C48.018 5.75593 48.0216 5.77346 48.0216 5.79117C48.0216 5.80889 48.018 5.82642 48.011 5.84268L46.0727 9.99355L46.0594 10.0546L45.9754 12.6756C45.9756 12.6918 45.9723 12.7079 45.9658 12.7227C45.9592 12.7375 45.9495 12.7507 45.9373 12.7614C45.9135 12.7836 45.8821 12.7959 45.8495 12.7958L44.6401 12.7557C44.6101 12.7532 44.5822 12.7396 44.5618 12.7176Z" fill="white"/>
<path d="M53.8084 6.78124L54.9702 7.03494C54.986 7.03776 55.0011 7.044 55.0143 7.05323C55.0274 7.06245 55.0384 7.07444 55.0465 7.08835C55.0558 7.10151 55.0621 7.11648 55.065 7.13228C55.068 7.14807 55.0675 7.16431 55.0637 7.17992L53.5852 13.948C53.5821 13.9639 53.5757 13.9791 53.5665 13.9926C53.5574 14.006 53.5455 14.0174 53.5318 14.0262C53.518 14.0348 53.5027 14.0406 53.4866 14.0432C53.4706 14.0459 53.4541 14.0453 53.4383 14.0414L52.2708 13.7858C52.2551 13.7827 52.2402 13.7763 52.2271 13.7671C52.214 13.7579 52.2029 13.7461 52.1945 13.7324C52.1853 13.7193 52.179 13.7043 52.176 13.6885C52.1731 13.6727 52.1735 13.6565 52.1774 13.6409L53.1484 9.19431C53.1484 9.16761 53.1484 9.15234 53.1388 9.14471C53.1293 9.13708 53.1102 9.14471 53.093 9.16188L51.8359 10.4915C51.8176 10.5147 51.7926 10.5319 51.7644 10.5408C51.7361 10.5496 51.7059 10.5497 51.6775 10.5411L51.4467 10.4915C51.4176 10.4873 51.3904 10.4746 51.3687 10.4549C51.3469 10.4351 51.3316 10.4094 51.3246 10.3808L50.7351 8.66401C50.7351 8.63921 50.7161 8.62967 50.7008 8.62967C50.6855 8.62967 50.6779 8.64302 50.6722 8.66973L49.7012 13.1144C49.6977 13.1305 49.691 13.1457 49.6815 13.1591C49.672 13.1726 49.6599 13.1839 49.6458 13.1926C49.6325 13.2014 49.6175 13.2074 49.6018 13.2104C49.5861 13.2133 49.5699 13.2131 49.5543 13.2097L48.3829 12.9522C48.3669 12.9494 48.3515 12.9432 48.3381 12.934C48.3246 12.9248 48.3132 12.9128 48.3047 12.8988C48.2961 12.8854 48.2904 12.8703 48.2877 12.8546C48.2851 12.8389 48.2857 12.8228 48.2895 12.8072L49.7679 6.03919C49.7707 6.0231 49.777 6.00779 49.7862 5.9943C49.7954 5.98081 49.8074 5.96945 49.8213 5.96098C49.8348 5.95239 49.8498 5.94661 49.8656 5.94399C49.8813 5.94137 49.8974 5.94196 49.9129 5.94572L51.0747 6.19943C51.1039 6.2033 51.1312 6.21596 51.153 6.23572C51.1748 6.25548 51.1901 6.28141 51.1968 6.31007L51.9599 8.54383C51.9713 8.5877 51.9923 8.59343 52.0209 8.55718L53.6425 6.84037C53.6602 6.81413 53.6859 6.79424 53.7157 6.7836C53.7456 6.77296 53.7781 6.77213 53.8084 6.78124Z" fill="white"/>
<path d="M59.9016 8.93141L61.031 9.44455C61.0458 9.45102 61.0593 9.46044 61.0704 9.47225C61.0816 9.48405 61.0902 9.49799 61.0958 9.51322C61.102 9.52804 61.1051 9.54392 61.1051 9.55996C61.1051 9.576 61.102 9.59188 61.0958 9.60669L58.2343 15.9169C58.2204 15.946 58.1958 15.9686 58.1656 15.9799C58.1506 15.9865 58.1343 15.9899 58.1179 15.9899C58.1015 15.9899 58.0852 15.9865 58.0702 15.9799L56.979 15.4839C56.9638 15.478 56.9501 15.4687 56.9389 15.4568C56.9277 15.445 56.9192 15.4308 56.9142 15.4152C56.9076 15.4005 56.9042 15.3846 56.9042 15.3685C56.9042 15.3524 56.9076 15.3365 56.9142 15.3218L59.2244 10.2247C59.2293 10.2105 59.2293 10.1951 59.2244 10.1809C59.2244 10.1656 59.211 10.1561 59.1958 10.158L58.2934 9.94052H58.2514C58.1961 9.91381 58.1847 9.86803 58.2152 9.79936L58.549 8.96575C58.5605 8.93755 58.5804 8.91359 58.606 8.89719C58.6316 8.88079 58.6617 8.87275 58.6921 8.87419L59.7433 8.88945C59.7981 8.89385 59.8518 8.90806 59.9016 8.93141Z" fill="white"/>
<path d="M59.5411 16.1725C59.479 15.8827 59.4769 15.5832 59.535 15.2925C59.5931 15.0019 59.7101 14.7262 59.8787 14.4824L61.445 11.9587C61.5884 11.7009 61.7831 11.4752 62.017 11.2955C62.2509 11.1157 62.5191 10.9857 62.8051 10.9134C63.3939 10.8235 63.9954 10.9471 64.501 11.262C65.0066 11.5768 65.3828 12.0621 65.5618 12.6302C65.6258 12.9166 65.6306 13.2131 65.5758 13.5015C65.5211 13.7898 65.4078 14.0639 65.2432 14.3069L63.6751 16.8325C63.531 17.0921 63.3351 17.3192 63.0994 17.4997C62.8638 17.6802 62.5935 17.8103 62.3053 17.8817C61.7168 17.9719 61.1153 17.8484 60.61 17.5334C60.1047 17.2185 59.7289 16.733 59.5506 16.1649L59.5411 16.1725ZM61.8685 16.5807C62.0923 16.5048 62.2799 16.3484 62.395 16.142L64.0432 13.4867C64.1784 13.2942 64.235 13.0575 64.2016 12.8247C64.181 12.7194 64.1377 12.6198 64.0748 12.5328C64.0119 12.4459 63.9308 12.3737 63.8372 12.3211C63.7498 12.2607 63.65 12.2204 63.5451 12.2033C63.4401 12.1861 63.3327 12.1925 63.2306 12.222C63.0085 12.2966 62.8231 12.4527 62.7117 12.6588L61.0634 15.3141C60.9279 15.5073 60.8688 15.7438 60.8975 15.978C60.9155 16.0835 60.957 16.1836 61.0187 16.271C61.0804 16.3585 61.1609 16.4311 61.2542 16.4835C61.3431 16.5439 61.4443 16.5839 61.5505 16.6007C61.6566 16.6175 61.7652 16.6107 61.8685 16.5807Z" fill="white"/>
<path d="M63.7418 18.9492C63.7267 18.6532 63.7722 18.3572 63.8755 18.0793C63.9788 17.8015 64.1378 17.5477 64.3427 17.3335L66.2905 15.0883C66.4725 14.8565 66.7001 14.6646 66.9594 14.5245C67.2187 14.3843 67.504 14.299 67.7976 14.2738C68.0938 14.2602 68.3897 14.3069 68.6674 14.4108C68.9451 14.5147 69.1989 14.6738 69.4134 14.8785C69.6482 15.0635 69.8433 15.294 69.9869 15.5563C70.1305 15.8185 70.2196 16.107 70.249 16.4045C70.2662 16.6994 70.2226 16.9947 70.1209 17.2719C70.0191 17.5492 69.8614 17.8027 69.6576 18.0164L67.7117 20.2616C67.5275 20.496 67.2968 20.6898 67.0342 20.8309C66.7716 20.972 66.4827 21.0575 66.1856 21.0819C65.5909 21.0772 65.0175 20.8607 64.5682 20.4712C64.1188 20.0817 63.8231 19.5448 63.7342 18.9569L63.7418 18.9492ZM65.9757 19.7122C66.2093 19.6735 66.4198 19.5482 66.5652 19.3613L68.6141 16.9997C68.7739 16.8325 68.8646 16.611 68.8678 16.3797C68.8641 16.2743 68.8378 16.1708 68.7908 16.0764C68.7437 15.982 68.677 15.8987 68.595 15.8323C68.5175 15.7598 68.4251 15.7051 68.3243 15.6722C68.2234 15.6392 68.1166 15.6288 68.0112 15.6415C67.7802 15.6815 67.5726 15.8068 67.4294 15.9925L65.3805 18.3426C65.2172 18.5117 65.1221 18.7352 65.1135 18.9702C65.1144 19.0773 65.1393 19.1828 65.1866 19.2789C65.2338 19.3749 65.302 19.4592 65.3863 19.5253C65.4643 19.5989 65.5575 19.6545 65.6594 19.6881C65.7612 19.7217 65.8692 19.7326 65.9757 19.7199V19.7122Z" fill="white"/>
<path d="M67.5477 23.0376C67.5568 23.022 67.5695 23.0088 67.5848 22.9992C67.6001 22.9896 67.6174 22.9838 67.6354 22.9823L75.457 21.7519C75.4877 21.7488 75.5187 21.7539 75.5468 21.7666C75.575 21.7793 75.5992 21.7993 75.6172 21.8244L76.0846 22.4329C76.1132 22.471 76.1228 22.5035 76.1094 22.5321C76.0999 22.5472 76.0871 22.5599 76.0719 22.5692C76.0566 22.5784 76.0394 22.584 76.0216 22.5855L68.2001 23.8159C68.1696 23.8194 68.1387 23.8145 68.1108 23.8018C68.0829 23.789 68.059 23.7688 68.0418 23.7434L67.5725 23.1349C67.5458 23.0993 67.5375 23.0668 67.5477 23.0376ZM69.7968 25.8188C69.7624 25.5369 69.8024 25.2508 69.9129 24.9891C70.0233 24.7274 70.2004 24.4992 70.4264 24.3271C70.65 24.1513 70.9169 24.0393 71.199 24.0028C71.4788 23.9664 71.7633 24.0041 72.0239 24.1121C72.2846 24.2201 72.5124 24.3947 72.6844 24.6183C72.8565 24.8419 72.9669 25.1068 73.0045 25.3864C73.0421 25.666 73.0056 25.9506 72.8988 26.2118C72.7918 26.4759 72.6151 26.706 72.3875 26.8775C72.1624 27.0535 71.8943 27.1661 71.6111 27.2037C71.331 27.2422 71.0457 27.2074 70.7831 27.1026C70.5192 26.996 70.2886 26.8207 70.1152 26.595C69.9418 26.3693 69.8319 26.1013 69.7968 25.8188ZM71.281 26.4025C71.3887 26.415 71.4978 26.4059 71.602 26.3758C71.7062 26.3457 71.8033 26.2951 71.8877 26.227C71.9734 26.1642 72.0455 26.0847 72.0996 25.9932C72.1537 25.9017 72.1887 25.8002 72.2024 25.6948C72.2183 25.5915 72.2128 25.4861 72.1862 25.385C72.1596 25.2839 72.1125 25.1894 72.0479 25.1073C71.986 25.0235 71.9071 24.9537 71.8164 24.9024C71.7256 24.8512 71.6251 24.8196 71.5214 24.8097C71.4161 24.7958 71.3091 24.8034 71.2068 24.8319C71.1046 24.8604 71.0091 24.9093 70.9262 24.9757C70.8383 25.0395 70.7641 25.1204 70.7081 25.2134C70.652 25.3065 70.6153 25.4099 70.6 25.5174C70.5827 25.6208 70.587 25.7265 70.6124 25.8282C70.6379 25.9298 70.684 26.0251 70.7479 26.1082C70.8118 26.1912 70.8921 26.2602 70.9838 26.3108C71.0755 26.3615 71.1767 26.3927 71.281 26.4025ZM70.6896 20.2315C70.6532 19.9524 70.6921 19.6685 70.8022 19.4094C70.9104 19.1449 71.0876 18.9144 71.3154 18.7417C71.5391 18.5665 71.8061 18.4551 72.088 18.4193C72.367 18.3826 72.6507 18.4181 72.9121 18.5224C73.1759 18.6294 73.4065 18.8048 73.5802 19.0304C73.7538 19.256 73.8643 19.5237 73.9003 19.8062C73.9341 20.0853 73.8953 20.3685 73.7877 20.6283C73.6815 20.8918 73.5054 21.1213 73.2784 21.2922C73.0544 21.466 72.7887 21.5782 72.5079 21.6173C72.227 21.6565 71.9408 21.6213 71.6778 21.5153C71.416 21.4053 71.1872 21.2292 71.014 21.0041C70.8407 20.779 70.729 20.5128 70.6896 20.2315ZM72.1738 20.8172C72.3892 20.8389 72.6047 20.7775 72.7764 20.6456C72.948 20.5137 73.0627 20.3212 73.0972 20.1076C73.1146 20.0042 73.1102 19.8984 73.0843 19.7969C73.0583 19.6953 73.0114 19.6004 72.9464 19.5181C72.8829 19.434 72.8027 19.364 72.7107 19.3124C72.6188 19.2609 72.5172 19.2289 72.4123 19.2186C72.3058 19.2044 72.1975 19.2117 72.094 19.2402C71.9904 19.2687 71.8936 19.3178 71.8095 19.3846C71.722 19.4482 71.6486 19.5291 71.5938 19.6223C71.539 19.7155 71.504 19.819 71.4909 19.9263C71.4747 20.0304 71.4803 20.1366 71.5072 20.2384C71.5342 20.3401 71.5818 20.4352 71.6473 20.5177C71.71 20.6009 71.789 20.6704 71.8796 20.7219C71.9701 20.7734 72.0703 20.8058 72.1738 20.8172Z" fill="white"/>
<path d="M17.4745 71.4899L18.0029 70.6353C18.0106 70.6266 18.0148 70.6154 18.0148 70.6038C18.0148 70.5922 18.0106 70.581 18.0029 70.5723L16.6733 69.2447C16.6648 69.2366 16.6535 69.2321 16.6418 69.2321C16.6301 69.2321 16.6188 69.2366 16.6103 69.2447L15.7576 69.775C15.7325 69.7913 15.7023 69.7982 15.6726 69.7944C15.6429 69.7905 15.6155 69.7762 15.5954 69.754L14.7389 68.8994C14.6778 68.8383 14.6854 68.7849 14.7598 68.7372L20.8072 65.2235C20.8339 65.2065 20.8659 65.1998 20.8972 65.2047C20.9285 65.2096 20.9569 65.2258 20.977 65.2502L22.0015 66.2727C22.0255 66.293 22.0415 66.3212 22.0468 66.3523C22.052 66.3834 22.0461 66.4153 22.0301 66.4424L18.5275 72.499L18.5066 72.5333C18.4646 72.5772 18.4169 72.5715 18.3654 72.52L17.5031 71.6596C17.4791 71.6393 17.463 71.611 17.4578 71.58C17.4526 71.5489 17.4585 71.517 17.4745 71.4899ZM17.6157 68.6285C17.6185 68.6433 17.6251 68.6571 17.6347 68.6686L18.5676 69.5995C18.5781 69.6092 18.5915 69.6153 18.6058 69.6166C18.6229 69.6166 18.6344 69.6166 18.6439 69.5918L20.2025 67.0548C20.2159 67.0319 20.2178 67.0147 20.2025 67.0052C20.1872 66.9956 20.1758 67.0052 20.1529 67.0052L17.6405 68.5961C17.6214 68.6056 17.6138 68.6171 17.6157 68.6342V68.6285Z" fill="white"/>
<path d="M26.7078 70.0399C26.7232 70.0368 26.7392 70.0368 26.7546 70.0401C26.77 70.0434 26.7846 70.0498 26.7975 70.059L27.7513 70.7171C27.7643 70.7262 27.7754 70.7378 27.7839 70.7513C27.7925 70.7647 27.7982 70.7797 27.8009 70.7953C27.806 70.8266 27.7992 70.8586 27.7818 70.885L23.9416 76.4341C23.933 76.4474 23.9218 76.4587 23.9087 76.4676C23.8956 76.4764 23.8808 76.4826 23.8653 76.4856C23.8497 76.4884 23.8337 76.488 23.8183 76.4844C23.8029 76.4808 23.7884 76.474 23.7757 76.4646L22.7741 75.7722C22.7488 75.7566 22.729 75.7336 22.7173 75.7062C22.7057 75.6789 22.7029 75.6486 22.7093 75.6196L23.4533 71.1921C23.4533 71.1673 23.4533 71.152 23.438 71.1444C23.4227 71.1368 23.4132 71.1444 23.3999 71.1654L21.1106 74.4808C21.1015 74.4938 21.0899 74.5049 21.0765 74.5134C21.0631 74.5219 21.0481 74.5277 21.0324 74.5303C21.0169 74.5334 21.001 74.5333 20.9856 74.53C20.9702 74.5267 20.9556 74.5204 20.9427 74.5113L19.9889 73.8513C19.963 73.8331 19.9453 73.8056 19.9396 73.7745C19.9339 73.7435 19.9406 73.7114 19.9584 73.6853L23.7986 68.1343C23.8077 68.1212 23.8193 68.1101 23.8327 68.1016C23.8461 68.0931 23.8611 68.0874 23.8768 68.0847C23.908 68.0795 23.94 68.0863 23.9664 68.1037L24.9603 68.7924C24.9853 68.8082 25.0048 68.8314 25.0161 68.8587C25.0273 68.886 25.0299 68.9162 25.0233 68.945L24.2793 73.3725C24.2783 73.381 24.2792 73.3897 24.2818 73.3979C24.2844 73.4062 24.2888 73.4137 24.2946 73.4201C24.306 73.4278 24.3194 73.4201 24.3346 73.3973L26.6239 70.0895C26.633 70.0753 26.6454 70.0634 26.66 70.0548C26.6745 70.0462 26.6909 70.0411 26.7078 70.0399Z" fill="white"/>
<path d="M26.7459 77.829C26.5094 77.5246 26.3663 77.1582 26.3338 76.7741C26.3044 76.36 26.3847 75.9455 26.5666 75.5723L27.673 73.1593C27.8378 72.779 28.1013 72.4497 28.4361 72.2055C28.7473 71.9767 29.1187 71.8441 29.5044 71.824C29.9252 71.8046 30.3442 71.8905 30.7234 72.0739C31.1112 72.2429 31.4513 72.505 31.7135 72.8369C31.9524 73.1417 32.097 73.5097 32.1294 73.8956C32.1596 74.3054 32.0813 74.716 31.9024 75.0859L30.794 77.5009C30.628 77.8804 30.3648 78.2094 30.0309 78.4547C29.7181 78.683 29.3456 78.8156 28.9588 78.8362C28.5366 78.8528 28.1167 78.7657 27.736 78.5825C27.3483 78.4178 27.0079 78.1588 26.7459 77.829ZM28.9569 77.52C29.1954 77.4133 29.3835 77.2185 29.4815 76.9763L30.6261 74.4717C30.7482 74.2365 30.7756 73.9634 30.7024 73.7086C30.6629 73.5902 30.5983 73.4817 30.5131 73.3905C30.4278 73.2993 30.3239 73.2276 30.2083 73.1802C30.0983 73.1247 29.9775 73.0937 29.8543 73.0894C29.7311 73.0851 29.6085 73.1077 29.4949 73.1554C29.2542 73.2652 29.065 73.4633 28.9664 73.7086L27.8218 76.2152C27.7011 76.4469 27.6758 76.7166 27.7512 76.9668C27.7886 77.0844 27.8513 77.1924 27.9351 77.283C28.0188 77.3737 28.1215 77.4448 28.2358 77.4914C28.3467 77.5483 28.4686 77.5804 28.5932 77.5853C28.7177 77.5902 28.8419 77.5679 28.9569 77.52Z" fill="white"/>
<path d="M36.9273 74.3224C36.9408 74.314 36.956 74.3086 36.9718 74.3066C36.9876 74.3047 37.0037 74.3061 37.0189 74.3109L38.1387 74.6028C38.1542 74.6063 38.1689 74.613 38.1817 74.6226C38.1945 74.6321 38.2052 74.6442 38.2131 74.6581C38.221 74.6718 38.2261 74.687 38.2281 74.7027C38.2301 74.7184 38.2288 74.7344 38.2245 74.7496L36.519 81.2793C36.5154 81.2945 36.5086 81.3089 36.499 81.3214C36.4895 81.3338 36.4775 81.3442 36.4637 81.3517C36.4501 81.36 36.435 81.3655 36.4193 81.3678C36.4036 81.37 36.3875 81.3691 36.3721 81.3651L35.1932 81.0561C35.1639 81.0502 35.1373 81.0353 35.1171 81.0133C35.0968 80.9914 35.0841 80.9636 35.0806 80.934L34.2641 76.5218C34.2624 76.513 34.2585 76.5047 34.2529 76.4977C34.2472 76.4908 34.24 76.4853 34.2317 76.4817C34.219 76.4817 34.2095 76.4932 34.2031 76.5161L33.1939 80.4113C33.1903 80.4266 33.1835 80.4409 33.1739 80.4534C33.1644 80.4659 33.1524 80.4763 33.1386 80.4838C33.125 80.4921 33.1099 80.4975 33.0942 80.4998C33.0784 80.5021 33.0624 80.5012 33.047 80.4972L31.9272 80.2034C31.9116 80.1999 31.897 80.1931 31.8842 80.1836C31.8714 80.1741 31.8607 80.162 31.8528 80.1481C31.8448 80.1347 31.8397 80.1199 31.8377 80.1044C31.8357 80.089 31.837 80.0733 31.8414 80.0584L33.5469 73.5269C33.5554 73.4963 33.5755 73.4702 33.6029 73.4542C33.6303 73.4382 33.6629 73.4334 33.6937 73.4411L34.8632 73.7463C34.8923 73.753 34.9187 73.7685 34.9388 73.7907C34.959 73.8128 34.9718 73.8406 34.9757 73.8703L35.7922 78.2825C35.794 78.2913 35.7978 78.2995 35.8035 78.3065C35.8091 78.3135 35.8164 78.319 35.8246 78.3225C35.8361 78.3225 35.8475 78.3225 35.8533 78.2882L36.872 74.3948C36.8805 74.3645 36.9003 74.3386 36.9273 74.3224Z" fill="white"/>
<path d="M40.1379 81.8196C40.1272 81.8078 40.1192 81.7939 40.1142 81.7788C40.1093 81.7637 40.1076 81.7477 40.1093 81.7319L40.3192 79.1852V79.1242L38.9361 74.8932C38.9317 74.8731 38.9317 74.8523 38.9361 74.8322C38.9361 74.7788 38.9762 74.7559 39.0429 74.7616L40.2963 74.8646C40.3278 74.8642 40.3585 74.8752 40.3827 74.8955C40.4068 74.9158 40.4229 74.9441 40.4279 74.9752L41.1452 77.5695C41.1452 77.5905 41.1586 77.6001 41.1719 77.602C41.1853 77.6039 41.1967 77.602 41.2043 77.5734L42.3375 75.1336C42.3472 75.1036 42.3674 75.0782 42.3944 75.062C42.4215 75.0459 42.4534 75.0401 42.4844 75.0458L43.7397 75.1488C43.7854 75.1488 43.8141 75.1679 43.8255 75.1965C43.8384 75.2283 43.8384 75.2639 43.8255 75.2957L41.7557 79.2425L41.7404 79.3016L41.5306 81.8482C41.5278 81.88 41.5128 81.9094 41.4886 81.9302C41.4766 81.9405 41.4626 81.9482 41.4475 81.9528C41.4324 81.9574 41.4165 81.9588 41.4008 81.957L40.2352 81.8616C40.2168 81.8633 40.1982 81.8603 40.1812 81.853C40.1642 81.8457 40.1494 81.8342 40.1379 81.8196Z" fill="white"/>
<path d="M48.4879 74.7766L49.6325 74.664C49.6482 74.662 49.6642 74.6633 49.6793 74.6679C49.6944 74.6725 49.7084 74.6803 49.7203 74.6908C49.7327 74.7004 49.743 74.7125 49.7506 74.7262C49.7581 74.74 49.7627 74.7552 49.7641 74.7709L50.4185 81.4893C50.4206 81.505 50.4193 81.521 50.4147 81.5361C50.41 81.5512 50.4022 81.5652 50.3918 81.5771C50.3821 81.5895 50.3701 81.5998 50.3563 81.6074C50.3425 81.6149 50.3273 81.6195 50.3117 81.621L49.148 81.7335C49.1323 81.7353 49.1164 81.7339 49.1013 81.7293C49.0862 81.7247 49.0722 81.7171 49.0602 81.7068C49.048 81.6971 49.0379 81.685 49.0307 81.6712C49.0234 81.6574 49.0192 81.6422 49.0182 81.6267L48.5871 77.2145C48.5871 77.1878 48.5871 77.1725 48.5642 77.1706C48.5413 77.1687 48.5375 77.1706 48.5261 77.1992L47.763 78.7997C47.7528 78.8265 47.7348 78.8498 47.7114 78.8664C47.6879 78.883 47.6601 78.8924 47.6313 78.8931L47.4024 78.9141C47.3742 78.9195 47.3451 78.9162 47.3189 78.9046C47.2926 78.893 47.2705 78.8737 47.2555 78.8493L46.1949 77.4281C46.1796 77.409 46.1643 77.4014 46.1529 77.4071C46.1414 77.4129 46.1338 77.4262 46.1376 77.4529L46.5669 81.8651C46.5688 81.8808 46.5674 81.8967 46.5628 81.9118C46.5582 81.927 46.5505 81.9409 46.5401 81.9529C46.5301 81.9653 46.5176 81.9755 46.5035 81.9831C46.4895 81.9906 46.474 81.9953 46.4581 81.9967L45.2963 82.1093C45.2648 82.112 45.2335 82.1024 45.2089 82.0824C45.1844 82.0625 45.1685 82.0339 45.1647 82.0025L44.5104 75.284C44.5088 75.2682 44.5104 75.2523 44.515 75.2371C44.5196 75.2219 44.5272 75.2078 44.5373 75.1955C44.5474 75.1833 44.5598 75.1732 44.5739 75.1658C44.5879 75.1584 44.6033 75.1538 44.6191 75.1524L45.7637 75.0398C45.792 75.0354 45.821 75.0394 45.8471 75.0512C45.8733 75.0631 45.8953 75.0824 45.9106 75.1066L47.3109 76.9512C47.3357 76.9894 47.3547 76.9875 47.37 76.9512L48.362 74.8796C48.37 74.8517 48.3864 74.8269 48.4089 74.8085C48.4314 74.7901 48.4589 74.7789 48.4879 74.7766Z" fill="white"/>
<path d="M53.4002 73.6582L54.5448 73.2957C54.5742 73.2842 54.6069 73.2842 54.6364 73.2957C54.6638 73.3115 54.6848 73.3365 54.6955 73.3663L56.7177 79.8063C56.7223 79.8214 56.7238 79.8373 56.7222 79.853C56.7205 79.8687 56.7158 79.884 56.7081 79.8978C56.7015 79.912 56.6919 79.9246 56.6801 79.9347C56.6683 79.9449 56.6544 79.9525 56.6394 79.957L55.5311 80.308C55.5167 80.3145 55.5011 80.3179 55.4853 80.3179C55.4695 80.3179 55.4539 80.3145 55.4395 80.308C55.4256 80.3008 55.4133 80.2908 55.4034 80.2787C55.3936 80.2665 55.3864 80.2525 55.3823 80.2374L53.7474 75.0373C53.7435 75.0233 53.7347 75.0111 53.7226 75.003C53.7176 74.9984 53.7112 74.9959 53.7045 74.9959C53.6977 74.9959 53.6913 74.9984 53.6863 75.003L52.8889 75.4322L52.8527 75.4532C52.7954 75.4723 52.7573 75.4532 52.7344 75.375L52.4482 74.5662C52.438 74.5382 52.4367 74.5078 52.4445 74.479C52.4524 74.4503 52.469 74.4248 52.4921 74.4059L53.2666 73.7345C53.3055 73.7002 53.3509 73.6743 53.4002 73.6582Z" fill="white"/>
<path d="M58.6616 78.7194C58.3925 78.6144 58.1478 78.4555 57.9424 78.2524C57.7371 78.0494 57.5754 77.8064 57.4674 77.5386L56.2541 74.91C56.1216 74.6549 56.0427 74.3754 56.022 74.0887C56.0013 73.8021 56.0394 73.5142 56.1339 73.2427C56.3759 72.7157 56.798 72.2924 57.3244 72.049C57.8507 71.8056 58.4467 71.7581 59.005 71.9151C59.2737 72.018 59.5184 72.1751 59.7239 72.3766C59.9293 72.5781 60.0911 72.8197 60.1992 73.0863L61.4125 75.715C61.5461 75.9714 61.6255 76.2526 61.6458 76.541C61.6662 76.8295 61.627 77.119 61.5308 77.3917C61.2887 77.9162 60.8679 78.3375 60.3436 78.58C59.8193 78.8226 59.2257 78.8706 58.6692 78.7156L58.6616 78.7194ZM60.2412 77.0445C60.302 76.8219 60.2754 76.5844 60.1668 76.3807L58.8905 73.6166C58.8069 73.4029 58.6444 73.2294 58.4365 73.1321C58.3401 73.0928 58.2362 73.0748 58.1322 73.0794C58.0281 73.084 57.9263 73.1111 57.8337 73.1588C57.7375 73.1978 57.651 73.2575 57.5805 73.3337C57.5099 73.4098 57.457 73.5006 57.4254 73.5995C57.3691 73.8203 57.397 74.0542 57.5036 74.2557L58.7799 77.0216C58.8643 77.2345 59.0248 77.4085 59.2301 77.51C59.3255 77.5525 59.4293 77.5728 59.5337 77.5695C59.6381 77.5662 59.7404 77.5393 59.8329 77.4909C59.9297 77.4513 60.0166 77.3907 60.0871 77.3135C60.1577 77.2363 60.2103 77.1445 60.2412 77.0445Z" fill="white"/>
<path d="M64.0299 75.995C63.7477 75.933 63.4812 75.8141 63.2467 75.6455C63.0121 75.4769 62.8145 75.2622 62.6659 75.0145L61.0558 72.6071C60.8843 72.3767 60.762 72.1136 60.6964 71.8341C60.6308 71.5545 60.6232 71.2645 60.6742 70.9819C60.8307 70.424 61.1815 69.9403 61.6631 69.6182C62.1448 69.2961 62.7257 69.1566 63.3011 69.225C63.5844 69.2833 63.8525 69.3999 64.0883 69.5674C64.3241 69.7349 64.5225 69.9496 64.6708 70.1979L66.2809 72.6033C66.4536 72.8356 66.5766 73.101 66.6423 73.3829C66.7079 73.6648 66.7148 73.9572 66.6625 74.2419C66.5049 74.7992 66.154 75.2821 65.6726 75.6041C65.1912 75.926 64.6108 76.066 64.0356 75.9988L64.0299 75.995ZM65.3271 74.0874C65.3521 73.8577 65.2887 73.6272 65.1497 73.4426L63.4576 70.9113C63.3405 70.7143 63.153 70.569 62.9329 70.505C62.8312 70.4808 62.7255 70.479 62.6231 70.4998C62.5206 70.5205 62.4239 70.5633 62.3396 70.6252C62.2511 70.6791 62.1755 70.7518 62.1181 70.8381C62.0607 70.9245 62.0231 71.0224 62.0077 71.1249C61.9852 71.3523 62.0492 71.5798 62.187 71.7621L63.8792 74.2934C63.9965 74.4906 64.1827 74.6374 64.4019 74.7054C64.5026 74.7324 64.608 74.7363 64.7104 74.7168C64.8128 74.6973 64.9095 74.655 64.9932 74.5929C65.0822 74.5392 65.1582 74.4666 65.2159 74.3802C65.2736 74.2938 65.3115 74.1958 65.3271 74.0931V74.0874Z" fill="white"/>
<path d="M66.7903 69.5494C66.5256 69.6221 66.2462 69.6221 65.9815 69.5494C65.7136 69.4773 65.4694 69.3363 65.2729 69.1406C65.0765 68.9448 64.9347 68.701 64.8616 68.4335C64.792 68.1684 64.792 67.8898 64.8616 67.6247C64.931 67.356 65.0709 67.1108 65.2667 66.9143C65.4626 66.7178 65.7073 66.5771 65.9757 66.5068C66.2403 66.4382 66.5181 66.4382 66.7827 66.5068C67.0511 66.5766 67.2957 66.7176 67.4904 66.915C67.6893 67.1104 67.8322 67.3554 67.9044 67.6247C68.0118 68.0271 67.9556 68.4557 67.7479 68.8167C67.5402 69.1777 67.1979 69.4418 66.796 69.5513L66.7903 69.5494ZM67.1719 68.0405C67.1647 67.8302 67.0776 67.6304 66.9284 67.482C66.7793 67.3335 66.5791 67.2474 66.3687 67.2412C66.2666 67.2371 66.1647 67.2545 66.0697 67.2923C65.9747 67.3301 65.8888 67.3874 65.8174 67.4606C65.7444 67.533 65.6871 67.6197 65.649 67.7152C65.611 67.8107 65.593 67.913 65.5961 68.0157C65.5962 68.1204 65.6173 68.224 65.6583 68.3204C65.6993 68.4167 65.7592 68.5038 65.8346 68.5765C65.908 68.6541 65.9968 68.7154 66.0954 68.7565C66.194 68.7976 66.3001 68.8175 66.4069 68.815C66.5094 68.8169 66.6112 68.7977 66.7061 68.7586C66.8009 68.7196 66.8867 68.6615 66.9582 68.588C67.0282 68.5156 67.0827 68.4297 67.1185 68.3356C67.1542 68.2415 67.1704 68.1411 67.1661 68.0405H67.1719ZM69.9094 72.2257C69.8934 72.2184 69.8792 72.2076 69.868 72.1941C69.8567 72.1805 69.8487 72.1646 69.8445 72.1475L67.6545 64.7538C67.6479 64.7245 67.649 64.6939 67.6576 64.6652C67.6663 64.6364 67.6823 64.6104 67.7041 64.5897L68.2325 64.0594C68.2669 64.0263 68.2974 64.0149 68.3241 64.0251C68.3401 64.0319 68.3542 64.0424 68.3655 64.0556C68.3767 64.0689 68.3848 64.0845 68.389 64.1014L70.5771 71.497C70.5846 71.5258 70.5841 71.5561 70.5757 71.5847C70.5673 71.6133 70.5513 71.639 70.5294 71.6592L70.001 72.1895C69.9609 72.2219 69.9304 72.2353 69.9037 72.2257H69.9094ZM72.3016 69.6963C72.0354 69.7669 71.7553 69.7669 71.489 69.6963C71.22 69.6244 70.9751 69.4821 70.7793 69.2842C70.5839 69.0912 70.4429 68.8501 70.3706 68.5852C70.2982 68.3202 70.2971 68.0409 70.3672 67.7754C70.4367 67.5081 70.5756 67.2641 70.7699 67.0678C70.9641 66.8716 71.2068 66.7302 71.4733 66.658C71.7398 66.5857 72.0206 66.5852 72.2874 66.6565C72.5541 66.7278 72.7973 66.8683 72.9922 67.0638C73.1906 67.2588 73.3335 67.5031 73.4062 67.7715C73.4767 68.0378 73.4767 68.3179 73.4062 68.5842C73.338 68.8534 73.1982 69.0993 73.0018 69.2957C72.8089 69.49 72.5669 69.6285 72.3016 69.6963ZM72.6832 68.1893C72.6825 68.0819 72.66 67.9759 72.617 67.8775C72.5741 67.7791 72.5116 67.6905 72.4333 67.617C72.3619 67.5422 72.2761 67.4826 72.181 67.4419C72.0859 67.4013 71.9835 67.3804 71.8801 67.3805C71.779 67.3805 71.679 67.4005 71.5858 67.4395C71.4926 67.4784 71.4081 67.5355 71.3371 67.6073C71.2661 67.6792 71.2101 67.7644 71.1723 67.8581C71.1345 67.9518 71.1157 68.0521 71.117 68.1531C71.1176 68.2565 71.1391 68.3588 71.1801 68.4538C71.221 68.5489 71.2807 68.6347 71.3554 68.7062C71.4292 68.7838 71.518 68.8456 71.6164 68.8879C71.7147 68.9302 71.8207 68.9521 71.9277 68.9523C72.0298 68.9566 72.1316 68.939 72.2263 68.9009C72.321 68.8627 72.4065 68.8048 72.4772 68.731C72.5468 68.6597 72.6011 68.5748 72.6365 68.4816C72.672 68.3884 72.6878 68.2889 72.6832 68.1893Z" fill="white"/>
</g>
<defs>
<clipPath id="clip0_1397_217389">
<rect width="88" height="88" fill="white"/>
</clipPath>
</defs>
</svg>
