<svg width="99" height="72" viewBox="0 0 99 72" fill="none" xmlns="http://www.w3.org/2000/svg">
<g clip-path="url(#clip0_1397_160885)">
<path d="M66.0093 29.9697V32.2923H96.0369V52.569V54.3164V65.1916H56.7389L49.1787 69.3499L41.6185 65.1916H2.32051V54.3164V52.569V32.2923H32.3481V29.9697H0V52.569V54.3164V67.5148H41.0228L49.1787 71.9998L57.3341 67.5148H98.3574V54.3164V52.569V29.9697H66.0093Z" fill="#BBD1DC"/>
<path d="M9.68799 39.5051H16.7973C18.0191 39.4971 19.2279 39.7565 20.3391 40.265C21.4194 40.7564 22.4 41.4427 23.232 42.2895C24.0613 43.1389 24.7225 44.1379 25.1805 45.2335C25.6473 46.3436 25.8888 47.5355 25.8909 48.7399C25.893 49.9442 25.6557 51.137 25.1927 52.2487C24.7407 53.3484 24.0836 54.3518 23.2565 55.2056C22.4273 56.0587 21.4462 56.7492 20.3636 57.2417C19.2444 57.7522 18.0272 58.0116 16.7973 58.0017H9.68799V39.5051ZM14.4926 53.9317H15.5947C16.4284 53.9317 17.1719 53.801 17.8253 53.5395C18.4462 53.2994 19.0099 52.9315 19.4799 52.4597C19.9342 51.9946 20.2851 51.4385 20.5096 50.8281C20.7528 50.1646 20.8737 49.4624 20.8665 48.7557C20.8723 48.0517 20.7475 47.3528 20.4985 46.6944C20.2701 46.0737 19.9111 45.5094 19.4459 45.0396C18.9806 44.5698 18.42 44.2055 17.8019 43.9714C17.1481 43.7091 16.4124 43.5779 15.5947 43.5779H14.4926V53.9317Z" fill="#BBD1DC"/>
<path d="M28.1218 58.0044L31.26 39.5049H36.0155L39.7168 49.3682L43.3964 39.5049H48.1519L51.2872 58.0044H46.5072L44.915 47.356L40.5503 58.0044H38.638L34.4958 47.356L32.9024 58.0044H28.1218Z" fill="#BBD1DC"/>
<path d="M67.6354 45.687C66.5241 44.3296 65.1514 43.6508 63.5171 43.6508C62.8316 43.6443 62.1519 43.7778 61.5196 44.0431C60.9273 44.2909 60.39 44.6537 59.9385 45.1106C59.4893 45.5727 59.1353 46.1187 58.8966 46.7176C58.6397 47.3571 58.5105 48.0407 58.5163 48.7298C58.509 49.4269 58.6382 50.1186 58.8966 50.766C59.1363 51.3676 59.4925 51.9158 59.9448 52.379C60.3971 52.8422 60.9365 53.2113 61.5319 53.465C62.1514 53.7298 62.819 53.8633 63.4926 53.8573C65.0287 53.8573 66.4096 53.2031 67.6354 51.8948V57.587L67.1454 57.7589C66.4743 58.0025 65.7859 58.1951 65.086 58.3353C64.4642 58.4566 63.8323 58.5182 63.1988 58.5195C60.6735 58.5189 58.249 57.5279 56.4452 55.759C55.541 54.8645 54.8134 53.8074 54.3005 52.6431C53.7608 51.4408 53.4912 50.1282 53.4916 48.7053C53.492 47.2823 53.7575 45.9779 54.2882 44.792C55.0561 43.0623 56.3094 41.5931 57.8958 40.563C59.4823 39.5328 61.3335 38.9861 63.2245 38.9893C63.9539 38.9891 64.6812 39.0675 65.3938 39.2231C66.1614 39.3972 66.9119 39.6394 67.6366 39.9468L67.6354 45.687Z" fill="url(#paint0_linear_1397_160885)"/>
<path d="M82.4427 54.7901H75.5787L74.4754 58.0054H69.3525L76.3882 39.5059H81.6338L88.6695 58.0054H83.546L82.4427 54.7901ZM81.1683 51.1346L79.0107 44.9759L76.8537 51.1346H81.1683Z" fill="#BBD1DC"/>
<path d="M57.4848 13.2347H55.2975V8.31354C55.2975 6.68929 54.6528 5.13157 53.5053 3.98306C52.3578 2.83454 50.8015 2.18931 49.1787 2.18931C47.556 2.18931 45.9996 2.83454 44.8522 3.98306C43.7047 5.13157 43.06 6.68929 43.06 8.31354V12.8734H40.8727V8.31354C40.8727 6.10865 41.7478 3.99407 43.3055 2.43498C44.8632 0.875888 46.9758 0 49.1787 0C51.3816 0 53.4943 0.875888 55.052 2.43498C56.6097 3.99407 57.4848 6.10865 57.4848 8.31354V13.2347Z" fill="#BBD1DC"/>
<path d="M60.081 12.9004H38.2771V32.2996H60.081V12.9004Z" fill="#BBD1DC"/>
<path d="M59.1435 13.8389H39.2145V31.3615H59.1435V13.8389Z" fill="#325D9C"/>
<path d="M58.2056 14.7773H40.152V30.4229H58.2056V14.7773Z" fill="#002E5D"/>
<path d="M51.0479 22.2381C51.0481 21.9044 50.9591 21.5766 50.79 21.2888C50.621 21.0011 50.3782 20.7638 50.0867 20.6017C49.7951 20.4396 49.4656 20.3585 49.1322 20.3668C48.7988 20.3751 48.4737 20.4726 48.1906 20.6491C47.9076 20.8256 47.6768 21.0746 47.5224 21.3705C47.3679 21.6663 47.2953 21.9981 47.3122 22.3315C47.3291 22.6649 47.4347 22.9876 47.6183 23.2663C47.8018 23.5451 48.0565 23.7695 48.3559 23.9165V26.1058C48.3559 26.3246 48.4427 26.5344 48.5973 26.6891C48.7518 26.8438 48.9614 26.9307 49.18 26.9307C49.3986 26.9307 49.6082 26.8438 49.7628 26.6891C49.9173 26.5344 50.0041 26.3246 50.0041 26.1058V23.9165C50.3173 23.7622 50.5811 23.5232 50.7656 23.2266C50.9501 22.93 51.0479 22.5876 51.0479 22.2381Z" fill="#BBD1DC"/>
</g>
<defs>
<linearGradient id="paint0_linear_1397_160885" x1="60.5653" y1="30.7786" x2="60.5653" y2="72.7912" gradientUnits="userSpaceOnUse">
<stop stop-color="#BBD1DC"/>
<stop offset="0.9999" stop-color="#BBD1DC"/>
<stop offset="1" stop-color="#39B54A"/>
</linearGradient>
<clipPath id="clip0_1397_160885">
<rect width="99" height="72" fill="white"/>
</clipPath>
</defs>
</svg>
