<svg width="138" height="56" viewBox="0 0 138 56" fill="none" xmlns="http://www.w3.org/2000/svg">
<path d="M44.2343 39.4156L26.9917 54.5384C25.9185 55.4805 24.5393 56 23.1113 56C21.6833 56 20.3041 55.4805 19.231 54.5384L2.0015 39.4156C1.37182 38.8636 0.867462 38.1833 0.52226 37.4204C0.177058 36.6575 -0.00100839 35.8295 4.29527e-06 34.9922V8.3202C0.000823245 6.90346 0.512966 5.53463 1.4423 4.4653C2.37163 3.39596 3.6557 2.69799 5.05848 2.49967L22.2836 0.0558321C22.8314 -0.0186107 23.3868 -0.0186107 23.9347 0.0558321L41.1685 2.49967C42.5697 2.69991 43.8517 3.39872 44.7793 4.46786C45.7068 5.537 46.2177 6.90477 46.2183 8.3202V34.9922C46.2206 35.8281 46.0449 36.6549 45.7028 37.4176C45.3607 38.1803 44.8601 38.8614 44.2343 39.4156Z" fill="#BBD1DC"/>
<path d="M38.0284 24.5244C38.0292 27.476 37.1547 30.3615 35.5155 32.816C33.8762 35.2705 31.5459 37.1837 28.8192 38.3136C26.0924 39.4435 23.0919 39.7393 20.197 39.1637C17.3021 38.5881 14.643 37.1669 12.5559 35.0799C10.4689 32.9928 9.04766 30.3337 8.47205 27.4388C7.89644 24.5439 8.19231 21.5433 9.32222 18.8166C10.4521 16.0899 12.3653 13.7596 14.8198 12.1203C17.2743 10.4811 20.1598 9.60656 23.1113 9.60742C27.0672 9.60858 30.8607 11.1806 33.658 13.9778C36.4552 16.775 38.0272 20.5686 38.0284 24.5244Z" fill="#468B96"/>
<path d="M40.1963 37.4844L26.2516 50.1854C25.3957 50.9752 24.2738 51.4137 23.1092 51.4137C21.9446 51.4137 20.8227 50.9752 19.9668 50.1854L6.02207 37.4844C5.50919 37.0107 5.10031 36.4355 4.82137 35.7955C4.54242 35.1554 4.39948 34.4644 4.40161 33.7661V11.3512C4.38508 10.1805 4.78935 9.04273 5.54087 8.14492C6.29239 7.24712 7.34122 6.64892 8.49657 6.45914L22.4413 4.40509C22.877 4.34153 23.3195 4.34153 23.7552 4.40509L37.7043 6.45914C38.8593 6.64901 39.9076 7.24738 40.6584 8.14528C41.4092 9.04318 41.8125 10.1809 41.7949 11.3512V33.7661C41.8009 34.4629 41.6619 35.1533 41.3867 35.7934C41.1115 36.4335 40.7061 37.0094 40.1963 37.4844Z" fill="#325D9C"/>
<path d="M38.9087 36.7086L26.0151 48.5336C25.2247 49.2662 24.1868 49.6733 23.1092 49.6733C22.0315 49.6733 20.9936 49.2662 20.2033 48.5336L7.30967 36.7086C6.83512 36.2681 6.45702 35.7339 6.19922 35.1399C5.94142 34.546 5.80952 33.905 5.81184 33.2575V12.4498C5.79486 11.3653 6.16733 10.3106 6.86164 9.4773C7.55595 8.64397 8.52605 8.08723 9.59584 7.90816L22.4939 6.00302C22.9033 5.9417 23.3195 5.9417 23.7289 6.00302L36.6225 7.90816C37.6927 8.08638 38.6633 8.64288 39.3578 9.4764C40.0523 10.3099 40.4244 11.3651 40.4065 12.4498V33.2575C40.4099 33.9051 40.2785 34.5464 40.0206 35.1406C39.7628 35.7347 39.3841 36.2687 38.9087 36.7086Z" fill="white"/>
<path d="M31.0404 21.4191H28.986V16.8013C28.986 15.2771 28.3805 13.8154 27.3028 12.7376C26.225 11.6599 24.7633 11.0544 23.2391 11.0544C21.715 11.0544 20.2532 11.6599 19.1755 12.7376C18.0977 13.8154 17.4923 15.2771 17.4923 16.8013V21.0801H15.4379V16.8013C15.4379 14.7322 16.2598 12.748 17.7228 11.2849C19.1858 9.82192 21.1701 9 23.2391 9C25.3081 9 27.2924 9.82192 28.7554 11.2849C30.2185 12.748 31.0404 14.7322 31.0404 16.8013V21.4191Z" fill="#BBD1DC"/>
<path d="M33.4788 21.1055H13V39.3093H33.4788V21.1055Z" fill="#BBD1DC"/>
<path d="M32.5983 21.9863H13.8805V38.4292H32.5983V21.9863Z" fill="#325D9C"/>
<path d="M31.7172 22.8672H14.7609V37.5486H31.7172V22.8672Z" fill="#002E5D"/>
<path d="M24.9946 29.8679C24.9948 29.5547 24.9112 29.2471 24.7525 28.9771C24.5937 28.7071 24.3656 28.4844 24.0918 28.3323C23.818 28.1802 23.5085 28.1041 23.1954 28.1119C22.8823 28.1197 22.5769 28.2111 22.3111 28.3768C22.0452 28.5424 21.8285 28.7761 21.6834 29.0537C21.5383 29.3313 21.4702 29.6427 21.486 29.9555C21.5018 30.2683 21.6011 30.5712 21.7735 30.8328C21.9458 31.0943 22.185 31.3049 22.4663 31.4429V33.4973C22.4663 33.7026 22.5478 33.8994 22.693 34.0446C22.8381 34.1898 23.035 34.2713 23.2403 34.2713C23.4456 34.2713 23.6425 34.1898 23.7876 34.0446C23.9328 33.8994 24.0143 33.7026 24.0143 33.4973V31.4429C24.3085 31.2981 24.5563 31.0738 24.7295 30.7955C24.9028 30.5171 24.9946 30.1958 24.9946 29.8679Z" fill="#BBD1DC"/>
<path d="M58.744 20.8412C58.2384 20.6457 57.748 20.4129 57.2768 20.1448C56.8652 19.9146 56.4939 19.6188 56.1776 19.2689C55.8614 18.9084 55.6202 18.4885 55.4681 18.0338C55.2901 17.4764 55.2057 16.8933 55.2184 16.3082C55.209 15.5656 55.3583 14.8294 55.6564 14.1491C55.9275 13.5417 56.3334 13.004 56.8433 12.5768C57.3879 12.1375 58.0148 11.8114 58.6871 11.6177C59.4745 11.393 60.2903 11.2838 61.109 11.2936C61.8779 11.2897 62.6453 11.3631 63.3996 11.5125C64.1604 11.6681 64.9097 11.8759 65.6419 12.1345C65.5379 13.0904 65.2728 14.0218 64.858 14.8892L64.1266 14.6002C63.8681 14.5032 63.6033 14.4241 63.3339 14.3637C63.0219 14.2927 62.706 14.24 62.3879 14.206C61.9893 14.1635 61.5887 14.1431 61.1879 14.1447C60.9103 14.146 60.6334 14.1709 60.3601 14.2192C60.0956 14.2621 59.8406 14.351 59.6068 14.4819C59.3744 14.6159 59.1835 14.8114 59.055 15.0469C58.8968 15.3458 58.8212 15.6814 58.836 16.0192C58.8265 16.2963 58.8852 16.5715 59.0068 16.8207C59.112 17.0336 59.2613 17.2217 59.4448 17.3725C59.643 17.5288 59.8609 17.6584 60.093 17.7579L60.8112 18.0557L62.2477 18.6075C62.8121 18.827 63.3646 19.0755 63.9032 19.3521C64.3766 19.5899 64.8037 19.9103 65.1646 20.2981C65.5189 20.6965 65.7913 21.1608 65.966 21.6645C66.1746 22.3031 66.2724 22.9726 66.2551 23.6441C66.2657 24.4096 66.1165 25.1688 65.8171 25.8734C65.5268 26.533 65.0929 27.1195 64.547 27.5902C63.9361 28.0997 63.2306 28.4837 62.4711 28.7201C61.5513 29.006 60.5918 29.1435 59.6287 29.1274C59.1032 29.1274 58.6302 29.1274 58.2141 29.0792C57.8159 29.0487 57.4196 28.996 57.0272 28.9216C56.6499 28.8513 56.277 28.7592 55.9104 28.6457C55.5425 28.5362 55.1615 28.4004 54.7629 28.2384C54.8114 27.7489 54.8993 27.2641 55.0257 26.7887C55.1527 26.285 55.306 25.777 55.4637 25.2646C56.0772 25.5186 56.7098 25.7236 57.3557 25.8777C57.9782 26.016 58.6144 26.0836 59.2521 26.0792C60.0809 26.1256 60.9053 25.9309 61.6258 25.5186C61.9103 25.3352 62.1412 25.0797 62.2951 24.7782C62.4489 24.4767 62.5202 24.1398 62.5018 23.8018C62.5133 23.4705 62.4442 23.1413 62.3003 22.8427C62.167 22.5945 61.987 22.3744 61.7703 22.1945C61.5477 22.0158 61.3016 21.8684 61.0389 21.7565C60.7674 21.6383 60.4871 21.52 60.1981 21.4105L58.744 20.8412Z" fill="#BBD1DC"/>
<path d="M68.7909 11.583H78.575C78.6713 12.0646 78.7197 12.5546 78.7195 13.0458C78.7213 13.553 78.6729 14.0591 78.575 14.5568H72.2902V18.297H77.2786C77.373 18.7878 77.4213 19.2863 77.4231 19.7861C77.4237 20.2932 77.3753 20.7992 77.2786 21.297H72.2902V25.8387H78.7414C78.8377 26.3203 78.8861 26.8103 78.8859 27.3015C78.8881 27.8087 78.8397 28.3149 78.7414 28.8125H68.7909V11.583Z" fill="#BBD1DC"/>
<path d="M92.914 25.5633C93.3257 26.4522 93.5989 27.399 93.7242 28.3706C93.0004 28.6457 92.2506 28.8467 91.4862 28.9706C90.7738 29.0703 90.0552 29.1186 89.3358 29.1151C88.1157 29.1452 86.9023 28.9246 85.7708 28.467C84.79 28.0472 83.9159 27.4126 83.2131 26.61C82.5 25.7884 81.9647 24.8281 81.6408 23.7895C81.2811 22.6418 81.1038 21.4447 81.1153 20.242C81.1043 19.033 81.2907 17.8303 81.6671 16.6814C82.0047 15.6375 82.5466 14.6713 83.2613 13.839C83.9661 13.0315 84.8432 12.3924 85.8277 11.9689C86.922 11.5022 88.1026 11.2723 89.292 11.2944C90.0027 11.2905 90.7126 11.3388 91.4162 11.439C92.1362 11.5574 92.8402 11.7587 93.514 12.039C93.4795 12.5168 93.3823 12.988 93.2249 13.4404C93.0614 13.8959 92.8863 14.3558 92.6994 14.82C92.2138 14.6474 91.7161 14.5113 91.2103 14.4127C90.7039 14.3279 90.1909 14.2883 89.6774 14.2945C88.1387 14.2945 86.9591 14.7938 86.1387 15.7923C85.3182 16.7909 84.9066 18.2741 84.9036 20.242C84.9036 24.1399 86.5577 26.0903 89.8658 26.0932C90.3881 26.0996 90.91 26.0586 91.4249 25.9706C91.9309 25.8729 92.4287 25.7367 92.914 25.5633Z" fill="#BBD1DC"/>
<path d="M96.2469 11.5831C96.5535 11.5349 96.8469 11.5043 97.1228 11.4867C97.3987 11.4692 97.7053 11.4648 97.9987 11.4648C98.2922 11.4648 98.5506 11.4648 98.8352 11.4867C99.1199 11.5086 99.4221 11.5349 99.7112 11.5831V20.5263C99.7112 21.5044 99.7462 22.3409 99.8163 23.0358C99.8668 23.6311 100.015 24.2141 100.254 24.7614C100.442 25.1863 100.761 25.5394 101.165 25.7687C101.638 26.0024 102.162 26.1138 102.689 26.0928C103.212 26.1144 103.732 26.0029 104.2 25.7687C104.598 25.5358 104.912 25.1833 105.098 24.7614C105.338 24.2141 105.486 23.6311 105.536 23.0358C105.606 22.338 105.641 21.5015 105.641 20.5263V11.5831C105.961 11.5349 106.267 11.5043 106.552 11.4867C106.837 11.4692 107.122 11.4648 107.393 11.4648C107.665 11.4648 107.971 11.4648 108.269 11.4867C108.567 11.5086 108.865 11.5349 109.167 11.5831V21.2708C109.175 22.3447 109.079 23.4168 108.882 24.4723C108.72 25.3649 108.368 26.2119 107.849 26.9556C107.339 27.6536 106.652 28.2038 105.86 28.5498C103.816 29.3029 101.571 29.3029 99.5272 28.5498C98.7344 28.2048 98.048 27.6545 97.5389 26.9556C97.0178 26.2129 96.6651 25.3654 96.5053 24.4723C96.3044 23.4172 96.2076 22.3449 96.2162 21.2708L96.2469 11.5831Z" fill="#BBD1DC"/>
<path d="M112.605 11.583C113.305 11.5042 113.967 11.4341 114.58 11.3772C115.193 11.3202 115.894 11.2939 116.634 11.2939C117.507 11.2951 118.377 11.3757 119.236 11.5348C120.05 11.6809 120.833 11.9684 121.548 12.3845C122.231 12.7916 122.804 13.3601 123.217 14.04C123.663 14.8421 123.882 15.7504 123.852 16.6678C123.862 17.2405 123.781 17.8113 123.611 18.3583C123.469 18.8132 123.262 19.2453 122.998 19.6415C122.769 19.9968 122.498 20.3233 122.192 20.6138C121.939 20.848 121.666 21.0605 121.377 21.2488L120.97 21.5116L125.166 28.8037L124.158 28.8957C123.808 28.9307 123.449 28.9439 123.081 28.9439C122.478 28.9436 121.876 28.8967 121.281 28.8037L116.779 20.7934L117.352 20.5043C117.576 20.3904 117.847 20.2503 118.167 20.0663C118.498 19.8823 118.808 19.662 119.091 19.4094C119.395 19.135 119.65 18.8106 119.844 18.4503C120.06 18.0463 120.168 17.5941 120.16 17.1364C120.16 16.1291 119.868 15.3889 119.284 14.9159C118.647 14.426 117.857 14.1763 117.054 14.2108C116.733 14.2079 116.413 14.2313 116.095 14.2809V28.8256C115.806 28.8563 115.522 28.8869 115.219 28.9088C114.917 28.9307 114.65 28.9439 114.378 28.9439C114.107 28.9439 113.822 28.9439 113.503 28.9439C113.183 28.9439 112.889 28.8957 112.57 28.8475L112.605 11.583Z" fill="#BBD1DC"/>
<path d="M127.088 11.583H136.872C136.969 12.0646 137.017 12.5546 137.017 13.0458C137.019 13.553 136.97 14.0591 136.872 14.5568H130.587V18.297H135.576C135.67 18.7878 135.719 19.2863 135.72 19.7861C135.721 20.2932 135.673 20.7992 135.576 21.297H130.587V25.8387H137.039C137.135 26.3203 137.183 26.8103 137.183 27.3015C137.185 27.8087 137.137 28.3149 137.039 28.8125H127.088V11.583Z" fill="#BBD1DC"/>
<path d="M56.4491 39.4421C56.2197 39.3537 55.9972 39.2482 55.7834 39.1268C55.5936 39.0204 55.4221 38.8844 55.2753 38.7239C55.1335 38.557 55.0237 38.3655 54.9512 38.1589C54.8707 37.9026 54.8322 37.6348 54.8374 37.3662C54.8313 37.0278 54.897 36.6919 55.0301 36.3808C55.1531 36.1026 55.339 35.8567 55.5732 35.6625C55.822 35.4603 56.1097 35.3113 56.4184 35.2245C56.7783 35.1201 57.1518 35.0699 57.5265 35.0756C57.8777 35.0729 58.2284 35.1051 58.5732 35.172C58.9206 35.2464 59.2629 35.343 59.598 35.461C59.5509 35.8936 59.4325 36.3154 59.2477 36.7092L58.9104 36.5778C58.7935 36.5329 58.6734 36.4963 58.5513 36.4684C58.407 36.4356 58.2607 36.4122 58.1133 36.3983C57.9315 36.3782 57.7488 36.368 57.5659 36.3676C57.4381 36.3686 57.3107 36.3803 57.1849 36.4027C57.0638 36.4228 56.9469 36.4628 56.8389 36.5209C56.7358 36.5854 56.6501 36.6741 56.5892 36.7793C56.5181 36.9141 56.4834 37.065 56.4885 37.2173C56.4847 37.3445 56.5117 37.4707 56.5673 37.5852C56.6169 37.6824 56.6872 37.7676 56.7732 37.8348C56.8643 37.9061 56.9644 37.965 57.071 38.01L57.3995 38.1501L58.0564 38.3998C58.3149 38.5001 58.5678 38.6141 58.8141 38.7414C59.0309 38.8525 59.2266 39.0007 59.3922 39.1793C59.5549 39.3601 59.68 39.5716 59.7601 39.8013C59.8549 40.0938 59.8993 40.4004 59.8915 40.7078C59.8953 41.0587 59.8252 41.4064 59.6856 41.7283C59.5531 42.0326 59.3523 42.3023 59.0988 42.5166C58.821 42.7502 58.4994 42.9259 58.1528 43.0334C57.7273 43.164 57.2838 43.226 56.8389 43.2174C56.598 43.2174 56.4009 43.2174 56.1907 43.2174C56.0083 43.2059 55.8269 43.1825 55.6476 43.1473C55.4757 43.1158 55.306 43.0734 55.1396 43.0203C54.9609 42.9694 54.7854 42.9079 54.614 42.8363C54.6379 42.612 54.6774 42.3895 54.7323 42.1706C54.7877 41.9429 54.8578 41.7108 54.9425 41.4743C55.2259 41.5927 55.5189 41.6864 55.8184 41.7546C56.1057 41.8201 56.3996 41.8524 56.6943 41.8509C57.0737 41.8713 57.4509 41.7815 57.7805 41.5925C57.9093 41.5081 58.0136 41.3911 58.0828 41.2535C58.152 41.1158 58.1837 40.9624 58.1747 40.8086C58.179 40.6574 58.1474 40.5073 58.0827 40.3706C58.0237 40.2571 57.9416 40.1572 57.8418 40.0772C57.7409 39.9935 57.6289 39.9242 57.509 39.8713L57.1235 39.7137L56.4491 39.4421Z" fill="#BBD1DC"/>
<path d="M62.1909 39.442C61.9597 39.3544 61.7356 39.249 61.5208 39.1267C61.3332 39.0191 61.1633 38.8832 61.0171 38.7238C60.8738 38.5581 60.7637 38.3662 60.693 38.1588C60.6124 37.9025 60.574 37.6348 60.5792 37.3661C60.571 37.0275 60.6368 36.6912 60.7719 36.3807C60.8933 36.1016 61.0795 35.8554 61.3149 35.6624C61.5622 35.4602 61.8484 35.3112 62.1558 35.2245C62.5158 35.1206 62.8892 35.0704 63.2639 35.0756C63.6151 35.0728 63.9658 35.1051 64.3106 35.1719C64.6596 35.2457 65.0034 35.3423 65.3398 35.461C65.293 35.8941 65.1731 36.3162 64.9851 36.7092L64.6522 36.5778C64.5337 36.5329 64.4123 36.4963 64.2887 36.4683C64.1443 36.4357 63.9981 36.4123 63.8507 36.3982C63.6675 36.378 63.4833 36.3678 63.2989 36.3675C63.1726 36.3686 63.0466 36.3803 62.9223 36.4026C62.801 36.422 62.684 36.462 62.5763 36.5208C62.4729 36.5863 62.386 36.6747 62.3222 36.7792C62.2527 36.9144 62.2195 37.0653 62.2259 37.2172C62.2228 37.3439 62.2483 37.4696 62.3003 37.5851C62.353 37.6816 62.4245 37.7665 62.5106 37.8347C62.6017 37.906 62.7018 37.9649 62.8084 38.0099L63.1369 38.1501L63.7938 38.3997C64.0519 38.5008 64.3048 38.6148 64.5515 38.7413C64.767 38.8524 64.9612 39.0007 65.1252 39.1793C65.2879 39.3601 65.413 39.5715 65.4931 39.8012C65.5879 40.0937 65.6323 40.4003 65.6245 40.7078C65.6297 41.0583 65.5611 41.406 65.423 41.7282C65.2889 42.0316 65.0883 42.301 64.8362 42.5165C64.5562 42.7493 64.2333 42.9248 63.8858 43.0333C63.4604 43.164 63.0168 43.2261 62.5719 43.2173C62.331 43.2173 62.112 43.2173 61.9237 43.2173C61.7413 43.2061 61.5599 43.1827 61.3806 43.1472C61.2074 43.1152 61.0363 43.0728 60.8682 43.0202C60.69 42.9679 60.5146 42.9065 60.3427 42.8363C60.366 42.6115 60.407 42.3889 60.4653 42.1706C60.5222 41.9428 60.5923 41.7326 60.6711 41.4742C60.9545 41.5926 61.2476 41.6864 61.547 41.7545C61.8345 41.8192 62.1283 41.8516 62.423 41.8508C62.8023 41.8705 63.1793 41.7808 63.5091 41.5924C63.638 41.508 63.7422 41.391 63.8115 41.2534C63.8807 41.1157 63.9123 40.9623 63.9033 40.8085C63.9076 40.6573 63.8761 40.5072 63.8113 40.3705C63.7508 40.258 63.669 40.1584 63.5704 40.0771C63.468 39.9934 63.3545 39.9241 63.2332 39.8712L62.8522 39.7136L62.1909 39.442Z" fill="#BBD1DC"/>
<path d="M66.8026 35.2063C67.0603 35.1636 67.321 35.1416 67.5822 35.1406C67.8506 35.1418 68.1186 35.1638 68.3837 35.2063V41.7101H71.1122C71.1348 41.8272 71.1494 41.9457 71.156 42.0648C71.156 42.1787 71.156 42.2882 71.156 42.3889C71.156 42.4896 71.156 42.621 71.156 42.7349C71.1494 42.854 71.1348 42.9725 71.1122 43.0897H66.8026V35.2063Z" fill="#BBD1DC"/>
<path d="M74.6246 35.207H79.0962C79.1402 35.4277 79.1622 35.6521 79.1619 35.8771C79.1627 36.1079 79.1407 36.3382 79.0962 36.5647H76.2057V38.2772H78.4875C78.5374 38.5076 78.5653 38.7422 78.5707 38.9779C78.5709 39.2101 78.5489 39.4418 78.505 39.6699H76.2057V41.7546H79.1576C79.2015 41.9752 79.2235 42.1997 79.2232 42.4247C79.2241 42.6555 79.202 42.8858 79.1576 43.1123H74.6246V35.207Z" fill="#BBD1DC"/>
<path d="M80.4451 35.2063C80.6586 35.1639 80.8756 35.1419 81.0933 35.1406C81.3211 35.1414 81.5484 35.1634 81.7721 35.2063L84.8378 40.2298V35.2063C85.0882 35.1639 85.3416 35.1419 85.5955 35.1406C85.8162 35.1399 86.0363 35.1619 86.2525 35.2063V43.0897C86.0434 43.1325 85.8308 43.156 85.6174 43.1597C85.3924 43.1561 85.1682 43.1327 84.9473 43.0897L81.8816 38.0794V43.0897C81.6463 43.1353 81.4073 43.1588 81.1677 43.1597C80.9324 43.1588 80.6978 43.1353 80.467 43.0897L80.4451 35.2063Z" fill="#BBD1DC"/>
<path d="M92.9796 41.6059C93.0751 41.8095 93.1542 42.0203 93.2161 42.2365C93.2778 42.4506 93.3247 42.6686 93.3562 42.8891C93.023 43.0146 92.6783 43.107 92.327 43.165C92.0017 43.2066 91.674 43.2271 91.346 43.2263C90.7869 43.2394 90.2309 43.1381 89.7124 42.9285C89.2619 42.7375 88.8595 42.4488 88.5343 42.0832C88.2093 41.7077 87.9648 41.2694 87.816 40.7956C87.6505 40.2701 87.5692 39.7217 87.5751 39.1708C87.5699 38.6178 87.6542 38.0676 87.8248 37.5416C87.98 37.0599 88.2286 36.6134 88.5562 36.2277C88.8802 35.8605 89.2809 35.569 89.7299 35.3736C90.231 35.1614 90.7712 35.057 91.3153 35.0671C91.6391 35.0652 91.9626 35.0871 92.2832 35.1328C92.6142 35.1862 92.9377 35.2788 93.2467 35.4087C93.2292 35.6264 93.1851 35.8411 93.1154 36.0481C93.0409 36.2583 92.9577 36.4861 92.8701 36.6788C92.6489 36.6002 92.4219 36.5387 92.1913 36.4948C91.9601 36.4532 91.7254 36.4341 91.4905 36.4379C91.1861 36.4202 90.8818 36.4726 90.6008 36.5911C90.3199 36.7095 90.0699 36.8909 89.87 37.1211C89.4566 37.7163 89.2588 38.4348 89.3095 39.1577C89.3095 40.9402 90.0628 41.8336 91.5781 41.8336C91.8173 41.837 92.0563 41.8179 92.292 41.7767C92.5253 41.7378 92.7552 41.6807 92.9796 41.6059Z" fill="#BBD1DC"/>
<path d="M94.6263 35.2066L95.5329 35.1146C95.8132 35.0884 96.1242 35.0752 96.4702 35.0752C96.8684 35.0741 97.2658 35.1108 97.657 35.1847C98.0307 35.2506 98.3896 35.3826 98.7169 35.5745C99.0334 35.7631 99.2959 36.0301 99.479 36.3497C99.686 36.718 99.7875 37.1362 99.7724 37.5585C99.7763 37.8213 99.7379 38.0831 99.6585 38.3337C99.5933 38.5408 99.5005 38.7382 99.3826 38.9205C99.2765 39.0796 99.1531 39.2265 99.0147 39.3585C98.8982 39.4642 98.7737 39.5608 98.6425 39.6476L98.4541 39.7702L100.372 43.1031L99.9126 43.1469C99.7505 43.1469 99.5885 43.1469 99.4177 43.1469C99.1433 43.1471 98.8694 43.1252 98.5987 43.0812L96.5359 39.4154L96.7986 39.284C96.8994 39.2315 97.0264 39.1658 97.1709 39.0826C97.3282 39.001 97.4752 38.9011 97.6089 38.7848C97.7492 38.6604 97.8663 38.5121 97.9549 38.3468C98.0552 38.1599 98.1051 37.9501 98.0994 37.738C98.1154 37.5505 98.0882 37.3618 98.0199 37.1864C97.9516 37.011 97.8439 36.8536 97.7052 36.7263C97.4138 36.5016 97.0525 36.3868 96.6848 36.4023C96.5382 36.4005 96.3917 36.4107 96.2468 36.4329V43.0899C96.1154 43.1075 95.984 43.1206 95.8526 43.1294C95.7169 43.1294 95.5899 43.1294 95.4672 43.1294H95.0731C94.9263 43.1236 94.7801 43.1089 94.6351 43.0856L94.6263 35.2066Z" fill="#BBD1DC"/>
<path d="M102.829 40.2911L100.372 35.2239C100.679 35.1801 100.987 35.1581 101.297 35.1582C101.575 35.1585 101.853 35.1804 102.129 35.2239L103.683 38.7977L105.221 35.2239C105.496 35.1798 105.774 35.1578 106.053 35.1582C106.336 35.1595 106.618 35.1814 106.898 35.2239L104.441 40.2911V43.1204C104.297 43.1204 104.156 43.1554 104.025 43.1642C103.894 43.1729 103.762 43.1642 103.631 43.1642H103.241C103.105 43.1642 102.97 43.1642 102.829 43.1204V40.2911Z" fill="#BBD1DC"/>
<path d="M107.778 35.1715C108.111 35.1453 108.453 35.119 108.794 35.1015C109.136 35.084 109.486 35.0752 109.837 35.0752C110.21 35.0749 110.583 35.1116 110.949 35.1847C111.313 35.253 111.66 35.393 111.97 35.5964C112.284 35.8076 112.538 36.0955 112.71 36.4329C112.919 36.8664 113.018 37.3447 112.999 37.8256C113.019 38.3052 112.92 38.7823 112.71 39.214C112.538 39.5493 112.287 39.8378 111.978 40.0548C111.677 40.2675 111.336 40.4165 110.976 40.4928C110.615 40.5654 110.248 40.6021 109.881 40.6023H109.613H109.377V43.1337C109.244 43.1565 109.109 43.1711 108.974 43.1775H108.589H108.203C108.056 43.1719 107.91 43.1573 107.765 43.1337L107.778 35.1715ZM109.377 39.2315C109.46 39.2376 109.544 39.2376 109.627 39.2315H109.903C110.084 39.2325 110.266 39.2089 110.441 39.1614C110.611 39.1167 110.769 39.0361 110.905 38.9249C111.048 38.8075 111.159 38.6572 111.23 38.4869C111.318 38.278 111.36 38.0523 111.352 37.8256C111.359 37.5904 111.318 37.3562 111.23 37.138C111.158 36.9684 111.047 36.8182 110.905 36.7C110.771 36.586 110.612 36.5037 110.441 36.4592C110.266 36.4116 110.084 36.3881 109.903 36.3891H109.679L109.377 36.4154V39.2315Z" fill="#BBD1DC"/>
<path d="M115.706 36.5647H113.743C113.699 36.3382 113.677 36.1079 113.678 35.8771C113.677 35.6521 113.699 35.4277 113.743 35.207H119.279C119.323 35.4277 119.345 35.6521 119.345 35.8771C119.346 36.1079 119.324 36.3382 119.279 36.5647H117.317V43.0904C117.186 43.1079 117.054 43.121 116.923 43.1298C116.795 43.1362 116.666 43.1362 116.538 43.1298H116.139C115.992 43.124 115.846 43.1094 115.701 43.086L115.706 36.5647Z" fill="#BBD1DC"/>
<path d="M120.387 35.2063C120.652 35.1631 120.92 35.1411 121.189 35.1406C121.46 35.1413 121.731 35.1632 121.999 35.2063V43.0897C121.466 43.1831 120.921 43.1831 120.387 43.0897V35.2063Z" fill="#BBD1DC"/>
<path d="M126.751 43.2216C126.222 43.2357 125.697 43.1309 125.214 42.9151C124.795 42.723 124.429 42.4313 124.149 42.0654C123.86 41.6829 123.65 41.2467 123.532 40.7822C123.391 40.2552 123.321 39.7116 123.326 39.1661C123.322 38.6163 123.391 38.0684 123.532 37.5369C123.65 37.0627 123.86 36.6163 124.149 36.223C124.431 35.8571 124.796 35.5642 125.214 35.369C125.7 35.1673 126.22 35.0635 126.747 35.0635C127.273 35.0635 127.793 35.1673 128.279 35.369C128.698 35.563 129.063 35.8561 129.344 36.223C129.635 36.616 129.846 37.0624 129.966 37.5369C130.103 38.069 130.17 38.6166 130.167 39.1661C130.171 39.7113 130.103 40.2546 129.966 40.7822C129.846 41.247 129.634 41.6832 129.344 42.0654C129.066 42.4332 128.702 42.7266 128.284 42.9194C127.802 43.1343 127.278 43.2376 126.751 43.2216ZM126.751 41.9077C127.881 41.9077 128.45 41.0012 128.45 39.188C128.493 38.4835 128.351 37.78 128.039 37.1471C127.908 36.9276 127.72 36.7481 127.494 36.6284C127.269 36.5087 127.015 36.4533 126.76 36.4682C125.612 36.4682 125.038 37.3748 125.038 39.188C125.038 41.0012 125.609 41.9004 126.751 41.8859V41.9077Z" fill="#BBD1DC"/>
<path d="M131.499 35.2063C131.712 35.1639 131.929 35.1419 132.147 35.1406C132.375 35.1416 132.602 35.1636 132.826 35.2063L135.891 40.2298V35.2063C136.142 35.1637 136.395 35.1417 136.649 35.1406C136.87 35.1399 137.09 35.1619 137.306 35.2063V43.0897C137.097 43.1323 136.884 43.1558 136.671 43.1597C136.446 43.1563 136.222 43.1329 136.001 43.0897L132.935 38.0794V43.0897C132.7 43.1351 132.461 43.1586 132.221 43.1597C131.986 43.1588 131.751 43.1353 131.52 43.0897L131.499 35.2063Z" fill="#BBD1DC"/>
</svg>
