<svg width="12" height="12" viewBox="0 0 12 12" fill="none" xmlns="http://www.w3.org/2000/svg">
<g clip-path="url(#clip0_1476_16357)">
<path d="M8.4 3.6C9.54 3.6 10.56 4.02 11.4 4.68V1.8C11.4 1.5 11.1 1.2 10.8 1.2H10.2V0.6C10.2 0.24 9.96 0 9.6 0C9.24 0 9 0.24 9 0.6V1.2H3V0.6C3 0.24 2.76 0 2.4 0C2.04 0 1.8 0.24 1.8 0.6V1.2H0.6C0.3 1.2 0 1.44 0 1.8V10.2C0 10.56 0.3 10.8 0.6 10.8H4.26C3.84 10.08 3.6 9.24 3.6 8.4C3.6 5.76 5.76 3.6 8.4 3.6Z" fill="#325D9C"/>
<path d="M8.3998 4.79999C6.4198 4.79999 4.7998 6.41999 4.7998 8.39999C4.7998 10.38 6.4198 12 8.3998 12C10.3798 12 11.9998 10.38 11.9998 8.39999C11.9998 6.41999 10.3798 4.79999 8.3998 4.79999ZM9.5998 8.99999H8.3998C8.0398 8.99999 7.7998 8.75999 7.7998 8.39999V6.59999C7.7998 6.23999 8.0398 5.99999 8.3998 5.99999C8.7598 5.99999 8.9998 6.23999 8.9998 6.59999V7.79999H9.5998C9.95981 7.79999 10.1998 8.03999 10.1998 8.39999C10.1998 8.75999 9.95981 8.99999 9.5998 8.99999Z" fill="#325D9C"/>
</g>
<defs>
<clipPath id="clip0_1476_16357">
<rect width="12" height="12" fill="white"/>
</clipPath>
</defs>
</svg>
