<svg width="12" height="12" viewBox="0 0 12 12" fill="none" xmlns="http://www.w3.org/2000/svg">
<g clip-path="url(#clip0_1403_24633)">
<path d="M6.6 0H0.6C0.24 0 0 0.24 0 0.6V11.4C0 11.76 0.24 12 0.6 12H8.4C8.76 12 9 11.76 9 11.4V2.4L6.6 0ZM1.8 1.8H6C6.36 1.8 6.6 2.04 6.6 2.4C6.6 2.76 6.36 3 6 3H1.8C1.44 3 1.2 2.76 1.2 2.4C1.2 2.04 1.44 1.8 1.8 1.8ZM7.2 10.2H1.8C1.44 10.2 1.2 9.96 1.2 9.6C1.2 9.24 1.44 9 1.8 9H7.2C7.56 9 7.8 9.24 7.8 9.6C7.8 9.96 7.5 10.2 7.2 10.2ZM7.2 7.8H1.8C1.44 7.8 1.2 7.56 1.2 7.2C1.2 6.84 1.44 6.6 1.8 6.6H7.2C7.56 6.6 7.8 6.84 7.8 7.2C7.8 7.56 7.5 7.8 7.2 7.8ZM7.2 5.4H1.8C1.44 5.4 1.2 5.16 1.2 4.8C1.2 4.44 1.44 4.2 1.8 4.2H7.2C7.56 4.2 7.8 4.44 7.8 4.8C7.8 5.16 7.5 5.4 7.2 5.4Z" fill="#325D9C"/>
<path d="M10.2002 9.59998L11.1002 12L12.0002 9.59998H10.2002Z" fill="#325D9C"/>
<path d="M11.7002 0H10.5002C10.3202 0 10.2002 0.12 10.2002 0.3V8.4H12.0002V0.3C12.0002 0.12 11.8802 0 11.7002 0Z" fill="#325D9C"/>
</g>
<defs>
<clipPath id="clip0_1403_24633">
<rect width="12" height="12" fill="white"/>
</clipPath>
</defs>
</svg>
