<svg width="24" height="24" viewBox="0 0 24 24" fill="none" xmlns="http://www.w3.org/2000/svg">
<g clip-path="url(#clip0_1489_17968)">
<path d="M0 23.9961H5.88122L8.05944 15.553H11.7624V13.7755H8.5435L9.14853 11.5537L5.61389 9.99835L5.00992 11.5043L0 23.9961Z" fill="#002E5D"/>
<path d="M8.71265 10.2203C9.91567 10.2203 10.8909 9.22556 10.8909 7.99847C10.8909 6.77138 9.91567 5.77661 8.71265 5.77661C7.50967 5.77661 6.53442 6.77138 6.53442 7.99847C6.53442 9.22556 7.50967 10.2203 8.71265 10.2203Z" fill="#002E5D"/>
<path d="M23.5253 23.9961H17.6443L15.4659 15.553H11.7629V13.7755H14.982L14.377 11.5537L17.9116 9.99835L18.5156 11.5043L23.5253 23.9961Z" fill="#325D9C"/>
<path d="M14.8127 10.2203C13.6097 10.2203 12.6345 9.22556 12.6345 7.99847C12.6345 6.77138 13.6097 5.77661 14.8127 5.77661C16.0157 5.77661 16.991 6.77138 16.991 7.99847C16.991 9.22556 16.0157 10.2203 14.8127 10.2203Z" fill="#325D9C"/>
<path d="M15.6817 0.888489H7.84009V4.44349H15.6817V0.888489Z" fill="#002E5D"/>
<path d="M18.2969 0H5.22754V0.888745H18.2969V0Z" fill="#002E5D"/>
<path d="M5.66164 0.888489H5.87948V2.22161L6.09731 2.66598H5.44385L5.66164 2.22161V0.888489Z" fill="#002E5D"/>
</g>
<defs>
<clipPath id="clip0_1489_17968">
<rect width="24" height="24" fill="white"/>
</clipPath>
</defs>
</svg>
