<svg width="32" height="32" viewBox="0 0 32 32" fill="none" xmlns="http://www.w3.org/2000/svg">
<g id="002-copywriting" clip-path="url(#clip0_530_1590)">
<path id="Vector" d="M18.8076 20.3392V21.7588C18.8076 26.0707 21.1871 29.9793 25.0174 31.9594L25.0879 31.9959L25.1586 31.9594C28.9888 29.9793 31.3682 26.0707 31.3682 21.7589V20.3392C29.992 19.698 28.877 18.6119 28.1998 17.252H21.976C21.2988 18.6119 20.1838 19.6981 18.8076 20.3392ZM25.4428 20.2273C26.2813 20.2273 27.084 20.4861 27.7642 20.9757L26.6693 22.4968C26.31 22.2381 25.8859 22.1014 25.4428 22.1014C24.2831 22.1014 23.3396 23.045 23.3396 24.2047C23.3396 25.3644 24.2831 26.308 25.4428 26.308C25.8859 26.308 26.31 26.1713 26.6693 25.9126L27.7642 27.4336C27.084 27.9233 26.2813 28.1821 25.4428 28.1821C23.2497 28.1821 21.4654 26.3979 21.4654 24.2047C21.4654 22.0115 23.2497 20.2273 25.4428 20.2273Z" fill="#F70431"/>
<path id="Vector_2" d="M7.32069 0.0217285L0.65332 6.68903H7.32069V0.0217285Z" fill="#F70431"/>
<path id="Vector_3" d="M18.8813 28.7044C17.607 26.6111 16.9335 24.2094 16.9335 21.7588V19.0438L17.5621 18.8246C18.9122 18.354 19.9792 17.3174 20.4895 15.9807L20.7197 15.3778H24.0268V0H9.19512V8.56328H0.631836V32H21.7183C20.6044 31.0676 19.6438 29.9568 18.8813 28.7044ZM6.53448 11.8807H17.7285V13.7549H6.53448V11.8807ZM6.53448 19.5023H14.8547V21.3765H6.53448V19.5023ZM15.646 25.1873H6.53448V23.3131H15.646V25.1873ZM16.6248 17.5657H6.53448V15.6915H16.6248V17.5657Z" fill="#F70431"/>
</g>
<defs>
<clipPath id="clip0_530_1590">
<rect width="32" height="32" fill="white"/>
</clipPath>
</defs>
</svg>
