<svg width="32" height="32" viewBox="0 0 32 32" fill="none" xmlns="http://www.w3.org/2000/svg">
<g id="003-price-list" clip-path="url(#clip0_530_1594)">
<g id="Price_List_2_">
<path id="Vector" d="M23.5625 15.125C18.9098 15.125 15.125 18.9098 15.125 23.5625C15.125 28.2152 18.9098 32 23.5625 32C28.2152 32 32 28.2152 32 23.5625C32 18.9098 28.2152 15.125 23.5625 15.125Z" fill="#F70431"/>
<g id="Group">
<path id="Vector_2" d="M18.875 0.549316V5.625H23.9507L18.875 0.549316Z" fill="#F70431"/>
<path id="Vector_3" d="M17 7.5V0H0V32H17.6519C14.9944 30.1327 13.25 27.0499 13.25 23.5625C13.25 17.8762 17.8762 13.25 23.5625 13.25C23.8789 13.25 24.1908 13.2694 24.5 13.2975V7.5H17ZM6.6875 26.7632L3.48681 23.5625L4.8125 22.2368L6.6875 24.1118L10.4375 20.3618L11.7632 21.6875L6.6875 26.7632ZM6.6875 19.2632L3.48681 16.0625L4.8125 14.7368L6.6875 16.6118L10.4375 12.8618L11.7632 14.1875L6.6875 19.2632ZM6.6875 11.7632L3.48681 8.5625L4.8125 7.23681L6.6875 9.11181L10.4375 5.36181L11.7632 6.6875L6.6875 11.7632Z" fill="#F70431"/>
</g>
</g>
<path id="&#226;&#130;&#172;" d="M24.2207 20.2935C23.647 20.2935 23.177 20.4644 22.8108 20.8062C22.4486 21.1479 22.2065 21.6647 22.0845 22.3564H24.8677V23.2964H21.9929L21.9807 23.571V23.9067L21.9929 24.1448H24.4832V25.0786H22.0967C22.3571 26.3481 23.0977 26.9829 24.3184 26.9829C24.9002 26.9829 25.4963 26.8568 26.1067 26.6045V27.8435C25.5736 28.0917 24.9531 28.2158 24.2451 28.2158C23.2645 28.2158 22.467 27.9473 21.8525 27.4102C21.2422 26.873 20.8434 26.0959 20.6562 25.0786H19.7285V24.1448H20.5586L20.5464 23.9189V23.6931L20.5586 23.2964H19.7285V22.3564H20.644C20.7987 21.3351 21.1873 20.5335 21.8098 19.9517C22.4324 19.3698 23.236 19.0789 24.2207 19.0789C25.0345 19.0789 25.7629 19.2579 26.4058 19.616L25.8931 20.7573C25.2664 20.4481 24.709 20.2935 24.2207 20.2935Z" fill="white"/>
</g>
<defs>
<clipPath id="clip0_530_1594">
<rect width="32" height="32" fill="white"/>
</clipPath>
</defs>
</svg>
