<svg width="32" height="32" viewBox="0 0 32 32" fill="none" xmlns="http://www.w3.org/2000/svg">
<g id="004-competitive" clip-path="url(#clip0_530_1600)">
<path id="Vector" fill-rule="evenodd" clip-rule="evenodd" d="M19.6185 19.561H12.3814V32H19.6185V19.561ZM23.07 32H30.3071V13.0054H23.07V32ZM8.92985 14.2611H1.69273V32H8.92985V14.2611ZM8.30969 3.07776C7.54233 2.3104 6.48249 1.83552 5.31129 1.83552C4.14009 1.83552 3.08025 2.3104 2.31289 3.07776C1.54553 3.84512 1.07129 4.90496 1.07129 6.07616C1.07129 7.24736 1.54617 8.3072 2.31353 9.07456C3.08089 9.84192 4.14073 10.3168 5.31193 10.3168C6.48313 10.3168 7.54297 9.84192 8.31033 9.07456C9.07769 8.3072 9.55257 7.24736 9.55257 6.07616C9.55193 4.90496 9.07705 3.84512 8.30969 3.07776ZM18.9983 8.27968C18.231 7.51232 17.1711 7.03744 15.9999 7.03744C14.8287 7.03744 13.7689 7.51232 13.0015 8.27968C12.2342 9.04704 11.7593 10.1069 11.7593 11.2781C11.7593 12.4493 12.2342 13.5091 13.0015 14.2765C13.7689 15.0438 14.8287 15.5187 15.9999 15.5187C17.1711 15.5187 18.231 15.0438 18.9983 14.2765C19.7657 13.5091 20.2406 12.4493 20.2406 11.2781C20.2406 10.1069 19.7657 9.04704 18.9983 8.27968ZM29.687 1.24224C28.9196 0.47488 27.8591 0 26.6886 0C25.5174 0 24.4575 0.47488 23.6902 1.24224C22.9228 2.0096 22.4479 3.06944 22.4479 4.24064C22.4479 5.41184 22.9228 6.47168 23.6902 7.23904C24.4575 8.0064 25.5174 8.48128 26.6886 8.48128C27.8598 8.48128 28.9196 8.0064 29.687 7.23904C30.4543 6.47168 30.9292 5.41184 30.9292 4.24064C30.9292 3.06944 30.4543 2.0096 29.687 1.24224Z" fill="#F70431"/>
<path id="&#226;&#130;&#172;" d="M16.5075 9.69629C16.2551 9.69629 16.0483 9.77227 15.8872 9.92424C15.7279 10.0762 15.6214 10.306 15.5677 10.6135H16.7921V11.0315H15.5274L15.5221 11.1536V11.3028L15.5274 11.4087H16.6229V11.8239H15.5731C15.6876 12.3883 16.0134 12.6706 16.5504 12.6706C16.8064 12.6706 17.0687 12.6145 17.3372 12.5023V13.0532C17.1027 13.1636 16.8297 13.2188 16.5182 13.2188C16.0868 13.2188 15.736 13.0993 15.4657 12.8605C15.1972 12.6217 15.0217 12.2762 14.9394 11.8239H14.5312V11.4087H14.8964L14.8911 11.3083V11.2079L14.8964 11.0315H14.5312V10.6135H14.934C15.002 10.1594 15.173 9.80303 15.4469 9.54432C15.7207 9.28561 16.0743 9.15625 16.5075 9.15625C16.8655 9.15625 17.1859 9.23585 17.4688 9.39506L17.2432 9.90253C16.9675 9.76504 16.7223 9.69629 16.5075 9.69629Z" fill="white"/>
<path id="&#226;&#130;&#172;_2" d="M26.945 2.69629C26.6926 2.69629 26.4858 2.77227 26.3247 2.92424C26.1654 3.07621 26.0589 3.30598 26.0052 3.61354H27.2296V4.03146H25.9649L25.9596 4.15358V4.30283L25.9649 4.40867H27.0604V4.82388H26.0106C26.1251 5.38834 26.4509 5.67057 26.9879 5.67057C27.2439 5.67057 27.5062 5.61449 27.7747 5.50232V6.05321C27.5402 6.16357 27.2672 6.21875 26.9557 6.21875C26.5243 6.21875 26.1735 6.09934 25.9032 5.86053C25.6347 5.62172 25.4592 5.27617 25.3769 4.82388H24.9688V4.40867H25.3339L25.3286 4.30826V4.20785L25.3339 4.03146H24.9688V3.61354H25.3715C25.4395 3.15944 25.6105 2.80303 25.8844 2.54432C26.1582 2.28561 26.5118 2.15625 26.945 2.15625C27.303 2.15625 27.6234 2.23585 27.9062 2.39506L27.6807 2.90253C27.405 2.76504 27.1598 2.69629 26.945 2.69629Z" fill="white"/>
<path id="&#226;&#130;&#172;_3" d="M5.63248 4.69629C5.38008 4.69629 5.17333 4.77227 5.01223 4.92424C4.85291 5.07621 4.7464 5.30598 4.6927 5.61354H5.9171V6.03146H4.65242L4.64705 6.15358V6.30283L4.65242 6.40867H5.74794V6.82388H4.69807C4.81263 7.38834 5.13843 7.67057 5.67545 7.67057C5.93143 7.67057 6.19367 7.61449 6.46218 7.50232V8.05321C6.22768 8.16357 5.9547 8.21875 5.64322 8.21875C5.21182 8.21875 4.86097 8.09934 4.59066 7.86053C4.32215 7.62172 4.14673 7.27617 4.06439 6.82388H3.65625V6.40867H4.02142L4.01605 6.30826V6.20785L4.02142 6.03146H3.65625V5.61354H4.05902C4.12704 5.15944 4.29799 4.80303 4.57187 4.54432C4.84575 4.28561 5.19929 4.15625 5.63248 4.15625C5.9905 4.15625 6.31092 4.23585 6.59375 4.39506L6.3682 4.90253C6.09253 4.76504 5.84729 4.69629 5.63248 4.69629Z" fill="white"/>
</g>
<defs>
<clipPath id="clip0_530_1600">
<rect width="32" height="32" fill="white"/>
</clipPath>
</defs>
</svg>
