<svg width="28" height="28" viewBox="0 0 28 28" fill="none" xmlns="http://www.w3.org/2000/svg">
<g id="007-loading" clip-path="url(#clip0_362_3324)">
<g id="XMLID_1235_">
<path id="XMLID_1239_" d="M23.7458 4.10062C21.1015 1.45628 17.5859 0 13.8464 0H13.0164V1.63274C10.0179 1.82968 7.22608 3.09085 5.08164 5.23523C2.74043 7.57638 1.45116 10.6891 1.45116 14C1.45116 14.9217 1.5522 15.835 1.75213 16.7257L0.153809 17.0631L0.404149 17.9225C1.23413 20.772 2.99841 23.3368 5.37194 25.1444C7.82492 27.0126 10.7554 28 13.8464 28C17.5859 28 21.1015 26.5437 23.7458 23.8994C26.3901 21.2551 27.8464 17.7394 27.8464 14C27.8464 10.2606 26.3901 6.7449 23.7458 4.10062ZM3.11124 14C3.11124 8.35988 7.48334 3.72173 13.0164 3.29664V5.20158H13.8464C18.6979 5.20158 22.6448 9.14853 22.6448 14C22.6448 18.8515 18.6979 22.7984 13.8464 22.7984C10.0114 22.7984 6.64538 20.3483 5.47065 16.7016L5.24123 15.9894L3.37669 16.3829C3.2005 15.6048 3.11124 14.8063 3.11124 14ZM13.8464 26.3399C8.69497 26.3399 4.06175 23.0802 2.28087 18.3108L4.14613 17.9171C4.86639 19.7062 6.05998 21.2492 7.63003 22.4113C9.43935 23.7506 11.5889 24.4585 13.8464 24.4585C19.6133 24.4585 24.3049 19.7668 24.3049 14C24.3049 8.51261 20.0566 3.99874 14.6765 3.57409V1.68769C21.0949 2.11627 26.1863 7.47484 26.1863 14C26.1863 20.8042 20.6507 26.3399 13.8464 26.3399Z" fill="white"/>
<path id="XMLID_1241_" d="M10.0659 16.4929L16.447 10.1118L17.6207 11.2855L11.2396 17.6666L10.0659 16.4929Z" fill="white"/>
<path id="XMLID_1242_" d="M10.79 10.7961H12.4501V12.53H10.79V10.7961Z" fill="white"/>
<path id="XMLID_1243_" d="M15.2427 15.2488H16.9028V16.9826H15.2427V15.2488Z" fill="white"/>
</g>
</g>
<defs>
<clipPath id="clip0_362_3324">
<rect width="28" height="28" fill="white"/>
</clipPath>
</defs>
</svg>
