<svg width="755" height="358" viewBox="0 0 755 358" fill="none" xmlns="http://www.w3.org/2000/svg">
<rect y="286" width="40" height="40" rx="2" fill="#F70431"/>
<rect x="120" y="286" width="40" height="40" rx="2" fill="#F70431"/>
<rect x="239" y="286" width="40" height="40" rx="2" fill="#F70431"/>
<path d="M378 286H396C397.105 286 398 286.895 398 288V324C398 325.105 397.105 326 396 326H378V286Z" fill="#325D9C"/>
<path d="M358 288C358 286.895 358.895 286 360 286H378V326H360C358.895 326 358 325.105 358 324V288Z" fill="#F70431"/>
<rect x="477" y="286" width="40" height="40" rx="2" fill="#325D9C"/>
<rect x="596" y="286" width="40" height="40" rx="2" fill="#325D9C"/>
<rect x="715" y="286" width="40" height="40" rx="2" fill="#325D9C"/>
<path d="M10.4922 352H8.97656L2.73438 342.414H2.67188C2.75521 343.539 2.79688 344.57 2.79688 345.508V352H1.57031V340.578H3.07031L9.29688 350.125H9.35938C9.34896 349.984 9.32552 349.534 9.28906 348.773C9.2526 348.008 9.23958 347.461 9.25 347.133V340.578H10.4922V352ZM20.8281 347.711C20.8281 349.107 20.4766 350.198 19.7734 350.984C19.0703 351.766 18.099 352.156 16.8594 352.156C16.0938 352.156 15.4141 351.977 14.8203 351.617C14.2266 351.258 13.7682 350.742 13.4453 350.07C13.1224 349.398 12.9609 348.612 12.9609 347.711C12.9609 346.315 13.3099 345.229 14.0078 344.453C14.7057 343.672 15.6745 343.281 16.9141 343.281C18.112 343.281 19.0625 343.68 19.7656 344.477C20.474 345.273 20.8281 346.352 20.8281 347.711ZM14.3047 347.711C14.3047 348.805 14.5234 349.638 14.9609 350.211C15.3984 350.784 16.0417 351.07 16.8906 351.07C17.7396 351.07 18.3828 350.786 18.8203 350.219C19.263 349.646 19.4844 348.81 19.4844 347.711C19.4844 346.622 19.263 345.797 18.8203 345.234C18.3828 344.667 17.7344 344.383 16.875 344.383C16.026 344.383 15.3854 344.661 14.9531 345.219C14.5208 345.776 14.3047 346.607 14.3047 347.711ZM25.875 351.086C26.1042 351.086 26.3255 351.07 26.5391 351.039C26.7526 351.003 26.9219 350.966 27.0469 350.93V351.922C26.9062 351.99 26.6979 352.044 26.4219 352.086C26.151 352.133 25.9062 352.156 25.6875 352.156C24.0312 352.156 23.2031 351.284 23.2031 349.539V344.445H21.9766V343.82L23.2031 343.281L23.75 341.453H24.5V343.438H26.9844V344.445H24.5V349.484C24.5 350 24.6224 350.396 24.8672 350.672C25.112 350.948 25.4479 351.086 25.875 351.086ZM32.3828 352.156C31.1172 352.156 30.1172 351.771 29.3828 351C28.6536 350.229 28.2891 349.159 28.2891 347.789C28.2891 346.409 28.6276 345.312 29.3047 344.5C29.987 343.688 30.901 343.281 32.0469 343.281C33.1198 343.281 33.9688 343.635 34.5938 344.344C35.2188 345.047 35.5312 345.977 35.5312 347.133V347.953H29.6328C29.6589 348.958 29.9115 349.721 30.3906 350.242C30.875 350.763 31.5547 351.023 32.4297 351.023C33.3516 351.023 34.263 350.831 35.1641 350.445V351.602C34.7057 351.799 34.2708 351.94 33.8594 352.023C33.4531 352.112 32.9609 352.156 32.3828 352.156ZM32.0312 344.367C31.3438 344.367 30.7943 344.591 30.3828 345.039C29.9766 345.487 29.737 346.107 29.6641 346.898H34.1406C34.1406 346.081 33.9583 345.456 33.5938 345.023C33.2292 344.586 32.7083 344.367 32.0312 344.367Z" fill="#445664"/>
<line x1="2" y1="335.5" x2="754" y2="335.5" stroke="#E5E5E5"/>
<line x1="377" y1="85" x2="377" y2="211" stroke="#325D9C" stroke-width="2"/>
<path d="M15.2773 80.0469H7.71875V75.7695H15.2773V68.1523H19.5547V75.7695H27.1133V80.0469H19.5547V87.5664H15.2773V80.0469ZM60.8047 92H40.8438V87.8008L48.0117 80.5547C50.1341 78.3802 51.5208 76.8763 52.1719 76.043C52.8229 75.1966 53.2917 74.4154 53.5781 73.6992C53.8646 72.9831 54.0078 72.2409 54.0078 71.4727C54.0078 70.3268 53.6888 69.474 53.0508 68.9141C52.4258 68.3542 51.5859 68.0742 50.5312 68.0742C49.4245 68.0742 48.3503 68.3281 47.3086 68.8359C46.2669 69.3438 45.1797 70.0664 44.0469 71.0039L40.7656 67.1172C42.1719 65.9193 43.3372 65.0729 44.2617 64.5781C45.1862 64.0833 46.1953 63.7057 47.2891 63.4453C48.3828 63.1719 49.6068 63.0352 50.9609 63.0352C52.7448 63.0352 54.3203 63.3607 55.6875 64.0117C57.0547 64.6628 58.1159 65.5742 58.8711 66.7461C59.6263 67.918 60.0039 69.2591 60.0039 70.7695C60.0039 72.0846 59.7695 73.3216 59.3008 74.4805C58.8451 75.6263 58.1289 76.8047 57.1523 78.0156C56.1888 79.2266 54.4831 80.9518 52.0352 83.1914L48.3633 86.6484V86.9219H60.8047V92ZM74.0859 73.7578C76.8464 73.7578 79.0404 74.5326 80.668 76.082C82.3086 77.6315 83.1289 79.7539 83.1289 82.4492C83.1289 85.6393 82.1458 88.0938 80.1797 89.8125C78.2135 91.5312 75.401 92.3906 71.7422 92.3906C68.5651 92.3906 66 91.8763 64.0469 90.8477V85.6328C65.0755 86.1797 66.2734 86.6289 67.6406 86.9805C69.0078 87.319 70.3034 87.4883 71.5273 87.4883C75.2122 87.4883 77.0547 85.9779 77.0547 82.957C77.0547 80.0794 75.1471 78.6406 71.332 78.6406C70.6419 78.6406 69.8802 78.7122 69.0469 78.8555C68.2135 78.9857 67.5365 79.1289 67.0156 79.2852L64.6133 77.9961L65.6875 63.4453H81.1758V68.5625H70.9805L70.4531 74.168L71.1367 74.0312C71.931 73.849 72.9141 73.7578 74.0859 73.7578ZM106.352 77.7227C106.352 82.7096 105.531 86.401 103.891 88.7969C102.263 91.1927 99.75 92.3906 96.3516 92.3906C93.0573 92.3906 90.5703 91.1536 88.8906 88.6797C87.224 86.2057 86.3906 82.5534 86.3906 77.7227C86.3906 72.6836 87.2044 68.9727 88.832 66.5898C90.4596 64.194 92.9661 62.9961 96.3516 62.9961C99.6458 62.9961 102.133 64.2461 103.812 66.7461C105.505 69.2461 106.352 72.9049 106.352 77.7227ZM92.3867 77.7227C92.3867 81.2253 92.6862 83.7383 93.2852 85.2617C93.8971 86.7721 94.9193 87.5273 96.3516 87.5273C97.7578 87.5273 98.7734 86.7591 99.3984 85.2227C100.023 83.6862 100.336 81.1862 100.336 77.7227C100.336 74.2201 100.017 71.707 99.3789 70.1836C98.7539 68.6471 97.7448 67.8789 96.3516 67.8789C94.9323 67.8789 93.9167 68.6471 93.3047 70.1836C92.6927 71.707 92.3867 74.2201 92.3867 77.7227ZM113.949 72C113.949 73.6536 114.092 74.8906 114.379 75.7109C114.678 76.5182 115.154 76.9219 115.805 76.9219C117.055 76.9219 117.68 75.2812 117.68 72C117.68 68.7448 117.055 67.1172 115.805 67.1172C115.154 67.1172 114.678 67.5208 114.379 68.3281C114.092 69.1224 113.949 70.3464 113.949 72ZM122.602 71.9609C122.602 74.9557 122.022 77.2083 120.863 78.7188C119.704 80.2161 118.005 80.9648 115.766 80.9648C113.617 80.9648 111.957 80.1966 110.785 78.6602C109.613 77.1107 109.027 74.8776 109.027 71.9609C109.027 66.0104 111.273 63.0352 115.766 63.0352C117.966 63.0352 119.652 63.8099 120.824 65.3594C122.009 66.8958 122.602 69.0964 122.602 71.9609ZM136.039 63.4453L120.199 92H115.512L131.352 63.4453H136.039ZM133.949 83.4062C133.949 85.0599 134.092 86.2969 134.379 87.1172C134.678 87.9245 135.154 88.3281 135.805 88.3281C137.055 88.3281 137.68 86.6875 137.68 83.4062C137.68 80.151 137.055 78.5234 135.805 78.5234C135.154 78.5234 134.678 78.9271 134.379 79.7344C134.092 80.5286 133.949 81.7526 133.949 83.4062ZM142.602 83.3672C142.602 86.349 142.022 88.5951 140.863 90.1055C139.704 91.6029 138.005 92.3516 135.766 92.3516C133.617 92.3516 131.957 91.5833 130.785 90.0469C129.613 88.4974 129.027 86.2708 129.027 83.3672C129.027 77.4167 131.273 74.4414 135.766 74.4414C137.966 74.4414 139.652 75.2161 140.824 76.7656C142.009 78.3021 142.602 80.5026 142.602 83.3672Z" fill="#325D9C"/>
<path d="M169.338 92H166.359V85.623C166.359 84.8353 166.226 84.2461 165.959 83.8555C165.699 83.4583 165.285 83.2598 164.719 83.2598C163.957 83.2598 163.404 83.5397 163.059 84.0996C162.714 84.6595 162.541 85.5807 162.541 86.8633V92H159.562V81.082H161.838L162.238 82.4785H162.404C162.697 81.9772 163.12 81.5866 163.674 81.3066C164.227 81.0202 164.862 80.877 165.578 80.877C167.212 80.877 168.319 81.4108 168.898 82.4785H169.162C169.455 81.9707 169.885 81.5768 170.451 81.2969C171.024 81.0169 171.669 80.877 172.385 80.877C173.622 80.877 174.556 81.196 175.188 81.834C175.826 82.4655 176.145 83.4811 176.145 84.8809V92H173.156V85.623C173.156 84.8353 173.023 84.2461 172.756 83.8555C172.495 83.4583 172.082 83.2598 171.516 83.2598C170.786 83.2598 170.24 83.5202 169.875 84.041C169.517 84.5618 169.338 85.3887 169.338 86.5215V92ZM179.084 78.2598C179.084 77.2897 179.624 76.8047 180.705 76.8047C181.786 76.8047 182.326 77.2897 182.326 78.2598C182.326 78.722 182.189 79.0833 181.916 79.3438C181.649 79.5977 181.245 79.7246 180.705 79.7246C179.624 79.7246 179.084 79.2363 179.084 78.2598ZM182.189 92H179.211V81.082H182.189V92ZM189.924 89.8223C190.445 89.8223 191.07 89.7083 191.799 89.4805V91.6973C191.057 92.0293 190.145 92.1953 189.064 92.1953C187.873 92.1953 187.004 91.8958 186.457 91.2969C185.917 90.6914 185.646 89.7865 185.646 88.582V83.3184H184.221V82.0586L185.861 81.0625L186.721 78.7578H188.625V81.082H191.682V83.3184H188.625V88.582C188.625 89.0052 188.742 89.3177 188.977 89.5195C189.217 89.7214 189.533 89.8223 189.924 89.8223Z" fill="#325D9C"/>
<path d="M19 210.5L140 194L259 180L377.5 124.5L497 93.5L616 55.5L737.5 9.5" stroke="#325D9C" stroke-width="2"/>
<path d="M10.5039 260.055C12.1602 260.055 13.4766 260.52 14.4531 261.449C15.4375 262.379 15.9297 263.652 15.9297 265.27C15.9297 267.184 15.3398 268.656 14.1602 269.688C12.9805 270.719 11.293 271.234 9.09766 271.234C7.19141 271.234 5.65234 270.926 4.48047 270.309V267.18C5.09766 267.508 5.81641 267.777 6.63672 267.988C7.45703 268.191 8.23438 268.293 8.96875 268.293C11.1797 268.293 12.2852 267.387 12.2852 265.574C12.2852 263.848 11.1406 262.984 8.85156 262.984C8.4375 262.984 7.98047 263.027 7.48047 263.113C6.98047 263.191 6.57422 263.277 6.26172 263.371L4.82031 262.598L5.46484 253.867H14.7578V256.938H8.64062L8.32422 260.301L8.73438 260.219C9.21094 260.109 9.80078 260.055 10.5039 260.055ZM22.3984 268.48C21.9922 270.059 21.3047 271.93 20.3359 274.094H17.7578C18.2656 272.016 18.6602 270.055 18.9414 268.211H22.2227L22.3984 268.48ZM36.8242 262.434C36.8242 265.426 36.332 267.641 35.3477 269.078C34.3711 270.516 32.8633 271.234 30.8242 271.234C28.8477 271.234 27.3555 270.492 26.3477 269.008C25.3477 267.523 24.8477 265.332 24.8477 262.434C24.8477 259.41 25.3359 257.184 26.3125 255.754C27.2891 254.316 28.793 253.598 30.8242 253.598C32.8008 253.598 34.293 254.348 35.3008 255.848C36.3164 257.348 36.8242 259.543 36.8242 262.434ZM28.4453 262.434C28.4453 264.535 28.625 266.043 28.9844 266.957C29.3516 267.863 29.9648 268.316 30.8242 268.316C31.668 268.316 32.2773 267.855 32.6523 266.934C33.0273 266.012 33.2148 264.512 33.2148 262.434C33.2148 260.332 33.0234 258.824 32.6406 257.91C32.2656 256.988 31.6602 256.527 30.8242 256.527C29.9727 256.527 29.3633 256.988 28.9961 257.91C28.6289 258.824 28.4453 260.332 28.4453 262.434Z" fill="#002E5D"/>
<g clip-path="url(#clip0_360_3043)">
<path d="M20 294C13.3832 294 8 299.383 8 306C8 312.617 13.3832 318 20 318C26.6168 318 32 312.617 32 306C32 299.383 26.6168 294 20 294ZM20 316.703C17.0602 316.703 14.3937 315.511 12.4575 313.586C11.6843 312.817 11.0279 311.931 10.5169 310.957C9.73856 309.474 9.29731 307.788 9.29731 306C9.29731 300.099 14.0985 295.297 20 295.297C22.7992 295.297 25.3504 296.378 27.2595 298.143C28.2494 299.059 29.0668 300.158 29.6562 301.386C30.3267 302.784 30.7027 304.349 30.7027 306C30.7027 311.901 25.9015 316.703 20 316.703Z" fill="white"/>
<path d="M16 304.622C16.7164 304.622 17.2973 304.041 17.2973 303.324C17.2973 302.608 16.7164 302.027 16 302.027C15.2835 302.027 14.7026 302.608 14.7026 303.324C14.7026 304.041 15.2835 304.622 16 304.622Z" fill="white"/>
<path d="M24.0273 304.622C24.7438 304.622 25.3246 304.041 25.3246 303.324C25.3246 302.608 24.7438 302.027 24.0273 302.027C23.3108 302.027 22.73 302.608 22.73 303.324C22.73 304.041 23.3108 304.622 24.0273 304.622Z" fill="white"/>
<path d="M25.3714 310.438C25.4709 310.614 25.5626 310.798 25.6441 310.983L26.8318 310.461C26.733 310.236 26.6219 310.014 26.5014 309.8C25.1212 307.353 22.4149 305.864 19.6082 306.01C16.8204 306.155 14.2923 307.902 13.1675 310.461L14.3552 310.983C15.2845 308.868 17.3726 307.425 19.6752 307.306C21.992 307.185 24.2308 308.415 25.3714 310.438Z" fill="white"/>
<path d="M18.6203 300.397L16.5176 298.876L15.7574 299.928L17.8601 301.448L18.6203 300.397Z" fill="white"/>
<path d="M24.2421 299.928L23.4819 298.876L21.3792 300.397L22.1394 301.448L24.2421 299.928Z" fill="white"/>
</g>
<circle cx="20" cy="210" r="8" fill="white" stroke="#325D9C" stroke-width="2"/>
<path d="M135.633 267.449H133.57V271H130.031V267.449H122.719V264.93L130.23 253.867H133.57V264.637H135.633V267.449ZM130.031 264.637V261.73C130.031 261.246 130.051 260.543 130.09 259.621C130.129 258.699 130.16 258.164 130.184 258.016H130.09C129.801 258.656 129.453 259.281 129.047 259.891L125.906 264.637H130.031ZM141.398 268.48C140.992 270.059 140.305 271.93 139.336 274.094H136.758C137.266 272.016 137.66 270.055 137.941 268.211H141.223L141.398 268.48ZM155.824 262.434C155.824 265.426 155.332 267.641 154.348 269.078C153.371 270.516 151.863 271.234 149.824 271.234C147.848 271.234 146.355 270.492 145.348 269.008C144.348 267.523 143.848 265.332 143.848 262.434C143.848 259.41 144.336 257.184 145.312 255.754C146.289 254.316 147.793 253.598 149.824 253.598C151.801 253.598 153.293 254.348 154.301 255.848C155.316 257.348 155.824 259.543 155.824 262.434ZM147.445 262.434C147.445 264.535 147.625 266.043 147.984 266.957C148.352 267.863 148.965 268.316 149.824 268.316C150.668 268.316 151.277 267.855 151.652 266.934C152.027 266.012 152.215 264.512 152.215 262.434C152.215 260.332 152.023 258.824 151.641 257.91C151.266 256.988 150.66 256.527 149.824 256.527C148.973 256.527 148.363 256.988 147.996 257.91C147.629 258.824 147.445 260.332 147.445 262.434Z" fill="#002E5D"/>
<g clip-path="url(#clip1_360_3043)">
<path d="M140 294C133.383 294 128 299.383 128 306C128 312.617 133.383 318 140 318C146.617 318 152 312.617 152 306C152 299.383 146.617 294 140 294ZM140 316.703C137.06 316.703 134.394 315.511 132.457 313.586C131.684 312.817 131.028 311.931 130.517 310.957C129.739 309.474 129.297 307.788 129.297 306C129.297 300.099 134.099 295.297 140 295.297C142.799 295.297 145.35 296.378 147.26 298.143C148.249 299.059 149.067 300.158 149.656 301.386C150.327 302.784 150.703 304.349 150.703 306C150.703 311.901 145.901 316.703 140 316.703Z" fill="white"/>
<path d="M141.268 309.212C142.691 309.509 143.97 310.309 144.868 311.465L145.892 310.668C144.805 309.271 143.257 308.302 141.533 307.942C138.761 307.362 135.846 308.432 134.107 310.668L135.132 311.465C136.568 309.617 138.977 308.732 141.268 309.212Z" fill="white"/>
<path d="M136 304.622C136.716 304.622 137.297 304.041 137.297 303.324C137.297 302.608 136.716 302.027 136 302.027C135.283 302.027 134.703 302.608 134.703 303.324C134.703 304.041 135.283 304.622 136 304.622Z" fill="white"/>
<path d="M144.027 304.622C144.744 304.622 145.325 304.041 145.325 303.324C145.325 302.608 144.744 302.027 144.027 302.027C143.311 302.027 142.73 302.608 142.73 303.324C142.73 304.041 143.311 304.622 144.027 304.622Z" fill="white"/>
</g>
<circle cx="140" cy="194" r="8" fill="white" stroke="#325D9C" stroke-width="2"/>
<path d="M253.578 257.699C253.578 258.77 253.254 259.68 252.605 260.43C251.957 261.18 251.047 261.695 249.875 261.977V262.047C251.258 262.219 252.305 262.641 253.016 263.312C253.727 263.977 254.082 264.875 254.082 266.008C254.082 267.656 253.484 268.941 252.289 269.863C251.094 270.777 249.387 271.234 247.168 271.234C245.309 271.234 243.66 270.926 242.223 270.309V267.227C242.887 267.562 243.617 267.836 244.414 268.047C245.211 268.258 246 268.363 246.781 268.363C247.977 268.363 248.859 268.16 249.43 267.754C250 267.348 250.285 266.695 250.285 265.797C250.285 264.992 249.957 264.422 249.301 264.086C248.645 263.75 247.598 263.582 246.16 263.582H244.859V260.805H246.184C247.512 260.805 248.48 260.633 249.09 260.289C249.707 259.938 250.016 259.34 250.016 258.496C250.016 257.199 249.203 256.551 247.578 256.551C247.016 256.551 246.441 256.645 245.855 256.832C245.277 257.02 244.633 257.344 243.922 257.805L242.246 255.309C243.809 254.184 245.672 253.621 247.836 253.621C249.609 253.621 251.008 253.98 252.031 254.699C253.062 255.418 253.578 256.418 253.578 257.699ZM260.398 268.48C259.992 270.059 259.305 271.93 258.336 274.094H255.758C256.266 272.016 256.66 270.055 256.941 268.211H260.223L260.398 268.48ZM274.25 257.699C274.25 258.77 273.926 259.68 273.277 260.43C272.629 261.18 271.719 261.695 270.547 261.977V262.047C271.93 262.219 272.977 262.641 273.688 263.312C274.398 263.977 274.754 264.875 274.754 266.008C274.754 267.656 274.156 268.941 272.961 269.863C271.766 270.777 270.059 271.234 267.84 271.234C265.98 271.234 264.332 270.926 262.895 270.309V267.227C263.559 267.562 264.289 267.836 265.086 268.047C265.883 268.258 266.672 268.363 267.453 268.363C268.648 268.363 269.531 268.16 270.102 267.754C270.672 267.348 270.957 266.695 270.957 265.797C270.957 264.992 270.629 264.422 269.973 264.086C269.316 263.75 268.27 263.582 266.832 263.582H265.531V260.805H266.855C268.184 260.805 269.152 260.633 269.762 260.289C270.379 259.938 270.688 259.34 270.688 258.496C270.688 257.199 269.875 256.551 268.25 256.551C267.688 256.551 267.113 256.645 266.527 256.832C265.949 257.02 265.305 257.344 264.594 257.805L262.918 255.309C264.48 254.184 266.344 253.621 268.508 253.621C270.281 253.621 271.68 253.98 272.703 254.699C273.734 255.418 274.25 256.418 274.25 257.699Z" fill="#002E5D"/>
<g clip-path="url(#clip2_360_3043)">
<path d="M259 294C252.383 294 247 299.383 247 306C247 312.617 252.383 318 259 318C265.617 318 271 312.617 271 306C271 299.383 265.617 294 259 294ZM259 316.703C256.06 316.703 253.394 315.511 251.457 313.586C250.684 312.817 250.028 311.931 249.517 310.957C248.739 309.474 248.297 307.788 248.297 306C248.297 300.099 253.099 295.297 259 295.297C261.799 295.297 264.35 296.378 266.26 298.143C267.249 299.059 268.067 300.158 268.656 301.387C269.327 302.784 269.703 304.349 269.703 306C269.703 311.901 264.901 316.703 259 316.703Z" fill="white"/>
<path d="M265.743 308.799L252.233 309.041L252.257 310.338L265.767 310.096L265.743 308.799Z" fill="white"/>
<path d="M254.986 304.703C255.703 304.703 256.284 304.122 256.284 303.405C256.284 302.689 255.703 302.108 254.986 302.108C254.27 302.108 253.689 302.689 253.689 303.405C253.689 304.122 254.27 304.703 254.986 304.703Z" fill="white"/>
<path d="M263.014 304.703C263.73 304.703 264.311 304.122 264.311 303.405C264.311 302.689 263.73 302.108 263.014 302.108C262.297 302.108 261.716 302.689 261.716 303.405C261.716 304.122 262.297 304.703 263.014 304.703Z" fill="white"/>
</g>
<circle cx="259" cy="179" r="8" fill="white" stroke="#325D9C" stroke-width="2"/>
<path d="M372.578 257.699C372.578 258.77 372.254 259.68 371.605 260.43C370.957 261.18 370.047 261.695 368.875 261.977V262.047C370.258 262.219 371.305 262.641 372.016 263.312C372.727 263.977 373.082 264.875 373.082 266.008C373.082 267.656 372.484 268.941 371.289 269.863C370.094 270.777 368.387 271.234 366.168 271.234C364.309 271.234 362.66 270.926 361.223 270.309V267.227C361.887 267.562 362.617 267.836 363.414 268.047C364.211 268.258 365 268.363 365.781 268.363C366.977 268.363 367.859 268.16 368.43 267.754C369 267.348 369.285 266.695 369.285 265.797C369.285 264.992 368.957 264.422 368.301 264.086C367.645 263.75 366.598 263.582 365.16 263.582H363.859V260.805H365.184C366.512 260.805 367.48 260.633 368.09 260.289C368.707 259.938 369.016 259.34 369.016 258.496C369.016 257.199 368.203 256.551 366.578 256.551C366.016 256.551 365.441 256.645 364.855 256.832C364.277 257.02 363.633 257.344 362.922 257.805L361.246 255.309C362.809 254.184 364.672 253.621 366.836 253.621C368.609 253.621 370.008 253.98 371.031 254.699C372.062 255.418 372.578 256.418 372.578 257.699ZM379.398 268.48C378.992 270.059 378.305 271.93 377.336 274.094H374.758C375.266 272.016 375.66 270.055 375.941 268.211H379.223L379.398 268.48ZM393.824 262.434C393.824 265.426 393.332 267.641 392.348 269.078C391.371 270.516 389.863 271.234 387.824 271.234C385.848 271.234 384.355 270.492 383.348 269.008C382.348 267.523 381.848 265.332 381.848 262.434C381.848 259.41 382.336 257.184 383.312 255.754C384.289 254.316 385.793 253.598 387.824 253.598C389.801 253.598 391.293 254.348 392.301 255.848C393.316 257.348 393.824 259.543 393.824 262.434ZM385.445 262.434C385.445 264.535 385.625 266.043 385.984 266.957C386.352 267.863 386.965 268.316 387.824 268.316C388.668 268.316 389.277 267.855 389.652 266.934C390.027 266.012 390.215 264.512 390.215 262.434C390.215 260.332 390.023 258.824 389.641 257.91C389.266 256.988 388.66 256.527 387.824 256.527C386.973 256.527 386.363 256.988 385.996 257.91C385.629 258.824 385.445 260.332 385.445 262.434Z" fill="#002E5D"/>
<g clip-path="url(#clip3_360_3043)">
<path d="M378 294C371.383 294 366 299.383 366 306C366 312.617 371.383 318 378 318C384.617 318 390 312.617 390 306C390 299.383 384.617 294 378 294ZM378 316.703C375.06 316.703 372.394 315.511 370.457 313.586C369.684 312.817 369.028 311.931 368.517 310.957C367.739 309.474 367.297 307.788 367.297 306C367.297 300.099 372.099 295.297 378 295.297C380.799 295.297 383.35 296.378 385.26 298.143C386.249 299.059 387.067 300.158 387.656 301.387C388.327 302.784 388.703 304.349 388.703 306C388.703 311.901 383.901 316.703 378 316.703Z" fill="white"/>
<path d="M382.383 308.883L373.541 309.041L373.564 310.338L382.407 310.18L382.383 308.883Z" fill="white"/>
<path d="M373.986 304.703C374.703 304.703 375.284 304.122 375.284 303.405C375.284 302.689 374.703 302.108 373.986 302.108C373.27 302.108 372.689 302.689 372.689 303.405C372.689 304.122 373.27 304.703 373.986 304.703Z" fill="white"/>
<path d="M382.014 304.703C382.73 304.703 383.311 304.122 383.311 303.405C383.311 302.689 382.73 302.108 382.014 302.108C381.297 302.108 380.716 302.689 380.716 303.405C380.716 304.122 381.297 304.703 382.014 304.703Z" fill="white"/>
</g>
<circle cx="378" cy="124" r="8" fill="#325D9C" stroke="#325D9C" stroke-width="4"/>
<path d="M492.246 271H480.27V268.48L484.57 264.133C485.844 262.828 486.676 261.926 487.066 261.426C487.457 260.918 487.738 260.449 487.91 260.02C488.082 259.59 488.168 259.145 488.168 258.684C488.168 257.996 487.977 257.484 487.594 257.148C487.219 256.812 486.715 256.645 486.082 256.645C485.418 256.645 484.773 256.797 484.148 257.102C483.523 257.406 482.871 257.84 482.191 258.402L480.223 256.07C481.066 255.352 481.766 254.844 482.32 254.547C482.875 254.25 483.48 254.023 484.137 253.867C484.793 253.703 485.527 253.621 486.34 253.621C487.41 253.621 488.355 253.816 489.176 254.207C489.996 254.598 490.633 255.145 491.086 255.848C491.539 256.551 491.766 257.355 491.766 258.262C491.766 259.051 491.625 259.793 491.344 260.488C491.07 261.176 490.641 261.883 490.055 262.609C489.477 263.336 488.453 264.371 486.984 265.715L484.781 267.789V267.953H492.246V271ZM498.398 268.48C497.992 270.059 497.305 271.93 496.336 274.094H493.758C494.266 272.016 494.66 270.055 494.941 268.211H498.223L498.398 268.48ZM512.824 262.434C512.824 265.426 512.332 267.641 511.348 269.078C510.371 270.516 508.863 271.234 506.824 271.234C504.848 271.234 503.355 270.492 502.348 269.008C501.348 267.523 500.848 265.332 500.848 262.434C500.848 259.41 501.336 257.184 502.312 255.754C503.289 254.316 504.793 253.598 506.824 253.598C508.801 253.598 510.293 254.348 511.301 255.848C512.316 257.348 512.824 259.543 512.824 262.434ZM504.445 262.434C504.445 264.535 504.625 266.043 504.984 266.957C505.352 267.863 505.965 268.316 506.824 268.316C507.668 268.316 508.277 267.855 508.652 266.934C509.027 266.012 509.215 264.512 509.215 262.434C509.215 260.332 509.023 258.824 508.641 257.91C508.266 256.988 507.66 256.527 506.824 256.527C505.973 256.527 505.363 256.988 504.996 257.91C504.629 258.824 504.445 260.332 504.445 262.434Z" fill="#002E5D"/>
<g clip-path="url(#clip4_360_3043)">
<path d="M497 294C490.383 294 485 299.383 485 306C485 312.617 490.383 318 497 318C503.617 318 509 312.617 509 306C509 299.383 503.617 294 497 294ZM497 316.703C494.06 316.703 491.394 315.511 489.457 313.586C488.684 312.817 488.028 311.931 487.517 310.957C486.739 309.474 486.297 307.788 486.297 306C486.297 300.099 491.099 295.297 497 295.297C499.799 295.297 502.35 296.378 504.26 298.143C505.249 299.059 506.067 300.158 506.656 301.387C507.327 302.784 507.703 304.349 507.703 306C507.703 311.901 502.901 316.703 497 316.703Z" fill="white"/>
<path d="M502.03 309.488C501.584 309.369 501.19 309.121 500.891 308.786C499.838 309.764 498.445 310.319 497 310.319C495.555 310.319 494.162 309.764 493.109 308.786C492.81 309.121 492.416 309.369 491.97 309.488C493.286 310.843 495.107 311.617 497 311.617C498.893 311.617 500.714 310.843 502.03 309.488Z" fill="white"/>
<path d="M492.986 304.541C493.048 304.541 493.109 304.535 493.169 304.526C493.798 304.437 494.284 303.898 494.284 303.243C494.284 302.527 493.703 301.946 492.986 301.946C492.27 301.946 491.689 302.527 491.689 303.243C491.689 303.409 491.721 303.567 491.778 303.713C491.966 304.197 492.436 304.541 492.986 304.541Z" fill="white"/>
<path d="M502.222 303.713C502.279 303.567 502.311 303.409 502.311 303.243C502.311 302.527 501.73 301.946 501.014 301.946C500.297 301.946 499.716 302.527 499.716 303.243C499.716 303.898 500.201 304.437 500.831 304.526C500.891 304.535 500.952 304.541 501.014 304.541C501.564 304.541 502.034 304.197 502.222 303.713Z" fill="white"/>
</g>
<circle cx="497" cy="93" r="8" fill="white" stroke="#325D9C" stroke-width="2"/>
<path d="M608.223 271H604.602V261.086L604.637 259.457L604.695 257.676C604.094 258.277 603.676 258.672 603.441 258.859L601.473 260.441L599.727 258.262L605.246 253.867H608.223V271ZM617.398 268.48C616.992 270.059 616.305 271.93 615.336 274.094H612.758C613.266 272.016 613.66 270.055 613.941 268.211H617.223L617.398 268.48ZM631.25 257.699C631.25 258.77 630.926 259.68 630.277 260.43C629.629 261.18 628.719 261.695 627.547 261.977V262.047C628.93 262.219 629.977 262.641 630.688 263.312C631.398 263.977 631.754 264.875 631.754 266.008C631.754 267.656 631.156 268.941 629.961 269.863C628.766 270.777 627.059 271.234 624.84 271.234C622.98 271.234 621.332 270.926 619.895 270.309V267.227C620.559 267.562 621.289 267.836 622.086 268.047C622.883 268.258 623.672 268.363 624.453 268.363C625.648 268.363 626.531 268.16 627.102 267.754C627.672 267.348 627.957 266.695 627.957 265.797C627.957 264.992 627.629 264.422 626.973 264.086C626.316 263.75 625.27 263.582 623.832 263.582H622.531V260.805H623.855C625.184 260.805 626.152 260.633 626.762 260.289C627.379 259.938 627.688 259.34 627.688 258.496C627.688 257.199 626.875 256.551 625.25 256.551C624.688 256.551 624.113 256.645 623.527 256.832C622.949 257.02 622.305 257.344 621.594 257.805L619.918 255.309C621.48 254.184 623.344 253.621 625.508 253.621C627.281 253.621 628.68 253.98 629.703 254.699C630.734 255.418 631.25 256.418 631.25 257.699Z" fill="#002E5D"/>
<g clip-path="url(#clip5_360_3043)">
<path d="M616 294C609.383 294 604 299.383 604 306C604 312.617 609.383 318 616 318C622.617 318 628 312.617 628 306C628 299.383 622.617 294 616 294ZM616 316.703C613.06 316.703 610.394 315.511 608.458 313.586C607.684 312.817 607.028 311.931 606.517 310.957C605.739 309.474 605.297 307.788 605.297 306C605.297 300.099 610.099 295.297 616 295.297C618.799 295.297 621.35 296.378 623.26 298.143C624.249 299.059 625.067 300.158 625.656 301.386C626.327 302.784 626.703 304.349 626.703 306C626.703 311.901 621.901 316.703 616 316.703Z" fill="white"/>
<path d="M623.459 306H622.162C622.162 309.405 619.398 312.162 616 312.162C612.602 312.162 609.838 309.405 609.838 306H608.541C608.541 310.135 611.887 313.459 616 313.459C620.113 313.459 623.459 310.135 623.459 306Z" fill="white"/>
<path d="M612 304.622C612.716 304.622 613.297 304.041 613.297 303.324C613.297 302.608 612.716 302.027 612 302.027C611.283 302.027 610.703 302.608 610.703 303.324C610.703 304.041 611.283 304.622 612 304.622Z" fill="white"/>
<path d="M620.027 304.622C620.744 304.622 621.325 304.041 621.325 303.324C621.325 302.608 620.744 302.027 620.027 302.027C619.311 302.027 618.73 302.608 618.73 303.324C618.73 304.041 619.311 304.622 620.027 304.622Z" fill="white"/>
</g>
<circle cx="616" cy="55" r="8" fill="white" stroke="#325D9C" stroke-width="2"/>
<path d="M727.223 271H723.602V261.086L723.637 259.457L723.695 257.676C723.094 258.277 722.676 258.672 722.441 258.859L720.473 260.441L718.727 258.262L724.246 253.867H727.223V271ZM736.398 268.48C735.992 270.059 735.305 271.93 734.336 274.094H731.758C732.266 272.016 732.66 270.055 732.941 268.211H736.223L736.398 268.48ZM750.824 262.434C750.824 265.426 750.332 267.641 749.348 269.078C748.371 270.516 746.863 271.234 744.824 271.234C742.848 271.234 741.355 270.492 740.348 269.008C739.348 267.523 738.848 265.332 738.848 262.434C738.848 259.41 739.336 257.184 740.312 255.754C741.289 254.316 742.793 253.598 744.824 253.598C746.801 253.598 748.293 254.348 749.301 255.848C750.316 257.348 750.824 259.543 750.824 262.434ZM742.445 262.434C742.445 264.535 742.625 266.043 742.984 266.957C743.352 267.863 743.965 268.316 744.824 268.316C745.668 268.316 746.277 267.855 746.652 266.934C747.027 266.012 747.215 264.512 747.215 262.434C747.215 260.332 747.023 258.824 746.641 257.91C746.266 256.988 745.66 256.527 744.824 256.527C743.973 256.527 743.363 256.988 742.996 257.91C742.629 258.824 742.445 260.332 742.445 262.434Z" fill="#002E5D"/>
<g clip-path="url(#clip6_360_3043)">
<path d="M735 294C728.383 294 723 299.383 723 306C723 312.617 728.383 318 735 318C741.617 318 747 312.617 747 306C747 299.383 741.617 294 735 294ZM735 316.703C732.06 316.703 729.394 315.511 727.458 313.586C726.684 312.817 726.028 311.931 725.517 310.957C724.739 309.474 724.297 307.788 724.297 306C724.297 300.099 729.099 295.297 735 295.297C737.799 295.297 740.35 296.378 742.26 298.143C743.249 299.059 744.067 300.158 744.656 301.386C745.327 302.784 745.703 304.349 745.703 306C745.703 311.901 740.901 316.703 735 316.703Z" fill="white"/>
<path d="M742.297 306H727.703C727.703 310.03 730.97 313.297 735 313.297C739.03 313.297 742.297 310.03 742.297 306ZM740.838 307.297H740.848C740.254 309.984 737.858 312 734.995 312C732.132 312 729.736 309.984 729.141 307.297H740.838Z" fill="white"/>
<path d="M730.986 304.054C731.703 304.054 732.284 303.473 732.284 302.757C732.284 302.04 731.703 301.459 730.986 301.459C730.27 301.459 729.689 302.04 729.689 302.757C729.689 303.473 730.27 304.054 730.986 304.054Z" fill="white"/>
<path d="M739.014 304.054C739.73 304.054 740.311 303.473 740.311 302.757C740.311 302.04 739.73 301.459 739.014 301.459C738.297 301.459 737.716 302.04 737.716 302.757C737.716 303.473 738.297 304.054 739.014 304.054Z" fill="white"/>
</g>
<circle cx="735" cy="9" r="8" fill="white" stroke="#325D9C" stroke-width="2"/>
<path d="M499.5 107.5L383.5 139.5V237.5H737.5V25.5L615.5 74L499.5 107.5Z" fill="url(#paint0_linear_360_3043)"/>
<path d="M139.5 209L19 226.5V237.5H371.5V189.5V141.5L260 194L139.5 209Z" fill="url(#paint1_linear_360_3043)"/>
<g clip-path="url(#clip7_360_3043)">
<path d="M203 92.9999H209.882L212.428 83.1478H216.763V81.0765H212.998L213.706 78.4796L209.567 76.6658L208.899 78.4201L203 92.9999Z" fill="#002E5D"/>
<path d="M213.195 76.9335C214.601 76.9335 215.741 75.7709 215.741 74.3367C215.741 72.9025 214.601 71.7399 213.195 71.7399C211.788 71.7399 210.648 72.9025 210.648 74.3367C210.648 75.7709 211.788 76.9335 213.195 76.9335Z" fill="#002E5D"/>
<path d="M230.526 92.9999H223.645L221.099 83.1478H216.763V81.0765H220.528L219.821 78.4796L223.959 76.6658L224.628 78.4201L230.526 92.9999Z" fill="#325D9C"/>
<path d="M220.332 76.9335C221.738 76.9335 222.878 75.7709 222.878 74.3367C222.878 72.9025 221.738 71.7399 220.332 71.7399C218.926 71.7399 217.786 72.9025 217.786 74.3367C217.786 75.7709 218.926 76.9335 220.332 76.9335Z" fill="#325D9C"/>
<path d="M221.345 66.0308H212.172V70.1738H221.345V66.0308Z" fill="#002E5D"/>
<path d="M224.412 65H209.115V66.0407H224.412V65Z" fill="#002E5D"/>
<path d="M209.626 65.9912H209.882V67.587L210.137 68.1123H209.371L209.626 67.587V65.9912Z" fill="#002E5D"/>
<path d="M237.605 92.7522L242.766 77.0425H246.531L251.683 92.7522H247.918L247.013 89.3525H242.186L241.341 92.7522H237.605ZM242.914 86.5774H246.305L244.634 80.2043L242.914 86.5774Z" fill="#002E5D"/>
<path d="M257.365 77.0723V83.8319L261.986 77.0921H266.115L260.668 84.6249L266.36 92.7522H262.241L257.404 85.3681V92.7522H253.806V77.0723H257.365Z" fill="#002E5D"/>
<path d="M267.658 92.7522L272.8 77.0723H276.565L281.736 92.7522H277.971L277.066 89.3527H272.24L271.355 92.7522H267.658ZM272.967 86.5774H276.359L274.687 80.2043L272.967 86.5774Z" fill="#002E5D"/>
<path d="M296.394 84.714C296.463 85.8284 296.309 86.9456 295.943 87.9994C295.577 89.0531 295.004 90.0222 294.26 90.8493C293.463 91.5958 292.525 92.1714 291.5 92.5411C290.476 92.9107 289.388 93.0669 288.303 93C286.832 93.0062 285.362 92.8969 283.908 92.6729V77.1812C285.347 76.9733 286.8 76.8772 288.254 76.8938C289.334 76.825 290.417 76.9736 291.44 77.3309C292.463 77.6883 293.405 78.2472 294.211 78.9752C294.951 79.7263 295.527 80.6246 295.902 81.6127C296.278 82.6008 296.445 83.657 296.394 84.714ZM293.012 84.714C293.012 81.3837 291.527 79.7582 288.578 79.7582C288.181 79.7603 287.786 79.8034 287.398 79.8871V90.0068C287.785 90.0953 288.181 90.1386 288.578 90.1356C291.478 90.1356 292.962 88.3316 292.962 84.714H293.012Z" fill="#002E5D"/>
<path d="M302.145 80.0259V83.2274H307.946V86.0025H302.145V89.8284H308.358V92.8018H298.586V77.0723H308.358V80.0457L302.145 80.0259Z" fill="#002E5D"/>
<path d="M323.37 83.1678L320.696 89.1841H317.472L314.797 83.1678V92.7522H311.337V77.0723H314.974L319.005 86.3296L323.046 77.0723H326.87V92.7522H323.419L323.37 83.1678Z" fill="#002E5D"/>
<path d="M330.301 92.7522V77.0723H334.233V92.7522H330.301Z" fill="#002E5D"/>
<path d="M341.37 77.0723V89.7788H347.819V92.7522H337.684V77.0723H341.37Z" fill="#002E5D"/>
<path d="M350.041 77.0723L352.99 83.8121L355.94 77.0723H359.871L354.809 86.8053V92.7522H351.142V86.8053L345.981 77.1218L350.041 77.0723Z" fill="#002E5D"/>
</g>
<defs>
<linearGradient id="paint0_linear_360_3043" x1="559.5" y1="25.5" x2="559.5" y2="237.5" gradientUnits="userSpaceOnUse">
<stop stop-color="#325D9C"/>
<stop offset="1" stop-color="#325D9C" stop-opacity="0"/>
</linearGradient>
<linearGradient id="paint1_linear_360_3043" x1="196.25" y1="141.5" x2="196.25" y2="237.5" gradientUnits="userSpaceOnUse">
<stop stop-color="#F70431"/>
<stop offset="1" stop-color="#F70431" stop-opacity="0"/>
</linearGradient>
<clipPath id="clip0_360_3043">
<rect width="24" height="24" fill="white" transform="translate(8 294)"/>
</clipPath>
<clipPath id="clip1_360_3043">
<rect width="24" height="24" fill="white" transform="translate(128 294)"/>
</clipPath>
<clipPath id="clip2_360_3043">
<rect width="24" height="24" fill="white" transform="translate(247 294)"/>
</clipPath>
<clipPath id="clip3_360_3043">
<rect width="24" height="24" fill="white" transform="translate(366 294)"/>
</clipPath>
<clipPath id="clip4_360_3043">
<rect width="24" height="24" fill="white" transform="translate(485 294)"/>
</clipPath>
<clipPath id="clip5_360_3043">
<rect width="24" height="24" fill="white" transform="translate(604 294)"/>
</clipPath>
<clipPath id="clip6_360_3043">
<rect width="24" height="24" fill="white" transform="translate(723 294)"/>
</clipPath>
<clipPath id="clip7_360_3043">
<rect width="157" height="28" fill="white" transform="translate(203 65)"/>
</clipPath>
</defs>
</svg>
