<svg width="28" height="28" viewBox="0 0 28 28" fill="none" xmlns="http://www.w3.org/2000/svg">
<g id="005-search">
<path id="Vector" d="M24.7051 10.1765V5.99994H21.4102V2.70508L11.0449 2.70502L9.39739 1.05762L2.12795 1.05767L0 3.18556V18.3525C0 19.7133 1.10698 20.8203 2.46772 20.8203H12.9847L10.3526 23.4524L13.8426 26.9423L18.8468 21.938C19.6369 22.2744 20.5056 22.4607 21.4171 22.4607C25.0469 22.4607 28 19.5076 28 15.8778C28 13.4448 26.6731 11.316 24.7051 10.1765ZM1.64062 18.3525V3.86511L2.80749 2.6983L8.71784 2.69824L10.3653 4.34565L19.7695 4.3457V5.99994L3.29492 6.00006V18.3525C3.29492 18.8086 2.92387 19.1797 2.46772 19.1797C2.01163 19.1797 1.64062 18.8086 1.64062 18.3525ZM4.79248 19.1797C4.8848 18.921 4.93555 18.6426 4.93555 18.3525V7.64068L23.0645 7.64057V9.50366C22.5378 9.36749 21.9857 9.29492 21.4171 9.29492C17.7873 9.29492 14.8342 12.248 14.8342 15.8778C14.8342 16.7893 15.0205 17.658 15.3569 18.4481L14.6254 19.1797H4.79248ZM13.8426 24.6221L12.6727 23.4523L16.2164 19.9087C16.5559 20.3457 16.9491 20.739 17.3861 21.0785L13.8426 24.6221ZM21.4171 20.8201C18.6919 20.8201 16.4748 18.603 16.4748 15.8778C16.4748 13.1526 18.6919 10.9355 21.4171 10.9355C24.1423 10.9355 26.3594 13.1526 26.3594 15.8778C26.3594 18.603 24.1423 20.8201 21.4171 20.8201Z" fill="white"/>
</g>
</svg>
