<svg width="188" height="145" viewBox="0 0 188 145" fill="none" xmlns="http://www.w3.org/2000/svg">
<g id="Frame" clip-path="url(#clip0_322_2534)">
<g id="&#208;&#161;&#208;&#187;&#208;&#190;&#208;&#185; 2">
<g id="Layer 1">
<path id="Vector" d="M21.3846 70.8728C21.9657 62.2878 24.4063 26.2824 51.4129 8.96457C82.3213 -10.8541 129.15 4.22656 152.585 34.2536C166.862 52.5491 177.717 83.1389 165.886 109.11C145.768 153.272 69.9066 162.443 38.3151 130.353C18.7023 110.434 20.8078 79.3516 21.3846 70.8728Z" fill="#F3F8FF"/>
<path id="Vector_2" d="M154.537 139.552C154.434 139.552 154.331 139.546 154.229 139.535L86.3319 131.913C85.6077 131.83 84.9457 131.462 84.4906 130.891C84.0356 130.319 83.8246 129.59 83.9038 128.863L93.9001 39.1416C93.9824 38.4146 94.3482 37.75 94.9176 37.2931C95.4869 36.8363 96.2134 36.6245 96.9379 36.7041L164.835 44.3276C165.559 44.4105 166.221 44.7779 166.676 45.3493C167.131 45.9208 167.342 46.6499 167.263 47.3772L157.267 137.097C157.19 137.77 156.869 138.392 156.366 138.844C155.863 139.296 155.212 139.547 154.537 139.55V139.552ZM96.6309 37.353C96.1181 37.3554 95.6238 37.5463 95.2418 37.8898C94.8598 38.2333 94.6164 38.7055 94.5578 39.2169L84.5631 128.937C84.5037 129.489 84.664 130.042 85.0092 130.476C85.3544 130.909 85.8564 131.188 86.4058 131.252L154.303 138.874C154.852 138.934 155.403 138.773 155.835 138.426C156.267 138.08 156.545 137.576 156.609 137.024L166.603 47.3036C166.663 46.7516 166.503 46.1985 166.157 45.7648C165.812 45.3311 165.31 45.052 164.761 44.9884L96.864 37.366C96.7866 37.3574 96.7088 37.3531 96.6309 37.353Z" fill="#444444"/>
<path id="Vector_3" d="M145.906 142.162L80.145 123.563C79.529 123.386 79.0075 122.972 78.6942 122.411C78.3809 121.85 78.3011 121.188 78.4723 120.568L102.861 33.6702C103.037 33.0514 103.449 32.5273 104.008 32.2127C104.567 31.898 105.227 31.8183 105.845 31.991L171.604 50.592C172.22 50.7688 172.742 51.1828 173.055 51.7439C173.369 52.305 173.448 52.9677 173.277 53.5875L148.888 140.483C148.712 141.101 148.3 141.624 147.741 141.938C147.183 142.253 146.523 142.333 145.906 142.162Z" fill="#325D9C"/>
<path id="Vector_4" d="M150.099 62.1616L118.173 53.132C117.717 53.0017 117.331 52.6956 117.099 52.2805C116.867 51.8653 116.809 51.375 116.936 50.9165C117.066 50.4588 117.371 50.0712 117.784 49.8385C118.198 49.6057 118.687 49.5468 119.143 49.6745L151.069 58.7041C151.525 58.8346 151.91 59.1409 152.142 59.5559C152.374 59.971 152.433 60.4612 152.306 60.9196C152.176 61.3773 151.871 61.7649 151.457 61.9976C151.044 62.2303 150.555 62.2893 150.099 62.1616Z" fill="#B3CEF6"/>
<path id="Vector_5" d="M156.459 74.8091L106.17 60.5859C105.714 60.4555 105.328 60.1493 105.097 59.7342C104.865 59.3191 104.806 58.8288 104.933 58.3704C105.063 57.9129 105.369 57.5256 105.782 57.293C106.195 57.0604 106.684 57.0014 107.14 57.1289L157.429 71.3522C157.885 71.4824 158.271 71.7886 158.503 72.2037C158.735 72.6189 158.794 73.1092 158.666 73.5676C158.536 74.0253 158.231 74.4128 157.818 74.6455C157.404 74.8781 156.916 74.9369 156.459 74.8091Z" fill="#B3CEF6"/>
<path id="Vector_6" d="M154.226 82.7673L103.937 68.5441C103.481 68.4137 103.095 68.1075 102.863 67.6923C102.631 67.2771 102.572 66.7867 102.7 66.3281C102.83 65.8706 103.135 65.4832 103.548 65.2506C103.962 65.018 104.45 64.9591 104.907 65.0866L155.196 79.3099C155.652 79.4404 156.038 79.7466 156.27 80.1618C156.501 80.577 156.56 81.0674 156.433 81.5258C156.303 81.9834 155.998 82.3707 155.584 82.6033C155.171 82.8359 154.683 82.8949 154.226 82.7673Z" fill="#B3CEF6"/>
<path id="Vector_7" d="M151.992 90.7299L101.703 76.5067C101.247 76.3765 100.861 76.0703 100.629 75.6552C100.398 75.24 100.339 74.7497 100.466 74.2913C100.596 73.8336 100.901 73.446 101.315 73.2134C101.728 72.9807 102.217 72.9219 102.673 73.0498L152.962 87.273C153.418 87.4032 153.804 87.7094 154.036 88.1245C154.268 88.5397 154.326 89.03 154.199 89.4884C154.069 89.9461 153.764 90.3337 153.351 90.5663C152.937 90.7989 152.449 90.8578 151.992 90.7299Z" fill="#B3CEF6"/>
<path id="Vector_8" d="M149.758 98.686L99.469 84.4628C99.0132 84.3324 98.6272 84.0262 98.3955 83.6111C98.1638 83.196 98.1051 82.7057 98.2323 82.2474C98.3623 81.7898 98.6673 81.4025 99.0808 81.1699C99.4943 80.9373 99.9826 80.8783 100.439 81.0058L150.728 95.2291C151.184 95.3596 151.57 95.6663 151.802 96.0819C152.033 96.4975 152.091 96.9882 151.963 97.4467C151.833 97.9036 151.528 98.2903 151.115 98.5225C150.702 98.7547 150.214 98.8134 149.758 98.686Z" fill="#B3CEF6"/>
<path id="Vector_9" d="M147.525 106.645L97.2359 92.4221C96.7799 92.2918 96.3939 91.9857 96.162 91.5706C95.9302 91.1555 95.8715 90.6651 95.9986 90.2067C96.1285 89.7489 96.4336 89.3613 96.8472 89.1286C97.2608 88.8959 97.7493 88.8369 98.2061 88.9646L148.495 103.188C148.951 103.318 149.337 103.625 149.569 104.04C149.8 104.455 149.859 104.945 149.732 105.404C149.602 105.861 149.297 106.249 148.883 106.481C148.47 106.714 147.982 106.773 147.525 106.645Z" fill="#B3CEF6"/>
<path id="Vector_10" d="M145.291 114.604L95.0019 100.381C94.5459 100.251 94.1599 99.9445 93.9282 99.5293C93.6964 99.1142 93.6378 98.6238 93.7652 98.1655C93.8949 97.7077 94.1999 97.3202 94.6134 97.0876C95.027 96.8549 95.5154 96.7961 95.972 96.9239L146.261 111.147C146.717 111.277 147.103 111.584 147.335 111.999C147.567 112.414 147.625 112.904 147.498 113.363C147.368 113.82 147.063 114.208 146.65 114.44C146.236 114.673 145.748 114.732 145.291 114.604Z" fill="#B3CEF6"/>
<path id="Vector_11" d="M143.057 122.563L92.768 108.34C92.312 108.21 91.9259 107.904 91.694 107.488C91.4621 107.073 91.4032 106.583 91.5302 106.124C91.6602 105.667 91.9652 105.279 92.3787 105.047C92.7922 104.814 93.2805 104.755 93.7371 104.883L144.026 119.106C144.482 119.236 144.868 119.542 145.1 119.958C145.332 120.373 145.39 120.863 145.263 121.321C145.133 121.779 144.828 122.166 144.415 122.399C144.002 122.631 143.514 122.69 143.057 122.563Z" fill="#B3CEF6"/>
<path id="Vector_12" d="M140.824 130.522L90.5348 116.299C90.079 116.169 89.6932 115.862 89.4615 115.447C89.2298 115.032 89.1711 114.542 89.2981 114.084C89.428 113.626 89.733 113.238 90.1466 113.006C90.5602 112.773 91.0488 112.714 91.5055 112.842L141.795 127.065C142.25 127.195 142.636 127.502 142.868 127.917C143.1 128.332 143.158 128.822 143.031 129.281C142.901 129.738 142.596 130.126 142.183 130.358C141.769 130.591 141.281 130.65 140.824 130.522Z" fill="#B3CEF6"/>
<path id="Vector_13" d="M52.8745 121.573H52.8643C52.7639 121.573 52.6754 121.569 52.5945 121.562L52.5578 121.559H52.5459C52.4709 121.552 52.3932 121.541 52.3155 121.527L52.2993 121.525L52.2373 121.514C52.1547 121.497 52.0716 121.478 51.9907 121.455L51.9211 121.435L51.906 121.43C51.8407 121.41 51.7759 121.388 51.7128 121.364H51.7074C51.6783 121.353 51.6491 121.342 51.62 121.33C51.5547 121.304 51.4899 121.276 51.4214 121.241C51.3885 121.224 51.3556 121.208 51.3232 121.191C51.2471 121.15 51.1813 121.112 51.1214 121.075C51.0917 121.057 51.0631 121.037 51.0345 121.017L51.0086 121C50.9655 120.97 50.9228 120.941 50.8813 120.909C50.8397 120.878 50.8149 120.858 50.782 120.831C50.7383 120.795 50.6924 120.756 50.6439 120.711L50.6255 120.695C50.6061 120.677 50.5872 120.661 50.5716 120.641C50.4998 120.571 50.4351 120.503 50.3746 120.433C50.3649 120.422 50.3568 120.411 50.3493 120.402L50.3433 120.395C50.2894 120.333 50.2397 120.266 50.1906 120.198C50.1734 120.174 50.1577 120.15 50.1415 120.126L50.1377 120.121C50.0978 120.061 50.0584 119.998 50.0212 119.935L50.0104 119.917C49.9991 119.897 49.9872 119.877 49.9764 119.857C49.9225 119.758 49.8777 119.668 49.8399 119.582L49.6349 119.108L14.3737 37.7712C14.3327 37.677 14.296 37.5789 14.2609 37.4711C14.2533 37.4484 14.2469 37.4251 14.2409 37.4018C14.2409 37.3926 14.2361 37.3834 14.2334 37.3742C14.215 37.3124 14.1951 37.2404 14.1794 37.1662C14.1729 37.1358 14.1675 37.1066 14.1621 37.0768L14.1541 37.0503C14.1406 36.9761 14.1303 36.9143 14.1233 36.8574C14.1184 36.8168 14.1147 36.7767 14.1109 36.7366C14.1055 36.6727 14.1017 36.6093 14.1001 36.5476C14.1001 36.508 14.1001 36.4674 14.1001 36.4273C14.1001 36.3699 14.1028 36.3082 14.1071 36.2388V36.2183C14.1071 36.1858 14.1109 36.1527 14.1141 36.1202C14.1211 36.0536 14.1309 35.9891 14.1395 35.9344L14.1438 35.9035C14.1481 35.8748 14.1524 35.8467 14.1578 35.818C14.1692 35.7589 14.1827 35.7048 14.1961 35.6555L14.1999 35.6414C14.2365 35.4922 14.2834 35.3458 14.3402 35.2032C14.3467 35.1875 14.3537 35.1717 14.3613 35.1566L14.3677 35.142C14.4071 35.0493 14.4454 34.9686 14.4843 34.895C14.4956 34.8733 14.508 34.8522 14.5199 34.8316L14.5339 34.8072C14.5787 34.7287 14.6181 34.6637 14.6591 34.603C14.6785 34.5732 14.6996 34.5445 14.7206 34.5152L14.726 34.5071C14.7724 34.4432 14.8172 34.3847 14.8636 34.3284C14.8906 34.2964 14.9176 34.2644 14.9456 34.233C14.9915 34.1789 15.0411 34.1296 15.0978 34.0743L15.1059 34.0667C15.1339 34.0391 15.1598 34.0126 15.1917 33.9849C15.2532 33.9308 15.3158 33.8766 15.3638 33.8414L15.3886 33.8219C15.4134 33.8019 15.4383 33.7818 15.4642 33.7629C15.5338 33.7125 15.6028 33.6691 15.6676 33.6291L15.6929 33.6123C15.7161 33.5976 15.7388 33.583 15.7626 33.5695C15.8674 33.5094 15.9755 33.4551 16.0863 33.407L79.6853 5.62463C79.7955 5.57649 79.9082 5.53453 80.0231 5.49896C80.049 5.49083 80.077 5.48433 80.1013 5.47783L80.1321 5.46971C80.2017 5.45075 80.2821 5.42908 80.3662 5.41229C80.3992 5.40579 80.4321 5.40092 80.4645 5.39604L80.4958 5.39117C80.5637 5.38033 80.6366 5.37004 80.7116 5.363C80.7504 5.35975 80.7898 5.35758 80.8287 5.35596H80.8449C80.9236 5.35217 80.9932 5.35108 81.0607 5.35217C81.1049 5.35217 81.1486 5.35488 81.1924 5.35758C81.2609 5.36138 81.331 5.36788 81.4082 5.37708H81.4152C81.4546 5.38196 81.4934 5.38683 81.5323 5.39333C81.5997 5.40417 81.6704 5.41825 81.7546 5.43829L81.7821 5.44425C81.8096 5.45075 81.8361 5.45671 81.8641 5.46429C81.9391 5.48433 82.0179 5.50979 82.1107 5.54284L82.1296 5.54934C82.148 5.55529 82.1663 5.56125 82.1836 5.56829C82.3293 5.62475 82.4708 5.69154 82.6071 5.76817L82.6249 5.77792C82.667 5.80121 82.7113 5.82559 82.7566 5.85375L82.8262 5.90034L82.8516 5.91767C82.9007 5.95126 82.9546 5.98809 83.0091 6.0298C83.035 6.0493 83.0598 6.06988 83.0841 6.09047L83.0971 6.10076C83.151 6.14572 83.2007 6.18743 83.2439 6.22805C83.2719 6.25405 83.2978 6.28222 83.3259 6.30659C83.3717 6.35209 83.417 6.39976 83.4608 6.44851C83.4867 6.47776 83.5147 6.50647 83.5368 6.53626C83.5757 6.58285 83.6145 6.63268 83.6593 6.69389L83.6744 6.71447C83.6922 6.73831 83.71 6.76214 83.7284 6.78651C83.7699 6.84772 83.8083 6.91001 83.8428 6.96852C83.8476 6.97718 83.8525 6.98531 83.8579 6.99343C83.8703 7.01347 83.8827 7.03406 83.8946 7.05572C83.9485 7.15593 83.9966 7.24964 84.037 7.34281L119.499 89.1515C119.537 89.2382 119.571 89.3292 119.607 89.4386C119.614 89.4608 119.62 89.4819 119.627 89.5036L119.633 89.5253C119.654 89.5951 119.673 89.6666 119.687 89.7376L119.69 89.7539C119.696 89.7788 119.702 89.8042 119.707 89.8297C119.723 89.9109 119.736 89.9922 119.746 90.0762V90.0854C119.746 90.0978 119.75 90.1103 119.751 90.1233C119.761 90.2164 119.767 90.3102 119.769 90.4109C119.769 90.4353 119.769 90.4613 119.769 90.4873V90.5133C119.769 90.5799 119.765 90.6395 119.762 90.6953C119.762 90.7381 119.755 90.7803 119.751 90.8226C119.747 90.8648 119.738 90.9239 119.73 90.9742C119.705 91.1394 119.668 91.3023 119.618 91.4617C119.612 91.4807 119.606 91.4991 119.599 91.5159L119.592 91.5381C119.56 91.6302 119.526 91.7201 119.488 91.809C119.475 91.8382 119.462 91.868 119.448 91.8978C119.408 91.9828 119.364 92.0679 119.312 92.1562L119.301 92.1746C119.292 92.1908 119.283 92.2071 119.273 92.2228C119.208 92.3289 119.138 92.4312 119.061 92.5294L119.038 92.5565C118.97 92.642 118.898 92.7239 118.822 92.8018C118.803 92.8219 118.782 92.8419 118.761 92.8614L118.74 92.8809C118.676 92.9421 118.611 92.9996 118.547 93.0521C118.513 93.0792 118.479 93.1057 118.445 93.1317C118.379 93.181 118.308 93.2292 118.229 93.2801L118.203 93.2964C118.179 93.3121 118.154 93.3278 118.129 93.3424C118.019 93.4077 117.905 93.4663 117.787 93.5179L54.1862 121.299C54.1015 121.335 54.0093 121.37 53.9035 121.407L53.8949 121.41L53.8409 121.427C53.7481 121.456 53.6542 121.481 53.5636 121.501L53.5269 121.508H53.5123C53.4238 121.526 53.338 121.539 53.2555 121.549H53.2452L53.2101 121.554C53.1233 121.563 53.0326 121.568 52.9339 121.571L52.8745 121.573ZM81.0084 6.01246C80.9679 6.01246 80.9242 6.01246 80.8762 6.01571H80.8594C80.8298 6.01571 80.8001 6.01572 80.7699 6.02113C80.7116 6.02601 80.6517 6.03467 80.5956 6.04388L80.5594 6.0493C80.5373 6.05255 80.5146 6.0558 80.4925 6.06013C80.4305 6.07259 80.3635 6.09047 80.3058 6.10617L80.2594 6.11863L80.2189 6.12892C80.1273 6.15777 80.0373 6.1914 79.9492 6.22968L16.3502 34.0169C16.2619 34.0556 16.1758 34.0992 16.0922 34.1474C16.0798 34.1545 16.068 34.1626 16.0561 34.1702L16.0167 34.1951C15.9627 34.2292 15.9055 34.265 15.8548 34.3034C15.8376 34.3159 15.8208 34.3294 15.8041 34.343L15.7744 34.3668C15.7323 34.3999 15.6832 34.4394 15.6374 34.4806C15.6142 34.5017 15.592 34.5234 15.5699 34.545L15.5624 34.5526C15.5165 34.5976 15.4766 34.6387 15.4404 34.6794C15.4183 34.7043 15.3962 34.7297 15.3751 34.7557C15.3384 34.8002 15.3023 34.8467 15.2672 34.8982L15.2613 34.9069C15.2451 34.9291 15.2289 34.9513 15.2138 34.9746C15.182 35.0222 15.1501 35.0737 15.114 35.1371L15.0962 35.168C15.0886 35.181 15.0805 35.1945 15.0735 35.208C15.0433 35.2649 15.0131 35.3294 14.9807 35.4047C14.9758 35.416 14.9704 35.428 14.965 35.4393L14.9586 35.454C14.9123 35.568 14.8737 35.6851 14.8431 35.8044L14.8393 35.819C14.828 35.8645 14.8172 35.9073 14.8096 35.9474C14.8059 35.9648 14.8037 35.9837 14.801 36.0016L14.7951 36.04C14.7881 36.0861 14.78 36.1392 14.7746 36.1885C14.7746 36.2123 14.7713 36.2361 14.7697 36.2605V36.2833C14.7659 36.3407 14.7643 36.3916 14.7638 36.4333C14.7638 36.4651 14.7638 36.497 14.7638 36.5292C14.7638 36.579 14.7681 36.6294 14.773 36.6808C14.7755 36.713 14.7787 36.7449 14.7827 36.7767C14.7881 36.8206 14.7962 36.8699 14.8075 36.9311L14.8129 36.9598C14.8167 36.9809 14.8199 37.0021 14.8248 37.0232C14.8372 37.0773 14.8534 37.1353 14.8685 37.1889L14.8798 37.229C14.8836 37.242 14.8868 37.2545 14.8906 37.2669C14.9192 37.3547 14.9483 37.4332 14.9807 37.508L50.4431 119.315C50.4723 119.382 50.5084 119.454 50.5511 119.535L50.5753 119.577L50.5872 119.597C50.6169 119.651 50.6487 119.699 50.6806 119.746L50.6849 119.752C50.6973 119.771 50.7097 119.79 50.7232 119.806C50.762 119.861 50.8031 119.915 50.8451 119.963C50.8527 119.972 50.8592 119.98 50.8651 119.988L50.8705 119.995C50.9164 120.05 50.9682 120.104 51.0264 120.158L51.0642 120.193L51.0863 120.213C51.1257 120.249 51.1619 120.28 51.1943 120.308C51.2266 120.337 51.2482 120.351 51.2741 120.371C51.3 120.391 51.341 120.42 51.3755 120.443L51.4047 120.463C51.4252 120.477 51.4452 120.491 51.4662 120.504C51.5131 120.533 51.566 120.564 51.6281 120.597L51.7069 120.637C51.7608 120.664 51.8148 120.687 51.8655 120.708L51.9356 120.735C51.9896 120.756 52.0436 120.774 52.0943 120.789L52.1105 120.795L52.1644 120.81C52.2292 120.828 52.2955 120.844 52.3619 120.857L52.404 120.864L52.4234 120.867C52.4871 120.878 52.5491 120.887 52.6085 120.893L52.6349 120.896H52.6479C52.7116 120.902 52.7822 120.904 52.8637 120.904H52.9209C53.0013 120.904 53.0731 120.898 53.1416 120.891L53.1772 120.886C53.2436 120.878 53.3121 120.867 53.3823 120.853L53.4238 120.845C53.4956 120.83 53.57 120.81 53.6456 120.786C53.6591 120.782 53.6715 120.778 53.6839 120.774L53.6931 120.771C53.7816 120.741 53.8549 120.716 53.9202 120.685L117.519 92.9026C117.613 92.8609 117.704 92.8139 117.793 92.7618L117.839 92.7325L117.872 92.7114C117.937 92.6702 117.994 92.6312 118.046 92.5928C118.073 92.5722 118.1 92.551 118.126 92.5294C118.18 92.4871 118.229 92.4427 118.281 92.3929L118.306 92.369C118.32 92.356 118.334 92.3436 118.346 92.3306C118.409 92.2669 118.469 92.2 118.524 92.1302L118.544 92.1074C118.604 92.0306 118.659 91.9505 118.71 91.8675L118.721 91.8469C118.727 91.8355 118.733 91.8247 118.74 91.8138C118.781 91.7423 118.817 91.6746 118.848 91.6069C118.859 91.5836 118.869 91.5598 118.88 91.536C118.91 91.4666 118.938 91.3946 118.963 91.3193L118.972 91.2917C118.976 91.2797 118.98 91.2684 118.984 91.2565C119.024 91.128 119.054 90.9968 119.074 90.8637C119.08 90.8237 119.086 90.783 119.09 90.743C119.094 90.7029 119.096 90.6752 119.099 90.6411C119.102 90.5967 119.103 90.5496 119.105 90.4959V90.4651C119.105 90.4483 119.105 90.4315 119.105 90.4142C119.105 90.3318 119.099 90.2576 119.091 90.1856V90.178C119.091 90.1677 119.091 90.1574 119.087 90.1471C119.079 90.0816 119.068 90.0149 119.055 89.9499C119.052 89.931 119.047 89.912 119.043 89.8958L119.039 89.879C119.026 89.8248 119.011 89.7658 118.994 89.7094L118.987 89.6851C118.983 89.6699 118.978 89.6547 118.973 89.6396C118.944 89.5507 118.917 89.4771 118.888 89.4099L83.4278 7.60552C83.396 7.53185 83.3588 7.45656 83.314 7.37477C83.3075 7.36339 83.3005 7.35256 83.2935 7.34119L83.2719 7.30598C83.2384 7.25181 83.2104 7.2036 83.1807 7.16027C83.1688 7.14293 83.1564 7.12614 83.144 7.10935L83.1262 7.08552C83.0895 7.03568 83.0588 6.99614 83.0291 6.96039C83.0091 6.93656 82.9886 6.91326 82.9681 6.88997C82.933 6.85151 82.8969 6.81306 82.8602 6.77731C82.8386 6.75618 82.817 6.73451 82.7944 6.71393C82.7604 6.68251 82.7232 6.65001 82.6773 6.61264L82.6627 6.60072C82.6438 6.58501 82.6255 6.56985 82.6088 6.55522C82.5694 6.52489 82.5251 6.49509 82.4836 6.46693L82.4507 6.44418L82.4075 6.41493C82.3757 6.39543 82.3417 6.37701 82.3077 6.35805L82.2882 6.34722C82.1789 6.28512 82.0653 6.23082 81.9483 6.18472L81.9267 6.17713L81.8889 6.16467C81.8129 6.13759 81.7503 6.11755 81.692 6.10184L81.638 6.08884L81.6041 6.08126C81.5344 6.06501 81.4783 6.05363 81.426 6.04497C81.3958 6.04009 81.365 6.0363 81.3337 6.03251H81.3267C81.2657 6.02492 81.2096 6.02005 81.1557 6.0168C81.1195 6.0168 81.085 6.01355 81.0477 6.01246H81.0084Z" fill="#444444"/>
<g id="Vector_14" style="mix-blend-mode:multiply" opacity="0.2">
<path d="M113.71 102.127C113.727 102.102 113.743 102.077 113.758 102.053C113.805 101.981 113.848 101.907 113.888 101.83C113.899 101.808 113.912 101.787 113.922 101.764C113.989 101.629 114.046 101.489 114.091 101.345C114.105 101.301 114.119 101.257 114.131 101.212C114.144 101.168 114.15 101.139 114.158 101.104C114.171 101.05 114.181 100.996 114.19 100.942C114.195 100.911 114.201 100.881 114.206 100.851C114.217 100.765 114.226 100.68 114.23 100.594C114.23 100.58 114.23 100.566 114.23 100.551C114.234 100.476 114.234 100.401 114.23 100.325C114.23 100.297 114.227 100.271 114.226 100.242C114.221 100.176 114.214 100.111 114.206 100.045C114.202 100.018 114.199 99.9903 114.194 99.9643C114.18 99.8739 114.162 99.7834 114.14 99.6935L114.012 99.1963L92.162 14.3829L91.8868 13.3153C91.8625 13.221 91.8329 13.1295 91.801 13.0396C91.7902 13.0108 91.7778 12.9854 91.7665 12.9556C91.7428 12.8949 91.7179 12.8348 91.6904 12.7768C91.6758 12.7454 91.6597 12.7156 91.6435 12.6848C91.616 12.6306 91.5895 12.5764 91.5571 12.5282C91.5393 12.4979 91.521 12.4686 91.5032 12.4394C91.4708 12.3901 91.4379 12.3419 91.4034 12.2948C91.3829 12.2671 91.3624 12.2406 91.3413 12.2124C91.3052 12.1664 91.2668 12.122 91.228 12.0781C91.2059 12.0532 91.1837 12.0277 91.1605 12.0033C91.1206 11.9611 91.0785 11.921 91.0364 11.8815C91.0111 11.8582 90.9873 11.8343 90.9614 11.8116C90.9226 11.7775 90.881 11.746 90.84 11.7141C90.7297 11.6264 90.6132 11.5467 90.4915 11.4758C90.471 11.4638 90.4494 11.4541 90.4289 11.4427C90.3609 11.4059 90.2918 11.3701 90.2211 11.3382C90.1904 11.3246 90.1591 11.3127 90.1278 11.2997C90.0647 11.2742 90.0015 11.2499 89.9368 11.2282C89.9006 11.2163 89.8645 11.206 89.8288 11.1957C89.7668 11.1773 89.7042 11.161 89.6405 11.1475C89.6022 11.1388 89.5634 11.1312 89.5245 11.1242C89.4614 11.1128 89.3977 11.1047 89.3335 11.0977C89.2936 11.0928 89.2542 11.0885 89.2143 11.0857C89.149 11.0814 89.0826 11.0803 89.0162 11.0798C88.9774 11.0798 88.9385 11.0798 88.8992 11.0798C88.8274 11.0825 88.7556 11.0895 88.6833 11.0977C88.6493 11.1015 88.6159 11.1031 88.5819 11.108C88.4747 11.1236 88.3684 11.1449 88.2635 11.1719L21.1146 28.6056C21.0098 28.6332 20.9066 28.6665 20.8054 28.7052C20.7736 28.7172 20.7439 28.7318 20.7126 28.7448C20.6452 28.773 20.5783 28.8022 20.5135 28.8347C20.4795 28.8526 20.4466 28.8721 20.4131 28.8889C20.3543 28.9219 20.2961 28.9555 20.2405 28.9918C20.2076 29.0129 20.1763 29.0357 20.1444 29.0584C20.0905 29.0963 20.0365 29.1359 19.9869 29.1776C19.9572 29.2014 19.9286 29.2258 19.9005 29.2507C19.8466 29.2957 19.8007 29.3417 19.7532 29.3899C19.7284 29.4148 19.7036 29.4398 19.6799 29.4658C19.6313 29.5199 19.5854 29.5741 19.5406 29.6283C19.5218 29.6526 19.5018 29.6759 19.4834 29.7003C19.4343 29.7658 19.389 29.8336 19.3453 29.9029C19.3345 29.9202 19.3227 29.9365 19.3124 29.9533C19.2417 30.0725 19.1791 30.1965 19.1252 30.3243C19.1036 30.3747 19.082 30.4251 19.0631 30.4765C19.0512 30.5101 19.041 30.5442 19.0302 30.5784C19.0129 30.6325 18.9962 30.6867 18.9822 30.7409C18.973 30.7761 18.9654 30.8113 18.9579 30.8492C18.9455 30.9034 18.9342 30.9575 18.925 31.0117C18.919 31.0474 18.9142 31.0832 18.9099 31.12C18.9029 31.1742 18.8969 31.2327 18.8931 31.2901C18.8931 31.3259 18.8883 31.3616 18.8872 31.3984C18.8872 31.4569 18.8872 31.516 18.8872 31.575C18.8872 31.6097 18.8872 31.6449 18.891 31.6801C18.8948 31.744 18.9023 31.8079 18.9104 31.8724C18.9142 31.9027 18.9163 31.9325 18.9212 31.9629C18.9363 32.0571 18.9552 32.1519 18.9795 32.2462L19.252 33.3127L41.1002 118.122L41.2292 118.621C41.2524 118.712 41.2831 118.799 41.3112 118.885C41.3204 118.911 41.3306 118.936 41.3409 118.961C41.3646 119.023 41.3905 119.084 41.418 119.143C41.4299 119.168 41.4418 119.194 41.4542 119.219C41.4882 119.286 41.5243 119.352 41.5621 119.416C41.5696 119.428 41.5761 119.441 41.5837 119.453C41.629 119.526 41.6781 119.597 41.7294 119.665C41.7477 119.69 41.7677 119.714 41.7871 119.738C41.8211 119.78 41.8562 119.823 41.895 119.863C41.9198 119.891 41.9457 119.917 41.9722 119.947C41.9986 119.976 42.038 120.012 42.0715 120.044C42.1049 120.076 42.1314 120.102 42.1632 120.129C42.2171 120.175 42.2711 120.217 42.3251 120.259C42.3515 120.279 42.379 120.299 42.406 120.318C42.46 120.355 42.5139 120.391 42.5679 120.427C42.5943 120.443 42.6218 120.458 42.6477 120.473C42.7017 120.503 42.7557 120.532 42.8096 120.558C42.8339 120.57 42.8576 120.583 42.8825 120.593C42.9515 120.625 43.0222 120.654 43.0934 120.681C43.1156 120.689 43.1382 120.696 43.1609 120.703C43.2267 120.726 43.2931 120.746 43.3605 120.764L43.4037 120.776C43.4825 120.795 43.5623 120.811 43.6433 120.824L43.7069 120.833C43.789 120.845 43.8688 120.853 43.9541 120.858H43.9956C44.0728 120.861 44.1499 120.86 44.2276 120.858H44.2767C44.362 120.853 44.4478 120.844 44.5336 120.832L44.5875 120.823C44.6766 120.808 44.7656 120.791 44.8541 120.768L112.005 103.335C112.116 103.305 112.226 103.269 112.333 103.226C112.366 103.213 112.398 103.198 112.43 103.184C112.503 103.153 112.574 103.12 112.646 103.083C112.681 103.065 112.714 103.046 112.748 103.029C112.815 102.99 112.88 102.948 112.944 102.905C112.972 102.885 112.998 102.867 113.028 102.846C113.109 102.786 113.187 102.723 113.261 102.655L113.281 102.638C113.363 102.562 113.44 102.481 113.512 102.396C113.527 102.379 113.541 102.36 113.555 102.342C113.609 102.271 113.661 102.199 113.71 102.127Z" fill="#325D9C"/>
</g>
<path id="Vector_15" d="M92.2656 10.8079L114.516 97.1845C114.713 97.9512 114.598 98.7648 114.198 99.447C113.798 100.129 113.144 100.624 112.381 100.823L45.234 118.257C44.4702 118.454 43.6597 118.339 42.9802 117.938C42.3007 117.536 41.8076 116.88 41.6091 116.114L19.355 29.7377C19.2573 29.3578 19.2351 28.9624 19.2896 28.5739C19.3441 28.1854 19.4743 27.8115 19.6728 27.4736C19.8713 27.1356 20.1341 26.8402 20.4463 26.6042C20.7585 26.3682 21.1139 26.1963 21.4923 26.0982L88.6407 8.66665C89.4044 8.46858 90.2153 8.58304 90.895 8.98485C91.5747 9.38666 92.0677 10.043 92.2656 10.8095V10.8079Z" fill="#F70431"/>
<path id="Vector_16" d="M92.2657 10.8079L92.5404 11.8755L89.2241 22.2404L58.4792 30.632L27.5358 38.2566L19.6309 30.8064L19.3552 29.7377C19.2572 29.3578 19.2348 28.9623 19.2892 28.5738C19.3436 28.1852 19.4738 27.8112 19.6723 27.4732C19.8708 27.1352 20.1337 26.8398 20.4461 26.6038C20.7584 26.3679 21.1139 26.1961 21.4924 26.0982L88.6408 8.66666C89.0189 8.56826 89.4126 8.5456 89.7994 8.59996C90.1862 8.65432 90.5585 8.78464 90.8951 8.98348C91.2317 9.18232 91.526 9.44578 91.7612 9.75882C91.9964 10.0719 92.1678 10.4283 92.2657 10.8079Z" fill="#F70431"/>
<path id="Vector_17" d="M114.39 96.6883L114.518 97.1856C114.716 97.9524 114.602 98.7665 114.201 99.4489C113.801 100.131 113.147 100.626 112.383 100.825L45.2341 118.257C44.4702 118.455 43.6593 118.341 42.9795 117.939C42.2997 117.537 41.8068 116.88 41.6091 116.114L41.4807 115.614L43.7837 108.837C43.8843 108.552 44.0525 108.296 44.2738 108.09C44.4951 107.885 44.7628 107.737 45.0538 107.659L107.42 91.4666C107.713 91.3942 108.019 91.3939 108.312 91.4657C108.605 91.5375 108.876 91.6792 109.102 91.8788L114.39 96.6883Z" fill="#F70431"/>
<path id="Vector_18" d="M114.431 98.9563C114.266 99.4114 113.993 99.8193 113.636 100.145C113.278 100.47 112.847 100.703 112.38 100.823L45.2341 118.257C44.7674 118.379 44.2784 118.384 43.8091 118.273C43.3399 118.162 42.9047 117.938 42.541 117.621L43.9439 108.881C43.9904 108.591 44.1202 108.321 44.3175 108.103C44.5147 107.886 44.7708 107.731 45.0544 107.657L107.423 91.465C107.706 91.3913 108.006 91.4022 108.283 91.4963C108.561 91.5903 108.806 91.7635 108.987 91.9948L114.431 98.9563Z" fill="#CF0328"/>
<path id="Vector_19" d="M91.1266 9.13519L89.2704 22.0573C89.2456 22.2365 89.1684 22.4042 89.0485 22.5392C88.9286 22.6742 88.7715 22.7705 88.597 22.8156L28.3612 38.4516C28.187 38.4971 28.0032 38.4897 27.8331 38.4304C27.663 38.3711 27.5143 38.2625 27.4056 38.1184L19.5417 27.7221C19.727 27.3237 19.9977 26.9714 20.3346 26.6904C20.6714 26.4095 21.0661 26.2069 21.4902 26.0971L88.6407 8.66664C89.0639 8.55608 89.5061 8.54075 89.9359 8.62175C90.3656 8.70275 90.7722 8.87807 91.1266 9.13519Z" fill="#CF0328"/>
<path id="Vector_20" d="M62.1467 50.5379C61.5214 50.5371 60.9141 50.3283 60.4197 49.9441C59.9252 49.5599 59.5716 49.022 59.4142 48.4145L53.4896 25.4124C53.3043 24.6852 53.4134 23.914 53.793 23.2673C54.1725 22.6206 54.7918 22.1511 55.5152 21.9614L56.8863 21.6056C57.6106 21.4183 58.3794 21.5272 59.0239 21.9084C59.6684 22.2895 60.1359 22.9117 60.324 23.6385L66.2486 46.6379C66.4342 47.3651 66.3254 48.1365 65.9459 48.7833C65.5663 49.4301 64.9471 49.8997 64.2235 50.0894L62.8524 50.4453C62.622 50.506 62.3849 50.5371 62.1467 50.5379ZM57.5904 22.3244C57.4204 22.3243 57.2511 22.346 57.0865 22.3888L55.7154 22.7447C55.1989 22.8806 54.7568 23.216 54.4858 23.6779C54.2148 24.1397 54.1368 24.6905 54.2688 25.2099L60.195 48.212C60.3295 48.731 60.6635 49.1754 61.1238 49.4476C61.5841 49.7199 62.1332 49.7977 62.6506 49.6642L64.0217 49.3078C64.5381 49.1716 64.9799 48.8361 65.2509 48.3743C65.5219 47.9126 65.6001 47.362 65.4683 46.8426L59.5426 23.841C59.4303 23.407 59.1777 23.0227 58.8244 22.7482C58.4711 22.4738 58.0371 22.3247 57.5904 22.3244Z" fill="#444444"/>
<path id="Vector_21" d="M59.8363 27.8874C61.375 26.3428 61.375 23.8385 59.8363 22.2938C58.2977 20.7492 55.803 20.7492 54.2643 22.2938C52.7256 23.8385 52.7256 26.3428 54.2643 27.8874C55.803 29.4321 58.2977 29.4321 59.8363 27.8874Z" fill="white"/>
<path id="Vector_22" d="M62.8368 51.5058C65.0128 51.5058 66.7768 49.735 66.7768 47.5505C66.7768 45.3661 65.0128 43.5953 62.8368 43.5953C60.6607 43.5953 58.8967 45.3661 58.8967 47.5505C58.8967 49.735 60.6607 51.5058 62.8368 51.5058Z" fill="white"/>
<g id="Vector_23" style="mix-blend-mode:multiply" opacity="0.25">
<path d="M141.558 34.9112L86.3939 29.1419C85.3564 29.0334 84.3185 29.343 83.5084 30.0026C82.6983 30.6623 82.1823 31.618 82.074 32.6595L73.0598 119.481C73.0062 119.997 73.0544 120.519 73.2017 121.016C73.349 121.513 73.5925 121.977 73.9182 122.379C74.2439 122.782 74.6455 123.116 75.1 123.363C75.5545 123.61 76.053 123.765 76.5671 123.818L143.646 130.836C144.16 130.89 144.679 130.842 145.174 130.694C145.669 130.547 146.131 130.302 146.532 129.976C146.933 129.649 147.266 129.246 147.512 128.79C147.758 128.335 147.912 127.835 147.966 127.319L155.736 52.4565L141.558 34.9112Z" fill="#325D9C"/>
</g>
<path id="Vector_24" d="M139.4 33.2428L84.2368 27.4708C83.7228 27.4171 83.2033 27.4656 82.708 27.6135C82.2127 27.7613 81.7513 28.0058 81.3502 28.3327C80.949 28.6597 80.6159 29.0628 80.37 29.519C80.1241 29.9753 79.9701 30.4757 79.9169 30.9917L70.9021 117.814C70.8485 118.33 70.8967 118.851 71.044 119.348C71.1913 119.845 71.4348 120.309 71.7605 120.711C72.0862 121.114 72.4878 121.449 72.9423 121.695C73.3968 121.942 73.8953 122.097 74.4093 122.15L141.489 129.169C142.526 129.277 143.564 128.968 144.374 128.308C145.184 127.648 145.7 126.693 145.809 125.651L153.579 50.7892L139.4 33.2428Z" fill="white"/>
<path id="Vector_25" d="M138.158 45.2046C138.105 45.7203 138.153 46.2416 138.3 46.7386C138.447 47.2357 138.69 47.6988 139.015 48.1015C139.341 48.5042 139.742 48.8386 140.196 49.0856C140.65 49.3326 141.149 49.4875 141.662 49.5412L153.578 50.7871L139.4 33.2428L138.158 45.2046Z" fill="#EDEDED"/>
<path id="Vector_26" d="M141.047 49.4269L153.369 52.801L153.578 50.7881L141.047 49.4269Z" fill="#CECECE"/>
<path id="Vector_27" d="M132.654 51.9051L98.9225 48.3755C98.4844 48.3283 98.0827 48.109 97.8051 47.7654C97.5275 47.4219 97.3965 46.9821 97.4408 46.542C97.4879 46.1022 97.7064 45.699 98.0486 45.4204C98.3908 45.1418 98.829 45.0105 99.2673 45.0551L133.001 48.5846C133.439 48.6323 133.84 48.8517 134.117 49.1951C134.395 49.5385 134.525 49.9779 134.481 50.4176C134.434 50.8576 134.215 51.2609 133.873 51.5396C133.531 51.8183 133.092 51.9497 132.654 51.9051Z" fill="#F70431"/>
<path id="Vector_28" d="M142.501 64.3261L86.7328 58.4912C86.2947 58.444 85.893 58.2247 85.6154 57.8811C85.3378 57.5376 85.2068 57.0978 85.2511 56.6577C85.2982 56.2179 85.5167 55.8147 85.8589 55.5361C86.2011 55.2575 86.6393 55.1262 87.0776 55.1708L142.845 61.0057C143.283 61.0529 143.684 61.2723 143.962 61.6158C144.24 61.9593 144.371 62.3991 144.326 62.8392C144.279 63.2788 144.061 63.6818 143.719 63.9604C143.377 64.239 142.939 64.3704 142.501 64.3261Z" fill="#E4ECF9"/>
<path id="Vector_29" d="M141.623 72.7778L85.8554 66.9424C85.4173 66.8953 85.0156 66.6761 84.738 66.3326C84.4604 65.9892 84.3294 65.5494 84.3737 65.1094C84.4208 64.6696 84.6392 64.2663 84.9814 63.9876C85.3236 63.709 85.7618 63.5775 86.2002 63.622L141.968 69.4574C142.406 69.5044 142.808 69.7236 143.086 70.0671C143.363 70.4106 143.494 70.8504 143.449 71.2904C143.403 71.7302 143.184 72.1336 142.842 72.4123C142.5 72.691 142.062 72.8224 141.623 72.7778Z" fill="#E4ECF9"/>
<path id="Vector_30" d="M140.746 81.229L84.9775 75.3941C84.5394 75.3469 84.1377 75.1275 83.8602 74.784C83.5827 74.4404 83.4519 74.0006 83.4963 73.5606C83.5434 73.1209 83.7618 72.7178 84.1039 72.4392C84.446 72.1606 84.884 72.0292 85.3222 72.0737L141.091 77.9086C141.529 77.9558 141.931 78.1752 142.208 78.5187C142.486 78.8623 142.616 79.3021 142.572 79.7421C142.525 80.1818 142.307 80.5851 141.965 80.8637C141.622 81.1423 141.184 81.2736 140.746 81.229Z" fill="#E4ECF9"/>
<path id="Vector_31" d="M139.869 89.6802L84.1002 83.8453C83.6622 83.798 83.2607 83.5787 82.9832 83.2353C82.7057 82.8919 82.5748 82.4522 82.619 82.0123C82.6659 81.5724 82.8842 81.1691 83.2263 80.8904C83.5685 80.6117 84.0066 80.4802 84.445 80.5248L140.214 86.3603C140.652 86.4074 141.053 86.6266 141.331 86.9701C141.608 87.3135 141.739 87.7533 141.695 88.1933C141.648 88.633 141.429 89.0362 141.087 89.3148C140.745 89.5934 140.307 89.7248 139.869 89.6802Z" fill="#E4ECF9"/>
<path id="Vector_32" d="M138.991 98.1319L83.2207 92.2965C82.7826 92.2495 82.3808 92.0303 82.1033 91.6868C81.8257 91.3433 81.6949 90.9035 81.7395 90.4634C81.7863 90.0236 82.0047 89.6204 82.3468 89.3417C82.689 89.0631 83.1271 88.9318 83.5655 88.9765L139.337 94.8114C139.775 94.8586 140.177 95.0778 140.455 95.4212C140.732 95.7647 140.863 96.2044 140.819 96.6444C140.772 97.0846 140.553 97.4882 140.211 97.767C139.868 98.0457 139.43 98.1769 138.991 98.1319Z" fill="#E4ECF9"/>
<path id="Vector_33" d="M138.113 106.583L82.3453 100.751C81.9073 100.704 81.5057 100.484 81.2281 100.141C80.9505 99.7975 80.8195 99.3579 80.8636 98.9178C80.9106 98.478 81.129 98.0746 81.4712 97.7959C81.8135 97.5172 82.2517 97.3858 82.6901 97.4304L138.458 103.266C138.896 103.313 139.298 103.532 139.576 103.875C139.853 104.219 139.984 104.659 139.94 105.099C139.892 105.538 139.674 105.941 139.331 106.219C138.989 106.497 138.551 106.628 138.113 106.583Z" fill="#E4ECF9"/>
<path id="Vector_34" d="M119.427 116.134C119.412 115.864 119.128 115.701 118.905 115.882C118.607 116.125 118.299 116.365 117.955 116.538L117.457 116.738C117.127 116.912 116.943 116.774 116.905 116.323C117.204 116.049 116.797 115.599 116.487 115.854C116.102 116.169 115.592 116.596 115.048 116.528C114.873 116.497 114.704 116.44 114.547 116.358C114.66 116.271 114.764 116.172 114.858 116.064C114.935 115.973 114.912 115.847 114.875 115.747C114.775 115.47 114.638 115.286 114.531 115.093C115.826 113.796 116.937 112.119 117.453 110.481C117.553 110.165 117.191 109.966 116.947 110.147C115.807 110.994 114.772 112.064 114.098 113.329C113.861 113.776 113.66 114.262 113.744 114.78C113.755 114.832 113.768 114.884 113.785 114.935C113.48 115.224 113.157 115.494 112.818 115.743C112.358 116.073 111.877 116.346 111.336 116.516C110.95 116.636 110.37 116.825 110.105 116.447C110.98 115.955 111.687 115.256 111.311 114.389C110.744 113.081 109.39 115.054 109.32 116.156C108.892 116.351 108.446 116.503 107.988 116.611C107.597 116.707 107.727 117.323 108.121 117.226C108.581 117.109 109.03 116.955 109.466 116.765C110.208 118.079 112.557 116.735 113.351 116.138C113.587 115.959 113.82 115.764 114.052 115.557C114.233 115.882 114.244 115.828 113.795 116.131C113.57 116.284 113.574 116.599 113.839 116.709C114.327 116.913 114.829 117.226 115.372 117.164C115.54 117.14 115.703 117.092 115.857 117.021C115.862 117.063 115.876 117.104 115.898 117.141C115.919 117.178 115.948 117.21 115.983 117.234C116.843 117.8 117.934 117.332 118.762 116.772C118.609 117.771 118.1 118.682 117.331 119.335C116.146 120.31 114.627 120.074 113.238 119.801C112.847 119.724 112.645 120.32 113.038 120.397C114.553 120.695 116.173 120.948 117.511 119.987C118.678 119.145 119.502 117.584 119.427 116.134ZM110.344 114.99C110.83 114.611 110.499 115.328 110.329 115.503C110.218 115.612 110.096 115.709 109.965 115.792C109.977 115.586 110.206 115.096 110.343 114.99L110.344 114.99ZM114.427 114.104C114.544 113.617 114.966 113.075 115.268 112.673C115.603 112.227 115.977 111.813 116.386 111.435C115.865 112.493 115.193 113.468 114.39 114.329C114.397 114.254 114.409 114.179 114.425 114.105L114.427 114.104Z" fill="#E4ECF9"/>
<path id="Vector_35" d="M130.941 122.996C129.768 122.809 128.676 122.277 127.804 121.467C126.932 120.658 126.319 119.607 126.042 118.447C125.765 117.287 125.837 116.072 126.248 114.953C126.66 113.834 127.392 112.863 128.354 112.163C129.315 111.462 130.461 111.064 131.648 111.017C132.835 110.971 134.009 111.279 135.021 111.902C136.034 112.525 136.84 113.436 137.337 114.519C137.834 115.602 138 116.809 137.813 117.986C137.562 119.565 136.697 120.978 135.409 121.918C134.12 122.857 132.514 123.244 130.941 122.996ZM132.62 112.374C131.7 112.227 130.758 112.358 129.912 112.749C129.067 113.14 128.356 113.774 127.869 114.571C127.382 115.367 127.142 116.291 127.178 117.225C127.214 118.159 127.525 119.061 128.072 119.817C128.619 120.574 129.378 121.15 130.251 121.474C131.124 121.798 132.074 121.854 132.979 121.636C133.885 121.418 134.705 120.936 135.337 120.25C135.97 119.564 136.385 118.705 136.531 117.782C136.725 116.544 136.422 115.28 135.689 114.266C134.956 113.252 133.852 112.572 132.62 112.374Z" fill="#E4ECF9"/>
<path id="Vector_36" d="M140.632 112.795L140.591 112.801C140.108 112.881 139.632 112.996 139.166 113.145L138.489 113.366L137.842 113.625C136.992 113.972 136.168 114.38 135.378 114.848C134.574 115.281 133.838 115.804 133.106 116.334C132.697 116.634 132.303 116.953 131.915 117.283C131.696 117.08 131.468 116.882 131.232 116.692C130.917 116.414 130.559 116.167 130.211 115.913C129.845 115.658 129.463 115.428 129.067 115.223L129.03 115.204C129.013 115.196 128.993 115.194 128.975 115.198C128.957 115.202 128.94 115.212 128.928 115.226C128.916 115.241 128.909 115.258 128.907 115.277C128.906 115.296 128.911 115.315 128.922 115.33C129.845 116.688 130.798 118.025 131.752 119.361C131.777 119.395 131.814 119.417 131.856 119.424C131.898 119.431 131.941 119.421 131.975 119.396C133.448 118.348 134.914 117.289 136.361 116.204L138.541 114.589C139.271 114.056 139.981 113.495 140.702 112.95C140.718 112.938 140.729 112.922 140.734 112.903C140.739 112.884 140.738 112.864 140.73 112.846C140.723 112.829 140.709 112.814 140.692 112.804C140.675 112.795 140.656 112.792 140.637 112.795H140.632Z" fill="#F70431"/>
<path id="Vector_37" d="M114.233 14.4268C117.456 14.4268 120.069 11.804 120.069 8.56859C120.069 5.33321 117.456 2.71041 114.233 2.71041C111.01 2.71041 108.397 5.33321 108.397 8.56859C108.397 11.804 111.01 14.4268 114.233 14.4268Z" fill="#325D9C"/>
</g>
</g>
</g>
<defs>
<clipPath id="clip0_322_2534">
<rect width="188" height="145" fill="white"/>
</clipPath>
</defs>
</svg>
