<svg width="188" height="145" viewBox="0 0 188 145" fill="none" xmlns="http://www.w3.org/2000/svg">
<g id="2 &#208;&#157;&#208;&#176;&#208;&#191;&#208;&#184;&#209;&#129;&#208;&#176;&#208;&#189;&#208;&#184;&#208;&#181;" clip-path="url(#clip0_322_2580)">
<g id="Group">
<g id="&#208;&#161;&#208;&#187;&#208;&#190;&#208;&#185; 2">
<g id="Layer 1">
<path id="Vector" d="M99.0355 142.836C138.35 142.836 170.221 110.861 170.221 71.418C170.221 31.9749 138.35 0 99.0355 0C59.721 0 27.8503 31.9749 27.8503 71.418C27.8503 110.861 59.721 142.836 99.0355 142.836Z" fill="#F3F8FF"/>
<path id="Vector_2" d="M173.378 99.4335C170.047 110.729 165.858 121.412 163.099 125.22C162.67 125.812 162.275 126.238 161.925 126.474L161.371 126.454L154.107 126.197L150.54 126.071C150.54 126.071 145.399 94.0113 168.533 70.1695C182.78 55.4883 179.549 78.5116 173.378 99.4335Z" fill="#C4D7F2"/>
<path id="Vector_3" d="M174.418 70.9278C173.294 73.34 172.234 75.7733 171.219 78.2213C170.204 80.6693 169.232 83.1331 168.313 85.6139L167.965 86.5432L167.631 87.477C167.409 88.0999 167.179 88.7193 166.969 89.3458L166.646 90.283C166.538 90.5951 166.429 90.9072 166.327 91.2211L165.705 93.1025L165.108 94.9909C165.005 95.3048 164.914 95.6217 164.819 95.9382L164.536 96.8868C164.444 97.2037 164.342 97.5175 164.253 97.8353L163.984 98.7878C163.807 99.4234 163.619 100.054 163.459 100.695C162.091 105.791 160.996 110.959 160.297 116.188L160.049 118.153C160.026 118.316 160.012 118.48 159.996 118.645L159.95 119.137L159.853 120.122C159.822 120.45 159.786 120.779 159.757 121.108L159.693 122.096L159.625 123.085C159.605 123.415 159.573 123.745 159.567 124.075C159.435 126.717 159.457 129.365 159.544 132.029C159.341 130.716 159.109 129.398 159.004 128.067L158.907 127.07L158.86 126.571L158.832 126.071L158.734 124.067C158.725 123.9 158.718 123.733 158.719 123.566L158.717 123.064L158.711 122.06V121.056C158.719 120.722 158.733 120.388 158.744 120.052L158.78 119.048L158.8 118.546C158.806 118.379 158.811 118.212 158.826 118.045L158.974 116.042C159.436 110.704 160.435 105.418 161.825 100.252C161.99 99.6041 162.185 98.9642 162.367 98.3208L162.645 97.3569C162.738 97.0356 162.839 96.7174 162.939 96.3965L163.24 95.4401C163.341 95.1214 163.438 94.8019 163.547 94.4859L164.187 92.5861L164.864 90.6999L165.035 90.2288L165.214 89.7613L165.573 88.8263C165.809 88.2016 166.059 87.5826 166.31 86.9645L166.689 86.0377L167.081 85.1162C168.129 82.6615 169.258 80.2461 170.468 77.8699C171.077 76.6847 171.7 75.5065 172.36 74.3493C172.523 74.059 172.69 73.7705 172.857 73.4824C173.024 73.1942 173.19 72.9061 173.362 72.6206C173.706 72.0527 174.05 71.4831 174.418 70.9278Z" fill="white"/>
<g id="Vector_4" style="mix-blend-mode:multiply" opacity="0.28">
<path d="M173.378 99.4335C170.047 110.729 165.858 121.412 163.099 125.22C162.4 125.729 161.811 126.147 161.37 126.454C160.81 126.847 160.49 127.06 160.49 127.06L154.036 126.576C154.036 126.576 154.059 126.445 154.106 126.197C154.754 122.816 159.977 97.9894 173.378 99.4335Z" fill="#002E5D"/>
</g>
<path id="Vector_5" d="M156.379 127.475C156.379 127.475 159.546 94.9577 176.345 99.3689C193.145 103.78 162.852 127.475 162.852 127.475H156.379Z" fill="#F70431"/>
<path id="Vector_6" d="M175.694 103.799C174.796 104.702 173.947 105.63 173.118 106.572C172.289 107.513 171.493 108.474 170.722 109.453C170.528 109.696 170.335 109.94 170.149 110.19C169.963 110.44 169.767 110.681 169.584 110.932C169.213 111.43 168.848 111.932 168.488 112.439C168.314 112.696 168.135 112.949 167.957 113.203C167.778 113.457 167.612 113.718 167.44 113.976C167.268 114.233 167.099 114.494 166.931 114.754C166.762 115.015 166.594 115.274 166.435 115.54C165.125 117.649 163.936 119.832 162.876 122.077L162.487 122.927L162.291 123.353L162.105 123.783L161.731 124.643C161.606 124.931 161.495 125.223 161.374 125.513C161.125 126.091 160.911 126.681 160.675 127.269C160.555 127.562 160.451 127.86 160.34 128.157C160.228 128.453 160.116 128.751 159.994 129.047C160.099 127.773 160.295 126.508 160.58 125.262C160.652 124.951 160.721 124.638 160.8 124.327L161.058 123.401C161.101 123.247 161.142 123.091 161.19 122.939L161.34 122.482C161.44 122.176 161.537 121.871 161.644 121.568C162.512 119.145 163.637 116.822 164.999 114.639C165.166 114.364 165.344 114.097 165.521 113.829C165.698 113.561 165.869 113.289 166.06 113.03C166.25 112.77 166.431 112.506 166.621 112.244C166.811 111.982 167.006 111.729 167.202 111.475C167.601 110.973 168.001 110.471 168.425 109.989C168.633 109.744 168.848 109.506 169.064 109.27C169.28 109.033 169.499 108.8 169.723 108.571C170.612 107.65 171.554 106.781 172.544 105.969C173.041 105.568 173.548 105.178 174.071 104.812C174.592 104.443 175.134 104.105 175.694 103.799Z" fill="white"/>
<path id="Vector_7" d="M165.938 141.514H149.005L147.098 125.541H167.845L165.938 141.514Z" fill="#ACC6E5"/>
<g id="Vector_8" style="mix-blend-mode:multiply" opacity="0.2">
<path d="M147.098 125.541L147.329 127.475L167.232 130.671L167.845 125.541H147.098Z" fill="#002E5D"/>
</g>
<path id="Vector_9" d="M136.331 140.503L55.0581 135.815C54.4695 135.781 53.8933 135.631 53.3625 135.373C52.8317 135.116 52.3566 134.756 51.9644 134.314C51.5721 133.873 51.2704 133.358 51.0765 132.799C50.8826 132.241 50.8002 131.649 50.8341 131.059L56.9995 23.4795C57.0333 22.889 57.1827 22.3109 57.4391 21.7783C57.6956 21.2457 58.0541 20.769 58.4943 20.3754C58.9344 19.9818 59.4475 19.6791 60.0042 19.4845C60.561 19.2899 61.1505 19.2072 61.7391 19.2412L143.011 23.9295C143.6 23.9634 144.176 24.1133 144.707 24.3706C145.238 24.6279 145.713 24.9876 146.105 25.4292C146.497 25.8708 146.799 26.3855 146.993 26.9441C147.187 27.5027 147.27 28.0941 147.236 28.6846L141.07 136.265C141.002 137.457 140.464 138.574 139.576 139.368C138.687 140.163 137.52 140.571 136.331 140.503Z" fill="#C4D7F2"/>
<path id="Vector_10" d="M99.0355 145.157C138.35 145.157 170.221 143.462 170.221 141.371C170.221 139.28 138.35 137.585 99.0355 137.585C59.721 137.585 27.8503 139.28 27.8503 141.371C27.8503 143.462 59.721 145.157 99.0355 145.157Z" fill="#D7E4F9"/>
<path id="Vector_11" d="M129.918 129.099L48.8113 136.097C48.2238 136.148 47.6321 136.082 47.07 135.903C46.5079 135.724 45.9864 135.436 45.5354 135.055C45.0843 134.674 44.7125 134.208 44.4411 133.682C44.1697 133.157 44.0041 132.583 43.9538 131.994L34.7487 24.6345C34.6981 24.0451 34.7638 23.4514 34.942 22.8874C35.1202 22.3234 35.4075 21.8001 35.7873 21.3475C36.1671 20.8949 36.6321 20.5218 37.1556 20.2496C37.6792 19.9773 38.2511 19.8112 38.8387 19.7607L119.946 12.7623C120.534 12.7117 121.126 12.7777 121.688 12.9565C122.25 13.1353 122.771 13.4235 123.222 13.8045C123.674 14.1856 124.045 14.652 124.317 15.1773C124.588 15.7025 124.754 16.2762 124.804 16.8657L134.005 124.225C134.107 125.415 133.733 126.597 132.967 127.511C132.2 128.425 131.104 128.996 129.918 129.099Z" fill="#325D9C"/>
<path id="Vector_12" d="M42.5976 89.2261C37.7245 89.2261 32.8718 88.1374 28.3402 85.9758C20.3177 82.1487 14.2611 75.4166 11.2841 67.0191C11.19 66.748 11.2067 66.4505 11.3304 66.1916C11.4542 65.9327 11.675 65.7334 11.9446 65.6372C12.2143 65.541 12.5109 65.5557 12.7698 65.6781C13.0287 65.8005 13.2288 66.0207 13.3265 66.2906C17.8489 79.0537 29.8604 87.0352 42.6481 87.0356C46.1867 87.0346 49.6989 86.4243 53.0318 85.2315C69.1838 79.4693 77.6535 61.601 71.9114 45.3962C71.8638 45.2615 71.843 45.1187 71.8504 44.9759C71.8578 44.8332 71.8931 44.6932 71.9543 44.5642C72.0156 44.4351 72.1016 44.3194 72.2074 44.2237C72.3132 44.128 72.4368 44.0541 72.571 44.0063C72.8422 43.9097 73.1405 43.9252 73.4003 44.0493C73.529 44.1108 73.6443 44.197 73.7397 44.3032C73.8351 44.4094 73.9088 44.5334 73.9564 44.6681C76.9317 53.0651 76.4696 62.1222 72.655 70.1709C68.8405 78.2195 62.1303 84.2956 53.7602 87.2827C50.1774 88.5658 46.4019 89.2231 42.5976 89.2261Z" fill="#BBD1DC"/>
<path id="Vector_13" d="M42.6202 56.9306C42.3712 56.9312 42.1297 56.8453 41.9367 56.6874L12.7982 32.9639C12.575 32.7822 12.4328 32.519 12.4031 32.2321C12.3733 31.9453 12.4583 31.6583 12.6394 31.4343C12.8205 31.2104 13.0829 31.0677 13.3688 31.0379C13.6547 31.008 13.9408 31.0933 14.164 31.275L43.3038 54.9989C43.4777 55.1405 43.6035 55.3327 43.6641 55.5491C43.7247 55.7654 43.717 55.9952 43.6421 56.207C43.5671 56.4187 43.4287 56.602 43.2457 56.7316C43.0627 56.8611 42.8442 56.9307 42.6202 56.9306Z" fill="#325D9C"/>
<path id="Vector_14" d="M121.609 24.143H52.0794C51.4284 24.143 50.7839 24.2717 50.1826 24.5216C49.5812 24.7716 49.0348 25.1379 48.5746 25.5997C48.1144 26.0616 47.7494 26.6098 47.5004 27.2132C47.2514 27.8166 47.1234 28.4633 47.1235 29.1164V135.935C47.123 136.588 47.2508 137.235 47.4997 137.839C47.7485 138.442 48.1135 138.991 48.5738 139.453C49.0341 139.915 49.5806 140.282 50.1822 140.532C50.7838 140.782 51.4286 140.911 52.0798 140.911H132.554C133.205 140.911 133.85 140.782 134.451 140.532C135.053 140.282 135.599 139.915 136.06 139.453C136.52 138.991 136.885 138.442 137.134 137.839C137.383 137.235 137.51 136.588 137.51 135.935V40.0963L121.609 24.143Z" fill="white"/>
<g id="Vector_15" style="mix-blend-mode:multiply" opacity="0.25">
<path d="M123.146 40.0959L137.51 44.9894V40.0959H123.146Z" fill="#002E5D"/>
</g>
<path id="Vector_16" d="M112.488 40.0963H72.1455C70.7987 40.0963 69.7068 41.1917 69.7068 42.5428C69.7068 43.894 70.7987 44.9894 72.1455 44.9894H112.488C113.835 44.9894 114.927 43.894 114.927 42.5428C114.927 41.1917 113.835 40.0963 112.488 40.0963Z" fill="#C4D7F2"/>
<path id="Vector_17" d="M77.7557 59.9264V64.6955H71.8048V84.0376H66.1002V64.6955H60.114V59.9264H77.7557Z" fill="#C4D7F2"/>
<path id="Vector_18" d="M124.404 60.6969H88.6572C87.6025 60.6969 86.7476 61.5547 86.7476 62.6128V62.7521C86.7476 63.8102 87.6025 64.668 88.6572 64.668H124.404C125.459 64.668 126.314 63.8102 126.314 62.7521V62.6128C126.314 61.5547 125.459 60.6969 124.404 60.6969Z" fill="#C4D7F2"/>
<path id="Vector_19" d="M124.404 69.9962H88.6572C87.6025 69.9962 86.7476 70.854 86.7476 71.9122V72.0514C86.7476 73.1096 87.6025 73.9673 88.6572 73.9673H124.404C125.459 73.9673 126.314 73.1096 126.314 72.0514V71.9122C126.314 70.854 125.459 69.9962 124.404 69.9962Z" fill="#C4D7F2"/>
<path id="Vector_20" d="M124.404 79.2956H88.6572C87.6025 79.2956 86.7476 80.1534 86.7476 81.2115V81.3508C86.7476 82.4089 87.6025 83.2667 88.6572 83.2667H124.404C125.459 83.2667 126.314 82.4089 126.314 81.3508V81.2115C126.314 80.1534 125.459 79.2956 124.404 79.2956Z" fill="#C4D7F2"/>
<path id="Vector_21" d="M124.334 94.4335H68.6761C67.5829 94.4335 66.6968 95.3224 66.6968 96.419C66.6968 97.5156 67.5829 98.4046 68.6761 98.4046H124.334C125.427 98.4046 126.313 97.5156 126.313 96.419C126.313 95.3224 125.427 94.4335 124.334 94.4335Z" fill="#C4D7F2"/>
<path id="Vector_22" d="M124.334 106.496H60.2994C59.2062 106.496 58.3201 107.385 58.3201 108.482C58.3201 109.578 59.2062 110.467 60.2994 110.467H124.334C125.427 110.467 126.313 109.578 126.313 108.482C126.313 107.385 125.427 106.496 124.334 106.496Z" fill="#C4D7F2"/>
<path id="Vector_23" d="M124.334 118.558H60.2994C59.2062 118.558 58.3201 119.447 58.3201 120.544C58.3201 121.64 59.2062 122.529 60.2994 122.529H124.334C125.427 122.529 126.313 121.64 126.313 120.544C126.313 119.447 125.427 118.558 124.334 118.558Z" fill="#C4D7F2"/>
<g id="Vector_24" style="mix-blend-mode:multiply" opacity="0.25">
<path d="M121.609 38.5536L119.045 24.143H121.609V38.5536Z" fill="#002E5D"/>
</g>
<path id="Vector_25" d="M78.6956 88.7189H76.8281C76.67 88.7189 76.5184 88.6559 76.4066 88.5437C76.2948 88.4316 76.232 88.2795 76.232 88.1209C76.232 87.9622 76.2948 87.8101 76.4066 87.698C76.5184 87.5858 76.67 87.5228 76.8281 87.5228H78.703C78.8611 87.5228 79.0127 87.5858 79.1245 87.698C79.2363 87.8101 79.2991 87.9622 79.2991 88.1209C79.2991 88.2795 79.2363 88.4316 79.1245 88.5437C79.0127 88.6559 78.8611 88.7189 78.703 88.7189H78.6956ZM74.9606 88.7189H73.0932C72.9351 88.7189 72.7835 88.6559 72.6717 88.5437C72.5599 88.4316 72.4971 88.2795 72.4971 88.1209C72.4971 87.9622 72.5599 87.8101 72.6717 87.698C72.7835 87.5858 72.9351 87.5228 73.0932 87.5228H74.9611C75.1192 87.5228 75.2708 87.5858 75.3826 87.698C75.4944 87.8101 75.5572 87.9622 75.5572 88.1209C75.5572 88.2795 75.4944 88.4316 75.3826 88.5437C75.2708 88.6559 75.1192 88.7189 74.9611 88.7189H74.9606ZM71.2253 88.7189H69.3578C69.1997 88.7189 69.0481 88.6559 68.9363 88.5437C68.8245 88.4316 68.7617 88.2795 68.7617 88.1209C68.7617 87.9622 68.8245 87.8101 68.9363 87.698C69.0481 87.5858 69.1997 87.5228 69.3578 87.5228H71.2253C71.3834 87.5228 71.535 87.5858 71.6468 87.698C71.7586 87.8101 71.8214 87.9622 71.8214 88.1209C71.8214 88.2795 71.7586 88.4316 71.6468 88.5437C71.535 88.6559 71.3834 88.7189 71.2253 88.7189ZM67.4904 88.7189H65.6229C65.4648 88.7189 65.3132 88.6559 65.2014 88.5437C65.0896 88.4316 65.0268 88.2795 65.0268 88.1209C65.0268 87.9622 65.0896 87.8101 65.2014 87.698C65.3132 87.5858 65.4648 87.5228 65.6229 87.5228H67.4904C67.6484 87.5228 67.8001 87.5858 67.9119 87.698C68.0236 87.8101 68.0864 87.9622 68.0864 88.1209C68.0864 88.2795 68.0236 88.4316 67.9119 88.5437C67.8001 88.6559 67.6484 88.7189 67.4904 88.7189ZM63.7554 88.7189H61.888C61.7299 88.7189 61.5782 88.6559 61.4665 88.5437C61.3547 88.4316 61.2919 88.2795 61.2919 88.1209C61.2919 87.9622 61.3547 87.8101 61.4665 87.698C61.5782 87.5858 61.7299 87.5228 61.888 87.5228H63.7554C63.9135 87.5228 64.0651 87.5858 64.1769 87.698C64.2887 87.8101 64.3515 87.9622 64.3515 88.1209C64.3515 88.2795 64.2887 88.4316 64.1769 88.5437C64.0651 88.6559 63.9135 88.7189 63.7554 88.7189ZM60.0205 88.7189H59.1747C58.7379 88.7181 58.3075 88.6134 57.9189 88.4133C57.8482 88.3781 57.7852 88.3292 57.7335 88.2693C57.6818 88.2095 57.6425 88.1399 57.6178 88.0647C57.5931 87.9895 57.5836 87.9101 57.5897 87.8312C57.5959 87.7522 57.6176 87.6753 57.6536 87.6048C57.6896 87.5344 57.7392 87.4718 57.7995 87.4207C57.8598 87.3696 57.9296 87.3311 58.0049 87.3073C58.0802 87.2835 58.1594 87.2749 58.2381 87.2821C58.3167 87.2893 58.3931 87.312 58.4628 87.3491C58.683 87.4625 58.9271 87.5213 59.1747 87.5206H60.0205C60.1786 87.5206 60.3302 87.5836 60.442 87.6958C60.5538 87.8079 60.6166 87.9601 60.6166 88.1187C60.6166 88.2773 60.5538 88.4294 60.442 88.5415C60.3302 88.6537 60.1786 88.7167 60.0205 88.7167V88.7189ZM80.3437 87.9519C80.2301 87.9517 80.1189 87.919 80.0231 87.8575C79.9274 87.7961 79.8512 87.7085 79.8034 87.605C79.7556 87.5015 79.7383 87.3865 79.7535 87.2735C79.7687 87.1605 79.8157 87.0542 79.8891 86.9671C80.1282 86.684 80.2594 86.325 80.2593 85.9539V85.6047C80.2593 85.4461 80.3221 85.294 80.4339 85.1818C80.5457 85.0697 80.6973 85.0067 80.8554 85.0067C81.0135 85.0067 81.1651 85.0697 81.2769 85.1818C81.3887 85.294 81.4515 85.4461 81.4515 85.6047V85.9539C81.4513 86.6082 81.2201 87.2412 80.7989 87.7406C80.7428 87.8069 80.6731 87.8601 80.5945 87.8966C80.5159 87.9331 80.4303 87.952 80.3437 87.9519ZM57.0727 87.054C56.9385 87.0539 56.8083 87.0083 56.7031 86.9247C56.5979 86.8412 56.524 86.7244 56.4931 86.5934C56.4435 86.3839 56.4186 86.1693 56.4187 85.9539V84.5867C56.4187 84.4281 56.4815 84.276 56.5933 84.1638C56.7051 84.0517 56.8567 83.9887 57.0148 83.9887C57.1729 83.9887 57.3245 84.0517 57.4363 84.1638C57.5481 84.276 57.6109 84.4281 57.6109 84.5867V85.9522C57.6113 86.0747 57.6259 86.1967 57.6544 86.3158C57.6909 86.4701 57.6647 86.6327 57.5817 86.7677C57.4987 86.9027 57.3657 86.9991 57.2119 87.0356C57.1664 87.0472 57.1196 87.0533 57.0727 87.054ZM80.8554 84.3274C80.6973 84.3274 80.5457 84.2644 80.4339 84.1523C80.3221 84.0401 80.2593 83.888 80.2593 83.7294V81.8558C80.2593 81.6972 80.3221 81.5451 80.4339 81.4329C80.5457 81.3208 80.6973 81.2578 80.8554 81.2578C81.0135 81.2578 81.1651 81.3208 81.2769 81.4329C81.3887 81.5451 81.4515 81.6972 81.4515 81.8558V83.7294C81.4515 83.8079 81.4361 83.8857 81.4062 83.9583C81.3762 84.0308 81.3323 84.0967 81.2769 84.1523C81.2216 84.2078 81.1559 84.2519 81.0835 84.2819C81.0112 84.312 80.9337 84.3274 80.8554 84.3274ZM57.0148 83.3112C56.8567 83.3112 56.7051 83.2482 56.5933 83.136C56.4815 83.0239 56.4187 82.8718 56.4187 82.7132V80.8396C56.4187 80.681 56.4815 80.5289 56.5933 80.4167C56.7051 80.3045 56.8567 80.2415 57.0148 80.2415C57.1729 80.2415 57.3245 80.3045 57.4363 80.4167C57.5481 80.5289 57.6109 80.681 57.6109 80.8396V82.7132C57.6109 82.7917 57.5955 82.8695 57.5655 82.942C57.5356 83.0146 57.4917 83.0805 57.4363 83.136C57.3809 83.1916 57.3152 83.2356 57.2429 83.2657C57.1706 83.2957 57.0931 83.3112 57.0148 83.3112ZM80.8554 80.5803C80.6973 80.5803 80.5457 80.5173 80.4339 80.4051C80.3221 80.293 80.2593 80.1409 80.2593 79.9822V78.1087C80.2593 77.9501 80.3221 77.7979 80.4339 77.6858C80.5457 77.5736 80.6973 77.5106 80.8554 77.5106C81.0135 77.5106 81.1651 77.5736 81.2769 77.6858C81.3887 77.7979 81.4515 77.9501 81.4515 78.1087V79.9822C81.4515 80.0608 81.4361 80.1385 81.4062 80.2111C81.3762 80.2837 81.3323 80.3496 81.2769 80.4051C81.2216 80.4607 81.1559 80.5047 81.0835 80.5348C81.0112 80.5648 80.9337 80.5803 80.8554 80.5803ZM57.0148 79.5641C56.9365 79.5641 56.859 79.5486 56.7867 79.5185C56.7144 79.4885 56.6486 79.4444 56.5933 79.3889C56.5379 79.3334 56.494 79.2674 56.4641 79.1949C56.4341 79.1223 56.4187 79.0445 56.4187 78.966V77.0907C56.4187 76.9321 56.4815 76.78 56.5933 76.6678C56.7051 76.5557 56.8567 76.4926 57.0148 76.4926C57.1729 76.4926 57.3245 76.5557 57.4363 76.6678C57.5481 76.78 57.6109 76.9321 57.6109 77.0907V78.9678C57.6104 79.1261 57.5474 79.2777 57.4357 79.3895C57.3239 79.5013 57.1726 79.5641 57.0148 79.5641ZM80.8554 76.8331C80.7772 76.8331 80.6996 76.8177 80.6273 76.7876C80.555 76.7576 80.4893 76.7135 80.4339 76.658C80.3786 76.6024 80.3347 76.5365 80.3047 76.464C80.2748 76.3914 80.2593 76.3136 80.2593 76.2351V74.3615C80.2593 74.2029 80.3221 74.0508 80.4339 73.9386C80.5457 73.8265 80.6973 73.7635 80.8554 73.7635C81.0135 73.7635 81.1651 73.8265 81.2769 73.9386C81.3887 74.0508 81.4515 74.2029 81.4515 74.3615V76.2351C81.4515 76.3136 81.4361 76.3914 81.4062 76.464C81.3762 76.5365 81.3323 76.6024 81.2769 76.658C81.2216 76.7135 81.1559 76.7576 81.0835 76.7876C81.0112 76.8177 80.9337 76.8331 80.8554 76.8331ZM57.0148 75.8169C56.8567 75.8169 56.7051 75.7539 56.5933 75.6417C56.4815 75.5296 56.4187 75.3775 56.4187 75.2189V73.3453C56.4187 73.1867 56.4815 73.0346 56.5933 72.9224C56.7051 72.8103 56.8567 72.7472 57.0148 72.7472C57.1729 72.7472 57.3245 72.8103 57.4363 72.9224C57.5481 73.0346 57.6109 73.1867 57.6109 73.3453V75.2189C57.6109 75.2974 57.5955 75.3752 57.5655 75.4477C57.5356 75.5203 57.4917 75.5862 57.4363 75.6417C57.3809 75.6973 57.3152 75.7413 57.2429 75.7714C57.1706 75.8014 57.0931 75.8169 57.0148 75.8169ZM80.8554 73.086C80.6973 73.086 80.5457 73.023 80.4339 72.9108C80.3221 72.7987 80.2593 72.6466 80.2593 72.4879V70.6144C80.2593 70.4558 80.3221 70.3036 80.4339 70.1915C80.5457 70.0793 80.6973 70.0163 80.8554 70.0163C81.0135 70.0163 81.1651 70.0793 81.2769 70.1915C81.3887 70.3036 81.4515 70.4558 81.4515 70.6144V72.4879C81.4515 72.5665 81.4361 72.6442 81.4062 72.7168C81.3762 72.7894 81.3323 72.8553 81.2769 72.9108C81.2216 72.9664 81.1559 73.0104 81.0835 73.0405C81.0112 73.0705 80.9337 73.086 80.8554 73.086ZM57.0148 72.0706C56.8567 72.0706 56.7051 72.0076 56.5933 71.8955C56.4815 71.7833 56.4187 71.6312 56.4187 71.4726V69.599C56.4187 69.4404 56.4815 69.2883 56.5933 69.1761C56.7051 69.064 56.8567 69.001 57.0148 69.001C57.1729 69.001 57.3245 69.064 57.4363 69.1761C57.5481 69.2883 57.6109 69.4404 57.6109 69.599V71.4726C57.6109 71.6312 57.5481 71.7833 57.4363 71.8955C57.3245 72.0076 57.1729 72.0706 57.0148 72.0706ZM80.8554 69.3397C80.6973 69.3397 80.5457 69.2767 80.4339 69.1645C80.3221 69.0524 80.2593 68.9003 80.2593 68.7417V66.8672C80.2593 66.7086 80.3221 66.5565 80.4339 66.4443C80.5457 66.3322 80.6973 66.2692 80.8554 66.2692C81.0135 66.2692 81.1651 66.3322 81.2769 66.4443C81.3887 66.5565 81.4515 66.7086 81.4515 66.8672V68.7408C81.4515 68.8994 81.3887 69.0515 81.2769 69.1637C81.1651 69.2758 81.0135 69.3388 80.8554 69.3388V69.3397ZM57.0148 68.3235C56.8567 68.3235 56.7051 68.2605 56.5933 68.1483C56.4815 68.0362 56.4187 67.884 56.4187 67.7254V65.8519C56.4187 65.6933 56.4815 65.5411 56.5933 65.429C56.7051 65.3168 56.8567 65.2538 57.0148 65.2538C57.1729 65.2538 57.3245 65.3168 57.4363 65.429C57.5481 65.5411 57.6109 65.6933 57.6109 65.8519V67.7254C57.6107 67.8839 57.5478 68.0358 57.436 68.1477C57.3242 68.2597 57.1727 68.3226 57.0148 68.3226V68.3235ZM80.8554 65.5926C80.6973 65.5926 80.5457 65.5296 80.4339 65.4174C80.3221 65.3052 80.2593 65.1531 80.2593 64.9945V63.1218C80.2593 62.9632 80.3221 62.8111 80.4339 62.6989C80.5457 62.5868 80.6973 62.5238 80.8554 62.5238C81.0135 62.5238 81.1651 62.5868 81.2769 62.6989C81.3887 62.8111 81.4515 62.9632 81.4515 63.1218V64.9954C81.4511 65.1537 81.3881 65.3054 81.2763 65.4171C81.1646 65.5289 81.0132 65.5917 80.8554 65.5917V65.5926ZM57.0148 64.5763C56.8567 64.5763 56.7051 64.5133 56.5933 64.4012C56.4815 64.289 56.4187 64.1369 56.4187 63.9783V62.1047C56.4187 61.9461 56.4815 61.794 56.5933 61.6818C56.7051 61.5697 56.8567 61.5067 57.0148 61.5067C57.1729 61.5067 57.3245 61.5697 57.4363 61.6818C57.5481 61.794 57.6109 61.9461 57.6109 62.1047V63.9783C57.6107 64.1367 57.5478 64.2886 57.436 64.4006C57.3242 64.5126 57.1727 64.5755 57.0148 64.5755V64.5763ZM80.8554 61.8454C80.7772 61.8454 80.6996 61.8299 80.6273 61.7999C80.555 61.7698 80.4893 61.7258 80.4339 61.6702C80.3786 61.6147 80.3347 61.5488 80.3047 61.4762C80.2748 61.4037 80.2593 61.3259 80.2593 61.2474V59.3738C80.2593 59.2152 80.3221 59.0631 80.4339 58.9509C80.5457 58.8388 80.6973 58.7758 80.8554 58.7758C81.0135 58.7758 81.1651 58.8388 81.2769 58.9509C81.3887 59.0631 81.4515 59.2152 81.4515 59.3738V61.2448C81.4517 61.3234 81.4364 61.4014 81.4065 61.4741C81.3767 61.5468 81.3328 61.6129 81.2774 61.6686C81.2221 61.7243 81.1563 61.7686 81.0839 61.7987C81.0115 61.8289 80.9338 61.8445 80.8554 61.8445V61.8454ZM57.0148 60.8292C56.8567 60.8292 56.7051 60.7662 56.5933 60.654C56.4815 60.5419 56.4187 60.3897 56.4187 60.2311V58.3576C56.4187 58.199 56.4815 58.0468 56.5933 57.9347C56.7051 57.8225 56.8567 57.7595 57.0148 57.7595C57.1729 57.7595 57.3245 57.8225 57.4363 57.9347C57.5481 58.0468 57.6109 58.199 57.6109 58.3576V60.2311C57.6107 60.3896 57.5478 60.5415 57.436 60.6535C57.3242 60.7654 57.1727 60.8283 57.0148 60.8283V60.8292ZM80.7954 58.1018C80.6615 58.1016 80.5316 58.0563 80.4266 57.9731C80.3215 57.8898 80.2474 57.7736 80.2163 57.643C80.1635 57.4222 80.0635 57.2156 79.9234 57.0375C79.7832 56.8593 79.6061 56.7138 79.4044 56.611C79.3346 56.5753 79.2726 56.5262 79.2218 56.4665C79.1709 56.4067 79.1323 56.3375 79.1082 56.2628C79.084 56.1881 79.0748 56.1094 79.0809 56.0311C79.0871 55.9528 79.1086 55.8765 79.1442 55.8065C79.1797 55.7365 79.2287 55.6743 79.2882 55.6233C79.3478 55.5723 79.4168 55.5336 79.4912 55.5094C79.5657 55.4851 79.6442 55.4758 79.7222 55.482C79.8003 55.4882 79.8763 55.5098 79.9461 55.5455C80.3014 55.7267 80.6133 55.9833 80.8602 56.2973C81.107 56.6114 81.283 56.9755 81.3758 57.3645C81.394 57.4408 81.397 57.5201 81.3847 57.5976C81.3724 57.6752 81.345 57.7496 81.304 57.8165C81.263 57.8834 81.2093 57.9416 81.1459 57.9877C81.0826 58.0338 81.0108 58.0669 80.9346 58.0852C80.889 58.0962 80.8423 58.1018 80.7954 58.1018ZM57.5287 57.2043C57.4148 57.2042 57.3034 57.1715 57.2075 57.11C57.1116 57.0485 57.0353 56.9607 56.9876 56.857C56.9399 56.7533 56.9227 56.6381 56.9382 56.525C56.9536 56.4119 57.0011 56.3055 57.0748 56.2186C57.3329 55.9139 57.6538 55.6691 58.0153 55.5009C58.3769 55.3328 58.7705 55.2454 59.169 55.2447C59.3271 55.2447 59.4787 55.3077 59.5905 55.4198C59.7023 55.532 59.7651 55.6841 59.7651 55.8427C59.7651 56.0013 59.7023 56.1535 59.5905 56.2656C59.4787 56.3778 59.3271 56.4408 59.169 56.4408C58.9428 56.4412 58.7193 56.4908 58.5141 56.5863C58.3088 56.6818 58.1267 56.8208 57.9803 56.9939C57.9247 57.0597 57.8555 57.1127 57.7776 57.1491C57.6996 57.1855 57.6147 57.2045 57.5287 57.2047V57.2043ZM77.845 56.443H75.9775C75.8194 56.443 75.6678 56.3799 75.556 56.2678C75.4442 56.1556 75.3814 56.0035 75.3814 55.8449C75.3814 55.6863 75.4442 55.5342 75.556 55.422C75.6678 55.3099 75.8194 55.2469 75.9775 55.2469H77.845C78.003 55.2469 78.1547 55.3099 78.2665 55.422C78.3782 55.5342 78.441 55.6863 78.441 55.8449C78.441 56.0035 78.3782 56.1556 78.2665 56.2678C78.1547 56.3799 78.003 56.443 77.845 56.443ZM74.11 56.443H72.2426C72.0845 56.443 71.9328 56.3799 71.8211 56.2678C71.7093 56.1556 71.6465 56.0035 71.6465 55.8449C71.6465 55.6863 71.7093 55.5342 71.8211 55.422C71.9328 55.3099 72.0845 55.2469 72.2426 55.2469H74.11C74.2681 55.2469 74.4197 55.3099 74.5315 55.422C74.6433 55.5342 74.7061 55.6863 74.7061 55.8449C74.7061 56.0035 74.6433 56.1556 74.5315 56.2678C74.4197 56.3799 74.2681 56.443 74.11 56.443ZM70.3751 56.443H68.5076C68.3495 56.443 68.1979 56.3799 68.0861 56.2678C67.9743 56.1556 67.9115 56.0035 67.9115 55.8449C67.9115 55.6863 67.9743 55.5342 68.0861 55.422C68.1979 55.3099 68.3495 55.2469 68.5076 55.2469H70.3751C70.5332 55.2469 70.6848 55.3099 70.7966 55.422C70.9084 55.5342 70.9712 55.6863 70.9712 55.8449C70.9712 56.0035 70.9084 56.1556 70.7966 56.2678C70.6848 56.3799 70.5332 56.443 70.3751 56.443ZM66.6402 56.443H64.7727C64.6146 56.443 64.463 56.3799 64.3512 56.2678C64.2394 56.1556 64.1766 56.0035 64.1766 55.8449C64.1766 55.6863 64.2394 55.5342 64.3512 55.422C64.463 55.3099 64.6146 55.2469 64.7727 55.2469H66.6402C66.7983 55.2469 66.9499 55.3099 67.0617 55.422C67.1735 55.5342 67.2362 55.6863 67.2362 55.8449C67.2362 56.0035 67.1735 56.1556 67.0617 56.2678C66.9499 56.3799 66.7983 56.443 66.6402 56.443ZM62.9052 56.443H61.0378C60.8797 56.443 60.7281 56.3799 60.6163 56.2678C60.5045 56.1556 60.4417 56.0035 60.4417 55.8449C60.4417 55.6863 60.5045 55.5342 60.6163 55.422C60.7281 55.3099 60.8797 55.2469 61.0378 55.2469H62.9052C63.0633 55.2469 63.2149 55.3099 63.3267 55.422C63.4385 55.5342 63.5013 55.6863 63.5013 55.8449C63.5013 56.0035 63.4385 56.1556 63.3267 56.2678C63.2149 56.3799 63.0633 56.443 62.9052 56.443Z" fill="#C4D7F2"/>
<path id="Vector_26" d="M123.146 40.0963H137.51L121.609 24.143V38.5536C121.609 38.9627 121.771 39.355 122.059 39.6443C122.347 39.9336 122.738 40.0962 123.146 40.0963Z" fill="white"/>
<path id="Vector_27" d="M130.101 114.519H86.2056V102.667H130.101V114.519ZM87.2894 113.432H129.016V103.755H87.2894V113.432Z" fill="#F70431"/>
<path id="Vector_28" d="M108.695 132.041H73.2058V130.953H107.612V113.975H108.695V132.041Z" fill="#F70431"/>
<path id="Vector_29" d="M77.0303 132.015C77.312 130.274 76.1336 128.634 74.3982 128.351C72.6629 128.068 71.0278 129.251 70.7461 130.992C70.4644 132.733 71.6429 134.373 73.3782 134.656C75.1135 134.938 76.7486 133.756 77.0303 132.015Z" fill="#F70431"/>
<path id="Vector_30" d="M19.6873 112.127C19.5089 112.127 19.3332 112.083 19.1758 111.998C19.0185 111.914 18.8844 111.792 18.7854 111.643C18.6864 111.494 18.6256 111.323 18.6083 111.144C18.5911 110.966 18.618 110.787 18.6866 110.621L41.6205 55.425C41.7311 55.1587 41.9426 54.9474 42.2085 54.8376C42.4744 54.7278 42.7728 54.7284 43.0383 54.8394C43.3037 54.9503 43.5143 55.1625 43.6237 55.4293C43.7332 55.6961 43.7326 55.9955 43.622 56.2618L20.6881 111.458C20.6058 111.656 20.4668 111.826 20.2887 111.945C20.1106 112.064 19.9014 112.127 19.6873 112.127Z" fill="#325D9C"/>
<g id="Vector_31" style="mix-blend-mode:multiply" opacity="0.22">
<path d="M60.99 75.3291C69.9034 66.3865 69.9034 51.8877 60.99 42.9452C52.0766 34.0026 37.6251 34.0026 28.7117 42.9452C19.7983 51.8877 19.7983 66.3865 28.7117 75.3291C37.6251 84.2717 52.0766 84.2717 60.99 75.3291Z" fill="#002E5D"/>
</g>
<path id="Vector_32" d="M42.5181 78.5902C55.1236 78.5902 65.3423 68.338 65.3423 55.6913C65.3423 43.0445 55.1236 32.7924 42.5181 32.7924C29.9126 32.7924 19.6938 43.0445 19.6938 55.6913C19.6938 68.338 29.9126 78.5902 42.5181 78.5902Z" fill="#BBD1DC"/>
<path id="Vector_33" d="M51.9075 48.6793C51.9049 48.6719 51.9019 48.6645 51.8993 48.6566C51.8906 48.6335 51.8814 48.613 51.871 48.5898L51.8605 48.5689C51.8477 48.5432 51.8331 48.5184 51.817 48.4947C51.8163 48.4929 51.8152 48.4913 51.814 48.4899C51.7959 48.4644 51.7762 48.4402 51.7548 48.4174C51.7536 48.4156 51.7521 48.414 51.7504 48.4126L43.6701 39.9344L43.6645 39.9287L42.3592 38.5611C41.8244 37.9997 41.033 37.8321 40.2428 38.1127C39.4527 38.3934 38.8283 39.0635 38.5733 39.9056L37.9516 41.9572L37.949 41.9651L34.0948 54.6811C34.0948 54.6837 34.0948 54.6859 34.0948 54.6886C34.0848 54.722 34.0767 54.7559 34.0704 54.7903C34.0704 54.7903 34.0704 54.7946 34.0704 54.7968C34.0652 54.8278 34.0617 54.8588 34.0596 54.8902V54.9155C34.0596 54.9413 34.0596 54.9666 34.0596 54.9924V55.0177C34.062 55.0501 34.0664 55.0823 34.0726 55.1142L36.9008 69.2947C36.9878 69.7313 37.4046 69.9639 37.831 69.8125C38.2575 69.661 38.5329 69.1834 38.4459 68.746L35.7765 55.3573L39.3596 54.0857L40.8663 61.645C40.9534 62.0816 41.3702 62.3142 41.797 62.1628C42.2239 62.0113 42.4988 61.5337 42.4114 61.0963L40.9042 53.5374L45.1682 52.0231L47.7236 64.84C47.8106 65.2765 48.2274 65.5092 48.6538 65.3577C49.0802 65.2062 49.3556 64.7287 49.2686 64.2913L46.7128 51.4731L50.5452 50.1133L54.0839 67.8612C54.1709 68.2977 54.5878 68.5304 55.0142 68.3789C55.4406 68.2274 55.716 67.7503 55.629 67.3125L51.9306 48.7727C51.9247 48.7412 51.917 48.71 51.9075 48.6793ZM40.0727 40.2225C40.1072 40.1026 40.1696 39.9926 40.2547 39.9015C40.3398 39.8105 40.4451 39.7409 40.5622 39.6986C40.6736 39.6589 40.9568 39.5926 41.1827 39.8296L42.1977 40.8952L41.713 42.4942C41.6785 42.6141 41.6161 42.7241 41.5309 42.8152C41.4457 42.9063 41.3402 42.9758 41.2231 43.018C41.1117 43.0577 40.8285 43.1241 40.6022 42.887L39.5871 41.8228L40.0723 40.2225H40.0727ZM36.0262 53.5723L39.0115 43.7234L39.4244 44.1569C39.9596 44.7174 40.7506 44.885 41.5407 44.6043C42.3309 44.3236 42.9548 43.654 43.2107 42.812L43.4073 42.1624L49.6654 48.7291L36.0262 53.5723Z" fill="#A3B7C1"/>
<path id="Vector_34" d="M49.1313 49.3865C49.1278 49.3791 49.1234 49.3721 49.1195 49.3647C49.1076 49.3425 49.095 49.3212 49.0817 49.3005C49.0769 49.2935 49.0725 49.2865 49.0678 49.28C49.0505 49.2553 49.0319 49.2315 49.0121 49.2088L49.0081 49.204C48.9858 49.1796 48.9621 49.1564 48.9372 49.1346L48.932 49.1298L39.4293 41.0074L39.4228 41.0017L37.8899 39.6921C37.5844 39.4309 37.2157 39.2549 36.8209 39.182C36.4262 39.109 36.0192 39.1416 35.641 39.2765C35.2627 39.4114 34.9265 39.6439 34.6662 39.9505C34.4059 40.257 34.2307 40.627 34.1581 41.0231L33.7934 43.0106C33.7932 43.0132 33.7932 43.0158 33.7934 43.0184L31.5331 55.3364C31.5333 55.3387 31.5333 55.341 31.5331 55.3433C31.527 55.3761 31.523 55.4092 31.5213 55.4424V55.4481C31.5196 55.4783 31.5196 55.5087 31.5213 55.5389C31.5213 55.5472 31.5213 55.5551 31.5213 55.5634C31.5237 55.5883 31.5273 55.613 31.5322 55.6376C31.5322 55.6454 31.5348 55.6537 31.537 55.662C31.5439 55.6935 31.5526 55.7245 31.5631 55.755L36.411 69.431C36.4828 69.6336 36.6319 69.7993 36.8254 69.8916C37.019 69.9839 37.2411 69.9954 37.4431 69.9234C37.645 69.8513 37.8102 69.7018 37.9022 69.5076C37.9943 69.3134 38.0057 69.0905 37.9339 68.8879L33.3583 55.975L36.8914 54.7147L39.4746 62.0048C39.5101 62.1051 39.565 62.1974 39.6361 62.2764C39.7072 62.3555 39.7931 62.4197 39.889 62.4654C39.9848 62.5111 40.0887 62.5375 40.1947 62.5429C40.3006 62.5484 40.4067 62.5328 40.5066 62.4971C40.6066 62.4615 40.6987 62.4064 40.7774 62.3351C40.8562 62.2638 40.9202 62.1776 40.9658 62.0814C41.0114 61.9853 41.0376 61.881 41.0431 61.7747C41.0485 61.6684 41.033 61.562 40.9974 61.4617L38.4125 54.173L42.616 52.674L46.9962 65.0369C47.068 65.2395 47.2171 65.4052 47.4106 65.4975C47.6042 65.5899 47.8263 65.6013 48.0283 65.5293C48.2302 65.4573 48.3954 65.3077 48.4874 65.1135C48.5795 64.9193 48.5909 64.6964 48.5191 64.4938L44.1406 52.1296L47.9173 50.7825L53.9822 67.9C54.054 68.1027 54.2031 68.2684 54.3966 68.3607C54.5902 68.453 54.8124 68.4645 55.0143 68.3925C55.2163 68.3204 55.3814 68.1709 55.4735 67.9767C55.5655 67.7825 55.5769 67.5596 55.5051 67.357L49.1696 49.4755C49.1587 49.4451 49.1459 49.4153 49.1313 49.3865ZM35.7475 41.3155C35.7688 41.1994 35.8202 41.0909 35.8965 41.0011C35.9729 40.9112 36.0714 40.843 36.1823 40.8035C36.2932 40.7639 36.4126 40.7544 36.5283 40.7757C36.6441 40.7971 36.7522 40.8487 36.8418 40.9253L38.0379 41.9476L37.7533 43.4969C37.7323 43.6132 37.6811 43.722 37.6049 43.8122C37.5287 43.9024 37.4301 43.9708 37.3191 44.0107C37.2081 44.0505 37.0886 44.0603 36.9727 44.0391C36.8567 44.0178 36.7484 43.9663 36.6586 43.8897L35.4629 42.867L35.7475 41.3164V41.3155ZM33.3744 54.2481L35.1253 44.7074L35.6109 45.1225C35.9165 45.3835 36.2852 45.5592 36.6799 45.6319C37.0747 45.7047 37.4816 45.672 37.8597 45.5371C38.2379 45.4022 38.574 45.1698 38.8343 44.8633C39.0946 44.5569 39.27 44.1871 39.3427 43.7911L39.4567 43.1621L46.817 49.4533L33.3744 54.2481Z" fill="white"/>
<path id="Vector_35" d="M13.4809 38.1001C16.7731 38.1001 19.4419 35.4226 19.4419 32.1197C19.4419 28.8168 16.7731 26.1392 13.4809 26.1392C10.1888 26.1392 7.52002 28.8168 7.52002 32.1197C7.52002 35.4226 10.1888 38.1001 13.4809 38.1001Z" fill="#325D9C"/>
<path id="Vector_36" d="M131.501 70.5476L124.924 68.9141L128.884 74.4296L131.501 70.5476Z" fill="#1F3A6F"/>
<path id="Vector_37" d="M174.878 99.7163L172.02 103.957L169.857 102.49L159.905 95.7378L153.404 91.3276L153.215 91.1984H153.214L151.398 89.9661L128.418 74.3759L128.625 74.0699L131.071 70.4406L131.278 70.1346L154.256 85.7248L155.958 86.8798L156.262 87.0858L158.632 88.6936L169.42 96.0133L170.928 97.0365L172.715 98.2487L174.878 99.7163Z" fill="#325D9C"/>
<path id="Vector_38" d="M156.262 87.0858L153.404 91.3276L153.215 91.1984H153.214L151.398 89.966L154.256 85.7248L155.958 86.8798L156.262 87.0858Z" fill="#272727"/>
<path id="Vector_39" d="M173.023 97.8121L169.56 102.95L172.885 105.206L176.348 100.068L173.023 97.8121Z" fill="#1F3A6F"/>
<path id="Vector_40" d="M171.254 98.7293L169.923 98.6237L169.174 94.7347L160.617 88.9293L161.23 88.02L170.387 94.2327L171.254 98.7293Z" fill="#1F3A6F"/>
<path id="Vector_41" d="M159.905 95.7378L153.404 91.3289L153.215 91.1979C154.201 89.6391 155.293 87.924 155.958 86.8794L156.263 87.0854L158.632 88.6936L159.905 95.7378Z" fill="#325D9C"/>
<path id="Vector_42" d="M144.787 132.925H125.945V142.23H144.787V132.925Z" fill="#93B6D8"/>
<path id="Vector_43" d="M139.476 132.925H120.634V142.23H139.476V132.925Z" fill="#ACC6E5"/>
<path id="Vector_44" d="M160.581 58.1311C160.869 56.3513 159.664 54.6743 157.89 54.3854C156.116 54.0965 154.445 55.3051 154.157 57.0849C153.869 58.8647 155.074 60.5417 156.848 60.8306C158.622 61.1195 160.293 59.9109 160.581 58.1311Z" fill="white"/>
<path id="Vector_45" d="M25.3799 116.751C28.5239 113.597 28.5239 108.483 25.3799 105.328C22.2359 102.174 17.1385 102.174 13.9945 105.328C10.8505 108.483 10.8505 113.597 13.9945 116.751C17.1385 119.905 22.2359 119.905 25.3799 116.751Z" fill="#BBD1DC"/>
</g>
</g>
</g>
</g>
<defs>
<clipPath id="clip0_322_2580">
<rect width="188" height="145" fill="white"/>
</clipPath>
</defs>
</svg>
