<svg width="188" height="145" viewBox="0 0 188 145" fill="none" xmlns="http://www.w3.org/2000/svg">
<g id="Frame" clip-path="url(#clip0_322_2630)">
<g id="&#208;&#161;&#208;&#187;&#208;&#190;&#208;&#185; 2">
<g id="Layer 1">
<path id="Vector" d="M168.172 132.092C180.506 118.073 188 99.6297 188 79.4185C188 35.5571 152.725 0 109.209 0C65.6943 0 30.4204 35.5571 30.4204 79.4185C30.4204 99.6297 37.9157 118.073 50.2492 132.092H168.172Z" fill="#F3F8FF"/>
<path id="Vector_2" d="M20.6821 31.4078C21.1838 29.3365 19.9247 27.2474 17.8698 26.7417C15.8149 26.236 13.7424 27.5052 13.2407 29.5765C12.739 31.6478 13.9981 33.7369 16.053 34.2426C18.1079 34.7483 20.1804 33.4791 20.6821 31.4078Z" fill="#C4D7F2"/>
<g id="Vector_3" style="mix-blend-mode:multiply" opacity="0.18">
<path d="M171.695 62.0209L168.552 60.4748C168.248 60.3249 167.999 60.0808 167.843 59.7783C167.687 59.4759 167.631 59.1309 167.683 58.794L168.556 53.2346C168.624 52.8019 168.606 52.3599 168.505 51.9339C168.403 51.508 168.22 51.1063 167.964 50.752C167.708 50.3976 167.386 50.0975 167.015 49.8687C166.645 49.64 166.233 49.487 165.804 49.4187L109.909 40.5073C109.437 40.4322 108.956 40.4514 108.492 40.5638C108.027 40.6762 107.59 40.8797 107.204 41.1626C106.818 41.4455 106.491 41.8023 106.241 42.2126C105.992 42.6229 105.825 43.0786 105.751 43.5539L93.9621 118.685C93.8875 119.16 93.9066 119.645 94.0181 120.113C94.1297 120.581 94.3315 121.022 94.6122 121.411C94.8928 121.8 95.2468 122.13 95.6538 122.381C96.0609 122.632 96.513 122.8 96.9845 122.876L152.88 131.786C153.309 131.855 153.747 131.837 154.17 131.735C154.593 131.633 154.991 131.447 155.343 131.19C155.694 130.932 155.992 130.607 156.219 130.234C156.446 129.86 156.598 129.445 156.666 129.012L163.431 85.8963C163.484 85.5635 163.639 85.2561 163.876 85.018C164.113 84.7799 164.418 84.6235 164.748 84.5709L168.412 83.9942C169.009 83.9 169.56 83.6166 169.986 83.1851C170.411 82.7535 170.69 82.1964 170.78 81.5946L173.256 65.0169C173.346 64.4151 173.243 63.8 172.963 63.2612C172.682 62.7223 172.238 62.2878 171.695 62.0209Z" fill="#002E5D"/>
</g>
<path id="Vector_4" d="M167.53 75.3228L169.052 58.6291C169.107 58.023 168.969 57.4149 168.658 56.8933C168.347 56.3717 167.878 55.9638 167.321 55.7289L164.094 54.3684C163.782 54.2364 163.52 54.0071 163.347 53.7142C163.174 53.4213 163.098 53.0802 163.131 52.7409L163.682 47.1399C163.725 46.704 163.683 46.2637 163.557 45.8444C163.431 45.425 163.225 45.0347 162.949 44.6958C162.674 44.3569 162.335 44.0759 161.952 43.869C161.569 43.6622 161.149 43.5334 160.716 43.49L104.406 37.8519C103.931 37.8043 103.451 37.8515 102.995 37.9908C102.538 38.13 102.113 38.3586 101.744 38.6635C101.374 38.9684 101.068 39.3436 100.843 39.7677C100.618 40.1918 100.477 40.6565 100.43 41.1352L92.9682 116.828C92.9211 117.306 92.9679 117.79 93.106 118.25C93.2442 118.711 93.471 119.139 93.7735 119.511C94.0759 119.884 94.4482 120.192 94.8689 120.419C95.2896 120.646 95.7506 120.788 96.2255 120.835L152.539 126.475C152.971 126.518 153.408 126.475 153.824 126.349C154.24 126.222 154.627 126.014 154.963 125.736C155.299 125.458 155.578 125.117 155.783 124.731C155.988 124.344 156.116 123.921 156.159 123.485L160.44 80.0469C160.473 79.7115 160.611 79.3952 160.834 79.1437C161.056 78.8921 161.352 78.7183 161.679 78.6471L165.304 77.8575C165.894 77.7289 166.429 77.4137 166.829 76.9578C167.229 76.5019 167.475 75.9291 167.53 75.3228Z" fill="white"/>
<path id="Vector_5" d="M130.429 53.7826L105.783 51.3149C105.609 51.2975 105.439 51.2455 105.284 51.162C105.13 51.0785 104.993 50.9651 104.882 50.8282C104.77 50.6913 104.687 50.5337 104.636 50.3644C104.585 50.195 104.568 50.0172 104.586 49.8412L104.821 47.4522C104.856 47.0967 105.03 46.7698 105.304 46.5434C105.578 46.317 105.931 46.2097 106.283 46.245L130.928 48.7127C131.281 48.748 131.605 48.9232 131.83 49.1996C132.054 49.4759 132.161 49.8309 132.126 50.1865L131.89 52.5754C131.873 52.7514 131.822 52.9223 131.739 53.0783C131.656 53.2343 131.543 53.3722 131.408 53.4844C131.272 53.5965 131.116 53.6805 130.948 53.7317C130.78 53.7829 130.603 53.8002 130.429 53.7826Z" fill="#F3F8FF"/>
<path id="Vector_6" d="M123.045 89.5659L101.552 87.4164C101.376 87.3986 101.214 87.3111 101.102 87.173C100.99 87.035 100.936 86.8576 100.954 86.68L101.088 85.3163C101.097 85.2284 101.123 85.143 101.164 85.065C101.205 84.9871 101.262 84.9182 101.33 84.8621C101.397 84.8061 101.476 84.7641 101.559 84.7385C101.643 84.7129 101.732 84.7042 101.819 84.713L123.311 86.8651C123.399 86.8739 123.483 86.8998 123.561 86.9416C123.638 86.9833 123.706 87.04 123.762 87.1083C123.818 87.1767 123.859 87.2555 123.885 87.3401C123.91 87.4247 123.919 87.5135 123.91 87.6015L123.776 88.9652C123.758 89.1423 123.671 89.3049 123.534 89.4175C123.397 89.5301 123.221 89.5834 123.045 89.5659Z" fill="#F3F8FF"/>
<path id="Vector_7" d="M152.735 97.8053L108.893 93.4153C108.796 93.4058 108.702 93.3772 108.616 93.3309C108.53 93.2847 108.454 93.2218 108.392 93.1458C108.331 93.0699 108.284 92.9824 108.256 92.8884C108.228 92.7944 108.219 92.6957 108.229 92.598L108.349 91.3812C108.358 91.2836 108.387 91.1887 108.432 91.1022C108.478 91.0156 108.541 90.9391 108.616 90.8769C108.691 90.8147 108.778 90.7681 108.871 90.7398C108.964 90.7115 109.062 90.702 109.159 90.7119L153.003 95.1024C153.1 95.1119 153.194 95.1405 153.28 95.1867C153.366 95.2329 153.442 95.2958 153.504 95.3717C153.566 95.4476 153.612 95.535 153.64 95.6289C153.668 95.7229 153.677 95.8215 153.667 95.9191L153.548 97.1359C153.538 97.2338 153.51 97.3289 153.464 97.4157C153.418 97.5024 153.355 97.5791 153.28 97.6413C153.204 97.7036 153.117 97.7501 153.023 97.7782C152.93 97.8064 152.832 97.8155 152.735 97.8053Z" fill="#F3F8FF"/>
<path id="Vector_8" d="M152.16 103.015L100.659 97.8574C100.447 97.8361 100.252 97.7311 100.118 97.5652C99.983 97.3994 99.9192 97.1864 99.9402 96.9731L100.046 95.8787C100.056 95.773 100.087 95.6705 100.137 95.5769C100.186 95.4833 100.254 95.4004 100.335 95.3331C100.417 95.2658 100.511 95.2154 100.612 95.1847C100.712 95.1539 100.818 95.1435 100.923 95.154L152.425 100.311C152.53 100.322 152.632 100.353 152.725 100.403C152.818 100.453 152.9 100.521 152.967 100.603C153.033 100.685 153.083 100.78 153.114 100.882C153.144 100.983 153.155 101.09 153.144 101.195L153.039 102.29C153.028 102.396 152.997 102.498 152.948 102.592C152.898 102.686 152.83 102.769 152.749 102.836C152.667 102.903 152.573 102.954 152.472 102.984C152.371 103.015 152.265 103.025 152.16 103.015Z" fill="#F3F8FF"/>
<path id="Vector_9" d="M151.648 108.23L100.145 103.073C100.041 103.062 99.9389 103.031 99.846 102.981C99.7532 102.931 99.671 102.863 99.6042 102.781C99.5375 102.698 99.4874 102.604 99.4569 102.502C99.4264 102.401 99.4161 102.294 99.4265 102.188L99.5321 101.094C99.5425 100.988 99.5734 100.886 99.6231 100.792C99.6728 100.698 99.7403 100.616 99.8218 100.548C99.9033 100.481 99.9971 100.431 100.098 100.4C100.199 100.369 100.305 100.359 100.409 100.369L151.912 105.526C152.123 105.548 152.318 105.653 152.453 105.819C152.587 105.984 152.651 106.197 152.63 106.411L152.525 107.505C152.504 107.718 152.399 107.915 152.235 108.05C152.071 108.186 151.859 108.251 151.648 108.23Z" fill="#F3F8FF"/>
<path id="Vector_10" d="M151.132 113.445L99.6298 108.288C99.525 108.277 99.4233 108.246 99.3304 108.196C99.2375 108.146 99.1554 108.078 99.0886 107.996C99.0219 107.914 98.9718 107.819 98.9413 107.717C98.9108 107.616 98.9005 107.509 98.9109 107.403L99.0165 106.309C99.0376 106.095 99.1418 105.899 99.3063 105.763C99.4709 105.628 99.6822 105.563 99.8938 105.584L151.396 110.742C151.608 110.763 151.802 110.868 151.937 111.034C152.072 111.2 152.136 111.413 152.114 111.626L152.009 112.72C151.988 112.934 151.884 113.13 151.719 113.266C151.555 113.402 151.344 113.466 151.132 113.445Z" fill="#F3F8FF"/>
<path id="Vector_11" d="M150.892 115.949L99.3894 110.795C98.9488 110.751 98.5561 111.075 98.5123 111.519L98.4045 112.614C98.3607 113.058 98.6825 113.454 99.1231 113.498L150.626 118.652C151.067 118.696 151.459 118.372 151.503 117.928L151.611 116.833C151.655 116.389 151.333 115.993 150.892 115.949Z" fill="#F3F8FF"/>
<path id="Vector_12" d="M148.134 60.1799L114.483 56.8122C113.458 56.7095 112.544 57.4643 112.442 58.4979L110.528 77.932C110.426 78.9656 111.175 79.8868 112.2 79.9894L145.851 83.3571C146.877 83.4597 147.791 82.705 147.893 81.6713L149.807 62.2373C149.909 61.2036 149.16 60.2825 148.134 60.1799Z" fill="#F70431"/>
<g id="Vector_13" style="mix-blend-mode:multiply" opacity="0.18">
<path d="M146.041 62.7972L145.807 46.0375C145.799 45.4285 145.599 44.8378 145.235 44.3517C144.87 43.8655 144.362 43.5092 143.783 43.3347L140.432 42.3238C140.108 42.2258 139.823 42.0259 139.62 41.7532C139.417 41.4805 139.306 41.1495 139.303 40.8085L139.266 35.1804C139.259 34.2963 138.904 33.451 138.279 32.8303C137.655 32.2096 136.811 31.8642 135.934 31.87L79.3454 32.2531C78.3815 32.2596 77.4596 32.6517 76.7825 33.3433C76.1054 34.0348 75.7286 34.9692 75.7349 35.9407L76.2411 112.004C76.2443 112.485 76.3415 112.961 76.5271 113.404C76.7127 113.848 76.9831 114.25 77.3229 114.587C77.6627 114.925 78.0652 115.193 78.5074 115.374C78.9496 115.555 79.4228 115.646 79.9001 115.643L136.489 115.26C136.923 115.257 137.353 115.168 137.754 114.998C138.154 114.828 138.517 114.579 138.822 114.267C139.128 113.956 139.369 113.586 139.533 113.18C139.696 112.774 139.779 112.34 139.776 111.902L139.486 68.2508C139.483 67.9137 139.587 67.5846 139.782 67.3108C139.977 67.037 140.253 66.8326 140.571 66.727L144.093 65.5564C144.667 65.3657 145.165 64.9952 145.516 64.4989C145.866 64.0025 146.05 63.4063 146.041 62.7972Z" fill="#002E5D"/>
</g>
<path id="Vector_14" d="M142.322 58.9307L141.313 42.1977C141.277 41.5901 141.049 41.0101 140.663 40.5422C140.277 40.0742 139.752 39.7427 139.166 39.5959L135.772 38.7446C135.443 38.6624 135.15 38.476 134.934 38.213C134.719 37.95 134.593 37.6242 134.575 37.2836L134.277 31.6635C134.231 30.7803 133.838 29.9519 133.186 29.3604C132.533 28.7688 131.675 28.4626 130.798 28.509L74.2868 31.5507C73.8102 31.5763 73.3432 31.6963 72.9126 31.9038C72.482 32.1114 72.0961 32.4024 71.7771 32.7602C71.458 33.1181 71.212 33.5358 71.0532 33.9895C70.8943 34.4432 70.8256 34.924 70.8511 35.4044L74.8712 111.359C74.8965 111.839 75.0156 112.31 75.2215 112.744C75.4273 113.178 75.716 113.567 76.0711 113.889C76.4261 114.21 76.8405 114.458 77.2906 114.618C77.7407 114.778 78.2177 114.848 78.6943 114.822L135.204 111.784C135.638 111.761 136.063 111.652 136.456 111.462C136.848 111.273 137.199 111.008 137.49 110.682C137.78 110.356 138.004 109.975 138.149 109.562C138.293 109.149 138.356 108.71 138.332 108.273L136.024 64.6833C136.006 64.3467 136.095 64.0132 136.277 63.7305C136.459 63.4479 136.726 63.2309 137.038 63.1106L140.502 61.7756C141.066 61.5584 141.547 61.1654 141.874 60.6537C142.202 60.142 142.358 59.5384 142.322 58.9307Z" fill="white"/>
<path id="Vector_15" d="M99.6698 40.7872L78.3213 41.9354C78.1153 41.9464 77.9134 41.8745 77.76 41.7355C77.6066 41.5966 77.5142 41.4019 77.5031 41.1942L77.3912 39.0809C77.3803 38.8733 77.4516 38.6698 77.5895 38.5151C77.7274 38.3605 77.9205 38.2674 78.1265 38.2562L99.475 37.1081C99.577 37.1025 99.6791 37.1173 99.7754 37.1516C99.8717 37.1859 99.9604 37.2389 100.036 37.3077C100.112 37.3766 100.174 37.4598 100.218 37.5527C100.262 37.6456 100.288 37.7464 100.293 37.8492L100.405 39.9625C100.411 40.0654 100.396 40.1683 100.362 40.2654C100.328 40.3625 100.275 40.4519 100.207 40.5285C100.139 40.605 100.056 40.6673 99.9639 40.7117C99.8717 40.7561 99.7718 40.7818 99.6698 40.7872Z" fill="#F3F8FF"/>
<path id="Vector_16" d="M128.173 43.6404L86.7105 45.8673C86.2855 45.8901 85.9593 46.2559 85.9819 46.6843L86.0944 48.8122C86.117 49.2406 86.4799 49.5694 86.905 49.5466L128.367 47.3197C128.792 47.2969 129.118 46.9311 129.096 46.5027L128.983 44.3748C128.96 43.9464 128.598 43.6176 128.173 43.6404Z" fill="#F3F8FF"/>
<path id="Vector_17" d="M128.726 55.3586L79.2353 58.0188C79.0127 58.0306 78.7946 57.9528 78.6288 57.8026C78.463 57.6523 78.3632 57.4419 78.3512 57.2176L78.2456 55.2309C78.2396 55.1197 78.2555 55.0085 78.2922 54.9035C78.3289 54.7985 78.3858 54.7019 78.4597 54.6191C78.5335 54.5363 78.6228 54.469 78.7225 54.4211C78.8222 54.3731 78.9303 54.3455 79.0405 54.3397L128.53 51.6794C128.753 51.6677 128.971 51.7455 129.137 51.8957C129.303 52.0459 129.402 52.2563 129.414 52.4807L129.52 54.4674C129.532 54.6917 129.455 54.9116 129.306 55.0787C129.157 55.2458 128.948 55.3465 128.726 55.3586Z" fill="#F3F8FF"/>
<path id="Vector_18" d="M129.151 63.4021L79.6615 66.0624C79.4389 66.0743 79.2206 65.9966 79.0548 65.8463C78.889 65.696 78.7892 65.4856 78.7774 65.2611L78.6718 63.2744C78.6602 63.0501 78.7373 62.8302 78.8864 62.6631C79.0354 62.496 79.2441 62.3954 79.4667 62.3833L128.956 59.723C129.067 59.717 129.177 59.733 129.281 59.7701C129.385 59.8071 129.481 59.8645 129.563 59.9389C129.646 60.0133 129.712 60.1033 129.76 60.2037C129.808 60.3042 129.835 60.4131 129.841 60.5243L129.947 62.5109C129.952 62.6221 129.937 62.7334 129.9 62.8383C129.863 62.9433 129.806 63.0399 129.732 63.1226C129.658 63.2054 129.569 63.2727 129.469 63.3206C129.37 63.3686 129.261 63.3963 129.151 63.4021Z" fill="#F3F8FF"/>
<path id="Vector_19" d="M129.577 71.4463L80.0877 74.1065C79.8649 74.1184 79.6467 74.0407 79.4808 73.8904C79.3149 73.7402 79.215 73.5297 79.203 73.3053L79.0974 71.3186C79.0914 71.2074 79.1073 71.0962 79.144 70.9912C79.1807 70.8862 79.2377 70.7895 79.3115 70.7068C79.3853 70.624 79.4746 70.5567 79.5743 70.5088C79.674 70.4608 79.7821 70.4332 79.8923 70.4274L129.382 67.7671C129.605 67.7554 129.823 67.8332 129.989 67.9834C130.154 68.1336 130.254 68.344 130.266 68.5684L130.372 70.5551C130.384 70.7794 130.306 70.9993 130.158 71.1664C130.009 71.3335 129.8 71.4342 129.577 71.4463Z" fill="#F3F8FF"/>
<path id="Vector_20" d="M130.003 79.4888L80.5131 82.149C80.2905 82.1609 80.0723 82.0832 79.9065 81.9329C79.7407 81.7827 79.6409 81.5722 79.629 81.3478L79.5234 79.3611C79.5175 79.25 79.5334 79.1388 79.5701 79.0339C79.6068 78.929 79.6637 78.8324 79.7375 78.7496C79.8112 78.6669 79.9005 78.5996 80 78.5516C80.0996 78.5036 80.2076 78.4758 80.3178 78.4699L129.808 75.8096C129.918 75.8037 130.028 75.8197 130.132 75.8567C130.236 75.8938 130.332 75.9511 130.415 76.0255C130.497 76.0999 130.563 76.1899 130.611 76.2904C130.659 76.3908 130.686 76.4997 130.692 76.6109L130.798 78.5976C130.81 78.822 130.732 79.042 130.583 79.2091C130.434 79.3762 130.225 79.4768 130.003 79.4888Z" fill="#F3F8FF"/>
<path id="Vector_21" d="M130.429 87.534L80.9389 90.1942C80.7162 90.2061 80.498 90.1284 80.3321 89.9782C80.1662 89.8279 80.0663 89.6174 80.0543 89.393L79.9487 87.4063C79.9428 87.2951 79.9587 87.1839 79.9954 87.079C80.0322 86.974 80.0891 86.8774 80.1629 86.7946C80.2368 86.7119 80.3261 86.6446 80.4257 86.5966C80.5253 86.5486 80.6334 86.5209 80.7436 86.5151L130.233 83.8548C130.456 83.8429 130.674 83.9207 130.84 84.0709C131.006 84.2212 131.106 84.4317 131.117 84.6561L131.223 86.6428C131.235 86.8671 131.158 87.0869 131.009 87.254C130.86 87.421 130.651 87.5217 130.429 87.534Z" fill="#F3F8FF"/>
<path id="Vector_22" d="M130.855 95.5775L81.3644 98.2378C81.2542 98.2437 81.1439 98.2278 81.0398 98.1907C80.9358 98.1537 80.8399 98.0964 80.7578 98.022C80.6757 97.9477 80.609 97.8577 80.5613 97.7574C80.5137 97.657 80.4862 97.5481 80.4803 97.437L80.3747 95.4498C80.3628 95.2259 80.4394 95.0063 80.5879 94.8393C80.7363 94.6722 80.9444 94.5713 81.1665 94.5586L130.657 91.8984C130.879 91.8865 131.098 91.9642 131.263 92.1145C131.429 92.2647 131.529 92.4752 131.541 92.6996L131.646 94.6863C131.658 94.9103 131.582 95.1298 131.433 95.2969C131.285 95.464 131.077 95.5649 130.855 95.5775Z" fill="#F3F8FF"/>
<path id="Vector_23" d="M131.28 103.622L81.7902 106.282C81.5675 106.294 81.3493 106.216 81.1835 106.066C81.0177 105.916 80.9179 105.705 80.9061 105.481L80.8005 103.494C80.7887 103.27 80.8658 103.05 81.0149 102.882C81.164 102.715 81.3728 102.615 81.5954 102.603L131.085 99.9425C131.308 99.9306 131.526 100.008 131.692 100.159C131.858 100.309 131.958 100.519 131.97 100.744L132.075 102.73C132.081 102.842 132.065 102.953 132.028 103.058C131.992 103.163 131.935 103.259 131.861 103.342C131.787 103.425 131.698 103.492 131.598 103.54C131.498 103.588 131.39 103.616 131.28 103.622Z" fill="#F3F8FF"/>
<path id="Vector_24" d="M109.427 102.149L47.0993 138.697C47.0642 138.718 47.0254 138.731 46.9851 138.736C46.9449 138.742 46.904 138.739 46.8647 138.729C46.8255 138.718 46.7888 138.7 46.7565 138.675C46.7243 138.65 46.6973 138.619 46.677 138.583L0.115805 57.2931C0.095455 57.2577 0.0822335 57.2186 0.0768973 57.178C0.0715611 57.1374 0.0742149 57.0962 0.0847069 57.0567C0.0951989 57.0171 0.113323 56.9801 0.138042 56.9476C0.162761 56.9151 0.193589 56.8879 0.228763 56.8675L62.5566 20.3191C63.3705 19.8455 64.3377 19.7171 65.2455 19.9623C66.1534 20.2074 66.9274 20.806 67.3974 21.6264L110.724 97.27C110.957 97.6762 111.108 98.1246 111.169 98.5896C111.229 99.0546 111.199 99.5272 111.078 99.9803C110.958 100.433 110.75 100.858 110.467 101.23C110.183 101.602 109.83 101.914 109.427 102.149Z" fill="#325D9C"/>
<g id="Vector_25" style="mix-blend-mode:multiply" opacity="0.18">
<path d="M116.752 106.193L108.118 63.4154C108.052 63.0851 108.091 62.7421 108.23 62.4356C108.369 62.1291 108.601 61.8748 108.892 61.7091L112.124 59.8762C112.651 59.5775 113.069 59.1171 113.318 58.562C113.567 58.0069 113.634 57.3862 113.509 56.7903L110.073 40.3876C109.948 39.7922 109.638 39.2523 109.188 38.8466C108.738 38.4409 108.171 38.1905 107.57 38.1317L104.087 37.7923C103.75 37.759 103.433 37.6178 103.181 37.3896C102.93 37.1613 102.758 36.8579 102.69 36.5238L101.577 31.0086C101.4 30.1432 100.89 29.3838 100.159 28.897C99.4276 28.4101 98.5345 28.2356 97.6756 28.4116L42.2213 39.7805C41.2768 39.9744 40.4474 40.5384 39.9155 41.3486C39.3835 42.1588 39.1926 43.1488 39.3847 44.1008L54.4281 118.639C54.5232 119.11 54.7095 119.558 54.9764 119.957C55.2433 120.356 55.5855 120.698 55.9835 120.964C56.3815 121.229 56.8275 121.413 57.296 121.505C57.7646 121.597 58.2465 121.595 58.7142 121.499L114.171 110.127C115.031 109.95 115.786 109.436 116.27 108.698C116.754 107.961 116.927 107.059 116.752 106.193Z" fill="#002E5D"/>
</g>
<path id="Vector_26" d="M112.656 106.511L104.92 108.629L58.0474 121.461C57.5868 121.588 57.1059 121.621 56.6324 121.56C56.1589 121.499 55.702 121.344 55.2877 121.105C54.8734 120.866 54.5099 120.547 54.218 120.166C53.926 119.786 53.7113 119.351 53.5861 118.886L33.8048 45.482C33.5522 44.5442 33.6793 43.5437 34.1584 42.7004C34.6375 41.8571 35.4293 41.2401 36.3596 40.9851L42.4102 39.3288L74.6966 30.4893L90.9719 26.0339C91.8191 25.8024 92.7228 25.9195 93.4843 26.3595C94.2458 26.7995 94.8027 27.5264 95.0326 28.3802L96.4968 33.8109C96.5855 34.14 96.7766 34.4317 97.0421 34.643C97.3077 34.8543 97.6335 34.9741 97.9716 34.9846L101.468 35.0974C102.071 35.1176 102.652 35.3311 103.126 35.7068C103.601 36.0825 103.944 36.601 104.107 37.1868L108.584 53.3314C108.747 53.9176 108.72 54.5409 108.507 55.1104C108.294 55.68 107.906 56.1662 107.4 56.4982L104.293 58.5386C104.012 58.7222 103.797 58.9909 103.677 59.3059C103.558 59.621 103.542 59.966 103.63 60.2912L114.979 102.415C115.209 103.269 115.093 104.18 114.658 104.947C114.222 105.715 113.502 106.277 112.656 106.511Z" fill="white"/>
<path id="Vector_27" d="M90.9236 34.0484L41.144 47.6812C40.5355 47.8478 40.1763 48.4802 40.3416 49.0935L41.3332 52.7723C41.4985 53.3857 42.1258 53.7478 42.7343 53.5811L92.5139 39.9484C93.1223 39.7817 93.4816 39.1494 93.3163 38.5361L92.3247 34.8573C92.1594 34.2439 91.5321 33.8818 90.9236 34.0484Z" fill="#F70431"/>
<path id="Vector_28" d="M80.2897 78.1475L51.5388 86.0219C51.2304 86.1056 50.9016 86.0626 50.6245 85.9023C50.3475 85.742 50.1448 85.4775 50.0609 85.1668L42.7793 58.1534C42.6963 57.8426 42.7388 57.5112 42.8977 57.232C43.0566 56.9527 43.3189 56.7484 43.627 56.6637L72.3779 48.7893C72.6863 48.7053 73.0152 48.7481 73.2923 48.9083C73.5694 49.0685 73.7721 49.333 73.8559 49.6438L81.1353 76.6577C81.2186 76.9683 81.1763 77.2994 81.0178 77.5787C80.8593 77.8579 80.5975 78.0624 80.2897 78.1475Z" fill="#F3F8FF"/>
<path id="Vector_29" d="M75.095 86.4055L52.6481 92.5533C52.5002 92.593 52.3428 92.5722 52.21 92.4955C52.0773 92.4188 51.9799 92.2923 51.9392 92.1437L51.4346 90.2708C51.4146 90.197 51.4093 90.12 51.419 90.0442C51.4286 89.9683 51.4529 89.8951 51.4906 89.8288C51.5283 89.7624 51.5786 89.7042 51.6387 89.6574C51.6987 89.6107 51.7673 89.5763 51.8405 89.5563L74.2874 83.4105C74.4352 83.3709 74.5925 83.3916 74.7253 83.4682C74.858 83.5448 74.9554 83.6711 74.9963 83.8197L75.5009 85.693C75.5405 85.8418 75.52 86.0002 75.4439 86.1337C75.3678 86.2673 75.2423 86.365 75.095 86.4055Z" fill="#F3F8FF"/>
<path id="Vector_30" d="M95.5843 49.6746L77.7502 54.5567C77.5699 54.6061 77.3775 54.5812 77.2154 54.4876C77.0532 54.3941 76.9346 54.2394 76.8856 54.0577L76.4475 52.4312C76.3985 52.2494 76.4232 52.0555 76.516 51.8921C76.6089 51.7287 76.7623 51.6091 76.9426 51.5597L94.7756 46.6776C94.8649 46.653 94.9581 46.6465 95.0499 46.6583C95.1417 46.6702 95.2303 46.7001 95.3106 46.7465C95.3909 46.7928 95.4613 46.8547 95.5179 46.9285C95.5744 47.0023 95.616 47.0866 95.6402 47.1766L96.0783 48.8031C96.1272 48.9847 96.1026 49.1784 96.01 49.3418C95.9174 49.5051 95.7643 49.6248 95.5843 49.6746Z" fill="#F3F8FF"/>
<path id="Vector_31" d="M97.2503 55.856L79.4173 60.7381C79.237 60.7875 79.0446 60.7626 78.8825 60.6691C78.7203 60.5755 78.6017 60.4208 78.5527 60.2391L78.1146 58.6126C78.0903 58.5226 78.0838 58.4287 78.0955 58.3361C78.1073 58.2436 78.137 58.1543 78.1829 58.0734C78.2289 57.9925 78.2903 57.9215 78.3635 57.8644C78.4367 57.8074 78.5204 57.7655 78.6097 57.7411L96.4427 52.859C96.6231 52.8096 96.8154 52.8345 96.9776 52.9281C97.1397 53.0217 97.2583 53.1763 97.3074 53.358L97.7455 54.9845C97.7943 55.1663 97.7695 55.3601 97.6767 55.5235C97.5839 55.6869 97.4306 55.8065 97.2503 55.856Z" fill="#F3F8FF"/>
<path id="Vector_32" d="M98.9166 62.0374L81.0841 66.9196C80.9948 66.9441 80.9016 66.9506 80.8098 66.9388C80.718 66.9269 80.6295 66.897 80.5492 66.8507C80.4689 66.8043 80.3984 66.7425 80.3419 66.6686C80.2853 66.5948 80.2437 66.5105 80.2195 66.4205L79.7808 64.794C79.732 64.6123 79.7568 64.4184 79.8496 64.255C79.9424 64.0916 80.0958 63.9721 80.276 63.9225L98.109 59.0404C98.2893 58.991 98.4817 59.0159 98.6438 59.1095C98.806 59.2031 98.9246 59.3577 98.9736 59.5394L99.4123 61.1659C99.4365 61.256 99.4429 61.3499 99.4311 61.4424C99.4193 61.535 99.3895 61.6242 99.3435 61.7052C99.2975 61.7861 99.2361 61.8571 99.1628 61.9141C99.0896 61.9711 99.0059 62.013 98.9166 62.0374Z" fill="#F3F8FF"/>
<path id="Vector_33" d="M100.582 68.2189L82.7486 73.101C82.6594 73.1255 82.5662 73.132 82.4744 73.1202C82.3826 73.1084 82.294 73.0784 82.2137 73.0321C82.1334 72.9857 82.063 72.9239 82.0064 72.8501C81.9498 72.7763 81.9083 72.6919 81.884 72.6019L81.4454 70.976C81.3966 70.7942 81.4213 70.6004 81.5141 70.437C81.607 70.2736 81.7603 70.154 81.9405 70.1044L99.7736 65.2223C99.9539 65.173 100.146 65.1978 100.308 65.2914C100.471 65.385 100.589 65.5397 100.638 65.7214L101.076 67.3479C101.125 67.5295 101.1 67.7232 101.008 67.8865C100.915 68.0498 100.762 68.1693 100.582 68.2189Z" fill="#F3F8FF"/>
<path id="Vector_34" d="M104.836 84.6007L54.5085 98.3809C54.3996 98.4111 54.2859 98.4193 54.1738 98.4051C54.0618 98.3908 53.9536 98.3544 53.8556 98.298C53.7575 98.2416 53.6714 98.1661 53.6023 98.0761C53.5332 97.9861 53.4824 97.8832 53.4528 97.7733L53.095 96.4432C53.0651 96.3334 53.0571 96.2187 53.0713 96.1058C53.0854 95.9928 53.1216 95.8838 53.1776 95.785C53.2337 95.6861 53.3085 95.5994 53.3978 95.5298C53.4872 95.4601 53.5893 95.4089 53.6983 95.3791L104.026 81.5989C104.135 81.5687 104.249 81.5604 104.361 81.5746C104.473 81.5888 104.581 81.6252 104.679 81.6816C104.777 81.7381 104.863 81.8135 104.932 81.9036C105.002 81.9937 105.052 82.0966 105.082 82.2065L105.44 83.5366C105.47 83.6464 105.478 83.7611 105.464 83.8741C105.45 83.9871 105.414 84.0962 105.357 84.1951C105.301 84.2939 105.227 84.3807 105.137 84.4503C105.048 84.5199 104.945 84.571 104.836 84.6007Z" fill="#F3F8FF"/>
<path id="Vector_35" d="M106.427 90.5023L56.0982 104.282C55.9893 104.313 55.8756 104.321 55.7636 104.307C55.6515 104.292 55.5434 104.256 55.4453 104.2C55.3472 104.143 55.2612 104.068 55.192 103.978C55.1229 103.888 55.0721 103.785 55.0426 103.675L54.6852 102.345C54.6553 102.235 54.6472 102.12 54.6613 102.007C54.6754 101.894 54.7115 101.785 54.7675 101.687C54.8235 101.588 54.8983 101.501 54.9876 101.431C55.0769 101.362 55.179 101.31 55.288 101.281L105.616 87.5005C105.725 87.4703 105.839 87.4621 105.951 87.4763C106.063 87.4906 106.171 87.5269 106.269 87.5834C106.367 87.6398 106.454 87.7152 106.523 87.8053C106.592 87.8953 106.643 87.9982 106.672 88.1081L107.029 89.4382C107.059 89.548 107.068 89.6626 107.053 89.7755C107.039 89.8885 107.003 89.9975 106.947 90.0964C106.891 90.1952 106.816 90.282 106.727 90.3516C106.638 90.4213 106.536 90.4725 106.427 90.5023Z" fill="#F3F8FF"/>
<path id="Vector_36" d="M108.016 96.4017L57.6886 110.182C57.5797 110.212 57.4659 110.22 57.3538 110.206C57.2418 110.192 57.1336 110.156 57.0355 110.099C56.9374 110.043 56.8514 109.967 56.7823 109.877C56.7132 109.787 56.6624 109.684 56.6329 109.574L56.275 108.244C56.2451 108.134 56.237 108.02 56.2511 107.907C56.2653 107.794 56.3014 107.685 56.3575 107.586C56.4135 107.487 56.4884 107.4 56.5778 107.331C56.6672 107.261 56.7693 107.21 56.8783 107.18L107.206 93.3999C107.315 93.3696 107.429 93.3614 107.541 93.3756C107.653 93.3898 107.761 93.4261 107.859 93.4826C107.957 93.5391 108.043 93.6145 108.113 93.7046C108.182 93.7946 108.232 93.8976 108.262 94.0075L108.62 95.3376C108.65 95.4474 108.658 95.5621 108.643 95.675C108.629 95.7879 108.593 95.897 108.537 95.9958C108.481 96.0946 108.406 96.1814 108.317 96.251C108.228 96.3207 108.125 96.3719 108.016 96.4017Z" fill="#F3F8FF"/>
<path id="Vector_37" d="M100.475 105.205L68.6121 113.93C68.5511 113.947 68.4874 113.951 68.4247 113.943C68.362 113.935 68.3015 113.915 68.2466 113.883C68.1918 113.851 68.1436 113.809 68.105 113.759C68.0664 113.708 68.038 113.651 68.0215 113.589C67.988 113.465 68.0049 113.332 68.0683 113.221C68.1318 113.109 68.2366 113.028 68.3598 112.994L100.222 104.268C100.283 104.251 100.347 104.247 100.409 104.255C100.472 104.263 100.533 104.284 100.588 104.315C100.643 104.347 100.691 104.389 100.729 104.44C100.768 104.49 100.796 104.548 100.813 104.61C100.846 104.734 100.829 104.866 100.766 104.978C100.702 105.089 100.598 105.171 100.475 105.205Z" fill="#F3F8FF"/>
<g id="Vector_38" style="mix-blend-mode:multiply" opacity="0.18">
<path d="M104.92 108.629L58.0474 121.461C57.5867 121.588 57.1059 121.621 56.6324 121.56C56.1589 121.499 55.7019 121.344 55.2877 121.105C54.8734 120.866 54.5099 120.547 54.218 120.166C53.926 119.786 53.7113 119.351 53.5861 118.886L33.8048 45.4821C33.6702 44.9854 33.6413 44.4656 33.72 43.9569C33.7987 43.4482 33.9832 42.962 34.2614 42.5302L42.4102 39.3289L74.6965 30.4893L77.4972 37.7311L79.7142 43.4603L82.2816 50.0976L83.408 53.0095L84.6035 56.0997L85.73 59.01L86.9255 62.1018L88.0503 65.0121L89.247 68.1039L90.3718 71.0142L95.3799 83.9703L96.5063 86.8806L97.5968 89.7005L98.7217 92.6087L99.8122 95.4286L100.937 98.3384L104.92 108.629Z" fill="#002E5D"/>
</g>
<path id="Vector_39" d="M101.681 114.607L38.3955 143.084C38.3583 143.101 38.3182 143.11 38.2775 143.111C38.2368 143.112 38.1964 143.105 38.1584 143.09C38.1204 143.075 38.0858 143.053 38.0563 143.024C38.0269 142.996 38.0034 142.962 37.987 142.924L0.0263736 57.2133C-0.00680057 57.1375 -0.0087544 57.0516 0.0209419 56.9743C0.0506382 56.8971 0.109552 56.8349 0.184725 56.8015L63.4727 28.3244C64.331 27.9383 65.3063 27.9116 66.1841 28.2503C67.0619 28.5889 67.7703 29.2651 68.1535 30.1302L103.477 109.889C103.667 110.318 103.771 110.78 103.783 111.249C103.795 111.718 103.716 112.185 103.549 112.623C103.382 113.061 103.131 113.462 102.811 113.803C102.49 114.143 102.106 114.416 101.681 114.607Z" fill="#325D9C"/>
<path id="Vector_40" d="M60.8955 67.2122L33.5798 79.5085C33.2631 79.651 32.9031 79.661 32.5791 79.536C32.2552 79.4111 31.9937 79.1616 31.8522 78.8423L25.3994 64.2779C25.2579 63.9586 25.248 63.5957 25.372 63.269C25.4959 62.9423 25.7435 62.6787 26.0602 62.536L53.3759 50.2402C53.5329 50.1691 53.7022 50.13 53.8742 50.125C54.0462 50.12 54.2175 50.1493 54.3782 50.2112C54.539 50.2731 54.686 50.3663 54.8109 50.4856C54.9358 50.6049 55.0362 50.7479 55.1062 50.9063L61.559 65.4708C61.629 65.629 61.6674 65.7996 61.6719 65.9728C61.6765 66.146 61.6471 66.3184 61.5855 66.4802C61.5239 66.6419 61.4312 66.7898 61.3128 66.9154C61.1944 67.041 61.0526 67.1419 60.8955 67.2122Z" fill="#F9F8F7"/>
<path id="Vector_41" d="M29.088 66.2343C29.0235 66.2341 28.9611 66.2117 28.911 66.1708C28.861 66.1299 28.8263 66.073 28.8129 66.0095C28.7994 65.9459 28.8079 65.8797 28.8371 65.8218C28.8662 65.7638 28.9141 65.7177 28.9729 65.691L53.7623 54.5317C53.8306 54.501 53.9081 54.4988 53.978 54.5257C54.0478 54.5526 54.1042 54.6063 54.1347 54.6751C54.1652 54.7439 54.1674 54.8221 54.1407 54.8925C54.114 54.9629 54.0607 55.0197 53.9925 55.0505L29.203 66.2098C29.1667 66.2259 29.1276 66.2342 29.088 66.2343Z" fill="#192942"/>
<path id="Vector_42" d="M31.0828 70.7376C31.0184 70.7374 30.9559 70.715 30.9059 70.6741C30.8558 70.6332 30.8212 70.5763 30.8077 70.5128C30.7943 70.4492 30.8028 70.383 30.8319 70.3251C30.8611 70.2671 30.909 70.221 30.9678 70.1943L55.7572 59.0356C55.7912 59.0185 55.8283 59.0086 55.8662 59.0064C55.9041 59.0041 55.942 59.0096 55.9778 59.0226C56.0135 59.0355 56.0463 59.0556 56.0742 59.0816C56.102 59.1076 56.1244 59.139 56.1399 59.1739C56.1554 59.2089 56.1638 59.2466 56.1645 59.2849C56.1651 59.3231 56.1581 59.3611 56.1439 59.3966C56.1297 59.4321 56.1084 59.4643 56.0815 59.4913C56.0546 59.5183 56.0226 59.5396 55.9873 59.5538L31.1979 70.7131C31.1616 70.7292 31.1224 70.7375 31.0828 70.7376Z" fill="#192942"/>
<path id="Vector_43" d="M33.0783 75.2414C33.015 75.2397 32.954 75.2167 32.9053 75.1759C32.8565 75.1351 32.8228 75.079 32.8095 75.0165C32.7962 74.954 32.8042 74.8889 32.832 74.8316C32.8599 74.7742 32.9062 74.728 32.9633 74.7003L57.7527 63.5415C57.821 63.5108 57.8985 63.5086 57.9684 63.5355C58.0382 63.5624 58.0946 63.6161 58.1251 63.6849C58.1556 63.7537 58.1578 63.8319 58.1311 63.9023C58.1044 63.9727 58.0511 64.0295 57.9829 64.0603L33.1934 75.2164C33.1572 75.2329 33.118 75.2414 33.0783 75.2414Z" fill="#192942"/>
<path id="Vector_44" d="M103.209 132.892H100.213V145H103.209V132.892Z" fill="#9FB8D6"/>
<path id="Vector_45" d="M100.213 132.892H79.6494V145H100.213V132.892Z" fill="white"/>
<path id="Vector_46" d="M92.2808 137.947H87.583C87.349 137.947 87.1247 137.853 86.9592 137.686C86.7937 137.519 86.7005 137.293 86.7 137.057C86.7006 136.821 86.7939 136.595 86.9594 136.428C87.1248 136.262 87.349 136.168 87.583 136.167H92.2808C92.5147 136.168 92.7388 136.262 92.9041 136.429C93.0695 136.595 93.1626 136.821 93.1633 137.057C93.1628 137.293 93.0696 137.519 92.9043 137.686C92.7389 137.852 92.5147 137.946 92.2808 137.947Z" fill="#325D9C"/>
<path id="Vector_47" d="M100.213 129.443H78.928V133.76H100.213V129.443Z" fill="#BBD1DC"/>
<path id="Vector_48" d="M103.872 129.443H100.213V133.76H103.872V129.443Z" fill="#A3B7C1"/>
<path id="Vector_49" opacity="0.5" d="M79.6494 133.76L100.213 135.843V133.76H79.6494Z" fill="#9FB8D6"/>
<path id="Vector_50" d="M93.8742 139.137H85.9888V143.031H93.8742V139.137Z" fill="#C4D7F2"/>
<path id="Vector_51" d="M92.3899 126.588H80.3267V129.482H92.3899V126.588Z" fill="#D7E3F4"/>
<path id="Vector_52" d="M99.3645 127.103V128.967H99.753V129.481H92.3901V126.588H99.753V127.103H99.3645Z" fill="#87A7C6"/>
<path id="Vector_53" d="M99.3641 127.103H92.9583V128.967H99.3641V127.103Z" fill="#D7E3F4"/>
<path id="Vector_54" d="M99.3641 127.103H92.9583V127.566H99.3641V127.103Z" fill="#9FB8D6"/>
<path id="Vector_55" d="M87.1621 127.238H81.2002V128.831H87.1621V127.238Z" fill="white"/>
<path id="Vector_56" d="M88.3909 127.238H87.6736V128.831H88.3909V127.238Z" fill="white"/>
<path id="Vector_57" d="M89.9667 128.831C90.4031 128.831 90.7569 128.475 90.7569 128.035C90.7569 127.595 90.4031 127.238 89.9667 127.238C89.5303 127.238 89.1765 127.595 89.1765 128.035C89.1765 128.475 89.5303 128.831 89.9667 128.831Z" fill="white"/>
<path id="Vector_58" d="M89.9668 128.554C90.251 128.554 90.4814 128.321 90.4814 128.035C90.4814 127.748 90.251 127.516 89.9668 127.516C89.6826 127.516 89.4521 127.748 89.4521 128.035C89.4521 128.321 89.6826 128.554 89.9668 128.554Z" fill="#87A7C6"/>
<path id="Vector_59" d="M95.0933 114.771H78.6062V119.898H95.0933H98.6937V114.771H95.0933Z" fill="white"/>
<path id="Vector_60" d="M95.6931 119.898H79.2061V123.714H95.6931H99.4223V119.898H95.6931Z" fill="white"/>
<path id="Vector_61" d="M95.0929 114.771V119.898H86.3635L95.6361 121.439V123.714H99.4223V119.898H98.6933V114.771H95.0929Z" fill="#9FB8D6"/>
<path id="Vector_62" d="M92.9857 123.714H81.0032V126.588H92.9857V123.714Z" fill="#F70431"/>
<path id="Vector_63" d="M99.914 124.225V126.077H100.3V126.588H92.9861V123.714H100.3V124.225H99.914Z" fill="#F70431"/>
<path id="Vector_64" d="M99.9136 124.225H93.5505V126.077H99.9136V124.225Z" fill="#D7E3F4"/>
<path id="Vector_65" d="M99.9136 124.225H93.5505V124.685H99.9136V124.225Z" fill="#9FB8D6"/>
<path id="Vector_66" d="M87.7932 124.36H81.8708V125.943H87.7932V124.36Z" fill="white"/>
<path id="Vector_67" d="M89.0141 124.36H88.3015V125.943H89.0141V124.36Z" fill="white"/>
<path id="Vector_68" d="M91.3402 125.327C91.4398 124.902 91.1785 124.476 90.7566 124.375C90.3347 124.275 89.912 124.538 89.8124 124.964C89.7128 125.389 89.9741 125.815 90.396 125.915C90.8179 126.016 91.2406 125.752 91.3402 125.327Z" fill="white"/>
<path id="Vector_69" d="M90.5789 125.667C90.8613 125.667 91.0903 125.436 91.0903 125.151C91.0903 124.866 90.8613 124.636 90.5789 124.636C90.2964 124.636 90.0674 124.866 90.0674 125.151C90.0674 125.436 90.2964 125.667 90.5789 125.667Z" fill="#F70431"/>
<path id="Vector_70" d="M78.928 129.443L100.213 131.029V129.443H78.928Z" fill="#A3B7C1"/>
<path id="Vector_71" d="M184.519 77.5234L177.177 87.3041C176.453 88.2671 175.153 88.3932 174.293 87.6047L153.725 68.7413C153.326 68.3758 153.396 67.5676 153.875 66.9323L158.733 60.4599C159.212 59.8214 159.965 59.5352 160.422 59.8214L184.023 74.6471C185.008 75.2648 185.242 76.5625 184.519 77.5234Z" fill="#2D4351"/>
<path id="Vector_72" d="M151.689 60.3526L146.096 67.8019L152.05 72.3444L157.643 64.895L151.689 60.3526Z" fill="#435E6D"/>
<path id="Vector_73" d="M157.282 52.9027L151.688 60.352L157.643 64.8945L163.236 57.4451L157.282 52.9027Z" fill="#2D4351"/>
<path id="Vector_74" d="M132.273 72.7982C125.18 72.7997 118.364 70.0247 113.262 65.0585C108.16 60.0923 105.171 53.323 104.925 46.1781C104.679 39.0332 107.195 32.0713 111.943 26.7604C116.691 21.4495 123.3 18.2047 130.376 17.7104C137.451 17.2162 144.441 19.511 149.87 24.1109C155.3 28.7108 158.745 35.2564 159.479 42.3672C160.213 49.4779 158.179 56.5982 153.805 62.2263C149.431 67.8545 143.06 71.5507 136.035 72.5354C134.789 72.7098 133.532 72.7977 132.273 72.7982ZM132.355 21.6545C131.258 21.6549 130.163 21.7311 129.076 21.8828C122.848 22.7522 117.328 26.0147 113.534 31.0687C109.739 36.1227 108.125 42.3642 108.987 48.6424C109.85 54.9207 113.086 60.4849 118.1 64.3098C122.179 67.4271 127.158 69.1122 132.276 69.1073C139.405 69.1073 146.453 65.8618 151.076 59.7059C154.87 54.6514 156.485 48.4104 155.622 42.1322C154.76 35.854 151.524 30.2898 146.509 26.4654C142.379 23.3135 137.449 21.6545 132.355 21.6545Z" fill="#2D4351"/>
</g>
</g>
</g>
<defs>
<clipPath id="clip0_322_2630">
<rect width="188" height="145" fill="white"/>
</clipPath>
</defs>
</svg>
