<svg width="150" height="150" viewBox="0 0 150 150" fill="none" xmlns="http://www.w3.org/2000/svg">
<g clip-path="url(#clip0_1404_24890)">
<path d="M150 76.8694C150 98.9186 140.191 118.711 124.638 132.245C123.489 133.247 122.311 134.213 121.103 135.142C120.144 135.88 119.165 136.596 118.166 137.288C116.35 138.549 114.476 139.731 112.543 140.834L112.255 141H37.7496C36.509 140.3 35.2911 139.567 34.0958 138.801C31.9314 137.411 29.841 135.912 27.833 134.31C10.8554 120.761 0 100.065 0 76.8694C0 36.0738 33.5794 3 74.9986 3C116.418 3 150 36.0738 150 76.8694Z" fill="#F3F8FF"/>
<path d="M95.1771 44.9673H59.3281V141H95.1771V44.9673Z" fill="#325D9C"/>
<path d="M80.5501 44.9673H44.7012V141H80.5501V44.9673Z" fill="#C9DAF4"/>
<path d="M63.2552 88.436H27.4062V141H63.2552V88.436Z" fill="#325D9C"/>
<path d="M48.6273 88.436H12.7783V141H48.6273V88.436Z" fill="#C9DAF4"/>
<path d="M137.38 112.665H101.531V141H137.38V112.665Z" fill="#325D9C"/>
<path d="M122.752 112.665H86.9033V141H122.752V112.665Z" fill="#C9DAF4"/>
<path d="M127.593 110.057H92.5527V112.665H127.593V110.057Z" fill="#002E5D"/>
<path d="M54.0933 85.6987H19.0527V88.4361H54.0933V85.6987Z" fill="#002E5D"/>
<path d="M87.6343 42.2297H52.5938V44.9671H87.6343V42.2297Z" fill="#325D9C"/>
<path d="M42.0997 56.1467C43.433 56.1497 44.7576 56.3606 46.0258 56.772V85.6891C45.849 85.6965 45.67 85.7008 45.4932 85.7008C38.1215 85.7008 31.3877 79.0853 30.4515 70.9243C29.5153 62.7633 34.729 56.1467 42.0997 56.1467Z" fill="#DD872A"/>
<path d="M31.8479 70.9232C32.7842 79.0831 39.5169 85.6986 46.8897 85.6986C49.0479 85.713 51.1646 85.1062 52.9875 83.9507C53.1821 83.8265 53.3727 83.6962 53.5595 83.5598C57.1138 80.9694 59.1493 76.2829 58.5368 70.9296V70.9232C58.5127 70.7102 58.4843 70.4971 58.4516 70.2841C57.2491 62.4171 50.6762 56.1414 43.4951 56.1414C36.1276 56.1467 30.9117 62.7622 31.8479 70.9232Z" fill="#FFC15A"/>
<path d="M50.6948 81.8712C55.861 79.2774 57.587 72.2711 54.5501 66.2223C51.5131 60.1734 44.8631 57.3726 39.697 59.9664C34.5308 62.5602 32.8047 69.5664 35.8417 75.6153C38.8787 81.6641 45.5286 84.465 50.6948 81.8712Z" fill="white"/>
<path d="M49.3802 79.2517C53.3104 77.2784 54.6234 71.948 52.3128 67.3459C50.0022 62.7439 44.943 60.6128 41.0128 62.586C37.0826 64.5593 35.7696 69.8897 38.0802 74.4918C40.3908 79.0938 45.4499 81.2249 49.3802 79.2517Z" fill="#FFC15A"/>
<path d="M47.8894 76.2825C50.4197 75.0122 51.2651 71.5808 49.7778 68.6184C48.2905 65.656 45.0336 64.2844 42.5033 65.5548C39.973 66.8251 39.1276 70.2565 40.6149 73.2189C42.1023 76.1813 45.3592 77.5529 47.8894 76.2825Z" fill="white"/>
<path d="M46.37 73.2577C47.4724 72.7042 47.8406 71.2088 47.1923 69.9177C46.5441 68.6265 45.1249 68.0285 44.0225 68.582C42.9201 69.1355 42.5519 70.6309 43.2001 71.9221C43.8484 73.2132 45.2676 73.8112 46.37 73.2577Z" fill="#FFC15A"/>
<g style="mix-blend-mode:multiply" opacity="0.25">
<path d="M46.3496 69.986L58.541 70.9297V70.9233C58.5169 70.7103 58.4885 70.4972 58.4558 70.2842L46.3986 69.3501L46.3496 69.986Z" fill="#AF6215"/>
</g>
<g style="mix-blend-mode:multiply" opacity="0.25">
<path d="M44.0156 78.458L52.9872 83.9509C53.1817 83.8266 53.3724 83.6963 53.5592 83.56L44.3416 77.9148L44.0156 78.458Z" fill="#AF6215"/>
</g>
<path d="M46.0254 69.4405L58.2381 62.2318L58.5864 60.5659L63.3475 57.7561L62.8799 59.8576L64.9463 60.4637L60.1852 63.2745L58.5587 62.776L46.3471 69.9848L46.0254 69.4405Z" fill="#002E5D"/>
<path d="M44.0944 77.8284L58.1669 79.5784L59.46 78.4728L64.9464 79.1545L63.2923 80.5338L64.5587 82.2753L59.0722 81.5936L58.0891 80.2047L44.0156 78.4557L44.0944 77.8284Z" fill="#002E5D"/>
<path d="M64.2654 28.0903L63.9639 30.2024C62.0922 29.9391 60.3364 29.1405 58.9078 27.9028C57.2174 26.4681 55.8306 24.3943 54.7985 21.7453C54.3799 20.6577 54.0347 19.5432 53.7653 18.4093C53.4579 17.1595 53.2443 15.8885 53.1263 14.6068L53.0943 14.0668C53.0886 13.9895 53.0989 13.9119 53.1246 13.8388C53.1503 13.7657 53.1908 13.6987 53.2436 13.642C53.2964 13.5853 53.3603 13.5401 53.4314 13.5093C53.5025 13.4785 53.5792 13.4627 53.6567 13.4629H61.1317V15.5931H55.9563C55.8869 15.5931 55.8183 15.6082 55.7553 15.6374C55.6923 15.6666 55.6365 15.7093 55.5918 15.7623C55.547 15.8154 55.5144 15.8776 55.4963 15.9446C55.4781 16.0116 55.4748 16.0818 55.4866 16.1502C55.5249 16.3718 55.5686 16.6103 55.6187 16.8628C55.9883 18.7235 56.7157 21.3448 58.0738 23.5922C59.4201 25.8173 61.3916 27.6791 64.2654 28.0903Z" fill="#FFC15A"/>
<path d="M87.3569 13.8996L87.3069 14.6048C87.0742 17.048 86.512 19.4486 85.6357 21.7411C84.6047 24.3901 83.2189 26.4585 81.5286 27.8975C80.0998 29.1357 78.3436 29.9347 76.4713 30.1982L76.1699 28.0861C79.0458 27.6749 81.0162 25.8131 82.3615 23.5923C83.9464 20.9806 84.6643 17.864 84.97 16.0299C84.9788 15.9767 84.9759 15.9223 84.9616 15.8704C84.9472 15.8185 84.9217 15.7703 84.8868 15.7292C84.852 15.6882 84.8086 15.6552 84.7596 15.6326C84.7107 15.61 84.6575 15.5984 84.6036 15.5985H79.3078V13.4683H86.949C87.0045 13.4683 87.0595 13.4797 87.1105 13.5017C87.1615 13.5237 87.2075 13.5559 87.2457 13.5962C87.2839 13.6366 87.3134 13.6843 87.3326 13.7365C87.3517 13.7887 87.36 13.8442 87.3569 13.8996Z" fill="#FFC15A"/>
<path d="M72.5338 31.3379H67.9463V40.2999H72.5338V31.3379Z" fill="#FFC15A"/>
<path d="M72.5338 30.6306V36.2428C70.8988 36.6166 69.3075 36.4292 67.9463 36.0393V30.6306H72.5338Z" fill="#EF9A1D"/>
<path d="M61.128 13.4629H58.0732V15.5963H61.128V13.4629Z" fill="#F49E21"/>
<path d="M64.2648 28.0903L63.9634 30.2025C62.0916 29.9391 60.3358 29.1405 58.9072 27.9028C58.3565 26.6193 58.0727 25.2372 58.0732 23.8405V23.5923C59.4196 25.8173 61.3911 27.6792 64.2648 28.0903Z" fill="#F49E21"/>
<path d="M82.3624 13.4629H79.3076V15.5963H82.3624V13.4629Z" fill="#F49E21"/>
<path d="M82.3611 23.5923V23.8362C82.3632 25.2335 82.0813 26.6167 81.5325 27.9018C80.1037 29.14 78.3475 29.9389 76.4753 30.2025L76.1738 28.0903C79.0443 27.6792 81.0159 25.8173 82.3611 23.5923Z" fill="#F49E21"/>
<path d="M81.4082 10.4028V23.8405C81.4009 26.8063 80.2197 29.6487 78.1228 31.7462C76.0259 33.8437 73.1839 35.0257 70.218 35.0339C68.9743 35.0355 67.7394 34.8262 66.5657 34.415C64.6144 33.7341 62.8883 32.5291 61.5765 30.9321C60.2648 29.3351 59.418 27.4078 59.129 25.3615C59.0583 24.8565 59.0227 24.3472 59.0225 23.8373V10.4028H81.4082Z" fill="#FFC15A"/>
<path d="M82.9497 10.1716V10.636C82.9497 10.7899 82.9194 10.9423 82.8605 11.0844C82.8016 11.2265 82.7153 11.3557 82.6065 11.4645C82.4977 11.5733 82.3686 11.6596 82.2264 11.7185C82.0843 11.7774 81.9319 11.8077 81.778 11.8077H58.6648C58.3541 11.8077 58.0561 11.6842 57.8363 11.4645C57.6166 11.2448 57.4932 10.9468 57.4932 10.636V10.1716C57.4932 9.8609 57.6166 9.56289 57.8363 9.34316C58.0561 9.12344 58.3541 9 58.6648 9H81.778C82.0888 9 82.3868 9.12344 82.6065 9.34316C82.8262 9.56289 82.9497 9.8609 82.9497 10.1716Z" fill="#FFC15A"/>
<path d="M71.1787 10.4038C70.7551 13.7695 69.404 16.9511 67.2763 19.5931C65.1485 22.2351 62.328 24.2334 59.13 25.3646C59.0593 24.8596 59.0238 24.3503 59.0234 23.8404V10.4038H71.1787Z" fill="#FFD469"/>
<path d="M73.004 22.9126C72.9746 22.9409 72.9526 22.976 72.9398 23.0148C72.927 23.0536 72.9238 23.0949 72.9306 23.1352L73.4525 26.3125C73.4601 26.3588 73.4546 26.4064 73.4365 26.4498C73.4185 26.4932 73.3886 26.5307 73.3504 26.558C73.3121 26.5852 73.267 26.6013 73.2201 26.6042C73.1731 26.6071 73.1264 26.5968 73.085 26.5745L70.2422 25.0567C70.2062 25.0373 70.1659 25.0271 70.125 25.0271C70.0841 25.0271 70.0439 25.0373 70.0078 25.0567L67.1533 26.5319C67.1117 26.5537 67.0648 26.5634 67.018 26.5599C66.9711 26.5564 66.9262 26.5399 66.8882 26.5122C66.8503 26.4845 66.8209 26.4467 66.8034 26.4031C66.7859 26.3595 66.7809 26.3119 66.789 26.2656L67.2343 23.7753L67.3557 23.0958C67.3631 23.0557 67.3606 23.0145 67.3483 22.9757C67.3361 22.9369 67.3145 22.9017 67.2854 22.8732L66.7049 22.298L65.0007 20.6076C64.9678 20.5745 64.9448 20.5329 64.9342 20.4874C64.9237 20.4419 64.926 20.3944 64.9409 20.3502C64.9559 20.3059 64.9828 20.2667 65.0188 20.237C65.0547 20.2072 65.0982 20.188 65.1445 20.1816L68.325 19.7396C68.365 19.7336 68.4031 19.7183 68.436 19.6948C68.469 19.6713 68.4959 19.6402 68.5145 19.6043L69.9589 16.7284C69.98 16.6866 70.0123 16.6513 70.0523 16.6267C70.0923 16.6021 70.1383 16.5891 70.1852 16.5891C70.2321 16.5891 70.2781 16.6021 70.3181 16.6267C70.3581 16.6513 70.3904 16.6866 70.4115 16.7284L71.2455 18.4518L71.3446 18.6553L71.8154 19.6277C71.8332 19.6642 71.8595 19.6958 71.8922 19.7199C71.9248 19.744 71.9628 19.7599 72.0028 19.7662L75.1865 20.2519C75.2323 20.2591 75.2753 20.2789 75.3105 20.3091C75.3457 20.3393 75.3719 20.3787 75.386 20.4229C75.4002 20.4671 75.4018 20.5143 75.3906 20.5594C75.3794 20.6044 75.356 20.6455 75.3228 20.6779L73.004 22.9126Z" fill="#FCE897"/>
<path d="M59.0254 11.8088V12.3606L81.409 13.463V11.8088H59.0254Z" fill="#F9B13D"/>
<path d="M73.0753 9C72.8853 9.96372 72.5954 10.905 72.2104 11.8087H58.6599C58.3492 11.8087 58.0512 11.6853 57.8314 11.4656C57.6117 11.2458 57.4883 10.9478 57.4883 10.6371V10.1716C57.4883 9.8609 57.6117 9.56289 57.8314 9.34316C58.0512 9.12344 58.3492 9 58.6599 9H73.0753Z" fill="#FFD469"/>
<path d="M71.3469 18.6553C71.0352 19.739 70.5108 20.7499 69.8044 21.629C69.098 22.508 68.2236 23.2377 67.2323 23.7753L67.3537 23.0958C67.3612 23.0557 67.3587 23.0145 67.3464 22.9757C67.3341 22.9369 67.3125 22.9017 67.2834 22.8732L66.7029 22.298L64.9987 20.6076C64.9659 20.5745 64.9428 20.5329 64.9323 20.4874C64.9217 20.4419 64.9241 20.3944 64.939 20.3502C64.9539 20.3059 64.9809 20.2667 65.0168 20.237C65.0528 20.2072 65.0963 20.188 65.1425 20.1816L68.3251 19.7396C68.3652 19.7336 68.4033 19.7183 68.4362 19.6948C68.4692 19.6713 68.4961 19.6402 68.5147 19.6043L69.959 16.7284C69.9802 16.6866 70.0125 16.6513 70.0525 16.6267C70.0924 16.6021 70.1384 16.5891 70.1854 16.5891C70.2323 16.5891 70.2783 16.6021 70.3183 16.6267C70.3582 16.6513 70.3906 16.6866 70.4117 16.7284L71.2457 18.4518L71.3469 18.6553Z" fill="#FFEEA4"/>
<path d="M74.636 40.3008H65.8008V42.2297H74.636V40.3008Z" fill="#FFC15A"/>
<g style="mix-blend-mode:multiply" opacity="0.18">
<path d="M82.9492 10.1717V10.6361C82.9492 10.79 82.9189 10.9423 82.86 11.0845C82.8011 11.2266 82.7148 11.3558 82.606 11.4646C82.4972 11.5734 82.3681 11.6597 82.2259 11.7186C82.0838 11.7774 81.9314 11.8077 81.7776 11.8077H81.4112V23.8437C81.403 26.8095 80.221 29.6516 78.1235 31.7485C76.026 33.8454 73.1836 35.0266 70.2177 35.0339C68.9741 35.0355 67.7391 34.8263 66.5654 34.415C77.1656 32.7907 78.4586 19.2253 78.3532 11.8077C78.3532 11.3082 78.3361 10.8395 78.318 10.4028C78.2978 9.88626 78.2733 9.41441 78.2456 9.0022H81.7744C81.9283 9.00178 82.0808 9.03171 82.2232 9.09027C82.3656 9.14882 82.495 9.23487 82.6041 9.34348C82.7133 9.4521 82.7999 9.58115 82.8591 9.72326C82.9183 9.86537 82.9489 10.0178 82.9492 10.1717Z" fill="#AF6215"/>
</g>
<g style="mix-blend-mode:multiply" opacity="0.25">
<path d="M63.2549 88.436L68.1864 141H63.2549V88.436Z" fill="#325D9C"/>
</g>
<path d="M80.7099 103.53H80.3914V45.1268H44.7012V44.8083H80.7099V103.53Z" fill="#002E5D"/>
<path d="M12.7789 119.409C12.7365 119.409 12.6959 119.392 12.6659 119.362C12.636 119.332 12.6191 119.291 12.6191 119.249V88.3945C12.6194 88.3524 12.6364 88.312 12.6663 88.2823C12.6962 88.2525 12.7367 88.2358 12.7789 88.2358H31.9405C31.9829 88.2358 32.0235 88.2527 32.0535 88.2826C32.0835 88.3126 32.1003 88.3532 32.1003 88.3956C32.1003 88.438 32.0835 88.4786 32.0535 88.5086C32.0235 88.5385 31.9829 88.5554 31.9405 88.5554H12.9387V119.25C12.9384 119.292 12.9214 119.333 12.8915 119.362C12.8616 119.392 12.8211 119.409 12.7789 119.409Z" fill="#002E5D"/>
</g>
<defs>
<clipPath id="clip0_1404_24890">
<rect width="150" height="150" fill="white"/>
</clipPath>
</defs>
</svg>
