<svg width="150" height="150" viewBox="0 0 150 150" fill="none" xmlns="http://www.w3.org/2000/svg">
<g clip-path="url(#clip0_1403_19934)">
<path d="M145.147 38.5049L150 103.283L8.11816 119.517V67.766L145.147 38.5049Z" fill="#F3F8FF"/>
<path d="M90.3804 18.3827L63.8623 20.4371L64.7057 31.3238L91.2238 29.2694L90.3804 18.3827Z" fill="#C9DAF4"/>
<path d="M86.6382 27.0794L82.2312 20.687C83.0048 19.6621 83.4662 18.4357 83.5598 17.1551C83.6534 15.8744 83.3753 14.5939 82.7589 13.4675C82.1425 12.3411 81.2139 11.4165 80.0849 10.805C78.9558 10.1934 77.6741 9.92078 76.3939 10.0199C75.1136 10.119 73.8892 10.5856 72.8677 11.3637C71.8462 12.1418 71.0711 13.1982 70.6354 14.4061C70.1997 15.614 70.122 16.922 70.4116 18.173C70.7012 19.424 71.3458 20.5648 72.268 21.4583L68.8934 28.4534C68.88 28.481 68.8722 28.511 68.8705 28.5417C68.8688 28.5723 68.8731 28.603 68.8832 28.632C68.8934 28.6609 68.9092 28.6876 68.9297 28.7105C68.9502 28.7333 68.975 28.7519 69.0027 28.7651C69.0351 28.7813 69.0709 28.7893 69.1071 28.7884C69.1505 28.788 69.1929 28.7754 69.2295 28.7521C69.2662 28.7288 69.2956 28.6958 69.3144 28.6567L72.7581 21.5057C72.7581 21.5057 72.7581 21.4993 72.7581 21.4953C72.7613 21.4874 72.764 21.4793 72.7662 21.4711C72.7685 21.4643 72.7704 21.4573 72.7718 21.4503C72.7722 21.4428 72.7722 21.4353 72.7718 21.4278C72.7739 21.4128 72.7739 21.3977 72.7718 21.3828C72.7722 21.3755 72.7722 21.3683 72.7718 21.3611C72.7718 21.353 72.7678 21.3458 72.7662 21.3386L72.7589 21.3185C72.7589 21.3113 72.7525 21.304 72.7493 21.2968C72.7461 21.2896 72.7421 21.2839 72.738 21.2775C72.734 21.2711 72.73 21.2655 72.7252 21.2598C72.72 21.2533 72.7143 21.2471 72.7083 21.2414L72.7011 21.2325C71.8125 20.4151 71.182 19.356 70.8869 18.1852C70.5917 17.0145 70.6449 15.783 71.0398 14.6421C71.4347 13.5011 72.1542 12.5003 73.1099 11.7625C74.0657 11.0247 75.216 10.582 76.4198 10.4887C77.6235 10.3955 78.8283 10.6558 79.8863 11.2377C80.9442 11.8196 81.8092 12.6977 82.375 13.7642C82.9409 14.8308 83.183 16.0394 83.0717 17.2416C82.9604 18.4438 82.5004 19.5874 81.7483 20.5319C81.7461 20.5349 81.7442 20.5381 81.7426 20.5415C81.7378 20.5488 81.733 20.5552 81.729 20.5624C81.725 20.5689 81.7215 20.5756 81.7185 20.5825C81.7185 20.5889 81.7129 20.5962 81.7105 20.6034C81.708 20.6105 81.7058 20.6177 81.7041 20.6251C81.7037 20.6323 81.7037 20.6396 81.7041 20.6468C81.7037 20.6543 81.7037 20.6618 81.7041 20.6693C81.7037 20.6768 81.7037 20.6843 81.7041 20.6918C81.7033 20.699 81.7033 20.7063 81.7041 20.7135C81.7036 20.721 81.7036 20.7285 81.7041 20.736L81.7113 20.7577C81.7113 20.7649 81.7169 20.7713 81.7193 20.7777C81.7231 20.7855 81.7274 20.793 81.7322 20.8002L81.737 20.8099L86.2365 27.3414C86.2716 27.3914 86.3248 27.4258 86.3849 27.437C86.445 27.4483 86.5071 27.4356 86.5579 27.4016C86.5844 27.3858 86.6076 27.365 86.626 27.3402C86.6444 27.3154 86.6577 27.2872 86.6652 27.2573C86.6727 27.2273 86.6741 27.1962 86.6695 27.1657C86.6649 27.1351 86.6543 27.1058 86.6382 27.0794Z" fill="#C9DAF4"/>
<path d="M115.041 125.004L40.2432 122.475C47.5596 90.9296 49.5868 58.5373 46.2427 26.6279L121.041 29.1565C124.385 61.0619 122.357 93.459 115.041 125.004Z" fill="#C9DAF4"/>
<path d="M108.755 120.389H33.9141C38.2517 106.073 41.4858 91.4464 43.588 76.6364C45.2151 65.1612 46.1214 53.5952 46.3013 42.0065C46.3784 36.9028 46.3107 31.8141 46.098 26.7404H120.938C122.239 57.7338 118.121 89.3909 108.755 120.389Z" fill="white"/>
<path d="M40.3182 95.4243C40.3108 95.4251 40.3032 95.4251 40.2957 95.4243C40.2682 95.4176 40.2444 95.4004 40.2294 95.3763C40.2144 95.3523 40.2093 95.3234 40.2154 95.2957C41.1643 90.756 42.0128 86.1473 42.7375 81.5964C42.7398 81.5823 42.7448 81.5688 42.7523 81.5566C42.7598 81.5445 42.7696 81.5339 42.7811 81.5256C42.7927 81.5172 42.8058 81.5112 42.8197 81.5079C42.8336 81.5046 42.848 81.5041 42.8621 81.5064C42.8761 81.5087 42.8896 81.5137 42.9018 81.5212C42.9139 81.5286 42.9245 81.5385 42.9328 81.55C42.9412 81.5616 42.9472 81.5747 42.9505 81.5886C42.9538 81.6024 42.9543 81.6168 42.952 81.6309C42.2289 86.185 41.3772 90.797 40.4267 95.3399C40.4214 95.3645 40.4077 95.3864 40.3878 95.4018C40.368 95.4173 40.3434 95.4252 40.3182 95.4243Z" fill="#002E5D"/>
<path d="M108.755 120.498H77.544C77.5152 120.498 77.4877 120.487 77.4673 120.467C77.447 120.446 77.4355 120.419 77.4355 120.39C77.4355 120.361 77.447 120.334 77.4673 120.313C77.4877 120.293 77.5152 120.282 77.544 120.282H108.675C118.031 89.2793 122.123 57.8423 120.835 26.8417H93.833C93.818 26.843 93.8029 26.8411 93.7887 26.8363C93.7744 26.8314 93.7614 26.8237 93.7503 26.8135C93.7392 26.8034 93.7304 26.791 93.7243 26.7772C93.7183 26.7635 93.7152 26.7486 93.7152 26.7336C93.7152 26.7186 93.7183 26.7037 93.7243 26.6899C93.7304 26.6762 93.7392 26.6638 93.7503 26.6537C93.7614 26.6435 93.7744 26.6358 93.7887 26.6309C93.8029 26.6261 93.818 26.6242 93.833 26.6255H120.938C120.966 26.6255 120.993 26.6363 121.013 26.6556C121.034 26.6749 121.046 26.7012 121.047 26.7292C121.694 42.1624 120.991 57.9243 118.958 73.576C116.925 89.2278 113.525 104.988 108.862 120.419C108.856 120.442 108.842 120.463 108.822 120.477C108.803 120.491 108.779 120.499 108.755 120.498Z" fill="#002E5D"/>
<path d="M46.2465 31.2945C46.2182 31.2945 46.1911 31.2833 46.1709 31.2635C46.1508 31.2437 46.1393 31.2167 46.1388 31.1884C46.1011 29.71 46.0513 28.2155 45.9894 26.7379C45.9886 26.7232 45.9909 26.7085 45.996 26.6947C46.0011 26.6809 46.009 26.6683 46.0191 26.6576C46.0296 26.647 46.0421 26.6386 46.0559 26.6329C46.0698 26.6273 46.0846 26.6244 46.0995 26.6246H58.2521C58.2792 26.627 58.3044 26.6394 58.3227 26.6594C58.3411 26.6794 58.3513 26.7056 58.3513 26.7327C58.3513 26.7599 58.3411 26.786 58.3227 26.806C58.3044 26.826 58.2792 26.8384 58.2521 26.8408H46.2104C46.2698 28.2798 46.3188 29.7397 46.355 31.1796C46.3556 31.2082 46.3449 31.2359 46.3252 31.2567C46.3055 31.2775 46.2784 31.2896 46.2497 31.2905L46.2465 31.2945Z" fill="#002E5D"/>
<path d="M71.6277 73.8741L43.9816 79.2261C43.8423 78.3631 43.7111 77.4999 43.5879 76.6364C45.2151 65.1612 46.1213 53.5951 46.3012 42.0065C52.9337 42.0659 59.5672 42.1248 66.2018 42.1832C66.5545 52.9451 68.3801 63.6079 71.6277 73.8741Z" fill="#C9DAF4"/>
<path d="M68.778 72.8666L40.7598 75.6788C39.8927 63.2297 40.7408 50.7206 43.2804 38.5026L66.2599 40.8077C65.6307 51.5589 66.478 62.3455 68.778 72.8666Z" fill="white"/>
<path d="M65.2811 41.7824C65.1563 44.0037 65.0896 46.2267 65.081 48.4512C57.3682 49.7979 49.6901 51.3253 42.0469 53.0335C42.4711 48.5876 43.1061 44.1746 43.9519 39.7946L65.2811 41.7824Z" fill="#F3F8FF"/>
<path d="M41.9871 53.7019C49.647 51.9718 57.3454 50.4165 65.0824 49.0361C65.0824 49.5182 65.0824 49.7641 65.0936 50.2494C57.3159 51.6801 49.5757 53.293 41.873 55.0879C41.9148 54.5335 41.9421 54.2563 41.9871 53.7019Z" fill="#F3F8FF"/>
<path d="M65.1257 51.7928C65.1621 52.9756 65.2127 54.1572 65.2775 55.3378C57.3268 57.0101 49.4179 58.8678 41.5508 60.9107C41.599 59.5561 41.6646 58.2027 41.7476 56.8508C49.5012 54.9883 57.2939 53.3023 65.1257 51.7928Z" fill="#F3F8FF"/>
<path d="M41.4971 67.6271C49.5367 65.2948 57.625 63.1458 65.7622 61.1799C66.166 64.7902 66.7285 68.3748 67.4495 71.9337L41.7815 74.3514C41.6358 72.1113 41.541 69.8698 41.4971 67.6271Z" fill="#F3F8FF"/>
<path d="M40.6516 58.2071H40.6444C40.6158 58.2052 40.589 58.1921 40.5701 58.1706C40.5511 58.149 40.5414 58.1208 40.5432 58.0922C40.9543 51.5014 41.8342 44.9483 43.1762 38.4825C43.1816 38.4564 43.1965 38.4332 43.218 38.4175C43.2396 38.4017 43.2662 38.3946 43.2927 38.3973L66.2722 40.7017C66.3 40.7045 66.3256 40.718 66.3437 40.7392C66.3618 40.7605 66.371 40.7879 66.3694 40.8158C66.175 44.1374 66.1155 47.508 66.191 50.8352C66.1915 50.8639 66.1806 50.8916 66.1608 50.9124C66.1409 50.9331 66.1137 50.9452 66.085 50.946C66.0707 50.9466 66.0564 50.9442 66.043 50.9392C66.0297 50.9341 66.0174 50.9264 66.0071 50.9165C65.9968 50.9066 65.9885 50.8947 65.9828 50.8816C65.9772 50.8684 65.9742 50.8543 65.9741 50.84C65.8994 47.5417 65.9572 44.2008 66.1469 40.9074L43.3682 38.6223C42.0398 45.0471 41.168 51.5579 40.7593 58.1059C40.7575 58.1332 40.7454 58.1589 40.7254 58.1776C40.7054 58.1964 40.6791 58.207 40.6516 58.2071Z" fill="#002E5D"/>
<path d="M40.7619 75.7895C40.7363 75.7897 40.7115 75.7806 40.692 75.7638C40.681 75.7546 40.6718 75.7432 40.6652 75.7303C40.6586 75.7175 40.6546 75.7035 40.6535 75.6891C40.4807 73.2071 40.3698 70.689 40.3232 68.2031C40.3232 68.1743 40.3347 68.1467 40.355 68.1264C40.3754 68.106 40.4029 68.0946 40.4317 68.0946C40.4605 68.0946 40.4881 68.106 40.5084 68.1264C40.5288 68.1467 40.5402 68.1743 40.5402 68.2031C40.5852 70.6481 40.6936 73.1244 40.8616 75.5662L63.0874 73.3293C63.116 73.3266 63.1444 73.3353 63.1665 73.3535C63.1887 73.3717 63.2027 73.398 63.2055 73.4265C63.2071 73.4406 63.2058 73.4549 63.2018 73.4685C63.1978 73.4821 63.1911 73.4948 63.1821 73.5058C63.1731 73.5168 63.162 73.5259 63.1495 73.5325C63.137 73.5392 63.1233 73.5433 63.1091 73.5446L40.7724 75.7887L40.7619 75.7895Z" fill="#002E5D"/>
<path d="M55.8418 48.0286L45.5573 47.5128C45.5431 47.5121 45.5293 47.5086 45.5165 47.5025C45.5037 47.4964 45.4922 47.4878 45.4827 47.4773C45.4733 47.4668 45.466 47.4545 45.4612 47.4411C45.4565 47.4278 45.4545 47.4136 45.4552 47.3995C45.4554 47.3851 45.4585 47.371 45.4644 47.3579C45.4703 47.3448 45.4788 47.333 45.4895 47.3234C45.5001 47.3137 45.5126 47.3064 45.5262 47.3018C45.5398 47.2972 45.5542 47.2954 45.5685 47.2966L55.8531 47.8125C55.8818 47.8132 55.9091 47.8254 55.9289 47.8462C55.9488 47.8671 55.9595 47.895 55.9587 47.9238C55.958 47.9525 55.9458 47.9798 55.925 47.9996C55.9041 48.0194 55.8762 48.0302 55.8474 48.0294L55.8418 48.0286Z" fill="#002E5D"/>
<path d="M62.4528 53.9936L44.9506 53.7277C44.9364 53.7275 44.9223 53.7245 44.9092 53.7188C44.8962 53.7132 44.8843 53.705 44.8744 53.6948C44.8645 53.6846 44.8567 53.6725 44.8514 53.6592C44.8461 53.646 44.8435 53.6319 44.8438 53.6176C44.8452 53.5892 44.8573 53.5623 44.8778 53.5425C44.8982 53.5227 44.9254 53.5113 44.9538 53.5107L62.456 53.7775C62.4831 53.7798 62.5083 53.7922 62.5266 53.8122C62.545 53.8322 62.5552 53.8584 62.5552 53.8856C62.5552 53.9127 62.545 53.9389 62.5266 53.9589C62.5083 53.9789 62.4831 53.9913 62.456 53.9936H62.4528Z" fill="#002E5D"/>
<path d="M44.6426 59.9627C44.6139 59.9627 44.5863 59.9512 44.5659 59.9309C44.5456 59.9106 44.5342 59.883 44.5342 59.8542C44.5342 59.8254 44.5456 59.7978 44.5659 59.7775C44.5863 59.7572 44.6139 59.7457 44.6426 59.7457L62.7458 59.4034C62.7746 59.4034 62.8022 59.4146 62.8229 59.4345C62.8435 59.4544 62.8557 59.4816 62.8567 59.5103C62.8569 59.539 62.8459 59.5666 62.8259 59.5872C62.8059 59.6078 62.7786 59.6197 62.7499 59.6204L44.6467 59.9627H44.6426Z" fill="#002E5D"/>
<path d="M44.6307 66.2056C44.6035 66.2041 44.5779 66.1924 44.5589 66.1729C44.54 66.1533 44.5291 66.1274 44.5284 66.1002C44.5276 66.0729 44.5372 66.0465 44.5551 66.026C44.573 66.0055 44.598 65.9924 44.6251 65.9895L63.3004 65.0117C63.3146 65.0108 63.3289 65.0128 63.3423 65.0175C63.3558 65.0223 63.3681 65.0296 63.3787 65.0392C63.3892 65.0488 63.3978 65.0604 63.4038 65.0733C63.4098 65.0863 63.4131 65.1003 63.4137 65.1145C63.4152 65.1432 63.4053 65.1712 63.3862 65.1926C63.3671 65.214 63.3402 65.227 63.3116 65.2286L44.6363 66.2056H44.6307Z" fill="#002E5D"/>
<path d="M55.8751 38.6729L53.3466 43.0968L52.4531 37.7714L55.8751 38.6729Z" fill="#454E54"/>
<path d="M56.6363 38.6128C56.8634 37.7317 55.8736 36.7148 54.4256 36.3417C52.9776 35.9685 51.6197 36.3802 51.3926 37.2613C51.1655 38.1424 52.1553 39.1592 53.6033 39.5324C55.0513 39.9056 56.4092 39.4939 56.6363 38.6128Z" fill="#454E54"/>
<path d="M73.6797 106.313L101.327 111.665C103.324 99.3464 103.619 86.812 102.203 74.4132L79.1112 74.6181C78.7576 85.3816 76.9301 96.0458 73.6797 106.313Z" fill="#C9DAF4"/>
<path d="M76.5293 105.305L104.548 108.118C105.415 95.6686 104.566 83.1596 102.028 70.9414L79.0482 73.2458C79.6775 83.9972 78.83 94.7842 76.5293 105.305Z" fill="white"/>
<path d="M80.0264 74.2212C80.1506 76.4425 80.2173 78.6655 80.2264 80.8901C87.9398 82.2367 95.6182 83.7647 103.261 85.4739C102.837 81.028 102.202 76.615 101.356 72.235L80.0264 74.2212Z" fill="#F3F8FF"/>
<path d="M103.323 86.1408C95.6602 84.4112 87.9618 82.8559 80.228 81.475C80.228 81.9571 80.228 82.2029 80.2168 82.6882C87.9945 84.119 95.7347 85.7318 103.437 87.5268C103.395 86.9724 103.372 86.6952 103.323 86.1408Z" fill="#F3F8FF"/>
<path d="M80.187 84.2317C80.1506 85.4144 80.1 86.5961 80.0352 87.7766C87.9864 89.449 95.8953 91.3063 103.762 93.3488C103.714 91.9946 103.648 90.6416 103.564 89.2896C95.8085 87.4287 88.0161 85.7428 80.187 84.2317Z" fill="#F3F8FF"/>
<path d="M103.81 100.066C95.7691 97.7337 87.6808 95.5846 79.5447 93.6188C79.1408 97.2285 78.5784 100.813 77.8574 104.373L103.525 106.79C103.672 104.55 103.767 102.309 103.81 100.066Z" fill="#F3F8FF"/>
<path d="M104.658 90.6459C104.63 90.646 104.604 90.6355 104.584 90.6167C104.564 90.5979 104.552 90.5721 104.55 90.5447C104.141 83.9968 103.269 77.486 101.941 71.0611L79.1633 73.3462C79.353 76.6405 79.4116 79.9805 79.3361 83.2788C79.3361 83.2931 79.3332 83.3072 79.3276 83.3204C79.3221 83.3335 79.3139 83.3454 79.3036 83.3553C79.2933 83.3652 79.2812 83.3729 79.2678 83.378C79.2545 83.3831 79.2403 83.3854 79.226 83.3849C79.2118 83.3846 79.1977 83.3815 79.1847 83.3757C79.1716 83.37 79.1599 83.3617 79.15 83.3514C79.1402 83.3411 79.1324 83.329 79.1273 83.3157C79.1221 83.3024 79.1196 83.2883 79.12 83.274C79.1955 79.9468 79.1352 76.5762 78.9416 73.2546C78.94 73.2267 78.9492 73.1993 78.9673 73.1781C78.9854 73.1568 79.011 73.1434 79.0388 73.1405L102.018 70.8361C102.045 70.8334 102.071 70.8406 102.093 70.8563C102.114 70.8721 102.129 70.8952 102.135 70.9213C103.476 77.3872 104.356 83.9403 104.768 90.531C104.769 90.5596 104.76 90.5877 104.741 90.6092C104.722 90.6307 104.695 90.6439 104.667 90.6459H104.658Z" fill="#002E5D"/>
<path d="M104.548 108.228H104.538L82.2008 105.984C82.1859 105.984 82.1713 105.98 82.1578 105.974C82.1444 105.968 82.1324 105.959 82.1226 105.947C82.1128 105.936 82.1054 105.923 82.1009 105.909C82.0963 105.895 82.0948 105.88 82.0963 105.865C82.0977 105.85 82.1023 105.836 82.1095 105.823C82.1168 105.81 82.1267 105.799 82.1385 105.79C82.1503 105.781 82.1639 105.774 82.1783 105.771C82.1928 105.767 82.2078 105.766 82.2225 105.769L104.448 108.002C104.616 105.56 104.724 103.084 104.769 100.639C104.768 100.624 104.769 100.609 104.774 100.595C104.779 100.58 104.787 100.567 104.797 100.556C104.807 100.545 104.82 100.536 104.833 100.53C104.847 100.524 104.862 100.521 104.877 100.521C104.892 100.521 104.907 100.524 104.921 100.53C104.934 100.536 104.947 100.545 104.957 100.556C104.967 100.567 104.975 100.58 104.98 100.595C104.984 100.609 104.986 100.624 104.985 100.639C104.939 103.125 104.824 105.643 104.655 108.124C104.654 108.139 104.65 108.153 104.644 108.166C104.637 108.179 104.628 108.19 104.617 108.2C104.598 108.217 104.574 108.227 104.548 108.228Z" fill="#002E5D"/>
<path d="M89.4648 80.4674C89.4361 80.4681 89.4082 80.4574 89.3873 80.4376C89.3664 80.4178 89.3543 80.3905 89.3536 80.3617C89.3528 80.333 89.3635 80.3051 89.3833 80.2842C89.4032 80.2633 89.4304 80.2512 89.4592 80.2505L99.7438 79.7346C99.7712 79.7353 99.7973 79.7462 99.817 79.7654C99.8366 79.7845 99.8483 79.8104 99.8496 79.8378C99.8509 79.8652 99.8418 79.8921 99.8241 79.9131C99.8064 79.934 99.7814 79.9475 99.7542 79.9508L89.4697 80.4666L89.4648 80.4674Z" fill="#002E5D"/>
<path d="M82.856 86.4325C82.8289 86.4301 82.8037 86.4177 82.7854 86.3977C82.767 86.3777 82.7568 86.3516 82.7568 86.3244C82.7568 86.2973 82.767 86.2711 82.7854 86.2511C82.8037 86.2311 82.8289 86.2187 82.856 86.2163L100.355 85.9496C100.384 85.9496 100.411 85.961 100.432 85.9814C100.452 86.0017 100.463 86.0293 100.463 86.0581C100.463 86.0868 100.452 86.1144 100.432 86.1348C100.411 86.1551 100.384 86.1665 100.355 86.1665L82.8528 86.4325H82.856Z" fill="#002E5D"/>
<path d="M100.667 92.4016L82.5641 92.0593C82.5498 92.059 82.5358 92.0558 82.5228 92.0501C82.5097 92.0444 82.4979 92.0361 82.4881 92.0258C82.4782 92.0155 82.4705 92.0034 82.4654 91.9901C82.4602 91.9768 82.4577 91.9626 82.458 91.9484C82.4581 91.9342 82.4611 91.9201 82.4667 91.907C82.4723 91.8939 82.4805 91.8821 82.4907 91.8722C82.501 91.8623 82.5131 91.8546 82.5264 91.8495C82.5397 91.8443 82.5539 91.8419 82.5681 91.8423L100.671 92.1846C100.7 92.1846 100.728 92.196 100.748 92.2164C100.768 92.2367 100.78 92.2643 100.78 92.2931C100.78 92.3219 100.768 92.3494 100.748 92.3698C100.728 92.3901 100.7 92.4016 100.671 92.4016H100.667Z" fill="#002E5D"/>
<path d="M100.676 98.6446L81.998 97.6668C81.9831 97.667 81.9683 97.6642 81.9546 97.6585C81.9409 97.6528 81.9284 97.6443 81.9181 97.6336C81.9078 97.6229 81.8998 97.6102 81.8946 97.5963C81.8894 97.5824 81.8871 97.5675 81.8878 97.5527C81.8886 97.5378 81.8924 97.5233 81.8991 97.51C81.9057 97.4966 81.915 97.4848 81.9264 97.4753C81.9377 97.4657 81.951 97.4586 81.9652 97.4543C81.9795 97.4501 81.9945 97.4488 82.0092 97.4506L100.684 98.4284C100.712 98.4314 100.737 98.4444 100.754 98.4649C100.772 98.4854 100.782 98.5119 100.781 98.5391C100.781 98.5663 100.77 98.5923 100.751 98.6118C100.732 98.6314 100.706 98.6431 100.679 98.6446H100.676Z" fill="#002E5D"/>
<path d="M89.4336 71.1117L91.963 75.5357L92.8564 70.2102L89.4336 71.1117Z" fill="#454E54"/>
<path d="M91.5311 72.8577C92.9791 72.4845 93.9688 71.4677 93.7417 70.5866C93.5146 69.7055 92.1567 69.2937 90.7087 69.6669C89.2607 70.0401 88.271 71.0569 88.4981 71.938C88.7252 72.8191 90.0831 73.2309 91.5311 72.8577Z" fill="#454E54"/>
<path d="M100.538 35.5847L73.6816 40.079L74.7417 46.4139L101.598 41.9197L100.538 35.5847Z" fill="#F3F8FF"/>
<path d="M106.472 50.6736H79.2422V57.0966H106.472V50.6736Z" fill="#F3F8FF"/>
<path d="M73.973 82.3715L49.4688 83.8745L49.862 90.2855L74.3662 88.7824L73.973 82.3715Z" fill="#F3F8FF"/>
<path d="M75.1259 46.8723L74.3698 45.9523L73.7744 46.9969C73.7116 47.1103 73.6361 47.2162 73.5495 47.3126C73.4816 47.3795 73.3915 47.4193 73.2964 47.4243C73.1871 47.4376 73.0768 47.4089 72.9878 47.344C72.9473 47.317 72.9133 47.2814 72.8881 47.2397C72.863 47.198 72.8474 47.1513 72.8424 47.1029C72.8338 47.006 72.8842 46.8619 72.9935 46.6706L73.7166 45.4027L72.8882 44.4747C72.7452 44.3229 72.668 44.1855 72.6576 44.0642C72.6533 44.0173 72.6593 43.97 72.6753 43.9257C72.6913 43.8814 72.7168 43.8412 72.75 43.8078C72.8249 43.7279 72.9275 43.6796 73.0368 43.6729C73.134 43.6607 73.2323 43.6844 73.3132 43.7395C73.414 43.8174 73.5058 43.906 73.5872 44.0039L74.2573 44.7656L74.7635 43.897C74.8256 43.7844 74.9009 43.6794 74.9877 43.5845C75.0575 43.5181 75.1486 43.4785 75.2448 43.4728C75.3542 43.4592 75.4648 43.4861 75.5557 43.5483C75.5956 43.5748 75.629 43.6098 75.6536 43.6508C75.6782 43.6918 75.6934 43.7377 75.698 43.7853C75.7044 43.8552 75.6937 43.9255 75.6666 43.9902C75.6311 44.0744 75.5878 44.1551 75.5373 44.2313L74.8897 45.2927L75.8297 46.4103C75.9776 46.5855 76.0547 46.7197 76.0635 46.8121C76.0678 46.8602 76.0611 46.9087 76.044 46.9539C76.0269 46.9991 75.9998 47.0399 75.9647 47.0732C75.8873 47.151 75.7842 47.1978 75.6747 47.205C75.5774 47.2163 75.4793 47.1924 75.3983 47.1375C75.2969 47.0606 75.2054 46.9715 75.1259 46.8723Z" fill="#454E54"/>
<path d="M78.7187 46.547L77.9627 45.6262L77.3665 46.6707C77.3042 46.7843 77.2289 46.8902 77.1423 46.9865C77.0744 47.0534 76.9844 47.0932 76.8892 47.0982C76.7799 47.1115 76.6696 47.0828 76.5807 47.0178C76.5401 46.9909 76.5061 46.9553 76.4809 46.9136C76.4558 46.8719 76.4402 46.8252 76.4352 46.7768C76.4267 46.6804 76.477 46.5365 76.5863 46.3453L77.3094 45.0766L76.481 44.1494C76.338 43.9967 76.2612 43.8599 76.2504 43.7388C76.246 43.692 76.2519 43.6448 76.2678 43.6005C76.2836 43.5562 76.3089 43.5159 76.342 43.4825C76.4187 43.4032 76.5227 43.356 76.6329 43.3508C76.7301 43.3385 76.8284 43.3623 76.9093 43.4174C77.0099 43.4951 77.1016 43.5838 77.1825 43.6818L77.8534 44.4435L78.3588 43.5749C78.4209 43.4621 78.4964 43.3571 78.5837 43.2624C78.6533 43.1955 78.7445 43.1558 78.8409 43.1507C78.9503 43.1368 79.061 43.1636 79.1518 43.2262C79.1922 43.2531 79.2259 43.2887 79.2505 43.3304C79.2752 43.3722 79.29 43.419 79.294 43.4673C79.3001 43.5371 79.2893 43.6073 79.2627 43.6721C79.227 43.7563 79.1837 43.837 79.1333 43.9132L78.4857 44.9746L79.4274 46.0834C79.5744 46.2577 79.6524 46.3927 79.6612 46.4851C79.6653 46.5332 79.6586 46.5815 79.6415 46.6265C79.6243 46.6716 79.5973 46.7122 79.5624 46.7455C79.4854 46.8238 79.382 46.8708 79.2723 46.8772C79.1752 46.8888 79.0771 46.8652 78.9959 46.8105C78.893 46.7345 78.7999 46.646 78.7187 46.547Z" fill="#454E54"/>
<path d="M82.3155 46.2207L81.5586 45.3008L80.9632 46.3453C80.9007 46.4587 80.8255 46.5646 80.7391 46.6611C80.671 46.7277 80.5811 46.7674 80.486 46.7727C80.3767 46.7857 80.2665 46.757 80.1774 46.6924C80.1369 46.6655 80.1028 46.6299 80.0777 46.5882C80.0525 46.5465 80.0369 46.4998 80.032 46.4513C80.0234 46.3549 80.0738 46.2111 80.183 46.0199L80.9062 44.7512L80.0778 43.824C79.9348 43.6713 79.8579 43.5344 79.8472 43.4134C79.8427 43.3664 79.8485 43.3191 79.8643 43.2746C79.8802 43.2302 79.9056 43.1898 79.9388 43.1563C80.0155 43.0771 80.1195 43.0303 80.2296 43.0253C80.3269 43.0124 80.4254 43.0362 80.506 43.092C80.6067 43.1693 80.6983 43.2577 80.7792 43.3555L81.4501 44.1172L81.9555 43.2495C82.0177 43.1366 82.0932 43.0317 82.1805 42.9369C82.25 42.87 82.3413 42.8304 82.4376 42.8252C82.547 42.8113 82.6577 42.8382 82.7486 42.9008C82.7886 42.927 82.8223 42.9619 82.8469 43.0029C82.8715 43.044 82.8865 43.0901 82.8908 43.1378C82.8967 43.2076 82.8859 43.2778 82.8594 43.3427C82.8236 43.4267 82.7803 43.5074 82.7301 43.5837L82.0825 44.6451L83.0242 45.762C83.1715 45.936 83.2494 46.07 83.258 46.1637C83.2621 46.2117 83.2553 46.2601 83.2382 46.3051C83.2211 46.3502 83.1941 46.3908 83.1591 46.424C83.0821 46.5024 82.9788 46.5494 82.8691 46.5558C82.7719 46.5676 82.6738 46.5439 82.5927 46.4891C82.4893 46.4117 82.3962 46.3216 82.3155 46.2207Z" fill="#454E54"/>
<path d="M85.911 45.8953L85.1549 44.9753L84.5595 46.0198C84.4968 46.1331 84.4216 46.239 84.3354 46.3356C84.2672 46.402 84.1773 46.4414 84.0823 46.4465C83.973 46.4595 83.8628 46.4308 83.7737 46.3661C83.7332 46.3392 83.6992 46.3036 83.674 46.2619C83.6489 46.2202 83.6333 46.1735 83.6283 46.1251C83.6195 46.0287 83.6693 45.8841 83.7793 45.6936L84.5025 44.4249L83.6749 43.4977C83.5319 43.3451 83.4547 43.2085 83.4435 43.0863C83.4396 43.0395 83.4459 42.9924 83.4618 42.9481C83.4778 42.9039 83.503 42.8636 83.5359 42.83C83.6124 42.7505 83.7165 42.7034 83.8268 42.6983C83.924 42.6863 84.0223 42.7103 84.1032 42.7657C84.2038 42.8431 84.2954 42.9315 84.3763 43.0293L85.0472 43.791L85.5526 42.9232C85.6146 42.8102 85.6901 42.7053 85.7776 42.6107C85.8469 42.544 85.9379 42.5043 86.0339 42.499C86.1433 42.4847 86.2542 42.5116 86.3449 42.5745C86.385 42.6005 86.4186 42.6353 86.4433 42.6762C86.4679 42.7171 86.4829 42.7631 86.4871 42.8107C86.4933 42.8808 86.4829 42.9513 86.4565 43.0164C86.4207 43.1005 86.3774 43.1811 86.3272 43.2575L85.6788 44.3181L86.6197 45.4357C86.7667 45.6109 86.8446 45.7451 86.8535 45.8375C86.8576 45.8855 86.8508 45.9338 86.8337 45.9789C86.8166 46.0239 86.7896 46.0646 86.7546 46.0978C86.6772 46.176 86.5737 46.223 86.4638 46.2295C86.3669 46.2412 86.269 46.2175 86.1882 46.1629C86.0853 46.0853 85.9922 45.9954 85.911 45.8953Z" fill="#454E54"/>
<path d="M84.4094 57.287L83.8574 56.2321L83.0611 57.1312C82.9766 57.2295 82.8811 57.3179 82.7767 57.3947C82.6967 57.4462 82.6006 57.4665 82.5067 57.4518C82.3968 57.442 82.2947 57.3905 82.2215 57.3079C82.1874 57.2734 82.1614 57.2319 82.1452 57.1862C82.1289 57.1405 82.1229 57.0918 82.1275 57.0436C82.1387 56.9472 82.2175 56.8165 82.3637 56.6515L83.3319 55.558L82.7108 54.4805C82.6037 54.3021 82.5563 54.1524 82.5686 54.0313C82.5742 53.9846 82.59 53.9397 82.6147 53.8996C82.6393 53.8595 82.6724 53.8252 82.7116 53.7991C82.8026 53.7371 82.9139 53.7124 83.0225 53.73C83.1204 53.7375 83.212 53.781 83.2797 53.8522C83.3627 53.9484 83.4344 54.0538 83.4934 54.1663L83.9939 55.0502L84.6665 54.3037C84.7504 54.2057 84.8459 54.1183 84.9509 54.0434C85.0324 53.9922 85.1297 53.9719 85.2249 53.9863C85.3345 53.9955 85.4371 54.0444 85.5133 54.1237C85.5473 54.1575 85.5731 54.1986 85.5888 54.2438C85.6046 54.2891 85.6098 54.3373 85.6041 54.3849C85.596 54.4544 85.5715 54.5211 85.5326 54.5793C85.4802 54.6543 85.4214 54.7244 85.3566 54.789L84.5058 55.6954L85.1976 56.9809C85.3047 57.1818 85.3537 57.3294 85.3446 57.4236C85.3388 57.4715 85.3222 57.5175 85.2962 57.5581C85.2702 57.5987 85.2354 57.6329 85.1944 57.6583C85.1029 57.7191 84.9921 57.744 84.8834 57.7282C84.7858 57.7197 84.6945 57.6763 84.6263 57.606C84.5411 57.509 84.4683 57.4019 84.4094 57.287Z" fill="#325D9C"/>
<path d="M87.9957 57.7033L87.4437 56.6475L86.6482 57.5466C86.5633 57.6445 86.4679 57.7329 86.3638 57.8101C86.2835 57.8616 86.1872 57.8818 86.093 57.8672C85.9832 57.8571 85.8812 57.8057 85.8078 57.7233C85.7737 57.6889 85.7477 57.6473 85.7316 57.6016C85.7155 57.5559 85.7097 57.5072 85.7146 57.459C85.7258 57.3626 85.8046 57.2324 85.9508 57.0669L86.915 55.9734L86.2931 54.8967C86.1846 54.7183 86.1372 54.5681 86.1509 54.4476C86.1562 54.4007 86.1718 54.3557 86.1965 54.3155C86.2212 54.2754 86.2545 54.2412 86.2939 54.2154C86.3846 54.1528 86.4961 54.1277 86.6048 54.1455C86.7026 54.1534 86.794 54.1969 86.8619 54.2676C86.9448 54.3639 87.0165 54.4693 87.0757 54.5817L87.577 55.4656L88.2496 54.7191C88.3332 54.6212 88.4285 54.5338 88.5332 54.4588C88.6147 54.4076 88.712 54.3873 88.8072 54.4018C88.9173 54.4107 89.0203 54.4599 89.0964 54.54C89.1303 54.5737 89.156 54.6146 89.1717 54.6597C89.1875 54.7048 89.1928 54.7529 89.1872 54.8003C89.1792 54.87 89.1544 54.9367 89.1149 54.9947C89.0625 55.0697 89.0037 55.1398 88.939 55.2044L88.0881 56.1108L88.7807 57.3963C88.8878 57.5972 88.9365 57.7448 88.9269 57.8391C88.9211 57.8869 88.9045 57.9329 88.8785 57.9735C88.8525 58.0141 88.8177 58.0483 88.7766 58.0737C88.6852 58.1346 88.5744 58.1595 88.4657 58.1436C88.3681 58.1351 88.2768 58.0917 88.2086 58.0214C88.1252 57.9242 88.0537 57.8174 87.9957 57.7033Z" fill="#325D9C"/>
<path d="M95.1701 58.5373L94.6181 57.4815L93.8218 58.3766C93.7375 58.4751 93.6421 58.5635 93.5374 58.6401C93.4576 58.6919 93.3615 58.7125 93.2674 58.698C93.1576 58.6877 93.0557 58.6364 92.9822 58.5542C92.9482 58.5194 92.9222 58.4777 92.9059 58.4319C92.8897 58.3862 92.8836 58.3374 92.8882 58.289C92.8994 58.1926 92.9782 58.0622 93.1244 57.8977L94.0886 56.8034L93.4675 55.7267C93.3604 55.5483 93.313 55.3986 93.3253 55.2776C93.3306 55.2307 93.3462 55.1857 93.3709 55.1455C93.3957 55.1054 93.4289 55.0712 93.4683 55.0454C93.5592 54.9831 93.6705 54.9581 93.7792 54.9755C93.877 54.9834 93.9684 55.0269 94.0364 55.0976C94.1192 55.1939 94.1909 55.2993 94.2501 55.4117L94.7507 56.2956L95.4232 55.5491C95.507 55.4514 95.6026 55.3642 95.7076 55.2896C95.7891 55.2384 95.8864 55.2181 95.9816 55.2326C96.0914 55.241 96.1942 55.29 96.27 55.37C96.304 55.4037 96.3299 55.4448 96.3456 55.49C96.3614 55.5353 96.3666 55.5835 96.3608 55.6311C96.3527 55.7004 96.3282 55.7668 96.2893 55.8247C96.2369 55.8997 96.1781 55.9698 96.1134 56.0344L95.2625 56.9416L95.9551 58.2271C96.0627 58.4288 96.1158 58.5758 96.1013 58.6699C96.0956 58.7179 96.0791 58.764 96.0531 58.8047C96.0271 58.8455 95.9922 58.8799 95.951 58.9053C95.8594 58.9657 95.7487 58.9903 95.6401 58.9744C95.5427 58.9658 95.4515 58.9228 95.383 58.853C95.2995 58.7568 95.228 58.6508 95.1701 58.5373Z" fill="#325D9C"/>
<path d="M54.7783 90.8926L53.9845 90.0047L53.4317 91.0718C53.3737 91.1878 53.3028 91.297 53.2204 91.3972C53.1553 91.4668 53.067 91.5103 52.9721 91.5193C52.8634 91.5362 52.7522 91.5112 52.6612 91.4494C52.6196 91.4242 52.5841 91.3903 52.5572 91.3498C52.5303 91.3094 52.5125 91.2636 52.5053 91.2156C52.4924 91.12 52.5366 90.9745 52.6379 90.7785L53.308 89.4801L52.4434 88.5874C52.294 88.4412 52.2112 88.307 52.1952 88.1857C52.189 88.139 52.1931 88.0917 52.2069 88.0467C52.2208 88.0018 52.2442 87.9604 52.2755 87.9253C52.3484 87.8428 52.4502 87.7913 52.5599 87.7815C52.6565 87.7654 52.7557 87.7851 52.8387 87.8369C52.9429 87.9099 53.0383 87.9945 53.1232 88.0892L53.8254 88.822L54.2938 87.9334C54.3512 87.8182 54.4221 87.7103 54.5052 87.612C54.5719 87.5423 54.6614 87.499 54.7575 87.4899C54.866 87.4715 54.9774 87.4935 55.0708 87.5517C55.112 87.5763 55.1471 87.6099 55.1734 87.6499C55.1997 87.69 55.2165 87.7356 55.2227 87.7831C55.2323 87.8524 55.2248 87.923 55.201 87.9888C55.1687 88.0744 55.1289 88.1569 55.0821 88.2355L54.4794 89.3226L55.4661 90.4001C55.6204 90.5677 55.704 90.6987 55.7168 90.793C55.7229 90.8408 55.7181 90.8894 55.7028 90.9352C55.6875 90.981 55.6621 91.0227 55.6284 91.0573C55.555 91.1392 55.4535 91.1905 55.344 91.2011C55.2475 91.2175 55.1484 91.198 55.0652 91.1465C54.9596 91.0738 54.8633 90.9886 54.7783 90.8926Z" fill="#F70431"/>
<path d="M58.3581 90.4153L57.5643 89.5314L57.0131 90.5961C56.9551 90.7109 56.8842 90.8187 56.8018 90.9174C56.7367 90.9871 56.6484 91.0305 56.5535 91.0396C56.4447 91.0566 56.3336 91.0316 56.2425 90.9697C56.2008 90.9449 56.1652 90.9111 56.1382 90.8708C56.1113 90.8305 56.0936 90.7847 56.0867 90.7367C56.0738 90.6402 56.118 90.4943 56.2192 90.2988L56.8869 89.0036L56.0208 88.1117C55.8713 87.9655 55.7886 87.8315 55.7725 87.71C55.7661 87.6635 55.77 87.6161 55.7839 87.5713C55.7978 87.5264 55.8213 87.4852 55.8529 87.4504C55.926 87.3677 56.0281 87.3162 56.1381 87.3066C56.2346 87.2903 56.3337 87.3097 56.4169 87.3612C56.5207 87.4346 56.6161 87.5192 56.7013 87.6135L57.4036 88.3463L57.8752 87.4625C57.9323 87.3471 58.0032 87.2392 58.0865 87.1411C58.153 87.0716 58.2423 87.0282 58.338 87.019C58.4469 87.0004 58.5588 87.0227 58.6522 87.0816C58.6933 87.1061 58.7283 87.1395 58.7546 87.1795C58.781 87.2194 58.7978 87.2648 58.804 87.3122C58.8137 87.3815 58.8062 87.4522 58.7823 87.5179C58.7501 87.6035 58.7103 87.686 58.6634 87.7646L58.06 88.8517L59.0475 89.9292C59.2018 90.0974 59.285 90.2283 59.2974 90.3221C59.3035 90.3699 59.2989 90.4185 59.2837 90.4642C59.2685 90.51 59.2433 90.5517 59.2098 90.5864C59.1363 90.6682 59.0348 90.7195 58.9254 90.7302C58.8289 90.7466 58.7297 90.7272 58.6466 90.6756C58.54 90.601 58.4431 90.5136 58.3581 90.4153Z" fill="#F70431"/>
<path d="M65.5169 89.4616L64.7223 88.5778L64.1711 89.6448C64.1131 89.7594 64.0425 89.8672 63.9606 89.9662C63.8954 90.0356 63.8071 90.0788 63.7123 90.0876C63.6034 90.1052 63.4918 90.0804 63.4006 90.0185C63.359 89.9933 63.3235 89.9593 63.2966 89.9189C63.2696 89.8785 63.2519 89.8327 63.2447 89.7846C63.2318 89.6882 63.276 89.5436 63.3781 89.3467L64.0482 88.0491L63.1812 87.1573C63.0328 87.011 62.9503 86.8771 62.9337 86.7555C62.9272 86.7089 62.9311 86.6614 62.945 86.6164C62.9588 86.5714 62.9824 86.5301 63.0141 86.4952C63.0868 86.4124 63.1887 86.3608 63.2985 86.3514C63.3951 86.3346 63.4945 86.3544 63.5773 86.4068C63.6814 86.4798 63.7771 86.5642 63.8626 86.6583L64.564 87.3911L65.0332 86.5024C65.0902 86.387 65.1612 86.2791 65.2445 86.181C65.3109 86.1112 65.4002 86.0676 65.496 86.0581C65.6049 86.0396 65.7168 86.0619 65.8102 86.1208C65.851 86.1455 65.8859 86.179 65.9121 86.2189C65.9384 86.2588 65.9555 86.3041 65.962 86.3514C65.971 86.421 65.9633 86.4918 65.9395 86.5579C65.9076 86.6433 65.8678 86.7256 65.8206 86.8037L65.218 87.8916L66.2071 88.9699C66.3614 89.1386 66.4449 89.2699 66.4578 89.3636C66.4643 89.4122 66.4595 89.4617 66.4439 89.5082C66.4283 89.5548 66.4023 89.5971 66.3678 89.632C66.2937 89.713 66.1926 89.7642 66.0834 89.7758C65.9868 89.7913 65.8879 89.7716 65.8046 89.7204C65.6982 89.6465 65.6016 89.5596 65.5169 89.4616Z" fill="#F70431"/>
<path d="M87.4471 19.9913L60.8994 21.6196L61.5679 32.5184L88.1156 30.8901L87.4471 19.9913Z" fill="#325D9C"/>
<path d="M69.5751 22.9576C69.5152 22.958 69.4576 22.9349 69.4144 22.8934C68.4723 21.9991 67.812 20.8491 67.5143 19.5847C67.2167 18.3203 67.2948 16.9966 67.739 15.7759C68.1833 14.5553 68.9743 13.491 70.015 12.7137C71.0557 11.9364 72.3008 11.4799 73.5973 11.4003C74.8938 11.3208 76.1853 11.6216 77.3132 12.2658C78.4412 12.91 79.3564 13.8696 79.9466 15.0267C80.5368 16.1838 80.7762 17.4881 80.6354 18.7794C80.4946 20.0707 79.9798 21.2928 79.1542 22.2956C79.1354 22.3212 79.1115 22.3428 79.084 22.3589C79.0566 22.375 79.0261 22.3854 78.9945 22.3893C78.9629 22.3932 78.9309 22.3907 78.9003 22.3818C78.8697 22.3729 78.8413 22.3578 78.8168 22.3376C78.7922 22.3173 78.7721 22.2922 78.7576 22.2639C78.743 22.2355 78.7345 22.2045 78.7324 22.1728C78.7302 22.141 78.7346 22.1091 78.7453 22.0791C78.7559 22.0491 78.7726 22.0216 78.7942 21.9983C79.5611 21.0658 80.039 19.9297 80.1693 18.7295C80.2996 17.5292 80.0766 16.3171 79.5277 15.2417C78.9788 14.1664 78.1279 13.2748 77.0794 12.6763C76.0309 12.0777 74.8305 11.7983 73.6255 11.8724C72.4205 11.9465 71.2633 12.3708 70.296 13.0932C69.3287 13.8157 68.5934 14.8048 68.1804 15.9393C67.7673 17.0737 67.6944 18.304 67.9708 19.4793C68.2471 20.6546 68.8605 21.7236 69.7358 22.5551C69.7695 22.5872 69.7929 22.6287 69.8028 22.6742C69.8127 22.7197 69.8088 22.7671 69.7915 22.8104C69.7742 22.8536 69.7443 22.8907 69.7057 22.9168C69.6672 22.9429 69.6217 22.9568 69.5751 22.9568V22.9576Z" fill="#002E5D"/>
<path d="M83.3719 28.9837C83.3334 28.9837 83.2955 28.9741 83.2616 28.9559C83.2277 28.9377 83.1988 28.9114 83.1775 28.8793L78.7792 22.2763C78.7484 22.2247 78.7386 22.1633 78.7519 22.1047C78.7651 22.0461 78.8004 21.9949 78.8504 21.9616C78.9004 21.9284 78.9613 21.9156 79.0205 21.926C79.0796 21.9364 79.1325 21.9692 79.1681 22.0176L83.5664 28.6206C83.6001 28.6719 83.6121 28.7345 83.5999 28.7947C83.5877 28.8548 83.5523 28.9078 83.5013 28.942C83.4633 28.9686 83.4183 28.9831 83.3719 28.9837Z" fill="#002E5D"/>
<path d="M66.0169 30.0491C65.9772 30.049 65.9381 30.0386 65.9035 30.0192C65.8688 29.9997 65.8397 29.9717 65.8188 29.9378C65.798 29.904 65.7862 29.8654 65.7844 29.8257C65.7827 29.7859 65.7911 29.7464 65.8088 29.7109L69.3658 22.6218C69.3945 22.5679 69.4431 22.5274 69.5013 22.5089C69.5594 22.4904 69.6225 22.4954 69.677 22.5228C69.7316 22.5501 69.7733 22.5978 69.7932 22.6554C69.8131 22.7131 69.8097 22.7763 69.7836 22.8315L66.2266 29.9222C66.2068 29.9607 66.1768 29.9929 66.1397 30.0153C66.1027 30.0378 66.0602 30.0495 66.0169 30.0491Z" fill="#002E5D"/>
<path d="M88.3824 135.945H11.3287C11.3138 135.947 11.2987 135.945 11.2845 135.94C11.2702 135.935 11.2572 135.927 11.2461 135.917C11.235 135.907 11.2262 135.895 11.2201 135.881C11.2141 135.867 11.2109 135.852 11.2109 135.837C11.2109 135.822 11.2141 135.807 11.2201 135.794C11.2262 135.78 11.235 135.767 11.2461 135.757C11.2572 135.747 11.2702 135.739 11.2845 135.735C11.2987 135.73 11.3138 135.728 11.3287 135.729H88.3824C88.3974 135.728 88.4125 135.73 88.4267 135.735C88.4409 135.739 88.454 135.747 88.4651 135.757C88.4762 135.767 88.485 135.78 88.4911 135.794C88.4971 135.807 88.5002 135.822 88.5002 135.837C88.5002 135.852 88.4971 135.867 88.4911 135.881C88.485 135.895 88.4762 135.907 88.4651 135.917C88.454 135.927 88.4409 135.935 88.4267 135.94C88.4125 135.945 88.3974 135.947 88.3824 135.945Z" fill="#002E5D"/>
<path d="M138.44 139.735H79.0499C79.0211 139.735 78.9935 139.724 78.9732 139.703C78.9528 139.683 78.9414 139.656 78.9414 139.627C78.9414 139.598 78.9528 139.57 78.9732 139.55C78.9935 139.53 79.0211 139.518 79.0499 139.518H138.44C138.469 139.518 138.496 139.53 138.517 139.55C138.537 139.57 138.548 139.598 138.548 139.627C138.548 139.656 138.537 139.683 138.517 139.703C138.496 139.724 138.469 139.735 138.44 139.735Z" fill="#002E5D"/>
<path d="M19.7876 78.012L17.8865 81.1391L15.8457 78.012L17.8865 74.884L19.7876 78.012Z" fill="#C9DAF4"/>
<path d="M132.564 32.9433L130.664 36.0712L128.622 32.9433L130.664 29.8153L132.564 32.9433Z" fill="#C9DAF4"/>
<path d="M47.8076 100.046L51.8178 100.632C51.9153 100.647 52.0149 100.639 52.1089 100.609C52.2029 100.579 52.2888 100.528 52.36 100.46C52.4311 100.392 52.4856 100.308 52.5192 100.215C52.5528 100.123 52.5646 100.023 52.5538 99.9253L52.1336 95.8943L47.8076 100.046Z" fill="#002E5D"/>
<path d="M4.43403 46.1949L2.01367 48.5176L49.7102 98.2203L52.1306 95.8977L4.43403 46.1949Z" fill="white"/>
<path d="M2.52875 48.0235L0.108398 50.3462L47.805 100.049L50.2253 97.7263L2.52875 48.0235Z" fill="#F70431"/>
<path d="M47.8072 100.158C47.7922 100.158 47.7773 100.155 47.7635 100.15C47.7496 100.144 47.7371 100.135 47.7268 100.125L0.0306697 50.4221C0.0202955 50.4116 0.0122249 50.399 0.00696921 50.3852C0.0017135 50.3713 -0.000612841 50.3566 0.000137519 50.3418C0.000968275 50.3131 0.0127549 50.2857 0.0330802 50.2654L4.35901 46.1155C4.36902 46.1054 4.38091 46.0974 4.39401 46.092C4.40711 46.0865 4.42116 46.0837 4.43534 46.0837C4.44953 46.0837 4.46358 46.0865 4.47668 46.092C4.48978 46.0974 4.50167 46.1054 4.51168 46.1155L52.2102 95.8187C52.2203 95.8287 52.2283 95.8406 52.2337 95.8537C52.2392 95.8668 52.242 95.8809 52.242 95.8951C52.242 95.9092 52.2392 95.9233 52.2337 95.9364C52.2283 95.9495 52.2203 95.9614 52.2102 95.9714L47.8851 100.123C47.8751 100.134 47.863 100.142 47.8497 100.148C47.8363 100.154 47.8218 100.157 47.8072 100.158ZM0.261268 50.3482L47.8072 99.8924L51.9764 95.891L4.43052 46.3469L0.261268 50.3482Z" fill="#002E5D"/>
</g>
<defs>
<clipPath id="clip0_1403_19934">
<rect width="150" height="150" fill="white"/>
</clipPath>
</defs>
</svg>
