<svg width="176" height="128" viewBox="0 0 176 128" fill="none" xmlns="http://www.w3.org/2000/svg">
<g clip-path="url(#clip0_1479_17139)">
<path d="M91.9474 128C127.191 128 155.761 99.5314 155.761 64.4132C155.761 29.2951 127.191 0.826172 91.9474 0.826172C56.7041 0.826172 28.1338 29.2951 28.1338 64.4132C28.1338 99.5314 56.7041 128 91.9474 128Z" fill="#F3F8FF"/>
<path d="M76.206 117.932L2.19831 115.005C0.502639 114.937 -0.397158 113.542 0.167401 111.886C11.3706 78.5845 16.737 44.4927 16.091 10.723C16.0515 9.04183 17.3765 7.736 19.0721 7.80222L93.0773 10.7305C94.698 10.7733 96.2214 12.3007 96.2353 13.8937C96.8803 47.6639 91.515 81.7552 80.3133 115.056C79.8022 116.629 77.8202 118.018 76.206 117.932Z" fill="#F70431"/>
<path d="M90.4898 127.996L16.4832 125.068C14.788 125.001 13.8877 123.606 14.4528 121.95C25.6545 88.6485 31.0208 54.5567 30.3763 20.787C30.3363 19.1058 31.6618 17.8 33.357 17.8662L107.364 20.794C108.985 20.8373 110.508 22.3646 110.522 23.9577C111.167 57.7279 105.802 91.8187 94.5996 125.12C94.0865 126.693 92.1046 128.082 90.4898 127.996Z" fill="#002E5D"/>
<path d="M86.1199 121.581H12.0553C10.3566 121.581 9.39536 120.223 9.88398 118.544C19.5499 84.8273 23.3495 50.5503 21.1587 16.8324C21.0423 15.1547 22.3078 13.7956 24.0029 13.7956H98.0681C99.6893 13.7742 101.281 15.2394 101.366 16.8324C103.556 50.5508 99.7568 84.8273 90.0908 118.545C89.6532 120.136 87.7367 121.602 86.1199 121.581Z" fill="white"/>
<path d="M80.1985 31.5413H43.5856C43.5642 30.222 43.5497 29.5624 43.5127 28.2441H80.1256C80.1626 29.5624 80.1771 30.222 80.1985 31.5413Z" fill="#E9EFFD"/>
<path d="M93.3102 41.4531H30.4473C30.4722 40.1299 30.4812 39.4682 30.4907 38.146H93.3536C93.3441 39.4682 93.3351 40.1299 93.3102 41.4531Z" fill="#E9EFFD"/>
<path d="M50.2208 84.5553H26.376C26.6013 83.2296 26.7097 82.564 26.9196 81.2402H50.7649C50.5551 82.5665 50.4462 83.2296 50.2208 84.5553Z" fill="#E9EFFD"/>
<path d="M87.379 94.4893H24.5156C24.7869 93.1661 24.9183 92.5039 25.1741 91.1797H88.037C87.7817 92.5049 87.6498 93.167 87.379 94.4893Z" fill="#E9EFFD"/>
<path d="M85.2242 104.194H22.3613C22.6771 102.875 22.831 102.215 23.1312 100.894H85.9941C85.6939 102.215 85.54 102.875 85.2242 104.194Z" fill="#E9EFFD"/>
<path d="M61.8878 71.0333C61.7257 71.0453 61.563 71.0443 61.4011 71.0303C60.4454 70.9462 59.5091 70.3742 58.7347 69.4507C57.4932 70.5524 55.3679 71.5605 53.7696 71.3201C51.8781 71.0358 50.8784 69.3287 50.1624 67.9124C49.8127 67.2209 49.5629 66.3024 49.363 65.3675C46.9409 67.3737 44.4589 69.2068 41.8584 70.9616C41.5666 70.4703 41.4202 70.2243 41.126 69.733C43.8828 67.8681 46.6127 65.9405 49.0863 63.6893C48.7655 60.6345 49.0078 57.1104 50.5591 54.1836C51.4794 52.4481 53.8016 48.7144 55.9664 49.3152C57.4103 49.7135 57.3483 52.026 57.2854 53.0819C57.2794 53.1814 57.2749 53.2701 57.2709 53.3427C57.0605 57.6032 53.7271 61.1588 50.7095 64.1572C50.8963 65.2958 51.1911 66.3333 51.5678 67.188C52.2508 68.7363 53.1706 69.6742 54.1743 69.8266C55.2295 69.9884 56.5819 69.3203 57.9299 68.2474C57.8184 68.0408 57.7145 67.8228 57.6166 67.6003C56.7827 65.7 56.5549 63.2103 57.7735 61.2608C58.8586 59.5254 60.968 58.334 62.9434 58.107C63.8852 57.999 64.6776 58.22 64.9758 58.695C65.9081 60.1765 64.4263 62.6821 63.4131 64.2274C62.4638 65.6796 61.2328 67.196 59.9433 68.4013C60.4929 69.0579 61.1688 69.5279 61.7109 69.5259C63.8402 69.5164 66.1005 66.4273 67.4474 64.6814C68.8383 62.8783 69.6417 61.8746 70.529 62.3595C71.2744 62.7673 70.9422 63.7161 70.549 64.8134C70.1748 65.8588 69.5827 67.5729 70.0829 68.0991C71.2929 69.3671 74.8042 67.9896 76.4839 67.4808C76.6247 68.0498 76.6942 68.3341 76.8336 68.9031C74.4355 69.6404 70.4845 71.0886 68.8208 69.0723C68.0489 68.1364 68.4162 66.5334 68.8463 65.239C68.7649 65.3386 68.6829 65.4431 68.607 65.5412C66.9338 67.7023 64.719 70.5469 61.8878 71.0333ZM63.0928 59.5985C62.9511 59.6092 62.8101 59.6282 62.6706 59.6553C61.4781 59.8813 59.8129 60.7107 59.039 61.9762C58.1707 63.3965 58.4115 65.5795 59.019 66.8839C59.0625 66.9765 59.1049 67.0745 59.1499 67.1671C59.8993 66.4358 60.6607 65.6064 61.2518 64.7845C62.3509 63.2581 63.6139 61.568 63.7423 59.6672C63.7153 59.6458 63.519 59.5677 63.0928 59.5985ZM55.3679 50.741C53.8031 51.6292 52.68 53.2462 51.8981 54.7974C50.71 57.1596 50.3603 59.84 50.5101 62.3416C52.8908 59.8126 55.5932 56.8306 55.759 53.3696C55.763 53.2885 55.7685 53.1894 55.775 53.0784C55.88 51.2862 55.6336 50.8177 55.4128 50.7415C55.3979 50.74 55.3828 50.7398 55.3679 50.741Z" fill="#325D9C"/>
<path d="M73.3786 59.7349C73.3741 60.3179 72.8924 60.8247 72.3054 60.867C72.17 60.8796 72.0335 60.8635 71.9048 60.8197C71.776 60.776 71.6581 60.7055 71.5587 60.6131C71.4593 60.5206 71.3807 60.4082 71.328 60.2833C71.2754 60.1583 71.2499 60.0237 71.2532 59.8882C71.2603 59.6014 71.3734 59.3272 71.5708 59.1183C71.7682 58.9094 72.036 58.7805 72.3229 58.7562C72.4585 58.7435 72.5952 58.7595 72.7241 58.8032C72.853 58.8469 72.9712 58.9173 73.0709 59.0097C73.1706 59.1022 73.2495 59.2146 73.3025 59.3395C73.3556 59.4645 73.3815 59.5992 73.3786 59.7349Z" fill="#325D9C"/>
<path d="M39.4404 71.8978C39.4135 72.429 38.9558 72.8935 38.4192 72.9293C37.8827 72.9651 37.47 72.5689 37.4985 72.0377C37.5269 71.5065 37.9806 71.042 38.5167 71.0062C39.0527 70.9703 39.4694 71.3666 39.4404 71.8978Z" fill="#325D9C"/>
<path d="M25.7803 6.47204L35.8389 20.2461C36.1797 20.7126 36.9196 20.4871 36.9381 19.9106L37.5176 3.65479L25.7803 6.47204Z" fill="#002E5D"/>
<path d="M33.4779 9.97369C37.5937 8.78608 40.3117 5.69503 39.5487 3.06964C38.7857 0.444255 34.8307 -0.721287 30.715 0.46633C26.5992 1.65395 23.8812 4.74499 24.6442 7.37038C25.4071 9.99577 29.3621 11.1613 33.4779 9.97369Z" fill="#325D9C"/>
<mask id="mask0_1479_17139" style="mask-type:luminance" maskUnits="userSpaceOnUse" x="28" y="0" width="128" height="129">
<path d="M91.9474 128C127.191 128 155.761 99.5314 155.761 64.4132C155.761 29.2951 127.191 0.826172 91.9474 0.826172C56.7041 0.826172 28.1338 29.2951 28.1338 64.4132C28.1338 99.5314 56.7041 128 91.9474 128Z" fill="white"/>
</mask>
<g mask="url(#mask0_1479_17139)">
<g style="mix-blend-mode:multiply" opacity="0.3">
<path d="M153.315 75.0944L151.477 74.7957L135.927 72.2776L135.094 74.4367L109.461 68.2248C109.361 67.5517 109.194 66.5232 108.966 65.2875C108.807 64.4228 108.617 63.4575 108.395 62.4409L108.131 61.1236L108.096 61.1191C106.816 55.7017 104.718 49.5166 101.795 49.5514C101.151 48.506 100.192 47.571 98.7547 47.229C98.3413 47.1307 97.9173 47.0832 97.4922 47.0877C97.4258 46.9293 97.3598 46.7725 97.2924 46.6182C96.5704 44.9878 95.7196 43.6675 94.8203 43.5545C94.1039 43.4639 93.326 43.4749 92.585 43.5376C91.9525 43.5874 91.3505 43.678 90.8324 43.7706L90.8144 43.7178C90.8049 43.6884 90.7989 43.6745 90.7989 43.6745L90.7375 43.5042C90.5806 43.0633 90.273 42.6914 89.8687 42.4536C89.4643 42.2157 88.989 42.1272 88.5257 42.2034C84.7651 42.8227 75.7517 44.581 73.5179 47.5113C70.6747 51.2401 80.0848 49.2612 82.1822 48.4393C84.2795 47.6173 85.3927 47.808 85.8443 48.9954C86.0766 49.6062 87.1463 54.138 87.8522 58.4965L88.0126 59.5311C88.5662 63.2534 88.7765 66.6033 87.8662 66.9339C85.8178 67.6771 82.2301 66.1567 81.1924 62.7839C80.9781 62.0869 80.7593 61.1953 80.524 60.226V60.222C80.3081 59.3359 80.0783 58.3845 79.8245 57.4566V57.4516C79.0111 54.4885 77.9475 51.7708 76.3033 52.2004C74.6166 52.64 74.0175 54.3909 74.055 56.7028V56.7163C74.0605 57.0588 74.0805 57.4133 74.1125 57.7792V57.8001C74.2124 58.9451 74.4377 60.1857 74.7385 61.4502C75.7877 65.8575 75.7467 71.8794 85.4631 78.2064C90.9763 81.7968 109.839 92.0387 125.125 100.227L123.987 103.169L131.897 107.729L132.996 108.361L157.25 122.34L173.987 78.4433L153.315 75.0944Z" fill="#325D9C"/>
</g>
<path d="M159.964 70.5934L150.119 102.479C141.008 98.76 97.0994 80.7796 87.8846 75.9994C77.5891 70.6571 77.0345 64.6602 75.5517 60.3778C74.0689 56.0955 73.5483 51.9948 76.1907 51.0185C78.8331 50.0423 80.7411 57.8165 82.1076 61.0688C83.474 64.3212 87.1966 65.4826 89.1601 64.5417C91.1235 63.6008 85.9371 48.0265 85.37 46.8895C84.803 45.7524 83.6783 45.6713 81.6729 46.6968C79.6675 47.7224 70.4996 50.6163 72.9587 46.6261C74.8917 43.4898 83.6868 40.8512 87.3675 39.867C87.8209 39.7452 88.303 39.7864 88.729 39.9834C89.155 40.1804 89.4978 40.5206 89.6971 40.9443L89.7751 41.1071C89.7751 41.1071 89.7826 41.1206 89.7951 41.1489L89.8181 41.1987C90.3242 41.0558 90.9172 40.908 91.5387 40.7945C92.2696 40.6591 93.043 40.5714 93.765 40.5914C94.6708 40.6152 95.649 41.8454 96.5283 43.3972C96.6122 43.5435 96.6937 43.6929 96.7751 43.8452C97.1977 43.7987 97.6244 43.8042 98.0456 43.8616C99.5105 44.0608 100.558 44.8986 101.301 45.8734C105.814 45.3726 109.833 59.9935 110.779 63.7004L159.964 70.5934Z" fill="#FDC8AA"/>
<path d="M99.3468 49.8361C99.3628 49.7809 99.3628 46.6465 98.0478 43.8621C97.6266 43.8047 97.1999 43.7991 96.7773 43.8457C96.7773 43.8457 98.6729 47.9593 99.3468 49.8361Z" fill="#002E5D" fill-opacity="0.2"/>
<path d="M94.107 50.2816C92.9619 47.6804 90.2011 41.9917 89.8184 41.2011C90.3245 41.0582 90.9175 40.9104 91.539 40.7969C93.0398 44.3001 94.107 50.2816 94.107 50.2816Z" fill="#002E5D" fill-opacity="0.2"/>
<path d="M88.5729 57.1636L109.996 60.8287L108.752 56.7673L88.3096 56.145L88.5729 57.1636Z" fill="#002E5D" fill-opacity="0.2"/>
<path d="M103.946 62.7446L155.921 83.6876L160.07 70.606L103.946 62.7446Z" fill="#002E5D" fill-opacity="0.2"/>
<path d="M176 67.5215L163.696 112.851L138.174 101.326L137.02 100.805L136.506 100.573L128.695 97.0471L137.519 65.1309L153.242 66.1051L153.881 66.145L155.102 66.2211L176 67.5215Z" fill="#325D9C"/>
<path d="M131.104 46.627L130.477 51.2304L129.634 57.4031L71.3982 55.6303L67.8555 52.256L72.7177 50.4319L131.104 46.627Z" fill="#325D9C"/>
<path d="M131.104 48.1416L130.477 52.7451L72.3887 54.2476L72.7179 51.9466L131.104 48.1416Z" fill="#002E5D"/>
<path d="M133.151 52.3228C133.034 55.2451 131.189 57.4669 129.635 57.4047C128.08 57.3425 127.404 55.0191 127.522 52.0973C127.64 49.1755 129.55 46.5658 131.104 46.6285C132.658 46.6913 133.269 49.3995 133.151 52.3228Z" fill="#002E5D"/>
<path d="M74.5663 56.808L81.1891 58.5907L80.2154 55.8989L74.3984 55.7217L74.5663 56.808Z" fill="#002E5D" fill-opacity="0.2"/>
<path d="M153.88 66.145C151.773 79.4421 145.529 91.3668 136.505 100.573L128.694 97.0471L137.519 65.1309L153.241 66.1051L153.88 66.145Z" fill="#F70431"/>
<path d="M136.234 94.6246C136.546 93.6341 135.992 92.5798 134.998 92.2697C134.004 91.9597 132.946 92.5113 132.635 93.5019C132.324 94.4924 132.877 95.5467 133.871 95.8568C134.865 96.1668 135.923 95.6152 136.234 94.6246Z" fill="white"/>
</g>
</g>
<defs>
<clipPath id="clip0_1479_17139">
<rect width="176" height="128" fill="white"/>
</clipPath>
</defs>
</svg>
