<svg width="136" height="128" viewBox="0 0 136 128" fill="none" xmlns="http://www.w3.org/2000/svg">
<g clip-path="url(#clip0_1404_24978)">
<path fill-rule="evenodd" clip-rule="evenodd" d="M113.595 128H24.2451V0.21875H99.5L113.595 13.5V128Z" fill="white"/>
<line x1="24" y1="127.5" x2="111" y2="127.5" stroke="#002E5D"/>
<path d="M113.61 44.7112C113.515 44.7112 113.424 44.6732 113.357 44.6056C113.291 44.538 113.253 44.4463 113.253 44.3507V13.8884C113.253 13.7928 113.291 13.7011 113.357 13.6334C113.424 13.5658 113.515 13.5278 113.61 13.5278C113.704 13.5278 113.795 13.5658 113.862 13.6334C113.929 13.7011 113.967 13.7928 113.967 13.8884V44.3507C113.967 44.4463 113.929 44.538 113.862 44.6056C113.795 44.6732 113.704 44.7112 113.61 44.7112Z" fill="#002E5D"/>
<path d="M24.184 39.1102C24.0894 39.1102 23.9986 39.0722 23.9317 39.0046C23.8647 38.937 23.8271 38.8453 23.8271 38.7497V0.360574C23.8271 0.264944 23.8647 0.173231 23.9317 0.10561C23.9986 0.037989 24.0894 0 24.184 0L99.0238 0C99.1185 0 99.2092 0.037989 99.2761 0.10561C99.3431 0.173231 99.3807 0.264944 99.3807 0.360574C99.3807 0.456205 99.3431 0.547918 99.2761 0.615539C99.2092 0.68316 99.1185 0.721149 99.0238 0.721149H24.5409V38.7497C24.5409 38.8453 24.5033 38.937 24.4364 39.0046C24.3694 39.0722 24.2787 39.1102 24.184 39.1102Z" fill="#002E5D"/>
<path d="M24.184 119.904C24.0894 119.904 23.9986 119.866 23.9317 119.798C23.8647 119.731 23.8271 119.639 23.8271 119.543V77.1416C23.8271 77.0459 23.8647 76.9542 23.9317 76.8866C23.9986 76.819 24.0894 76.781 24.184 76.781C24.2787 76.781 24.3694 76.819 24.4364 76.8866C24.5033 76.9542 24.5409 77.0459 24.5409 77.1416V119.546C24.5401 119.641 24.5022 119.732 24.4354 119.799C24.3685 119.866 24.2782 119.904 24.184 119.904Z" fill="#002E5D"/>
<path d="M99.8711 1.04395L112.784 12.8607L99.0234 13.8893L99.8711 1.04395Z" fill="#BDD0FB"/>
<path d="M131.722 127.911C131.648 127.911 131.576 127.887 131.516 127.844C131.455 127.8 131.41 127.739 131.386 127.668L130.124 124.003C130.102 123.957 130.09 123.907 130.089 123.857C130.088 123.806 130.097 123.756 130.116 123.709C130.136 123.662 130.164 123.62 130.201 123.585C130.237 123.551 130.281 123.524 130.328 123.507C130.375 123.491 130.425 123.484 130.475 123.488C130.525 123.493 130.574 123.507 130.618 123.532C130.662 123.556 130.7 123.59 130.73 123.63C130.76 123.67 130.782 123.717 130.793 123.766L132.055 127.432C132.087 127.522 132.083 127.621 132.042 127.707C132.002 127.794 131.929 127.86 131.84 127.893C131.802 127.905 131.762 127.912 131.722 127.911Z" fill="#002E5D"/>
<path d="M20.0994 24.9087C19.4096 24.9087 18.5811 24.582 17.6224 23.9305C17.5835 23.904 17.5502 23.87 17.5243 23.8306C17.4984 23.7911 17.4804 23.7468 17.4714 23.7003C17.4625 23.6538 17.4626 23.606 17.472 23.5596C17.4813 23.5131 17.4996 23.469 17.5258 23.4297C17.552 23.3904 17.5856 23.3567 17.6246 23.3306C17.6637 23.3044 17.7075 23.2863 17.7536 23.2772C17.7996 23.2681 17.8469 23.2683 17.8929 23.2777C17.9388 23.2871 17.9825 23.3056 18.0214 23.3321C18.8461 23.8928 19.976 24.4699 20.6802 24.0339C21.6369 23.4384 21.5986 21.2054 21.5011 20.3953C21.4921 20.31 21.5135 20.2243 21.5614 20.1535C21.6092 20.0826 21.6804 20.0313 21.7623 20.0086C21.9632 19.9535 22.5277 19.7573 22.8587 19.4885C22.9209 19.0381 22.233 17.007 21.5269 15.3318C21.5086 15.2882 21.4989 15.2413 21.4985 15.194C21.498 15.1466 21.5068 15.0996 21.5244 15.0556C21.5419 15.0117 21.5679 14.9717 21.6007 14.9379C21.6336 14.9041 21.6727 14.8771 21.7159 14.8586C21.759 14.84 21.8054 14.8303 21.8523 14.8298C21.8991 14.8294 21.9457 14.8383 21.9892 14.856C22.0326 14.8738 22.0722 14.9 22.1057 14.9332C22.1392 14.9664 22.1658 15.0059 22.1842 15.0495C22.1842 15.0592 22.6262 16.1022 23.0032 17.182C23.7686 19.388 23.6107 19.7785 23.3792 19.9854C23.0453 20.2889 22.5506 20.4987 22.2387 20.6099C22.3047 21.4799 22.3554 23.8454 21.0523 24.6516C20.7648 24.8258 20.4346 24.9149 20.0994 24.9087Z" fill="#002E5D"/>
<path d="M15.8386 13.3404C15.8386 13.3404 21.1113 15.3898 22.8688 13.3404C24.6264 11.291 18.2736 5.18735 12.4125 8.55722C6.55148 11.9271 12.4125 20.2155 12.4125 20.2155L13.6295 18.8041C13.6295 18.8041 12.5934 16.891 13.8103 16.891C15.0273 16.891 16.2893 16.572 15.8386 13.3404Z" fill="#002E5D"/>
<path d="M14.1486 19.2777C14.0584 19.2778 13.9715 19.2433 13.9056 19.181C13.3402 18.6484 12.6216 17.8605 12.9077 17.1664C13.1938 16.4723 14.2959 16.4694 14.5131 16.4781C14.6054 16.485 14.6915 16.5278 14.7531 16.5975C14.8148 16.6672 14.8473 16.7584 14.8437 16.8518C14.8401 16.9452 14.8007 17.0336 14.7338 17.0982C14.667 17.1629 14.5779 17.1988 14.4854 17.1983C14.1027 17.1858 13.631 17.2863 13.5659 17.4439C13.5659 17.4564 13.4492 17.7658 14.3916 18.6542C14.4442 18.7033 14.4809 18.7674 14.4968 18.838C14.5128 18.9086 14.5073 18.9825 14.481 19.0498C14.4548 19.1172 14.409 19.175 14.3497 19.2157C14.2904 19.2563 14.2203 19.2779 14.1486 19.2777Z" fill="#002E5D"/>
<path d="M14.1484 26.4505C14.0659 26.4505 13.9858 26.4217 13.922 26.3688C13.8581 26.3159 13.8144 26.2423 13.7983 26.1605L12.7391 20.719C12.7209 20.6252 12.7402 20.5278 12.793 20.4484C12.8457 20.369 12.9275 20.3141 13.0204 20.2956C13.1133 20.2771 13.2096 20.2967 13.2882 20.35C13.3668 20.4033 13.4212 20.486 13.4395 20.5798L14.4986 26.0213C14.5076 26.0678 14.5075 26.1156 14.4983 26.162C14.4891 26.2084 14.4709 26.2525 14.4447 26.2919C14.4186 26.3312 14.3851 26.3649 14.3461 26.3911C14.3071 26.4174 14.2633 26.4356 14.2173 26.4447C14.1946 26.449 14.1715 26.4509 14.1484 26.4505Z" fill="#002E5D"/>
<path d="M28.0749 28.9135L20.5166 26.6592C20.5319 60.1298 24.2211 62.7485 24.2211 62.7485L28.006 66.0043L33.2127 51.2498L28.0749 28.9135ZM26.5269 55.828L26.3183 41.0715L28.2443 49.7843L26.5269 55.828Z" fill="#325D9C"/>
<path d="M28.7179 67.1847C28.6293 67.1838 28.5443 67.1493 28.4797 67.0881L23.983 63.0125C23.9323 62.9662 23.8958 62.9061 23.8778 62.8395C23.8598 62.7729 23.8611 62.7024 23.8816 62.6365L27.876 49.7602L24.8507 36.0942C24.8301 36.0008 24.8469 35.903 24.8976 35.8223C24.9483 35.7415 25.0287 35.6844 25.121 35.6635C25.2134 35.6426 25.3102 35.6596 25.3901 35.7109C25.4701 35.7621 25.5266 35.8433 25.5473 35.9366L28.5926 49.7022C28.6069 49.764 28.6042 49.8285 28.5849 49.8888L24.6307 62.6355L28.9562 66.5564C29.0097 66.6052 29.0473 66.6692 29.0642 66.74C29.081 66.8108 29.0762 66.8851 29.0504 66.9532C29.0246 67.0212 28.9791 67.0797 28.9197 67.121C28.8604 67.1624 28.79 67.1846 28.7179 67.1847Z" fill="#002E5D"/>
<path d="M24.356 125.316C24.2695 125.315 24.1861 125.283 24.1212 125.225C24.0563 125.168 24.0143 125.088 24.003 125.001L17.4837 74.7849C17.471 74.6901 17.4961 74.594 17.5535 74.5179C17.611 74.4417 17.696 74.3917 17.7898 74.3789C17.8837 74.3661 17.9788 74.3915 18.0542 74.4495C18.1295 74.5075 18.179 74.5934 18.1917 74.6883L24.6641 124.548C26.1738 124.348 28.2366 124.065 28.958 123.96C29.0106 120.674 27.675 86.7216 26.9316 68.4976L22.2339 64.5023C22.1628 64.4404 22.1186 64.3526 22.111 64.258C22.1035 64.1634 22.1331 64.0696 22.1936 63.997C22.254 63.9243 22.3404 63.8787 22.4339 63.8699C22.5274 63.8612 22.6206 63.8901 22.6932 63.9503L27.5114 68.0549C27.5491 68.0872 27.5799 68.127 27.6016 68.172C27.6233 68.2169 27.6356 68.2659 27.6377 68.3159C27.6434 68.456 28.2117 82.4459 28.7446 96.2637C29.0565 104.384 29.2928 110.849 29.4488 115.493C29.5445 118.251 29.6057 120.387 29.6401 121.843C29.6583 122.627 29.6688 123.23 29.6708 123.635C29.6708 123.85 29.6708 124.009 29.6708 124.118C29.665 124.28 29.6564 124.552 29.3837 124.622C29.1111 124.691 25.1903 125.209 24.4086 125.313C24.3912 125.315 24.3736 125.316 24.356 125.316Z" fill="#002E5D"/>
<path d="M11.1738 124.496H6.57661C6.52938 124.496 6.48264 124.486 6.43909 124.468C6.39553 124.449 6.35603 124.422 6.32285 124.388C6.28968 124.354 6.26348 124.314 6.24579 124.27C6.22809 124.225 6.21924 124.178 6.21975 124.13L6.82824 68.1862C6.8288 68.1344 6.84047 68.0832 6.86243 68.0363C6.8844 67.9895 6.91614 67.9479 6.95549 67.9146L12.4319 63.2745C12.4674 63.2417 12.5092 63.2164 12.5546 63.2003C12.6001 63.1842 12.6483 63.1775 12.6963 63.1807C12.7444 63.1839 12.7913 63.1969 12.8342 63.2189C12.8772 63.2409 12.9153 63.2715 12.9463 63.3088C12.9772 63.346 13.0004 63.3893 13.0143 63.4358C13.0283 63.4824 13.0328 63.5313 13.0276 63.5797C13.0224 63.6281 13.0075 63.6749 12.9839 63.7173C12.9603 63.7597 12.9284 63.7968 12.8902 63.8265L7.54006 68.3602L6.93731 123.775H10.86L18.0538 70.4638C18.063 70.3918 18.0937 70.3243 18.1418 70.2704L19.9003 68.2916C19.9637 68.2203 20.0526 68.1774 20.1473 68.1724C20.2421 68.1673 20.3349 68.2004 20.4055 68.2645C20.476 68.3286 20.5185 68.4184 20.5235 68.5141C20.5285 68.6099 20.4957 68.7037 20.4323 68.775L18.7474 70.6735L11.5278 124.185C11.5158 124.272 11.4733 124.351 11.4083 124.408C11.3432 124.465 11.2599 124.496 11.1738 124.496Z" fill="#002E5D"/>
<path d="M34.8362 127.979H23.8833C23.8311 127.979 23.7794 127.967 23.732 127.945C23.6847 127.923 23.6427 127.89 23.6092 127.85C23.5757 127.809 23.5514 127.762 23.5381 127.711C23.5248 127.66 23.5228 127.606 23.5322 127.554L24.0058 124.891C24.0126 124.843 24.0289 124.797 24.0537 124.756C24.0785 124.715 24.1113 124.679 24.1501 124.65C24.1889 124.622 24.2329 124.602 24.2796 124.591C24.3262 124.58 24.3746 124.579 24.4217 124.588C24.4688 124.596 24.5137 124.614 24.5538 124.641C24.5939 124.667 24.6283 124.701 24.655 124.741C24.6817 124.782 24.7002 124.827 24.7093 124.874C24.7184 124.922 24.718 124.97 24.708 125.018L24.31 127.258H34.3023L33.9244 126.332L29.1713 124.611C29.124 124.597 29.0799 124.574 29.0419 124.543C29.0038 124.512 28.9725 124.473 28.95 124.429C28.9275 124.385 28.9142 124.337 28.911 124.287C28.9078 124.238 28.9147 124.188 28.9313 124.141C28.948 124.095 28.9739 124.052 29.0076 124.016C29.0413 123.98 29.082 123.951 29.1272 123.932C29.1723 123.912 29.2209 123.902 29.27 123.903C29.3191 123.903 29.3675 123.914 29.4124 123.934L34.3138 125.71C34.3608 125.727 34.4037 125.754 34.4398 125.788C34.4758 125.823 34.5043 125.865 34.5233 125.912L35.1653 127.483C35.1878 127.537 35.1967 127.597 35.191 127.656C35.1853 127.715 35.1653 127.771 35.1327 127.821C35.1001 127.87 35.056 127.91 35.0043 127.938C34.9526 127.966 34.8948 127.981 34.8362 127.981V127.979Z" fill="#002E5D"/>
<path d="M12.6389 127.979H3.08389C3.03065 127.979 2.97811 127.967 2.9301 127.943C2.8821 127.92 2.83985 127.886 2.80646 127.844C2.77307 127.802 2.74938 127.754 2.73712 127.701C2.72487 127.649 2.72436 127.594 2.73564 127.542L3.09537 125.869C3.10629 125.819 3.12723 125.773 3.15688 125.732C3.18652 125.691 3.22422 125.657 3.26759 125.632L6.39999 123.822C6.44072 123.796 6.48623 123.779 6.53377 123.771C6.5813 123.763 6.62989 123.766 6.6766 123.777C6.72331 123.789 6.76717 123.81 6.80556 123.84C6.84394 123.869 6.87605 123.906 6.89995 123.948C6.92385 123.99 6.93905 124.037 6.94462 124.085C6.9502 124.134 6.94605 124.183 6.93241 124.229C6.91878 124.276 6.89594 124.319 6.86527 124.357C6.83461 124.394 6.79675 124.425 6.75398 124.448L3.75936 126.178L3.52687 127.258H12.0993L10.846 124.275C10.8251 124.231 10.8132 124.184 10.8111 124.135C10.8089 124.086 10.8166 124.038 10.8337 123.992C10.8507 123.946 10.8767 123.905 10.9102 123.869C10.9436 123.834 10.9838 123.806 11.0282 123.787C11.0727 123.768 11.1205 123.758 11.1688 123.759C11.2171 123.759 11.2648 123.769 11.3091 123.788C11.3534 123.807 11.3934 123.836 11.4266 123.871C11.4598 123.907 11.4856 123.948 11.5023 123.994L12.9671 127.474C12.9902 127.529 12.9995 127.589 12.9942 127.648C12.9889 127.707 12.969 127.764 12.9365 127.814C12.904 127.864 12.8598 127.904 12.8078 127.932C12.7559 127.96 12.6979 127.975 12.6389 127.975V127.979Z" fill="#002E5D"/>
<path d="M21.7885 61.5605H13.6752C13.5806 61.5605 13.4898 61.5225 13.4229 61.4549C13.356 61.3873 13.3184 61.2956 13.3184 61.1999C13.3184 61.1043 13.356 61.0126 13.4229 60.945C13.4898 60.8773 13.5806 60.8394 13.6752 60.8394H21.7885C21.8831 60.8394 21.9739 60.8773 22.0408 60.945C22.1077 61.0126 22.1453 61.1043 22.1453 61.1999C22.1453 61.2956 22.1077 61.3873 22.0408 61.4549C21.9739 61.5225 21.8831 61.5605 21.7885 61.5605Z" fill="#002E5D"/>
<path d="M12.7971 26.6592L6.09983 28.3025L0.357422 51.7959L7.0164 66.1754L10.7688 62.9312C10.7688 62.9312 16.9542 59.0036 12.7971 26.6592Z" fill="#325D9C"/>
<path d="M7.01595 66.536C6.99052 66.5359 6.96517 66.533 6.94037 66.5273C6.88761 66.5148 6.83834 66.4904 6.79625 66.4559C6.75416 66.4214 6.72035 66.3777 6.69736 66.3282L0.0335982 51.9487C-0.00110898 51.8742 -0.00922205 51.7898 0.0106362 51.7099L5.75687 28.2117C5.77262 28.1477 5.80536 28.0894 5.85156 28.0428C5.89776 27.9963 5.95567 27.9635 6.01902 27.9478L12.7163 26.3093C12.8083 26.2867 12.9053 26.302 12.9862 26.3517C13.067 26.4015 13.125 26.4817 13.1473 26.5746C13.1696 26.6675 13.1545 26.7656 13.1052 26.8473C13.056 26.929 12.9766 26.9875 12.8847 27.0101L6.3979 28.5974L0.733939 51.7592L7.14416 65.5935L10.333 62.8346L5.41149 51.331C5.38165 51.2619 5.37428 51.1851 5.39044 51.1115L8.54962 36.444C8.56967 36.3507 8.62559 36.2692 8.70507 36.2176C8.78456 36.1659 8.8811 36.1482 8.97346 36.1685C9.06583 36.1887 9.14645 36.2452 9.19758 36.3256C9.24872 36.4059 9.26618 36.5034 9.24614 36.5967L6.11565 51.1454L11.0984 62.7872C11.1288 62.858 11.1359 62.9367 11.1187 63.0119C11.1014 63.0871 11.0608 63.1547 11.0027 63.2048L7.24845 66.449C7.18373 66.5051 7.10125 66.536 7.01595 66.536Z" fill="#002E5D"/>
<path d="M18.2743 49.857C18.2222 49.8569 18.1707 49.8454 18.1234 49.8232C18.0762 49.801 18.0343 49.7686 18.0006 49.7284L15.7044 46.9501C15.6724 46.9116 15.6488 46.8668 15.6349 46.8185C15.6211 46.7703 15.6174 46.7196 15.6241 46.6698L17.5376 32.6702L17.3921 31.5189L15.0672 28.5927C15.0357 28.5561 15.0118 28.5135 14.9969 28.4673C14.9821 28.4211 14.9766 28.3724 14.9809 28.324C14.9851 28.2757 14.999 28.2287 15.0217 28.1859C15.0443 28.1431 15.0753 28.1053 15.1128 28.0749C15.1502 28.0445 15.1934 28.022 15.2396 28.0089C15.2859 27.9957 15.3343 27.9921 15.3819 27.9983C15.4296 28.0045 15.4755 28.0204 15.517 28.0449C15.5584 28.0695 15.5945 28.1023 15.6231 28.1413L17.7844 30.8606L18.1011 28.5454C18.1062 28.4975 18.1208 28.4511 18.144 28.409C18.1671 28.3669 18.1984 28.33 18.2359 28.3003C18.2734 28.2706 18.3165 28.2488 18.3625 28.2362C18.4085 28.2236 18.4565 28.2204 18.5037 28.2269C18.551 28.2333 18.5965 28.2493 18.6375 28.2738C18.6785 28.2983 18.7143 28.3309 18.7426 28.3696C18.771 28.4083 18.7914 28.4523 18.8027 28.4991C18.8139 28.5459 18.8158 28.5945 18.8081 28.642L18.2551 32.6741L19.9773 46.3721C19.9853 46.4378 19.9757 46.5046 19.9495 46.5654L18.5967 49.6453C18.5721 49.7012 18.5338 49.7499 18.4854 49.7868C18.4371 49.8237 18.3802 49.8475 18.3202 49.856C18.3049 49.8572 18.2896 49.8575 18.2743 49.857ZM16.3512 46.6099L18.1786 48.8178L19.2588 46.3595L17.881 35.4098L16.3512 46.6099Z" fill="#002E5D"/>
<path d="M135.64 15.1615C134.779 12.9923 132.635 11.811 130.801 12.4664C128.02 7.55952 119.99 10.1705 118.595 14.1098C117.107 18.2994 122.517 16.2955 122.517 16.2955C123.058 19.1182 124.951 19.1646 126.213 18.7547C127.475 18.3448 126.393 21.1221 126.393 21.1221L127.61 24.5829C127.61 24.5829 129.64 22.895 130.863 20.2328C131.799 20.7886 132.887 20.9346 133.873 20.5354C135.727 19.7881 136.521 17.3791 135.64 15.1615Z" fill="#002E5D"/>
<path d="M120.681 26.9707C120.382 26.9727 120.087 26.8972 119.825 26.7512C118.767 26.1654 118.238 24.3945 118.251 21.4876C118.265 20.129 118.368 18.7727 118.557 17.4276C118.563 17.3796 118.578 17.3332 118.602 17.2913C118.626 17.2494 118.658 17.2127 118.696 17.1835C118.734 17.1543 118.778 17.1331 118.824 17.1212C118.87 17.1093 118.918 17.1069 118.966 17.1143C119.013 17.1216 119.058 17.1385 119.099 17.1638C119.14 17.1892 119.175 17.2226 119.203 17.262C119.23 17.3014 119.25 17.3461 119.26 17.3933C119.271 17.4405 119.271 17.4893 119.263 17.5368C118.949 19.6113 118.497 25.1968 120.169 26.121C120.979 26.5705 122.23 25.7092 123.134 24.9068C123.206 24.8437 123.299 24.8118 123.393 24.8181C123.488 24.8243 123.576 24.8682 123.638 24.9402C123.701 25.0121 123.732 25.1061 123.726 25.2015C123.72 25.297 123.676 25.3861 123.605 25.4491C122.455 26.469 121.489 26.9707 120.681 26.9707Z" fill="#002E5D"/>
<path d="M127.056 27.9758C126.961 27.9758 126.871 27.9378 126.804 27.8702C126.737 27.8026 126.699 27.7109 126.699 27.6152V24.9172C126.699 24.8216 126.737 24.7299 126.804 24.6623C126.871 24.5946 126.961 24.5566 127.056 24.5566C127.151 24.5566 127.241 24.5946 127.308 24.6623C127.375 24.7299 127.413 24.8216 127.413 24.9172V27.6152C127.413 27.7109 127.375 27.8026 127.308 27.8702C127.241 27.9378 127.151 27.9758 127.056 27.9758Z" fill="#002E5D"/>
<path d="M126.391 21.4865C126.343 21.4863 126.295 21.4764 126.251 21.4575C126.207 21.4388 126.168 21.4118 126.136 21.3779C126.103 21.3439 126.077 21.3038 126.06 21.2598C126.042 21.2158 126.034 21.1688 126.035 21.1214C126.035 21.074 126.045 21.0273 126.064 20.9838C126.681 19.5338 126.428 19.2186 126.397 19.1877C126.273 19.064 125.868 19.1461 125.632 19.2496C125.546 19.2825 125.451 19.281 125.367 19.2453C125.282 19.2096 125.215 19.1425 125.178 19.0578C125.141 18.9732 125.138 18.8774 125.169 18.7904C125.2 18.7034 125.263 18.6317 125.344 18.5903C125.449 18.5439 126.371 18.1495 126.898 18.6744C127.341 19.1152 127.281 19.9398 126.719 21.268C126.692 21.3329 126.646 21.3883 126.588 21.4272C126.529 21.466 126.461 21.4866 126.391 21.4865Z" fill="#002E5D"/>
<path d="M128.375 28.5491L120.991 30.0958L115.891 39.6138C115.891 39.6138 117.333 43.6217 116.752 47.2187C116.17 50.8157 115.891 57.2597 115.891 57.2597C115.891 57.2597 125.693 57.4646 132.274 55.0063L129.66 46.9451L131.757 35.4019L128.375 28.5491Z" fill="#5B97EF"/>
<path d="M130.674 54.1877C130.674 54.1877 137.298 60.6771 134.526 84.6529L113.163 84.1695L117.288 54.7977L130.674 54.1877Z" fill="#5B97EF"/>
<path d="M119.869 57.5305C119.778 57.5287 119.69 57.4912 119.625 57.4257C119.56 57.3603 119.522 57.272 119.52 57.1792C119.517 57.0864 119.55 56.9963 119.612 56.9276C119.674 56.8589 119.76 56.8169 119.851 56.8103C123.243 56.6315 128.031 56.1337 131.827 54.7871L129.32 47.0594C129.302 47.0019 129.298 46.9409 129.309 46.8815L131.385 35.4562L128.055 28.7107C128.013 28.6251 128.006 28.526 128.036 28.4352C128.066 28.3445 128.131 28.2695 128.216 28.2269C128.3 28.1842 128.398 28.1772 128.488 28.2076C128.578 28.238 128.652 28.3031 128.694 28.3888L132.077 35.2426C132.111 35.3126 132.122 35.3919 132.108 35.4688L130.027 46.9221L132.61 54.8953C132.639 54.984 132.633 55.0805 132.593 55.1646C132.553 55.2487 132.482 55.3137 132.395 55.3458C128.473 56.8142 123.425 57.3449 119.886 57.5315L119.869 57.5305Z" fill="#002E5D"/>
<path d="M134.527 85.0133H134.519L120.61 84.702C120.515 84.6997 120.426 84.6597 120.36 84.5907C120.295 84.5217 120.259 84.4293 120.261 84.3337C120.261 84.2862 120.271 84.2394 120.29 84.1958C120.309 84.1523 120.336 84.1129 120.37 84.0801C120.404 84.0473 120.444 84.0216 120.488 84.0045C120.532 83.9875 120.578 83.9795 120.625 83.9809L134.211 84.2844C136.279 65.9512 132.791 58.036 131.188 55.4771C131.163 55.4371 131.146 55.3925 131.138 55.3459C131.129 55.2992 131.131 55.2514 131.141 55.2052C131.151 55.159 131.17 55.1152 131.197 55.0765C131.224 55.0377 131.258 55.0047 131.298 54.9793C131.337 54.9539 131.382 54.9366 131.428 54.9285C131.474 54.9203 131.521 54.9214 131.567 54.9318C131.613 54.9421 131.656 54.9614 131.694 54.9886C131.733 55.0159 131.765 55.0505 131.791 55.0905C133.444 57.7305 137.053 65.9 134.883 84.6943C134.872 84.7823 134.831 84.8634 134.765 84.9222C134.699 84.981 134.615 85.0134 134.527 85.0133Z" fill="#002E5D"/>
<path d="M115.01 120.063C114.956 120.063 114.902 120.051 114.854 120.027C114.805 120.003 114.762 119.968 114.729 119.925C114.695 119.882 114.672 119.832 114.66 119.779C114.649 119.725 114.65 119.67 114.663 119.617L122.856 85.4232C122.879 85.3303 122.937 85.2501 123.017 85.2004C123.098 85.1506 123.195 85.1353 123.287 85.1579C123.379 85.1804 123.459 85.239 123.508 85.3207C123.557 85.4023 123.572 85.5004 123.55 85.5934L115.356 119.787C115.338 119.866 115.293 119.935 115.23 119.985C115.168 120.035 115.09 120.063 115.01 120.063Z" fill="#002E5D"/>
<path d="M111.223 125.657H111.192C111.098 125.648 111.012 125.603 110.951 125.531C110.89 125.458 110.86 125.365 110.867 125.27L114.332 85.4744C114.335 85.4267 114.348 85.3803 114.369 85.3377C114.391 85.2951 114.421 85.2572 114.457 85.2263C114.493 85.1954 114.534 85.172 114.579 85.1576C114.625 85.1431 114.672 85.1378 114.719 85.142C114.766 85.1463 114.812 85.1599 114.854 85.1822C114.896 85.2044 114.933 85.2349 114.963 85.2718C114.993 85.3086 115.015 85.3511 115.029 85.3969C115.043 85.4426 115.047 85.4906 115.043 85.5382L111.58 125.328C111.572 125.418 111.531 125.502 111.465 125.563C111.399 125.623 111.313 125.657 111.223 125.657Z" fill="#002E5D"/>
<path d="M131.495 122.029H131.477C131.382 122.024 131.294 121.981 131.23 121.91C131.167 121.84 131.134 121.746 131.138 121.651L132.956 85.4881C132.958 85.4405 132.969 85.3938 132.989 85.3506C133.009 85.3075 133.037 85.2687 133.072 85.2366C133.107 85.2046 133.148 85.1798 133.192 85.1637C133.236 85.1476 133.284 85.1406 133.331 85.143C133.378 85.1455 133.424 85.1573 133.466 85.1778C133.509 85.1984 133.547 85.2272 133.578 85.2627C133.61 85.2982 133.634 85.3397 133.65 85.3847C133.665 85.4296 133.672 85.4773 133.669 85.5248L131.851 121.687C131.846 121.779 131.807 121.866 131.741 121.93C131.674 121.993 131.586 122.029 131.495 122.029Z" fill="#002E5D"/>
<path d="M128.417 121.35C128.329 121.35 128.245 121.317 128.179 121.258C128.114 121.199 128.073 121.117 128.063 121.028L124.282 85.5451C124.272 85.45 124.3 85.3547 124.359 85.2802C124.419 85.2057 124.505 85.1581 124.599 85.1478C124.693 85.1376 124.787 85.1655 124.861 85.2255C124.935 85.2855 124.982 85.3727 124.992 85.4678L128.776 120.951C128.786 121.046 128.758 121.141 128.699 121.216C128.64 121.29 128.554 121.338 128.46 121.348C128.446 121.35 128.431 121.351 128.417 121.35Z" fill="#002E5D"/>
<path d="M112.876 128L108.842 127.982C108.79 127.981 108.738 127.969 108.69 127.946C108.643 127.923 108.601 127.89 108.568 127.849C108.528 127.8 108.185 127.356 108.37 126.816C108.534 126.332 109.063 125.979 109.942 125.774C111.44 125.424 113.496 121.059 114.162 119.407C114.193 119.328 114.252 119.263 114.327 119.223C114.402 119.184 114.488 119.173 114.57 119.192C115.64 119.435 116.421 120.016 116.892 120.918C118.207 123.431 116.612 127.579 116.544 127.753C116.518 127.821 116.472 127.878 116.413 127.919C116.353 127.96 116.284 127.981 116.212 127.982L115.153 127.977C115.064 127.976 114.978 127.942 114.913 127.881C114.847 127.82 114.807 127.736 114.799 127.646L114.599 125.277L113.184 127.816C113.153 127.872 113.109 127.918 113.054 127.95C113 127.982 112.939 128 112.876 128ZM109.049 127.261L112.664 127.279L114.538 123.895C114.575 123.827 114.632 123.772 114.702 123.74C114.773 123.707 114.851 123.698 114.927 123.715C115.002 123.731 115.07 123.772 115.121 123.831C115.172 123.89 115.202 123.964 115.207 124.041L115.478 127.253H115.957C116.263 126.371 117.256 123.16 116.255 121.247C115.923 120.613 115.411 120.192 114.696 119.966C114.133 121.305 112.029 126.018 110.097 126.47C109.256 126.663 109.078 126.933 109.044 127.039C109.02 127.112 109.023 127.191 109.052 127.261H109.049Z" fill="#002E5D"/>
<path d="M131.71 127.911H125.468C125.374 127.911 125.283 127.873 125.216 127.805C125.149 127.738 125.111 127.646 125.111 127.55V126.636C125.111 126.585 125.122 126.534 125.143 126.487C125.164 126.441 125.195 126.399 125.233 126.365C125.252 126.349 127.098 124.703 127.301 123.327C127.536 121.741 128.435 119.128 130.319 119.403C131.371 119.556 131.95 120.976 132.106 123.745C132.169 125.021 132.155 126.301 132.066 127.576C132.06 127.667 132.019 127.752 131.953 127.814C131.887 127.876 131.8 127.911 131.71 127.911ZM125.825 127.19H131.374C131.566 124.243 131.34 120.284 130.213 120.12C128.549 119.878 128.012 123.406 128.003 123.436C127.792 124.86 126.271 126.378 125.821 126.799L125.825 127.19Z" fill="#002E5D"/>
<path d="M125.047 33.49L126.077 51.3872L124.185 65.8682H119.924L120.991 51.5235L118.91 38.886" fill="#5B97EF"/>
<path d="M113.67 54.7339L131.214 58.3541L128.983 71.6306L110.865 68.2588L113.67 54.7339Z" fill="white"/>
<path d="M124.186 66.2287H119.926C119.877 66.2287 119.828 66.2185 119.783 66.1987C119.739 66.1789 119.698 66.15 119.665 66.1137C119.631 66.0774 119.606 66.0346 119.589 65.9878C119.573 65.9411 119.567 65.8915 119.57 65.842L120.633 51.5409L118.561 38.9469C118.551 38.8992 118.55 38.85 118.559 38.8022C118.569 38.7543 118.587 38.7089 118.614 38.6686C118.642 38.6282 118.676 38.5939 118.717 38.5676C118.758 38.5413 118.803 38.5236 118.851 38.5156C118.898 38.5075 118.947 38.5093 118.994 38.5208C119.041 38.5323 119.085 38.5533 119.123 38.5825C119.162 38.6117 119.194 38.6485 119.219 38.6907C119.243 38.7329 119.258 38.7796 119.264 38.828L121.344 51.4655C121.348 51.494 121.348 51.523 121.344 51.5515L120.307 65.5085H123.87L125.717 51.3736L124.69 33.5112C124.685 33.4628 124.69 33.4139 124.704 33.3674C124.718 33.3209 124.742 33.2778 124.773 33.2408C124.804 33.2037 124.842 33.1734 124.885 33.1517C124.928 33.1299 124.975 33.1173 125.024 33.1144C125.072 33.1115 125.12 33.1185 125.165 33.1349C125.21 33.1514 125.252 33.1769 125.287 33.21C125.323 33.2431 125.351 33.2831 125.371 33.3276C125.39 33.372 125.401 33.42 125.401 33.4687L126.432 51.3659C126.434 51.3884 126.434 51.4111 126.432 51.4336L124.54 65.9155C124.529 66.0021 124.487 66.0816 124.421 66.1392C124.356 66.1968 124.273 66.2286 124.186 66.2287Z" fill="#002E5D"/>
<path d="M120.823 71.992C119.905 71.992 118.919 71.468 117.881 70.4269C117.838 70.3843 117.807 70.3316 117.79 70.2737C117.773 70.2157 117.771 70.1544 117.783 70.0953C117.796 70.0362 117.823 69.9812 117.862 69.9354C117.901 69.8897 117.951 69.8546 118.007 69.8334C118.064 69.8112 119.313 69.3085 119.368 67.8932C118.715 68.2142 117.599 68.6009 116.831 67.9967C116.794 67.9676 116.763 67.9315 116.74 67.8903C116.717 67.8491 116.702 67.8038 116.696 67.7568C116.69 67.7098 116.694 67.6621 116.706 67.6164C116.719 67.5707 116.74 67.528 116.769 67.4906C116.797 67.4532 116.833 67.4219 116.874 67.3985C116.915 67.3751 116.959 67.36 117.006 67.3542C117.052 67.3483 117.1 67.3517 117.145 67.3643C117.19 67.3768 117.232 67.3982 117.269 67.4273C117.851 67.8845 119.072 67.2736 119.494 66.9991C119.544 66.9667 119.601 66.9473 119.66 66.9428C119.719 66.9383 119.778 66.9488 119.832 66.9733C119.887 66.9977 119.934 67.0354 119.97 67.083C120.006 67.1305 120.03 67.1864 120.039 67.2456C120.284 68.8029 119.465 69.7851 118.744 70.2568C119.7 71.1055 120.562 71.4236 121.301 71.2003C123.087 70.6638 123.828 67.261 123.835 67.2272C123.854 67.1336 123.91 67.0518 123.989 66.9996C124.069 66.9475 124.165 66.9294 124.258 66.9493C124.351 66.9691 124.432 67.0254 124.483 67.1056C124.535 67.1858 124.553 67.2835 124.533 67.377C124.5 67.5346 123.697 71.2312 121.506 71.8905C121.284 71.9579 121.054 71.9921 120.823 71.992Z" fill="#002E5D"/>
<path d="M113.5 69.1095C113.479 69.1095 113.457 69.1076 113.435 69.1037L110.801 68.6136C110.753 68.6052 110.708 68.5873 110.668 68.5609C110.628 68.5346 110.594 68.5004 110.567 68.4604C110.54 68.4204 110.522 68.3753 110.513 68.3279C110.503 68.2805 110.504 68.2317 110.513 68.1844L113.319 54.6595C113.34 54.5674 113.395 54.4874 113.474 54.4365C113.553 54.3856 113.648 54.3679 113.74 54.3873C113.831 54.4067 113.911 54.4615 113.963 54.5401C114.015 54.6186 114.035 54.7146 114.017 54.8074L111.289 67.9707L113.565 68.3941C113.652 68.4102 113.731 68.4589 113.785 68.5306C113.839 68.6023 113.864 68.6917 113.856 68.7814C113.848 68.8711 113.807 68.9545 113.741 69.0153C113.676 69.076 113.59 69.1096 113.5 69.1095Z" fill="#002E5D"/>
<path d="M117.558 46.5364C117.423 46.633 111.428 48.6312 111.428 48.6312L111.698 52.0929L117.558 51.8648V46.5364Z" fill="#5B97EF"/>
<path d="M110.218 49.5303C110.162 49.5295 110.106 49.5153 110.056 49.4887C110.006 49.4622 109.964 49.4241 109.931 49.3775L108.552 47.3968L106.677 47.0381C106.631 47.0293 106.587 47.0114 106.548 46.9855C106.509 46.9595 106.475 46.926 106.449 46.8869C106.422 46.8477 106.404 46.8037 106.394 46.7574C106.385 46.711 106.384 46.6632 106.393 46.6167C106.402 46.5701 106.419 46.5258 106.445 46.4862C106.471 46.4466 106.504 46.4125 106.543 46.3858C106.581 46.3592 106.625 46.3405 106.671 46.3308C106.717 46.3212 106.764 46.3207 106.81 46.3296L108.827 46.7162C108.918 46.7339 108.999 46.7866 109.053 46.8632L110.505 48.9618C110.543 49.0155 110.565 49.0785 110.569 49.144C110.574 49.2095 110.561 49.2751 110.531 49.3336C110.502 49.3921 110.457 49.4413 110.402 49.476C110.347 49.5107 110.283 49.5294 110.218 49.5303Z" fill="#002E5D"/>
<path d="M108.825 52.3102C106.981 52.3102 105.155 51.1908 104.17 50.1951C103.457 49.474 103.5 49.1366 103.596 48.9452C103.643 48.8485 103.787 48.6397 104.164 48.6919C105.088 48.8215 107.107 48.2559 107.807 48.0268C107.852 48.01 107.9 48.0025 107.948 48.0048C107.996 48.0072 108.043 48.0193 108.086 48.0405C108.129 48.0617 108.168 48.0915 108.2 48.1281C108.231 48.1648 108.255 48.2075 108.27 48.2537C108.285 48.2999 108.29 48.3487 108.286 48.3971C108.282 48.4455 108.268 48.4925 108.245 48.5354C108.222 48.5782 108.191 48.6159 108.154 48.6463C108.116 48.6767 108.073 48.6991 108.027 48.7122C107.931 48.7451 105.797 49.4401 104.447 49.4314C104.793 49.8471 105.585 50.5576 106.677 51.0671C107.624 51.5098 109.027 51.8994 110.33 51.2449C110.372 51.2232 110.418 51.2102 110.465 51.2065C110.512 51.2029 110.56 51.2087 110.605 51.2236C110.649 51.2386 110.691 51.2623 110.727 51.2936C110.762 51.3248 110.791 51.3629 110.812 51.4056C110.833 51.4483 110.846 51.4948 110.849 51.5423C110.852 51.5899 110.846 51.6377 110.83 51.6828C110.815 51.7279 110.791 51.7695 110.76 51.8052C110.729 51.8409 110.691 51.8699 110.648 51.8907C110.081 52.1722 109.456 52.3158 108.825 52.3102Z" fill="#002E5D"/>
<path d="M113.921 64.8851C113.868 64.8851 113.815 64.8729 113.767 64.8496C113.719 64.8262 113.676 64.7922 113.643 64.7501C113.609 64.7079 113.586 64.6588 113.574 64.6062C113.562 64.5536 113.561 64.4989 113.573 64.4462L114.925 58.2991C114.934 58.2515 114.952 58.2063 114.978 58.166C115.005 58.1256 115.039 58.0911 115.079 58.0645C115.119 58.0378 115.164 58.0195 115.211 58.0107C115.258 58.0019 115.306 58.0027 115.353 58.0131C115.399 58.0236 115.444 58.0434 115.483 58.0715C115.522 58.0995 115.555 58.1352 115.58 58.1764C115.605 58.2176 115.621 58.2634 115.629 58.3113C115.636 58.3591 115.633 58.4079 115.621 58.4547L114.269 64.6028C114.252 64.6829 114.208 64.7545 114.144 64.8058C114.081 64.8571 114.002 64.8851 113.921 64.8851Z" fill="#002E5D"/>
<path d="M115.331 67.551C115.304 67.5511 115.278 67.5479 115.252 67.5414C115.206 67.531 115.163 67.5116 115.125 67.4843C115.086 67.4569 115.054 67.4222 115.029 67.3822C115.004 67.3421 114.987 67.2974 114.979 67.2508C114.972 67.2041 114.973 67.1563 114.984 67.1102L117.202 57.2964C117.224 57.2043 117.281 57.1248 117.361 57.075C117.441 57.0252 117.537 57.0092 117.628 57.0304C117.72 57.0516 117.799 57.1084 117.849 57.1884C117.9 57.2684 117.917 57.3652 117.897 57.4579L115.676 67.2707C115.658 67.3497 115.614 67.4202 115.551 67.4711C115.489 67.5219 115.411 67.5501 115.331 67.551Z" fill="#002E5D"/>
<path d="M68.2388 15.8261L38.034 16.0886C37.4007 16.0932 36.7924 15.8448 36.3424 15.3979C35.8923 14.951 35.6373 14.3421 35.6332 13.7045C35.6309 13.0673 35.8799 12.4542 36.3255 11.9998C36.7711 11.5455 37.3768 11.287 38.0098 11.2811L68.2159 11.016C68.8489 11.0112 69.4569 11.2595 69.9065 11.7063C70.3561 12.1532 70.6105 12.762 70.6138 13.3993C70.617 14.0369 70.3687 14.6506 69.9234 15.1057C69.478 15.5608 68.8721 15.8199 68.2388 15.8261Z" fill="#F70431"/>
<path d="M97.4874 28.3065L45.5225 28.5235C45.2674 28.5246 45.0144 28.4759 44.7778 28.3801C44.5413 28.2844 44.3258 28.1435 44.1438 27.9655C43.9617 27.7875 43.8167 27.5759 43.7169 27.3427C43.6171 27.1096 43.5645 26.8595 43.5622 26.6067C43.5579 26.0967 43.7581 25.6069 44.1188 25.2449C44.4794 24.8829 44.9711 24.6783 45.4857 24.6761L97.45 24.4589C97.7051 24.4578 97.9581 24.5066 98.1947 24.6023C98.4312 24.6981 98.6467 24.839 98.8287 25.017C99.0108 25.195 99.1558 25.4066 99.2556 25.6397C99.3554 25.8729 99.408 26.123 99.4104 26.3757C99.4148 26.8857 99.2148 27.3756 98.8542 27.7376C98.4936 28.0996 98.002 28.3043 97.4874 28.3065Z" fill="#E4ECF9"/>
<path d="M97.5282 38.8804L37.7877 39.7357C37.5335 39.7394 37.2818 39.6916 37.0469 39.5952C36.8121 39.4988 36.5988 39.3556 36.4191 39.1738C36.2395 38.9921 36.097 38.7752 35.9999 38.5357C35.9027 38.2962 35.8528 38.0388 35.853 37.7781C35.8531 37.5174 35.9033 37.2585 36.0007 37.0162C36.0982 36.7739 36.2409 36.553 36.4207 36.3661C36.6006 36.1792 36.8141 36.0299 37.049 35.9268C37.284 35.8237 37.5357 35.7688 37.7899 35.7652L97.5305 34.9099C97.7847 34.9062 98.0364 34.9539 98.2712 35.0504C98.506 35.1468 98.7193 35.29 98.899 35.4717C99.0787 35.6535 99.2211 35.8704 99.3183 36.1099C99.4154 36.3493 99.4653 36.6068 99.4651 36.8675C99.465 37.1282 99.4148 37.3871 99.3174 37.6294C99.22 37.8717 99.0773 38.0926 98.8974 38.2795C98.7175 38.4664 98.504 38.6157 98.2691 38.7188C98.0342 38.8219 97.7824 38.8768 97.5282 38.8804Z" fill="#E4ECF9"/>
<path d="M98.2247 50.4414L37.6551 51.0753C37.3974 51.0781 37.142 51.0295 36.9035 50.9322C36.665 50.8349 36.4482 50.6908 36.2653 50.5082C36.0825 50.3256 35.9372 50.1081 35.8378 49.868C35.7384 49.6279 35.6868 49.3701 35.6861 49.1091C35.6851 48.8481 35.735 48.589 35.8329 48.3468C35.9307 48.1046 36.0746 47.8839 36.2563 47.6974C36.438 47.5109 36.654 47.3622 36.8919 47.2598C37.1298 47.1575 37.3849 47.1034 37.6427 47.1008L98.2118 46.4662C98.4696 46.4634 98.7251 46.512 98.9636 46.6093C99.2021 46.7066 99.419 46.8507 99.6019 47.0333C99.7848 47.2159 99.9301 47.4334 100.03 47.6735C100.129 47.9136 100.181 48.1715 100.181 48.4325C100.182 48.6936 100.132 48.9527 100.035 49.195C99.9368 49.4372 99.7929 49.6579 99.6112 49.8445C99.4295 50.031 99.2135 50.1798 98.9756 50.2822C98.7377 50.3846 98.4825 50.4387 98.2247 50.4414Z" fill="#E4ECF9"/>
<path d="M97.4259 60.6573L37.6867 61.5113C37.1732 61.5186 36.6808 61.3165 36.3179 60.9493C35.955 60.5821 35.7512 60.08 35.7515 59.5533C35.7516 59.2926 35.8018 59.0337 35.8992 58.7914C35.9967 58.5491 36.1394 58.3282 36.3192 58.1412C36.4991 57.9543 36.7126 57.805 36.9476 57.7019C37.1825 57.5987 37.4343 57.5438 37.6885 57.5402L97.4286 56.6852C97.6828 56.6815 97.9345 56.7293 98.1693 56.8257C98.4042 56.9221 98.6175 57.0653 98.7971 57.2471C98.9768 57.4289 99.1192 57.6457 99.2164 57.8852C99.3135 58.1247 99.3634 58.3822 99.3632 58.643C99.3633 58.9038 99.3132 59.1629 99.2158 59.4053C99.1184 59.6478 98.9757 59.8688 98.7958 60.0559C98.6158 60.243 98.4023 60.3924 98.1672 60.4956C97.9322 60.5987 97.6803 60.6537 97.4259 60.6573Z" fill="#E4ECF9"/>
<path d="M81.1254 72.1566L38.5959 72.1849C38.3472 72.1851 38.1002 72.1373 37.8692 72.0442C37.6381 71.9512 37.4275 71.8147 37.2493 71.6426C37.0712 71.4704 36.929 71.2661 36.8309 71.0411C36.7328 70.8161 36.6806 70.575 36.6775 70.3314C36.6743 70.0879 36.7201 69.8467 36.8124 69.6216C36.9046 69.3965 37.0415 69.192 37.2152 69.0196C37.3888 68.8473 37.5959 68.7106 37.8245 68.6172C38.0531 68.5239 38.2988 68.4758 38.5476 68.4757L81.077 68.4474C81.3258 68.4472 81.5727 68.495 81.8038 68.5881C82.0348 68.6811 82.2454 68.8176 82.4236 68.9897C82.6017 69.1619 82.7439 69.3662 82.8421 69.5912C82.9402 69.8162 82.9923 70.0573 82.9954 70.3009C82.9986 70.5444 82.9528 70.7856 82.8606 71.0107C82.7683 71.2358 82.6314 71.4403 82.4578 71.6127C82.2841 71.785 82.0771 71.9217 81.8485 72.0151C81.6198 72.1084 81.3741 72.1565 81.1254 72.1566Z" fill="#E4ECF9"/>
<path d="M98.0018 83.3751L37.6192 83.2989C37.3623 83.2986 37.1071 83.2491 36.8682 83.1531C36.6294 83.0572 36.4116 82.9168 36.2272 82.7398C36.0429 82.5629 35.8956 82.3529 35.7938 82.1219C35.692 81.8909 35.6377 81.6433 35.634 81.3934C35.6301 81.1435 35.6768 80.8961 35.7716 80.6654C35.8664 80.4346 36.0073 80.225 36.1863 80.0485C36.3653 79.872 36.5789 79.7321 36.8148 79.6367C37.0507 79.5414 37.3044 79.4925 37.5614 79.4929L97.9428 79.5688C98.1997 79.5691 98.4549 79.6186 98.6937 79.7146C98.9326 79.8105 99.1504 79.9509 99.3347 80.1279C99.5191 80.3048 99.6664 80.5148 99.7682 80.7458C99.87 80.9768 99.9243 81.2244 99.928 81.4743C99.9358 81.9788 99.7372 82.4624 99.376 82.8189C99.0148 83.1753 98.5205 83.3754 98.0018 83.3751Z" fill="#E4ECF9"/>
<path d="M97.8527 94.7106L38.3003 94.8551C38.0469 94.8557 37.7954 94.8072 37.5602 94.7122C37.325 94.6173 37.1107 94.4777 36.9296 94.3016C36.7484 94.1255 36.6039 93.9163 36.5044 93.6859C36.4049 93.4555 36.3522 93.2084 36.3494 92.9587C36.3467 92.709 36.394 92.4615 36.4885 92.2306C36.5831 91.9996 36.7231 91.7897 36.9005 91.6127C37.078 91.4358 37.2894 91.2954 37.5227 91.1995C37.7559 91.1036 38.0065 91.054 38.2601 91.0538L97.8096 90.9085C98.063 90.9079 98.3145 90.9564 98.5497 91.0514C98.7849 91.1463 98.9992 91.2859 99.1804 91.462C99.3615 91.6381 99.506 91.8473 99.6055 92.0777C99.7051 92.3081 99.7578 92.5552 99.7605 92.8049C99.7662 93.309 99.5685 93.793 99.2107 94.1504C98.8529 94.5078 98.3644 94.7093 97.8527 94.7106Z" fill="#E4ECF9"/>
<path d="M36.3651 52.7013C35.8072 52.5512 35.3142 52.2213 34.9617 51.762C34.6091 51.3027 34.4163 50.7394 34.4129 50.1583L34.3959 46.9207C34.3922 46.2172 34.6666 45.5402 35.1587 45.0385C35.6509 44.5369 36.3205 44.2517 37.0202 44.2457L77.7878 43.9046C78.1343 43.9016 78.4778 43.9672 78.7987 44.0978C79.1196 44.2283 79.4115 44.4213 79.6578 44.6655C79.9042 44.9098 80.1001 45.2005 80.2344 45.5213C80.3687 45.842 80.4387 46.1864 80.4405 46.5348L80.4481 47.9845C80.4488 48.1091 80.4002 48.2289 80.3131 48.3178C80.226 48.4066 80.1075 48.4571 79.9836 48.4582C79.8597 48.4593 79.7406 48.4108 79.6525 48.3235C79.5644 48.2362 79.5145 48.1171 79.5138 47.9926L79.5063 46.5429C79.5052 46.3178 79.4599 46.0954 79.3732 45.8882C79.2865 45.681 79.16 45.4931 79.0009 45.3354C78.8418 45.1776 78.6532 45.053 78.446 44.9686C78.2387 44.8843 78.0168 44.8419 77.793 44.8438L37.027 45.1836C36.5751 45.1879 36.1429 45.3721 35.825 45.696C35.5071 46.0198 35.3295 46.4568 35.3312 46.9111L35.3483 50.1506C35.351 50.6049 35.5329 51.039 35.8541 51.3577C36.1753 51.6763 36.6095 51.8534 37.0614 51.8502L71.2309 51.5642C71.3547 51.5632 71.4738 51.6117 71.5618 51.699C71.6498 51.7864 71.6996 51.9054 71.7002 52.03C71.7008 52.1545 71.6522 52.2743 71.5651 52.3631C71.4779 52.4518 71.3593 52.5023 71.2355 52.5033L37.0654 52.7891C36.8291 52.7914 36.5935 52.7619 36.3651 52.7013Z" fill="#325D9C"/>
</g>
<defs>
<clipPath id="clip0_1404_24978">
<rect width="136" height="128" fill="white"/>
</clipPath>
</defs>
</svg>
