<svg width="24" height="24" viewBox="0 0 24 24" fill="none" xmlns="http://www.w3.org/2000/svg">
<g clip-path="url(#clip0_1489_18056)">
<path d="M11.625 4.875C9.14062 4.875 7.125 6.89062 7.125 9.375C7.125 11.8594 9.14062 13.875 11.625 13.875C14.1094 13.875 16.125 11.8594 16.125 9.375C16.125 6.89062 14.1094 4.875 11.625 4.875ZM11.625 11.625C10.3828 11.625 9.375 10.6172 9.375 9.375C9.375 8.13281 10.3828 7.125 11.625 7.125C12.8672 7.125 13.875 8.13281 13.875 9.375C13.875 10.6172 12.8672 11.625 11.625 11.625ZM11.625 0.375C5.20312 0.375 0 5.57812 0 12C0 18.4219 5.20312 23.625 11.625 23.625C18.0469 23.625 23.25 18.4219 23.25 12C23.25 5.57812 18.0469 0.375 11.625 0.375ZM11.625 21.375C9.29531 21.375 7.16719 20.5172 5.52656 19.1063C6.225 18.0281 7.42031 17.2969 8.78906 17.2547C9.76406 17.5547 10.6922 17.7047 11.625 17.7047C12.5578 17.7047 13.4859 17.5594 14.4609 17.2547C15.8297 17.3016 17.025 18.0281 17.7234 19.1063C16.0828 20.5172 13.9547 21.375 11.625 21.375ZM19.2516 17.4328C18.1078 15.9609 16.3406 15 14.325 15C13.8469 15 13.1062 15.45 11.625 15.45C10.1484 15.45 9.40312 15 8.925 15C6.91406 15 5.14688 15.9609 3.99844 17.4328C2.90156 15.9 2.25 14.025 2.25 12C2.25 6.82969 6.45469 2.625 11.625 2.625C16.7953 2.625 21 6.82969 21 12C21 14.025 20.3484 15.9 19.2516 17.4328Z" fill="#325D9C"/>
</g>
<defs>
<clipPath id="clip0_1489_18056">
<rect width="23.25" height="24" fill="white"/>
</clipPath>
</defs>
</svg>
