<svg width="32" height="32" viewBox="0 0 32 32" fill="none" xmlns="http://www.w3.org/2000/svg">
<g id="professional 1">
<path id="Vector" fill-rule="evenodd" clip-rule="evenodd" d="M13.3527 1C6.5305 1 1 6.5305 1 13.3527C1 20.1749 6.5305 25.7054 13.3527 25.7054C14.8212 25.7054 16.2296 25.4486 17.5361 24.9783C17.3717 24.7214 17.2963 24.4352 17.2528 24.1263C17.2401 24.0362 17.2289 23.8746 17.2052 23.7719C17.1264 23.699 16.9919 23.6091 16.9181 23.5512C16.6199 23.3174 16.3748 23.0578 16.243 22.6943C16.1109 22.33 16.1356 21.9756 16.2153 21.6051C16.2343 21.5168 16.2801 21.3581 16.2918 21.2549C16.2521 21.1761 16.1746 21.0683 16.1339 21.005C15.9675 20.7456 15.8314 20.4908 15.7771 20.1825C15.7457 20.0047 15.7476 19.8324 15.7757 19.6654H6.67256C6.67256 15.9761 9.66338 12.9853 13.3527 12.9853C15.0256 12.9853 16.5545 13.6005 17.7263 14.6167C17.9631 14.371 18.2555 14.2314 18.5814 14.1251C18.6686 14.0966 18.8256 14.0576 18.9232 14.0162C18.981 13.9263 19.0462 13.7782 19.0899 13.6961C19.2679 13.3618 19.4798 13.075 19.8148 12.8816C20.1498 12.6881 20.5037 12.65 20.8818 12.6631C20.9731 12.6662 21.1338 12.6832 21.2397 12.6777C21.3253 12.6123 21.4363 12.4963 21.5064 12.4335C21.7882 12.1811 22.0865 11.9854 22.4665 11.9184C22.8465 11.8514 23.1938 11.9332 23.5448 12.0741C23.6322 12.1091 23.7763 12.1801 23.8791 12.2124C23.9805 12.1813 24.1256 12.1104 24.2104 12.0761C24.5613 11.9346 24.9068 11.8493 25.2878 11.9166C25.4111 11.9383 25.5256 11.9737 25.6337 12.0201C24.969 5.82469 19.7246 1 13.3527 1ZM22.3362 27.8892L20.8879 31L19.6408 28.8539L17.1956 29.2811L18.8244 25.7827C18.8611 25.7944 18.896 25.8066 18.9256 25.819C18.9833 25.9082 19.0487 26.056 19.092 26.1373C19.2698 26.4712 19.4808 26.7578 19.8154 26.9512C20.1501 27.1446 20.5037 27.1839 20.8818 27.1712C20.9734 27.1682 21.1343 27.1511 21.2402 27.1566C21.3253 27.2213 21.4371 27.3381 21.5063 27.4004C21.7551 27.6242 22.0161 27.804 22.3362 27.8892ZM29.2856 25.6706L30.5584 28.6256L28.1267 28.1276L26.8179 30.2367L25.7501 27.7575C25.9284 27.6646 26.0905 27.5416 26.2474 27.4011C26.3175 27.3382 26.4286 27.2222 26.5142 27.1567C26.6201 27.1512 26.7808 27.1683 26.8721 27.1714C27.2502 27.1845 27.6041 27.1464 27.9391 26.9529C28.2739 26.7595 28.486 26.4727 28.6639 26.1384C28.7076 26.0562 28.7728 25.9082 28.8306 25.8183C28.9281 25.7769 29.0852 25.7379 29.1724 25.7094C29.2107 25.697 29.2484 25.684 29.2856 25.6706ZM30.9921 19.8256C31.0696 20.2652 30.5487 20.6488 30.4726 21.0802C30.4008 21.4868 30.7044 21.9873 30.5708 22.3537C30.4363 22.7222 29.8796 22.912 29.6756 23.2649C29.4711 23.6188 29.5843 24.1958 29.3331 24.4955C29.0826 24.7944 28.4949 24.7838 28.1812 25.0474C27.8701 25.309 27.7806 25.8897 27.4391 26.087C27.1045 26.2803 26.553 26.0702 26.1678 26.2099C25.7894 26.3471 25.5064 26.8621 25.1138 26.9313C24.7211 27.0006 24.2791 26.6134 23.8766 26.6139C23.4668 26.6143 23.0204 27.0004 22.6399 26.9332C22.2516 26.8646 21.9688 26.3496 21.5869 26.2101C21.2021 26.0696 20.6534 26.2806 20.3158 26.0854C19.9769 25.8896 19.8861 25.3088 19.5729 25.0462C19.2605 24.7843 18.6728 24.7966 18.4202 24.4961C18.1694 24.1978 18.2832 23.6229 18.0769 23.2659C17.8744 22.9154 17.3182 22.7259 17.1832 22.3536C17.0513 21.9897 17.3558 21.4914 17.2833 21.0799C17.2165 20.7013 16.8243 20.3627 16.7619 20.0089C16.6843 19.5689 17.2052 19.1859 17.2814 18.7542C17.3531 18.3481 17.0496 17.8469 17.1832 17.4808C17.3178 17.1121 17.8745 16.9223 18.0784 16.5696C18.2828 16.2159 18.1696 15.6388 18.4209 15.339C18.6714 15.0401 19.2593 15.0507 19.5728 14.7871C19.8839 14.5254 19.9737 13.9446 20.3149 13.7475C20.6496 13.5543 21.201 13.7642 21.5863 13.6246C21.9648 13.4873 22.2476 12.9724 22.6403 12.9032C23.033 12.8339 23.4749 13.2211 23.8774 13.2206C24.2871 13.2202 24.7336 12.8342 25.1141 12.9013C25.5024 12.9698 25.7855 13.4851 26.1671 13.6244C26.552 13.7649 27.1007 13.5539 27.4383 13.7491C27.7771 13.9449 27.868 14.5259 28.1811 14.7882C28.4934 15.0501 29.0814 15.0379 29.3339 15.3384C29.5848 15.6369 29.4708 16.2113 29.6771 16.5686C29.8794 16.9189 30.4358 17.1086 30.5709 17.481C30.7029 17.8448 30.3982 18.3431 30.4708 18.7547C30.5374 19.1332 30.9298 19.4718 30.9921 19.8256ZM23.877 14.5631C25.3554 14.5631 26.694 15.1624 27.6629 16.1313C28.6319 17.1003 29.2312 18.4388 29.2312 19.9172C29.2312 21.3958 28.6319 22.7343 27.6629 23.7032C26.694 24.6721 25.3555 25.2714 23.877 25.2714C22.3986 25.2714 21.06 24.6721 20.0911 23.7032C19.1222 22.7343 18.5228 21.3957 18.5228 19.9172C18.5228 18.4388 19.1221 17.1003 20.0911 16.1313C21.06 15.1624 22.3986 14.5631 23.877 14.5631ZM26.9559 16.8383C27.7439 17.6262 28.2312 18.7148 28.2312 19.9172C28.2312 21.1196 27.7438 22.2082 26.9559 22.9961C26.168 23.7841 25.0794 24.2714 23.8771 24.2714C22.6747 24.2714 21.5861 23.7841 20.7982 22.9961C20.0103 22.2082 19.5229 21.1196 19.5229 19.9172C19.5229 18.7148 20.0103 17.6262 20.7982 16.8383C21.5861 16.0504 22.6747 15.5631 23.8771 15.5631C25.0794 15.5631 26.168 16.0504 26.9559 16.8383ZM23.877 16.7011L24.7004 18.716L26.8712 18.8764L25.2093 20.2822L25.7276 22.3963L23.8771 21.2502L22.0266 22.3963L22.5448 20.2822L20.8829 18.8764L23.0537 18.716L23.877 16.7011ZM13.3528 5.60544C15.2181 5.60544 16.7302 7.11756 16.7302 8.98287C16.7302 10.8482 15.2181 12.3603 13.3528 12.3603C11.4874 12.3603 9.97531 10.8482 9.97531 8.98287C9.97531 7.11756 11.4874 5.60544 13.3528 5.60544Z" fill="#325D9C"/>
</g>
</svg>
