<svg width="32" height="32" viewBox="0 0 32 32" fill="none" xmlns="http://www.w3.org/2000/svg">
<g id="seven (1) 1" clip-path="url(#clip0_324_3692)">
<g id="Group">
<path id="Vector" d="M4.22119 0H6.56301V3.70113H4.22119V0Z" fill="#325D9C"/>
<path id="Vector_2" d="M30.8226 2.78809H29.6495V5.57609H23.5577V2.78809H19.0458V5.57609H12.954V2.78809H8.43787V5.57609H2.3461V2.78809H1.17722C0.531599 2.78809 0.00634766 3.31334 0.00634766 3.95896V32H31.9935V3.95903C31.9935 3.3134 31.4682 2.78809 30.8226 2.78809ZM29.6517 29.6582H2.34816V7.91797H29.6517V29.6582Z" fill="#325D9C"/>
<path id="Vector_3" d="M27.7766 9.79297H4.22314V27.7832H27.7766V9.79297ZM19.5694 14.6022L15.2779 23.963L13.5734 23.1816L17.3512 14.9413H13.368V13.0663H19.5694V14.6022H19.5694Z" fill="#325D9C"/>
<path id="Vector_4" d="M14.8291 0H17.1709V3.70113H14.8291V0Z" fill="#325D9C"/>
<path id="Vector_5" d="M25.4326 0H27.7744V3.70113H25.4326V0Z" fill="#325D9C"/>
</g>
</g>
<defs>
<clipPath id="clip0_324_3692">
<rect width="32" height="32" fill="white"/>
</clipPath>
</defs>
</svg>
