<svg width="32" height="32" viewBox="0 0 32 32" fill="none" xmlns="http://www.w3.org/2000/svg">
<g id="academic 1">
<path id="Vector" fill-rule="evenodd" clip-rule="evenodd" d="M11.1401 21.3222H30.6159V22.6489H18.4947C18.2186 22.6489 17.9947 22.8727 17.9947 23.1489C17.9947 23.425 18.2186 23.6489 18.4947 23.6489H30.6159V24.3085H14.6826C14.4064 24.3085 14.1826 24.5324 14.1826 24.8085C14.1826 25.0847 14.4064 25.3085 14.6826 25.3085H30.6159V26.6352H11.1401C10.3118 26.6352 9.63406 25.9575 9.63406 25.1292V22.8282C9.63413 21.9999 10.3118 21.3222 11.1401 21.3222ZM3.37394 15.2539L10.6531 20.3698C10.8107 20.3385 10.9736 20.3222 11.1401 20.3222H29.0642L24.1543 17.158C23.3823 17.3069 22.6102 17.4549 21.837 17.5954C20.8664 17.7717 19.8865 17.9327 18.8974 17.9327C17.9083 17.9327 16.9283 17.7717 15.9578 17.5954C13.9862 17.2372 12.021 16.8422 10.0491 16.4817V15.2539H3.37394ZM1 16.76C1 16.1656 1.34894 15.6488 1.852 15.4043L9.60256 20.8515C9.01381 21.3108 8.63406 22.0266 8.63406 22.8282C8.63406 23.6078 8.62006 24.3999 8.6345 25.1779L1.33225 19.927C1.06637 19.7359 1 19.3925 1 19.061V16.76ZM30.1806 12.78L31 13.253V16.6252L29.6807 15.633L28.3613 16.6252V13.253L29.1806 12.78V8.7313L18.8974 11.4629L7.41969 8.41405L18.8974 5.36523L30.375 8.41411L30.1806 8.46573V12.78ZM26.7456 10.4128V15.6479C17.3776 17.3609 20.4171 17.3609 11.0491 15.6479V10.4128L18.8974 12.4975L26.7456 10.4128Z" fill="#325D9C"/>
</g>
</svg>
