<svg width="32" height="32" viewBox="0 0 32 32" fill="none" xmlns="http://www.w3.org/2000/svg">
<g id="document (2) 1" clip-path="url(#clip0_324_3638)">
<path id="Vector" d="M9.15097 4.55575H5.27497L9.15091 0.679812L9.15097 4.55575ZM4.11453 25.6344C2.53566 25.226 1.25547 24.1318 0.660156 22.6806V18.2944C1.96328 18.0955 3.27116 17.4232 4.11453 16.5286C4.95791 17.4232 6.26578 18.0955 7.56891 18.2944V22.6806C6.97359 24.1318 5.69372 25.226 4.11453 25.6344ZM4.22497 22.6524L6.63803 20.2243C6.72625 20.1335 6.77513 20.0116 6.77404 19.8851C6.77296 19.7585 6.722 19.6375 6.63224 19.5483C6.54247 19.459 6.42114 19.4088 6.29458 19.4085C6.16801 19.4082 6.04643 19.4578 5.95622 19.5466L3.88284 21.6327L2.96409 20.7143C2.87325 20.6278 2.75221 20.5802 2.6268 20.5818C2.50139 20.5833 2.38155 20.6338 2.29287 20.7225C2.20418 20.8112 2.15368 20.931 2.15213 21.0565C2.15058 21.1819 2.19812 21.3029 2.28459 21.3938L3.54372 22.6534C3.58836 22.6981 3.64135 22.7335 3.69968 22.7577C3.75801 22.7818 3.82052 22.7943 3.88366 22.7943C3.94696 22.7942 4.01038 22.7816 4.06882 22.7572C4.12726 22.7329 4.18032 22.6973 4.22497 22.6524ZM28.597 29.2572H4.59522V26.4979C6.39153 25.9573 7.83447 24.6523 8.49759 22.9473C8.51918 22.8917 8.53026 22.8326 8.53028 22.773V21.0403H24.7346C24.8621 21.0403 24.9843 20.9897 25.0745 20.8995C25.1646 20.8094 25.2153 20.6871 25.2153 20.5596C25.2153 20.4321 25.1646 20.3099 25.0745 20.2197C24.9843 20.1296 24.8621 20.0789 24.7346 20.0789H8.53028V17.8643C8.53028 17.7424 8.48394 17.625 8.40065 17.5359C8.31735 17.4469 8.20332 17.3928 8.08166 17.3847C6.73791 17.2948 5.32884 16.5733 4.59522 15.6128V5.51713H9.63166C9.75914 5.51713 9.88141 5.46648 9.97155 5.37633C10.0617 5.28619 10.1123 5.16392 10.1123 5.03644V0H28.597V29.2572ZM25.2153 24.225C25.2153 24.0975 25.1646 23.9753 25.0745 23.8851C24.9843 23.795 24.8621 23.7443 24.7346 23.7443H8.45759C8.33011 23.7443 8.20784 23.795 8.1177 23.8851C8.02755 23.9753 7.97691 24.0975 7.97691 24.225C7.97691 24.3525 8.02755 24.4748 8.1177 24.5649C8.20784 24.655 8.33011 24.7057 8.45759 24.7057H24.7346C24.8621 24.7057 24.9843 24.655 25.0745 24.5649C25.1646 24.4748 25.2153 24.3525 25.2153 24.225ZM15.0028 5.88188C15.0028 6.00936 15.0535 6.13163 15.1436 6.22177C15.2338 6.31192 15.356 6.36256 15.4835 6.36256H19.6536C19.7811 6.36256 19.9033 6.31192 19.9935 6.22177C20.0836 6.13163 20.1343 6.00936 20.1343 5.88188C20.1343 5.75439 20.0836 5.63212 19.9935 5.54198C19.9033 5.45183 19.7811 5.40119 19.6536 5.40119H15.4835C15.356 5.40119 15.2338 5.45183 15.1436 5.54198C15.0535 5.63212 15.0028 5.75439 15.0028 5.88188ZM15.0028 7.81681C15.0028 7.9443 15.0535 8.06656 15.1436 8.15671C15.2338 8.24686 15.356 8.2975 15.4835 8.2975H22.0858C22.2133 8.2975 22.3356 8.24686 22.4257 8.15671C22.5159 8.06656 22.5665 7.9443 22.5665 7.81681C22.5665 7.68933 22.5159 7.56706 22.4257 7.47691C22.3356 7.38677 22.2133 7.33613 22.0858 7.33613H15.4835C15.356 7.33613 15.2338 7.38677 15.1436 7.47691C15.0535 7.56706 15.0028 7.68933 15.0028 7.81681ZM25.2153 16.8938C25.2153 16.7663 25.1646 16.644 25.0745 16.5539C24.9843 16.4637 24.8621 16.4131 24.7346 16.4131H8.45759C8.33011 16.4131 8.20784 16.4637 8.1177 16.5539C8.02755 16.644 7.97691 16.7663 7.97691 16.8938C7.97691 17.0212 8.02755 17.1435 8.1177 17.2336C8.20784 17.3238 8.33011 17.3744 8.45759 17.3744H24.7346C24.862 17.3744 24.9842 17.3239 25.0743 17.2338C25.1645 17.1438 25.2152 17.0212 25.2153 16.8938ZM25.2153 13.2283C25.2153 13.1008 25.1646 12.9785 25.0745 12.8884C24.9843 12.7982 24.8621 12.7476 24.7346 12.7476H8.45759C8.33011 12.7476 8.20784 12.7982 8.1177 12.8884C8.02755 12.9785 7.97691 13.1008 7.97691 13.2283C7.97691 13.3557 8.02755 13.478 8.1177 13.5681C8.20784 13.6583 8.33011 13.7089 8.45759 13.7089H24.7346C24.862 13.7089 24.9842 13.6584 25.0743 13.5683C25.1645 13.4782 25.2152 13.3557 25.2153 13.2283ZM29.5584 2.74237V29.7379C29.5584 29.8654 29.5078 29.9876 29.4176 30.0778C29.3275 30.1679 29.2052 30.2186 29.0777 30.2186H7.33803V32H31.3398V2.74281L29.5584 2.74237Z" fill="#325D9C"/>
</g>
<defs>
<clipPath id="clip0_324_3638">
<rect width="32" height="32" fill="white"/>
</clipPath>
</defs>
</svg>
