<svg width="32" height="32" viewBox="0 0 32 32" fill="none" xmlns="http://www.w3.org/2000/svg">
<g id="papers 1" clip-path="url(#clip0_324_3630)">
<path id="Vector" d="M22.3999 26.1335V3.73353C22.3999 3.59208 22.3437 3.45642 22.2437 3.35641C22.1437 3.25639 22.0081 3.2002 21.8666 3.2002H8.53327V5.86686H9.59994V4.8002C9.59994 4.65875 9.65613 4.52309 9.75614 4.42307C9.85616 4.32305 9.99182 4.26686 10.1333 4.26686C10.2747 4.26686 10.4104 4.32305 10.5104 4.42307C10.6104 4.52309 10.6666 4.65875 10.6666 4.8002V5.86686C10.6666 6.14976 10.5542 6.42107 10.3542 6.62111C10.1541 6.82115 9.88283 6.93353 9.59994 6.93353H8.53327C8.25037 6.93353 7.97906 6.82115 7.77902 6.62111C7.57898 6.42107 7.4666 6.14976 7.4666 5.86686V3.2002H4.79993C4.65849 3.2002 4.52283 3.25639 4.42281 3.35641C4.32279 3.45642 4.2666 3.59208 4.2666 3.73353V26.1335C4.2666 26.275 4.32279 26.4106 4.42281 26.5107C4.52283 26.6107 4.65849 26.6669 4.79993 26.6669H21.8666C22.0081 26.6669 22.1437 26.6107 22.2437 26.5107C22.3437 26.4106 22.3999 26.275 22.3999 26.1335ZM19.1999 21.3335H7.4666C7.32515 21.3335 7.1895 21.2773 7.08948 21.1773C6.98946 21.0773 6.93327 20.9416 6.93327 20.8002C6.93327 20.6587 6.98946 20.5231 7.08948 20.4231C7.1895 20.3231 7.32515 20.2669 7.4666 20.2669H19.1999C19.3414 20.2669 19.477 20.3231 19.5771 20.4231C19.6771 20.5231 19.7333 20.6587 19.7333 20.8002C19.7333 20.9416 19.6771 21.0773 19.5771 21.1773C19.477 21.2773 19.3414 21.3335 19.1999 21.3335ZM19.1999 18.6669H7.4666C7.32515 18.6669 7.1895 18.6107 7.08948 18.5107C6.98946 18.4106 6.93327 18.275 6.93327 18.1335C6.93327 17.9921 6.98946 17.8564 7.08948 17.7564C7.1895 17.6564 7.32515 17.6002 7.4666 17.6002H19.1999C19.3414 17.6002 19.477 17.6564 19.5771 17.7564C19.6771 17.8564 19.7333 17.9921 19.7333 18.1335C19.7333 18.275 19.6771 18.4106 19.5771 18.5107C19.477 18.6107 19.3414 18.6669 19.1999 18.6669ZM19.1999 16.0002H7.4666C7.32515 16.0002 7.1895 15.944 7.08948 15.844C6.98946 15.744 6.93327 15.6083 6.93327 15.4669C6.93327 15.3254 6.98946 15.1898 7.08948 15.0897C7.1895 14.9897 7.32515 14.9335 7.4666 14.9335H19.1999C19.3414 14.9335 19.477 14.9897 19.5771 15.0897C19.6771 15.1898 19.7333 15.3254 19.7333 15.4669C19.7333 15.6083 19.6771 15.744 19.5771 15.844C19.477 15.944 19.3414 16.0002 19.1999 16.0002ZM19.1999 13.3335H7.4666C7.32515 13.3335 7.1895 13.2773 7.08948 13.1773C6.98946 13.0773 6.93327 12.9416 6.93327 12.8002C6.93327 12.6587 6.98946 12.5231 7.08948 12.4231C7.1895 12.3231 7.32515 12.2669 7.4666 12.2669H19.1999C19.3414 12.2669 19.477 12.3231 19.5771 12.4231C19.6771 12.5231 19.7333 12.6587 19.7333 12.8002C19.7333 12.9416 19.6771 13.0773 19.5771 13.1773C19.477 13.2773 19.3414 13.3335 19.1999 13.3335ZM19.1999 10.6669H7.4666C7.32515 10.6669 7.1895 10.6107 7.08948 10.5107C6.98946 10.4106 6.93327 10.275 6.93327 10.1335C6.93327 9.99208 6.98946 9.85642 7.08948 9.7564C7.1895 9.65639 7.32515 9.6002 7.4666 9.6002H19.1999C19.3414 9.6002 19.477 9.65639 19.5771 9.7564C19.6771 9.85642 19.7333 9.99208 19.7333 10.1335C19.7333 10.275 19.6771 10.4106 19.5771 10.5107C19.477 10.6107 19.3414 10.6669 19.1999 10.6669Z" fill="#325D9C"/>
<path id="Vector_2" d="M24.5332 28.2663V5.86634C24.5332 5.72489 24.477 5.58924 24.377 5.48922C24.277 5.3892 24.1414 5.33301 23.9999 5.33301H23.4666V26.133C23.4666 26.5574 23.298 26.9643 22.9979 27.2644C22.6979 27.5644 22.2909 27.733 21.8666 27.733H6.3999V28.2663C6.3999 28.4078 6.45609 28.5434 6.55611 28.6435C6.65613 28.7435 6.79179 28.7997 6.93324 28.7997H23.9999C24.1414 28.7997 24.277 28.7435 24.377 28.6435C24.477 28.5434 24.5332 28.4078 24.5332 28.2663Z" fill="#325D9C"/>
<path id="Vector_3" d="M26.1334 7.4668H25.6001V28.2668C25.6001 28.6911 25.4315 29.0981 25.1315 29.3982C24.8314 29.6982 24.4245 29.8668 24.0001 29.8668H8.53345V30.4001C8.53345 30.5416 8.58964 30.6772 8.68966 30.7773C8.78968 30.8773 8.92533 30.9335 9.06678 30.9335H26.1334C26.2749 30.9335 26.4106 30.8773 26.5106 30.7773C26.6106 30.6772 26.6668 30.5416 26.6668 30.4001V8.00013C26.6668 7.85868 26.6106 7.72303 26.5106 7.62301C26.4106 7.52299 26.2749 7.4668 26.1334 7.4668Z" fill="#325D9C"/>
<path id="Vector_4" d="M12.2666 1.06667V2.13333H11.1999V1.06667H8.53322V2.13333H7.46655V1.06667C7.4674 0.784029 7.58005 0.513208 7.7799 0.313352C7.97976 0.113496 8.25058 0.000844121 8.53322 0L11.1999 0C11.4825 0.000844121 11.7533 0.113496 11.9532 0.313352C12.1531 0.513208 12.2657 0.784029 12.2666 1.06667Z" fill="#325D9C"/>
</g>
<defs>
<clipPath id="clip0_324_3630">
<rect width="32" height="32" fill="white"/>
</clipPath>
</defs>
</svg>
