<svg width="32" height="32" viewBox="0 0 32 32" fill="none" xmlns="http://www.w3.org/2000/svg">
<g id="online-support 1" clip-path="url(#clip0_324_3607)">
<g id="Group">
<g id="Group_2">
<g id="Group_3">
<path id="Vector" d="M23.9516 24.436V26.6663C23.9516 26.9087 23.7577 27.1511 23.4668 27.1511H19.4426C19.3456 26.4723 19.7819 24.3875 18.5698 22.0117H20.6547L21.188 23.9511H23.5153C23.7577 23.9511 23.9516 24.1451 23.9516 24.436Z" fill="#325D9C"/>
</g>
</g>
<g id="Group_4">
<g id="Group_5">
<g id="Group_6">
<path id="Vector_2" d="M29.9636 0.678711H6.20606C5.33333 0.678711 4.65454 1.40598 4.65454 2.23023V3.49083C4.94545 3.24841 5.28484 3.05447 5.62424 2.86053V2.23023C5.62424 1.89083 5.91515 1.64841 6.20606 1.64841H29.9636C30.303 1.64841 30.5455 1.89083 30.5455 2.23023V15.8545H15.4182C14.6424 16.0484 13.8667 16.1939 13.1394 16.1939L12.897 16.4363C12.4606 16.9211 11.9758 17.309 11.4909 17.5999C14.1576 17.6484 16.5333 18.9575 17.9879 21.0423H29.9636C30.8364 21.0423 31.5151 20.3151 31.5151 19.4908V2.23023C31.5151 1.3575 30.7879 0.678711 29.9636 0.678711ZM18.0848 19.3454C17.6 19.3454 17.2121 18.9575 17.2121 18.4726C17.2121 17.9878 17.6 17.5999 18.0848 17.5999C18.5697 17.5999 18.9576 17.9878 18.9576 18.4726C18.9576 18.9575 18.5697 19.3454 18.0848 19.3454Z" fill="#325D9C"/>
</g>
</g>
<g id="Group_7">
<g id="Group_8">
<path id="Vector_3" d="M13.5758 13.6244C13.6243 13.479 13.6728 13.382 13.7213 13.2366C15.0304 13.0426 15.2728 10.2305 14.1577 9.45475C13.7213 6.88505 11.7334 4.99414 9.45463 4.99414C7.12736 4.99414 5.18796 6.88505 4.7516 9.45475C3.63645 10.2305 3.87887 12.9941 5.18796 13.2366C5.96372 15.2729 7.56372 17.2608 9.45463 17.2608C10.5213 17.2608 11.394 16.679 12.1698 15.8547C11.4425 15.7578 10.7637 15.5638 10.2304 15.2244C9.98796 15.3214 9.74554 15.3699 9.50311 15.3699C8.38796 15.3699 7.41826 14.4487 7.41826 13.285C7.41826 12.1214 8.33948 11.2002 9.50311 11.2002C10.6667 11.2002 11.588 12.1214 11.588 13.285V13.4305C12.1698 13.6729 12.9455 13.7214 13.5758 13.6244Z" fill="#325D9C"/>
</g>
<g id="Group_9">
<path id="Vector_4" d="M11.394 18.5703H7.61214C3.68486 18.5703 0.484863 21.7703 0.484863 25.6976V29.0915C0.484863 29.2855 0.630318 29.4794 0.775772 29.5279C6.35153 31.8552 12.2182 32.0491 18.1818 29.5279C18.3758 29.4309 18.4727 29.2855 18.4727 29.0915V25.6976C18.4727 21.7703 15.3212 18.5703 11.394 18.5703Z" fill="#325D9C"/>
</g>
<g id="Group_10">
<path id="Vector_5" d="M2.37579 14.4004H2.42427C3.20003 14.4004 3.83033 13.7701 3.83033 12.9943V11.4913C3.83033 10.861 3.44245 10.3761 2.90912 10.1822C3.297 6.59432 6.06064 3.83068 9.45457 3.83068C12.8485 3.83068 15.6606 6.54583 16 10.1337C15.4667 10.3277 15.0788 10.861 15.0788 11.4428V12.9458C15.0788 13.0913 15.0788 13.1883 15.1273 13.2852C15.1758 13.4792 15.2728 13.6731 15.3697 13.8186C14.2061 14.2064 12.2667 14.6428 10.8606 13.7216C10.9091 13.5761 10.9576 13.4307 10.9576 13.2852C10.9576 12.5095 10.3273 11.8307 9.50306 11.8307C8.7273 11.8307 8.04851 12.5095 8.04851 13.2852C8.04851 14.1095 8.7273 14.7398 9.50306 14.7398C9.79397 14.7398 10.0364 14.6428 10.2788 14.4973C12.0243 15.7095 14.7394 15.2731 16.6303 14.3519C17.4061 14.3034 17.9879 13.7216 17.9879 12.9458V11.4428C17.9879 10.8125 17.5515 10.2792 16.9697 10.0852C16.5818 5.96401 13.3334 2.8125 9.45457 2.8125C5.57579 2.8125 2.3273 5.96401 1.93942 10.0852C1.40609 10.2792 0.969727 10.8125 0.969727 11.4913V12.9943C0.969727 13.7701 1.60003 14.4004 2.37579 14.4004Z" fill="#325D9C"/>
</g>
</g>
</g>
<g id="Group_11">
<g id="Group_12">
<path id="Vector_6" d="M28.218 12.1694C28.218 12.4118 28.0241 12.6543 27.7332 12.6543H22.4968C22.2544 12.6543 22.012 12.4118 22.012 12.1694C22.012 11.927 22.2544 11.6846 22.4968 11.6846H27.7332C28.0241 11.6846 28.218 11.8785 28.218 12.1694Z" fill="#325D9C"/>
</g>
<g id="Group_13">
<path id="Vector_7" d="M27.7333 5.62399H19.9272C19.6363 5.62399 19.4424 5.43005 19.4424 5.13915C19.4424 4.84824 19.6363 4.6543 19.9272 4.6543H27.7818C28.0727 4.6543 28.2666 4.84824 28.2666 5.13915C28.2181 5.38157 28.0242 5.62399 27.7333 5.62399Z" fill="#325D9C"/>
</g>
<g id="Group_14">
<path id="Vector_8" d="M28.218 8.63036C28.218 8.92127 28.0241 9.1152 27.7332 9.1152H21.6726C21.3817 9.1152 21.1877 8.92127 21.1877 8.63036C21.1877 8.33945 21.3817 8.14551 21.6726 8.14551H27.7332C28.0241 8.14551 28.218 8.38793 28.218 8.63036Z" fill="#325D9C"/>
</g>
</g>
</g>
</g>
<defs>
<clipPath id="clip0_324_3607">
<rect width="32" height="32" fill="white"/>
</clipPath>
</defs>
</svg>
