<svg width="308" height="390" viewBox="0 0 308 390" fill="none" xmlns="http://www.w3.org/2000/svg">
<g clip-path="url(#clip0_308_2182)">
<path d="M260.338 22.9478C259.861 22.9478 259.403 22.758 259.066 22.4201C258.728 22.0823 258.538 21.624 258.538 21.1462C258.538 11.4817 252.854 3.61044 245.867 3.61044C245.625 3.62005 245.384 3.5806 245.157 3.49446C244.93 3.40832 244.724 3.27726 244.549 3.10915C244.374 2.94103 244.235 2.73932 244.14 2.51612C244.045 2.29291 243.996 2.05281 243.996 1.81021C243.996 1.5676 244.045 1.32749 244.14 1.10428C244.235 0.881078 244.374 0.67937 244.549 0.511255C244.724 0.343139 244.93 0.212079 245.157 0.125939C245.384 0.0397995 245.625 0.000348612 245.867 0.00995908C254.837 0.00995908 262.138 9.49056 262.138 21.1405C262.139 21.3776 262.093 21.6125 262.002 21.8317C261.912 22.0509 261.78 22.2502 261.613 22.4181C261.445 22.586 261.247 22.7192 261.028 22.8101C260.809 22.901 260.575 22.9478 260.338 22.9478Z" fill="#445664"/>
<path d="M213.753 22.9478C213.276 22.9471 212.819 22.7569 212.482 22.4191C212.145 22.0813 211.956 21.6235 211.956 21.1462C211.956 11.4817 206.272 3.61044 199.285 3.61044C199.043 3.62005 198.801 3.5806 198.575 3.49446C198.348 3.40832 198.141 3.27726 197.967 3.10915C197.792 2.94103 197.653 2.73932 197.558 2.51612C197.463 2.29291 197.414 2.05281 197.414 1.81021C197.414 1.5676 197.463 1.32749 197.558 1.10428C197.653 0.881078 197.792 0.67937 197.967 0.511255C198.141 0.343139 198.348 0.212079 198.575 0.125939C198.801 0.0397995 199.043 0.000348612 199.285 0.00995908C208.255 0.00995908 215.553 9.49056 215.553 21.1405C215.553 21.3776 215.507 21.6125 215.417 21.8317C215.327 22.0509 215.195 22.2502 215.028 22.4181C214.86 22.586 214.662 22.7192 214.443 22.8101C214.224 22.901 213.99 22.9478 213.753 22.9478Z" fill="#445664"/>
<path d="M167.171 22.9478C166.694 22.9478 166.236 22.758 165.898 22.4201C165.561 22.0823 165.371 21.624 165.371 21.1462C165.371 11.4817 159.687 3.61044 152.7 3.61044C152.458 3.62005 152.216 3.5806 151.99 3.49446C151.763 3.40832 151.556 3.27726 151.382 3.10915C151.207 2.94103 151.068 2.73932 150.973 2.51612C150.878 2.29291 150.829 2.05281 150.829 1.81021C150.829 1.5676 150.878 1.32749 150.973 1.10428C151.068 0.881078 151.207 0.67937 151.382 0.511255C151.556 0.343139 151.763 0.212079 151.99 0.125939C152.216 0.0397995 152.458 0.000348612 152.7 0.00995908C161.67 0.00995908 168.968 9.49056 168.968 21.1405C168.968 21.3773 168.923 21.612 168.833 21.8311C168.743 22.0501 168.61 22.2493 168.444 22.4171C168.277 22.585 168.078 22.7183 167.86 22.8093C167.642 22.9004 167.407 22.9475 167.171 22.9478Z" fill="#445664"/>
<path d="M120.586 22.9479C120.109 22.9471 119.652 22.757 119.315 22.4192C118.978 22.0814 118.789 21.6236 118.789 21.1462C118.789 11.4818 113.104 3.61049 106.115 3.61049C105.65 3.59205 105.211 3.39432 104.889 3.05872C104.566 2.72313 104.386 2.27573 104.386 1.81026C104.386 1.34478 104.566 0.897376 104.889 0.561782C105.211 0.226188 105.65 0.0284488 106.115 0.0100098C115.088 0.0100098 122.385 9.49061 122.385 21.1406C122.386 21.3776 122.34 21.6125 122.25 21.8318C122.16 22.051 122.027 22.2503 121.86 22.4182C121.693 22.5861 121.494 22.7193 121.276 22.8102C121.057 22.9011 120.822 22.9479 120.586 22.9479Z" fill="#445664"/>
<path d="M275.32 21.1321H69V313.071H275.32V21.1321Z" fill="white"/>
<path d="M297.49 21.1321H275.32V313.071H297.49V21.1321Z" fill="#BBD1DC"/>
<path d="M268.958 26.5935H75.3623V71.6349H268.958V26.5935Z" fill="#BBD1DC"/>
<path d="M228.218 77.9648L75.3623 156.542V77.9648H228.218Z" fill="#F3F8FF"/>
<path d="M268.958 77.9648V88.2204L75.3623 187.741V170.607L255.575 77.9648H268.958Z" fill="#F3F8FF"/>
<path d="M268.958 138.751V167.009L75.3623 266.528V238.272L268.958 138.751Z" fill="#F3F8FF"/>
<path d="M268.958 180.86V246.274L152.593 306.093H75.3623V280.381L268.958 180.86Z" fill="#F3F8FF"/>
<path d="M202.155 306.093L268.958 271.751V306.093H202.155Z" fill="#F3F8FF"/>
<path d="M305.779 283.942C305.703 283.941 305.629 283.912 305.574 283.859C305.518 283.807 305.484 283.735 305.479 283.659L286.85 21.4319H275.315C275.235 21.4319 275.159 21.4003 275.103 21.3441C275.047 21.2879 275.015 21.2116 275.015 21.1321C275.015 21.0526 275.047 20.9763 275.103 20.9201C275.159 20.8639 275.235 20.8323 275.315 20.8323H287.133C287.209 20.8322 287.283 20.8614 287.339 20.914C287.394 20.9666 287.428 21.0386 287.432 21.1151L306.078 283.622C306.082 283.662 306.077 283.702 306.064 283.74C306.051 283.778 306.031 283.813 306.005 283.843C305.979 283.873 305.947 283.897 305.911 283.915C305.875 283.932 305.836 283.942 305.796 283.945L305.779 283.942Z" fill="#002E5D"/>
<path d="M105.719 44.7374C107.74 44.7374 109.378 42.8241 109.378 40.4638C109.378 38.1035 107.74 36.1902 105.719 36.1902C103.699 36.1902 102.061 38.1035 102.061 40.4638C102.061 42.8241 103.699 44.7374 105.719 44.7374Z" fill="#445664"/>
<path d="M106.115 42.2653C97.1447 42.2653 89.8472 32.7847 89.8472 21.132C89.8472 9.47919 97.1447 0.00141416 106.115 0.00141416C106.357 -0.00819631 106.599 0.0312546 106.825 0.117395C107.052 0.203534 107.258 0.334594 107.433 0.50271C107.608 0.670825 107.747 0.872533 107.842 1.09574C107.937 1.31895 107.986 1.55905 107.986 1.80165C107.986 2.04426 107.937 2.28437 107.842 2.50757C107.747 2.73078 107.608 2.93249 107.433 3.1006C107.258 3.26872 107.052 3.39978 106.825 3.48592C106.599 3.57206 106.357 3.61151 106.115 3.6019C99.128 3.6019 93.4437 11.4675 93.4437 21.1376C93.4437 30.8077 99.128 38.6734 106.115 38.6734C106.592 38.6734 107.05 38.8632 107.387 39.201C107.725 39.5389 107.914 39.9972 107.914 40.475C107.914 40.9528 107.725 41.4111 107.387 41.749C107.05 42.0868 106.592 42.2767 106.115 42.2767V42.2653Z" fill="#445664"/>
<path d="M152.301 44.7374C154.322 44.7374 155.96 42.8241 155.96 40.4638C155.96 38.1035 154.322 36.1902 152.301 36.1902C150.281 36.1902 148.643 38.1035 148.643 40.4638C148.643 42.8241 150.281 44.7374 152.301 44.7374Z" fill="#445664"/>
<path d="M152.7 42.2653C143.73 42.2653 136.429 32.7847 136.429 21.132C136.429 9.47919 143.73 0.00141416 152.7 0.00141416C152.942 -0.00819631 153.184 0.0312546 153.41 0.117395C153.637 0.203534 153.844 0.334594 154.018 0.50271C154.193 0.670825 154.332 0.872533 154.427 1.09574C154.522 1.31895 154.571 1.55905 154.571 1.80165C154.571 2.04426 154.522 2.28437 154.427 2.50757C154.332 2.73078 154.193 2.93249 154.018 3.1006C153.844 3.26872 153.637 3.39978 153.41 3.48592C153.184 3.57206 152.942 3.61151 152.7 3.6019C145.713 3.6019 140.029 11.4675 140.029 21.1376C140.029 30.8077 145.713 38.6734 152.7 38.6734C153.177 38.6734 153.635 38.8632 153.972 39.201C154.31 39.5389 154.5 39.9972 154.5 40.475C154.5 40.9528 154.31 41.4111 153.972 41.749C153.635 42.0868 153.177 42.2767 152.7 42.2767V42.2653Z" fill="#445664"/>
<path d="M198.887 44.7374C200.907 44.7374 202.545 42.8241 202.545 40.4638C202.545 38.1035 200.907 36.1902 198.887 36.1902C196.866 36.1902 195.228 38.1035 195.228 40.4638C195.228 42.8241 196.866 44.7374 198.887 44.7374Z" fill="#445664"/>
<path d="M199.285 42.2654C190.312 42.2654 183.015 32.7848 183.015 21.132C183.015 9.47924 190.312 0.00146484 199.285 0.00146484C199.75 0.0199039 200.189 0.217643 200.511 0.553237C200.834 0.888831 201.013 1.33623 201.013 1.8017C201.013 2.26717 200.834 2.71458 200.511 3.05018C200.189 3.38577 199.75 3.58351 199.285 3.60195C192.296 3.60195 186.611 11.4676 186.611 21.1377C186.611 30.8078 192.296 38.6734 199.285 38.6734C199.762 38.6734 200.22 38.8632 200.558 39.2011C200.895 39.539 201.085 39.9972 201.085 40.4751C201.085 40.9529 200.895 41.4111 200.558 41.749C200.22 42.0869 199.762 42.2767 199.285 42.2767V42.2654Z" fill="#445664"/>
<path d="M245.469 44.7374C247.49 44.7374 249.128 42.8241 249.128 40.4638C249.128 38.1035 247.49 36.1902 245.469 36.1902C243.448 36.1902 241.81 38.1035 241.81 40.4638C241.81 42.8241 243.448 44.7374 245.469 44.7374Z" fill="#445664"/>
<path d="M245.867 42.2653C236.897 42.2653 229.597 32.7847 229.597 21.132C229.597 9.47919 236.897 0.00141416 245.867 0.00141416C246.109 -0.00819631 246.351 0.0312546 246.578 0.117395C246.804 0.203534 247.011 0.334594 247.186 0.50271C247.36 0.670825 247.499 0.872533 247.594 1.09574C247.689 1.31895 247.738 1.55905 247.738 1.80165C247.738 2.04426 247.689 2.28437 247.594 2.50757C247.499 2.73078 247.36 2.93249 247.186 3.1006C247.011 3.26872 246.804 3.39978 246.578 3.48592C246.351 3.57206 246.109 3.61151 245.867 3.6019C238.88 3.6019 233.196 11.4675 233.196 21.1376C233.196 30.8077 238.88 38.6734 245.867 38.6734C246.345 38.6734 246.802 38.8632 247.14 39.201C247.477 39.5389 247.667 39.9972 247.667 40.475C247.667 40.9528 247.477 41.4111 247.14 41.749C246.802 42.0868 246.345 42.2767 245.867 42.2767V42.2653Z" fill="#445664"/>
<path d="M252.888 112.377H91.4323C91.3529 112.377 91.2767 112.346 91.2205 112.289C91.1644 112.233 91.1328 112.157 91.1328 112.077C91.1328 111.998 91.1644 111.922 91.2205 111.865C91.2767 111.809 91.3529 111.778 91.4323 111.778H252.888C252.967 111.778 253.044 111.809 253.1 111.865C253.156 111.922 253.188 111.998 253.188 112.077C253.188 112.157 253.156 112.233 253.1 112.289C253.044 112.346 252.967 112.377 252.888 112.377Z" fill="#002E5D"/>
<path d="M252.888 151.029H91.4323C91.3529 151.029 91.2767 150.998 91.2205 150.941C91.1644 150.885 91.1328 150.809 91.1328 150.729C91.1328 150.65 91.1644 150.574 91.2205 150.518C91.2767 150.461 91.3529 150.43 91.4323 150.43H252.888C252.967 150.43 253.044 150.461 253.1 150.518C253.156 150.574 253.188 150.65 253.188 150.729C253.188 150.809 253.156 150.885 253.1 150.941C253.044 150.998 252.967 151.029 252.888 151.029Z" fill="#002E5D"/>
<path d="M252.888 189.684H91.4323C91.3575 189.677 91.2881 189.642 91.2376 189.586C91.1871 189.531 91.1592 189.458 91.1592 189.383C91.1592 189.308 91.1871 189.235 91.2376 189.18C91.2881 189.124 91.3575 189.089 91.4323 189.082H252.888C252.963 189.089 253.032 189.124 253.083 189.18C253.133 189.235 253.161 189.308 253.161 189.383C253.161 189.458 253.133 189.531 253.083 189.586C253.032 189.642 252.963 189.677 252.888 189.684Z" fill="#002E5D"/>
<path d="M252.888 228.336H91.4323C91.3575 228.329 91.2881 228.294 91.2376 228.238C91.1871 228.183 91.1592 228.11 91.1592 228.035C91.1592 227.96 91.1871 227.887 91.2376 227.832C91.2881 227.776 91.3575 227.741 91.4323 227.734H252.888C252.963 227.741 253.032 227.776 253.083 227.832C253.133 227.887 253.161 227.96 253.161 228.035C253.161 228.11 253.133 228.183 253.083 228.238C253.032 228.294 252.963 228.329 252.888 228.336Z" fill="#002E5D"/>
<path d="M157.503 266.989H91.4323C91.3575 266.981 91.2881 266.947 91.2376 266.891C91.1871 266.835 91.1592 266.763 91.1592 266.687C91.1592 266.612 91.1871 266.54 91.2376 266.484C91.2881 266.428 91.3575 266.393 91.4323 266.386H157.503C157.578 266.393 157.647 266.428 157.698 266.484C157.748 266.54 157.776 266.612 157.776 266.687C157.776 266.763 157.748 266.835 157.698 266.891C157.647 266.947 157.578 266.981 157.503 266.989Z" fill="#002E5D"/>
<path d="M203.972 172.861H93.9946V182.642H203.972V172.861Z" fill="#BBD1DC"/>
<path d="M169.208 211.76H93.9946V221.54H169.208V211.76Z" fill="#BBD1DC"/>
<path d="M234.419 211.76H179.658V221.54H234.419V211.76Z" fill="#BBD1DC"/>
<path d="M52.1798 84.5552C88.0912 69.5467 127.131 81.1827 139.377 110.552C143.272 119.893 143.984 129.903 141.992 139.692C140.91 145.049 141.951 150.617 144.895 155.219L161.385 181.069C161.62 181.437 161.75 181.863 161.762 182.299C161.773 182.736 161.665 183.167 161.45 183.547C161.234 183.926 160.919 184.24 160.539 184.454C160.159 184.668 159.727 184.774 159.291 184.76L117.098 183.456C113.208 183.349 109.364 184.318 105.988 186.256C102.931 187.996 99.772 189.547 96.527 190.902C60.6155 205.912 21.5759 194.273 9.33058 164.906C-2.91473 135.54 16.2703 99.5646 52.1798 84.5552Z" fill="#F70431"/>
<path d="M57.4218 206.381C59.0708 206.381 60.7314 206.328 62.4036 206.223C71.6032 205.643 80.7323 203.484 89.5356 199.804C92.7894 198.445 95.9578 196.889 99.0233 195.145C102.36 193.229 106.159 192.271 110.004 192.377L152.201 193.682C152.681 193.697 153.157 193.581 153.577 193.345C153.996 193.109 154.343 192.764 154.581 192.345C154.819 191.926 154.938 191.451 154.925 190.969C154.913 190.488 154.769 190.019 154.51 189.613L138.02 163.763C135.098 159.218 134.067 153.708 135.149 148.413C136.155 143.545 136.459 138.558 136.053 133.604C135.634 128.624 134.442 123.74 132.52 119.128C128.434 109.329 121.169 101.115 111.508 95.3737C102.129 89.7983 90.8081 86.7103 78.7724 86.4438C78.74 86.4427 78.7078 86.4481 78.6775 86.4597C78.6472 86.4713 78.6196 86.4888 78.5962 86.5112C78.5728 86.5336 78.5541 86.5605 78.5412 86.5903C78.5283 86.62 78.5214 86.652 78.521 86.6845C78.5197 86.7497 78.5443 86.8128 78.5893 86.86C78.6344 86.9071 78.6963 86.9345 78.7615 86.9361C103.542 87.486 123.967 99.8938 132.066 119.318C135.804 128.283 136.704 138.313 134.667 148.315C133.559 153.736 134.614 159.375 137.605 164.027L154.095 189.878C154.306 190.208 154.423 190.59 154.433 190.982C154.443 191.373 154.346 191.76 154.153 192.101C153.959 192.442 153.677 192.723 153.335 192.915C152.994 193.107 152.607 193.202 152.215 193.19L110.019 191.885C106.084 191.776 102.195 192.756 98.7799 194.716C95.7308 196.451 92.5794 197.998 89.3429 199.35C53.6132 214.284 14.6412 202.68 2.46837 173.486C2.44099 173.429 2.39285 173.385 2.33388 173.362C2.27492 173.34 2.20959 173.341 2.15138 173.365C2.09319 173.39 2.04652 173.436 2.02103 173.493C1.99554 173.551 1.99316 173.617 2.01439 173.676C5.02232 180.891 9.66833 187.168 15.8223 192.331C21.7637 197.316 28.8524 201.059 36.8927 203.456C43.4212 205.4 50.3053 206.381 57.4218 206.381Z" fill="#002E5D"/>
<path d="M49.2956 126.82C48.8427 123.948 49.3018 120.892 50.6727 117.653C52.0437 114.415 54.3432 111.548 57.5713 109.053C60.7983 106.56 64.767 104.939 69.4774 104.192C73.8552 103.498 77.849 103.695 81.4589 104.781C85.0688 105.867 88.008 107.656 90.2764 110.148C92.5448 112.64 93.9384 115.519 94.4573 118.783C94.8657 121.352 94.7028 123.686 93.9684 125.786C93.2841 127.79 92.3004 129.679 91.0507 131.387C89.8385 133.02 87.6395 135.793 84.4537 139.707C83.7099 140.622 83.0172 141.577 82.379 142.569C81.8721 143.378 81.5147 144.101 81.3067 144.738C81.1041 145.349 80.963 145.979 80.8855 146.618C80.8131 147.233 80.7284 148.308 80.6313 149.842C80.5568 153.077 79.0097 154.934 75.9901 155.412C74.4196 155.66 73.0169 155.355 71.7819 154.498C70.5469 153.64 69.7683 152.198 69.446 150.172C69.0416 147.63 69.0846 145.369 69.5751 143.388C70.0374 141.467 70.8319 139.642 71.9226 137.995C72.9961 136.382 74.4823 134.435 76.3812 132.154C78.0448 130.154 79.2387 128.656 79.9629 127.658C80.6821 126.669 81.2601 125.584 81.6801 124.434C82.1014 123.288 82.218 122.052 82.0187 120.847C81.6349 118.429 80.4125 116.531 78.3514 115.153C76.2902 113.774 73.8392 113.31 70.9981 113.76C67.6757 114.286 65.363 115.512 64.0599 117.439C62.7567 119.365 61.8206 122.046 61.2515 125.483C60.7683 129.062 59.0902 131.079 56.2173 131.535C54.5254 131.803 53.0034 131.432 51.6512 130.423C50.2991 129.413 49.5139 128.213 49.2956 126.82ZM79.2976 173.015C77.4553 173.306 75.7521 172.964 74.1879 171.988C72.6236 171.011 71.6716 169.45 71.3315 167.304C71.0288 165.4 71.4385 163.692 72.5608 162.181C73.683 160.67 75.2104 159.762 77.1431 159.457C79.0468 159.155 80.7507 159.552 82.2548 160.646C83.7589 161.74 84.6632 163.241 84.9678 165.148C85.3036 167.264 84.8882 169.034 83.7215 170.458C82.5547 171.882 81.0801 172.734 79.2976 173.015Z" fill="white"/>
<path d="M51.3685 268.234L30.3124 251.675L46.8521 230.595L67.9082 247.154L51.3685 268.234Z" fill="#F3F8FF"/>
<path d="M279.702 385.758L291.352 365.364L292.098 382.627L307.104 375.561L304.028 381.227L322.39 385.758H279.702Z" fill="#F3F8FF"/>
<path d="M276.253 384.678C276.301 384.677 276.348 384.663 276.389 384.637C276.429 384.61 276.46 384.573 276.48 384.528L285.538 363.331L284.955 383.122C284.954 383.166 284.964 383.209 284.985 383.248C285.006 383.287 285.037 383.319 285.074 383.341C285.112 383.364 285.155 383.376 285.199 383.376C285.243 383.376 285.286 383.365 285.324 383.343L303.08 373.137L297.661 383.008C297.641 383.044 297.631 383.085 297.631 383.126C297.631 383.168 297.641 383.208 297.661 383.245C297.681 383.281 297.709 383.312 297.744 383.334C297.779 383.357 297.819 383.37 297.86 383.373L323.71 384.678C323.743 384.68 323.776 384.677 323.807 384.666C323.839 384.656 323.868 384.64 323.893 384.618C323.918 384.596 323.938 384.57 323.953 384.54C323.967 384.51 323.976 384.477 323.977 384.444C323.979 384.411 323.974 384.378 323.963 384.347C323.951 384.316 323.934 384.287 323.911 384.263C323.888 384.239 323.861 384.219 323.831 384.206C323.8 384.193 323.768 384.186 323.734 384.185L298.277 382.9L303.929 372.606C303.956 372.558 303.966 372.503 303.958 372.449C303.951 372.395 303.925 372.345 303.886 372.308C303.847 372.269 303.797 372.244 303.743 372.237C303.689 372.23 303.634 372.242 303.588 372.27L285.452 382.689L286.071 362.043C286.072 361.986 286.053 361.93 286.018 361.885C285.983 361.841 285.933 361.809 285.877 361.797C285.822 361.785 285.764 361.792 285.713 361.818C285.662 361.844 285.622 361.886 285.599 361.939L276.03 384.334C276.004 384.395 276.003 384.462 276.028 384.523C276.052 384.584 276.1 384.632 276.16 384.658C276.189 384.67 276.221 384.677 276.253 384.678Z" fill="#002E5D"/>
<path d="M226.404 174.072L230.064 195.379L227.632 194.889L224.72 210.894L236.89 213.234L259.647 240.157C260.4 241.048 260.842 242.16 260.906 243.325C260.97 244.49 260.653 245.645 260.002 246.613L243.554 271.094L244.846 323.416L252.955 377.341H251.464L257.654 389.755H230.564L230.598 384.976H243.844L247.23 377.426L244.926 377.464L225.158 308.617L218.409 377.37H216.652L222.612 389.645L195.724 389.76L195.574 384.912L208.786 384.954L212.245 377.422L209.518 377.349L207.069 274.176L204.585 233.56L196.565 232.903C195.112 232.784 193.702 232.36 192.424 231.658C191.146 230.957 190.031 229.994 189.15 228.832C188.269 227.67 187.642 226.335 187.311 224.915C186.98 223.494 186.951 222.019 187.227 220.587L192.829 191.491L189.793 180.669L201.614 179.818L201.187 183.943L203.947 184.07L199.911 191.913L198.627 193.374L196.098 216.682L205.08 218.883L215.378 212.187L213.346 203.311L207.277 205.146L208.777 177.328L203.95 176.613V168.015L226.404 174.072Z" fill="white"/>
<path d="M204.054 168.043L203.95 173.758L222.889 177.056L221.42 193.644L230.047 195.283L226.404 174.075L204.054 168.043Z" fill="#325D9C"/>
<path d="M195.579 387.445H215.64L219.616 383.733L222.669 389.755H195.579V387.445Z" fill="#002E5D"/>
<path d="M207.269 205.302L208.649 177.313L217.724 178.66L216.804 202.184L207.269 205.302Z" fill="#F4B18F"/>
<path d="M230.577 387.445H250.638L254.614 383.733L257.667 389.755H230.577V387.445Z" fill="#002E5D"/>
<path d="M194.382 207.366L192.134 221.673L203.946 224.971L204.592 233.732L195.85 232.797C189.487 231.809 185.794 225.503 187.278 219.229L189.662 207.356L194.382 207.366Z" fill="#F70431"/>
<path d="M189.67 207.356L192.723 191.308L189.795 180.673L201.754 179.744L201.169 184.105L200.156 184.156L199.495 187.588L196.97 191.692L194.387 207.366L189.67 207.356Z" fill="#F4B18F"/>
<path d="M215.47 212.143L207.95 217.033L213.42 272.568L235.771 266.222L240.491 256.001L246.659 260.395L254.941 244.544C255.279 243.897 255.417 243.164 255.338 242.438C255.259 241.712 254.967 241.026 254.498 240.467L234.901 217.082L224.113 213.173L217.728 221.859L215.47 212.143Z" fill="#F70431"/>
<path d="M232.674 267.101L213.42 272.568L211.735 377.464L218.41 377.341L225.062 308.218L220.693 293.069L223.67 289.331L247.612 377.464H252.981L244.873 323.543L243.559 271.094L233.652 285.665L226.257 278.849L232.674 267.101Z" fill="#325D9C"/>
<path d="M246.656 260.395L231.785 284.162L228.838 281.228L240.487 256.001L246.656 260.395Z" fill="#F4B18F"/>
<path d="M230.064 195.628C230.1 195.628 230.136 195.621 230.168 195.605C230.201 195.59 230.23 195.568 230.253 195.541C230.276 195.513 230.293 195.481 230.302 195.446C230.311 195.412 230.313 195.375 230.307 195.34L226.646 174.033C226.638 173.986 226.617 173.943 226.586 173.907C226.554 173.872 226.513 173.847 226.467 173.834L204.017 167.774C203.98 167.765 203.942 167.763 203.905 167.771C203.868 167.778 203.833 167.794 203.804 167.817C203.774 167.84 203.749 167.869 203.733 167.903C203.716 167.937 203.707 167.974 203.707 168.012V176.614C203.707 176.673 203.729 176.73 203.768 176.775C203.806 176.819 203.86 176.848 203.919 176.857L219.502 179.168L218.158 193.009C218.152 193.07 218.169 193.131 218.206 193.18C218.242 193.229 218.296 193.263 218.356 193.274L230.021 195.62C230.035 195.624 230.05 195.627 230.064 195.628ZM226.19 174.272L229.766 195.069L218.669 192.839L220.011 178.986C220.017 178.923 219.999 178.86 219.96 178.81C219.921 178.761 219.864 178.728 219.802 178.718L204.197 176.404V168.337L226.19 174.272Z" fill="#002E5D"/>
<path d="M207.269 205.548C207.295 205.548 207.321 205.544 207.346 205.536L221.843 200.796C221.902 200.774 221.951 200.729 221.979 200.672C222.006 200.614 222.01 200.549 221.991 200.488C221.971 200.428 221.929 200.377 221.873 200.347C221.817 200.317 221.751 200.31 221.69 200.327L207.534 204.957L208.833 179.366C208.834 179.333 208.83 179.301 208.819 179.271C208.808 179.24 208.791 179.212 208.77 179.188C208.748 179.164 208.722 179.145 208.693 179.131C208.664 179.117 208.632 179.109 208.6 179.108C208.568 179.106 208.535 179.111 208.505 179.122C208.475 179.132 208.447 179.149 208.423 179.171C208.399 179.192 208.379 179.219 208.366 179.248C208.352 179.277 208.344 179.309 208.342 179.341L207.024 205.289C207.022 205.329 207.03 205.37 207.048 205.406C207.065 205.442 207.091 205.474 207.123 205.498C207.165 205.53 207.217 205.547 207.269 205.548Z" fill="#002E5D"/>
<path d="M217.715 222.307C217.753 222.307 217.791 222.298 217.826 222.281C217.86 222.263 217.89 222.238 217.913 222.207L223.185 215.072C223.224 215.02 223.24 214.954 223.23 214.889C223.22 214.824 223.185 214.766 223.132 214.727C223.08 214.688 223.014 214.672 222.949 214.682C222.885 214.692 222.826 214.727 222.788 214.78L217.833 221.486L214.244 206.071C214.236 206.039 214.223 206.01 214.204 205.983C214.185 205.957 214.162 205.935 214.134 205.918C214.107 205.901 214.076 205.889 214.045 205.884C214.013 205.879 213.98 205.88 213.949 205.887C213.917 205.894 213.888 205.908 213.861 205.926C213.835 205.945 213.813 205.969 213.796 205.996C213.779 206.024 213.767 206.054 213.762 206.086C213.757 206.118 213.758 206.151 213.765 206.182L217.474 222.114C217.485 222.159 217.508 222.201 217.542 222.234C217.576 222.267 217.618 222.289 217.664 222.299C217.68 222.303 217.697 222.306 217.715 222.307Z" fill="#002E5D"/>
<path d="M233.629 286.005C233.67 286.005 233.709 285.995 233.745 285.976C233.78 285.958 233.811 285.93 233.833 285.897L260.216 246.935C260.91 245.903 261.249 244.673 261.185 243.43C261.12 242.188 260.654 241 259.857 240.045L237.232 213.109C237.196 213.066 237.146 213.036 237.09 213.026L225.005 210.701L226.938 199.946C226.944 199.914 226.943 199.881 226.936 199.85C226.929 199.818 226.916 199.788 226.898 199.761C226.88 199.735 226.856 199.712 226.829 199.695C226.802 199.677 226.772 199.665 226.74 199.66C226.708 199.654 226.675 199.654 226.644 199.661C226.612 199.668 226.583 199.681 226.556 199.7C226.529 199.718 226.507 199.742 226.489 199.769C226.472 199.796 226.46 199.826 226.454 199.858L224.477 210.854C224.472 210.885 224.472 210.918 224.479 210.95C224.486 210.981 224.499 211.011 224.518 211.038C224.536 211.064 224.56 211.087 224.587 211.104C224.614 211.121 224.644 211.133 224.676 211.139L236.915 213.493L259.481 240.362C260.209 241.235 260.635 242.32 260.694 243.456C260.753 244.591 260.442 245.715 259.809 246.659L233.422 285.62C233.397 285.657 233.382 285.7 233.38 285.744C233.377 285.788 233.387 285.832 233.407 285.872C233.427 285.911 233.458 285.944 233.495 285.968C233.533 285.991 233.576 286.004 233.62 286.005H233.629Z" fill="#002E5D"/>
<path d="M236.581 288.77C236.63 288.77 236.678 288.755 236.719 288.728C236.76 288.7 236.792 288.661 236.81 288.615C236.828 288.569 236.832 288.518 236.821 288.47C236.81 288.422 236.785 288.378 236.749 288.344L226.425 278.669C226.378 278.625 226.315 278.602 226.25 278.605C226.185 278.607 226.124 278.635 226.08 278.682C226.036 278.73 226.012 278.793 226.013 278.857C226.015 278.922 226.042 278.984 226.089 279.029L236.413 288.704C236.458 288.747 236.518 288.77 236.581 288.77Z" fill="#002E5D"/>
<path d="M228.825 281.502C228.872 281.502 228.919 281.489 228.958 281.463C228.998 281.438 229.029 281.402 229.049 281.359L246.541 243.473C246.564 243.422 246.569 243.364 246.555 243.31C246.54 243.256 246.508 243.208 246.463 243.175L228.455 230.05C228.402 230.016 228.338 230.003 228.276 230.014C228.214 230.026 228.159 230.061 228.122 230.111C228.085 230.162 228.069 230.226 228.077 230.288C228.085 230.351 228.116 230.408 228.165 230.448L246.011 243.45L228.602 281.153C228.588 281.182 228.581 281.214 228.58 281.246C228.578 281.278 228.583 281.311 228.594 281.341C228.606 281.371 228.623 281.399 228.645 281.423C228.666 281.446 228.693 281.466 228.722 281.479C228.754 281.494 228.79 281.502 228.825 281.502Z" fill="#002E5D"/>
<path d="M246.904 260.818C246.956 260.818 247.007 260.802 247.05 260.771C247.092 260.74 247.123 260.697 247.139 260.647C247.155 260.597 247.155 260.544 247.138 260.494C247.122 260.444 247.09 260.401 247.047 260.371L240.629 255.796C240.576 255.767 240.514 255.759 240.456 255.772C240.397 255.786 240.345 255.82 240.31 255.869C240.275 255.918 240.259 255.978 240.265 256.038C240.272 256.098 240.299 256.153 240.344 256.194L246.762 260.769C246.803 260.8 246.853 260.817 246.904 260.818Z" fill="#002E5D"/>
<path d="M205.17 219.133C205.219 219.133 205.267 219.119 205.307 219.092L212.482 214.303C212.533 214.265 212.567 214.209 212.578 214.147C212.589 214.084 212.575 214.02 212.54 213.968C212.505 213.915 212.451 213.878 212.39 213.864C212.328 213.85 212.264 213.86 212.209 213.893L205.123 218.623C200.121 217.446 197.176 216.763 196.337 216.586C196.449 214.741 198.185 199.417 198.874 193.406C198.88 193.373 198.879 193.34 198.871 193.307C198.863 193.275 198.849 193.244 198.828 193.217C198.808 193.19 198.783 193.168 198.754 193.151C198.725 193.134 198.693 193.124 198.66 193.12C198.626 193.116 198.593 193.119 198.561 193.129C198.529 193.138 198.499 193.154 198.473 193.176C198.448 193.197 198.427 193.224 198.412 193.254C198.396 193.284 198.388 193.316 198.386 193.35C198.379 193.408 197.711 199.232 197.067 205C196.69 208.388 196.394 211.093 196.188 213.041C195.791 216.821 195.806 216.836 195.907 216.949C195.949 216.996 196.007 217.025 196.07 217.032C196.368 217.077 201.633 218.308 205.11 219.127C205.13 219.131 205.15 219.133 205.17 219.133ZM196.091 216.538C196.117 216.539 196.143 216.543 196.167 216.55C196.142 216.545 196.117 216.541 196.092 216.538H196.091Z" fill="#002E5D"/>
<path d="M201.021 190.106C201.065 190.106 201.109 190.094 201.147 190.071C201.185 190.048 201.217 190.016 201.237 189.976L204.432 184.064C204.453 184.025 204.463 183.982 204.461 183.938C204.46 183.895 204.447 183.852 204.423 183.815C204.4 183.778 204.367 183.748 204.328 183.728C204.29 183.708 204.246 183.699 204.203 183.701L194.766 184.189C194.7 184.193 194.638 184.222 194.594 184.271C194.55 184.32 194.527 184.385 194.53 184.451C194.534 184.517 194.563 184.579 194.612 184.623C194.661 184.667 194.726 184.69 194.791 184.686L203.796 184.22L200.81 189.748C200.795 189.776 200.785 189.807 200.782 189.839C200.779 189.871 200.782 189.904 200.791 189.935C200.8 189.966 200.815 189.995 200.836 190.02C200.856 190.045 200.881 190.065 200.91 190.081C200.944 190.098 200.982 190.107 201.021 190.106Z" fill="#002E5D"/>
<path d="M192.48 190.448C192.502 190.448 192.525 190.445 192.546 190.439C192.609 190.421 192.662 190.379 192.694 190.322C192.726 190.265 192.734 190.197 192.716 190.134L190.111 180.894L201.467 180.013L200.923 184.072C200.917 184.135 200.936 184.198 200.976 184.247C201.015 184.297 201.073 184.329 201.135 184.337C201.198 184.346 201.261 184.33 201.313 184.292C201.364 184.255 201.399 184.2 201.41 184.137L201.995 179.776C202 179.741 201.996 179.704 201.985 179.67C201.974 179.635 201.956 179.604 201.931 179.578C201.905 179.551 201.874 179.53 201.84 179.517C201.806 179.504 201.769 179.498 201.732 179.501L189.773 180.43C189.737 180.433 189.701 180.443 189.67 180.461C189.638 180.48 189.611 180.504 189.59 180.534C189.569 180.564 189.555 180.598 189.549 180.634C189.543 180.67 189.545 180.707 189.555 180.742L192.238 190.272C192.253 190.324 192.285 190.369 192.329 190.401C192.373 190.433 192.426 190.449 192.48 190.448Z" fill="#002E5D"/>
<path d="M201.754 233.644C201.816 233.643 201.875 233.617 201.92 233.574C201.964 233.53 201.99 233.472 201.993 233.41C201.996 233.347 201.976 233.287 201.936 233.239C201.896 233.191 201.839 233.161 201.778 233.153L196.438 232.62C195.035 232.48 193.676 232.049 192.447 231.356C191.219 230.662 190.147 229.721 189.302 228.591C188.456 227.461 187.854 226.167 187.533 224.792C187.213 223.417 187.182 221.99 187.441 220.602L192.526 193.42C192.532 193.389 192.531 193.356 192.525 193.324C192.518 193.293 192.505 193.263 192.487 193.236C192.469 193.21 192.445 193.187 192.418 193.169C192.391 193.152 192.361 193.139 192.329 193.134C192.298 193.128 192.265 193.128 192.234 193.135C192.202 193.141 192.172 193.154 192.145 193.172C192.119 193.191 192.096 193.214 192.078 193.241C192.061 193.268 192.049 193.298 192.043 193.33L186.959 220.516C186.686 221.971 186.719 223.467 187.055 224.909C187.39 226.35 188.022 227.707 188.908 228.891C189.795 230.076 190.918 231.063 192.206 231.79C193.494 232.517 194.919 232.968 196.39 233.115L201.733 233.644H201.754Z" fill="#002E5D"/>
<path d="M191.292 207.612C192.881 207.612 195.075 207.602 195.214 207.601C195.279 207.601 195.343 207.575 195.389 207.529C195.436 207.482 195.462 207.419 195.462 207.353C195.462 207.287 195.436 207.224 195.389 207.177C195.343 207.13 195.279 207.104 195.214 207.104C193.77 207.111 189.964 207.123 189.688 207.104C189.626 207.103 189.565 207.127 189.519 207.17C189.472 207.212 189.444 207.271 189.44 207.334C189.436 207.397 189.456 207.459 189.495 207.507C189.535 207.556 189.592 207.587 189.655 207.595C189.774 207.609 190.45 207.612 191.292 207.612Z" fill="#002E5D"/>
<path d="M207.075 274.599C207.097 274.599 207.119 274.596 207.141 274.59L227.055 268.99C227.118 268.972 227.171 268.93 227.203 268.873C227.235 268.816 227.243 268.749 227.225 268.686C227.207 268.624 227.166 268.57 227.109 268.539C227.052 268.507 226.985 268.499 226.922 268.516L207.296 274.033L204.191 223.05C204.187 222.985 204.157 222.924 204.108 222.881C204.06 222.838 203.996 222.816 203.931 222.82C203.865 222.824 203.805 222.853 203.761 222.902C203.718 222.951 203.696 223.015 203.7 223.08L206.823 274.367C206.827 274.43 206.855 274.489 206.901 274.532C206.946 274.575 207.007 274.599 207.07 274.599H207.075Z" fill="#002E5D"/>
<path d="M209.417 377.71H218.398C218.459 377.71 218.518 377.687 218.563 377.646C218.609 377.605 218.637 377.549 218.643 377.488L225.398 308.641C225.402 308.577 225.38 308.515 225.339 308.467C225.298 308.419 225.24 308.389 225.177 308.383C225.114 308.376 225.051 308.395 225.001 308.434C224.951 308.473 224.918 308.529 224.909 308.592L218.172 377.215H209.653L207.316 274.344C207.314 274.278 207.287 274.216 207.239 274.17C207.192 274.125 207.128 274.1 207.062 274.101C206.996 274.103 206.934 274.13 206.888 274.178C206.843 274.226 206.818 274.289 206.819 274.355L209.163 377.467C209.163 377.5 209.17 377.532 209.183 377.562C209.196 377.592 209.215 377.62 209.239 377.642C209.262 377.665 209.29 377.682 209.321 377.694C209.352 377.706 209.384 377.711 209.417 377.71Z" fill="#002E5D"/>
<path d="M244.927 377.71H252.981C253.017 377.71 253.052 377.702 253.084 377.688C253.116 377.673 253.144 377.651 253.167 377.624C253.19 377.597 253.208 377.565 253.218 377.531C253.228 377.497 253.23 377.461 253.225 377.425L245.1 323.393L243.809 271.086C243.807 271.022 243.78 270.961 243.735 270.916C243.689 270.871 243.627 270.846 243.563 270.846H243.556C243.491 270.847 243.429 270.875 243.384 270.922C243.34 270.97 243.315 271.033 243.317 271.098L244.608 323.42C244.607 323.43 244.607 323.44 244.608 323.45L252.693 377.218H245.111L220.927 293.001C220.907 292.941 220.864 292.891 220.808 292.862C220.752 292.833 220.687 292.827 220.626 292.844C220.566 292.862 220.514 292.902 220.482 292.956C220.45 293.011 220.44 293.075 220.454 293.137L244.693 377.532C244.707 377.583 244.738 377.628 244.78 377.66C244.823 377.692 244.874 377.709 244.927 377.71Z" fill="#002E5D"/>
<path d="M195.574 390H222.67C222.712 390 222.753 389.99 222.79 389.969C222.826 389.949 222.857 389.919 222.879 389.883C222.901 389.848 222.914 389.807 222.916 389.765C222.917 389.723 222.908 389.681 222.889 389.643L217.983 379.967C217.953 379.909 217.902 379.865 217.84 379.845C217.778 379.825 217.711 379.83 217.652 379.86C217.594 379.889 217.55 379.941 217.53 380.003C217.51 380.065 217.515 380.132 217.545 380.19L222.268 389.508H195.825V385.163H208.904C208.952 385.163 208.999 385.149 209.039 385.123C209.079 385.097 209.11 385.059 209.13 385.016L211.253 380.177C211.279 380.118 211.281 380.05 211.257 379.989C211.233 379.928 211.187 379.879 211.127 379.853C211.067 379.826 211 379.825 210.939 379.848C210.878 379.872 210.829 379.919 210.803 379.978L208.744 384.67H195.574C195.509 384.67 195.447 384.695 195.4 384.741C195.354 384.788 195.328 384.85 195.328 384.915V389.754C195.328 389.786 195.334 389.818 195.346 389.848C195.359 389.878 195.377 389.905 195.4 389.928C195.423 389.951 195.45 389.969 195.48 389.982C195.51 389.994 195.542 390 195.574 390Z" fill="#002E5D"/>
<path d="M230.577 390H257.667C257.709 390 257.75 389.99 257.787 389.969C257.824 389.949 257.855 389.919 257.877 389.883C257.899 389.848 257.911 389.807 257.913 389.765C257.915 389.723 257.906 389.681 257.887 389.643L252.98 379.967C252.951 379.909 252.899 379.865 252.837 379.845C252.776 379.825 252.708 379.83 252.65 379.86C252.592 379.889 252.548 379.941 252.528 380.003C252.508 380.065 252.513 380.132 252.542 380.19L257.263 389.508H230.819V385.163H243.902C243.95 385.163 243.996 385.149 244.036 385.123C244.077 385.097 244.108 385.059 244.127 385.016L246.25 380.177C246.277 380.118 246.278 380.05 246.255 379.989C246.231 379.928 246.184 379.879 246.125 379.853C246.065 379.826 245.997 379.825 245.936 379.848C245.876 379.872 245.827 379.919 245.8 379.978L243.742 384.67H230.577C230.512 384.67 230.449 384.695 230.403 384.741C230.357 384.788 230.331 384.85 230.33 384.915V389.754C230.33 389.786 230.337 389.818 230.349 389.848C230.361 389.878 230.379 389.905 230.402 389.928C230.425 389.951 230.452 389.969 230.482 389.982C230.512 389.994 230.544 390 230.577 390Z" fill="#002E5D"/>
<path d="M162.341 390H356.751C356.785 390.002 356.818 389.998 356.85 389.986C356.882 389.975 356.911 389.957 356.935 389.934C356.96 389.911 356.979 389.883 356.993 389.852C357.006 389.821 357.013 389.788 357.013 389.754C357.013 389.72 357.006 389.687 356.993 389.656C356.979 389.625 356.96 389.597 356.935 389.574C356.911 389.551 356.882 389.533 356.85 389.522C356.818 389.511 356.785 389.506 356.751 389.508H162.341C162.307 389.506 162.274 389.511 162.242 389.522C162.21 389.533 162.181 389.551 162.157 389.574C162.132 389.597 162.113 389.625 162.099 389.656C162.086 389.687 162.079 389.72 162.079 389.754C162.079 389.788 162.086 389.821 162.099 389.852C162.113 389.883 162.132 389.911 162.157 389.934C162.181 389.957 162.21 389.975 162.242 389.986C162.274 389.998 162.307 390.002 162.341 390Z" fill="#002E5D"/>
<path d="M312.575 250.277L327.246 261.815L315.722 276.502L301.052 264.965L312.575 250.277Z" fill="#F3F8FF"/>
</g>
<defs>
<clipPath id="clip0_308_2182">
<rect width="308" height="390" fill="white" transform="matrix(-1 0 0 1 308 0)"/>
</clipPath>
</defs>
</svg>
