<svg width="12" height="12" viewBox="0 0 12 12" fill="none" xmlns="http://www.w3.org/2000/svg">
<g clip-path="url(#clip0_1476_16389)">
<path d="M11.5872 6.63754C11.8622 6.32258 11.9997 5.95011 11.9997 5.52006C11.9997 5.13008 11.8571 4.79263 11.5726 4.50748C11.2876 4.22235 10.9502 4.07987 10.5602 4.07987H8.48281C8.50278 4.00989 8.52279 3.94989 8.54276 3.8999C8.56254 3.84991 8.59033 3.79485 8.62519 3.73486C8.66008 3.67483 8.68516 3.62981 8.70011 3.59986C8.79008 3.42995 8.85896 3.28986 8.90651 3.17995C8.95397 3.06983 9.00123 2.91989 9.04888 2.72989C9.09646 2.53999 9.1201 2.34991 9.1201 2.15991C9.1201 2.03996 9.11865 1.94237 9.11629 1.86743C9.11395 1.79243 9.10121 1.67989 9.07891 1.52987C9.05626 1.37993 9.02621 1.25492 8.98881 1.15496C8.95124 1.05498 8.89119 0.942394 8.80884 0.817486C8.7263 0.692341 8.62635 0.591232 8.50874 0.513686C8.39116 0.436193 8.24122 0.371203 8.05873 0.318744C7.87605 0.266233 7.66992 0.23999 7.43978 0.23999C7.3098 0.23999 7.1974 0.287511 7.1023 0.382525C7.00232 0.482505 6.91719 0.607492 6.84726 0.757435C6.77723 0.907457 6.72845 1.03746 6.70092 1.1475C6.67341 1.25749 6.64213 1.41003 6.60727 1.60497C6.56211 1.81507 6.52851 1.96622 6.50587 2.05872C6.48341 2.15121 6.43954 2.27244 6.3746 2.42241C6.30954 2.57248 6.23212 2.6924 6.1421 2.78245C5.97713 2.94742 5.72466 3.24744 5.38458 3.6824C5.13952 4.00235 4.88705 4.30484 4.62706 4.58986C4.36703 4.87493 4.17705 5.0224 4.05708 5.03241C3.93217 5.04239 3.82466 5.09364 3.73463 5.18619C3.64461 5.27868 3.59961 5.38746 3.59961 5.51242V10.3199C3.59961 10.4499 3.64708 10.5611 3.74209 10.6536C3.83705 10.7462 3.94956 10.7949 4.07957 10.7999C4.25455 10.8049 4.64955 10.9148 5.26458 11.13C5.64953 11.2598 5.95073 11.3587 6.16823 11.4261C6.38569 11.4935 6.68965 11.5661 7.07935 11.6437C7.46941 11.7212 7.82935 11.76 8.15926 11.76H8.2868H8.85683H9.12677C9.79192 11.75 10.2842 11.555 10.6043 11.175C10.8942 10.83 11.0167 10.3775 10.9718 9.8175C11.1668 9.63251 11.3019 9.39762 11.3768 9.11255C11.4617 8.80772 11.4617 8.51519 11.3768 8.23524C11.6067 7.93024 11.7143 7.58774 11.6992 7.20774C11.6998 7.04758 11.6624 6.85762 11.5872 6.63754Z" fill="#325D9C"/>
<path d="M2.64002 5.04004H0.48009C0.350007 5.04004 0.237497 5.08756 0.142509 5.18257C0.0475204 5.27754 0 5.39005 0 5.52005V10.3202C0 10.45 0.0475204 10.5626 0.142535 10.6577C0.237602 10.7526 0.350112 10.8001 0.480117 10.8001H2.64002C2.77 10.8001 2.88246 10.7526 2.9775 10.6577C3.07249 10.5626 3.11998 10.4501 3.11998 10.3202V5.52005C3.11998 5.39005 3.07246 5.27756 2.9775 5.18257C2.88249 5.08753 2.77003 5.04004 2.64002 5.04004ZM1.77749 9.7013C1.6825 9.79379 1.57001 9.84002 1.44001 9.84002C1.30499 9.84002 1.19122 9.79379 1.09878 9.7013C1.00628 9.60881 0.960049 9.49509 0.960049 9.36006C0.960049 9.23009 1.00626 9.11755 1.09878 9.02259C1.19124 8.92757 1.30499 8.88 1.44001 8.88C1.57001 8.88 1.6825 8.92757 1.77749 9.02259C1.8725 9.11752 1.92002 9.23006 1.92002 9.36006C1.92002 9.49509 1.8726 9.60878 1.77749 9.7013Z" fill="#325D9C"/>
</g>
<defs>
<clipPath id="clip0_1476_16389">
<rect width="12" height="12" fill="white"/>
</clipPath>
</defs>
</svg>
