<svg width="18" height="14" fill="none" xmlns="http://www.w3.org/2000/svg"><g clip-path="url(#a)"><path d="M17.036 13.216v.034h.032a.034.034 0 0 0 .018-.005c.004-.002.006-.007.006-.012a.015.015 0 0 0-.006-.013.031.031 0 0 0-.017-.005h-.033Zm.033-.024a.06.06 0 0 1 .038.01c.01.008.014.018.014.03 0 .011-.003.02-.011.027a.053.053 0 0 1-.03.012l.042.049h-.033l-.04-.048h-.013v.048h-.027v-.128h.06Zm-.009.172c.016 0 .03-.003.043-.008a.11.11 0 0 0 .057-.058.106.106 0 0 0 0-.084.112.112 0 0 0-.058-.057.115.115 0 0 0-.085 0 .103.103 0 0 0-.058.057.104.104 0 0 0-.008.042c0 .015.003.03.008.042a.108.108 0 0 0 .058.057.11.11 0 0 0 .043.01Zm0-.246a.143.143 0 0 1 .132.085.13.13 0 0 1 .01.053.14.14 0 0 1-.142.138.143.143 0 0 1-.132-.084.13.13 0 0 1-.011-.054.138.138 0 0 1 .087-.127.145.145 0 0 1 .056-.011Zm-13.156-.495c0-.244.162-.445.427-.445.254 0 .425.192.425.445 0 .254-.171.446-.425.446-.265 0-.427-.2-.427-.446Zm1.141 0v-.696H4.74v.17a.537.537 0 0 0-.446-.205c-.395 0-.705.306-.705.731 0 .426.31.732.705.732.2 0 .348-.08.446-.205v.17h.306v-.697Zm10.362 0c0-.244.162-.445.428-.445.254 0 .425.192.425.445 0 .254-.171.446-.425.446-.266 0-.428-.2-.428-.446Zm1.142 0v-1.255h-.307v.728a.537.537 0 0 0-.445-.204c-.396 0-.706.306-.706.731 0 .426.31.732.706.732.2 0 .348-.08.445-.205v.17h.307v-.697Zm-7.698-.46c.198 0 .325.123.357.338h-.731c.032-.201.156-.338.374-.338Zm.006-.27c-.413 0-.702.296-.702.73 0 .443.301.732.723.732a.864.864 0 0 0 .578-.195l-.15-.225a.68.68 0 0 1-.41.146c-.198 0-.378-.09-.422-.341H9.52c.003-.038.006-.076.006-.117-.003-.434-.274-.73-.67-.73Zm3.703.73c0-.244.162-.445.428-.445.253 0 .425.192.425.445 0 .254-.172.446-.425.446-.266 0-.428-.2-.428-.446Zm1.142 0v-.696h-.307v.17a.538.538 0 0 0-.445-.205c-.396 0-.706.306-.706.731 0 .426.31.732.706.732.2 0 .347-.08.445-.205v.17h.307v-.697Zm-2.874 0c0 .423.298.732.753.732a.745.745 0 0 0 .507-.166l-.147-.245a.625.625 0 0 1-.37.125c-.244-.003-.424-.178-.424-.446s.18-.442.425-.445c.133 0 .254.043.369.125l.147-.245a.745.745 0 0 0-.507-.166c-.455 0-.753.309-.753.731Zm3.954-.73a.418.418 0 0 0-.372.203v-.169h-.304v1.393h.307v-.78c0-.231.1-.36.3-.36.063 0 .128.01.193.036L15 11.93a.658.658 0 0 0-.218-.038Zm-8.22.145a1.065 1.065 0 0 0-.575-.146c-.358 0-.587.17-.587.446 0 .227.17.367.486.41l.145.021c.168.024.248.067.248.146 0 .108-.113.169-.322.169a.757.757 0 0 1-.469-.146l-.145.236c.169.122.381.18.611.18.407 0 .643-.189.643-.454 0-.245-.185-.373-.492-.416l-.145-.02c-.133-.018-.239-.044-.239-.138 0-.102.1-.163.268-.163a.91.91 0 0 1 .44.12l.133-.245Zm3.956-.146a.416.416 0 0 0-.371.204v-.169h-.304v1.393h.306v-.78c0-.231.1-.36.301-.36a.51.51 0 0 1 .192.036l.095-.286a.658.658 0 0 0-.219-.038Zm-2.617.035H7.4v-.422h-.31v.422h-.286v.277h.286v.635c0 .323.127.516.49.516a.724.724 0 0 0 .383-.108l-.088-.26a.572.572 0 0 1-.272.08c-.153 0-.203-.094-.203-.234v-.629h.501v-.277ZM3.317 13.32v-.874c0-.33-.213-.55-.555-.554a.548.548 0 0 0-.496.248.52.52 0 0 0-.466-.248.468.468 0 0 0-.413.207v-.172H1.08v1.393h.31v-.772c0-.242.135-.37.345-.37.204 0 .307.13.307.367v.775h.31v-.772c0-.242.141-.37.345-.37.21 0 .31.13.31.367v.775h.31Z" fill="#231F20"/><path d="M17.225 8.689v-.204h-.054l-.062.14-.062-.14h-.054v.204h.038v-.154l.059.133h.039l.058-.133v.154h.038Zm-.34 0V8.52h.068v-.034h-.176v.034h.07v.169h.037Z" fill="#F79410"/><path d="M11.12 9.564H6.473V1.318h4.647v8.246Z" fill="#FF5F00"/><path d="M6.77 5.44c0-1.672.793-3.162 2.028-4.122A5.331 5.331 0 0 0 5.516.196C2.583.196.206 2.544.206 5.44c0 2.897 2.377 5.244 5.31 5.244a5.336 5.336 0 0 0 3.282-1.12A5.212 5.212 0 0 1 6.77 5.44Z" fill="#EB001B"/><path d="M17.387 5.44c0 2.897-2.378 5.244-5.311 5.244-1.24 0-2.38-.419-3.283-1.12a5.21 5.21 0 0 0 2.029-4.124 5.21 5.21 0 0 0-2.029-4.122A5.333 5.333 0 0 1 12.076.196c2.933 0 5.31 2.348 5.31 5.244Z" fill="#F79E1B"/></g><defs><clipPath id="a"><path fill="#fff" transform="translate(.2 .2)" d="M0 0h17.2v13.2H0z"/></clipPath></defs></svg>