<svg width="28" height="10" fill="none" xmlns="http://www.w3.org/2000/svg"><g clip-path="url(#a)"><path d="M12.188 9.237H9.984L11.363.753h2.203l-1.378 8.484ZM20.174.96A5.45 5.45 0 0 0 18.198.6c-2.176 0-3.708 1.155-3.718 2.807-.018 1.218 1.097 1.895 1.931 2.301.853.415 1.142.686 1.142 1.057-.008.568-.688.83-1.323.83-.88 0-1.35-.135-2.067-.451l-.29-.136-.308 1.905c.516.234 1.468.442 2.457.451 2.312 0 3.817-1.137 3.835-2.897.009-.966-.58-1.706-1.85-2.31-.77-.39-1.242-.65-1.242-1.048.009-.361.399-.731 1.269-.731a3.757 3.757 0 0 1 1.641.325l.2.09.299-1.832Zm2.928 5.272c.182-.488.88-2.374.88-2.374-.01.018.181-.497.29-.813l.154.732s.417 2.03.508 2.455h-1.832Zm2.72-5.48h-1.704c-.526 0-.925.154-1.152.705l-3.273 7.78h2.312l.463-1.273h2.829c.063.298.263 1.273.263 1.273h2.04L25.822.753ZM8.143.753 5.985 6.538 5.75 5.365C5.351 4.011 4.1 2.54 2.703 1.81L4.68 9.23h2.33L10.473.752h-2.33Z" fill="#00579F"/><path d="M3.982.753H.437L.4.924c2.766.704 4.597 2.402 5.35 4.441l-.771-3.899C4.852.924 4.462.771 3.982.753Z" fill="#FAA61A"/></g><defs><clipPath id="a"><path fill="#fff" transform="translate(.4 .6)" d="M0 0h27.2v8.801H0z"/></clipPath></defs></svg>