<svg width="32" height="32" fill="none" xmlns="http://www.w3.org/2000/svg"><g clip-path="url(#a)"><g fill="#F70431"><path d="M23.563 15.125c-4.653 0-8.438 3.785-8.438 8.438 0 4.652 3.785 8.437 8.438 8.437C28.215 32 32 28.215 32 23.562c0-4.652-3.785-8.437-8.438-8.437ZM18.875.55v5.075h5.076L18.875.549Z"/><path d="M17 7.5V0H0v32h17.652c-2.658-1.867-4.402-4.95-4.402-8.438 0-5.686 4.626-10.312 10.313-10.312.316 0 .628.02.937.047V7.5H17ZM6.687 26.763l-3.2-3.2 1.325-1.326 1.875 1.875 3.75-3.75 1.326 1.326-5.075 5.075Zm0-7.5-3.2-3.2 1.325-1.326 1.875 1.875 3.75-3.75 1.326 1.325-5.075 5.076Zm0-7.5-3.2-3.2 1.325-1.326 1.875 1.875 3.75-3.75 1.326 1.325-5.075 5.076Z"/></g><path d="M24.22 20.294c-.573 0-1.043.17-1.41.512-.361.342-.604.859-.726 1.55h2.784v.94h-2.875l-.012.275v.336l.012.238h2.49v.934h-2.386c.26 1.27 1 1.904 2.221 1.904.582 0 1.178-.126 1.789-.378v1.238c-.533.249-1.154.373-1.862.373-.98 0-1.778-.269-2.393-.806-.61-.537-1.009-1.314-1.196-2.331h-.927v-.934h.83l-.013-.226v-.226l.013-.397h-.83v-.94h.915c.155-1.02.543-1.823 1.166-2.404.622-.582 1.426-.873 2.41-.873.815 0 1.543.179 2.186.537l-.513 1.141c-.627-.309-1.184-.463-1.672-.463Z" fill="#fff"/></g><defs><clipPath id="a"><path fill="#fff" d="M0 0h32v32H0z"/></clipPath></defs></svg>