<svg width="32" height="32" fill="none" xmlns="http://www.w3.org/2000/svg"><g fill="#F70431"><path d="M11.25 6.731V5.197a.762.762 0 0 1-.457-.801.743.743 0 0 1 .176-.386c1.138-1.33 2.59-2.26 3.53-2.26.942 0 2.393.93 3.531 2.26a.743.743 0 0 1 .113.805.762.762 0 0 1-.393.381v1.535a2.25 2.25 0 0 0 1.42-3.697C18.02 1.688 16.187.25 14.5.25c-1.688 0-3.519 1.438-4.67 2.784a2.25 2.25 0 0 0 1.42 3.697Z"/><path d="M18.336 28.363a8.736 8.736 0 0 1-9.892-1.554L14.5 20.5v-8.75c3.92 0 7.247 2.592 8.356 6.152a1.12 1.12 0 0 1 .648-.206h1.892c-1.189-4.618-5.243-8.097-10.146-8.421V7.5h1a.75.75 0 0 0 .75-.75v-1.5a.75.75 0 0 0-.75-.75h-3.5a.75.75 0 0 0-.75.75v1.5a.75.75 0 0 0 .75.75h1v1.776a11.18 11.18 0 0 0-5.523 1.89L7.03 9.97a.75.75 0 0 0-1.06 1.06l1.063 1.063A11.226 11.226 0 0 0 3.25 20.5c0 6.203 5.047 11.25 11.25 11.25a11.18 11.18 0 0 0 4.99-1.17l-.936-.935a1.126 1.126 0 0 1-.218-1.282Z"/><path d="m31.226 23.577-1.014-.125-.34-.82.628-.805a.375.375 0 0 0-.03-.496l-1.801-1.8a.375.375 0 0 0-.496-.031l-.806.628-.819-.34-.125-1.014a.375.375 0 0 0-.372-.328h-2.547a.375.375 0 0 0-.372.329l-.126 1.013-.819.34-.806-.628a.375.375 0 0 0-.495.03l-1.802 1.801a.375.375 0 0 0-.03.496l.628.806-.34.819-1.013.125a.375.375 0 0 0-.329.372v2.547a.375.375 0 0 0 .329.372l1.014.126.34.82-.63.805a.375.375 0 0 0 .031.496l1.802 1.8a.375.375 0 0 0 .495.031l.806-.628.82.34.125 1.013a.374.374 0 0 0 .372.33h2.547a.375.375 0 0 0 .372-.33l.125-1.014.82-.34.805.63a.375.375 0 0 0 .496-.031l1.801-1.802a.375.375 0 0 0 .03-.495l-.628-.806.34-.82 1.014-.125a.375.375 0 0 0 .329-.372V23.95a.375.375 0 0 0-.33-.372Zm-4.877 3.218a2.223 2.223 0 1 1-3.144-3.144 2.223 2.223 0 0 1 3.144 3.143Z"/></g></svg>