<svg width="32" height="32" fill="none" xmlns="http://www.w3.org/2000/svg"><g clip-path="url(#a)" fill="#F70431"><path d="M18.808 20.34v1.419c0 4.312 2.38 8.22 6.21 10.2l.07.037.07-.037a11.442 11.442 0 0 0 6.21-10.2v-1.42a6.695 6.695 0 0 1-3.168-3.087h-6.224a6.694 6.694 0 0 1-3.168 3.087Zm6.635-.113a3.95 3.95 0 0 1 2.321.749l-1.095 1.52a2.087 2.087 0 0 0-1.226-.395c-1.16 0-2.103.944-2.103 2.104a2.105 2.105 0 0 0 3.329 1.708l1.095 1.52a3.95 3.95 0 0 1-2.321.75 3.982 3.982 0 0 1-3.978-3.978 3.982 3.982 0 0 1 3.978-3.978ZM7.32.022.654 6.689h6.668V.022Z"/><path d="M18.881 28.704a13.354 13.354 0 0 1-1.948-6.945v-2.715l.63-.22a4.829 4.829 0 0 0 2.927-2.843l.23-.603h3.307V0H9.195v8.563H.632V32h21.086a13.356 13.356 0 0 1-2.837-3.296ZM6.534 11.881H17.73v1.874H6.534V11.88Zm0 7.621h8.32v1.875h-8.32v-1.875Zm9.112 5.685H6.534v-1.874h9.112v1.874Zm.979-7.621H6.535v-1.874h10.09v1.874Z"/></g><defs><clipPath id="a"><path fill="#fff" d="M0 0h32v32H0z"/></clipPath></defs></svg>