<svg width="32" height="32" fill="none" xmlns="http://www.w3.org/2000/svg"><g clip-path="url(#a)" fill="#F70431"><path d="M23.563 15.125c-4.653 0-8.438 3.785-8.438 8.438 0 4.652 3.785 8.437 8.438 8.437C28.215 32 32 28.215 32 23.562c0-4.652-3.785-8.437-8.438-8.437Zm3.75 9.375h-3.75a.937.937 0 0 1-.938-.938v-3.75a.937.937 0 1 1 1.875 0v2.813h2.813a.937.937 0 1 1 0 1.875Zm2.75-21.625a.928.928 0 0 0-.938-.938h-4.688V4.75a.928.928 0 0 1-.937.938.928.928 0 0 1-.938-.938V1.937h-3.75V4.75a.928.928 0 0 1-.937.938.928.928 0 0 1-.938-.938V1.937h-3.75V4.75a.928.928 0 0 1-.937.938.928.928 0 0 1-.938-.938V1.937h-3.75V4.75a.928.928 0 0 1-.937.938.928.928 0 0 1-.938-.938V1.937H.938A.928.928 0 0 0 0 2.875v4.688h30.063V2.875Z"/><path d="M14.125 18.813h.225c.342-.665.729-1.304 1.201-1.875h-1.426a.937.937 0 1 1 0-1.875H16c.384 0 .712.231.857.561a10.263 10.263 0 0 1 6.643-2.437h-1.875a.937.937 0 1 1 0-1.874H23.5a.937.937 0 1 1 0 1.874c2.491 0 4.778.889 6.563 2.364V9.437H0V27.25c0 .518.42.938.938.938h13.388a10.239 10.239 0 0 1-1.139-4.688c0-1.032.186-2.015.469-2.956a.924.924 0 0 1-.469-.794c0-.518.42-.938.938-.938Zm0-7.5H16a.937.937 0 1 1 0 1.874h-1.875a.937.937 0 1 1 0-1.874ZM8.5 24.437H6.625a.937.937 0 1 1 0-1.875H8.5a.937.937 0 1 1 0 1.875Zm0-3.75H6.625a.937.937 0 1 1 0-1.875H8.5a.937.937 0 1 1 0 1.875Zm0-3.75H6.625a.937.937 0 1 1 0-1.875H8.5a.937.937 0 1 1 0 1.876Zm0-3.75H6.625a.937.937 0 1 1 0-1.874H8.5a.937.937 0 1 1 0 1.874ZM7.563.938A.928.928 0 0 0 6.625 0a.928.928 0 0 0-.938.938v1h1.875v-1Zm5.625 0A.928.928 0 0 0 12.25 0a.928.928 0 0 0-.938.938v1h1.876v-1Zm5.625 0A.928.928 0 0 0 17.875 0a.928.928 0 0 0-.938.938v1h1.875v-1Zm5.625 0A.928.928 0 0 0 23.5 0a.928.928 0 0 0-.938.938v1h1.875v-1Z"/></g><defs><clipPath id="a"><path fill="#fff" d="M0 0h32v32H0z"/></clipPath></defs></svg>