<svg width="188" height="145" fill="none" xmlns="http://www.w3.org/2000/svg"><g clip-path="url(#a)"><path d="M99.035 142.836c39.315 0 71.186-31.975 71.186-71.418C170.221 31.975 138.35 0 99.035 0 59.721 0 27.85 31.975 27.85 71.418c0 39.443 31.871 71.418 71.185 71.418Z" fill="#F3F8FF"/><path d="M173.378 99.433c-3.331 11.296-7.52 21.979-10.279 25.787-.429.592-.824 1.018-1.174 1.254l-.554-.02-7.264-.257-3.567-.126s-5.141-32.06 17.993-55.901c14.247-14.682 11.016 8.342 4.845 29.263Z" fill="#C4D7F2"/><path d="M174.418 70.928a185.16 185.16 0 0 0-3.199 7.293 207.546 207.546 0 0 0-2.906 7.393l-.348.93-.334.933c-.222.623-.452 1.242-.662 1.869l-.323.937c-.108.312-.217.624-.319.938l-.622 1.882-.597 1.888c-.103.314-.194.63-.289.947l-.283.949c-.092.317-.194.63-.283.948l-.269.953c-.177.635-.365 1.266-.525 1.907-1.368 5.096-2.463 10.264-3.162 15.493l-.248 1.965c-.023.163-.037.327-.053.492l-.046.492-.097.985c-.031.328-.067.657-.096.986l-.064.988-.068.989c-.02.33-.052.66-.058.99-.132 2.642-.11 5.29-.023 7.954-.203-1.313-.435-2.631-.54-3.962l-.097-.997-.047-.499-.028-.5-.098-2.004a8.38 8.38 0 0 1-.015-.501l-.002-.502-.006-1.004v-1.004c.008-.334.022-.668.033-1.004l.036-1.004.02-.502c.006-.167.011-.334.026-.501l.148-2.003c.462-5.338 1.461-10.624 2.851-15.79.165-.648.36-1.288.542-1.931l.278-.964c.093-.321.194-.64.294-.96l.301-.957c.101-.319.198-.638.307-.954l.64-1.9.677-1.886.171-.471.179-.468.359-.935c.236-.624.486-1.243.737-1.861l.379-.927.392-.922a118.517 118.517 0 0 1 3.387-7.246 91.536 91.536 0 0 1 2.389-4.388c.167-.288.333-.576.505-.861.344-.568.688-1.138 1.056-1.693Z" fill="#fff"/><path d="M173.378 99.433c-3.331 11.296-7.52 21.979-10.279 25.787-.699.509-1.288.927-1.729 1.234-.56.393-.88.606-.88.606l-6.454-.484s.023-.131.07-.379c.648-3.381 5.871-28.208 19.272-26.764Z" fill="#002E5D" style="mix-blend-mode:multiply" opacity=".28"/><path d="M156.379 127.475s3.167-32.517 19.966-28.106c16.8 4.411-13.493 28.106-13.493 28.106h-6.473Z" fill="#F70431"/><path d="M175.694 103.799a61.95 61.95 0 0 0-2.576 2.773 67.95 67.95 0 0 0-2.396 2.881c-.194.243-.387.487-.573.737-.186.25-.382.491-.565.742-.371.498-.736 1-1.096 1.507-.174.257-.353.51-.531.764-.179.254-.345.515-.517.773-.172.257-.341.518-.509.778-.169.261-.337.52-.496.786a64.939 64.939 0 0 0-3.559 6.537l-.389.85-.196.426-.186.43-.374.86c-.125.288-.236.58-.357.87-.249.578-.463 1.168-.699 1.756-.12.293-.224.591-.335.888-.112.296-.224.594-.346.89.105-1.274.301-2.539.586-3.785.072-.311.141-.624.22-.935l.258-.926c.043-.154.084-.31.132-.462l.15-.457c.1-.306.197-.611.304-.914a36.074 36.074 0 0 1 3.355-6.929c.167-.275.345-.542.522-.81.177-.268.348-.54.539-.799.19-.26.371-.524.561-.786.19-.262.385-.515.581-.769a38.573 38.573 0 0 1 1.862-2.205c.216-.237.435-.47.659-.699a33.066 33.066 0 0 1 2.821-2.602 28.07 28.07 0 0 1 1.527-1.157 16.48 16.48 0 0 1 1.623-1.013Z" fill="#fff"/><path d="M165.938 141.514h-16.933l-1.907-15.973h20.747l-1.907 15.973Z" fill="#ACC6E5"/><path d="m147.098 125.541.231 1.934 19.903 3.196.613-5.13h-20.747Z" fill="#002E5D" style="mix-blend-mode:multiply" opacity=".2"/><path d="m136.331 140.503-81.273-4.688a4.48 4.48 0 0 1-3.094-1.501 4.515 4.515 0 0 1-1.13-3.255L57 23.479a4.517 4.517 0 0 1 1.494-3.104 4.485 4.485 0 0 1 3.245-1.134l81.272 4.689a4.478 4.478 0 0 1 3.094 1.5 4.512 4.512 0 0 1 1.131 3.255l-6.166 107.58a4.508 4.508 0 0 1-1.494 3.103 4.483 4.483 0 0 1-3.245 1.135Z" fill="#C4D7F2"/><path d="M99.035 145.157c39.315 0 71.186-1.695 71.186-3.786s-31.871-3.786-71.186-3.786c-39.314 0-71.185 1.695-71.185 3.786s31.871 3.786 71.185 3.786Z" fill="#D7E4F9"/><path d="m129.918 129.099-81.107 6.998a4.465 4.465 0 0 1-3.276-1.042 4.513 4.513 0 0 1-1.582-3.061L34.75 24.634a4.517 4.517 0 0 1 1.038-3.287 4.491 4.491 0 0 1 3.052-1.586l81.107-6.999a4.48 4.48 0 0 1 3.276 1.043 4.5 4.5 0 0 1 1.582 3.06l9.201 107.36a4.517 4.517 0 0 1-1.038 3.286 4.487 4.487 0 0 1-3.049 1.588Z" fill="#325D9C"/><path d="M42.598 89.226c-4.873 0-9.726-1.089-14.258-3.25-8.022-3.827-14.079-10.56-17.056-18.957a1.09 1.09 0 0 1 .66-1.382 1.08 1.08 0 0 1 1.382.654C17.85 79.054 29.86 87.035 42.648 87.036a30.84 30.84 0 0 0 10.384-1.805c16.152-5.762 24.621-23.63 18.88-39.835a1.092 1.092 0 0 1 .659-1.39 1.082 1.082 0 0 1 1.385.662c2.976 8.397 2.514 17.454-1.301 25.503-3.814 8.048-10.525 14.125-18.895 17.112a33.184 33.184 0 0 1-11.162 1.943Z" fill="#BBD1DC"/><path d="M42.62 56.93a1.07 1.07 0 0 1-.683-.243L12.798 32.964a1.088 1.088 0 0 1 .57-1.926c.287-.03.573.055.796.237l29.14 23.724a1.087 1.087 0 0 1-.684 1.932Z" fill="#325D9C"/><path d="M121.609 24.143h-69.53a4.942 4.942 0 0 0-3.504 1.457 4.974 4.974 0 0 0-1.452 3.516v106.819a4.988 4.988 0 0 0 1.45 3.518 4.956 4.956 0 0 0 3.507 1.458h80.474a4.94 4.94 0 0 0 3.506-1.458 4.984 4.984 0 0 0 1.45-3.518V40.096l-15.901-15.953Z" fill="#fff"/><path d="m123.146 40.096 14.364 4.893v-4.893h-14.364Z" fill="#002E5D" style="mix-blend-mode:multiply" opacity=".25"/><path d="M112.488 40.096H72.145a2.443 2.443 0 0 0-2.438 2.447 2.443 2.443 0 0 0 2.439 2.446h40.342a2.443 2.443 0 0 0 2.439-2.446 2.443 2.443 0 0 0-2.439-2.447Zm-34.732 19.83v4.77h-5.951v19.342H66.1V64.695h-5.986v-4.769h17.642Zm46.648.771H88.657c-1.054 0-1.91.858-1.91 1.916v.14c0 1.057.856 1.915 1.91 1.915h35.747c1.055 0 1.91-.858 1.91-1.916v-.14a1.913 1.913 0 0 0-1.91-1.915Zm0 9.299H88.657c-1.054 0-1.91.858-1.91 1.916v.14c0 1.058.856 1.915 1.91 1.915h35.747c1.055 0 1.91-.857 1.91-1.916v-.139a1.913 1.913 0 0 0-1.91-1.916Zm0 9.3H88.657c-1.054 0-1.91.857-1.91 1.915v.14c0 1.058.856 1.916 1.91 1.916h35.747c1.055 0 1.91-.858 1.91-1.916v-.14a1.913 1.913 0 0 0-1.91-1.915Zm-.07 15.137H68.676c-1.093 0-1.98.89-1.98 1.986 0 1.097.887 1.986 1.98 1.986h55.658a1.982 1.982 0 0 0 1.979-1.986 1.982 1.982 0 0 0-1.979-1.986Zm0 12.063H60.299a1.982 1.982 0 0 0-1.979 1.986c0 1.096.886 1.985 1.98 1.985h64.034a1.982 1.982 0 0 0 1.979-1.985 1.982 1.982 0 0 0-1.979-1.986Zm0 12.062H60.299a1.982 1.982 0 0 0-1.979 1.986c0 1.096.886 1.985 1.98 1.985h64.034a1.982 1.982 0 0 0 1.979-1.985 1.982 1.982 0 0 0-1.979-1.986Z" fill="#C4D7F2"/><path d="m121.609 38.554-2.564-14.411h2.564v14.41Z" fill="#002E5D" style="mix-blend-mode:multiply" opacity=".25"/><path d="M78.696 88.719h-1.868a.595.595 0 0 1-.596-.598.599.599 0 0 1 .596-.598h1.875a.595.595 0 0 1 .596.598.599.599 0 0 1-.596.598h-.007Zm-3.735 0h-1.868a.595.595 0 0 1-.596-.598.599.599 0 0 1 .596-.598h1.868a.595.595 0 0 1 .596.598.599.599 0 0 1-.596.598Zm-3.736 0h-1.867a.595.595 0 0 1-.596-.598.599.599 0 0 1 .596-.598h1.867a.595.595 0 0 1 .596.598.599.599 0 0 1-.596.598Zm-3.735 0h-1.867a.595.595 0 0 1-.596-.598.599.599 0 0 1 .596-.598h1.867a.595.595 0 0 1 .596.598.6.6 0 0 1-.596.598Zm-3.735 0h-1.867a.595.595 0 0 1-.596-.598.599.599 0 0 1 .596-.598h1.867a.595.595 0 0 1 .596.598.599.599 0 0 1-.596.598Zm-3.735 0h-.845c-.437 0-.867-.106-1.256-.306a.595.595 0 0 1-.33-.582.601.601 0 0 1 .416-.524.594.594 0 0 1 .458.042c.22.114.464.172.712.172h.846a.595.595 0 0 1 .596.598.599.599 0 0 1-.596.598v.002Zm20.324-.767a.595.595 0 0 1-.59-.678.6.6 0 0 1 .135-.307c.24-.283.37-.642.37-1.013v-.35a.6.6 0 0 1 .596-.597.595.595 0 0 1 .596.598v.349a2.77 2.77 0 0 1-.652 1.787.597.597 0 0 1-.455.21Zm-23.271-.898a.595.595 0 0 1-.58-.46 2.77 2.77 0 0 1-.074-.64v-1.367a.6.6 0 0 1 .596-.598.595.595 0 0 1 .596.598v1.365c0 .123.015.245.043.364a.6.6 0 0 1-.581.738Zm23.782-2.727a.595.595 0 0 1-.596-.598v-1.873a.6.6 0 0 1 .596-.598.595.595 0 0 1 .596.598v1.873a.601.601 0 0 1-.367.553.593.593 0 0 1-.229.045Zm-23.84-1.016a.595.595 0 0 1-.596-.598V80.84a.6.6 0 0 1 .596-.599.595.595 0 0 1 .596.599v1.873a.599.599 0 0 1-.596.598Zm23.84-2.73a.595.595 0 0 1-.596-.599V78.11a.599.599 0 0 1 .596-.598.595.595 0 0 1 .596.598v1.873a.6.6 0 0 1-.367.553.595.595 0 0 1-.229.045Zm-23.84-1.017a.593.593 0 0 1-.55-.37.6.6 0 0 1-.046-.228v-1.875a.6.6 0 0 1 .596-.598.595.595 0 0 1 .596.598v1.877a.6.6 0 0 1-.596.596Zm23.84-2.73a.594.594 0 0 1-.596-.599v-1.873a.6.6 0 0 1 .596-.599.595.595 0 0 1 .596.599v1.873a.601.601 0 0 1-.367.553.593.593 0 0 1-.229.045Zm-23.84-1.017a.595.595 0 0 1-.596-.598v-1.874a.6.6 0 0 1 .596-.598.595.595 0 0 1 .596.598v1.874a.599.599 0 0 1-.596.598Zm23.84-2.731a.595.595 0 0 1-.596-.598v-1.874a.599.599 0 0 1 .596-.598.595.595 0 0 1 .596.598v1.874a.6.6 0 0 1-.367.552.595.595 0 0 1-.229.046Zm-23.84-1.015a.595.595 0 0 1-.596-.598v-1.874a.6.6 0 0 1 .596-.598.595.595 0 0 1 .596.598v1.874a.6.6 0 0 1-.596.598Zm23.84-2.731a.595.595 0 0 1-.596-.598v-1.875a.6.6 0 0 1 .596-.598.595.595 0 0 1 .596.598v1.874a.6.6 0 0 1-.596.598Zm-23.84-1.017a.595.595 0 0 1-.596-.598v-1.873a.599.599 0 0 1 .596-.598.595.595 0 0 1 .596.598v1.873a.599.599 0 0 1-.596.598Zm23.84-2.73a.595.595 0 0 1-.596-.599v-1.872a.6.6 0 0 1 .596-.598.595.595 0 0 1 .596.598v1.873a.598.598 0 0 1-.596.597Zm-23.84-1.017a.595.595 0 0 1-.596-.598v-1.873a.6.6 0 0 1 .596-.598.595.595 0 0 1 .596.598v1.873a.599.599 0 0 1-.596.598Zm23.84-2.73a.596.596 0 0 1-.596-.599v-1.873a.6.6 0 0 1 .596-.598.595.595 0 0 1 .596.598v1.87a.6.6 0 0 1-.596.6v.001Zm-23.84-1.017a.595.595 0 0 1-.596-.598v-1.873a.599.599 0 0 1 .596-.598.595.595 0 0 1 .596.598v1.873a.599.599 0 0 1-.596.597v.001Zm23.78-2.727a.595.595 0 0 1-.579-.459 1.57 1.57 0 0 0-.812-1.032.596.596 0 0 1-.26-.804.597.597 0 0 1 .802-.262 2.756 2.756 0 0 1 1.43 1.82.6.6 0 0 1-.58.737Zm-23.266-.898a.596.596 0 0 1-.59-.679.599.599 0 0 1 .136-.306 2.757 2.757 0 0 1 2.094-.974.595.595 0 0 1 .596.598.599.599 0 0 1-.596.598 1.559 1.559 0 0 0-1.189.553.596.596 0 0 1-.451.21Zm20.316-.761h-1.867a.595.595 0 0 1-.597-.598.6.6 0 0 1 .597-.598h1.867a.595.595 0 0 1 .596.598.6.6 0 0 1-.596.598Zm-3.735 0h-1.867a.595.595 0 0 1-.596-.598.6.6 0 0 1 .596-.598h1.867a.595.595 0 0 1 .596.598.6.6 0 0 1-.596.598Zm-3.735 0h-1.867a.595.595 0 0 1-.596-.598.6.6 0 0 1 .596-.598h1.867a.595.595 0 0 1 .596.598.6.6 0 0 1-.596.598Zm-3.735 0h-1.867a.595.595 0 0 1-.596-.598.6.6 0 0 1 .596-.598h1.867a.595.595 0 0 1 .596.598.599.599 0 0 1-.596.598Zm-3.735 0h-1.867a.595.595 0 0 1-.596-.598.6.6 0 0 1 .596-.598h1.867a.595.595 0 0 1 .596.598.6.6 0 0 1-.596.598Z" fill="#C4D7F2"/><path d="M123.146 40.096h14.364l-15.901-15.953v14.41c0 .41.162.802.45 1.091.288.29.679.452 1.087.452Z" fill="#fff"/><path d="M130.101 114.519H86.206v-11.852H130.1v11.852Zm-42.812-1.087h41.727v-9.677H87.289v9.677Z" fill="#F70431"/><path d="M108.695 132.041h-35.49v-1.088h34.407v-16.978h1.083v18.066Z" fill="#F70431"/><path d="M77.03 132.015a3.193 3.193 0 0 0-2.632-3.664 3.184 3.184 0 0 0-3.652 2.641 3.193 3.193 0 0 0 2.632 3.664c1.736.282 3.37-.9 3.652-2.641Z" fill="#F70431"/><path d="M19.687 112.127a1.076 1.076 0 0 1-.902-.484 1.09 1.09 0 0 1-.098-1.022L41.62 55.425a1.086 1.086 0 0 1 1.418-.586 1.085 1.085 0 0 1 .584 1.423l-22.934 55.196a1.088 1.088 0 0 1-1 .669Z" fill="#325D9C"/><path d="M60.99 75.33c8.913-8.944 8.913-23.442 0-32.385-8.913-8.942-23.365-8.942-32.278 0-8.914 8.943-8.914 23.441 0 32.384 8.913 8.943 23.365 8.943 32.278 0Z" fill="#002E5D" style="mix-blend-mode:multiply" opacity=".22"/><path d="M42.518 78.59c12.606 0 22.824-10.252 22.824-22.899S55.124 32.792 42.518 32.792c-12.605 0-22.824 10.252-22.824 22.9 0 12.646 10.219 22.898 22.824 22.898Z" fill="#BBD1DC"/><path d="m51.907 48.68-.008-.023c-.008-.023-.018-.044-.028-.067l-.01-.021a.64.64 0 0 0-.11-.156l-8.08-8.479-.007-.005-1.305-1.368c-.535-.561-1.326-.729-2.116-.448-.79.28-1.415.95-1.67 1.793l-.621 2.051-.003.008-3.854 12.716v.008a.952.952 0 0 0-.025.101v.007a.943.943 0 0 0-.01.093v.128a.825.825 0 0 0 .013.096l2.828 14.18c.087.437.504.67.93.519.426-.152.702-.63.615-1.067l-2.67-13.389 3.584-1.271 1.506 7.559c.087.437.504.67.931.518.427-.152.702-.63.614-1.067l-1.507-7.559 4.264-1.514 2.556 12.817c.087.436.503.67.93.518.426-.152.702-.63.615-1.067l-2.556-12.818 3.832-1.36 3.539 17.748c.087.437.504.67.93.518.427-.152.702-.629.615-1.067l-3.698-18.54a.838.838 0 0 0-.023-.093Zm-11.834-8.458a.79.79 0 0 1 .49-.523c.11-.04.394-.106.62.13l1.015 1.066-.485 1.6a.79.79 0 0 1-.49.523c-.111.04-.395.106-.62-.131l-1.016-1.064.485-1.6Zm-4.047 13.35 2.985-9.849.413.434c.536.56 1.327.728 2.117.447.79-.28 1.414-.95 1.67-1.792l.196-.65 6.258 6.567-13.639 4.843Z" fill="#A3B7C1"/><path d="m49.131 49.386-.011-.021a.94.94 0 0 0-.038-.065l-.014-.02a.851.851 0 0 0-.056-.071l-.004-.005a.893.893 0 0 0-.07-.07l-.006-.004-9.503-8.123-.006-.005-1.533-1.31a2.283 2.283 0 0 0-3.732 1.331l-.365 1.988a.05.05 0 0 0 0 .007l-2.26 12.318a.753.753 0 0 0-.012.106v.006a.809.809 0 0 0 0 .09v.025c.003.025.006.05.011.075 0 .007.003.016.005.024a.833.833 0 0 0 .026.093l4.848 13.676a.81.81 0 0 0 1.032.492.81.81 0 0 0 .49-1.035l-4.575-12.913 3.533-1.26 2.584 7.29a.81.81 0 0 0 1.032.492.806.806 0 0 0 .536-.722.813.813 0 0 0-.046-.313l-2.584-7.289 4.203-1.499 4.38 12.363a.81.81 0 0 0 1.032.492.809.809 0 0 0 .491-1.035L44.141 52.13l3.776-1.348L53.982 67.9a.81.81 0 0 0 1.032.492.81.81 0 0 0 .491-1.035L49.17 49.475a.777.777 0 0 0-.039-.089Zm-13.383-8.07a.673.673 0 0 1 .78-.54.67.67 0 0 1 .314.15l1.196 1.022-.285 1.549a.674.674 0 0 1-.78.542.67.67 0 0 1-.314-.15l-1.196-1.022.285-1.55v-.002Zm-2.374 12.932 1.751-9.54.486.415a2.283 2.283 0 0 0 3.732-1.332l.114-.629 7.36 6.291-13.443 4.795Z" fill="#fff"/><path d="M13.48 38.1c3.293 0 5.962-2.677 5.962-5.98 0-3.303-2.669-5.98-5.961-5.98-3.292 0-5.961 2.677-5.961 5.98 0 3.303 2.669 5.98 5.96 5.98Z" fill="#325D9C"/><path d="m131.501 70.548-6.577-1.634 3.96 5.516 2.617-3.882Z" fill="#1F3A6F"/><path d="m174.878 99.716-2.858 4.241-2.163-1.467-9.952-6.752-6.501-4.41-.189-.13h-.001l-1.816-1.232-22.98-15.59.207-.306 2.446-3.63.207-.305 22.978 15.59 1.702 1.155.304.206 2.37 1.608 10.788 7.32 1.508 1.023 1.787 1.212 2.163 1.467Z" fill="#325D9C"/><path d="m156.262 87.086-2.858 4.242-.189-.13h-.001l-1.816-1.232 2.858-4.241 1.702 1.155.304.206Z" fill="#272727"/><path d="m173.023 97.812-3.463 5.138 3.325 2.256 3.463-5.138-3.325-2.256Zm-1.769.918-1.331-.106-.749-3.89-8.557-5.805.613-.909 9.157 6.213.867 4.496Z" fill="#1F3A6F"/><path d="m159.905 95.738-6.501-4.41-.189-.13c.986-1.559 2.078-3.274 2.743-4.319l.305.206 2.369 1.609 1.273 7.044Z" fill="#325D9C"/><path d="M144.787 132.925h-18.842v9.305h18.842v-9.305Z" fill="#93B6D8"/><path d="M139.476 132.925h-18.842v9.305h18.842v-9.305Z" fill="#ACC6E5"/><path d="M160.581 58.131a3.264 3.264 0 0 0-2.691-3.746 3.255 3.255 0 0 0-3.733 2.7 3.264 3.264 0 0 0 2.691 3.746 3.255 3.255 0 0 0 3.733-2.7Z" fill="#fff"/><path d="M25.38 116.751c3.144-3.154 3.144-8.268 0-11.423a8.033 8.033 0 0 0-11.385 0c-3.144 3.155-3.144 8.269 0 11.423a8.033 8.033 0 0 0 11.385 0Z" fill="#BBD1DC"/></g><defs><clipPath id="a"><path fill="#fff" d="M0 0h188v145H0z"/></clipPath></defs></svg>