<svg width="32" height="32" fill="none" xmlns="http://www.w3.org/2000/svg"><g clip-path="url(#a)" fill="#325D9C"><path d="M23.952 24.436v2.23a.486.486 0 0 1-.485.485h-4.024c-.097-.679.339-2.764-.873-5.14h2.085l.533 1.94h2.327c.243 0 .437.194.437.485ZM29.964.679H6.206c-.873 0-1.551.727-1.551 1.551v1.26c.29-.242.63-.436.97-.63v-.63c0-.34.29-.582.581-.582h23.758a.56.56 0 0 1 .582.582v13.624H15.418c-.776.194-1.551.34-2.279.34l-.242.242a6.184 6.184 0 0 1-1.406 1.164 8.057 8.057 0 0 1 6.497 3.442h11.976c.872 0 1.551-.727 1.551-1.551V2.23c0-.873-.727-1.552-1.551-1.552Zm-11.88 18.666a.87.87 0 0 1-.872-.872.87.87 0 0 1 .873-.873.87.87 0 0 1 .873.873.87.87 0 0 1-.873.872Z"/><path d="M13.576 13.624c.048-.145.097-.242.145-.387 1.31-.194 1.552-3.007.437-3.782-.437-2.57-2.425-4.46-4.703-4.46-2.328 0-4.267 1.89-4.703 4.46-1.116.775-.873 3.54.436 3.782.776 2.036 2.376 4.024 4.267 4.024 1.066 0 1.939-.582 2.715-1.406-.727-.097-1.406-.291-1.94-.63a1.945 1.945 0 0 1-.727.145c-1.115 0-2.085-.921-2.085-2.085A2.07 2.07 0 0 1 9.503 11.2a2.07 2.07 0 0 1 2.085 2.085v.146c.582.242 1.357.29 1.988.193Zm-2.182 4.946H7.612c-3.927 0-7.127 3.2-7.127 7.128v3.393c0 .194.145.388.29.437 5.577 2.327 11.443 2.521 17.407 0 .194-.097.29-.242.29-.436v-3.394c0-3.928-3.15-7.128-7.078-7.128Z"/><path d="M2.376 14.4h.048c.776 0 1.406-.63 1.406-1.406v-1.503c0-.63-.388-1.115-.92-1.309.387-3.588 3.15-6.351 6.545-6.351 3.393 0 6.206 2.715 6.545 6.303a1.42 1.42 0 0 0-.921 1.309v1.503c0 .145 0 .242.048.34.049.193.146.387.243.533-1.164.387-3.103.824-4.51-.097a1.38 1.38 0 0 0 .098-.437c0-.776-.63-1.454-1.455-1.454-.776 0-1.454.678-1.454 1.454 0 .825.678 1.455 1.454 1.455.291 0 .533-.097.776-.243 1.745 1.213 4.46.776 6.351-.145.776-.049 1.358-.63 1.358-1.406v-1.503c0-.63-.436-1.164-1.018-1.358-.388-4.121-3.637-7.273-7.515-7.273-3.88 0-7.128 3.152-7.516 7.273-.533.194-.97.727-.97 1.406v1.503c0 .776.631 1.406 1.407 1.406Zm25.842-2.23a.486.486 0 0 1-.485.484h-5.236c-.243 0-.485-.242-.485-.485 0-.242.242-.484.485-.484h5.236c.291 0 .485.194.485.484Zm-.485-6.546h-7.806c-.29 0-.485-.194-.485-.485 0-.29.194-.485.485-.485h7.855c.29 0 .485.194.485.485-.049.243-.243.485-.534.485Zm.485 3.006c0 .291-.194.485-.485.485h-6.06c-.291 0-.485-.194-.485-.485 0-.29.194-.484.485-.484h6.06c.291 0 .485.242.485.484Z"/></g><defs><clipPath id="a"><path fill="#fff" d="M0 0h32v32H0z"/></clipPath></defs></svg>