<svg width="32" height="32" fill="none" xmlns="http://www.w3.org/2000/svg"><g fill="#325D9C" clip-path="url(#a)"><path d="M4.221 0h2.342v3.701H4.221V0Z"/><path d="M30.823 2.788h-1.174v2.788h-6.091V2.788h-4.512v2.788h-6.092V2.788H8.438v2.788H2.346V2.788H1.177c-.645 0-1.17.525-1.17 1.171V32h31.987V3.959c0-.646-.526-1.17-1.171-1.17Zm-1.171 26.87H2.348V7.918h27.304v21.74Z"/><path d="M27.777 9.793H4.223v17.99h23.554V9.793Zm-8.208 4.81-4.291 9.36-1.705-.781 3.778-8.24h-3.983v-1.876h6.201v1.536ZM14.83 0h2.34v3.701h-2.34V0Zm10.603 0h2.341v3.701h-2.341V0Z"/></g><defs><clipPath id="a"><path fill="#fff" d="M0 0h32v32H0z"/></clipPath></defs></svg>