<svg width="32" height="32" fill="none" xmlns="http://www.w3.org/2000/svg"><g clip-path="url(#a)" fill="#325D9C"><path d="M22.4 26.134v-22.4a.533.533 0 0 0-.533-.534H8.533v2.667H9.6V4.8a.533.533 0 0 1 1.067 0v1.067A1.067 1.067 0 0 1 9.6 6.934H8.533a1.067 1.067 0 0 1-1.066-1.067V3.2H4.8a.533.533 0 0 0-.533.534v22.4a.534.534 0 0 0 .533.533h17.067a.533.533 0 0 0 .533-.534Zm-3.2-4.8H7.467a.533.533 0 0 1 0-1.067H19.2a.534.534 0 0 1 0 1.067Zm0-2.667H7.467a.533.533 0 0 1 0-1.067H19.2a.534.534 0 0 1 0 1.067Zm0-2.667H7.467a.533.533 0 0 1 0-1.066H19.2a.534.534 0 0 1 0 1.066Zm0-2.666H7.467a.533.533 0 0 1 0-1.067H19.2a.534.534 0 0 1 0 1.067Zm0-2.667H7.467a.533.533 0 0 1 0-1.067H19.2a.534.534 0 0 1 0 1.067Z"/><path d="M24.533 28.266v-22.4A.533.533 0 0 0 24 5.333h-.533v20.8a1.6 1.6 0 0 1-1.6 1.6H6.4v.533a.534.534 0 0 0 .533.534H24a.533.533 0 0 0 .533-.534Z"/><path d="M26.133 7.467H25.6v20.8a1.6 1.6 0 0 1-1.6 1.6H8.533v.533a.534.534 0 0 0 .534.534h17.066a.533.533 0 0 0 .534-.534V8a.533.533 0 0 0-.534-.533Zm-13.866-6.4v1.066H11.2V1.067H8.533v1.066H7.467V1.067A1.07 1.07 0 0 1 8.533 0H11.2a1.07 1.07 0 0 1 1.067 1.067Z"/></g><defs><clipPath id="a"><path fill="#fff" d="M0 0h32v32H0z"/></clipPath></defs></svg>