<svg width="32" height="32" fill="none" xmlns="http://www.w3.org/2000/svg"><g clip-path="url(#a)"><path d="M9.151 4.556H5.275L9.151.68v3.876ZM4.115 25.634c-1.58-.408-2.86-1.502-3.455-2.953v-4.387c1.303-.198 2.611-.87 3.455-1.765.843.894 2.15 1.567 3.454 1.765v4.387c-.595 1.45-1.875 2.545-3.454 2.953Zm.11-2.982 2.413-2.428a.48.48 0 0 0-.682-.677l-2.073 2.086-.919-.919a.48.48 0 0 0-.68.68l1.26 1.26a.48.48 0 0 0 .681-.002Zm24.372 6.605H4.595v-2.76c1.797-.54 3.24-1.845 3.903-3.55a.482.482 0 0 0 .032-.174V21.04h16.205a.48.48 0 1 0 0-.961H8.53v-2.215a.481.481 0 0 0-.448-.48c-1.344-.09-2.753-.81-3.487-1.771V5.517h5.037a.48.48 0 0 0 .48-.48V0h18.485v29.257Zm-3.382-5.032a.481.481 0 0 0-.48-.48H8.458a.48.48 0 0 0 0 .96h16.277a.481.481 0 0 0 .48-.48ZM15.003 5.882a.48.48 0 0 0 .48.48h4.17a.48.48 0 0 0 0-.96h-4.17a.48.48 0 0 0-.48.48Zm0 1.935a.48.48 0 0 0 .48.48h6.603a.48.48 0 1 0 0-.96h-6.602a.48.48 0 0 0-.481.48Zm10.212 9.077a.48.48 0 0 0-.48-.48H8.458a.48.48 0 1 0 0 .96h16.277a.48.48 0 0 0 .48-.48Zm0-3.666a.48.48 0 0 0-.48-.48H8.458a.48.48 0 1 0 0 .96h16.277a.48.48 0 0 0 .48-.48Zm4.343-10.486v26.996a.48.48 0 0 1-.48.48H7.338V32H31.34V2.743h-1.782Z" fill="#325D9C"/></g><defs><clipPath id="a"><path fill="#fff" d="M0 0h32v32H0z"/></clipPath></defs></svg>