<svg width="32" height="32" fill="none" xmlns="http://www.w3.org/2000/svg"><path fill-rule="evenodd" clip-rule="evenodd" d="M11.14 21.322h19.476v1.327H18.495a.5.5 0 1 0 0 1h12.12v.66H14.684a.5.5 0 1 0 0 1h15.933v1.326H11.14a1.51 1.51 0 0 1-1.506-1.506v-2.3a1.51 1.51 0 0 1 1.506-1.507Zm-7.766-6.068 7.28 5.116c.157-.032.32-.048.486-.048h17.924l-4.91-3.164c-.772.149-1.544.297-2.317.437-.97.177-1.95.338-2.94.338-.989 0-1.969-.161-2.94-.338-1.97-.358-3.936-.753-5.908-1.113v-1.228H3.374ZM1 16.76c0-.594.349-1.111.852-1.356l7.75 5.448a2.504 2.504 0 0 0-.968 1.976c0 .78-.014 1.572 0 2.35l-7.302-5.251c-.266-.191-.332-.535-.332-.866V16.76Zm29.18-3.98.82.473v3.372l-1.32-.992-1.319.992v-3.372l.82-.473V8.731l-10.284 2.732L7.42 8.414l11.477-3.049 11.478 3.05-.194.05v4.315Zm-3.434-2.367v5.235c-9.368 1.713-6.329 1.713-15.697 0v-5.235l7.848 2.085 7.849-2.085Z" fill="#325D9C"/></svg>