<svg width="978" height="650" fill="none" xmlns="http://www.w3.org/2000/svg"><g opacity=".2" clip-path="url(#a)" stroke="#BBD1DC" stroke-width="4" stroke-miterlimit="10"><path d="M578.3-56.174c0 16.61-13.664 16.61-13.664 33.225 0 16.614 13.664 16.61 13.664 33.221 0 16.61-13.664 16.614-13.664 33.225 0 16.61 13.664 16.61 13.664 33.225 0 16.614-13.664 16.61-13.664 33.225 0 16.614 13.664 16.611 13.664 33.225s-13.664 16.611-13.664 33.221c0 16.611 13.664 16.615 13.664 33.225 0 16.611-13.664 16.615-13.664 33.225 0 16.611 13.664 16.614 13.664 33.225s-13.664 16.611-13.664 33.207S578.3 325.885 578.3 342.5c0 16.614-13.664 16.61-13.664 33.221 0 16.611 13.664 16.614 13.664 33.225s-13.664 16.614-13.664 33.229c0 16.614 13.664 16.61 13.664 33.224 0 16.615-13.664 16.611-13.664 33.225 0 16.615 13.664 16.615 13.664 33.225 0 16.611-13.664 16.615-13.664 33.225 0 16.611 13.664 16.615 13.664 33.229s-13.664 16.611-13.664 33.225 13.664 16.614 13.664 33.229c0 16.614-13.664 16.614-13.664 33.228M543.388-56.174c0 16.61-13.665 16.61-13.665 33.225 0 16.614 13.665 16.61 13.665 33.221 0 16.61-13.665 16.614-13.665 33.225 0 16.61 13.665 16.61 13.665 33.225 0 16.614-13.665 16.61-13.665 33.225 0 16.614 13.665 16.611 13.665 33.225s-13.665 16.611-13.665 33.221c0 16.611 13.665 16.615 13.665 33.225 0 16.611-13.665 16.615-13.665 33.225 0 16.611 13.665 16.614 13.665 33.225s-13.665 16.611-13.665 33.221c0 16.611 13.665 16.611 13.665 33.225 0 16.615-13.665 16.611-13.665 33.222 0 16.61 13.665 16.614 13.665 33.225 0 16.61-13.665 16.614-13.665 33.228 0 16.615 13.665 16.611 13.665 33.225 0 16.615-13.665 16.611-13.665 33.225s13.665 16.614 13.665 33.225-13.665 16.614-13.665 33.225 13.665 16.614 13.665 33.229c0 16.614-13.665 16.61-13.665 33.225 0 16.614 13.665 16.614 13.665 33.228 0 16.615-13.665 16.615-13.665 33.229M508.475-56.174c0 16.61-13.664 16.61-13.664 33.225 0 16.614 13.664 16.61 13.664 33.221 0 16.61-13.664 16.614-13.664 33.225 0 16.61 13.664 16.61 13.664 33.225 0 16.614-13.664 16.61-13.664 33.225 0 16.614 13.664 16.611 13.664 33.225s-13.664 16.611-13.664 33.221c0 16.611 13.664 16.615 13.664 33.225 0 16.611-13.664 16.615-13.664 33.225 0 16.611 13.664 16.614 13.664 33.225s-13.664 16.611-13.664 33.221c0 16.611 13.664 16.611 13.664 33.225 0 16.615-13.664 16.611-13.664 33.222 0 16.61 13.664 16.614 13.664 33.225 0 16.61-13.664 16.614-13.664 33.228 0 16.615 13.664 16.611 13.664 33.225 0 16.615-13.664 16.611-13.664 33.225s13.664 16.614 13.664 33.225-13.664 16.614-13.664 33.225 13.664 16.614 13.664 33.229c0 16.614-13.664 16.61-13.664 33.225 0 16.614 13.664 16.614 13.664 33.228 0 16.615-13.664 16.615-13.664 33.229M473.566-56.174c0 16.61-13.668 16.61-13.668 33.225 0 16.614 13.668 16.61 13.668 33.221 0 16.61-13.668 16.614-13.668 33.225 0 16.61 13.668 16.61 13.668 33.225 0 16.614-13.668 16.61-13.668 33.225 0 16.614 13.668 16.611 13.668 33.225s-13.668 16.611-13.668 33.221c0 16.611 13.668 16.615 13.668 33.225 0 16.611-13.668 16.615-13.668 33.225 0 16.611 13.668 16.614 13.668 33.225s-13.668 16.611-13.668 33.221c0 16.611 13.668 16.611 13.668 33.225 0 16.615-13.668 16.611-13.668 33.222 0 16.61 13.668 16.614 13.668 33.225 0 16.61-13.668 16.614-13.668 33.228 0 16.615 13.668 16.611 13.668 33.225 0 16.615-13.668 16.611-13.668 33.225s13.668 16.614 13.668 33.225-13.668 16.614-13.668 33.225 13.668 16.614 13.668 33.229c0 16.614-13.668 16.61-13.668 33.225 0 16.614 13.668 16.614 13.668 33.228 0 16.615-13.668 16.615-13.668 33.229M438.653-56.174c0 16.61-13.664 16.61-13.664 33.225 0 16.614 13.664 16.61 13.664 33.221 0 16.61-13.664 16.614-13.664 33.225 0 16.61 13.664 16.61 13.664 33.225 0 16.614-13.664 16.61-13.664 33.225 0 16.614 13.664 16.611 13.664 33.225s-13.664 16.611-13.664 33.221c0 16.611 13.664 16.615 13.664 33.225 0 16.611-13.664 16.615-13.664 33.225 0 16.611 13.664 16.614 13.664 33.225s-13.664 16.611-13.664 33.221c0 16.611 13.664 16.611 13.664 33.225 0 16.615-13.664 16.611-13.664 33.222 0 16.61 13.664 16.614 13.664 33.225 0 16.61-13.664 16.614-13.664 33.228 0 16.615 13.664 16.611 13.664 33.225 0 16.615-13.664 16.611-13.664 33.225s13.664 16.614 13.664 33.225-13.664 16.614-13.664 33.225 13.664 16.614 13.664 33.229c0 16.614-13.664 16.61-13.664 33.225 0 16.614 13.664 16.614 13.664 33.228 0 16.615-13.664 16.615-13.664 33.229M403.741-56.174c0 16.61-13.665 16.61-13.665 33.225 0 16.614 13.665 16.61 13.665 33.221 0 16.61-13.665 16.614-13.665 33.225 0 16.61 13.665 16.61 13.665 33.225 0 16.614-13.665 16.61-13.665 33.225 0 16.614 13.665 16.611 13.665 33.225s-13.665 16.611-13.665 33.221c0 16.611 13.665 16.615 13.665 33.225 0 16.611-13.665 16.615-13.665 33.225 0 16.611 13.665 16.614 13.665 33.225s-13.665 16.611-13.665 33.221c0 16.611 13.665 16.611 13.665 33.225 0 16.615-13.665 16.611-13.665 33.222 0 16.61 13.665 16.614 13.665 33.225 0 16.61-13.665 16.614-13.665 33.228 0 16.615 13.665 16.611 13.665 33.225 0 16.615-13.665 16.611-13.665 33.225s13.665 16.614 13.665 33.225-13.665 16.614-13.665 33.225 13.665 16.614 13.665 33.229c0 16.614-13.665 16.61-13.665 33.225 0 16.614 13.665 16.614 13.665 33.228 0 16.615-13.665 16.615-13.665 33.229m-21.23-764.174c0 16.61-13.668 16.61-13.668 33.225 0 16.614 13.668 16.61 13.668 33.221 0 16.61-13.668 16.614-13.668 33.225 0 16.61 13.668 16.61 13.668 33.225 0 16.614-13.668 16.61-13.668 33.225 0 16.614 13.668 16.603 13.668 33.225s-13.668 16.611-13.668 33.221c0 16.611 13.668 16.615 13.668 33.225 0 16.611-13.668 16.615-13.668 33.225 0 16.611 13.668 16.614 13.668 33.225s-13.683 16.611-13.683 33.207 13.683 16.625 13.683 33.239c0 16.615-13.668 16.611-13.668 33.222 0 16.61 13.668 16.629 13.668 33.225s-13.668 16.614-13.668 33.228c0 16.615 13.668 16.611 13.668 33.225 0 16.615-13.668 16.611-13.668 33.225s13.668 16.614 13.668 33.225-13.668 16.614-13.668 33.225 13.668 16.614 13.668 33.229c0 16.614-13.668 16.61-13.668 33.225 0 16.614 13.668 16.614 13.668 33.228 0 16.615-13.668 16.615-13.668 33.229M333.919-56.174c0 16.61-13.665 16.61-13.665 33.225 0 16.614 13.665 16.61 13.665 33.221 0 16.61-13.665 16.614-13.665 33.225 0 16.61 13.665 16.61 13.665 33.225 0 16.614-13.665 16.61-13.665 33.225 0 16.614 13.665 16.611 13.665 33.225s-13.665 16.611-13.665 33.221c0 16.611 13.665 16.615 13.665 33.225 0 16.611-13.665 16.615-13.665 33.225 0 16.611 13.665 16.614 13.665 33.225s-13.665 16.611-13.665 33.207 13.665 16.61 13.665 33.225c0 16.614-13.665 16.61-13.665 33.221 0 16.611 13.665 16.614 13.665 33.225s-13.665 16.614-13.665 33.229c0 16.614 13.665 16.61 13.665 33.224 0 16.615-13.665 16.611-13.665 33.225 0 16.615 13.665 16.615 13.665 33.225 0 16.611-13.665 16.615-13.665 33.225 0 16.611 13.665 16.615 13.665 33.229s-13.665 16.611-13.665 33.225 13.665 16.614 13.665 33.229c0 16.614-13.665 16.614-13.665 33.228M299.006-56.174c0 16.61-13.664 16.61-13.664 33.225 0 16.614 13.664 16.61 13.664 33.221 0 16.61-13.664 16.614-13.664 33.225 0 16.61 13.664 16.61 13.664 33.225 0 16.614-13.664 16.61-13.664 33.225 0 16.614 13.664 16.611 13.664 33.225s-13.664 16.611-13.664 33.221c0 16.611 13.664 16.615 13.664 33.225 0 16.611-13.664 16.615-13.664 33.225 0 16.611 13.664 16.614 13.664 33.225s-13.664 16.611-13.664 33.207 13.664 16.61 13.664 33.225c0 16.614-13.664 16.61-13.664 33.221 0 16.611 13.664 16.614 13.664 33.225s-13.664 16.614-13.664 33.229c0 16.614 13.664 16.61 13.664 33.224 0 16.615-13.664 16.611-13.664 33.225 0 16.615 13.664 16.615 13.664 33.225 0 16.611-13.664 16.629-13.664 33.24s13.664 16.614 13.664 33.229c0 16.614-13.664 16.61-13.664 33.225 0 16.614 13.664 16.614 13.664 33.228 0 16.615-13.664 16.615-13.664 33.229M264.093-56.174c0 16.61-13.664 16.61-13.664 33.225 0 16.614 13.664 16.61 13.664 33.221 0 16.61-13.664 16.614-13.664 33.225 0 16.61 13.664 16.61 13.664 33.225 0 16.614-13.664 16.61-13.664 33.225 0 16.614 13.664 16.611 13.664 33.225s-13.664 16.611-13.664 33.221c0 16.611 13.664 16.615 13.664 33.225 0 16.611-13.664 16.615-13.664 33.225 0 16.611 13.664 16.614 13.664 33.225s-13.664 16.611-13.664 33.207 13.664 16.61 13.664 33.225c0 16.614-13.664 16.61-13.664 33.221 0 16.611 13.664 16.614 13.664 33.225s-13.664 16.614-13.664 33.229c0 16.614 13.664 16.61 13.664 33.224 0 16.615-13.664 16.611-13.664 33.225 0 16.615 13.664 16.615 13.664 33.225 0 16.611-13.664 16.615-13.664 33.225 0 16.611 13.664 16.615 13.664 33.229s-13.664 16.611-13.664 33.225 13.664 16.614 13.664 33.229c0 16.614-13.664 16.614-13.664 33.228M229.181-56.174c0 16.61-13.668 16.61-13.668 33.225 0 16.614 13.668 16.61 13.668 33.221 0 16.61-13.668 16.614-13.668 33.225 0 16.61 13.668 16.61 13.668 33.225 0 16.614-13.668 16.61-13.668 33.225 0 16.614 13.668 16.603 13.668 33.225s-13.668 16.611-13.668 33.221c0 16.611 13.668 16.615 13.668 33.225 0 16.611-13.668 16.615-13.668 33.225 0 16.611 13.668 16.614 13.668 33.225s-13.665 16.611-13.665 33.207 13.665 16.625 13.665 33.239c0 16.615-13.668 16.611-13.668 33.222 0 16.61 13.668 16.629 13.668 33.225s-13.668 16.614-13.668 33.228c0 16.615 13.668 16.611 13.668 33.225 0 16.615-13.668 16.611-13.668 33.225s13.668 16.614 13.668 33.225-13.668 16.614-13.668 33.225 13.668 16.614 13.668 33.229c0 16.614-13.668 16.61-13.668 33.225 0 16.614 13.668 16.614 13.668 33.228 0 16.615-13.668 16.615-13.668 33.229M194.272-56.174c0 16.61-13.665 16.61-13.665 33.225 0 16.614 13.665 16.61 13.665 33.221 0 16.61-13.665 16.614-13.665 33.225 0 16.61 13.665 16.61 13.665 33.225 0 16.614-13.665 16.61-13.665 33.225 0 16.614 13.665 16.611 13.665 33.225s-13.665 16.611-13.665 33.221c0 16.611 13.665 16.615 13.665 33.225 0 16.611-13.665 16.615-13.665 33.225 0 16.611 13.665 16.614 13.665 33.225s-13.665 16.611-13.665 33.207 13.665 16.61 13.665 33.225c0 16.614-13.665 16.61-13.665 33.221 0 16.611 13.665 16.614 13.665 33.225s-13.665 16.614-13.665 33.229c0 16.614 13.665 16.61 13.665 33.224 0 16.615-13.665 16.611-13.665 33.225 0 16.615 13.665 16.615 13.665 33.225 0 16.611-13.665 16.615-13.665 33.225 0 16.611 13.665 16.615 13.665 33.229s-13.665 16.611-13.665 33.225 13.665 16.614 13.665 33.229c0 16.614-13.665 16.614-13.665 33.228M159.359-56.174c0 16.61-13.664 16.61-13.664 33.225 0 16.614 13.664 16.61 13.664 33.221 0 16.61-13.664 16.614-13.664 33.225 0 16.61 13.664 16.61 13.664 33.225 0 16.614-13.664 16.61-13.664 33.225 0 16.614 13.664 16.611 13.664 33.225s-13.664 16.611-13.664 33.221c0 16.611 13.664 16.615 13.664 33.225 0 16.611-13.664 16.615-13.664 33.225 0 16.611 13.664 16.614 13.664 33.225s-13.664 16.611-13.664 33.207 13.664 16.61 13.664 33.225c0 16.614-13.664 16.61-13.664 33.221 0 16.611 13.664 16.614 13.664 33.225s-13.664 16.614-13.664 33.229c0 16.614 13.664 16.61 13.664 33.224 0 16.615-13.664 16.611-13.664 33.225 0 16.615 13.664 16.615 13.664 33.225 0 16.611-13.664 16.615-13.664 33.225 0 16.611 13.664 16.615 13.664 33.229s-13.664 16.611-13.664 33.225 13.664 16.614 13.664 33.229c0 16.614-13.664 16.614-13.664 33.228M124.45-56.174c0 16.61-13.668 16.61-13.668 33.225 0 16.614 13.668 16.61 13.668 33.221 0 16.61-13.668 16.614-13.668 33.225 0 16.61 13.668 16.61 13.668 33.225 0 16.614-13.668 16.61-13.668 33.225 0 16.614 13.668 16.603 13.668 33.225s-13.668 16.611-13.668 33.221c0 16.611 13.668 16.615 13.668 33.225 0 16.611-13.668 16.615-13.668 33.225 0 16.611 13.668 16.614 13.668 33.225s-13.668 16.611-13.668 33.207 13.668 16.61 13.668 33.225c0 16.614-13.668 16.61-13.668 33.221 0 16.611 13.668 16.614 13.668 33.225s-13.668 16.614-13.668 33.229c0 16.614 13.668 16.61 13.668 33.224 0 16.615-13.668 16.611-13.668 33.225 0 16.615 13.668 16.615 13.668 33.225 0 16.611-13.668 16.615-13.668 33.225 0 16.611 13.668 16.615 13.668 33.229s-13.668 16.611-13.668 33.225 13.668 16.614 13.668 33.229c0 16.614-13.668 16.614-13.668 33.228M89.537-56.174c0 16.61-13.668 16.61-13.668 33.225 0 16.614 13.668 16.61 13.668 33.221 0 16.61-13.657 16.614-13.657 33.225 0 16.61 13.668 16.61 13.668 33.225 0 16.614-13.668 16.61-13.668 33.225 0 16.614 13.668 16.611 13.668 33.225S75.88 159.783 75.88 176.393c0 16.611 13.668 16.615 13.668 33.225 0 16.611-13.668 16.615-13.668 33.225 0 16.611 13.668 16.614 13.668 33.225S75.88 292.679 75.88 309.275s13.668 16.61 13.668 33.225c0 16.614-13.668 16.625-13.668 33.236 0 16.61 13.668 16.614 13.668 33.225 0 16.61-13.668 16.614-13.668 33.228 0 16.615 13.668 16.611 13.668 33.225 0 16.615-13.668 16.611-13.668 33.225s13.668 16.614 13.668 33.225-13.668 16.614-13.668 33.225 13.668 16.614 13.668 33.229c0 16.614-13.668 16.61-13.668 33.225 0 16.614 13.668 16.614 13.668 33.228 0 16.615-13.668 16.615-13.668 33.229M54.625-56.174c0 16.61-13.665 16.61-13.665 33.225 0 16.614 13.665 16.61 13.665 33.221 0 16.61-13.665 16.614-13.665 33.225 0 16.61 13.665 16.61 13.665 33.225 0 16.614-13.665 16.61-13.665 33.225 0 16.614 13.665 16.611 13.665 33.225S40.96 159.783 40.96 176.393c0 16.611 13.665 16.615 13.665 33.225 0 16.611-13.665 16.615-13.665 33.225 0 16.611 13.665 16.614 13.665 33.225S40.96 292.679 40.96 309.275s13.665 16.61 13.665 33.225c0 16.614-13.665 16.61-13.665 33.221 0 16.611 13.665 16.614 13.665 33.225S40.96 425.56 40.96 442.175c0 16.614 13.665 16.61 13.665 33.224 0 16.615-13.665 16.611-13.665 33.225 0 16.615 13.665 16.615 13.665 33.225 0 16.611-13.665 16.615-13.665 33.225 0 16.611 13.665 16.615 13.665 33.229S40.96 624.914 40.96 641.528s13.665 16.614 13.665 33.229c0 16.614-13.665 16.614-13.665 33.228M19.712-56.174c0 16.61-13.665 16.61-13.665 33.225 0 16.614 13.665 16.61 13.665 33.221 0 16.61-13.665 16.614-13.665 33.225 0 16.61 13.665 16.61 13.665 33.225 0 16.614-13.665 16.61-13.665 33.225 0 16.614 13.665 16.603 13.665 33.225S6.047 159.783 6.047 176.393c0 16.611 13.665 16.615 13.665 33.225 0 16.611-13.665 16.615-13.665 33.225 0 16.611 13.665 16.614 13.665 33.225S6.047 292.679 6.047 309.275s13.665 16.61 13.665 33.225c0 16.614-13.665 16.625-13.665 33.236 0 16.61 13.665 16.614 13.665 33.225 0 16.61-13.665 16.614-13.665 33.228 0 16.615 13.665 16.611 13.665 33.225 0 16.615-13.665 16.611-13.665 33.225s13.665 16.614 13.665 33.225-13.665 16.614-13.665 33.225 13.665 16.614 13.665 33.229c0 16.614-13.665 16.61-13.665 33.225 0 16.614 13.665 16.614 13.665 33.228 0 16.615-13.665 16.615-13.665 33.229M959.929-58c0 16.61-13.668 16.61-13.668 33.225 0 16.614 13.668 16.61 13.668 33.221 0 16.61-13.668 16.615-13.668 33.225 0 16.61 13.668 16.61 13.668 33.225 0 16.614-13.668 16.61-13.668 33.225 0 16.614 13.668 16.603 13.668 33.225s-13.668 16.611-13.668 33.221c0 16.611 13.668 16.615 13.668 33.225 0 16.611-13.668 16.615-13.668 33.225 0 16.611 13.668 16.615 13.668 33.225 0 16.611-13.683 16.611-13.683 33.207s13.683 16.625 13.683 33.239c0 16.615-13.668 16.611-13.668 33.222 0 16.61 13.668 16.629 13.668 33.225s-13.668 16.614-13.668 33.228c0 16.615 13.668 16.611 13.668 33.225 0 16.615-13.668 16.611-13.668 33.225 0 16.615 13.668 16.615 13.668 33.225 0 16.611-13.668 16.614-13.668 33.225s13.668 16.614 13.668 33.229c0 16.614-13.668 16.61-13.668 33.225 0 16.614 13.668 16.614 13.668 33.228 0 16.615-13.668 16.615-13.668 33.229M925.002-58c0 16.61-13.665 16.61-13.665 33.225 0 16.614 13.665 16.61 13.665 33.221 0 16.61-13.665 16.615-13.665 33.225 0 16.61 13.665 16.61 13.665 33.225 0 16.614-13.665 16.61-13.665 33.225 0 16.614 13.665 16.611 13.665 33.225s-13.665 16.611-13.665 33.221c0 16.611 13.665 16.615 13.665 33.225 0 16.611-13.665 16.615-13.665 33.225 0 16.611 13.665 16.615 13.665 33.225 0 16.611-13.665 16.611-13.665 33.207s13.665 16.61 13.665 33.225c0 16.614-13.665 16.61-13.665 33.221 0 16.611 13.665 16.614 13.665 33.225s-13.665 16.614-13.665 33.229c0 16.614 13.665 16.61 13.665 33.225 0 16.614-13.665 16.61-13.665 33.225 0 16.614 13.665 16.614 13.665 33.224 0 16.611-13.665 16.615-13.665 33.225 0 16.611 13.665 16.615 13.665 33.229s-13.665 16.611-13.665 33.225 13.665 16.614 13.665 33.229c0 16.614-13.665 16.614-13.665 33.228M890.089-58c0 16.61-13.664 16.61-13.664 33.225 0 16.614 13.664 16.61 13.664 33.221 0 16.61-13.664 16.615-13.664 33.225 0 16.61 13.664 16.61 13.664 33.225 0 16.614-13.664 16.61-13.664 33.225 0 16.614 13.664 16.611 13.664 33.225s-13.664 16.611-13.664 33.221c0 16.611 13.664 16.615 13.664 33.225 0 16.611-13.664 16.615-13.664 33.225 0 16.611 13.664 16.615 13.664 33.225 0 16.611-13.664 16.611-13.664 33.207s13.664 16.61 13.664 33.225c0 16.614-13.664 16.61-13.664 33.221 0 16.611 13.664 16.614 13.664 33.225s-13.664 16.614-13.664 33.229c0 16.614 13.664 16.61 13.664 33.225 0 16.614-13.664 16.61-13.664 33.225 0 16.614 13.664 16.614 13.664 33.224 0 16.611-13.664 16.629-13.664 33.24s13.664 16.614 13.664 33.229c0 16.614-13.664 16.61-13.664 33.225 0 16.614 13.664 16.614 13.664 33.228 0 16.615-13.664 16.615-13.664 33.229M855.176-58c0 16.61-13.664 16.61-13.664 33.225 0 16.614 13.664 16.61 13.664 33.221 0 16.61-13.664 16.615-13.664 33.225 0 16.61 13.664 16.61 13.664 33.225 0 16.614-13.664 16.61-13.664 33.225 0 16.614 13.664 16.611 13.664 33.225s-13.664 16.611-13.664 33.221c0 16.611 13.664 16.615 13.664 33.225 0 16.611-13.664 16.615-13.664 33.225 0 16.611 13.664 16.615 13.664 33.225 0 16.611-13.664 16.611-13.664 33.207s13.664 16.61 13.664 33.225c0 16.614-13.664 16.61-13.664 33.221 0 16.611 13.664 16.614 13.664 33.225s-13.664 16.614-13.664 33.229c0 16.614 13.664 16.61 13.664 33.225 0 16.614-13.664 16.61-13.664 33.225 0 16.614 13.664 16.614 13.664 33.224 0 16.611-13.664 16.615-13.664 33.225 0 16.611 13.664 16.615 13.664 33.229s-13.664 16.611-13.664 33.225 13.664 16.614 13.664 33.229c0 16.614-13.664 16.614-13.664 33.228M820.264-58c0 16.61-13.668 16.61-13.668 33.225 0 16.614 13.668 16.61 13.668 33.221 0 16.61-13.668 16.615-13.668 33.225 0 16.61 13.668 16.61 13.668 33.225 0 16.614-13.668 16.61-13.668 33.225 0 16.614 13.668 16.603 13.668 33.225s-13.668 16.611-13.668 33.221c0 16.611 13.668 16.615 13.668 33.225 0 16.611-13.668 16.615-13.668 33.225 0 16.611 13.668 16.615 13.668 33.225 0 16.611-13.665 16.611-13.665 33.207s13.665 16.625 13.665 33.239c0 16.615-13.668 16.611-13.668 33.222 0 16.61 13.668 16.629 13.668 33.225s-13.668 16.614-13.668 33.228c0 16.615 13.668 16.611 13.668 33.225 0 16.615-13.668 16.611-13.668 33.225 0 16.615 13.668 16.615 13.668 33.225 0 16.611-13.668 16.614-13.668 33.225s13.668 16.614 13.668 33.229c0 16.614-13.668 16.61-13.668 33.225 0 16.614 13.668 16.614 13.668 33.228 0 16.615-13.668 16.615-13.668 33.229M785.355-58c0 16.61-13.665 16.61-13.665 33.225 0 16.614 13.665 16.61 13.665 33.221 0 16.61-13.665 16.615-13.665 33.225 0 16.61 13.665 16.61 13.665 33.225 0 16.614-13.665 16.61-13.665 33.225 0 16.614 13.665 16.611 13.665 33.225s-13.665 16.611-13.665 33.221c0 16.611 13.665 16.615 13.665 33.225 0 16.611-13.665 16.615-13.665 33.225 0 16.611 13.665 16.615 13.665 33.225 0 16.611-13.665 16.611-13.665 33.207s13.665 16.61 13.665 33.225c0 16.614-13.665 16.61-13.665 33.221 0 16.611 13.665 16.614 13.665 33.225s-13.665 16.614-13.665 33.229c0 16.614 13.665 16.61 13.665 33.225 0 16.614-13.665 16.61-13.665 33.225 0 16.614 13.665 16.614 13.665 33.224 0 16.611-13.665 16.615-13.665 33.225 0 16.611 13.665 16.615 13.665 33.229s-13.665 16.611-13.665 33.225 13.665 16.614 13.665 33.229c0 16.614-13.665 16.614-13.665 33.228M750.442-58c0 16.61-13.665 16.61-13.665 33.225 0 16.614 13.665 16.61 13.665 33.221 0 16.61-13.665 16.615-13.665 33.225 0 16.61 13.665 16.61 13.665 33.225 0 16.614-13.665 16.61-13.665 33.225 0 16.614 13.665 16.611 13.665 33.225s-13.665 16.611-13.665 33.221c0 16.611 13.665 16.615 13.665 33.225 0 16.611-13.665 16.615-13.665 33.225 0 16.611 13.665 16.615 13.665 33.225 0 16.611-13.665 16.611-13.665 33.207s13.665 16.61 13.665 33.225c0 16.614-13.665 16.61-13.665 33.221 0 16.611 13.665 16.614 13.665 33.225s-13.665 16.614-13.665 33.229c0 16.614 13.665 16.61 13.665 33.225 0 16.614-13.665 16.61-13.665 33.225 0 16.614 13.665 16.614 13.665 33.224 0 16.611-13.665 16.615-13.665 33.225 0 16.611 13.665 16.615 13.665 33.229s-13.665 16.611-13.665 33.225 13.665 16.614 13.665 33.229c0 16.614-13.665 16.614-13.665 33.228M715.533-58c0 16.61-13.668 16.61-13.668 33.225 0 16.614 13.668 16.61 13.668 33.221 0 16.61-13.668 16.615-13.668 33.225 0 16.61 13.668 16.61 13.668 33.225 0 16.614-13.668 16.61-13.668 33.225 0 16.614 13.668 16.603 13.668 33.225s-13.668 16.611-13.668 33.221c0 16.611 13.668 16.615 13.668 33.225 0 16.611-13.668 16.615-13.668 33.225 0 16.611 13.668 16.615 13.668 33.225 0 16.611-13.668 16.611-13.668 33.207s13.668 16.61 13.668 33.225c0 16.614-13.668 16.61-13.668 33.221 0 16.611 13.668 16.614 13.668 33.225s-13.668 16.614-13.668 33.229c0 16.614 13.668 16.61 13.668 33.225 0 16.614-13.668 16.61-13.668 33.225 0 16.614 13.668 16.614 13.668 33.224 0 16.611-13.668 16.615-13.668 33.225 0 16.611 13.668 16.615 13.668 33.229s-13.668 16.611-13.668 33.225 13.668 16.614 13.668 33.229c0 16.614-13.668 16.614-13.668 33.228M680.62-58c0 16.61-13.668 16.61-13.668 33.225 0 16.614 13.668 16.61 13.668 33.221 0 16.61-13.657 16.615-13.657 33.225 0 16.61 13.668 16.61 13.668 33.225 0 16.614-13.668 16.61-13.668 33.225 0 16.614 13.668 16.611 13.668 33.225s-13.668 16.611-13.668 33.221c0 16.611 13.668 16.615 13.668 33.225 0 16.611-13.668 16.615-13.668 33.225 0 16.611 13.668 16.615 13.668 33.225 0 16.611-13.668 16.611-13.668 33.207s13.668 16.61 13.668 33.225c0 16.614-13.668 16.625-13.668 33.236 0 16.61 13.668 16.614 13.668 33.225 0 16.61-13.668 16.614-13.668 33.228 0 16.615 13.668 16.611 13.668 33.225 0 16.615-13.668 16.611-13.668 33.225 0 16.615 13.668 16.615 13.668 33.225 0 16.611-13.668 16.614-13.668 33.225s13.668 16.614 13.668 33.229c0 16.614-13.668 16.61-13.668 33.225 0 16.614 13.668 16.614 13.668 33.228 0 16.615-13.668 16.615-13.668 33.229M645.707-58c0 16.61-13.664 16.61-13.664 33.225 0 16.614 13.664 16.61 13.664 33.221 0 16.61-13.664 16.615-13.664 33.225 0 16.61 13.664 16.61 13.664 33.225 0 16.614-13.664 16.61-13.664 33.225 0 16.614 13.664 16.611 13.664 33.225s-13.664 16.611-13.664 33.221c0 16.611 13.664 16.615 13.664 33.225 0 16.611-13.664 16.615-13.664 33.225 0 16.611 13.664 16.615 13.664 33.225 0 16.611-13.664 16.611-13.664 33.207s13.664 16.61 13.664 33.225c0 16.614-13.664 16.61-13.664 33.221 0 16.611 13.664 16.614 13.664 33.225s-13.664 16.614-13.664 33.229c0 16.614 13.664 16.61 13.664 33.225 0 16.614-13.664 16.61-13.664 33.225 0 16.614 13.664 16.614 13.664 33.224 0 16.611-13.664 16.615-13.664 33.225 0 16.611 13.664 16.615 13.664 33.229s-13.664 16.611-13.664 33.225 13.664 16.614 13.664 33.229c0 16.614-13.664 16.614-13.664 33.228M610.795-58c0 16.61-13.665 16.61-13.665 33.225 0 16.614 13.665 16.61 13.665 33.221 0 16.61-13.665 16.615-13.665 33.225 0 16.61 13.665 16.61 13.665 33.225 0 16.614-13.665 16.61-13.665 33.225 0 16.614 13.665 16.603 13.665 33.225s-13.665 16.611-13.665 33.221c0 16.611 13.665 16.615 13.665 33.225 0 16.611-13.665 16.615-13.665 33.225 0 16.611 13.665 16.615 13.665 33.225 0 16.611-13.665 16.611-13.665 33.207s13.665 16.61 13.665 33.225c0 16.614-13.665 16.625-13.665 33.236 0 16.61 13.665 16.614 13.665 33.225 0 16.61-13.665 16.614-13.665 33.228 0 16.615 13.665 16.611 13.665 33.225 0 16.615-13.665 16.611-13.665 33.225 0 16.615 13.665 16.615 13.665 33.225 0 16.611-13.665 16.614-13.665 33.225s13.665 16.614 13.665 33.229c0 16.614-13.665 16.61-13.665 33.225 0 16.614 13.665 16.614 13.665 33.228 0 16.615-13.665 16.615-13.665 33.229"/></g><defs><clipPath id="a"><path fill="#fff" d="M0 0h1176v650H0z"/></clipPath></defs></svg>