<svg width="168" height="171" fill="none" xmlns="http://www.w3.org/2000/svg"><g clip-path="url(#a)" fill="#325D9C"><path d="M4.3 2.144a2.15 2.15 0 0 1-2.57 2.118A2.154 2.154 0 0 1 .156 1.33 2.152 2.152 0 0 1 2.146 0a2.155 2.155 0 0 1 2.153 2.144Zm20.457 0a2.143 2.143 0 0 1-2.564 2.103 2.147 2.147 0 0 1-1.564-2.923A2.144 2.144 0 0 1 22.61 0a2.147 2.147 0 0 1 2.146 2.144Zm20.466 0a2.15 2.15 0 0 1-2.57 2.118A2.154 2.154 0 0 1 41.08 1.33a2.152 2.152 0 0 1 3.51-.702c.404.401.632.947.634 1.516Zm18.312 2.144a2.145 2.145 0 1 0-2.146-2.144c0 1.184.96 2.144 2.146 2.144Zm22.604-2.144a2.142 2.142 0 0 1-1.327 1.981 2.148 2.148 0 0 1-2.925-1.567A2.142 2.142 0 0 1 84 0a2.147 2.147 0 0 1 2.139 2.144Zm20.472 0a2.145 2.145 0 0 1-1.326 1.994 2.152 2.152 0 1 1 1.326-1.994Zm18.312 2.144a2.145 2.145 0 1 0 .002-4.29 2.145 2.145 0 0 0-.002 4.29Zm20.466 0a2.145 2.145 0 1 0 .002-4.29 2.145 2.145 0 0 0-.002 4.29ZM168 2.144a2.151 2.151 0 0 1-2.569 2.118 2.157 2.157 0 0 1-1.696-1.688 2.153 2.153 0 1 1 4.265-.43ZM4.3 20.668a2.15 2.15 0 0 1-2.556 2.144 2.155 2.155 0 0 1-1.708-1.683 2.15 2.15 0 0 1 2.11-2.582A2.147 2.147 0 0 1 4.3 20.668Zm20.457 0a2.143 2.143 0 0 1-2.55 2.128 2.146 2.146 0 0 1-1.58-2.92 2.143 2.143 0 0 1 1.984-1.33 2.147 2.147 0 0 1 2.146 2.122Zm20.466 0a2.15 2.15 0 0 1-2.555 2.144 2.155 2.155 0 0 1-1.708-1.683 2.15 2.15 0 0 1 2.11-2.582 2.147 2.147 0 0 1 2.153 2.121Zm18.312 2.144a2.145 2.145 0 1 0-2.146-2.144c0 1.184.96 2.144 2.146 2.144Zm22.604-2.144a2.141 2.141 0 0 1-1.311 1.998 2.148 2.148 0 0 1-2.94-1.553A2.142 2.142 0 0 1 84 18.547a2.148 2.148 0 0 1 2.139 2.121Zm20.472 0a2.151 2.151 0 0 1-3.668 1.56 2.159 2.159 0 0 1-.596-1.104 2.157 2.157 0 0 1 .917-2.216 2.155 2.155 0 0 1 1.201-.361 2.147 2.147 0 0 1 2.146 2.121Zm18.312 2.144a2.145 2.145 0 1 0 .002-4.29 2.145 2.145 0 0 0-.002 4.29Zm20.466 0a2.145 2.145 0 1 0 .002-4.29 2.145 2.145 0 0 0-.002 4.29ZM168 20.668a2.151 2.151 0 0 1-2.569 2.119 2.157 2.157 0 0 1-1.696-1.689 2.153 2.153 0 0 1 2.935-2.412 2.149 2.149 0 0 1 1.33 1.982ZM4.3 39.193a2.15 2.15 0 0 1-2.57 2.118A2.154 2.154 0 0 1 .157 38.38a2.152 2.152 0 0 1 1.99-1.33A2.148 2.148 0 0 1 4.3 39.193Zm20.457 0a2.143 2.143 0 0 1-2.564 2.103 2.147 2.147 0 0 1-1.564-2.924 2.144 2.144 0 0 1 1.982-1.323 2.147 2.147 0 0 1 2.146 2.144Zm20.466 0a2.15 2.15 0 0 1-2.57 2.118 2.154 2.154 0 0 1-1.574-2.932 2.152 2.152 0 0 1 1.99-1.33 2.148 2.148 0 0 1 2.154 2.144Zm18.312 2.144a2.145 2.145 0 1 0-2.146-2.144c0 1.184.96 2.144 2.146 2.144Zm22.604-2.144a2.143 2.143 0 0 1-2.565 2.103 2.147 2.147 0 0 1-1.564-2.924 2.144 2.144 0 0 1 2.804-1.16 2.148 2.148 0 0 1 1.325 1.98Zm20.472 0a2.146 2.146 0 0 1-1.326 1.993 2.152 2.152 0 1 1-.82-4.137 2.148 2.148 0 0 1 2.146 2.144Zm18.312 2.144a2.145 2.145 0 1 0 .002-4.29 2.145 2.145 0 0 0-.002 4.29Zm20.466 0a2.145 2.145 0 1 0 .002-4.29 2.145 2.145 0 0 0-.002 4.29ZM168 39.193a2.151 2.151 0 0 1-2.569 2.118 2.157 2.157 0 0 1-1.696-1.688 2.154 2.154 0 1 1 4.265-.43ZM4.3 57.717a2.15 2.15 0 0 1-2.574 2.11 2.154 2.154 0 0 1-1.57-2.933 2.152 2.152 0 0 1 1.99-1.328 2.147 2.147 0 0 1 2.153 2.151Zm20.458 0a2.142 2.142 0 0 1-1.33 1.976 2.149 2.149 0 0 1-2.922-1.568 2.142 2.142 0 0 1 2.105-2.56 2.148 2.148 0 0 1 2.146 2.152Zm20.465 0a2.15 2.15 0 0 1-2.574 2.11 2.154 2.154 0 0 1-1.57-2.933 2.152 2.152 0 0 1 1.99-1.328 2.147 2.147 0 0 1 2.154 2.151Zm18.312 2.144a2.145 2.145 0 1 0-2.146-2.144c0 1.184.96 2.144 2.146 2.144Zm22.604-2.144a2.142 2.142 0 0 1-1.33 1.976 2.149 2.149 0 0 1-2.922-1.568 2.142 2.142 0 0 1 2.106-2.56 2.148 2.148 0 0 1 2.146 2.152Zm20.472 0a2.149 2.149 0 0 1-2.576 2.11 2.148 2.148 0 0 1-1.69-1.695 2.15 2.15 0 0 1 2.12-2.566 2.143 2.143 0 0 1 2.146 2.151Zm18.312 2.144a2.145 2.145 0 1 0 .002-4.29 2.145 2.145 0 0 0-.002 4.29Zm20.466 0a2.145 2.145 0 1 0 .002-4.29 2.145 2.145 0 0 0-.002 4.29ZM168 57.717a2.147 2.147 0 0 1-1.329 1.988 2.158 2.158 0 0 1-2.347-.467 2.15 2.15 0 0 1 1.523-3.673A2.147 2.147 0 0 1 168 57.718ZM4.3 76.242a2.15 2.15 0 0 1-2.574 2.11 2.154 2.154 0 0 1-1.57-2.934 2.152 2.152 0 0 1 1.99-1.328 2.155 2.155 0 0 1 2.153 2.151Zm20.458 0a2.142 2.142 0 0 1-1.33 1.975 2.149 2.149 0 0 1-2.922-1.567 2.142 2.142 0 0 1 2.105-2.56 2.148 2.148 0 0 1 2.146 2.151Zm20.465 0a2.15 2.15 0 0 1-2.574 2.11 2.154 2.154 0 0 1-1.57-2.934 2.152 2.152 0 0 1 1.99-1.328 2.155 2.155 0 0 1 2.154 2.151Zm18.312 2.143a2.145 2.145 0 1 0-2.146-2.144c0 1.185.96 2.144 2.146 2.144Zm22.604-2.143a2.142 2.142 0 0 1-1.33 1.975 2.149 2.149 0 0 1-2.922-1.567 2.142 2.142 0 0 1 2.106-2.56 2.148 2.148 0 0 1 2.146 2.151Zm20.472 0a2.149 2.149 0 0 1-2.576 2.109 2.148 2.148 0 0 1-1.69-1.694 2.151 2.151 0 0 1 2.12-2.567 2.154 2.154 0 0 1 2.146 2.151Zm18.312 2.143a2.145 2.145 0 1 0 .002-4.29 2.145 2.145 0 0 0-.002 4.29Zm20.466 0a2.145 2.145 0 1 0 .002-4.29 2.145 2.145 0 0 0-.002 4.29ZM168 76.242a2.147 2.147 0 0 1-1.329 1.987 2.158 2.158 0 0 1-2.347-.466 2.15 2.15 0 0 1 1.523-3.673A2.154 2.154 0 0 1 168 76.241ZM4.3 94.758a2.15 2.15 0 0 1-2.57 2.119 2.154 2.154 0 0 1-1.574-2.933 2.152 2.152 0 0 1 1.99-1.33A2.154 2.154 0 0 1 4.3 94.759Zm20.457 0a2.142 2.142 0 0 1-2.564 2.103 2.146 2.146 0 0 1-1.564-2.923 2.145 2.145 0 0 1 3.5-.695c.402.401.628.947.628 1.516Zm20.466 0a2.15 2.15 0 0 1-2.57 2.119 2.154 2.154 0 0 1-1.574-2.933 2.152 2.152 0 0 1 3.51-.702c.404.402.632.947.634 1.516Zm18.312 2.145a2.145 2.145 0 1 0-2.146-2.145c0 1.185.96 2.145 2.146 2.145Zm22.604-2.145a2.142 2.142 0 0 1-2.565 2.103 2.146 2.146 0 0 1-1.564-2.923 2.145 2.145 0 0 1 3.5-.695 2.144 2.144 0 0 1 .629 1.516Zm20.472 0a2.146 2.146 0 0 1-1.326 1.994 2.152 2.152 0 1 1 1.326-1.993Zm18.312 2.145a2.145 2.145 0 1 0 .002-4.29 2.145 2.145 0 0 0-.002 4.29Zm20.466 0a2.145 2.145 0 1 0 .002-4.29 2.145 2.145 0 0 0-.002 4.29ZM168 94.758a2.151 2.151 0 0 1-2.569 2.119 2.157 2.157 0 0 1-1.696-1.689 2.153 2.153 0 1 1 4.265-.43ZM4.3 113.283a2.15 2.15 0 0 1-1.325 1.993 2.156 2.156 0 0 1-2.94-1.563 2.149 2.149 0 0 1 .914-2.211 2.153 2.153 0 0 1 3.35 1.781Zm20.457 0a2.143 2.143 0 0 1-2.564 2.103 2.148 2.148 0 0 1-1.686-1.685 2.143 2.143 0 0 1 2.104-2.562 2.148 2.148 0 0 1 2.146 2.144Zm20.466 0a2.15 2.15 0 0 1-1.324 1.993 2.156 2.156 0 0 1-2.941-1.563 2.148 2.148 0 0 1 .914-2.211 2.153 2.153 0 0 1 3.35 1.781Zm20.457 0a2.143 2.143 0 0 1-2.564 2.103 2.148 2.148 0 0 1-1.686-1.685 2.143 2.143 0 0 1 2.105-2.562 2.147 2.147 0 0 1 2.146 2.144Zm20.459 0a2.143 2.143 0 0 1-2.565 2.103 2.148 2.148 0 0 1-1.686-1.685 2.143 2.143 0 0 1 2.926-2.399 2.153 2.153 0 0 1 1.161 1.16c.108.261.164.539.164.821Zm20.472 0a2.146 2.146 0 0 1-1.326 1.994 2.157 2.157 0 0 1-2.35-.465 2.152 2.152 0 1 1 3.676-1.529Zm20.458 0a2.149 2.149 0 0 1-1.324 1.981 2.145 2.145 0 1 1 1.324-1.981Zm20.466 0a2.142 2.142 0 0 1-1.325 1.981 2.15 2.15 0 0 1-2.926-1.563 2.145 2.145 0 1 1 4.251-.418Zm20.465 0a2.15 2.15 0 0 1-2.569 2.118 2.152 2.152 0 0 1-.782-3.899 2.155 2.155 0 0 1 3.351 1.781ZM4.3 131.807a2.147 2.147 0 0 1-1.325 1.993 2.157 2.157 0 0 1-2.349-.461 2.152 2.152 0 0 1 2.344-3.515 2.146 2.146 0 0 1 1.33 1.983Zm20.457 0a2.14 2.14 0 0 1-1.324 1.981 2.148 2.148 0 0 1-2.926-1.562 2.143 2.143 0 0 1 2.104-2.563 2.148 2.148 0 0 1 2.146 2.144Zm20.466 0a2.147 2.147 0 0 1-1.324 1.993 2.157 2.157 0 0 1-2.35-.461 2.152 2.152 0 0 1 2.344-3.515 2.146 2.146 0 0 1 1.33 1.983Zm20.457 0a2.14 2.14 0 0 1-1.324 1.981 2.148 2.148 0 0 1-2.926-1.562 2.143 2.143 0 0 1 2.105-2.563 2.147 2.147 0 0 1 2.146 2.144Zm20.459 0a2.14 2.14 0 0 1-1.325 1.981 2.148 2.148 0 0 1-2.926-1.562 2.143 2.143 0 0 1 2.926-2.399 2.134 2.134 0 0 1 1.161 1.16c.108.26.164.539.164.82Zm20.472 0a2.146 2.146 0 0 1-1.326 1.994 2.159 2.159 0 0 1-2.35-.465 2.146 2.146 0 0 1-.465-2.348 2.15 2.15 0 0 1 1.995-1.325 2.148 2.148 0 0 1 2.146 2.144Zm20.458 0a2.147 2.147 0 1 1-4.128-.82 2.145 2.145 0 0 1 4.128.82Zm20.466 0a2.14 2.14 0 0 1-1.325 1.981 2.148 2.148 0 0 1-2.926-1.562 2.145 2.145 0 1 1 4.251-.419Zm20.465 0a2.148 2.148 0 0 1-1.324 1.993 2.158 2.158 0 0 1-2.35-.461 2.154 2.154 0 1 1 3.674-1.532ZM4.3 150.332a2.152 2.152 0 0 1-2.57 2.118 2.15 2.15 0 0 1-.781-3.899 2.15 2.15 0 0 1 1.197-.363 2.134 2.134 0 0 1 1.522.625 2.146 2.146 0 0 1 .632 1.519Zm20.457 0a2.143 2.143 0 0 1-2.564 2.102 2.146 2.146 0 0 1-1.686-1.684 2.143 2.143 0 0 1 2.104-2.562 2.148 2.148 0 0 1 2.146 2.144Zm20.466 0a2.152 2.152 0 0 1-2.57 2.118 2.15 2.15 0 0 1-.78-3.899c.354-.237.77-.363 1.196-.363a2.134 2.134 0 0 1 1.523.625 2.146 2.146 0 0 1 .63 1.519Zm20.457 0a2.143 2.143 0 0 1-2.564 2.102 2.147 2.147 0 0 1-1.686-1.684 2.143 2.143 0 0 1 2.105-2.562 2.147 2.147 0 0 1 2.146 2.144Zm20.459 0a2.143 2.143 0 0 1-2.565 2.102 2.146 2.146 0 0 1-1.686-1.684 2.143 2.143 0 0 1 2.926-2.399 2.137 2.137 0 0 1 1.161 1.16c.108.26.164.539.164.821Zm20.472 0a2.146 2.146 0 0 1-1.326 1.993 2.148 2.148 0 0 1-1.245.124 2.144 2.144 0 0 1-1.694-1.692 2.15 2.15 0 0 1 2.119-2.569 2.148 2.148 0 0 1 2.146 2.144Zm20.458 0a2.148 2.148 0 0 1-4.251.418 2.145 2.145 0 1 1 4.251-.418Zm20.466 0a2.142 2.142 0 0 1-1.325 1.98 2.148 2.148 0 0 1-2.926-1.562 2.145 2.145 0 1 1 4.251-.418Zm20.465 0a2.153 2.153 0 1 1-4.306.013 2.153 2.153 0 0 1 4.306-.013ZM4.3 168.856a2.148 2.148 0 0 1-1.33 1.988 2.162 2.162 0 0 1-2.347-.467 2.15 2.15 0 0 1 1.523-3.672 2.152 2.152 0 0 1 2.153 2.151Zm20.458 0a2.14 2.14 0 0 1-1.33 1.975 2.143 2.143 0 1 1-.816-4.126 2.151 2.151 0 0 1 1.52.63 2.144 2.144 0 0 1 .625 1.521Zm20.465 0a2.15 2.15 0 0 1-1.331 1.988 2.157 2.157 0 0 1-2.348-.469 2.152 2.152 0 1 1 3.679-1.519Zm20.457 0a2.14 2.14 0 0 1-1.33 1.975 2.143 2.143 0 1 1-.816-4.126 2.151 2.151 0 0 1 1.52.63 2.144 2.144 0 0 1 .627 1.521Zm20.459 0a2.14 2.14 0 0 1-1.33 1.975 2.143 2.143 0 1 1-.816-4.126 2.151 2.151 0 0 1 1.52.63 2.144 2.144 0 0 1 .626 1.521Zm20.472 0a2.149 2.149 0 0 1-1.331 1.988 2.157 2.157 0 0 1-2.347-.469 2.15 2.15 0 0 1 1.532-3.67 2.154 2.154 0 0 1 2.146 2.151Zm20.458 0a2.14 2.14 0 0 1-1.33 1.975 2.145 2.145 0 0 1-2.007-3.766 2.148 2.148 0 0 1 3.337 1.791Zm20.466 0a2.143 2.143 0 0 1-1.33 1.975 2.142 2.142 0 0 1-2.798-2.805 2.143 2.143 0 0 1 2.805-1.158 2.142 2.142 0 0 1 1.323 1.988Zm20.465 0a2.158 2.158 0 0 1-2.574 2.11 2.154 2.154 0 0 1-1.569-2.933 2.158 2.158 0 0 1 1.99-1.328 2.15 2.15 0 0 1 2.153 2.151Z"/></g><defs><clipPath id="a"><path fill="#fff" d="M0 0h168v171H0z"/></clipPath></defs></svg>