<svg width="24" height="24" viewBox="0 0 24 24" fill="none" xmlns="http://www.w3.org/2000/svg">
<g clip-path="url(#clip0_1871_17416)">
<g clip-path="url(#clip1_1871_17416)">
<path d="M19.7093 10.3673C20.1177 9.14156 19.9771 7.79884 19.324 6.68397C18.3418 4.97393 16.3674 4.09415 14.4391 4.50818C13.5813 3.54177 12.3489 2.99221 11.0568 3.00008C9.08573 2.99558 7.33688 4.26462 6.73047 6.14003C5.46425 6.39934 4.37131 7.19194 3.73171 8.31525C2.74227 10.0208 2.96784 12.1707 4.28975 13.6332C3.88137 14.859 4.022 16.2017 4.67506 17.3166C5.65722 19.0266 7.63163 19.9064 9.55992 19.4923C10.4172 20.4587 11.6502 21.0083 12.9423 20.9999C14.9145 21.0049 16.6639 19.7348 17.2703 17.8577C18.5365 17.5984 19.6294 16.8058 20.269 15.6825C21.2574 13.9769 21.0313 11.8287 19.7099 10.3662L19.7093 10.3673ZM12.9434 19.8237C12.1542 19.8248 11.3898 19.5486 10.7839 19.0429C10.8115 19.0283 10.8593 19.0019 10.8903 18.9827L14.4746 16.9127C14.658 16.8087 14.7705 16.6135 14.7693 16.4025V11.3494L16.2842 12.2241C16.3005 12.232 16.3112 12.2478 16.3134 12.2658V16.4503C16.3112 18.3111 14.8042 19.8197 12.9434 19.8237ZM5.696 16.7282C5.30056 16.0453 5.15825 15.2448 5.29381 14.468C5.32025 14.4838 5.36693 14.5125 5.40012 14.5316L8.98444 16.6016C9.16613 16.7079 9.39113 16.7079 9.57338 16.6016L13.9492 14.0748V15.8242C13.9503 15.8422 13.9419 15.8596 13.9278 15.8709L10.3047 17.9629C8.69082 18.8921 6.62978 18.3397 5.69656 16.7281L5.696 16.7282ZM4.75268 8.90419C5.14643 8.22019 5.76803 7.69703 6.50828 7.42534C6.50828 7.45628 6.50659 7.51084 6.50659 7.54909V11.6898C6.50547 11.9001 6.61797 12.0953 6.80078 12.1994L11.1766 14.7256L9.66173 15.6003C9.64654 15.6105 9.62741 15.6121 9.61054 15.6048L5.98684 13.5112C4.37637 12.5785 3.824 10.518 4.75212 8.90475L4.75268 8.90419ZM17.1988 11.8006L12.823 9.27375L14.3379 8.39963C14.353 8.3895 14.3722 8.38781 14.389 8.39513L18.0127 10.4871C19.626 11.4192 20.179 13.483 19.2469 15.0963C18.8526 15.7792 18.2316 16.3024 17.4919 16.5746V12.3102C17.4936 12.0998 17.3816 11.9052 17.1994 11.8006H17.1988ZM18.7063 9.53138C18.6799 9.51506 18.6332 9.48694 18.6 9.46781L15.0157 7.39778C14.834 7.29147 14.609 7.29147 14.4268 7.39778L10.051 9.92456V8.17515C10.0499 8.15715 10.0583 8.13972 10.0724 8.12847L13.6955 6.03818C15.3093 5.10721 17.3726 5.66131 18.303 7.27572C18.6962 7.9575 18.8385 8.75569 18.7052 9.53138H18.7063ZM9.22748 12.6494L7.71207 11.7747C7.69576 11.7668 7.68507 11.7511 7.68282 11.7331V7.54853C7.68394 5.68549 9.19542 4.17571 11.0585 4.17683C11.8465 4.17683 12.6093 4.45358 13.2151 4.95758C13.1875 4.97221 13.1403 4.99865 13.1088 5.01777L9.52448 7.08784C9.3411 7.1919 9.2286 7.38653 9.22973 7.59747L9.22748 12.6483V12.6494ZM10.0504 10.8752L11.9995 9.74963L13.9486 10.8747V13.1253L11.9995 14.2503L10.0504 13.1253V10.8752Z" fill="#F70431"/>
</g>
<circle cx="12" cy="12" r="11" stroke="#F70431" stroke-width="2"/>
<line x1="19.7071" y1="4.70711" x2="4.70711" y2="19.7071" stroke="#F70431" stroke-width="2"/>
</g>
<defs>
<clipPath id="clip0_1871_17416">
<rect width="24" height="24" fill="white"/>
</clipPath>
<clipPath id="clip1_1871_17416">
<rect width="18" height="18" fill="white" transform="translate(3 3)"/>
</clipPath>
</defs>
</svg>
