<svg width="24" height="24" viewBox="0 0 24 24" fill="none" xmlns="http://www.w3.org/2000/svg">
<g clip-path="url(#clip0_1871_17242)">
<path d="M17.6719 11.3438C14.1824 11.3438 11.3438 14.1824 11.3438 17.6719C11.3438 21.1614 14.1824 24 17.6719 24C21.1614 24 24 21.1614 24 17.6719C24 14.1824 21.1614 11.3438 17.6719 11.3438Z" fill="#F70431"/>
<path d="M14.1562 0.411987V4.21875H17.963L14.1562 0.411987Z" fill="#F70431"/>
<path d="M12.75 5.625V0H0V24H13.2389C11.2458 22.5995 9.9375 20.2874 9.9375 17.6719C9.9375 13.4071 13.4071 9.9375 17.6719 9.9375C17.9092 9.9375 18.1431 9.95208 18.375 9.97312V5.625H12.75ZM5.01562 20.0724L2.61511 17.6719L3.60938 16.6776L5.01562 18.0839L7.82812 15.2714L8.82239 16.2656L5.01562 20.0724ZM5.01562 14.4474L2.61511 12.0469L3.60938 11.0526L5.01562 12.4589L7.82812 9.64636L8.82239 10.6406L5.01562 14.4474ZM5.01562 8.82239L2.61511 6.42188L3.60938 5.42761L5.01562 6.83386L7.82812 4.02136L8.82239 5.01562L5.01562 8.82239Z" fill="#F70431"/>
<path d="M18.165 15.2201C17.7347 15.2201 17.3823 15.3483 17.1076 15.6046C16.836 15.861 16.6544 16.2485 16.5629 16.7673H18.6503V17.4723H16.4942L16.485 17.6783V17.9301L16.4942 18.1086H18.3619V18.809H16.572C16.7673 19.7611 17.3228 20.2372 18.2383 20.2372C18.6747 20.2372 19.1218 20.1426 19.5795 19.9534V20.8826C19.1797 21.0688 18.7144 21.1619 18.1833 21.1619C17.4479 21.1619 16.8497 20.9604 16.3889 20.5576C15.9312 20.1548 15.6321 19.5719 15.4917 18.809H14.7959V18.1086H15.4185L15.4093 17.9392V17.7698L15.4185 17.4723H14.7959V16.7673H15.4825C15.5985 16.0013 15.89 15.4001 16.3569 14.9637C16.8238 14.5273 17.4265 14.3091 18.165 14.3091C18.7754 14.3091 19.3217 14.4434 19.8038 14.712L19.4193 15.568C18.9493 15.3361 18.5312 15.2201 18.165 15.2201Z" fill="white"/>
</g>
<defs>
<clipPath id="clip0_1871_17242">
<rect width="24" height="24" fill="white"/>
</clipPath>
</defs>
</svg>
