<svg width="24" height="24" viewBox="0 0 24 24" fill="none" xmlns="http://www.w3.org/2000/svg">
<g clip-path="url(#clip0_1871_17238)">
<path d="M14.1055 15.2544V16.3191C14.1055 19.553 15.8901 22.4845 18.7628 23.9695L18.8157 23.9969L18.8687 23.9695C21.7414 22.4845 23.5259 19.5531 23.5259 16.3192V15.2544C22.4938 14.7735 21.6575 13.9589 21.1496 12.939H16.4817C15.9738 13.9589 15.1376 14.7735 14.1055 15.2544ZM19.0819 15.1704C19.7107 15.1704 20.3128 15.3646 20.8229 15.7318L20.0017 16.8726C19.7323 16.6786 19.4142 16.5761 19.0819 16.5761C18.2121 16.5761 17.5044 17.2837 17.5044 18.1535C17.5044 19.0233 18.2121 19.731 19.0819 19.731C19.4142 19.731 19.7323 19.6284 20.0017 19.4345L20.8229 20.5752C20.3128 20.9425 19.7107 21.1366 19.0819 21.1366C17.437 21.1366 16.0988 19.7984 16.0988 18.1535C16.0988 16.5087 17.437 15.1704 19.0819 15.1704Z" fill="#F70431"/>
<path d="M5.49076 0.0163574L0.490234 5.01684H5.49076V0.0163574Z" fill="#F70431"/>
<path d="M14.1608 21.5283C13.205 19.9583 12.6998 18.1571 12.6998 16.3191V14.2828L13.1713 14.1185C14.1839 13.7655 14.9842 12.988 15.3669 11.9855L15.5395 11.5334H18.0199V0H6.89609V6.42246H0.473633V24H16.2885C15.4531 23.3007 14.7326 22.4676 14.1608 21.5283ZM4.90062 8.91052H13.2961V10.3161H4.90062V8.91052ZM4.90062 14.6267H11.1408V16.0324H4.90062V14.6267ZM11.7343 18.8905H4.90062V17.4849H11.7343V18.8905ZM12.4683 13.1743H4.90062V11.7686H12.4683V13.1743Z" fill="#F70431"/>
</g>
<defs>
<clipPath id="clip0_1871_17238">
<rect width="24" height="24" fill="white"/>
</clipPath>
</defs>
</svg>
