<svg width="24" height="24" viewBox="0 0 24 24" fill="none" xmlns="http://www.w3.org/2000/svg">
<g clip-path="url(#clip0_1871_17293)">
<path d="M20.4004 21.6H18.0004V20.4C18.0004 19.68 17.5204 19.2 16.8004 19.2H14.4004V16.44C17.8804 15.36 20.4004 12.24 20.4004 8.4C20.4004 3.72 16.6804 0 12.0004 0C7.32039 0 3.60039 3.72 3.60039 8.4C3.60039 12.24 6.12039 15.36 9.60039 16.44V19.2H7.20039C6.48039 19.2 6.00039 19.68 6.00039 20.4V21.6H3.60039C2.88039 21.6 2.40039 22.08 2.40039 22.8V24H21.6004V22.8C21.6004 22.08 21.1204 21.6 20.4004 21.6ZM8.40039 12C8.40039 11.28 8.88039 10.8 9.60039 10.8H10.8004V7.68L10.4404 8.04C9.96039 8.52 9.24039 8.52 8.76039 8.04C8.28039 7.56 8.28039 6.84 8.76039 6.36L11.1604 3.96C11.5204 3.6 12.0004 3.48 12.4804 3.72C12.9604 3.84 13.2004 4.32 13.2004 4.8V10.8H14.4004C15.1204 10.8 15.6004 11.28 15.6004 12C15.6004 12.72 15.1204 13.2 14.4004 13.2H9.60039C8.88039 13.2 8.40039 12.72 8.40039 12Z" fill="#F70431"/>
</g>
<defs>
<clipPath id="clip0_1871_17293">
<rect width="24" height="24" fill="white"/>
</clipPath>
</defs>
</svg>
