<svg width="24" height="24" viewBox="0 0 24 24" fill="none" xmlns="http://www.w3.org/2000/svg">
<g clip-path="url(#clip0_1871_17391)">
<path d="M15.4871 4.1743C15.5977 3.80216 15.3848 3.41075 15.0127 3.30022C13.042 2.71658 10.9587 2.71658 8.98806 3.30022C8.61591 3.41075 8.40305 3.80216 8.51359 4.1743C8.62412 4.54644 9.01416 4.7607 9.38766 4.64877C11.0974 4.142 12.9033 4.142 14.6131 4.64877C14.9804 4.75855 15.3759 4.54934 15.4871 4.1743Z" fill="#F70431"/>
<path d="M10.4547 5.82979C10.0743 5.90671 9.82776 6.27815 9.90468 6.65858C9.98226 7.03968 10.3503 7.28961 10.7335 7.20857C11.5739 7.03827 12.4267 7.03827 13.2672 7.20857C13.6402 7.28427 14.0172 7.04558 14.096 6.65858C14.1729 6.27819 13.9264 5.90671 13.546 5.82979C12.5201 5.62241 11.4805 5.62241 10.4547 5.82979Z" fill="#F70431"/>
<path d="M21.8906 9.89062H21.1406V9.1875C21.1406 4.1475 17.04 0 12 0C6.96 0 2.85938 4.1475 2.85938 9.1875V9.89062H2.10938C0.946219 9.89062 0 10.8368 0 12V16.2188C0 17.3819 0.946219 18.375 2.10938 18.375H4.96875C5.35739 18.375 5.67188 18.0605 5.67188 17.6719V10.5938C5.67188 10.2051 5.35739 9.89062 4.96875 9.89062H4.26562V9.1875C4.26562 4.92277 7.73527 1.40625 12 1.40625C16.2647 1.40625 19.7344 4.92277 19.7344 9.1875V9.89062H19.0312C18.6426 9.89062 18.3281 10.2051 18.3281 10.5938V17.6719C18.3281 18.0605 18.6426 18.375 19.0312 18.375H19.7344V19.0781C19.7344 20.2413 18.7882 21.1875 17.625 21.1875H13.9799C13.6886 20.3708 12.9155 19.7812 12 19.7812C10.8368 19.7812 9.89062 20.7275 9.89062 21.8906C9.89062 23.0538 10.8368 24 12 24C12.9155 24 13.6886 23.4104 13.9799 22.5938H17.625C19.5634 22.5938 21.1406 21.0165 21.1406 19.0781V18.375H21.8906C23.0538 18.375 24 17.3819 24 16.2188V12C24 10.8368 23.0538 9.89062 21.8906 9.89062Z" fill="#F70431"/>
<path d="M16.9219 13.4062C16.9219 10.6926 14.7136 8.48438 12 8.48438C9.28636 8.48438 7.07812 10.6926 7.07812 13.4062C7.07812 16.1199 9.28636 18.375 12 18.375C14.7136 18.375 16.9219 16.1199 16.9219 13.4062ZM10.7998 14.958L9.74508 13.9034C9.47044 13.6287 9.47044 13.1837 9.74508 12.9091C10.0197 12.6345 10.4647 12.6345 10.7393 12.9091L11.2969 13.4667L12.9091 11.8544C13.1838 11.5798 13.6288 11.5798 13.9034 11.8544C14.178 12.129 14.178 12.574 13.9034 12.8487L11.794 14.958C11.5193 15.2327 11.0744 15.2327 10.7998 14.958Z" fill="#F70431"/>
</g>
<defs>
<clipPath id="clip0_1871_17391">
<rect width="24" height="24" fill="white"/>
</clipPath>
</defs>
</svg>
