<svg width="24" height="24" viewBox="0 0 24 24" fill="none" xmlns="http://www.w3.org/2000/svg">
<path d="M22.6796 6.24003C22.6796 6.00003 22.5596 5.88003 22.3196 5.76003L12.1196 0.120029C12.1196 2.92975e-05 11.8796 2.92975e-05 11.6396 0.120029L1.55958 5.88003C1.43958 5.88003 1.31958 6.12003 1.31958 6.24003C1.07958 8.28003 0.359578 20.04 11.7596 23.88H12.1196C23.6396 20.04 22.9196 8.28003 22.6796 6.24003ZM17.5196 10.56L11.6396 16.44C11.1596 16.92 10.4396 16.92 9.95958 16.44L7.67958 14.16C7.19958 13.68 7.19958 12.96 7.67958 12.48C8.15958 12 8.87958 12 9.35958 12.48L10.7996 13.8L15.8396 8.76003C16.3196 8.28003 17.0396 8.28003 17.5196 8.76003C17.9996 9.24003 17.9996 10.08 17.5196 10.56Z" fill="#F70431"/>
</svg>
