<svg width="24" height="24" viewBox="0 0 24 24" fill="none" xmlns="http://www.w3.org/2000/svg">
<g clip-path="url(#clip0_1871_17303)">
<path d="M13.2 0H1.2C0.48 0 0 0.48 0 1.2V22.8C0 23.52 0.48 24 1.2 24H16.8C17.52 24 18 23.52 18 22.8V4.8L13.2 0ZM3.6 3.6H12C12.72 3.6 13.2 4.08 13.2 4.8C13.2 5.52 12.72 6 12 6H3.6C2.88 6 2.4 5.52 2.4 4.8C2.4 4.08 2.88 3.6 3.6 3.6ZM14.4 20.4H3.6C2.88 20.4 2.4 19.92 2.4 19.2C2.4 18.48 2.88 18 3.6 18H14.4C15.12 18 15.6 18.48 15.6 19.2C15.6 19.92 15 20.4 14.4 20.4ZM14.4 15.6H3.6C2.88 15.6 2.4 15.12 2.4 14.4C2.4 13.68 2.88 13.2 3.6 13.2H14.4C15.12 13.2 15.6 13.68 15.6 14.4C15.6 15.12 15 15.6 14.4 15.6ZM14.4 10.8H3.6C2.88 10.8 2.4 10.32 2.4 9.6C2.4 8.88 2.88 8.4 3.6 8.4H14.4C15.12 8.4 15.6 8.88 15.6 9.6C15.6 10.32 15 10.8 14.4 10.8Z" fill="#F70431"/>
<path d="M20.4004 19.2L22.2004 24L24.0004 19.2H20.4004Z" fill="#F70431"/>
<path d="M23.4004 0H21.0004C20.6404 0 20.4004 0.24 20.4004 0.6V16.8H24.0004V0.6C24.0004 0.24 23.7604 0 23.4004 0Z" fill="#F70431"/>
</g>
<defs>
<clipPath id="clip0_1871_17303">
<rect width="24" height="24" fill="white"/>
</clipPath>
</defs>
</svg>
