<svg width="129" height="22" viewBox="0 0 129 22" fill="none" xmlns="http://www.w3.org/2000/svg">
<g clip-path="url(#clip0_18_674)">
<path d="M0 21.5927H5.08533L6.96879 13.9953H10.1706V12.3958H7.38734L7.9105 10.3965L4.85418 8.99695L4.33195 10.3521L0 21.5927Z" fill="#002E5D"/>
<path d="M7.5336 9.19677C8.57382 9.19677 9.41709 8.30164 9.41709 7.19745C9.41709 6.09325 8.57382 5.19812 7.5336 5.19812C6.49341 5.19812 5.65015 6.09325 5.65015 7.19745C5.65015 8.30164 6.49341 9.19677 7.5336 9.19677Z" fill="#002E5D"/>
<path d="M20.3418 21.5927H15.2566L13.373 13.9953H10.1711V12.3958H12.9545L12.4314 10.3965L15.4877 8.99695L16.01 10.3521L20.3418 21.5927Z" fill="#325D9C"/>
<path d="M12.8081 9.19677C11.7679 9.19677 10.9247 8.30164 10.9247 7.19745C10.9247 6.09325 11.7679 5.19812 12.8081 5.19812C13.8483 5.19812 14.6916 6.09325 14.6916 7.19745C14.6916 8.30164 13.8483 9.19677 12.8081 9.19677Z" fill="#325D9C"/>
<path d="M13.5596 0.799561H6.77917V3.99851H13.5596V0.799561Z" fill="#002E5D"/>
<path d="M15.8209 0H4.52014V0.799732H15.8209V0Z" fill="#002E5D"/>
<path d="M4.8956 0.799561H5.08395V1.99916L5.27231 2.39903H4.70728L4.8956 1.99916V0.799561Z" fill="#002E5D"/>
<path d="M23.5565 21.2302L27.9979 7.14014H31.2345L35.658 21.2302H32.4213L31.6481 18.1802H27.4944L26.7392 21.2302H23.5565ZM28.1238 15.69H31.0367L29.5983 9.97734H29.5622L28.1238 15.69Z" fill="#002E5D"/>
<path d="M40.5417 7.14014V13.1813H40.5777L44.5517 7.14014H48.0939L43.4188 13.8959L48.2736 21.2302H44.7314L40.5777 14.6096H40.5417V21.2302H37.4849V7.14014H40.5417Z" fill="#002E5D"/>
<path d="M49.3871 21.2302L53.8285 7.14014H57.0651L61.4885 21.2302H58.2517L57.4785 18.1802H53.3251L52.5698 21.2302H49.3871ZM53.9543 15.69H56.8672L55.4287 9.97734H55.3928L53.9543 15.69Z" fill="#002E5D"/>
<path d="M74.0511 13.9921C74.0511 16.3605 73.439 18.1937 72.2163 19.4932C71.0057 20.7795 69.298 21.4236 67.0917 21.4236C65.761 21.4236 64.5025 21.3264 63.3157 21.1334V7.23684C64.5025 7.04388 65.761 6.94739 67.0917 6.94739C69.298 6.94739 71.0057 7.57158 72.2163 8.81959C73.439 10.0549 74.0511 11.7792 74.0511 13.9921ZM71.1369 13.9921C71.1369 11.0072 69.8663 9.51449 67.3251 9.51449C66.9779 9.51449 66.6421 9.55315 66.3185 9.6303V18.7405C66.6421 18.8173 66.9779 18.8565 67.3251 18.8565C69.8663 18.8565 71.1369 17.2351 71.1369 13.9921Z" fill="#002E5D"/>
<path d="M79.0322 9.78438V12.6603H84.0136V15.1506H79.0322V18.5864H84.373V21.2302H75.9758V7.14014H84.373V9.78438H79.0322Z" fill="#002E5D"/>
<path d="M97.272 12.6023H97.2365L94.9356 18.0062H92.1662L89.864 12.6023H89.8286V21.2302H86.9335V7.14014H90.0621L93.5325 15.4391H93.5681L97.0384 7.14014H100.24V21.2302H97.272V12.6023Z" fill="#002E5D"/>
<path d="M103.236 21.2302V7.14014H106.598V21.2302H103.236Z" fill="#002E5D"/>
<path d="M112.751 7.14014V18.5081H118.288V21.2302H109.603V7.14014H112.751Z" fill="#002E5D"/>
<path d="M120.198 7.14014L122.751 13.1813H122.787L125.34 7.14014H128.756L124.297 15.8263V21.2302H121.15V15.8263L116.71 7.14014H120.198Z" fill="#002E5D"/>
</g>
<defs>
<clipPath id="clip0_18_674">
<rect width="129" height="22" fill="white"/>
</clipPath>
</defs>
</svg>
