<svg width="160" height="112" fill="none" xmlns="http://www.w3.org/2000/svg"><path d="M25.703 6 0 73.156l160 33.111V40.531L25.703 6Z" fill="#F3F8FF"/><path d="M101.709 60.476h-75.48v17.158h75.48V60.476Z" fill="#325D9C"/><path d="M87.342 96.457c23.518 0 42.584-19.166 42.584-42.808S110.86 10.842 87.342 10.842c-23.519 0-42.584 19.165-42.584 42.807 0 23.642 19.065 42.808 42.584 42.808Z" fill="#BBD1DC"/><path d="M60.032 40.378a2.032 2.032 0 0 0-.935.009c-.237.298-.738.444-1.11.522a5.661 5.661 0 0 0-1.468-.787c-.344-.119-.743-.239-.89-.573-.236-.534-1.214-.625-1.758-.418-.738-.093-1.516.27-2.022.82-.225.242.132.715.384.928.251.212.56.446.554.776-.245.173-.6.23-.898.258-.175.017-.358.008-.517.083-.16.075-.278.277-.192.43-.086.216-.209.34-.05.51.123.13.316.225.34.407.018.141-.085.274-.203.356-.119.082-.256.134-.366.226-.342.293-.27.833-.169 1.273.284.265.394.775.329 1.159-.025.146-.076.305-.007.437.08.15.274.186.442.206.36.04.778.061 1.022-.207.642-.707 1.815-.553 2.765-.474.328.028.679.098.902.34.298.323.262.836.113 1.25-.15.415-.394.799-.466 1.234-.067.408.025.824.117 1.227.113.496.24 1.018.586 1.388.364.389.645 1.006.695 1.537.04.427-.051.864.046 1.281.177.756.915 1.238 1.638 1.513.757.287 1.454.858 1.803 1.591.176.368.269.77.43 1.145.284.653.765 1.2 1.374 1.564.442.261 1.11.282 1.621.303.266.01.55.01.77.16.101.069.181.166.28.24.474.355 1.219.077 1.698.427.123.09.217.216.329.32a1.287 1.287 0 0 0 1.146.306c-.052.325.37.639.299.96-.059.258-.323.405-.49.61-.29.355-.268.891-.065 1.303.204.411.557.726.908 1.021.65.549 1.37.758 2.062 1.253.64.459.89 1.312.874 2.102-.017.79-.253 1.558-.39 2.336-.256 1.455-.152 3 .473 4.337.624 1.337 1.804 2.44 3.23 2.8.157.04.325-.09.418-.226a.405.405 0 0 0-.006-.458c-.307-.416-.793-.74-1.165-1.098-.117-.113-.242-.24-.251-.403-.011-.182.125-.334.22-.49a1.19 1.19 0 0 0 .152-.8c-.043-.256-.227-.487-.255-.746-.027-.259.074-.55.305-.667.105-.053.229-.067.329-.13.33-.205.198-.735.412-1.06.1-.152.264-.243.413-.343.634-.424 1.102-1.154 1.06-1.918-.035-.61-.356-1.313.045-1.774.369-.422 1.048-.272 1.582-.438.217-.067.337-.296.412-.512a1.072 1.072 0 0 0-.013-.673c-.084-.268-.24-.52-.252-.801-.018-.396.244-.739.435-1.085.227-.41.365-.864.406-1.331.046-.533-.367-1.095-.862-1.288-.496-.192-1.05-.122-1.578-.063s-1.09.098-1.563-.147c-.433-.225-.72-.65-1.082-.977-.612-.55-1.426-.804-2.212-1.042-.297-.09-.629-.177-.907-.04-.11.054-.203.142-.319.18-.317.11-.624-.163-.938-.282-.653-.244-1.457.355-1.415 1.054-.299.153-.893.14-1.11-.116-.156-.184-.247-.46-.48-.522-.125-.032-.27.007-.378-.064-.178-.118-.09-.39-.09-.605-.002-.342-.297-.627-.622-.73-.325-.103-.675-.067-1.014-.029-.34.039-.69.07-1.012-.039-.63-.213-.982-.98-.809-1.625.174-.644.796-1.114 1.455-1.187.647-.072 1.392.305 1.491.951.025.164.289.146.42.045.13-.102.181-.276.194-.442.012-.165-.006-.332.02-.496a.923.923 0 0 1 .77-.746c.394-.05.617-.485.858-.804.24-.319.35-.763.186-1.129-.088-.197-.253-.384-.214-.596.032-.167.181-.281.326-.368a3.18 3.18 0 0 1 1.317-.434c.405-.04.576-.322.732-.699.112-.272.135-.599.347-.802.317-.305.837-.149 1.266-.24.627-.131 1.022-.915.757-1.502-.126-.278-.362-.489-.563-.72a3.374 3.374 0 0 1-.63-1.087c-.128-.366-.207-.778-.495-1.036-.384.072-.853.127-1.171.354-.123-.386-.256-.787-.543-1.072-.287-.284-.779-.402-1.094-.15-.308.247-.316.72-.2 1.098.116.378.328.73.372 1.122.044.393-.166.865-.558.909-.203.023-.402-.076-.565-.201-.234-.18-.433-.422-.713-.509-.215-.067-.446-.032-.67-.05-.765-.064-1.392-.847-1.29-1.61.103-.765.913-1.354 1.667-1.211.827-.444 1.028-1.6.56-2.416-.47-.816-1.479-1.222-2.412-1.13-.273.026-.546.088-.82.059-.77-.085-1.274-.853-1.98-1.176-.464-.212-1.412.187-1.91.074Zm11.361-4.326c-.225.481.18 1.033.64 1.292.461.258 1.01.374 1.396.735.621.58.605 1.57.425 2.403s-.478 1.692-.26 2.517c.101.388.314.74.57 1.05.249.298.569.575.954.612.49.048.931-.3 1.244-.682.313-.382.57-.826.978-1.102.587-.4 1.414-.398 1.902-.915.604-.64.359-1.665.427-2.545.114-1.477 1.2-2.709 1.49-4.162a2.44 2.44 0 0 0 .036-.864c-.15-.924-1.035-1.585-1.948-1.771-1.127-.23-2.178.162-3.288.266-.603.057-1.3-.104-1.846.222-.842.503-.456 1.353-.969 1.962-.445.525-1.43.3-1.75.982Zm24.95 2.216c-.583-.43-1.35.174-1.817.729a873.88 873.88 0 0 0-1.388 1.655c-.347.414-.723.848-1.237 1.011-.514.163-1.195-.085-1.291-.617.313-.392 1.101.014 1.378-.404.246-.37-.251-.781-.662-.949-.751-.305-1.526-.616-2.336-.612-.81.003-1.675.397-1.992 1.147-.27.641-.098 1.405-.365 2.048-.167.403-.492.72-.691 1.107-.2.387-.232.935.115 1.197.281.211.699.153.977.367.214.165.322.476.582.547.298.08.578-.236.603-.545.025-.308-.113-.604-.203-.9-.272-.885.025-2.064.91-2.319.207-.02.317.265.25.463-.066.198-.228.352-.3.548-.135.37.146.83.535.876.406.048 1.048-.127 1.053.283.004.436-.823.267-1.03.65-.122.227.051.494.085.749.062.499-.44.9-.929 1.005-.488.105-1.004.029-1.492.142-.487.113-.975.541-.883 1.036-.64.418-1.313.78-2.015 1.08.107.534 1.126.442 1.197.983.042.324-.333.55-.658.57-.325.022-.667-.06-.968.066-.518.219-.6 1.006-.237 1.438.364.43 1.003.532 1.553.41.22-.05.45-.142.564-.338.11-.186.089-.418.116-.632a1.376 1.376 0 0 1 .85-1.088c.254-.097.576-.147.685-.397a2.161 2.161 0 0 1 1.32 1.492c.228.223.614-.16.528-.468-.087-.309-.393-.488-.644-.685-.25-.196-.483-.525-.348-.815a3.09 3.09 0 0 1 2.395 1.957c.348-.122.478-.636.23-.91.076-.266.503-.18.655.051.151.231.184.539.381.732.572.56 1.762-.388 2.254.242.346.443-.203 1.092-.759 1.153-.556.061-1.106-.186-1.664-.163-.617.024-1.171.37-1.769.527-.597.156-1.378.023-1.59-.56-.057-.157-.068-.337-.173-.466-.15-.185-.429-.193-.658-.133-.993.257-1.873 1.449-2.788.983-.388 1.119-1.638 1.695-2.237 2.714-.653 1.11-.372 2.642.538 3.55.911.909 2.335 1.198 3.574.86.284-.077.579-.185.863-.111.284.074.488.308.736.461.248.153.629.193.782-.056a1.836 1.836 0 0 0 .38 1.606c.4.469 1.068.789 1.142 1.402.037.317-.106.626-.15.943-.197 1.45 1.602 2.358 2.06 3.748.123.374.187.837.54 1.008.162.08.351.073.531.06.923-.069 2.037-.504 2.102-1.433.018-.262-.057-.521-.085-.783a2.252 2.252 0 0 1 .928-2.047c.175-.121.371-.222.5-.39.285-.374.135-.917-.095-1.327-.23-.41-.538-.811-.542-1.282-.008-.755.729-1.258 1.267-1.784a4.328 4.328 0 0 0 1.285-3.056c-.797.38-1.785.748-2.504.236-.249-.178-.423-.44-.592-.697l-1.521-2.305c-.067-.102-.137-.218-.11-.337.072-.322.564-.131.779.119a26.772 26.772 0 0 1 2.115 2.82 6.79 6.79 0 0 0 2.636-1.623c.236-.234.465-.509.51-.837.044-.33-.176-.715-.507-.727-.128-.004-.251.046-.376.077-.752.188-1.498-.303-2.079-.82.289-.434.942-.298 1.439-.148.892.269 1.815.42 2.745.45.232.008.469.01.687.086.153.054.291.143.425.236a7.947 7.947 0 0 1 2.714 3.297c.412.034.624-.5.599-.916-.026-.415-.141-.881.114-1.21.199-.257.575-.341.743-.621.211-.352.003-.867.263-1.185.326-.398.989-.06 1.254.381s.418 1.009.878 1.237l.666-.194a5.308 5.308 0 0 0 1.558 3.049c.36-.26.101-.827-.192-1.16-.293-.332-.607-.846-.301-1.166.479-.062.794.568 1.274.616.479.048.812-.562.663-1.02-.148-.459-.599-.748-1.046-.922-.43-.357.017-1.087.548-1.256.532-.17 1.149-.098 1.607-.416.55-.382.638-1.194.413-1.826-.225-.632-.688-1.144-1.084-1.685-.337-.462-.579-1.224-.088-1.516.131-.079.288-.098.438-.126 1.959-.361 3.297-2.688 2.631-4.575-.126-.356-.317-.7-.614-.93-.535-.414-1.346-.416-1.777-.94-.525-.641-.126-1.647.497-2.194.622-.547 1.433-.86 2.001-1.464.169-.029.238-.21.246-.383.005-.108-.037-.213-.052-.32a.693.693 0 0 1 .397-.734.684.684 0 0 1 .81.183c.237.28.215.698.121 1.054-.094.356-.248.707-.234 1.075.014.367.278.765.644.755.447-.013.659-.578.626-1.027-.033-.448-.187-.922-.002-1.332.281-.622 1.261-.897 1.193-1.578-.056-.55-.786-.776-.984-1.292-.08-.21-.062-.44-.073-.663a2.572 2.572 0 0 0-1.23-2.056 2.548 2.548 0 0 0-2.385-.095c-.242.12-.465.278-.715.383-.367.155-.773.185-1.171.214l-2.135.152c-.637.046-1.31.104-1.828.478-.758.547-1.072 1.69-1.973 1.93-.636.17-1.274-.197-1.914-.354a3.063 3.063 0 0 0-2.915.882c-.329-.113-.298-.587-.452-.901-.161-.328-.557-.483-.92-.464-.363.019-.703.178-1.029.339-.703.346-1.502.879-1.462 1.665.01.221.092.447.028.659-.091.302-.43.445-.619.697-.225.3-.21.714-.169 1.088.041.374.094.774-.078 1.108-.172.334-1.278.645-1.58.423Zm16.777 19.498c.205.225.507.33.799.41.353.095.775.149 1.047-.097.186-.17.738-1.216.757-1.43.037-.412-.093-.37-.499-.397-.659-.04-2.987.545-2.104 1.514Z" fill="#F3F8FF"/><path d="M110.772 57.96c1.151 1.55 3.185 2.386 5.087 2.092.112-.154-.111-.334-.295-.383-.51-.137-1.041-.166-1.559-.27-.517-.104-1.04-.298-1.393-.692-.148-.165-.259-.358-.387-.537-.367-.52-1.694-1.772-2.355-1.334.239.36.62.744.902 1.124Zm5.526 3.21c-.206.31-.388.678-.733.813-.204.08-.436.065-.64.144-.602.231-.629 1.092-.401 1.696.228.604.611 1.221.462 1.851-.03.127-.081.255-.061.383.024.154.148.275.284.35.628.349 1.391-.072 1.967-.5.577-.427 1.282-.9 1.952-.647.718.272.909 1.19 1.41 1.774.439.514 1.283.74 1.796.3.174-.149.29-.354.403-.555l.691-1.23c.306-.544.619-1.12.606-1.744-.026-1.204-1.203-2.008-2.246-2.602-.103-.37-.211-.752-.448-1.053-.476-.605-1.27-.564-.926.34-.612.107-1.236-.74-1.932-.732-.847.011-1.737.74-2.184 1.411Zm-.369-11.312c-.094.024-.024 1.291-.208 1.434-.184.143-.309.922-.751.984-.442.062-.555.927-.157.65s1.128-.788 1.225-1.138c.097-.35.748-2.153-.109-1.93Z" fill="#F3F8FF"/><path d="M44.928 57.581a.077.077 0 0 1-.076-.07 44.134 44.134 0 0 1-.17-3.862c0-5.79 1.127-11.405 3.352-16.692a42.896 42.896 0 0 1 22.703-22.822 42.204 42.204 0 0 1 16.605-3.37c4.958 0 9.816.848 14.438 2.518a42.453 42.453 0 0 1 12.325 6.968.079.079 0 0 1 .02.023.095.095 0 0 1 .009.03c.001.01 0 .02-.003.03a.087.087 0 0 1-.014.026.07.07 0 0 1-.023.02.079.079 0 0 1-.059.005.085.085 0 0 1-.026-.014 42.472 42.472 0 0 0-26.667-9.452c-23.438 0-42.507 19.17-42.507 42.73 0 1.283.056 2.578.17 3.849a.076.076 0 0 1-.017.057.077.077 0 0 1-.053.028l-.007-.002Zm42.414 38.953c-8.691 0-17.054-2.611-24.183-7.551a.076.076 0 0 1-.032-.05.078.078 0 0 1 .034-.078.075.075 0 0 1 .057-.011.07.07 0 0 1 .028.012c7.103 4.922 15.435 7.523 24.096 7.523a.077.077 0 0 1 0 .154Z" fill="#002E5D" stroke="#002E5D" stroke-width=".3"/><path d="M95.655 34.788c-.537-3.436-3.744-5.784-7.162-5.244a6.251 6.251 0 0 0-2.96 1.32 6.299 6.299 0 0 0-1.91 2.627 6.332 6.332 0 0 0 .952 6.214l5.848 7.387a.921.921 0 0 0 1.587-.251l3.308-8.823a6.301 6.301 0 0 0 .337-3.23Z" fill="#325D9C"/><path d="M91.814 38.16a3.34 3.34 0 0 0 0-4.706 3.298 3.298 0 0 0-4.681 0 3.34 3.34 0 0 0 0 4.705 3.298 3.298 0 0 0 4.68 0Z" fill="#fff"/><path d="m66.838 87.166-9.138.666c-.529.038-.704.73-.26 1.02l3.787 2.459a.553.553 0 0 1 .241.359l.872 4.446a.551.551 0 0 0 1.039.135l3.996-8.288a.557.557 0 0 0-.256-.742.55.55 0 0 0-.28-.055Z" fill="#325D9C"/><path d="M53.93 94.096a12.447 12.447 0 0 1-4.791-.955 12.5 12.5 0 0 1-4.062-2.727 12.577 12.577 0 0 1-2.713-4.084 12.627 12.627 0 0 1-.9-5.942.077.077 0 0 1 .083-.07.076.076 0 0 1 .069.084 12.75 12.75 0 0 0-.049 1.112c0 6.852 5.546 12.427 12.363 12.427 2.057 0 4.082-.514 5.892-1.498a.076.076 0 0 1 .115.059.079.079 0 0 1-.018.057.077.077 0 0 1-.024.019 12.478 12.478 0 0 1-5.965 1.518Z" fill="#002E5D" stroke="#002E5D" stroke-width=".3"/><path d="M50.466 17.517a4.87 4.87 0 0 0 0-6.861 4.809 4.809 0 0 0-6.826 0 4.87 4.87 0 0 0 0 6.861 4.809 4.809 0 0 0 6.826 0Zm93.973 56.553a1.524 1.524 0 0 0-1.127-1.834 1.516 1.516 0 0 0-1.824 1.133c-.192.82.312 1.64 1.127 1.834a1.516 1.516 0 0 0 1.824-1.134ZM38.676 90.79a1.516 1.516 0 1 0-2.951-.7 1.525 1.525 0 0 0 1.127 1.833 1.516 1.516 0 0 0 1.824-1.133Z" fill="#BBD1DC"/></svg>