<svg width="160" height="112" fill="none" xmlns="http://www.w3.org/2000/svg"><path d="M25.703 8.6 0 76.515 160 110V43.521L25.703 8.6Z" fill="#F3F8FF"/><path d="m86.273 75.285-39.318-32.39L86.273 8.269l39.319 34.626-39.32 32.39Z" fill="#325D9C"/><path d="M118.537 20.388H54.01v60.218h64.527V20.388Z" fill="#fff"/><path d="M98.496 24.036H82.94v14.976h15.556V24.036Z" fill="#C9DAF4"/><path d="M90.503 45.68c-1.52.816-3.069 1.126-4.921 1.126-4.534 0-8.378-3.38-8.378-8.79 0-5.803 3.954-10.818 10.092-10.818 4.813 0 8.046 3.437 8.046 8.142 0 4.226-2.323 6.705-4.922 6.705-1.106 0-2.129-.76-2.046-2.48h-.11c-.968 1.663-2.24 2.48-3.899 2.48-1.603 0-2.986-1.324-2.986-3.55 0-3.493 2.71-6.677 6.553-6.677 1.189 0 2.24.254 2.958.592l-.94 5.1c-.415 2.14-.083 3.126.83 3.155 1.41.028 2.986-1.888 2.986-5.156 0-4.085-2.407-7.015-6.691-7.015-4.507 0-8.295 3.634-8.295 9.352 0 4.706 3.014 7.607 7.106 7.607 1.576 0 3.041-.338 4.175-.986l.442 1.212Zm-1.52-12.172a4.698 4.698 0 0 0-1.383-.197c-2.433 0-4.396 2.339-4.396 5.072 0 1.24.608 2.14 1.825 2.14 1.603 0 3.069-2.084 3.373-3.83l.58-3.184Z" fill="#F70431"/><path d="M98.495 50.843H74.05a.081.081 0 0 1-.086-.083.085.085 0 0 1 .026-.06.08.08 0 0 1 .06-.022h24.445a.079.079 0 0 1 .061.022.082.082 0 0 1 .026.06.085.085 0 0 1-.026.06.081.081 0 0 1-.06.023Zm2.664 6.368H59.63a.08.08 0 0 1-.057-.024.083.083 0 0 1 0-.117.08.08 0 0 1 .057-.024h41.529c.022 0 .042.009.058.024a.084.084 0 0 1 .023.059.084.084 0 0 1-.023.058.082.082 0 0 1-.058.024ZM90.963 63.58H59.63a.08.08 0 0 1-.057-.025.083.083 0 0 1 0-.117.08.08 0 0 1 .057-.024h31.333a.08.08 0 0 1 .057.024.084.084 0 0 1 0 .117.08.08 0 0 1-.057.025Z" fill="#002E5D" stroke="#002E5D" stroke-width=".3"/><path d="M125.592 42.895V96.76H46.955V42.895l39.318 26.933 39.319-26.933Z" fill="#BBD1DC"/><path d="M54.01 32.551a.08.08 0 0 1-.057-.024.083.083 0 0 1-.023-.058v-12.08a.08.08 0 0 1 .081-.083h22.42a.08.08 0 0 1 .058.024.084.084 0 0 1 0 .117.08.08 0 0 1-.057.024H54.09v11.998a.084.084 0 0 1-.023.058.08.08 0 0 1-.056.024Zm64.527 2.129a.08.08 0 0 1-.058-.025.085.085 0 0 1-.024-.058V20.47h-10.85a.083.083 0 0 1-.058-.024.089.089 0 0 1-.024-.058c0-.023.009-.043.024-.059a.08.08 0 0 1 .058-.024h10.932a.08.08 0 0 1 .057.024.085.085 0 0 1 .024.059v14.208a.085.085 0 0 1-.024.058.08.08 0 0 1-.057.024Z" fill="#002E5D" stroke="#002E5D" stroke-width=".3"/><path d="m120.159 80.082-26.647-4.954-1.952 10.898 26.648 4.954 1.951-10.898Z" fill="#fff"/><path d="M102.526 80.085h-.015l-6.848-1.274a.081.081 0 0 1-.067-.064.083.083 0 0 1 .064-.099.08.08 0 0 1 .032 0l6.848 1.274a.08.08 0 0 1 .05.032.084.084 0 0 1-.01.11.08.08 0 0 1-.054.022v-.001Zm13.835 5.025h-.015l-19.094-3.55a.08.08 0 0 1-.054-.034.085.085 0 0 1-.002-.094.082.082 0 0 1 .053-.036.078.078 0 0 1 .032 0l19.094 3.552a.08.08 0 0 1 .05.032.084.084 0 0 1-.01.11.08.08 0 0 1-.054.022v-.001Zm-.426 2.374h-.015l-19.094-3.551a.081.081 0 0 1-.067-.064.083.083 0 0 1 .064-.1.08.08 0 0 1 .032.001l19.094 3.552a.077.077 0 0 1 .051.03.084.084 0 0 1-.009.112.083.083 0 0 1-.056.022v-.002Z" fill="#002E5D" stroke="#002E5D" stroke-width=".3"/><path d="m99.827 72.61-11.693 6.879.921 1.626 11.693-6.88-.921-1.626Zm20.56 13.835-8.107 4.77.922 1.626 8.107-4.77-.922-1.626Z" fill="#F3F8FF"/><path d="M72.969 79.024a.08.08 0 0 1-.048-.016.083.083 0 0 1-.029-.094.083.083 0 0 1 .032-.041l41.139-28.181a.082.082 0 0 1 .063-.016.074.074 0 0 1 .03.012c.01.006.018.014.024.024.006.009.01.02.012.03a.094.094 0 0 1 0 .034.086.086 0 0 1-.038.053l-41.14 28.18a.078.078 0 0 1-.045.015Zm15.166.547a.082.082 0 0 1-.078-.061.084.084 0 0 1 .037-.093l11.693-6.88a.08.08 0 0 1 .062-.007.08.08 0 0 1 .05.038l.92 1.626a.08.08 0 0 1 .008.063.082.082 0 0 1-.037.05l-1.094.644a.08.08 0 0 1-.107-.033.084.084 0 0 1 .026-.11l1.023-.603-.84-1.483-11.623 6.838a.082.082 0 0 1-.04.011Zm25.067 13.352a.08.08 0 0 1-.069-.041l-.921-1.626a.081.081 0 0 1-.008-.063.083.083 0 0 1 .038-.05l5.319-3.13a.08.08 0 0 1 .107.033c.01.018.013.04.008.06a.08.08 0 0 1-.034.05l-5.251 3.09.881 1.555a.081.081 0 0 1 .008.063.083.083 0 0 1-.038.05.075.075 0 0 1-.04.01Z" fill="#002E5D" stroke="#002E5D" stroke-width=".3"/><path d="M66.805 7.35a3.176 3.176 0 0 0 0-4.432 3.035 3.035 0 0 0-4.35 0 3.176 3.176 0 0 0 0 4.432 3.035 3.035 0 0 0 4.35 0Zm61.982 19.493a2.247 2.247 0 0 0 0-3.134 2.147 2.147 0 0 0-3.076 0 2.245 2.245 0 0 0 0 3.134 2.146 2.146 0 0 0 3.076 0Z" fill="#BBD1DC"/></svg>