<svg width="160" height="112" fill="none" xmlns="http://www.w3.org/2000/svg"><path d="M25.703 6 0 72.977 160 106V40.44L25.703 6Z" fill="#F3F8FF"/><path d="M64.739 59.987a.983.983 0 0 1-.614-.201c-.457-.353-.503-1.025-.507-1.1 0-.016 0-.032.002-.048l.769-6.144.13-2.927a.27.27 0 0 1 .195-.248.268.268 0 0 1 .111-.007l4.61.68a.268.268 0 0 1 .224.217.27.27 0 0 1-.002.11c-.527 2.317-1.272 5.996-1.166 6.638.11.664-.645 1.385-1.297 1.873-.73.546-1.624 1.009-2.175 1.126a1.32 1.32 0 0 1-.28.031Zm-.585-1.308c.013.152.085.519.298.68.114.088.263.11.454.07.476-.102 1.302-.535 1.966-1.031.861-.645 1.124-1.132 1.088-1.352-.143-.864.825-5.294 1.108-6.564l-4.026-.593-.117 2.64c0 .007 0 .014-.002.022l-.769 6.128Z" fill="#002E5D"/><path d="M69.413 46.705c-.98 2.94-2.598 5.31-4.19 6.673-1.076.92-2.14 1.382-2.985 1.247-2.097-.332.378-5.566 2.217-10.23.318-.808.71-1.452 1.142-1.963 2.066-2.447 5.039-1.896 5.163-1.957 0 .002.294 1.303-1.347 6.23Z" fill="#fff"/><path d="M69.413 46.705c-.98 2.94-2.598 5.31-4.19 6.673l.374-10.946c2.066-2.447 5.039-1.896 5.162-1.957 0 .002.295 1.303-1.346 6.23Z" fill="#C7DEFF"/><path d="M62.239 54.895a.25.25 0 0 1-.043-.003c-.372-.06-.65-.246-.825-.556-.717-1.278.572-4.456 2.063-8.13.256-.63.52-1.281.769-1.912.718-1.823 1.887-3.06 3.472-3.675 1.26-.49 2.44-.434 2.887-.415l.142.005a.267.267 0 0 1 .305.18.271.271 0 0 1-.135.327c-.079.038-.144.035-.337.027-2.838-.134-4.802 1.127-5.836 3.748-.25.633-.515 1.285-.77 1.916-.705 1.737-1.371 3.377-1.796 4.768-.45 1.472-.55 2.445-.298 2.895.092.163.232.255.44.288a.268.268 0 0 1 .227.287.27.27 0 0 1-.268.249l.003.001Z" fill="#002E5D"/><path d="M70.335 38.608c-.232.234-2.594.919-4.997.935-1.44.009-2.893-.221-3.912-.934-2.725-1.903-.925-2.877-.925-2.877l4.835-1.745 2.875-1.038s2.493 5.288 2.124 5.66Z" fill="#fff"/><path d="M70.336 38.608c-.233.234-2.595.919-4.998.935 0-1.597-.005-4.138 0-5.556l2.875-1.038s2.491 5.288 2.123 5.66Z" fill="#C7DEFF"/><path d="M63.686 39.7a.28.28 0 0 1-.04-.002c-.964-.148-1.762-.44-2.375-.868-1.115-.779-1.66-1.529-1.62-2.23.04-.728.694-1.09.721-1.105a.269.269 0 0 1 .037-.016l7.71-2.784a.267.267 0 0 1 .333.138c.006.014.632 1.343 1.203 2.701.338.801.591 1.457.756 1.948.299.9.27 1.158.111 1.317a.268.268 0 0 1-.453-.14.27.27 0 0 1 .034-.189c.005-.113-.055-.645-1.013-2.897-.409-.96-.83-1.88-1.02-2.288l-7.457 2.692c-.071.045-.41.277-.428.657-.018.345.21.927 1.39 1.752.545.38 1.269.642 2.15.778a.268.268 0 0 1 .227.286.27.27 0 0 1-.267.25h.001Z" fill="#002E5D"/><path d="m71.35 26.547-1.538 5.613-.216.789c-.413-.26-.805-.524-1.175-.79-1.259-.9-2.28-1.823-3.081-2.74-1.738-1.989-2.444-3.954-2.3-5.61.231-2.644 1.985-1.9 1.985-1.9l.8.585 5.525 4.053Z" fill="#fff"/><path d="m71.35 26.546-1.538 5.614h-1.391c-1.26-.9-2.28-1.824-3.081-2.74.156-2.177.365-5.148.485-6.927l5.525 4.053Z" fill="#C7DEFF"/><path d="M69.596 33.218a.267.267 0 0 1-.262-.219.27.27 0 0 1 .005-.122l1.705-6.223-6.147-4.508c-.103-.034-.53-.158-.898.068-.38.233-.618.794-.692 1.619-.094 1.085.206 2.296.875 3.5a.27.27 0 0 1-.308.39.267.267 0 0 1-.16-.127c-.72-1.3-1.045-2.617-.941-3.81.089-1.022.41-1.707.954-2.037.658-.398 1.372-.103 1.402-.09a.25.25 0 0 1 .054.03l6.326 4.64a.27.27 0 0 1 .1.289l-1.753 6.402a.27.27 0 0 1-.26.198Z" fill="#002E5D"/><path d="M69.395 57.455s.841 6.68 4.511 9.673c3.67 2.992 5.817 3.131 7.133 9.464l7.826-1.32 2.077-20.809-21.546 2.992Z" fill="#C7DEFF"/><path d="M81.033 76.861a.267.267 0 0 1-.262-.214c-1.023-4.925-2.5-5.982-4.945-7.734a40.567 40.567 0 0 1-2.094-1.576c-1.946-1.587-3.096-4.184-3.718-6.083-.669-2.045-.881-3.697-.89-3.766a.27.27 0 0 1 .23-.3l21.545-2.992a.267.267 0 0 1 .304.294l-2.077 20.809a.27.27 0 0 1-.223.239l-7.825 1.32a.291.291 0 0 1-.045.003ZM69.695 57.685a23.04 23.04 0 0 0 .832 3.41c.6 1.828 1.7 4.321 3.541 5.824.75.61 1.45 1.112 2.067 1.554 2.424 1.737 4.039 2.893 5.105 7.81l7.37-1.244 2.025-20.26-20.94 2.906Z" fill="#002E5D"/><path d="m93.757 15.183-.008 42.7a2.082 2.082 0 0 1-.605 1.468 2.063 2.063 0 0 1-1.46.608l-23.04-.005a2.056 2.056 0 0 1-1.46-.608 2.077 2.077 0 0 1-.604-1.467l.009-42.701a2.084 2.084 0 0 1 .605-1.468 2.064 2.064 0 0 1 1.46-.608l23.04.005a2.056 2.056 0 0 1 1.46.608 2.078 2.078 0 0 1 .603 1.468Z" fill="#325D9C"/><path d="M82.804 58.941h-5.28a.805.805 0 0 1-.807-.811.806.806 0 0 1 .807-.81h5.28a.805.805 0 0 1 .808.81.814.814 0 0 1-.808.811Zm10.949-42.976H66.584v40.198h27.17V15.965Z" fill="#fff"/><path d="M85.722 33.958c3.068-3.083 3.068-8.08 0-11.163a7.828 7.828 0 0 0-11.107 0c-3.068 3.083-3.068 8.08 0 11.163a7.828 7.828 0 0 0 11.108 0Z" fill="#DEEBFC"/><path d="m78.347 33.161-3.414-3.43 1.643-1.653 1.771 1.78 5.414-5.44 1.644 1.651-7.058 7.092Z" fill="#325D9C"/><path d="M85.722 33.958c3.068-3.083 3.068-8.08 0-11.163a7.828 7.828 0 0 0-11.107 0c-3.068 3.083-3.068 8.08 0 11.163a7.828 7.828 0 0 0 11.108 0Z" fill="#DEEBFC"/><path d="M80.163 36.538c-4.48 0-8.123-3.661-8.123-8.162 0-4.501 3.644-8.163 8.123-8.163 4.478 0 8.122 3.662 8.122 8.163a8.14 8.14 0 0 1-.638 3.178.269.269 0 0 1-.352.143.269.269 0 0 1-.142-.353 7.604 7.604 0 0 0 .596-2.968c0-4.203-3.403-7.623-7.586-7.623s-7.587 3.42-7.587 7.623c0 4.204 3.404 7.624 7.587 7.624a.268.268 0 0 1 .259.27.27.27 0 0 1-.26.27v-.002Zm1.937-.241a.268.268 0 0 1-.266-.237.27.27 0 0 1 .2-.294 7.525 7.525 0 0 0 1.23-.43.266.266 0 0 1 .355.135.27.27 0 0 1-.135.356 8.021 8.021 0 0 1-1.318.461.252.252 0 0 1-.066.009Z" fill="#002E5D"/><path d="M73.706 41.993a1.706 1.706 0 0 0-1.405-1.958 1.7 1.7 0 0 0-1.949 1.412c-.15.93.479 1.807 1.405 1.958a1.7 1.7 0 0 0 1.948-1.412Z" fill="#DEEBFC"/><path d="M73.704 47.07a1.706 1.706 0 0 0-1.404-1.96 1.7 1.7 0 0 0-1.949 1.412c-.15.93.479 1.807 1.405 1.958a1.7 1.7 0 0 0 1.948-1.411Z" fill="#F70431"/><path d="M73.704 52.146a1.706 1.706 0 0 0-1.404-1.958 1.7 1.7 0 0 0-1.949 1.411c-.15.93.479 1.807 1.405 1.958a1.7 1.7 0 0 0 1.948-1.41Zm15.726-9.844H76.046a.583.583 0 0 1 0-1.168h13.382a.583.583 0 0 1 0 1.168Z" fill="#DEEBFC"/><path d="M89.43 47.378H76.046a.583.583 0 0 1 0-1.168h13.382a.583.583 0 0 1 0 1.168Z" fill="#F70431"/><path d="M89.25 52.454H75.868a.58.58 0 0 1-.58-.584.589.589 0 0 1 .58-.584H89.25a.583.583 0 0 1 0 1.168Z" fill="#DEEBFC"/><path d="M67.835 60.06a.267.267 0 0 1-.103-.02 2.332 2.332 0 0 1-1.037-.865 2.35 2.35 0 0 1-.387-1.297l.006-42.701a2.358 2.358 0 0 1 .683-1.658 2.334 2.334 0 0 1 1.65-.686l23.04.004a2.322 2.322 0 0 1 1.65.687 2.347 2.347 0 0 1 .682 1.659v5.971a.27.27 0 0 1-.268.27.268.268 0 0 1-.268-.27v-5.972a1.813 1.813 0 0 0-.526-1.277 1.795 1.795 0 0 0-1.27-.529l-23.04-.004c-.476 0-.933.19-1.27.529a1.811 1.811 0 0 0-.527 1.276l-.008 42.701a1.81 1.81 0 0 0 1.097 1.665.269.269 0 0 1 .159.301.27.27 0 0 1-.262.217h-.001Z" fill="#002E5D"/><path d="M86.856 75.687s2.414-.438 5.1-1.186c3.828-1.068 8.21-2.766 6.947-4.73-2.146-3.34-1.592-10.16-.346-13.221 1.247-3.062 1.785-8.803.815-11.076-.97-2.273-2.814-14.566-2.953-16.515-.138-1.949-3.186-.974-3.186-.974a6.224 6.224 0 0 0-1.267 1.359c-2.17 3.2-.596 7.776-.056 12.246.622 5.147-5.331 11.203-7.409 17.327-2.077 6.124 2.355 16.77 2.355 16.77Z" fill="#C7DEFF"/><path d="M91.955 74.5c3.829-1.067 8.211-2.764 6.948-4.728-2.147-3.341-1.593-10.16-.346-13.222 1.246-3.062 1.784-8.803.815-11.076-.97-2.273-2.815-14.566-2.954-16.515-.138-1.949-3.185-.974-3.185-.974a6.226 6.226 0 0 0-1.267 1.359c1.275.07 2.62.605 2.746 2.504.245 3.687 1.907 13.5 2.738 15.517.831 2.018-2.424 10.645-3.912 13.151-1.196 2.012-2.699 9.437-1.583 13.985Z" fill="#fff"/><path d="M84.162 66.066a.268.268 0 0 1-.266-.234c-.378-2.841-.261-5.197.351-7.002.826-2.436 2.256-4.855 3.638-7.194 2.121-3.59 4.125-6.981 3.758-10.014a61.223 61.223 0 0 0-.463-2.996c-.607-3.529-1.18-6.862.565-9.434a6.527 6.527 0 0 1 1.32-1.418.269.269 0 0 1 .087-.046c.078-.025 1.928-.605 2.922.072.37.253.577.636.613 1.14.144 2.02 1.979 14.191 2.934 16.43.846 1.985.565 6.31-.196 9.345a.27.27 0 0 1-.326.196.268.268 0 0 1-.195-.328 24.61 24.61 0 0 0 .688-5.009c.055-1.74-.11-3.158-.466-3.993-.97-2.276-2.831-14.567-2.976-16.603-.024-.335-.147-.574-.378-.732-.626-.426-1.909-.17-2.412-.02-.45.364-.845.792-1.173 1.27-1.622 2.391-1.066 5.62-.481 9.039.17.989.345 2.012.467 3.022.389 3.215-1.66 6.683-3.829 10.354-1.368 2.315-2.784 4.71-3.591 7.093-.585 1.727-.696 3.999-.327 6.756a.27.27 0 0 1-.264.306Zm9.595 8.162a.267.267 0 0 1-.265-.228.27.27 0 0 1 .183-.298c3.82-1.244 4.898-2.283 5.129-2.937.1-.284.06-.562-.124-.848-1.685-2.623-1.55-6.822-1.413-8.506a.27.27 0 0 1 .289-.246.267.267 0 0 1 .234.186c.01.034.014.069.011.104-.279 3.443.207 6.42 1.33 8.17.276.43.336.875.178 1.321-.4 1.13-2.19 2.2-5.469 3.268a.266.266 0 0 1-.083.014Z" fill="#002E5D"/><path d="m76.288 75.687 26.284-7.99 8.672 16.705-32.184 9.145-2.772-17.86Z" fill="#325D9C"/><path d="M78.06 94.677a.268.268 0 0 1-.266-.228l-2.771-17.86a.27.27 0 0 1 .223-.308.267.267 0 0 1 .307.225l2.725 17.56 31.576-8.972-4.968-9.57a.265.265 0 0 1-.033-.102.266.266 0 0 1 .245-.3.266.266 0 0 1 .199.067.278.278 0 0 1 .065.086l5.12 9.863a.275.275 0 0 1-.061.328.271.271 0 0 1-.104.056l-32.185 9.145a.269.269 0 0 1-.073.01Z" fill="#002E5D"/><path d="M82.367 85.99a2.21 2.21 0 0 0 2.206-2.217 2.21 2.21 0 0 0-2.206-2.216 2.21 2.21 0 0 0-2.205 2.216 2.21 2.21 0 0 0 2.205 2.216Z" fill="#fff"/><path d="M82.242 85.493a2.47 2.47 0 0 1-1.376-.418 2.499 2.499 0 0 1-.377-3.827 2.472 2.472 0 0 1 2.698-.54 2.495 2.495 0 0 1 1.528 2.298.27.27 0 0 1-.268.27.267.267 0 0 1-.268-.27 1.953 1.953 0 0 0-1.196-1.798 1.929 1.929 0 0 0-2.111.422 1.949 1.949 0 0 0-.42 2.121 1.944 1.944 0 0 0 1.79 1.202.268.268 0 0 1 .258.27.27.27 0 0 1-.258.27Z" fill="#002E5D"/><path d="M49.531 19.65a4.606 4.606 0 0 0 0-6.433 4.414 4.414 0 0 0-6.32 0 4.606 4.606 0 0 0 0 6.432 4.414 4.414 0 0 0 6.32 0Zm87.012 53.017a1.43 1.43 0 0 0-1.044-1.719 1.402 1.402 0 0 0-1.688 1.062 1.43 1.43 0 0 0 1.043 1.72 1.403 1.403 0 0 0 1.689-1.063ZM38.61 88.343a1.43 1.43 0 0 0-1.044-1.72 1.403 1.403 0 0 0-1.689 1.063 1.43 1.43 0 0 0 1.044 1.719 1.403 1.403 0 0 0 1.688-1.063Z" fill="#BBD1DC"/><path d="M75.063 34.2h2.468l.915-3.589h1.555v-.756h-1.352l.254-.944-1.484-.661-.253.64-2.103 5.31Zm3.659-5.856c.505 0 .915-.423.915-.944 0-.522-.41-.945-.915-.945-.505 0-.914.423-.914.945 0 .521.409.944.914.944Z" fill="#002E5D"/><path d="M84.939 34.2H82.47l-.915-3.589h-1.554v-.756h1.351l-.254-.944 1.484-.661.254.64 2.103 5.31Zm-3.657-5.856c-.505 0-.915-.423-.915-.944 0-.522.41-.945.915-.945.505 0 .914.423.914.945 0 .521-.41.944-.914.944Z" fill="#325D9C"/><path d="M81.647 24.378h-3.293v1.51h3.293v-1.51ZM82.742 24h-5.487v.378h5.487V24Zm-5.302.378h.091v.566l.092.19h-.274l.091-.19v-.566Z" fill="#002E5D"/></svg>