<svg width="160" height="112" fill="none" xmlns="http://www.w3.org/2000/svg"><g clip-path="url(#a)"><path d="M23.703 2-2 69.213l160 33.14V36.561L23.703 2Z" fill="#F3F8FF"/><path opacity=".5" d="M87.85 56.508a3.99 3.99 0 0 0 0-5.608 3.909 3.909 0 0 0-5.56 0 3.989 3.989 0 0 0 0 5.608 3.909 3.909 0 0 0 5.56 0Z" fill="#072542"/><path d="M119.312 62.064c-4.243 19.025-22.977 30.98-41.843 26.702-18.866-4.279-30.72-23.17-26.479-42.197 4.242-19.026 22.976-30.98 41.843-26.702 18.867 4.277 30.722 23.17 26.479 42.197Z" fill="#fff"/><path d="M85.055 9.185c-24.38 0-44.146 19.934-44.146 44.52 0 24.585 19.765 44.519 44.146 44.519s44.147-19.934 44.147-44.52c0-24.585-19.765-44.519-44.147-44.519Zm0 76.837c-17.698 0-32.046-14.47-32.046-32.318s14.348-32.317 32.046-32.317c17.699 0 32.047 14.47 32.047 32.317 0 17.848-14.348 32.318-32.047 32.318Z" fill="#325D9C"/><path d="m41.137 53.062-.444-.007c.13-9.133 2.97-17.882 8.217-25.3l.36.26c-5.193 7.344-8.006 16.005-8.133 25.047Zm20.227 38.481a44.61 44.61 0 0 1-10.895-9.808l.343-.28a44.176 44.176 0 0 0 10.79 9.71l-.238.378Zm23.692 6.904c-.544 0-1.096-.01-1.639-.03l.016-.447a43.488 43.488 0 0 0 16.215-2.472l.147.422a43.93 43.93 0 0 1-14.739 2.527Zm44.033-39.227-.44-.054c.22-1.812.33-3.636.33-5.462 0-24.425-19.704-44.295-43.924-44.295-2.68 0-5.354.244-7.99.73l-.08-.44a44.404 44.404 0 0 1 8.07-.738c5.99 0 11.8 1.183 17.27 3.516 10.636 4.548 19.102 13.086 23.611 23.811 2.314 5.517 3.487 11.376 3.487 17.416a45.6 45.6 0 0 1-.334 5.516Z" fill="#002E5D"/><path d="m109.751 74.679-.367-.312a32.256 32.256 0 0 0 7.478-20.662c0-17.687-14.268-32.076-31.807-32.076-17.538 0-31.807 14.39-31.807 32.076 0 1.663.127 3.323.379 4.967l-.474.074a33.203 33.203 0 0 1-.384-5.041c0-4.395.853-8.66 2.537-12.674 3.281-7.804 9.442-14.017 17.181-17.326a31.838 31.838 0 0 1 12.568-2.559c4.358 0 8.586.86 12.567 2.559 7.739 3.309 13.9 9.522 17.182 17.326a32.585 32.585 0 0 1 2.537 12.674 32.597 32.597 0 0 1-7.591 20.974h.001ZM81.56 86.074a31.915 31.915 0 0 1-13.832-4.893 32.766 32.766 0 0 1-10.094-10.283l.407-.256c5.215 8.442 13.807 13.891 23.57 14.952l-.05.48Z" fill="#002E5D"/><path d="M54.543 53.59c0 .35.005.697.018 1.043h5.472v-2.084h-5.472c-.013.346-.018.693-.018 1.041Z" fill="#BBD1DC"/><path d="M59.733 55.6H53.79l-.008-.232a27.99 27.99 0 0 1-.018-1.052c0-.375.005-.718.018-1.05l.008-.233h3.95v.483h-3.487a29.372 29.372 0 0 0 0 1.601h5.001v-.295h.48v.779Z" fill="#002E5D"/><path d="M85.056 22.82c-.173 0-.347 0-.52.005-.174.004-.344.007-.514.013v5.516h2.067v-5.516a26.37 26.37 0 0 0-1.032-.018Z" fill="#BBD1DC"/><path d="M85.611 29.441h-2.546v-5.99l.23-.008a25.26 25.26 0 0 1 1.044-.019c.2 0 .368 0 .524.005.197.003.362.008.517.014l.231.008v5.99Zm-2.067-.483h1.588v-5.04l-.278-.006a29.11 29.11 0 0 0-.516-.004c-.194 0-.36 0-.516.004l-.278.006v5.04Z" fill="#002E5D"/><path d="M84.022 84.343a31.45 31.45 0 0 0 1.034.017c.175 0 .347 0 .52-.004.173-.004.344-.007.513-.013v-5.516h-2.067v5.516Z" fill="#BBD1DC"/><path d="M84.458 85.387c-.196 0-.368 0-.526-.004a26.45 26.45 0 0 1-.516-.014l-.23-.009v-3.174h.479v2.708a27.287 27.287 0 0 0 .792.01c.192 0 .362 0 .516-.004l.278-.006v-5.04h-.525v-.484h1.004v5.99l-.23.009a28.943 28.943 0 0 1-1.042.018Z" fill="#002E5D"/><path d="M115.552 52.55h-5.469v2.085h5.468a29.972 29.972 0 0 0 .001-2.085Z" fill="#BBD1DC"/><path d="M115.242 55.6h-2.623v-.483h2.161a29.2 29.2 0 0 0 0-1.6h-4.997v.802h-.479v-1.283h5.94l.008.233a32.16 32.16 0 0 1-.001 2.101l-.009.23Z" fill="#002E5D"/><path d="m69.821 66.884 16.364-12.071a1.38 1.38 0 0 0 .294-1.915l-.27-.372a1.362 1.362 0 0 0-.888-.545 1.346 1.346 0 0 0-1.01.248L67.947 64.3a1.365 1.365 0 0 0-.54.896 1.38 1.38 0 0 0 .246 1.019l.271.37a1.35 1.35 0 0 0 1.897.298Z" fill="#F70431"/><path d="m68 68.263-.295-.353a1.621 1.621 0 0 1 .192-2.27l15.506-13.174a1.594 1.594 0 0 1 1.166-.374 1.587 1.587 0 0 1 1.086.568l.295.353a1.614 1.614 0 0 1 .37 1.175 1.621 1.621 0 0 1-.563 1.095L72.591 66.468l-.31-.37 13.167-11.184a1.126 1.126 0 0 0 .394-.767 1.137 1.137 0 0 0-.26-.823l-.294-.353a1.12 1.12 0 0 0-1.194-.348c-.14.044-.27.117-.382.212L68.204 66.01a1.132 1.132 0 0 0-.134 1.59l.294.352-.366.312Z" fill="#002E5D"/><path d="m71.56 36.449 12.589 17.357a.832.832 0 0 0 1.164.182.84.84 0 0 0 .18-1.174l-12.59-17.357a.832.832 0 0 0-1.163-.182.84.84 0 0 0-.18 1.174Z" fill="#072542"/><path d="M87.95 56.556a4.133 4.133 0 0 0 0-5.811 4.05 4.05 0 0 0-5.761 0 4.133 4.133 0 0 0 0 5.81 4.05 4.05 0 0 0 5.762 0Z" fill="#325D9C"/><path d="M84.326 57.935a4.302 4.302 0 0 1-2.283-1.185 4.384 4.384 0 0 1-.92-4.857 4.34 4.34 0 0 1 1.689-1.95 4.286 4.286 0 0 1 4.896.266 4.35 4.35 0 0 1 1.471 2.123 4.39 4.39 0 0 1 .015 2.59l-.459-.141a3.898 3.898 0 0 0-.012-2.303 3.868 3.868 0 0 0-1.308-1.887 3.816 3.816 0 0 0-4.353-.238 3.858 3.858 0 0 0-1.502 1.734 3.898 3.898 0 0 0 .818 4.319c.555.55 1.263.918 2.03 1.053l-.082.476Z" fill="#002E5D"/><path d="M87.363 53.606a1.657 1.657 0 0 0 0-2.329 1.624 1.624 0 0 0-2.31 0 1.657 1.657 0 0 0 0 2.33 1.624 1.624 0 0 0 2.31 0Zm34.283 12.646-1.478-.498a38.197 38.197 0 0 0 1.935-12.05c0-20.934-16.888-37.965-37.647-37.965a37.243 37.243 0 0 0-13.094 2.36l-.542-1.473a38.78 38.78 0 0 1 13.637-2.458 38.675 38.675 0 0 1 15.26 3.108c9.398 4.018 16.879 11.562 20.863 21.039a39.573 39.573 0 0 1 3.082 15.389 39.818 39.818 0 0 1-2.016 12.548Z" fill="#fff"/><path d="M110.343 23.443c.349-1.494-.568-2.99-2.049-3.343a2.754 2.754 0 0 0-3.314 2.066c-.35 1.494.567 2.99 2.048 3.343a2.755 2.755 0 0 0 3.315-2.066Z" fill="#BBD1DC"/><path d="M109.464 27.518a2.98 2.98 0 0 1-1.664-.509 3.008 3.008 0 0 1-1.103-1.355 3.032 3.032 0 0 1 .649-3.292 2.972 2.972 0 0 1 3.265-.654 3.003 3.003 0 0 1 1.344 1.113 3.037 3.037 0 0 1-.374 3.813 2.988 2.988 0 0 1-2.117.884Zm0-5.557c-.497 0-.984.149-1.397.427a2.553 2.553 0 0 0-.383 3.904 2.497 2.497 0 0 0 2.742.55c.46-.191.853-.516 1.13-.933a2.555 2.555 0 0 0-.313-3.204 2.509 2.509 0 0 0-1.779-.744Z" fill="#002E5D"/><path d="M78.298 89.584 60.99 95.665l1.334 3.859 17.307-6.082-1.333-3.858Z" fill="#BBD1DC"/><path d="m79.36 92.954-17.228 6.1 3.63 10.43 17.23-6.1-3.632-10.43Z" fill="#fff"/><path d="m68.743 107.783-.157-.457 12.555-4.412-4.632-13.406-16.688 5.864 3.482 10.076-.453.16-3.64-10.533.227-.08 17.367-6.102 4.948 14.319-13.009 4.571Z" fill="#002E5D"/><path d="m63.55 92.421-.453.16.972 2.813.453-.159-.973-2.814Zm8.672-3.047-.453.159.973 2.814.452-.16-.972-2.813Z" fill="#002E5D"/><path d="m67.422 99.376-3.639 1.278.447 1.293 3.64-1.278-.448-1.293Zm10.054-.356-3.64 1.278.448 1.293 3.639-1.278-.447-1.294Zm-4.714 3.416-3.639 1.278.447 1.293 3.639-1.278-.447-1.293Z" fill="#072542"/><path d="M10.245 43.928a3.253 3.253 0 0 0 0-4.573 3.187 3.187 0 0 0-4.534 0 3.253 3.253 0 0 0 0 4.573 3.187 3.187 0 0 0 4.534 0Zm133.851 51.571c1.771 0 3.206-1.448 3.206-3.234s-1.435-3.233-3.206-3.233-3.206 1.447-3.206 3.233 1.435 3.234 3.206 3.234Z" fill="#BBD1DC"/></g><defs><clipPath id="a"><path fill="#fff" d="M0 0h160v112H0z"/></clipPath></defs></svg>