<svg height="512" viewBox="0 0 24 24" width="512" xmlns="http://www.w3.org/2000/svg"><g fill="#3f51b5"><path d="M15 18.75c0 .414.336.75.75.75h7.5a.75.75 0 0 0 .75-.75V18c0-2.481-2.019-4.5-4.5-4.5S15 15.519 15 18z"/><circle cx="19.5" cy="8.25" r="3.75"/><path d="M6.75 18.75c0 .414.336.75.75.75h6a.75.75 0 0 0 .75-.75v-1.5c0-2.069-1.683-3.75-3.75-3.75s-3.75 1.681-3.75 3.75zm-6 .75h4.5a.75.75 0 0 0 .75-.75V16.5c0-1.654-1.346-3-3-3-1.655 0-3 1.346-3 3v2.25c0 .414.336.75.75.75z"/><circle cx="10.5" cy="9" r="3.375"/><circle cx="3" cy="9.75" r="2.625"/></g></svg>