<svg width="160" height="112" viewBox="0 0 160 112" fill="none" xmlns="http://www.w3.org/2000/svg">
<g id="&#208;&#160;&#208;&#181;&#209;&#129;&#209;&#131;&#209;&#128;&#209;&#129; 7">
<g id="&#208;&#161;&#208;&#187;&#208;&#190;&#208;&#185; 2">
<g id="Layer 1">
<path id="Vector" d="M25.7028 6L0 73.1556L160 106.267V40.5312L25.7028 6Z" fill="#F3F8FF"/>
<path id="Vector_2" d="M101.709 60.4764H26.2295V77.634H101.709V60.4764Z" fill="#325D9C"/>
<path id="Vector_3" d="M87.3418 96.4571C110.86 96.4571 129.926 77.2914 129.926 53.6493C129.926 30.0072 110.86 10.8416 87.3418 10.8416C63.8233 10.8416 44.7578 30.0072 44.7578 53.6493C44.7578 77.2914 63.8233 96.4571 87.3418 96.4571Z" fill="#BBD1DC"/>
<path id="Vector_4" d="M60.0321 40.3783C59.7239 40.3084 59.4038 40.3113 59.0969 40.3868C58.86 40.6853 58.3594 40.8312 57.9875 40.909C57.5485 40.5855 57.0335 40.2997 56.5188 40.1221C56.1751 40.0034 55.7757 39.8832 55.6283 39.549C55.3926 39.0152 54.4146 38.9244 53.8715 39.1311C53.1329 39.0378 52.3552 39.4014 51.8492 39.951C51.6241 40.1934 51.9808 40.6664 52.2325 40.8787C52.4843 41.0911 52.7928 41.3246 52.7869 41.6552C52.5425 41.8276 52.1861 41.885 51.8888 41.9133C51.7139 41.9297 51.5308 41.9209 51.3718 41.9962C51.2129 42.0714 51.0937 42.2727 51.1803 42.4262C51.094 42.6422 50.9713 42.7655 51.13 42.9352C51.2534 43.0669 51.4458 43.1613 51.4694 43.3426C51.4883 43.484 51.3851 43.6171 51.2667 43.6991C51.1482 43.7811 51.0107 43.8334 50.901 43.9253C50.5593 44.2177 50.631 44.7575 50.7322 45.1977C51.0163 45.4629 51.126 45.973 51.0608 46.3569C51.0357 46.5034 50.9851 46.6623 51.0543 46.7938C51.1336 46.9439 51.3277 46.9801 51.4959 46.9996C51.8551 47.0409 52.2739 47.0613 52.5177 46.7929C53.1604 46.0861 54.333 46.2402 55.2829 46.3188C55.6108 46.3471 55.9619 46.4166 56.1852 46.6581C56.483 46.9821 56.4468 47.4953 56.2977 47.9098C56.1486 48.3243 55.9039 48.708 55.8316 49.1434C55.765 49.5511 55.8572 49.9665 55.9492 50.3697C56.0617 50.8659 56.1883 51.3876 56.5354 51.7582C56.899 52.147 57.1803 52.764 57.2295 53.2953C57.2692 53.7216 57.1786 54.1593 57.2759 54.5764C57.4529 55.3324 58.1915 55.8142 58.9143 56.0885C59.6709 56.3755 60.3685 56.9469 60.7175 57.6801C60.893 58.0477 60.9859 58.4509 61.1473 58.8255C61.4309 59.4785 61.9116 60.0254 62.5213 60.3888C62.9626 60.65 63.6303 60.6715 64.142 60.6922C64.4075 60.7029 64.6921 60.7015 64.9121 60.8514C65.0133 60.9206 65.0932 61.0176 65.1917 61.0911C65.6664 61.4474 66.4107 61.1689 66.89 61.5192C67.0134 61.6097 67.1071 61.7347 67.219 61.8393C67.3717 61.9787 67.5555 62.0793 67.7549 62.1325C67.9543 62.1857 68.1635 62.1899 68.3649 62.1449C68.3134 62.4698 68.7359 62.7837 68.6636 63.1043C68.6054 63.3627 68.341 63.5097 68.1739 63.7147C67.8842 64.0704 67.9059 64.606 68.1095 65.0176C68.3132 65.4293 68.6662 65.7437 69.0166 66.0392C69.6675 66.5877 70.3867 66.797 71.0786 67.292C71.7193 67.7507 71.9696 68.6037 71.9531 69.3943C71.9365 70.1848 71.6999 70.9516 71.5627 71.7303C71.3067 73.185 71.4111 74.7294 72.0357 76.0665C72.6604 77.4036 73.8401 78.5077 75.2653 78.8674C75.4228 78.9073 75.5913 78.7761 75.6841 78.6412C75.7294 78.5731 75.753 78.4928 75.7518 78.4109C75.7507 78.329 75.7248 78.2494 75.6776 78.1826C75.3713 77.7667 74.8847 77.4432 74.5129 77.0855C74.3961 76.9724 74.2713 76.8443 74.2617 76.682C74.251 76.4997 74.3874 76.3476 74.4817 76.1915C74.6251 75.9519 74.6791 75.6687 74.6338 75.3927C74.5911 75.136 74.4066 74.905 74.3793 74.646C74.352 74.387 74.4527 74.0961 74.6842 73.979C74.7894 73.9256 74.9126 73.9117 75.013 73.8492C75.3426 73.6442 75.2115 73.1141 75.4253 72.7883C75.5246 72.6374 75.6889 72.546 75.8385 72.4457C76.4722 72.0215 76.9402 71.2923 76.8972 70.5284C76.8626 69.9173 76.5417 69.2147 76.9433 68.7544C77.3118 68.332 77.9907 68.4824 78.5249 68.3164C78.7423 68.2489 78.8624 68.0198 78.9375 67.8044C79.0126 67.5889 78.9937 67.3489 78.924 67.1309C78.8396 66.8626 78.6849 66.6106 78.6723 66.3296C78.6543 65.9337 78.9158 65.591 79.1074 65.245C79.334 64.8347 79.4723 64.3812 79.5133 63.9138C79.5594 63.3814 79.1462 62.8187 78.6506 62.6262C78.155 62.4336 77.6018 62.5043 77.0735 62.5631C76.5453 62.6219 75.9822 62.6607 75.51 62.4158C75.0774 62.1913 74.7908 61.7655 74.4279 61.4389C73.8159 60.8884 73.0019 60.6353 72.2155 60.3973C71.9187 60.3074 71.5874 60.2197 71.3092 60.3571C71.1995 60.4114 71.1062 60.4985 70.9903 60.5375C70.6727 60.6464 70.3661 60.3735 70.0517 60.2548C69.3991 60.0108 68.5947 60.6102 68.6369 61.3086C68.3385 61.4615 67.7442 61.4499 67.527 61.1932C67.3706 61.0086 67.2798 60.7323 67.0466 60.6713C66.9217 60.6387 66.7772 60.678 66.6694 60.6068C66.4911 60.4886 66.5792 60.2169 66.5783 60.0023C66.5766 59.6596 66.2824 59.3749 65.9573 59.2717C65.6321 59.1685 65.2822 59.2052 64.943 59.2434C64.6038 59.2816 64.2525 59.3138 63.9305 59.2041C63.3015 58.9909 62.9491 58.2232 63.1224 57.5791C63.2956 56.935 63.9178 56.4651 64.5774 56.3916C65.2243 56.3198 65.9694 56.697 66.0681 57.3433C66.0928 57.5073 66.3569 57.489 66.4875 57.3877C66.618 57.2865 66.6692 57.1115 66.6815 56.9464C66.6939 56.7812 66.6756 56.6136 66.7026 56.4499C66.7651 56.0715 67.0933 55.7532 67.4719 55.7043C67.8657 55.6534 68.0887 55.2188 68.3298 54.9001C68.5708 54.5815 68.6794 54.1367 68.516 53.7714C68.4276 53.5735 68.2628 53.3866 68.3025 53.1745C68.3337 53.0083 68.4831 52.8935 68.6276 52.807C69.03 52.5671 69.4798 52.4191 69.9454 52.3732C70.3495 52.3336 70.5206 52.0509 70.6767 51.6743C70.7892 51.4023 70.8117 51.0751 71.0237 50.8716C71.3413 50.5668 71.8608 50.7234 72.2895 50.6329C72.9167 50.5009 73.3116 49.7168 73.0466 49.1304C72.9206 48.8516 72.6846 48.6415 72.4841 48.4103C72.208 48.0907 71.9942 47.7217 71.854 47.3225C71.7258 46.9569 71.6465 46.5455 71.3587 46.2868C70.9754 46.3595 70.5059 46.4141 70.1875 46.6408C70.0646 46.2552 69.9321 45.8537 69.6453 45.5695C69.3584 45.2853 68.8661 45.1669 68.5511 45.4191C68.2434 45.6656 68.235 46.1387 68.3511 46.5167C68.4673 46.8947 68.6785 47.2465 68.7227 47.6395C68.7669 48.0325 68.5565 48.5036 68.1655 48.5479C67.9616 48.5709 67.7627 48.4719 67.5996 48.3469C67.3661 48.1679 67.1673 47.9253 66.8871 47.838C66.6723 47.7707 66.4408 47.8055 66.2166 47.7871C65.4521 47.7243 64.8249 46.9408 64.9273 46.1771C65.0296 45.4134 65.8403 44.8242 66.5938 44.9667C67.4207 44.5225 67.6215 43.3675 67.1532 42.5512C66.6849 41.7349 65.6754 41.3294 64.7422 41.4202C64.4691 41.4465 64.1957 41.5093 63.9229 41.4796C63.1522 41.3948 62.6482 40.6271 61.9425 40.3039C61.4781 40.0916 60.5296 40.4914 60.0321 40.3783Z" fill="#F3F8FF"/>
<path id="Vector_5" d="M71.3932 36.0523C71.1682 36.533 71.5721 37.0854 72.0331 37.3436C72.4941 37.6017 73.0423 37.7177 73.4288 38.0787C74.0501 38.6592 74.0343 39.6488 73.8543 40.4821C73.6743 41.3153 73.3762 42.174 73.5933 42.9985C73.6954 43.3873 73.908 43.7396 74.1643 44.0483C74.4126 44.3472 74.7327 44.6235 75.1183 44.6611C75.6083 44.7094 76.0493 44.3613 76.3624 43.9794C76.6754 43.5974 76.932 43.1526 77.3398 42.8766C77.9271 42.4774 78.7543 42.4788 79.242 41.9617C79.8459 41.3213 79.6006 40.2969 79.6687 39.417C79.7829 37.9399 80.8686 36.708 81.1594 35.2552C81.2157 34.9711 81.2413 34.6773 81.1946 34.3911C81.0444 33.4669 80.1603 32.8055 79.2471 32.6195C78.12 32.3899 77.0687 32.7815 75.9593 32.8864C75.3563 32.9429 74.6588 32.7818 74.1128 33.108C73.2707 33.6113 73.6569 34.461 73.1441 35.07C72.6994 35.5951 71.7136 35.3695 71.3932 36.0523Z" fill="#F3F8FF"/>
<path id="Vector_6" d="M96.3427 38.2681C95.7605 37.8387 94.9926 38.4417 94.526 38.9968C94.0594 39.5518 93.6009 40.0995 93.1385 40.652C92.7911 41.0665 92.4154 41.5002 91.9009 41.6631C91.3865 41.8259 90.7064 41.5783 90.6099 41.0461C90.9227 40.6542 91.7114 41.06 91.9881 40.6421C92.234 40.2714 91.737 39.8606 91.326 39.6935C90.575 39.3878 89.7999 39.0771 88.9895 39.0805C88.1792 39.0839 87.3149 39.4777 86.9984 40.2276C86.7276 40.8694 86.9 41.6328 86.6328 42.2761C86.4657 42.6787 86.1414 42.9954 85.942 43.3827C85.7426 43.7701 85.7099 44.3178 86.057 44.5796C86.3383 44.7911 86.7557 44.7326 87.0336 44.9472C87.2476 45.1123 87.3562 45.423 87.6164 45.494C87.914 45.5749 88.1935 45.2582 88.2189 44.9494C88.2442 44.6407 88.1063 44.3452 88.0161 44.0489C87.7438 43.1636 88.0408 41.9848 88.9268 41.7304C89.1335 41.7092 89.243 41.9953 89.1763 42.1932C89.1096 42.3911 88.9482 42.545 88.8762 42.7409C88.7409 43.1107 89.0219 43.571 89.4106 43.6174C89.8165 43.6652 90.4592 43.4905 90.4637 43.9002C90.4684 44.3364 89.6409 44.1668 89.4342 44.5505C89.3121 44.7767 89.4851 45.0436 89.5186 45.2989C89.5808 45.798 89.0793 46.1995 88.5904 46.3044C88.1016 46.4093 87.5857 46.3326 87.0983 46.4457C86.6108 46.5588 86.1229 46.9875 86.2148 47.4817C85.5759 47.9 84.9019 48.2613 84.2004 48.5615C84.3067 49.0962 85.3255 49.004 85.3966 49.5449C85.4394 49.8692 85.0636 50.0943 84.7387 50.1155C84.4139 50.1367 84.0716 50.0541 83.7714 50.1808C83.2528 50.3997 83.1701 51.1874 83.5341 51.6186C83.898 52.0498 84.5373 52.1507 85.0867 52.0286C85.3066 51.9796 85.5367 51.8872 85.6514 51.6915C85.7611 51.5052 85.7398 51.2733 85.7668 51.0587C85.8002 50.818 85.8966 50.5905 86.0462 50.3994C86.1957 50.2084 86.393 50.0606 86.6179 49.9713C86.871 49.874 87.1928 49.824 87.3016 49.5737C87.6244 49.6981 87.9128 49.8986 88.1426 50.1582C88.3724 50.4178 88.5368 50.7291 88.6222 51.0658C88.8503 51.2892 89.2356 50.9058 89.1496 50.5976C89.0635 50.2894 88.7575 50.1101 88.5063 49.9133C88.2551 49.7165 88.0231 49.3883 88.1578 49.0982C89.2266 49.2568 90.1804 50.0363 90.5531 51.0551C90.9007 50.9332 91.0313 50.4189 90.7826 50.1452C90.8588 49.8786 91.2861 49.9648 91.4377 50.1961C91.5893 50.4274 91.6216 50.735 91.8194 50.9284C92.3909 51.4877 93.5812 50.5396 94.0734 51.1704C94.4186 51.6129 93.8701 52.2624 93.314 52.3232C92.758 52.384 92.2084 52.1371 91.6495 52.1595C91.0329 52.1841 90.4786 52.5301 89.8811 52.6868C89.2837 52.8434 88.5029 52.7103 88.2906 52.1272C88.2343 51.9703 88.2228 51.7905 88.1176 51.6607C87.9685 51.4764 87.6892 51.4682 87.4603 51.5275C86.4666 51.7848 85.5873 52.9769 84.6718 52.5109C84.2839 53.6297 83.0342 54.2057 82.4346 55.2253C81.7818 56.3351 82.063 57.8675 82.9735 58.7757C83.884 59.6839 85.308 59.9729 86.5473 59.6353C86.8305 59.5578 87.1256 59.4501 87.4099 59.5239C87.6943 59.5977 87.8982 59.8321 88.146 59.985C88.3938 60.138 88.7749 60.1779 88.9282 59.9285C88.8615 60.2074 88.8611 60.4983 88.927 60.7774C88.9929 61.0566 89.1232 61.3162 89.3074 61.5353C89.7076 62.0036 90.3762 62.3239 90.4496 62.9372C90.4873 63.2544 90.3436 63.5629 90.3002 63.8796C90.1034 65.3304 91.9015 66.2383 92.3597 67.6282C92.4829 68.0023 92.547 68.4649 92.9 68.6362C93.0623 68.7151 93.2513 68.7092 93.4313 68.6959C94.3544 68.6275 95.468 68.1915 95.5327 67.2632C95.5509 67.0008 95.4764 66.7418 95.4483 66.4803C95.3639 65.6982 95.7326 64.8825 96.3765 64.4335C96.5509 64.3119 96.7475 64.2115 96.8766 64.0422C97.1615 63.6692 97.011 63.1258 96.7812 62.7164C96.5514 62.3069 96.2434 61.9046 96.2386 61.4344C96.2305 60.6795 96.968 60.1765 97.506 59.65C97.9096 59.2507 98.2308 58.7752 98.4513 58.2509C98.6717 57.7265 98.787 57.1636 98.7906 56.5943C97.9943 56.9744 97.0059 57.3425 96.2873 56.8296C96.0381 56.6517 95.8637 56.3896 95.6947 56.1335L94.1739 53.828C94.1069 53.7264 94.0369 53.61 94.0636 53.4912C94.1359 53.1692 94.6284 53.36 94.8427 53.61C95.6086 54.5022 96.3151 55.4443 96.9576 56.4301C97.9488 56.1 98.851 55.5447 99.5942 54.8074C99.8302 54.573 100.059 54.2984 100.104 53.9696C100.148 53.6408 99.9278 53.2545 99.5973 53.2435C99.4687 53.2393 99.3458 53.2888 99.2212 53.3199C98.4685 53.5079 97.7235 53.0165 97.1424 52.4999C97.4309 52.0664 98.084 52.2022 98.581 52.352C99.4729 52.6207 100.396 52.7722 101.326 52.8027C101.558 52.8103 101.795 52.8112 102.013 52.8875C102.166 52.9418 102.304 53.0312 102.438 53.1239C103.625 53.9531 104.564 55.0935 105.152 56.4213C105.564 56.4552 105.776 55.9206 105.751 55.5055C105.725 55.0904 105.61 54.6239 105.865 54.2959C106.064 54.0383 106.44 53.9538 106.608 53.6739C106.819 53.3216 106.611 52.807 106.871 52.4891C107.197 52.091 107.86 52.4286 108.125 52.87C108.39 53.3114 108.543 53.8788 109.003 54.107L109.669 53.9128C109.838 55.0746 110.386 56.147 111.227 56.9616C111.587 56.7029 111.328 56.1352 111.035 55.8024C110.742 55.4696 110.428 54.9564 110.734 54.6363C111.213 54.5736 111.528 55.2044 112.008 55.2524C112.487 55.3005 112.82 54.69 112.671 54.2317C112.523 53.7734 112.072 53.4841 111.625 53.3105C111.195 52.9534 111.642 52.2231 112.173 52.0537C112.705 51.8844 113.322 51.9565 113.78 51.6378C114.33 51.2561 114.418 50.444 114.193 49.8121C113.968 49.1802 113.505 48.6684 113.109 48.1272C112.772 47.6649 112.53 46.9035 113.021 46.6106C113.152 46.532 113.309 46.5127 113.459 46.485C115.418 46.1237 116.756 43.7967 116.09 41.9096C115.964 41.5542 115.773 41.2104 115.476 40.98C114.941 40.5655 114.13 40.5643 113.699 40.0398C113.174 39.3986 113.573 38.3931 114.196 37.846C114.818 37.2989 115.629 36.9853 116.197 36.3817C116.366 36.3534 116.435 36.1721 116.443 35.9991C116.448 35.8905 116.406 35.7856 116.391 35.6782C116.369 35.5292 116.395 35.3771 116.467 35.2449C116.539 35.1126 116.651 35.0074 116.788 34.9453C116.924 34.8831 117.077 34.8674 117.223 34.9004C117.369 34.9334 117.501 35.0134 117.598 35.1282C117.835 35.4087 117.813 35.8263 117.719 36.182C117.625 36.5377 117.471 36.8889 117.485 37.2565C117.499 37.624 117.763 38.0219 118.129 38.012C118.576 37.9995 118.788 37.434 118.755 36.9853C118.722 36.5366 118.568 36.063 118.753 35.6533C119.034 35.0313 120.014 34.7559 119.946 34.075C119.89 33.5242 119.16 33.2992 118.962 32.7826C118.882 32.5739 118.9 32.3429 118.889 32.1198C118.851 31.2874 118.372 30.4884 117.659 30.0643C116.946 29.6401 116.019 29.6031 115.274 29.9695C115.032 30.0891 114.809 30.2475 114.559 30.3524C114.192 30.507 113.786 30.5373 113.388 30.5656L111.253 30.718C110.616 30.7635 109.943 30.8217 109.425 31.1961C108.667 31.7432 108.353 32.8855 107.452 33.1264C106.816 33.2961 106.178 32.9285 105.538 32.7724C104.504 32.5205 103.347 32.8705 102.623 33.654C102.294 33.5409 102.325 33.0667 102.171 32.7529C102.01 32.4252 101.614 32.2697 101.251 32.2886C100.888 32.3076 100.548 32.4673 100.222 32.6279C99.5191 32.9737 98.7197 33.507 98.7596 34.2927C98.7709 34.5141 98.8522 34.7395 98.7878 34.9515C98.6969 35.2535 98.3574 35.3974 98.169 35.6493C97.944 35.9499 97.9594 36.3627 98.0002 36.7368C98.041 37.1109 98.0936 37.5107 97.9218 37.8449C97.7499 38.1791 96.6445 38.4904 96.3427 38.2681Z" fill="#F3F8FF"/>
<path id="Vector_7" d="M113.12 57.7663C113.325 57.9908 113.627 58.0969 113.919 58.1758C114.272 58.271 114.694 58.3248 114.966 58.0788C115.152 57.9091 115.704 56.863 115.723 56.6481C115.76 56.237 115.63 56.2782 115.224 56.2522C114.565 56.2129 112.237 56.7971 113.12 57.7663Z" fill="#F3F8FF"/>
<path id="Vector_8" d="M110.772 57.96C111.923 59.51 113.957 60.3458 115.859 60.0523C115.971 59.8979 115.748 59.7181 115.564 59.6689C115.054 59.5324 114.523 59.5032 114.005 59.3989C113.488 59.2946 112.965 59.1009 112.612 58.707C112.464 58.5425 112.353 58.3493 112.225 58.1698C111.858 57.6504 110.531 56.3976 109.87 56.8355C110.109 57.1969 110.49 57.5803 110.772 57.96Z" fill="#F3F8FF"/>
<path id="Vector_9" d="M116.298 61.1692C116.092 61.4803 115.91 61.8478 115.565 61.9833C115.361 62.0639 115.129 62.0475 114.925 62.1266C114.323 62.3585 114.296 63.2189 114.524 63.8231C114.752 64.4273 115.135 65.044 114.986 65.6742C114.956 65.8009 114.905 65.9287 114.925 66.0568C114.949 66.2112 115.073 66.3319 115.209 66.4077C115.837 66.7555 116.6 66.335 117.176 65.9075C117.753 65.48 118.458 65.0061 119.128 65.2603C119.846 65.532 120.037 66.4495 120.538 67.034C120.977 67.5477 121.821 67.7736 122.334 67.3342C122.508 67.185 122.624 66.98 122.737 66.7795L123.428 65.5484C123.734 65.0053 124.047 64.4282 124.034 63.8047C124.008 62.6008 122.831 61.7972 121.788 61.2035C121.685 60.8328 121.577 60.4514 121.34 60.1499C120.864 59.5454 120.07 59.5859 120.414 60.4892C119.802 60.5967 119.178 59.7499 118.482 59.7578C117.635 59.7694 116.745 60.4989 116.298 61.1692Z" fill="#F3F8FF"/>
<path id="Vector_10" d="M115.929 49.8577C115.835 49.882 115.905 51.149 115.721 51.292C115.537 51.4351 115.412 52.2135 114.97 52.2757C114.528 52.3379 114.415 53.2028 114.813 52.926C115.211 52.6492 115.941 52.138 116.038 51.7877C116.135 51.4374 116.786 49.6346 115.929 49.8577Z" fill="#F3F8FF"/>
<path id="Vector_11" d="M44.9283 57.5815C44.9092 57.5815 44.8908 57.5743 44.8768 57.5613C44.8627 57.5483 44.854 57.5305 44.8524 57.5114C44.7399 56.2362 44.6816 54.9367 44.6816 53.6493C44.6816 47.8598 45.8095 42.2436 48.0341 36.9566C52.3675 26.6751 60.5089 18.4909 70.7366 14.1347C75.9963 11.8985 81.5829 10.7646 87.3421 10.7646C92.2997 10.7646 97.1583 11.6129 101.78 13.2828C106.246 14.8974 110.412 17.2529 114.105 20.2514C114.113 20.2577 114.12 20.2655 114.125 20.2744C114.129 20.2833 114.133 20.2931 114.134 20.3032C114.135 20.3133 114.134 20.3235 114.131 20.3333C114.128 20.3431 114.123 20.3522 114.117 20.3601C114.111 20.368 114.103 20.3746 114.094 20.3794C114.085 20.3842 114.075 20.3873 114.065 20.3883C114.055 20.3893 114.045 20.3883 114.035 20.3853C114.026 20.3823 114.017 20.3774 114.009 20.371C106.491 14.2755 97.0205 10.9185 87.3421 10.9185C63.9035 10.9185 44.8347 30.0887 44.8347 53.6493C44.8347 54.9322 44.8909 56.2269 45.0048 57.4978C45.0059 57.508 45.005 57.5183 45.002 57.5281C44.9991 57.5379 44.9943 57.547 44.9878 57.5549C44.9813 57.5628 44.9734 57.5693 44.9644 57.5741C44.9554 57.5788 44.9455 57.5817 44.9353 57.5826L44.9283 57.5815Z" fill="#002E5D" stroke="#002E5D" stroke-width="0.3"/>
<path id="Vector_12" d="M87.3421 96.5339C78.6509 96.5339 70.2883 93.9228 63.1592 88.9826C63.1509 88.9769 63.1439 88.9696 63.1384 88.9611C63.1329 88.9526 63.1291 88.9432 63.1273 88.9332C63.1254 88.9233 63.1256 88.9131 63.1276 88.9032C63.1297 88.8933 63.1337 88.8839 63.1394 88.8756C63.1451 88.8673 63.1524 88.8601 63.1608 88.8546C63.1692 88.8491 63.1786 88.8453 63.1885 88.8435C63.1984 88.8416 63.2086 88.8417 63.2184 88.8438C63.2282 88.8459 63.2376 88.8499 63.2459 88.8557C70.349 93.7777 78.6813 96.3795 87.3418 96.3795C87.3621 96.3795 87.3815 96.3876 87.3959 96.4021C87.4102 96.4165 87.4183 96.4361 87.4183 96.4564C87.4183 96.4768 87.4102 96.4964 87.3959 96.5108C87.3815 96.5253 87.3621 96.5334 87.3418 96.5334L87.3421 96.5339Z" fill="#002E5D" stroke="#002E5D" stroke-width="0.3"/>
<path id="Vector_13" d="M95.6548 34.788C95.1175 31.3518 91.9108 29.0039 88.4926 29.544C87.4083 29.7156 86.3878 30.1705 85.5334 30.8631C84.6789 31.5558 84.0204 32.4618 83.6237 33.4907C83.2271 34.5196 83.1062 35.6351 83.2731 36.7257C83.4401 37.8163 83.889 38.8436 84.5751 39.705L90.4229 47.0915C90.8696 47.657 91.7575 47.5156 92.0104 46.8407L95.3178 38.0176C95.7103 36.9895 95.8265 35.8756 95.6548 34.788Z" fill="#325D9C"/>
<path id="Vector_14" d="M91.8135 38.1592C93.1061 36.8598 93.1061 34.753 91.8135 33.4536C90.5209 32.1542 88.4251 32.1542 87.1325 33.4536C85.8399 34.753 85.8399 36.8598 87.1325 38.1592C88.4251 39.4586 90.5209 39.4586 91.8135 38.1592Z" fill="white"/>
<path id="Vector_15" d="M66.8381 87.1665L57.6997 87.8316C57.1712 87.87 56.9965 88.5622 57.4401 88.8511L61.2265 91.311C61.2887 91.3514 61.3422 91.404 61.3838 91.4657C61.4253 91.5273 61.4541 91.5968 61.4684 91.6698L62.3403 96.116C62.4427 96.6385 63.1475 96.7299 63.3787 96.2506L67.3747 87.9628C67.4172 87.8751 67.436 87.7777 67.4291 87.6804C67.4222 87.5831 67.3899 87.4894 67.3355 87.4086C67.281 87.3279 67.2064 87.263 67.1191 87.2205C67.0317 87.178 66.9348 87.1594 66.8381 87.1665Z" fill="#325D9C"/>
<path id="Vector_16" d="M53.9305 94.0959C52.2864 94.0974 50.6582 93.7729 49.139 93.1411C47.6197 92.5093 46.2394 91.5826 45.0768 90.4139C43.9143 89.2452 42.9924 87.8576 42.3639 86.3304C41.7354 84.8032 41.4126 83.1664 41.4141 81.5137C41.4141 81.1388 41.4307 80.7599 41.4636 80.3884C41.4654 80.3681 41.4751 80.3493 41.4907 80.3362C41.5062 80.3231 41.5263 80.3167 41.5465 80.3185C41.5668 80.3203 41.5854 80.3301 41.5985 80.3458C41.6115 80.3614 41.6178 80.3816 41.616 80.4019C41.5837 80.7695 41.5671 81.1433 41.5671 81.5137C41.5671 88.3663 47.1128 93.9413 53.9296 93.9413C55.9872 93.9418 58.0124 93.4268 59.8222 92.4427C59.8311 92.4375 59.8409 92.4341 59.8511 92.4327C59.8612 92.4314 59.8716 92.4321 59.8815 92.4349C59.8914 92.4376 59.9006 92.4424 59.9087 92.4488C59.9167 92.4553 59.9234 92.4633 59.9283 92.4723C59.9332 92.4814 59.9362 92.4914 59.9372 92.5017C59.9381 92.512 59.937 92.5223 59.9339 92.5322C59.9308 92.542 59.9258 92.5511 59.9191 92.559C59.9124 92.5668 59.9043 92.5732 59.8951 92.5778C58.0633 93.5743 56.0133 94.0961 53.9305 94.0959Z" fill="#002E5D" stroke="#002E5D" stroke-width="0.3"/>
<path id="Vector_17" d="M50.4662 17.5171C52.3511 15.6223 52.3511 12.5503 50.4662 10.6555C48.5813 8.76068 45.5253 8.76068 43.6404 10.6555C41.7555 12.5503 41.7555 15.6223 43.6404 17.5171C45.5253 19.4119 48.5813 19.4119 50.4662 17.5171Z" fill="#BBD1DC"/>
<path id="Vector_18" d="M144.439 74.0693C144.631 73.2502 144.127 72.4293 143.312 72.236C142.497 72.0427 141.68 72.55 141.488 73.3692C141.296 74.1883 141.8 75.0092 142.615 75.2025C143.43 75.3958 144.247 74.8885 144.439 74.0693Z" fill="#BBD1DC"/>
<path id="Vector_19" d="M38.6762 90.7899C38.8685 89.9707 38.3638 89.1499 37.5489 88.9566C36.734 88.7632 35.9175 89.2706 35.7252 90.0897C35.5329 90.9089 36.0376 91.7297 36.8524 91.9231C37.6673 92.1164 38.4839 91.6091 38.6762 90.7899Z" fill="#BBD1DC"/>
</g>
</g>
</g>
</svg>
