<svg width="160" height="112" viewBox="0 0 160 112" fill="none" xmlns="http://www.w3.org/2000/svg">
<g id="&#208;&#160;&#208;&#181;&#209;&#129;&#209;&#131;&#209;&#128;&#209;&#129; 6">
<g id="&#208;&#161;&#208;&#187;&#208;&#190;&#208;&#185; 2">
<g id="Layer 1">
<path id="Vector" d="M25.7028 8.59961L0 76.5146L160 110V43.5213L25.7028 8.59961Z" fill="#F3F8FF"/>
<path id="Vector_2" d="M86.2726 75.2847L46.9551 42.8946L86.2726 8.26855L125.592 42.8946L86.2726 75.2847Z" fill="#325D9C"/>
<path id="Vector_3" d="M118.537 20.3884H54.0098V80.606H118.537V20.3884Z" fill="white"/>
<path id="Vector_4" d="M98.4962 24.0361H82.9395V39.0116H98.4962V24.0361Z" fill="#C9DAF4"/>
<path id="Vector_5" d="M90.5033 45.6795C88.9824 46.4964 87.4341 46.8064 85.5818 46.8064C81.0475 46.8064 77.2041 43.4257 77.2041 38.0164C77.2041 32.2127 81.1575 27.1979 87.2959 27.1979C92.1087 27.1979 95.3418 30.635 95.3418 35.3398C95.3418 39.5658 93.0193 42.0452 90.4204 42.0452C89.3142 42.0452 88.2914 41.2843 88.3743 39.5658H88.2636C87.2959 41.2279 86.0243 42.0452 84.3652 42.0452C82.7615 42.0452 81.3792 40.721 81.3792 38.4953C81.3792 35.0018 84.0888 31.8183 87.9318 31.8183C89.1206 31.8183 90.1715 32.0719 90.8904 32.4099L89.9501 37.5092C89.5355 39.6505 89.8673 40.6363 90.7796 40.6646C92.1891 40.6927 93.7657 38.7769 93.7657 35.509C93.7657 31.4238 91.3592 28.4936 87.0748 28.4936C82.568 28.4936 78.7803 32.1279 78.7803 37.8465C78.7803 42.5517 81.7938 45.4532 85.8861 45.4532C87.4619 45.4532 88.9274 45.1151 90.0608 44.4675L90.5033 45.6795ZM88.9824 33.5085C88.5336 33.3742 88.0679 33.3077 87.6001 33.3112C85.1669 33.3112 83.204 35.6498 83.204 38.3825C83.204 39.6222 83.8121 40.5238 85.0287 40.5238C86.6324 40.5238 88.0979 38.4389 88.4018 36.6923L88.9824 33.5085Z" fill="#F70431"/>
<path id="Vector_6" d="M98.4952 50.8428H74.0503C74.0392 50.8435 74.0281 50.8419 74.0176 50.8381C74.0072 50.8343 73.9976 50.8283 73.9895 50.8206C73.9814 50.8129 73.975 50.8035 73.9706 50.7932C73.9662 50.7828 73.9639 50.7716 73.9639 50.7603C73.9639 50.749 73.9662 50.7378 73.9706 50.7274C73.975 50.717 73.9814 50.7077 73.9895 50.7C73.9976 50.6922 74.0072 50.6863 74.0176 50.6825C74.0281 50.6786 74.0392 50.6771 74.0503 50.6778H98.4952C98.5063 50.6771 98.5174 50.6786 98.5278 50.6825C98.5383 50.6863 98.5479 50.6922 98.556 50.7C98.5641 50.7077 98.5705 50.717 98.5749 50.7274C98.5793 50.7378 98.5816 50.749 98.5816 50.7603C98.5816 50.7716 98.5793 50.7828 98.5749 50.7932C98.5705 50.8035 98.5641 50.8129 98.556 50.8206C98.5479 50.8283 98.5383 50.8343 98.5278 50.8381C98.5174 50.8419 98.5063 50.8435 98.4952 50.8428Z" fill="#002E5D" stroke="#002E5D" stroke-width="0.3"/>
<path id="Vector_7" d="M101.159 57.2112H59.63C59.6084 57.2112 59.5878 57.2025 59.5726 57.187C59.5574 57.1715 59.5488 57.1505 59.5488 57.1286C59.5488 57.1066 59.5574 57.0856 59.5726 57.0701C59.5878 57.0546 59.6084 57.0459 59.63 57.0459H101.159C101.181 57.0459 101.201 57.0546 101.217 57.0701C101.232 57.0856 101.24 57.1066 101.24 57.1286C101.24 57.1505 101.232 57.1715 101.217 57.187C101.201 57.2025 101.181 57.2112 101.159 57.2112Z" fill="#002E5D" stroke="#002E5D" stroke-width="0.3"/>
<path id="Vector_8" d="M90.963 63.5795H59.63C59.6084 63.5795 59.5878 63.5708 59.5726 63.5553C59.5574 63.5398 59.5488 63.5188 59.5488 63.4969C59.5488 63.4749 59.5574 63.4539 59.5726 63.4384C59.5878 63.4229 59.6084 63.4142 59.63 63.4142H90.963C90.9846 63.4142 91.0052 63.4229 91.0204 63.4384C91.0356 63.4539 91.0442 63.4749 91.0442 63.4969C91.0442 63.5188 91.0356 63.5398 91.0204 63.5553C91.0052 63.5708 90.9846 63.5795 90.963 63.5795Z" fill="#002E5D" stroke="#002E5D" stroke-width="0.3"/>
<path id="Vector_9" d="M125.592 42.8947V96.7607H46.9551V42.8947L86.2733 69.8278L125.592 42.8947Z" fill="#BBD1DC"/>
<path id="Vector_10" d="M54.0108 32.5514C53.9893 32.5514 53.9687 32.5427 53.9534 32.5272C53.9382 32.5117 53.9297 32.4907 53.9297 32.4688V20.3885C53.9297 20.3665 53.9382 20.3455 53.9534 20.33C53.9687 20.3145 53.9893 20.3058 54.0108 20.3058H76.4316C76.4531 20.3059 76.4736 20.3146 76.4888 20.3301C76.5039 20.3456 76.5124 20.3666 76.5124 20.3885C76.5124 20.4103 76.5039 20.4312 76.4887 20.4467C76.4736 20.4621 76.453 20.4708 76.4316 20.4708H54.0902V32.4688C54.0902 32.4904 54.0819 32.5111 54.0671 32.5266C54.0522 32.5421 54.032 32.551 54.0108 32.5514Z" fill="#002E5D" stroke="#002E5D" stroke-width="0.3"/>
<path id="Vector_11" d="M118.537 34.6795C118.515 34.6795 118.494 34.6708 118.479 34.6553C118.464 34.6398 118.455 34.6187 118.455 34.5968V20.4708H107.605C107.583 20.4708 107.563 20.4621 107.547 20.4467C107.532 20.4313 107.524 20.4103 107.523 20.3885C107.523 20.3665 107.532 20.3455 107.547 20.33C107.562 20.3145 107.583 20.3058 107.605 20.3058H118.537C118.558 20.3058 118.579 20.3145 118.594 20.33C118.609 20.3455 118.618 20.3665 118.618 20.3885V34.5968C118.618 34.6187 118.609 34.6398 118.594 34.6553C118.579 34.6708 118.558 34.6795 118.537 34.6795Z" fill="#002E5D" stroke="#002E5D" stroke-width="0.3"/>
<path id="Vector_12" d="M120.159 80.0817L93.5117 75.1276L91.5604 86.0258L118.208 90.9799L120.159 80.0817Z" fill="white"/>
<path id="Vector_13" d="M102.526 80.0845C102.521 80.085 102.516 80.085 102.511 80.0845L95.663 78.8112C95.6522 78.8096 95.6419 78.8057 95.6326 78.8C95.6233 78.7942 95.6153 78.7865 95.6089 78.7775C95.6026 78.7685 95.5981 78.7583 95.5957 78.7474C95.5933 78.7366 95.5931 78.7254 95.5951 78.7145C95.597 78.7036 95.6011 78.6932 95.6071 78.6839C95.6131 78.6747 95.6209 78.6667 95.6299 78.6606C95.639 78.6544 95.6492 78.6502 95.6599 78.6482C95.6706 78.6461 95.6816 78.6463 95.6922 78.6486L102.54 79.9223C102.56 79.9261 102.578 79.9373 102.59 79.9537C102.602 79.9701 102.608 79.9905 102.606 80.011C102.604 80.0315 102.595 80.0505 102.58 80.0645C102.565 80.0784 102.546 80.0861 102.526 80.0863V80.0845Z" fill="#002E5D" stroke="#002E5D" stroke-width="0.3"/>
<path id="Vector_14" d="M116.361 85.1109C116.356 85.1112 116.351 85.1112 116.346 85.1109L97.2519 81.5592C97.2411 81.5576 97.2308 81.5538 97.2215 81.548C97.2122 81.5422 97.2041 81.5346 97.1978 81.5256C97.1914 81.5166 97.1869 81.5063 97.1846 81.4955C97.1822 81.4847 97.182 81.4735 97.1839 81.4625C97.1859 81.4516 97.19 81.4412 97.196 81.432C97.202 81.4227 97.2097 81.4148 97.2188 81.4086C97.2279 81.4025 97.2381 81.3982 97.2488 81.3962C97.2595 81.3941 97.2705 81.3943 97.2811 81.3967L116.375 84.9483C116.395 84.9521 116.413 84.9633 116.425 84.9797C116.437 84.9961 116.443 85.0165 116.441 85.037C116.439 85.0575 116.43 85.0765 116.415 85.0905C116.4 85.1044 116.381 85.1122 116.361 85.1123V85.1109Z" fill="#002E5D" stroke="#002E5D" stroke-width="0.3"/>
<path id="Vector_15" d="M115.935 87.4844C115.93 87.4848 115.925 87.4848 115.92 87.4844L96.8261 83.9328C96.8153 83.9311 96.805 83.9273 96.7957 83.9215C96.7864 83.9158 96.7783 83.9081 96.772 83.8991C96.7657 83.8901 96.7612 83.8799 96.7588 83.869C96.7564 83.8582 96.7562 83.847 96.7582 83.8361C96.7601 83.8252 96.7642 83.8148 96.7702 83.8055C96.7762 83.7962 96.784 83.7883 96.793 83.7822C96.8021 83.776 96.8123 83.7718 96.823 83.7697C96.8337 83.7677 96.8447 83.7678 96.8553 83.7702L115.949 87.3219C115.97 87.3252 115.988 87.3361 116 87.3526C116.013 87.3691 116.019 87.3898 116.017 87.4105C116.015 87.4313 116.006 87.4506 115.991 87.4645C115.975 87.4784 115.955 87.4859 115.935 87.4855V87.4844Z" fill="#002E5D" stroke="#002E5D" stroke-width="0.3"/>
<path id="Vector_16" d="M99.8269 72.6094L88.1338 79.4885L89.0551 81.1146L100.748 74.2355L99.8269 72.6094Z" fill="#F3F8FF"/>
<path id="Vector_17" d="M120.387 86.4451L112.28 91.2146L113.202 92.8406L121.309 88.0712L120.387 86.4451Z" fill="#F3F8FF"/>
<path id="Vector_18" d="M72.969 79.0241C72.9516 79.0242 72.9346 79.0185 72.9206 79.008C72.9066 78.9974 72.8963 78.9826 72.8912 78.9656C72.8862 78.9487 72.8865 78.9305 72.8924 78.9138C72.8982 78.8971 72.9092 78.8827 72.9236 78.8728L114.063 50.6919C114.072 50.6851 114.082 50.6802 114.093 50.6775C114.104 50.6748 114.115 50.6743 114.126 50.6762C114.137 50.678 114.147 50.6821 114.156 50.6882C114.166 50.6943 114.174 50.7022 114.18 50.7116C114.186 50.7209 114.19 50.7314 114.192 50.7425C114.194 50.7536 114.194 50.7649 114.192 50.7759C114.189 50.7869 114.185 50.7973 114.178 50.8064C114.172 50.8155 114.163 50.8231 114.154 50.8288L73.014 79.0098C73.0008 79.0191 72.9851 79.0241 72.969 79.0241Z" fill="#002E5D" stroke="#002E5D" stroke-width="0.3"/>
<path id="Vector_19" d="M88.1346 79.571C88.1168 79.5709 88.0995 79.5649 88.0854 79.5538C88.0712 79.5427 88.0611 79.5272 88.0565 79.5097C88.0519 79.4922 88.053 79.4736 88.0598 79.4568C88.0666 79.44 88.0786 79.426 88.094 79.4168L99.7874 72.5377C99.7966 72.5323 99.8067 72.5288 99.8172 72.5274C99.8277 72.526 99.8384 72.5268 99.8486 72.5297C99.8695 72.5352 99.8873 72.5489 99.8981 72.5679L100.819 74.1943C100.83 74.2133 100.833 74.2358 100.827 74.257C100.822 74.2781 100.808 74.2961 100.79 74.3071L99.6957 74.9506C99.6771 74.9602 99.6557 74.9622 99.6358 74.9562C99.6159 74.9502 99.599 74.9366 99.5886 74.9183C99.5782 74.9 99.5751 74.8783 99.5799 74.8577C99.5847 74.8371 99.5971 74.8192 99.6145 74.8076L100.638 74.2051L99.7981 72.722L88.1752 79.5601C88.1628 79.5672 88.1488 79.571 88.1346 79.571Z" fill="#002E5D" stroke="#002E5D" stroke-width="0.3"/>
<path id="Vector_20" d="M113.202 92.9232C113.188 92.9229 113.174 92.919 113.162 92.9117C113.15 92.9045 113.14 92.8942 113.133 92.8818L112.212 91.2558C112.201 91.2368 112.198 91.2142 112.204 91.1931C112.21 91.1719 112.223 91.1539 112.242 91.143L117.561 88.0138C117.579 88.0042 117.601 88.0022 117.621 88.0082C117.64 88.0142 117.657 88.0277 117.668 88.046C117.678 88.0644 117.681 88.0861 117.676 88.1066C117.672 88.1272 117.659 88.1451 117.642 88.1567L112.391 91.2467L113.272 92.8009C113.283 92.8199 113.286 92.8425 113.28 92.8636C113.274 92.8848 113.261 92.9028 113.242 92.9137C113.23 92.9205 113.216 92.9238 113.202 92.9232Z" fill="#002E5D" stroke="#002E5D" stroke-width="0.3"/>
<path id="Vector_21" d="M66.8049 7.3503C68.006 6.12636 68.006 4.14196 66.8049 2.91802C65.6037 1.69408 63.6563 1.69408 62.4551 2.91802C61.254 4.14196 61.254 6.12635 62.4551 7.35029C63.6563 8.57424 65.6037 8.57424 66.8049 7.3503Z" fill="#BBD1DC"/>
<path id="Vector_22" d="M128.787 26.8435C129.636 25.978 129.636 24.5747 128.787 23.7092C127.937 22.8437 126.56 22.8437 125.711 23.7092C124.861 24.5747 124.861 25.978 125.711 26.8435C126.56 27.7091 127.937 27.7091 128.787 26.8435Z" fill="#BBD1DC"/>
</g>
</g>
</g>
</svg>
