<svg width="160" height="112" viewBox="0 0 160 112" fill="none" xmlns="http://www.w3.org/2000/svg">
<g id="&#208;&#160;&#208;&#181;&#209;&#129;&#209;&#131;&#209;&#128;&#209;&#129; 8">
<g id="Group 2753">
<g id="&#208;&#161;&#208;&#187;&#208;&#190;&#208;&#185; 2">
<g id="Layer 1">
<path id="Vector" d="M25.7028 6L0 72.977L160 106V40.4394L25.7028 6Z" fill="#F3F8FF"/>
<path id="Vector_2" d="M64.7385 59.9874C64.5174 59.9912 64.3013 59.9202 64.1252 59.7857C63.6684 59.4326 63.6223 58.761 63.6185 58.6854C63.6177 58.6697 63.6183 58.654 63.6202 58.6384L64.3886 52.4944L64.5182 49.567C64.5198 49.5293 64.5293 49.4924 64.546 49.4586C64.5627 49.4249 64.5863 49.395 64.6152 49.371C64.6442 49.3469 64.6778 49.3293 64.714 49.3191C64.7501 49.309 64.788 49.3066 64.8252 49.3121L69.4348 49.9926C69.4714 49.998 69.5065 50.011 69.5379 50.0307C69.5693 50.0504 69.5963 50.0764 69.6172 50.1071C69.6381 50.1378 69.6524 50.1725 69.6593 50.2091C69.6662 50.2456 69.6655 50.2832 69.6572 50.3194C69.1302 52.6361 68.3853 56.3155 68.4908 56.9574C68.6008 57.621 67.8462 58.342 67.1937 58.8301C66.4646 59.376 65.5704 59.8389 65.0194 59.9563C64.9271 59.9766 64.833 59.9871 64.7385 59.9874ZM64.1541 58.6795C64.1668 58.8315 64.2394 59.1977 64.4518 59.3597C64.5659 59.4471 64.7145 59.4699 64.9063 59.4288C65.3821 59.3272 66.2085 58.8937 66.8716 58.3976C67.7331 57.7527 67.9964 57.2662 67.9597 57.0458C67.8167 56.1822 68.7847 51.7521 69.0683 50.4821L65.0417 49.889L64.9252 52.5293C64.9252 52.5362 64.9252 52.5435 64.9231 52.5508L64.1541 58.6795Z" fill="#002E5D"/>
<path id="Vector_3" d="M69.4132 46.7049C68.4332 49.6444 66.815 52.0146 65.2237 53.3781C64.1473 54.2981 63.0834 54.76 62.2377 54.6252C60.1407 54.2929 62.6158 49.0589 64.455 44.3942C64.7734 43.5875 65.1649 42.9432 65.5974 42.432C67.6628 39.9847 70.636 40.5364 70.7595 40.4753C70.7595 40.4767 71.0544 41.778 69.4132 46.7049Z" fill="white"/>
<path id="Vector_4" d="M69.4132 46.7049C68.4331 49.6444 66.815 52.0146 65.2236 53.3781L65.5973 42.432C67.6627 39.9847 70.636 40.5364 70.7594 40.4753C70.7594 40.4767 71.0543 41.778 69.4132 46.7049Z" fill="#C7DEFF"/>
<path id="Vector_5" d="M62.2387 54.8954C62.2245 54.8955 62.2104 54.8943 62.1964 54.892C61.8238 54.8329 61.5467 54.646 61.3713 54.3365C60.6536 53.0583 61.9427 49.8801 63.434 46.2051C63.6897 45.5757 63.9538 44.9248 64.2027 44.2944C64.9215 42.4707 66.0903 41.2339 67.6747 40.6187C68.9357 40.1292 70.1155 40.1848 70.5624 40.2041C70.6161 40.2065 70.6759 40.2093 70.7041 40.2093C70.7679 40.1969 70.834 40.2082 70.8901 40.2411C70.9463 40.274 70.9886 40.3262 71.0094 40.3881C71.0301 40.45 71.0278 40.5174 71.0029 40.5777C70.978 40.638 70.9321 40.6872 70.8739 40.7161C70.7952 40.7544 70.7302 40.7506 70.537 40.7427C67.6992 40.609 65.7348 41.8703 64.7011 44.4909C64.4515 45.1241 64.1855 45.7764 63.9307 46.4072C63.2257 48.1438 62.5598 49.784 62.1349 51.1745C61.6852 52.6465 61.5848 53.6203 61.8372 54.0698C61.9289 54.2332 62.0689 54.3247 62.2772 54.3579C62.3441 54.3682 62.4046 54.4035 62.4466 54.4567C62.4887 54.51 62.5091 54.5772 62.5039 54.645C62.4987 54.7128 62.4682 54.7761 62.4185 54.8222C62.3688 54.8683 62.3036 54.8938 62.2359 54.8937L62.2387 54.8954Z" fill="#002E5D"/>
<path id="Vector_6" d="M70.3354 38.6085C70.103 38.842 67.741 39.5267 65.338 39.5429C63.8986 39.5519 62.4448 39.3218 61.4259 38.6085C58.7008 36.7057 60.5015 35.7318 60.5015 35.7318L65.3363 33.9873L68.2113 32.9485C68.2113 32.9485 70.7039 38.2368 70.3354 38.6085Z" fill="white"/>
<path id="Vector_7" d="M70.3358 38.6085C70.1034 38.842 67.7413 39.5267 65.3384 39.5429C65.3384 37.9455 65.3329 35.4047 65.3384 33.9873L68.2133 32.9485C68.2133 32.9485 70.7043 38.2368 70.3358 38.6085Z" fill="#C7DEFF"/>
<path id="Vector_8" d="M63.686 39.7008C63.6723 39.7007 63.6586 39.6997 63.6451 39.6976C62.6825 39.5498 61.8836 39.2579 61.2706 38.8299C60.1561 38.0515 59.6109 37.3012 59.6504 36.6003C59.6917 35.8717 60.3455 35.5097 60.3724 35.4948C60.3841 35.4885 60.3963 35.4831 60.4088 35.4786L68.1186 32.6949C68.1813 32.6722 68.2501 32.6738 68.3117 32.6993C68.3733 32.7249 68.4232 32.7726 68.4517 32.8331C68.4579 32.8465 69.0839 34.1762 69.6549 35.5342C69.9928 36.3353 70.2465 36.9906 70.4112 37.4822C70.7099 38.3828 70.6807 38.6399 70.5222 38.7991C70.476 38.8456 70.4144 38.8735 70.3491 38.8776C70.2838 38.8817 70.2193 38.8616 70.1677 38.8212C70.1161 38.7807 70.0809 38.7227 70.0689 38.6581C70.0569 38.5935 70.0689 38.5266 70.1025 38.4702C70.108 38.3573 70.0478 37.8246 69.0897 35.5732C68.6813 34.6132 68.2595 33.6939 68.0698 33.2853L60.613 35.9774C60.5418 36.0216 60.2039 36.2538 60.1847 36.6338C60.1671 36.9792 60.3947 37.561 61.5756 38.3859C62.1204 38.7659 62.8437 39.0281 63.7248 39.1636C63.7916 39.1739 63.8521 39.2091 63.8941 39.2622C63.9361 39.3154 63.9567 39.3825 63.9516 39.4502C63.9465 39.5179 63.9162 39.5812 63.8667 39.6274C63.8172 39.6736 63.7522 39.6993 63.6846 39.6994L63.686 39.7008Z" fill="#002E5D"/>
<path id="Vector_9" d="M71.3499 26.5465L69.8122 32.1598L69.5956 32.9485C69.1831 32.6881 68.7915 32.4252 68.4209 32.1598C67.162 31.2596 66.141 30.3362 65.34 29.4197C63.6023 27.4305 62.8958 25.4649 63.0409 23.8084C63.2712 21.1653 65.0255 21.9084 65.0255 21.9084L65.8248 22.4939L71.3499 26.5465Z" fill="white"/>
<path id="Vector_10" d="M71.3497 26.5464L69.812 32.1597H68.4207C67.1618 31.2595 66.1408 30.3361 65.3398 29.4196C65.4956 27.2432 65.7046 24.2723 65.8246 22.4928L71.3497 26.5464Z" fill="#C7DEFF"/>
<path id="Vector_11" d="M69.5958 33.218C69.5546 33.2177 69.514 33.208 69.4772 33.1894C69.4404 33.1709 69.4083 33.144 69.3835 33.111C69.3587 33.078 69.3417 33.0397 69.334 32.9991C69.3263 32.9584 69.328 32.9166 69.339 32.8767L71.0441 26.6539L64.8971 22.1464C64.794 22.1119 64.3673 21.9882 63.9995 22.2138C63.6186 22.4473 63.3807 23.0083 63.3071 23.8326C63.2126 24.9184 63.5134 26.1292 64.1824 27.3338C64.1995 27.3647 64.2104 27.3988 64.2144 27.4339C64.2184 27.4691 64.2155 27.5047 64.2058 27.5387C64.1962 27.5728 64.1799 27.6046 64.158 27.6323C64.1361 27.66 64.109 27.6831 64.0782 27.7003C64.0474 27.7175 64.0136 27.7285 63.9786 27.7325C63.9436 27.7366 63.9081 27.7336 63.8743 27.7239C63.8404 27.7142 63.8088 27.6979 63.7812 27.6759C63.7536 27.6539 63.7306 27.6266 63.7135 27.5957C62.994 26.2967 62.6688 24.9792 62.7729 23.7856C62.862 22.7641 63.183 22.079 63.7269 21.7495C64.3845 21.3512 65.0992 21.6458 65.1291 21.6586C65.1484 21.6666 65.1667 21.6769 65.1834 21.6894L71.5089 26.3285C71.5528 26.3608 71.586 26.4057 71.6039 26.4574C71.6218 26.509 71.6237 26.5649 71.6092 26.6177L69.856 33.02C69.8403 33.0772 69.8063 33.1276 69.7593 33.1634C69.7122 33.1992 69.6548 33.2184 69.5958 33.218Z" fill="#002E5D"/>
<path id="Vector_12" d="M69.3955 57.4553C69.3955 57.4553 70.236 64.1357 73.9061 67.1281C77.5762 70.1204 79.7231 70.2593 81.0387 76.5916L88.865 75.2722L90.9417 54.4633L69.3955 57.4553Z" fill="#C7DEFF"/>
<path id="Vector_13" d="M81.0331 76.8614C80.9715 76.8613 80.9119 76.8399 80.8641 76.8008C80.8164 76.7618 80.7834 76.7074 80.7708 76.6468C79.7478 71.7223 78.2716 70.6649 75.826 68.9127C75.2021 68.4657 74.4946 67.9589 73.7321 67.3371C71.7857 65.7504 70.6361 63.1533 70.0145 61.2539C69.3452 59.2085 69.1328 57.5575 69.1242 57.4884C69.1154 57.4181 69.1345 57.347 69.1774 57.2907C69.2203 57.2344 69.2836 57.1973 69.3535 57.1875L90.899 54.1955C90.9392 54.1899 90.9802 54.1936 91.0188 54.2062C91.0574 54.2189 91.0926 54.2401 91.1219 54.2684C91.1511 54.2967 91.1735 54.3313 91.1875 54.3696C91.2015 54.4079 91.2066 54.4489 91.2026 54.4895L89.1258 75.2989C89.12 75.3577 89.0951 75.413 89.0549 75.4562C89.0147 75.4994 88.9615 75.5281 88.9034 75.5379L81.0778 76.8576C81.063 76.86 81.0481 76.8613 81.0331 76.8614ZM69.6952 57.685C69.8857 58.8415 70.1639 59.9816 70.5274 61.0954C71.1263 62.9225 72.2271 65.4164 74.0683 66.9187C74.8181 67.5299 75.518 68.0315 76.1354 68.4733C78.559 70.2096 80.1737 71.3662 81.2404 76.2827L88.6109 75.0391L90.635 54.7787L69.6952 57.685Z" fill="#002E5D"/>
<path id="Vector_14" d="M93.7573 15.1826L93.7494 57.8836C93.7494 58.1562 93.696 58.4261 93.5921 58.6779C93.4883 58.9297 93.3361 59.1584 93.1443 59.3511C92.9525 59.5438 92.7247 59.6966 92.4741 59.8008C92.2235 59.905 91.9549 59.9586 91.6837 59.9585L68.6448 59.9543C68.3736 59.9543 68.105 59.9005 67.8545 59.7962C67.6039 59.6918 67.3763 59.5389 67.1845 59.3461C66.9928 59.1534 66.8408 58.9245 66.737 58.6727C66.6333 58.4209 66.58 58.151 66.5801 57.8785L66.589 15.1775C66.589 14.9049 66.6424 14.635 66.7462 14.3832C66.85 14.1315 67.0022 13.9027 67.194 13.71C67.3858 13.5173 67.6135 13.3644 67.864 13.2602C68.1146 13.1559 68.3832 13.1022 68.6544 13.1023L91.6933 13.1068C91.9645 13.1069 92.233 13.1606 92.4835 13.265C92.7339 13.3694 92.9615 13.5223 93.1532 13.7151C93.3448 13.9079 93.4968 14.1367 93.6005 14.3885C93.7042 14.6403 93.7574 14.9101 93.7573 15.1826Z" fill="#325D9C"/>
<path id="Vector_15" d="M82.8043 58.941H77.5236C77.3096 58.9409 77.1044 58.8554 76.9531 58.7033C76.8018 58.5512 76.7168 58.3449 76.7168 58.1299C76.717 57.9148 76.8021 57.7087 76.9534 57.5566C77.1048 57.4046 77.31 57.3192 77.524 57.3191H82.8046C82.9106 57.3191 83.0156 57.3401 83.1135 57.3808C83.2114 57.4216 83.3004 57.4814 83.3753 57.5567C83.4502 57.632 83.5096 57.7214 83.5502 57.8198C83.5907 57.9183 83.6115 58.0237 83.6115 58.1302C83.6113 58.3453 83.5262 58.5514 83.3748 58.7035C83.2235 58.8555 83.0183 58.9409 82.8043 58.941Z" fill="white"/>
<path id="Vector_16" d="M93.7533 15.9651H66.584V56.1632H93.7533V15.9651Z" fill="white"/>
<path id="Vector_17" d="M85.7225 33.9578C88.7898 30.8754 88.7898 25.8778 85.7225 22.7954C82.6551 19.713 77.6819 19.713 74.6145 22.7954C71.5471 25.8778 71.5471 30.8754 74.6145 33.9578C77.6819 37.0402 82.6551 37.0402 85.7225 33.9578Z" fill="#DEEBFC"/>
<path id="Vector_18" d="M78.347 33.1612L74.9326 29.7302L76.5762 28.0785L78.347 29.858L83.761 24.4174L85.4046 26.069L78.347 33.1612Z" fill="#325D9C"/>
<path id="Vector_19" d="M85.7225 33.9578C88.7898 30.8754 88.7898 25.8778 85.7225 22.7954C82.6551 19.713 77.6819 19.713 74.6145 22.7954C71.5471 25.8778 71.5471 30.8754 74.6145 33.9578C77.6819 37.0402 82.6551 37.0402 85.7225 33.9578Z" fill="#DEEBFC"/>
<path id="Vector_20" d="M80.1627 36.5384C75.6837 36.5384 72.04 32.8766 72.04 28.3756C72.04 23.8746 75.684 20.2131 80.1627 20.2131C84.6413 20.2131 88.2853 23.875 88.2853 28.3756C88.2877 29.4674 88.0705 30.5484 87.6469 31.5538C87.6332 31.5864 87.6132 31.616 87.5881 31.6408C87.563 31.6657 87.5333 31.6853 87.5007 31.6986C87.4348 31.7254 87.3609 31.7249 87.2954 31.697C87.2299 31.6692 87.1781 31.6163 87.1514 31.5501C87.1247 31.4838 87.1252 31.4096 87.1529 31.3438C87.5484 30.405 87.7511 29.3957 87.749 28.3763C87.749 24.1728 84.3457 20.7527 80.1627 20.7527C75.9797 20.7527 72.5763 24.1728 72.5763 28.3763C72.5763 32.5798 75.9797 35.9999 80.1627 35.9999C80.2322 36.0024 80.298 36.0319 80.3463 36.0822C80.3946 36.1325 80.4216 36.1996 80.4216 36.2695C80.4216 36.3394 80.3946 36.4065 80.3463 36.4568C80.298 36.5071 80.2322 36.5366 80.1627 36.5391V36.5384Z" fill="#002E5D"/>
<path id="Vector_21" d="M82.0998 36.2966C82.0345 36.2965 81.9715 36.2725 81.9225 36.229C81.8736 36.1855 81.8421 36.1256 81.8341 36.0604C81.826 35.9953 81.8419 35.9294 81.8787 35.8752C81.9156 35.821 81.9709 35.7821 82.0342 35.766C82.456 35.6583 82.8678 35.5142 83.2649 35.3352C83.297 35.3207 83.3317 35.3128 83.3669 35.3118C83.4021 35.3107 83.4372 35.3167 83.4701 35.3293C83.503 35.3419 83.5331 35.3609 83.5587 35.3852C83.5843 35.4095 83.6049 35.4387 83.6193 35.471C83.6337 35.5033 83.6416 35.5381 83.6426 35.5735C83.6436 35.6089 83.6377 35.6441 83.6252 35.6772C83.6126 35.7102 83.5937 35.7405 83.5695 35.7662C83.5453 35.792 83.5163 35.8127 83.4842 35.8271C83.059 36.0189 82.618 36.1732 82.1662 36.2883C82.1445 36.294 82.1222 36.2968 82.0998 36.2966Z" fill="#002E5D"/>
<path id="Vector_22" d="M73.7055 41.9935C73.8558 41.063 73.227 40.1862 72.301 40.0351C71.375 39.8841 70.5025 40.516 70.3522 41.4465C70.2019 42.377 70.8307 43.2538 71.7567 43.4048C72.6827 43.5559 73.5552 42.924 73.7055 41.9935Z" fill="#DEEBFC"/>
<path id="Vector_23" d="M73.7045 47.0698C73.8548 46.1393 73.226 45.2625 72.3 45.1114C71.3741 44.9604 70.5016 45.5923 70.3513 46.5228C70.2009 47.4533 70.8298 48.3301 71.7557 48.4811C72.6817 48.6322 73.5542 48.0003 73.7045 47.0698Z" fill="#F70431"/>
<path id="Vector_24" d="M73.7045 52.1461C73.8548 51.2155 73.226 50.3388 72.3 50.1877C71.3741 50.0367 70.5016 50.6686 70.3513 51.5991C70.2009 52.5296 70.8298 53.4064 71.7557 53.5574C72.6817 53.7085 73.5542 53.0766 73.7045 52.1461Z" fill="#DEEBFC"/>
<path id="Vector_25" d="M89.4291 42.3018H76.0468C75.893 42.3009 75.7457 42.2391 75.637 42.1298C75.5282 42.0205 75.4667 41.8725 75.4658 41.718C75.4666 41.5633 75.5281 41.4153 75.6369 41.3059C75.7456 41.1965 75.8929 41.1347 76.0468 41.1338H89.4291C89.583 41.1347 89.7303 41.1965 89.8391 41.3059C89.9479 41.4153 90.0093 41.5633 90.0101 41.718C90.0092 41.8725 89.9477 42.0205 89.839 42.1298C89.7302 42.2391 89.5829 42.3009 89.4291 42.3018Z" fill="#DEEBFC"/>
<path id="Vector_26" d="M89.4291 47.378H76.0468C75.8929 47.377 75.7456 47.3152 75.6369 47.2058C75.5281 47.0965 75.4666 46.9484 75.4658 46.7938C75.4667 46.6392 75.5282 46.4913 75.637 46.382C75.7457 46.2727 75.893 46.2109 76.0468 46.21H89.4291C89.5829 46.2109 89.7302 46.2727 89.839 46.382C89.9477 46.4913 90.0092 46.6392 90.0101 46.7938C90.0093 46.9484 89.9479 47.0965 89.8391 47.2058C89.7303 47.3152 89.583 47.377 89.4291 47.378Z" fill="#F70431"/>
<path id="Vector_27" d="M89.2504 52.4538H75.8681C75.7141 52.4534 75.5665 52.3918 75.4577 52.2824C75.3488 52.1729 75.2875 52.0247 75.2871 51.8699C75.2879 51.7153 75.3494 51.5673 75.4581 51.4579C75.5669 51.3485 75.7142 51.2867 75.8681 51.2858H89.2504C89.4043 51.2867 89.5516 51.3485 89.6604 51.4579C89.7691 51.5673 89.8306 51.7153 89.8314 51.8699C89.8305 52.0245 89.769 52.1725 89.6602 52.2818C89.5515 52.391 89.4042 52.4529 89.2504 52.4538Z" fill="#DEEBFC"/>
<path id="Vector_28" d="M67.835 60.0606C67.7996 60.0604 67.7645 60.0531 67.7319 60.0392C67.3091 59.86 66.9485 59.5593 66.6951 59.1749C66.4417 58.7905 66.3069 58.3395 66.3076 57.8784L66.3138 15.177C66.3139 14.8691 66.3743 14.5643 66.4915 14.2798C66.6088 13.9954 66.7807 13.7369 66.9974 13.5192C67.2141 13.3016 67.4713 13.1289 67.7544 13.0111C68.0375 12.8933 68.3409 12.8327 68.6473 12.8328L91.6862 12.8373C91.9927 12.8373 92.2961 12.898 92.5791 13.0159C92.8622 13.1338 93.1194 13.3066 93.3361 13.5243C93.5527 13.7421 93.7245 14.0007 93.8417 14.2852C93.9589 14.5697 94.0192 14.8746 94.0191 15.1826V21.1545C94.0191 21.226 93.9908 21.2945 93.9405 21.345C93.8902 21.3956 93.822 21.424 93.7509 21.424C93.6798 21.4239 93.6116 21.3954 93.5613 21.3448C93.511 21.2942 93.4828 21.2256 93.4828 21.1542V15.1822C93.4828 14.9451 93.4364 14.7103 93.3461 14.4912C93.2559 14.2721 93.1236 14.073 92.9567 13.9053C92.7899 13.7376 92.5918 13.6045 92.3738 13.5138C92.1559 13.423 91.9222 13.3762 91.6862 13.3762L68.6473 13.3717C68.1708 13.3718 67.7137 13.562 67.3767 13.9006C67.0397 14.2392 66.8503 14.6985 66.8501 15.1774L66.8422 57.8784C66.8417 58.2336 66.9456 58.581 67.1408 58.8771C67.336 59.1732 67.6138 59.4048 67.9395 59.5428C67.9964 59.567 68.0432 59.6102 68.0721 59.6651C68.1009 59.72 68.1101 59.7832 68.098 59.8441C68.0858 59.905 68.0532 59.9598 68.0056 59.9993C67.9579 60.0388 67.8982 60.0606 67.8364 60.061L67.835 60.0606Z" fill="#002E5D"/>
<path id="Vector_29" d="M86.856 75.6872C86.856 75.6872 89.2696 75.2491 91.9558 74.5009C95.7841 73.4334 100.166 71.7355 98.9035 69.7716C96.7569 66.431 97.3108 59.6117 98.5573 56.5499C99.8038 53.4881 100.342 47.7469 99.3724 45.4738C98.4029 43.2007 96.5576 30.9076 96.419 28.9588C96.2805 27.0101 93.2333 27.9846 93.2333 27.9846C92.7457 28.3714 92.3187 28.8295 91.9665 29.3437C89.7959 32.544 91.3697 37.1199 91.9098 41.5898C92.5316 46.7371 86.5789 52.793 84.5015 58.9169C82.4241 65.0409 86.856 75.6872 86.856 75.6872Z" fill="#C7DEFF"/>
<path id="Vector_30" d="M91.9553 74.5009C95.7835 73.4334 100.166 71.7355 98.9029 69.7716C96.7564 66.431 97.3102 59.6116 98.5567 56.5499C99.8032 53.4881 100.341 47.7469 99.3718 45.4738C98.4024 43.2007 96.557 30.9076 96.4185 28.9588C96.2799 27.0101 93.2327 27.9846 93.2327 27.9846C92.7452 28.3714 92.3181 28.8295 91.9659 29.3437C93.241 29.4148 94.5858 29.9489 94.712 31.8476C94.9571 35.5353 96.6192 45.3474 97.4501 47.3652C98.281 49.383 95.0265 58.0104 93.5377 60.5161C92.3424 62.528 90.839 69.9533 91.9553 74.5009Z" fill="white"/>
<path id="Vector_31" d="M84.1621 66.0658C84.0972 66.0656 84.0345 66.0419 83.9857 65.9989C83.9368 65.9559 83.9051 65.8966 83.8964 65.8319C83.5183 62.9909 83.6348 60.6352 84.2474 58.8299C85.0725 56.3944 86.5029 53.9751 87.8852 51.6357C90.0063 48.0457 92.0105 44.6547 91.6433 41.6223C91.523 40.6256 91.3484 39.6089 91.1796 38.6261C90.5731 35.0972 90.0004 31.7639 91.7451 29.192C92.1126 28.6559 92.5578 28.1779 93.0658 27.7739C93.0915 27.7533 93.1208 27.7376 93.1521 27.7276C93.2302 27.7027 95.0796 27.1227 96.0742 27.8001C96.4448 28.0527 96.651 28.4358 96.6868 28.9402C96.8305 30.9604 98.6659 43.1312 99.6205 45.3694C100.467 47.3551 100.186 51.6806 99.4246 54.7151C99.4072 54.7844 99.3632 54.844 99.3021 54.8806C99.241 54.9173 99.168 54.9281 99.099 54.9106C99.0301 54.8932 98.9708 54.8489 98.9343 54.7876C98.8978 54.7262 98.8871 54.6528 98.9045 54.5835C99.2898 53.0469 99.5411 51.2215 99.592 49.5743C99.6473 47.8339 99.482 46.4155 99.1258 45.5809C98.1557 43.3053 96.2949 31.0139 96.1502 28.9778C96.1264 28.6431 96.0027 28.404 95.772 28.2465C95.1463 27.8198 93.863 28.0758 93.3601 28.2268C92.9098 28.5903 92.5146 29.0177 92.1868 29.4957C90.5646 31.8873 91.1211 35.1159 91.7055 38.5346C91.8757 39.5239 92.0514 40.5472 92.1734 41.5573C92.5619 44.7721 90.513 48.2398 88.3441 51.911C86.9759 54.2256 85.5596 56.6213 84.7528 59.004C84.1683 60.7313 84.0573 63.0026 84.4258 65.7604C84.4352 65.8313 84.4162 65.903 84.373 65.9598C84.3298 66.0166 84.266 66.0539 84.1955 66.0634C84.1844 66.0648 84.1733 66.0656 84.1621 66.0658Z" fill="#002E5D"/>
<path id="Vector_32" d="M93.7573 74.2279C93.6933 74.2281 93.6313 74.2053 93.5825 74.1635C93.5338 74.1218 93.5015 74.0639 93.4916 74.0003C93.4816 73.9368 93.4946 73.8717 93.5282 73.817C93.5618 73.7622 93.6138 73.7213 93.6748 73.7017C97.4952 72.4581 98.5725 71.4186 98.8036 70.7653C98.9043 70.4807 98.8641 70.2033 98.6798 69.9169C96.9953 67.2938 97.1301 63.0948 97.2669 61.4114C97.2698 61.3761 97.2795 61.3417 97.2956 61.3103C97.3117 61.2788 97.3338 61.2508 97.3606 61.2279C97.3875 61.205 97.4185 61.1876 97.4521 61.1768C97.4856 61.1659 97.5209 61.1618 97.556 61.1647C97.5911 61.1676 97.6253 61.1774 97.6566 61.1936C97.688 61.2097 97.7158 61.2319 97.7386 61.2589C97.7614 61.2859 97.7787 61.3171 97.7895 61.3508C97.8002 61.3845 97.8043 61.42 97.8015 61.4552C97.522 64.8977 98.0077 67.8752 99.1305 69.6243C99.4072 70.0551 99.467 70.4997 99.3089 70.946C98.9084 72.0763 97.1198 73.1452 93.8402 74.2137C93.8135 74.2228 93.7855 74.2276 93.7573 74.2279Z" fill="#002E5D"/>
<path id="Vector_33" d="M76.2881 75.6871L102.572 67.697L111.244 84.402L79.0596 93.5469L76.2881 75.6871Z" fill="#325D9C"/>
<path id="Vector_34" d="M78.0593 94.6773C77.9953 94.6773 77.9334 94.6543 77.8848 94.6125C77.8362 94.5707 77.8041 94.5128 77.7942 94.4492L75.0228 76.5891C75.0118 76.5184 75.0291 76.4463 75.0711 76.3886C75.113 76.3308 75.1761 76.2921 75.2464 76.2811C75.3167 76.2701 75.3884 76.2875 75.4459 76.3297C75.5034 76.3718 75.5419 76.4352 75.5528 76.5058L78.2776 94.0654L109.854 85.0936L104.886 75.5244C104.868 75.4929 104.857 75.4581 104.853 75.4221C104.848 75.3861 104.852 75.3496 104.862 75.3148C104.872 75.2801 104.889 75.2477 104.912 75.2197C104.935 75.1918 104.963 75.1687 104.995 75.1519C105.027 75.1352 105.062 75.1251 105.098 75.1222C105.134 75.1193 105.17 75.1238 105.204 75.1352C105.239 75.1467 105.27 75.165 105.297 75.189C105.324 75.213 105.346 75.2422 105.362 75.275L110.482 85.1381C110.5 85.1737 110.51 85.2129 110.512 85.2529C110.513 85.293 110.506 85.3328 110.49 85.3696C110.474 85.4064 110.451 85.4392 110.421 85.4656C110.391 85.492 110.355 85.5114 110.317 85.5223L78.1322 94.6669C78.1085 94.6737 78.0839 94.6772 78.0593 94.6773Z" fill="#002E5D"/>
<path id="Vector_35" d="M82.3674 85.9894C83.5854 85.9894 84.5727 84.9972 84.5727 83.7732C84.5727 82.5493 83.5854 81.5571 82.3674 81.5571C81.1495 81.5571 80.1621 82.5493 80.1621 83.7732C80.1621 84.9972 81.1495 85.9894 82.3674 85.9894Z" fill="white"/>
<path id="Vector_36" d="M82.2415 85.4935C81.7519 85.4939 81.2732 85.3483 80.8659 85.0752C80.4587 84.8021 80.1412 84.4137 79.9536 83.9593C79.766 83.5048 79.7167 83.0046 79.812 82.522C79.9073 82.0394 80.1429 81.5961 80.489 81.248C80.8351 80.9 81.2761 80.663 81.7563 80.5668C82.2365 80.4707 82.7342 80.5199 83.1866 80.7081C83.639 80.8963 84.0257 81.2151 84.2977 81.6242C84.5698 82.0332 84.715 82.5142 84.715 83.0062C84.715 83.0777 84.6867 83.1462 84.6364 83.1967C84.5861 83.2473 84.5179 83.2757 84.4468 83.2757C84.3757 83.2757 84.3075 83.2473 84.2572 83.1967C84.2069 83.1462 84.1787 83.0777 84.1787 83.0062C84.1787 82.6212 84.0651 82.2448 83.8522 81.9247C83.6394 81.6046 83.3368 81.3551 82.9828 81.2077C82.6289 81.0604 82.2394 81.0219 81.8636 81.097C81.4878 81.1721 81.1427 81.3575 80.8718 81.6297C80.6008 81.902 80.4163 82.2488 80.3416 82.6264C80.2668 83.0041 80.3052 83.3955 80.4518 83.7512C80.5984 84.1069 80.8467 84.4109 81.1653 84.6248C81.4839 84.8387 81.8584 84.9529 82.2415 84.9529C82.311 84.9554 82.3768 84.9849 82.4251 85.0352C82.4734 85.0855 82.5004 85.1526 82.5004 85.2225C82.5004 85.2924 82.4734 85.3595 82.4251 85.4098C82.3768 85.4601 82.311 85.4896 82.2415 85.4921V85.4935Z" fill="#002E5D"/>
</g>
</g>
<path id="Vector_37" d="M49.531 19.6493C51.2763 17.8729 51.2763 14.9928 49.531 13.2165C47.7858 11.4401 44.9561 11.4401 43.2109 13.2165C41.4656 14.9928 41.4656 17.8729 43.2109 19.6493C44.9561 21.4256 47.7858 21.4256 49.531 19.6493Z" fill="#BBD1DC"/>
<path id="Vector_38" d="M136.543 72.6667C136.721 71.8988 136.254 71.1293 135.499 70.948C134.745 70.7667 133.989 71.2424 133.811 72.0103C133.633 72.7783 134.1 73.5478 134.854 73.7291C135.609 73.9103 136.365 73.4347 136.543 72.6667Z" fill="#BBD1DC"/>
<path id="Vector_39" d="M38.6095 88.3425C38.7876 87.5745 38.3203 86.805 37.5658 86.6238C36.8113 86.4425 36.0552 86.9181 35.8771 87.6861C35.6991 88.4541 36.1664 89.2236 36.9209 89.4049C37.6754 89.5861 38.4315 89.1105 38.6095 88.3425Z" fill="#BBD1DC"/>
<g id="Group 2363">
<path id="Vector_40" d="M75.0625 34.1999H77.5315L78.446 30.6111H80.0005V29.8555H78.6492L78.9032 28.9111L77.4193 28.25L77.1657 28.8901L75.0625 34.1999Z" fill="#002E5D"/>
<path id="Vector_41" d="M78.7221 28.3442C79.2271 28.3442 79.6365 27.9213 79.6365 27.3997C79.6365 26.8782 79.2271 26.4553 78.7221 26.4553C78.217 26.4553 77.8076 26.8782 77.8076 27.3997C77.8076 27.9213 78.217 28.3442 78.7221 28.3442Z" fill="#002E5D"/>
<path id="Vector_42" d="M84.939 34.1999H82.47L81.5555 30.6111H80.001V29.8555H81.3524L81.0984 28.9111L82.5823 28.25L82.8358 28.8901L84.939 34.1999Z" fill="#325D9C"/>
<path id="Vector_43" d="M81.2816 28.3442C80.7766 28.3442 80.3672 27.9213 80.3672 27.3997C80.3672 26.8782 80.7766 26.4553 81.2816 26.4553C81.7867 26.4553 82.1961 26.8782 82.1961 27.3997C82.1961 27.9213 81.7867 28.3442 81.2816 28.3442Z" fill="#325D9C"/>
<path id="Vector_44" d="M81.6465 24.3776H78.3545V25.8887H81.6465V24.3776Z" fill="#002E5D"/>
<path id="Vector_45" d="M82.7416 24H77.2549V24.3778H82.7416V24Z" fill="#002E5D"/>
<path id="Vector_46" d="M77.4401 24.3776H77.5315V24.9442L77.623 25.1331H77.3486L77.4401 24.9442V24.3776Z" fill="#002E5D"/>
</g>
</g>
</g>
</svg>
