<svg width="160" height="112" viewBox="0 0 160 112" fill="none" xmlns="http://www.w3.org/2000/svg">
<g id="&#208;&#160;&#208;&#181;&#209;&#129;&#209;&#131;&#209;&#128;&#209;&#129; 5" clip-path="url(#clip0_565_4608)">
<g id="&#208;&#161;&#208;&#187;&#208;&#190;&#208;&#185; 2">
<g id="Layer 1">
<path id="Vector" d="M23.7028 2L-2 69.2132L158 102.353V36.5608L23.7028 2Z" fill="#F3F8FF"/>
<path id="Vector_2" opacity="0.5" d="M87.85 56.5082C89.3855 54.9597 89.3855 52.449 87.85 50.9005C86.3144 49.3519 83.8247 49.3519 82.2892 50.9005C80.7536 52.449 80.7536 54.9597 82.2892 56.5082C83.8247 58.0568 86.3144 58.0568 87.85 56.5082Z" fill="#072542"/>
<path id="Vector_3" d="M119.312 62.0638C115.069 81.0894 96.3351 93.0445 77.4689 88.7658C58.6027 84.4872 46.7487 65.5954 50.9902 46.5695C55.2317 27.5435 73.9665 15.5898 92.8331 19.8667C111.7 24.1437 123.555 43.0379 119.312 62.0638Z" fill="white"/>
<path id="Vector_4" d="M85.0553 9.1853C60.6743 9.1853 40.9092 29.1192 40.9092 53.7044C40.9092 78.2896 60.6743 98.2239 85.0553 98.2239C109.436 98.2239 129.202 78.29 129.202 53.7044C129.202 29.1188 109.437 9.1853 85.0553 9.1853ZM85.0553 86.0219C67.3569 86.0219 53.0089 71.5527 53.0089 53.7044C53.0089 35.8561 67.3569 21.3873 85.0553 21.3873C102.754 21.3873 117.102 35.8565 117.102 53.7044C117.102 71.5523 102.754 86.0219 85.0553 86.0219Z" fill="#325D9C"/>
<path id="Vector_5" d="M41.1368 53.0616L40.6934 53.055C40.8223 43.9218 43.6629 35.1734 48.9095 27.7556L49.2708 28.0153C44.0768 35.3589 41.2644 44.0196 41.1368 53.0616Z" fill="#002E5D"/>
<path id="Vector_6" d="M61.3643 91.543C57.2215 88.9015 53.54 85.5877 50.4688 81.7355L50.8125 81.4551C53.8539 85.269 57.4993 88.5499 61.6015 91.1651L61.3643 91.543Z" fill="#002E5D"/>
<path id="Vector_7" d="M85.0564 98.4474C84.5116 98.4474 83.9598 98.4373 83.417 98.4175L83.4328 97.9703C83.9705 97.9901 84.5167 98.0001 85.0564 98.0001C90.0257 98.0066 94.9599 97.1607 99.6478 95.4985L99.7953 95.9204C95.06 97.5994 90.0759 98.4539 85.0564 98.4474Z" fill="#002E5D"/>
<path id="Vector_8" d="M129.089 59.2202L128.649 59.1658C128.869 57.3537 128.979 55.5298 128.979 53.7042C128.979 29.2795 109.275 9.40874 85.0547 9.40874C82.3752 9.40831 79.7012 9.65291 77.0654 10.1395L76.9854 9.6996C79.6475 9.208 82.3483 8.96085 85.0547 8.96118C91.0446 8.96118 96.855 10.1444 102.325 12.4775C112.961 17.025 121.427 25.563 125.936 36.2883C128.25 41.8046 129.423 47.6641 129.423 53.7042C129.423 55.548 129.312 57.3901 129.089 59.2202Z" fill="#002E5D"/>
<path id="Vector_9" d="M109.751 74.6787L109.384 74.3667C114.212 68.5825 116.861 61.2653 116.862 53.7048C116.862 36.0184 102.594 21.6293 85.0553 21.6293C67.5167 21.6293 53.2485 36.0184 53.2485 53.7048C53.2482 55.3677 53.3746 57.0282 53.6266 58.6716L53.1532 58.7458C52.8971 57.0779 52.7685 55.3926 52.7686 53.7048C52.7686 49.3096 53.6221 45.0455 55.3059 41.0313C58.5874 33.2269 64.7482 27.014 72.4873 23.7048C76.4678 22.0061 80.6962 21.146 85.0546 21.146C89.4129 21.146 93.6413 22.0068 97.6222 23.7048C105.361 27.014 111.522 33.2269 114.804 41.0313C116.488 45.0455 117.341 49.3096 117.341 53.7048C117.352 61.3818 114.662 68.8139 109.75 74.6787H109.751Z" fill="#002E5D"/>
<path id="Vector_10" d="M81.5606 86.0744C76.6371 85.5413 71.9027 83.8664 67.728 81.1807C63.6482 78.5509 60.2001 75.0383 57.6338 70.8976L58.0405 70.6421C63.2562 79.084 71.8477 84.5334 81.6119 85.5939L81.5606 86.0744Z" fill="#002E5D"/>
<path id="Vector_11" d="M54.543 53.5902C54.543 53.9393 54.5481 54.2871 54.5608 54.6327H60.0333V52.5488H54.5608C54.5481 52.8948 54.543 53.2415 54.543 53.5902Z" fill="#BBD1DC"/>
<path id="Vector_12" d="M59.7333 55.6006H53.7901L53.7819 55.368C53.7695 55.0362 53.7637 54.6923 53.7637 54.3165C53.7637 53.9407 53.7695 53.5978 53.7819 53.2661L53.7901 53.0334H57.7401V53.516H54.2532C54.2463 53.7701 54.2429 54.034 54.2429 54.3158C54.2429 54.5976 54.2463 54.8625 54.2532 55.117H59.254V54.822H59.7333V55.6006Z" fill="#002E5D"/>
<path id="Vector_13" d="M85.0565 22.8203C84.8829 22.8203 84.7093 22.8203 84.5357 22.8245C84.3621 22.8286 84.1919 22.8318 84.0225 22.8383V28.354H86.0892V22.8383C85.9173 22.8318 85.7454 22.8276 85.576 22.8245C85.4065 22.8214 85.2298 22.8203 85.0565 22.8203Z" fill="#BBD1DC"/>
<path id="Vector_14" d="M85.6111 29.4412H83.0654V23.4514L83.2958 23.4427C83.4515 23.4368 83.6158 23.4323 83.8135 23.4288C83.9723 23.4257 84.1394 23.4243 84.3388 23.4243C84.5381 23.4243 84.7069 23.4243 84.8627 23.4288C85.0603 23.4323 85.225 23.4368 85.3804 23.4427L85.6111 23.4514V29.4412ZM83.5443 28.958H85.1318V23.918L84.8537 23.9117C84.7011 23.909 84.5326 23.9076 84.3381 23.9076C84.1435 23.9076 83.9775 23.9076 83.8224 23.9117L83.5443 23.918V28.958Z" fill="#002E5D"/>
<path id="Vector_15" d="M84.0225 84.3425C84.1943 84.3488 84.3635 84.3529 84.5347 84.3564C84.7059 84.3599 84.8819 84.3605 85.0565 84.3605C85.2312 84.3605 85.4034 84.3605 85.576 84.3564C85.7485 84.3522 85.9197 84.3488 86.0892 84.3425V78.8269H84.0225V84.3425Z" fill="#BBD1DC"/>
<path id="Vector_16" d="M84.4578 85.3873C84.2616 85.3873 84.0897 85.3873 83.9319 85.3831C83.7414 85.3796 83.5723 85.3748 83.4162 85.3689L83.1855 85.3602V82.1861H83.6648V84.894C83.7521 84.8964 83.8439 84.8985 83.9418 84.9002C84.0965 84.903 84.2657 84.9043 84.4575 84.9043C84.6493 84.9043 84.8188 84.9044 84.9732 84.9002C85.0715 84.8985 85.1636 84.8964 85.2509 84.894V79.8536H84.7263V79.3704H85.7298V85.3602L85.4991 85.3689C85.3427 85.3748 85.1736 85.3793 84.9814 85.3831C84.8233 85.3859 84.6521 85.3873 84.4578 85.3873Z" fill="#002E5D"/>
<path id="Vector_17" d="M115.552 52.5498H110.083V54.6347H115.551C115.564 54.288 115.569 53.9414 115.569 53.5912C115.569 53.2411 115.564 52.8958 115.552 52.5498Z" fill="#BBD1DC"/>
<path id="Vector_18" d="M115.242 55.6003H112.619V55.117H114.78C114.787 54.8622 114.79 54.597 114.79 54.3151C114.79 54.0433 114.787 53.7753 114.78 53.5178H109.783V54.3186H109.304V53.0359H115.244L115.252 53.2692C115.263 53.6048 115.269 53.9577 115.269 54.3175C115.269 54.693 115.263 55.0372 115.251 55.3701L115.242 55.6003Z" fill="#002E5D"/>
<path id="Vector_19" d="M69.8214 66.8836L86.185 54.8127C86.4757 54.5981 86.67 54.2758 86.7252 53.9168C86.7804 53.5577 86.6919 53.1913 86.4793 52.898L86.209 52.5257C86.1037 52.3805 85.9711 52.2576 85.8187 52.1641C85.6663 52.0706 85.4971 52.0083 85.3208 51.9808C85.1446 51.9532 84.9646 51.9609 84.7913 52.0035C84.618 52.0461 84.4547 52.1227 84.3107 52.2289L67.9472 64.3002C67.8032 64.4063 67.6814 64.5401 67.5886 64.6938C67.4959 64.8474 67.4341 65.018 67.4067 65.1958C67.3793 65.3736 67.387 65.555 67.4292 65.7298C67.4714 65.9046 67.5473 66.0693 67.6526 66.2145L67.9245 66.5858C68.1371 66.8787 68.4562 67.0746 68.8119 67.1304C69.1676 67.1863 69.5306 67.0975 69.8214 66.8836Z" fill="#F70431"/>
<path id="Vector_20" d="M67.9994 68.263L67.7048 67.9101C67.4319 67.5832 67.2988 67.1604 67.3349 66.7346C67.371 66.3088 67.5733 65.9148 67.8973 65.6394L83.4035 52.4657C83.5639 52.3293 83.7495 52.2261 83.9495 52.162C84.1495 52.098 84.3601 52.0743 84.5692 52.0923C84.7783 52.1103 84.9818 52.1697 85.1682 52.2671C85.3545 52.3645 85.52 52.4979 85.6552 52.6598L85.9498 53.0128C86.0851 53.1746 86.1874 53.3617 86.2509 53.5634C86.3145 53.7651 86.338 53.9775 86.3201 54.1883C86.3022 54.3992 86.2433 54.6045 86.1467 54.7924C86.0502 54.9803 85.9178 55.1472 85.7573 55.2835L72.5908 66.4683L72.2814 66.0987L85.4479 54.9139C85.5603 54.8185 85.6529 54.7016 85.7205 54.5701C85.7881 54.4385 85.8293 54.2948 85.8419 54.1472C85.8544 53.9995 85.8379 53.8508 85.7934 53.7096C85.749 53.5684 85.6773 53.4374 85.5826 53.3241L85.288 52.9712C85.1934 52.8578 85.0775 52.7644 84.947 52.6962C84.8166 52.6281 84.6741 52.5865 84.5277 52.5738C84.3813 52.5612 84.2338 52.5778 84.0938 52.6227C83.9537 52.6675 83.8238 52.7398 83.7115 52.8353L68.2053 66.0089C67.9785 66.2018 67.8369 66.4775 67.8116 66.7756C67.7864 67.0736 67.8795 67.3696 68.0706 67.5985L68.3655 67.9514L67.9994 68.263Z" fill="#002E5D"/>
<path id="Vector_21" d="M71.5591 36.4489L84.1487 53.8059C84.2791 53.9857 84.475 54.1059 84.6933 54.14C84.9116 54.1742 85.1344 54.1194 85.3127 53.9879C85.491 53.8564 85.6102 53.6588 85.644 53.4387C85.6779 53.2186 85.6236 52.9939 85.4932 52.8141L72.9036 35.4571C72.7732 35.2773 72.5772 35.1571 72.359 35.123C72.1407 35.0888 71.9179 35.1435 71.7396 35.2751C71.5613 35.4066 71.4421 35.6041 71.4083 35.8243C71.3744 36.0444 71.4287 36.2691 71.5591 36.4489Z" fill="#072542"/>
<path id="Vector_22" d="M87.9507 56.5555C89.5418 54.9509 89.5418 52.3494 87.9507 50.7448C86.3595 49.1402 83.7798 49.1402 82.1886 50.7448C80.5975 52.3494 80.5975 54.9509 82.1886 56.5555C83.7798 58.1601 86.3595 58.1601 87.9507 56.5555Z" fill="#325D9C"/>
<path id="Vector_23" d="M84.3265 57.9352C83.4637 57.7832 82.6671 57.37 82.0428 56.7504C81.4185 56.1308 80.996 55.3342 80.8316 54.4666C80.6671 53.599 80.7685 52.7014 81.1222 51.8933C81.4759 51.0852 82.0652 50.4048 82.8116 49.9427C83.5581 49.4805 84.4264 49.2585 85.3011 49.3061C86.1757 49.3537 87.0153 49.6688 87.7081 50.2093C88.4009 50.7498 88.9141 51.4902 89.1794 52.332C89.4448 53.1738 89.4498 54.0771 89.1937 54.9218L88.7354 54.7807C88.9633 54.0297 88.959 53.2266 88.7232 52.4781C88.4873 51.7296 88.0311 51.0712 87.4152 50.5906C86.7993 50.1099 86.0528 49.8298 85.2752 49.7874C84.4975 49.745 83.7255 49.9423 83.0618 50.3532C82.398 50.7641 81.8741 51.369 81.5596 52.0875C81.2451 52.806 81.155 53.604 81.3012 54.3754C81.4474 55.1468 81.8231 55.855 82.3782 56.4059C82.9333 56.9568 83.6415 57.3241 84.4087 57.4592L84.3265 57.9352Z" fill="#002E5D"/>
<path id="Vector_24" d="M87.3631 53.6063C88.0009 52.9631 88.0009 51.9202 87.3631 51.277C86.7253 50.6338 85.6912 50.6338 85.0533 51.277C84.4155 51.9202 84.4155 52.9631 85.0533 53.6063C85.6912 54.2495 86.7253 54.2495 87.3631 53.6063Z" fill="white"/>
<path id="Vector_25" d="M121.646 66.2518L120.168 65.7537C121.454 61.869 122.108 57.7998 122.103 53.7042C122.103 32.7702 105.215 15.739 84.456 15.739C79.9869 15.7328 75.5526 16.5317 71.3621 18.0982L70.8203 16.6258C75.1845 14.9941 79.8026 14.1618 84.4571 14.1683C89.7491 14.1683 94.8837 15.2135 99.7174 17.2755C109.115 21.2935 116.596 28.8377 120.58 38.3146C122.625 43.1895 123.662 48.3682 123.662 53.7039C123.666 57.9689 122.985 62.2064 121.646 66.2518Z" fill="white"/>
<path id="Vector_26" d="M110.343 23.4431C110.692 21.9495 109.775 20.453 108.294 20.1005C106.813 19.748 105.329 20.673 104.98 22.1665C104.63 23.6601 105.547 25.1566 107.028 25.5091C108.509 25.8616 109.993 24.9366 110.343 23.4431Z" fill="#BBD1DC"/>
<path id="Vector_27" d="M109.464 27.5185C108.872 27.5185 108.293 27.3414 107.8 27.0095C107.307 26.6776 106.923 26.2057 106.697 25.6537C106.47 25.1017 106.411 24.4943 106.526 23.9083C106.642 23.3223 106.927 22.7841 107.346 22.3616C107.765 21.9392 108.299 21.6516 108.88 21.5352C109.462 21.4188 110.064 21.4788 110.611 21.7076C111.158 21.9364 111.626 22.3238 111.955 22.8207C112.284 23.3176 112.46 23.9018 112.459 24.4993C112.458 25.2998 112.142 26.0672 111.581 26.6332C111.019 27.1992 110.258 27.5176 109.464 27.5185ZM109.464 21.9609C108.967 21.9608 108.48 22.1096 108.067 22.3883C107.653 22.667 107.33 23.0632 107.14 23.5268C106.949 23.9903 106.899 24.5005 106.996 24.9926C107.093 25.4848 107.333 25.937 107.684 26.2919C108.036 26.6468 108.484 26.8886 108.972 26.9866C109.46 27.0847 109.966 27.0346 110.426 26.8427C110.886 26.6509 111.279 26.3258 111.556 25.9087C111.832 25.4916 111.98 25.0011 111.98 24.4993C111.98 23.8264 111.714 23.1813 111.243 22.7054C110.771 22.2295 110.132 21.9617 109.464 21.9609Z" fill="#002E5D"/>
<path id="Vector_28" d="M78.2979 89.5838L60.9902 95.6653L62.3235 99.524L79.6311 93.4425L78.2979 89.5838Z" fill="#BBD1DC"/>
<path id="Vector_29" d="M79.3603 92.9543L62.1318 99.0537L65.7627 109.484L82.9913 103.384L79.3603 92.9543Z" fill="white"/>
<path id="Vector_30" d="M68.743 107.783L68.5856 107.326L81.1415 102.914L76.5092 89.5079L59.8211 95.372L63.3029 105.448L62.8501 105.608L59.2109 95.0749L59.4371 94.9951L76.8042 88.8926L81.7517 103.212L68.743 107.783Z" fill="#002E5D"/>
<path id="Vector_31" d="M63.5492 92.4213L63.0967 92.5803L64.069 95.3944L64.5215 95.2354L63.5492 92.4213Z" fill="#002E5D"/>
<path id="Vector_32" d="M72.2221 89.3737L71.7695 89.5327L72.7418 92.3468L73.1944 92.1878L72.2221 89.3737Z" fill="#002E5D"/>
<path id="Vector_33" d="M67.4223 99.3756L63.7832 100.654L64.23 101.947L67.8691 100.669L67.4223 99.3756Z" fill="#072542"/>
<path id="Vector_34" d="M77.476 99.0194L73.8369 100.298L74.2837 101.591L77.9228 100.313L77.476 99.0194Z" fill="#072542"/>
<path id="Vector_35" d="M72.7621 102.436L69.123 103.714L69.5698 105.007L73.2089 103.729L72.7621 102.436Z" fill="#072542"/>
<path id="Vector_36" d="M10.2451 43.9275C11.4972 42.6648 11.4972 40.6175 10.2451 39.3547C8.99291 38.092 6.96276 38.092 5.7106 39.3547C4.45844 40.6175 4.45844 42.6648 5.7106 43.9275C6.96276 45.1902 8.99291 45.1902 10.2451 43.9275Z" fill="#BBD1DC"/>
<path id="Vector_37" d="M144.096 95.4986C145.867 95.4986 147.302 94.051 147.302 92.2652C147.302 90.4794 145.867 89.0317 144.096 89.0317C142.325 89.0317 140.89 90.4794 140.89 92.2652C140.89 94.051 142.325 95.4986 144.096 95.4986Z" fill="#BBD1DC"/>
</g>
</g>
</g>
<defs>
<clipPath id="clip0_565_4608">
<rect width="160" height="112" fill="white"/>
</clipPath>
</defs>
</svg>
