<svg width="31" height="24" viewBox="0 0 31 24" fill="none" xmlns="http://www.w3.org/2000/svg">
<g id="mastercard-logo" clip-path="url(#clip0_143_1527)">
<g id="Group">
<path id="Vector" d="M30.0646 22.8744V22.9346H30.1209C30.1333 22.9346 30.1439 22.9317 30.1516 22.9269C30.1587 22.9224 30.1627 22.9143 30.1627 22.9043C30.1627 22.8945 30.1587 22.8868 30.1516 22.8821C30.1439 22.8768 30.1333 22.8744 30.1209 22.8744H30.0646ZM30.1213 22.8326C30.1503 22.8326 30.1729 22.8389 30.1888 22.8518C30.2047 22.8646 30.2125 22.8821 30.2125 22.9043C30.2125 22.923 30.2065 22.9381 30.1935 22.9505C30.1811 22.962 30.1634 22.9697 30.1397 22.9725L30.2143 23.057H30.1563L30.0872 22.9731H30.0646V23.057H30.0162V22.8326H30.1213ZM30.1067 23.1348C30.1333 23.1348 30.158 23.1294 30.1804 23.1196C30.2036 23.1096 30.2236 23.0963 30.2408 23.0793C30.2579 23.0625 30.2716 23.0427 30.2815 23.0191C30.2911 22.9965 30.2964 22.9721 30.2964 22.9457C30.2964 22.9195 30.2911 22.8949 30.2815 22.8722C30.2716 22.8494 30.2579 22.8291 30.2408 22.8121C30.2236 22.7951 30.2036 22.7818 30.1804 22.7718C30.158 22.7624 30.1333 22.7578 30.1067 22.7578C30.0801 22.7578 30.0547 22.7624 30.0317 22.7718C30.008 22.7818 29.9872 22.7951 29.9701 22.8121C29.9529 22.8291 29.9394 22.8494 29.9299 22.8722C29.9199 22.8949 29.9153 22.9195 29.9153 22.9457C29.9153 22.9721 29.9199 22.9965 29.9299 23.0191C29.9394 23.0427 29.9529 23.0625 29.9701 23.0793C29.9872 23.0963 30.008 23.1096 30.0317 23.1196C30.0547 23.1294 30.0801 23.1348 30.1067 23.1348ZM30.1067 22.7036C30.1414 22.7036 30.1733 22.7099 30.2041 22.7228C30.2342 22.7352 30.2603 22.7526 30.2833 22.7748C30.3059 22.7964 30.3236 22.8221 30.3364 22.8518C30.3495 22.881 30.3559 22.9126 30.3559 22.9457C30.3559 22.979 30.3495 23.0104 30.3364 23.0396C30.3236 23.0688 30.3059 23.0945 30.2833 23.1168C30.2603 23.1383 30.2342 23.1558 30.2041 23.1686C30.1733 23.1815 30.1414 23.1878 30.1067 23.1878C30.0711 23.1878 30.0388 23.1815 30.008 23.1686C29.9772 23.1558 29.9507 23.1383 29.9281 23.1168C29.9057 23.0945 29.888 23.0688 29.875 23.0396C29.8619 23.0104 29.8555 22.979 29.8555 22.9457C29.8555 22.9126 29.8619 22.881 29.875 22.8518C29.888 22.8221 29.9057 22.7964 29.9281 22.7748C29.9507 22.7526 29.9772 22.7352 30.008 22.7228C30.0388 22.7099 30.0711 22.7036 30.1067 22.7036ZM7.08215 21.8383C7.08215 21.4101 7.3664 21.0582 7.83089 21.0582C8.27471 21.0582 8.57434 21.3949 8.57434 21.8383C8.57434 22.2817 8.27471 22.6184 7.83089 22.6184C7.3664 22.6184 7.08215 22.2666 7.08215 21.8383ZM9.08019 21.8383V20.6201H8.54359V20.9159C8.3734 20.6965 8.11516 20.5588 7.76412 20.5588C7.0721 20.5588 6.52959 21.0944 6.52959 21.8383C6.52959 22.5828 7.0721 23.1178 7.76412 23.1178C8.11516 23.1178 8.3734 22.9801 8.54359 22.7607V23.0566H9.08019V21.8383ZM27.2133 21.8383C27.2133 21.4101 27.4975 21.0582 27.9621 21.0582C28.4065 21.0582 28.7055 21.3949 28.7055 21.8383C28.7055 22.2817 28.4065 22.6184 27.9621 22.6184C27.4975 22.6184 27.2133 22.2666 27.2133 21.8383ZM29.2119 21.8383V19.6416H28.6747V20.9159C28.5045 20.6965 28.2463 20.5588 27.8952 20.5588C27.2032 20.5588 26.6607 21.0944 26.6607 21.8383C26.6607 22.5828 27.2032 23.1178 27.8952 23.1178C28.2463 23.1178 28.5045 22.9801 28.6747 22.7607V23.0566H29.2119V21.8383ZM15.7409 21.0331C16.0866 21.0331 16.3088 21.2473 16.3656 21.6242H15.085C15.1423 21.2724 15.3586 21.0331 15.7409 21.0331ZM15.7516 20.5588C15.0282 20.5588 14.5224 21.0786 14.5224 21.8383C14.5224 22.6131 15.0489 23.1178 15.7876 23.1178C16.1593 23.1178 16.4997 23.0263 16.7993 22.7766L16.5364 22.3839C16.3295 22.5467 16.066 22.6389 15.8183 22.6389C15.4726 22.6389 15.1576 22.4806 15.0802 22.042H16.9128C16.9181 21.9759 16.9235 21.9095 16.9235 21.8383C16.9181 21.0786 16.443 20.5588 15.7516 20.5588ZM22.2309 21.8383C22.2309 21.4101 22.5151 21.0582 22.9796 21.0582C23.4234 21.0582 23.7231 21.3949 23.7231 21.8383C23.7231 22.2817 23.4234 22.6184 22.9796 22.6184C22.5151 22.6184 22.2309 22.2666 22.2309 21.8383ZM24.229 21.8383V20.6201H23.6923V20.9159C23.5214 20.6965 23.2638 20.5588 22.9128 20.5588C22.2208 20.5588 21.6783 21.0944 21.6783 21.8383C21.6783 22.5828 22.2208 23.1178 22.9128 23.1178C23.2638 23.1178 23.5214 22.9801 23.6923 22.7607V23.0566H24.229V21.8383ZM19.2004 21.8383C19.2004 22.5776 19.7216 23.1178 20.5171 23.1178C20.8888 23.1178 21.1364 23.0361 21.4047 22.8274L21.1471 22.3989C20.9455 22.5419 20.734 22.6184 20.5011 22.6184C20.0727 22.6131 19.7577 22.3074 19.7577 21.8383C19.7577 21.3692 20.0727 21.0635 20.5011 21.0582C20.734 21.0582 20.9455 21.1347 21.1471 21.2776L21.4047 20.8494C21.1364 20.6405 20.8888 20.5588 20.5171 20.5588C19.7216 20.5588 19.2004 21.0991 19.2004 21.8383ZM26.1189 20.5588C25.8093 20.5588 25.6076 20.7017 25.4682 20.9159V20.6201H24.9364V23.0566H25.4735V21.6907C25.4735 21.2875 25.649 21.0635 26 21.0635C26.1087 21.0635 26.2223 21.0786 26.3358 21.1248L26.5011 20.6253C26.3825 20.5792 26.2276 20.5588 26.1189 20.5588ZM11.7342 20.8138C11.476 20.6457 11.1202 20.5588 10.7278 20.5588C10.1026 20.5588 9.70012 20.8546 9.70012 21.3389C9.70012 21.7362 9.99973 21.9812 10.5517 22.0576L10.8052 22.0934C11.0995 22.1341 11.2384 22.2106 11.2384 22.3484C11.2384 22.5366 11.0422 22.6441 10.6758 22.6441C10.3041 22.6441 10.0358 22.5268 9.85494 22.3891L9.60201 22.8016C9.8963 23.0156 10.268 23.1178 10.6705 23.1178C11.3832 23.1178 11.7963 22.7864 11.7963 22.3226C11.7963 21.8944 11.4712 21.6703 10.934 21.5938L10.6811 21.5577C10.4489 21.5273 10.2627 21.4818 10.2627 21.3184C10.2627 21.1399 10.4382 21.0331 10.7325 21.0331C11.0475 21.0331 11.3524 21.1504 11.502 21.242L11.7342 20.8138ZM18.6579 20.5588C18.3482 20.5588 18.1467 20.7017 18.0079 20.9159V20.6201H17.476V23.0566H18.0126V21.6907C18.0126 21.2875 18.1881 21.0635 18.5391 21.0635C18.6479 21.0635 18.7613 21.0786 18.8748 21.1248L19.0403 20.6253C18.9215 20.5792 18.7667 20.5588 18.6579 20.5588ZM14.0785 20.6201H13.201V19.8808H12.6585V20.6201H12.1579V21.1043H12.6585V22.2159C12.6585 22.7812 12.8807 23.1178 13.5154 23.1178C13.7482 23.1178 14.0165 23.0466 14.1867 22.9293L14.0319 22.4754C13.8717 22.5672 13.6962 22.6131 13.5567 22.6131C13.2884 22.6131 13.201 22.4497 13.201 22.2054V21.1043H14.0785V20.6201ZM6.05506 23.0566V21.5273C6.05506 20.9515 5.68334 20.564 5.08411 20.5588C4.76912 20.5535 4.44409 20.6504 4.21657 20.9923C4.04637 20.7222 3.77808 20.5588 3.40105 20.5588C3.13748 20.5588 2.87982 20.6352 2.6783 20.9205V20.6201H2.14111V23.0566H2.68303V21.7059C2.68303 21.2829 2.92058 21.0582 3.28758 21.0582C3.64394 21.0582 3.82418 21.2875 3.82418 21.7006V23.0566H4.36667V21.7059C4.36667 21.2829 4.61428 21.0582 4.97064 21.0582C5.33704 21.0582 5.51255 21.2875 5.51255 21.7006V23.0566H6.05506Z" fill="#231F20"/>
<path id="Vector_2" d="M30.3955 14.9536V14.5977H30.3016L30.1927 14.8421L30.0847 14.5977H29.9902V14.9536H30.0568V14.6852L30.1587 14.9168H30.2277L30.3293 14.6846V14.9536H30.3955ZM29.7992 14.9536V14.6583H29.9198V14.5982H29.6124V14.6583H29.733V14.9536H29.7992Z" fill="#F79410"/>
<path id="Vector_3" d="M19.711 16.4848H11.5784V2.05469H19.711V16.4848Z" fill="#FF5F00"/>
<path id="Vector_4" d="M12.099 9.269C12.099 6.34179 13.4872 3.73433 15.6489 2.05396C14.0681 0.825203 12.073 0.0917969 9.90479 0.0917969C4.77168 0.0917969 0.610718 4.20051 0.610718 9.269C0.610718 14.3375 4.77168 18.4462 9.90479 18.4462C12.073 18.4462 14.0681 17.7128 15.6489 16.484C13.4872 14.8037 12.099 12.1962 12.099 9.269Z" fill="#EB001B"/>
<path id="Vector_5" d="M30.6792 9.269C30.6792 14.3375 26.5183 18.4462 21.3851 18.4462C19.2169 18.4462 17.2218 17.7128 15.6404 16.484C17.8027 14.8037 19.1909 12.1962 19.1909 9.269C19.1909 6.34179 17.8027 3.73433 15.6404 2.05396C17.2218 0.825203 19.2169 0.0917969 21.3851 0.0917969C26.5183 0.0917969 30.6792 4.20051 30.6792 9.269Z" fill="#F79E1B"/>
</g>
</g>
<defs>
<clipPath id="clip0_143_1527">
<rect width="30.1" height="23.1" fill="white" transform="translate(0.599609 0.0996094)"/>
</clipPath>
</defs>
</svg>
