<svg width="48" height="16" viewBox="0 0 48 16" fill="none" xmlns="http://www.w3.org/2000/svg">
<g id="visa_Inc._logo" clip-path="url(#clip0_143_1510)">
<g id="Group">
<path id="Vector" d="M20.8266 15.416H16.9707L19.3825 0.568359H23.2382L20.8266 15.416Z" fill="#00579F"/>
<path id="Vector_2" d="M34.8047 0.931926C34.044 0.631507 32.8378 0.299805 31.3463 0.299805C27.5383 0.299805 24.857 2.3215 24.8403 5.21192C24.8089 7.34447 26.7603 8.52892 28.2199 9.24C29.7117 9.96658 30.2186 10.4408 30.2186 11.0885C30.2037 12.0832 29.0132 12.5417 27.9031 12.5417C26.3638 12.5417 25.5389 12.3053 24.2853 11.7519L23.7775 11.5147L23.2379 14.8476C24.1423 15.2579 25.8085 15.6219 27.5383 15.6378C31.5843 15.6378 34.2182 13.6474 34.2494 10.5672C34.2649 8.87702 33.2343 7.5819 31.0129 6.52361C29.6641 5.84426 28.8382 5.38616 28.8382 4.69108C28.8542 4.05915 29.5368 3.41191 31.0593 3.41191C32.3128 3.38022 33.2339 3.68022 33.9314 3.98043L34.2804 4.1381L34.8047 0.931926Z" fill="#00579F"/>
<path id="Vector_3" d="M39.9296 10.156C40.2471 9.30302 41.469 6.00175 41.469 6.00175C41.453 6.03346 41.786 5.13303 41.9764 4.58026L42.2458 5.85962C42.2458 5.85962 42.976 9.41366 43.1347 10.156C42.5321 10.156 40.6912 10.156 39.9296 10.156ZM44.6893 0.568359H41.7067C40.7868 0.568359 40.0881 0.836658 39.6913 1.80027L33.9639 15.4158H38.0096C38.0096 15.4158 38.6758 13.5832 38.8191 13.1885C39.2629 13.1885 43.1987 13.1885 43.7697 13.1885C43.8804 13.7098 44.2298 15.4158 44.2298 15.4158H47.8L44.6893 0.568359Z" fill="#00579F"/>
<path id="Vector_4" d="M13.7501 0.568359L9.97385 10.693L9.56118 8.63962C8.86306 6.27026 6.67351 3.69601 4.2301 2.41602L7.689 15.4002H11.7665L17.8274 0.568359H13.7501Z" fill="#00579F"/>
<path id="Vector_5" d="M6.46723 0.568359H0.263419L0.199951 0.868359C5.03932 2.10048 8.24433 5.07047 9.56113 8.64024L8.21251 1.81644C7.99048 0.868148 7.30813 0.599638 6.46723 0.568359Z" fill="#FAA61A"/>
</g>
</g>
<defs>
<clipPath id="clip0_143_1510">
<rect width="47.6" height="15.4026" fill="white" transform="translate(0.199951 0.299805)"/>
</clipPath>
</defs>
</svg>
