<svg width="24" height="24" viewBox="0 0 24 24" fill="none" xmlns="http://www.w3.org/2000/svg">
<path d="M5.7143 12.57C8.87022 12.57 11.4286 10.0116 11.4286 6.85566C11.4286 3.69974 8.87022 1.14136 5.7143 1.14136C2.55838 1.14136 0 3.69974 0 6.85566C0 10.0116 2.55838 12.57 5.7143 12.57Z" fill="#2196F3"/>
<path d="M18.2856 12.57C21.4415 12.57 23.9999 10.0116 23.9999 6.85566C23.9999 3.69974 21.4415 1.14136 18.2856 1.14136C15.1297 1.14136 12.5713 3.69974 12.5713 6.85566C12.5713 10.0116 15.1297 12.57 18.2856 12.57Z" fill="#EC407A"/>
<path d="M1.71402 22.8557C1.39844 22.8557 1.14258 22.5998 1.14258 22.2842V17.7128C1.14258 16.7661 1.9101 15.9985 2.85686 15.9985H3.42831C3.7439 15.9985 3.99976 16.2544 3.99976 16.57C3.99976 16.8856 3.7439 17.1414 3.42831 17.1414H2.85686C2.54127 17.1414 2.28542 17.3973 2.28542 17.7129V22.2843C2.28547 22.5998 2.02961 22.8557 1.71402 22.8557Z" fill="#455A64"/>
<path d="M3.42857 19.4271H0.571446C0.255857 19.4271 0 19.1712 0 18.8556C0 18.54 0.255857 18.2842 0.571446 18.2842H3.42857C3.74416 18.2842 4.00002 18.54 4.00002 18.8556C4.00002 19.1712 3.74416 19.4271 3.42857 19.4271Z" fill="#455A64"/>
<path d="M5.14274 22.8557C4.82715 22.8557 4.57129 22.5998 4.57129 22.2842V16.57C4.57129 16.2544 4.82715 15.9985 5.14274 15.9985C5.45832 15.9985 5.71418 16.2544 5.71418 16.57V22.2843C5.71418 22.5998 5.45832 22.8557 5.14274 22.8557Z" fill="#455A64"/>
<path d="M7.42887 22.8556C7.11328 22.8556 6.85742 22.5998 6.85742 22.2842V18.8556C6.85742 18.54 7.11328 18.2842 7.42887 18.2842C7.74446 18.2842 8.00031 18.54 8.00031 18.8556V22.2842C8.00026 22.5998 7.74446 22.8556 7.42887 22.8556Z" fill="#455A64"/>
<path d="M11.4283 22.8557C10.166 22.8557 9.14258 21.8323 9.14258 20.5699C9.14258 19.3075 10.166 18.2842 11.4283 18.2842C12.231 18.2107 13.0246 18.4999 13.5917 19.0728C13.7874 19.3205 13.7452 19.68 13.4975 19.8756C13.2497 20.0713 12.8903 20.0291 12.6946 19.7814C12.3332 19.5059 11.8801 19.3792 11.4283 19.4271C10.7971 19.4271 10.2855 19.9388 10.2855 20.5699C10.2855 21.2011 10.7971 21.7128 11.4283 21.7128C11.9022 21.7384 12.3695 21.5928 12.7449 21.3025C12.9717 21.0894 13.3274 21.097 13.5449 21.3196C13.7627 21.5418 13.7627 21.8974 13.5449 22.1196C12.9591 22.626 12.2019 22.8893 11.4283 22.8557Z" fill="#455A64"/>
<path d="M15.4289 22.8557C15.1133 22.8557 14.8574 22.5998 14.8574 22.2842V16.57C14.8574 16.2544 15.1133 15.9985 15.4289 15.9985C15.7445 15.9985 16.0003 16.2544 16.0003 16.57V22.2843C16.0003 22.5998 15.7445 22.8557 15.4289 22.8557Z" fill="#455A64"/>
<path d="M17.7145 22.8558C17.5628 22.8561 17.4173 22.7961 17.3099 22.6889L15.0242 20.4032C14.8008 20.1802 14.8005 19.8185 15.0235 19.5951C15.0502 19.5683 15.0795 19.5442 15.1111 19.5232L16.8254 18.3803C17.0879 18.2051 17.4428 18.276 17.618 18.5386C17.7932 18.8012 17.7223 19.156 17.4597 19.3312L16.3259 20.0878L18.118 21.881C18.3408 22.1045 18.3402 22.4663 18.1167 22.6891C18.0098 22.7955 17.8653 22.8555 17.7145 22.8558Z" fill="#455A64"/>
<path d="M20.0002 22.8556C19.6846 22.8556 19.4287 22.5998 19.4287 22.2842V18.8556C19.4287 18.54 19.6846 18.2842 20.0002 18.2842C20.3157 18.2842 20.5716 18.54 20.5716 18.8556V22.2842C20.5716 22.5998 20.3157 22.8556 20.0002 22.8556Z" fill="#455A64"/>
<path d="M20.0002 21.713C19.6846 21.713 19.4287 21.4571 19.4287 21.1415C19.4287 19.5636 20.7079 18.2844 22.2858 18.2844C22.6014 18.2844 22.8573 18.5403 22.8573 18.8559C22.8573 19.1715 22.6015 19.4273 22.2859 19.4273C21.3391 19.4273 20.5716 20.1948 20.5716 21.1415C20.5716 21.4571 20.3157 21.713 20.0002 21.713Z" fill="#455A64"/>
<path d="M7.45133 17.1414C7.13574 17.1414 6.87988 16.8856 6.87988 16.57C6.87988 16.2544 7.13574 15.9985 7.45133 15.9985H7.46274C7.77833 15.9985 8.03419 16.2544 8.03419 16.57C8.03419 16.8856 7.77833 17.1414 7.46274 17.1414H7.45133Z" fill="#455A64"/>
</svg>
