<svg width="418" height="400" fill="none" xmlns="http://www.w3.org/2000/svg"><g clip-path="url(#a)"><path d="M198.853 0C89.028 0 0 89.09 0 198.991c0 73.141 39.435 137.063 98.186 171.648h201.33c58.752-34.58 98.187-98.502 98.187-171.648C397.708 89.09 308.679 0 198.853 0Z" fill="#F3F8FF"/><path d="M197.54 312.912 56.706 198.974 197.54 77.17l140.837 121.804L197.54 312.912Z" fill="#325D9C"/><path d="M313.109 119.806H81.974v211.825h231.135V119.806Z" fill="#fff"/><path d="M241.325 132.635h-55.723v52.679h55.723v-52.679Z" fill="#F3F8FF"/><path d="M241.325 226.934H153.76a.29.29 0 0 1-.218-.078.29.29 0 0 1 .218-.503h87.565a.29.29 0 0 1 .193.092.287.287 0 0 1 0 .397.29.29 0 0 1-.193.092Zm9.537 22.401H102.106a.289.289 0 0 1-.286-.405.289.289 0 0 1 .286-.175h148.756a.289.289 0 0 1 .31.29.295.295 0 0 1-.31.29Zm-36.521 22.402H102.106a.282.282 0 0 1-.111-.022.299.299 0 0 1-.158-.157.3.3 0 0 1 0-.223.299.299 0 0 1 .158-.157.282.282 0 0 1 .111-.022h112.235c.077 0 .151.03.205.085a.287.287 0 0 1 .085.206c0 .077-.03.151-.085.205a.287.287 0 0 1-.205.085Z" fill="#002E5D"/><path d="M338.377 198.975v189.482H56.707V198.975l140.835 94.74 140.835-94.74Z" fill="#BBD1DC"/><path d="M81.974 162.591a.297.297 0 0 1-.269-.18.29.29 0 0 1-.022-.111v-42.495a.29.29 0 0 1 .291-.29h80.321a.29.29 0 1 1 0 .581h-80.03V162.3a.293.293 0 0 1-.291.291Zm231.135 7.485a.288.288 0 0 1-.289-.29v-49.69h-38.873a.29.29 0 1 1 0-.581h39.157a.29.29 0 0 1 .291.29v49.981c0 .076-.03.149-.083.204a.293.293 0 0 1-.203.086Z" fill="#002E5D"/><path d="m318.922 329.838-95.45-17.427-6.99 38.336 95.45 17.427 6.99-38.336Z" fill="#fff"/><path d="M255.757 329.796a.226.226 0 0 1-.052 0l-24.53-4.489a.29.29 0 0 1-.224-.337.29.29 0 0 1 .329-.235l24.529 4.48a.294.294 0 0 1 .236.312.295.295 0 0 1-.093.188.289.289 0 0 1-.195.077v.004Zm49.557 17.682a.468.468 0 0 1-.053 0l-68.395-12.494a.287.287 0 0 1-.179-.123.287.287 0 0 1-.044-.213.293.293 0 0 1 .328-.236l68.394 12.494a.29.29 0 0 1-.051.577v-.005Zm-1.524 8.348a.468.468 0 0 1-.053 0l-68.394-12.493a.293.293 0 0 1-.224-.337.29.29 0 0 1 .329-.235l68.394 12.489a.288.288 0 0 1 .147.501.286.286 0 0 1-.199.074v.001Z" fill="#002E5D"/><path d="m246.092 303.501-41.884 24.198 3.3 5.72 41.884-24.198-3.3-5.72Zm73.648 48.67-29.039 16.778 3.3 5.72 29.039-16.778-3.3-5.72Z" fill="#F3F8FF"/><path d="M149.886 326.066a.288.288 0 0 1-.275-.388.286.286 0 0 1 .112-.144l147.361-99.131a.3.3 0 0 1 .221-.051.288.288 0 0 1 .234.231.279.279 0 0 1-.046.221.279.279 0 0 1-.084.08l-147.362 99.131a.282.282 0 0 1-.161.051Zm54.324 1.923a.288.288 0 0 1-.28-.215.29.29 0 0 1 .134-.327l41.885-24.197a.294.294 0 0 1 .221-.029.296.296 0 0 1 .176.136l3.3 5.72a.292.292 0 0 1-.106.397l-3.92 2.264a.285.285 0 0 1-.109.042.288.288 0 0 1-.328-.369.293.293 0 0 1 .147-.176l3.668-2.12-3.011-5.217-41.632 24.054a.282.282 0 0 1-.145.037Zm89.791 46.969a.28.28 0 0 1-.143-.04.28.28 0 0 1-.103-.105l-3.302-5.72a.294.294 0 0 1 .107-.397l19.052-11.007a.286.286 0 0 1 .226-.039.298.298 0 0 1 .107.049.295.295 0 0 1 .049.419.267.267 0 0 1-.091.073l-18.806 10.86 3.155 5.467a.29.29 0 0 1-.106.397.276.276 0 0 1-.145.043Z" fill="#002E5D"/><path d="m308.075 264.951 4.085 4.503 6.977-2.724 1.542-.508 35.833-23.48-2.122 34.656 1.278 113.408.985.088-2.784 5.15-9.219.485-.477 3.178h21.5l-2.156-7.457.485-1.436 8.051-75.87 15.066 75.852.561.098.063 1.833-3.301 3.347-9.552.959-.072 2.577 21.327-.041-1.689-7.003-.035-1.783-4.629-95.954 21.294-33.105-12.059-41.82-13.819-7.223-2.865-.628-3.694-6.425-1.184-2.38 5.947-28.255-32.459-8.67 3.511 15.878h1.97l4.94 20.779 6.843-.788 1.096 6.98-.361 3.973-7.823.294-43.11 46.238-1.318.598-6.349-.816v1.858l2.348.932-4.625 2.702Zm80.63 12.287 4.873-26.963 6.077 9.077-10.559 25.168-.391-7.282Z" fill="#fff"/><path d="m352.106 171.515 25.702 7.706-1.745 23.988-7.844-.886-3.263-20.033-10.487-.084-2.363-10.691Z" fill="#325D9C"/><path d="m362.346 182.14 2.153 20.578-3.121.268-5.066-20.794 6.034-.052Z" fill="#F4B18F"/><path d="m357.662 217.288-39.64 42.394 1.276 3.261 34.426-21.638 2.785 1.437-2.12 34.656h30.209l9.581-47.441-6.58-9.459-29.937-3.21Zm39.482 13.121 9.476 29.999-17.263 28.72-.26-4.605 10.558-25.171-6.077-9.076 3.566-19.867Z" fill="#F70431"/><path d="m368.003 277.513-7.049 113.482-5.106-.127-1.459-113.47 13.614.115Zm5.143 26.495 2.411-19.485 16.375 106.388-4.813-.115-15.171-76.498 1.198-10.29Z" fill="#325D9C"/><path d="m316.704 260.28-6.348-.816v1.859l2.348.931-4.629 2.697 1.873 2.066 9.35-4.074-1.276-3.261-1.318.598Z" fill="#F4B18F"/><path d="M369.314 209.469a.288.288 0 0 1-.286-.246l-4.271-26.731h-10.288a.294.294 0 0 1-.182-.063.3.3 0 0 1-.102-.164l-3.512-15.881a.294.294 0 0 1 .083-.272.279.279 0 0 1 .129-.071.282.282 0 0 1 .147.001l32.459 8.671c.071.02.133.066.172.129a.289.289 0 0 1 .037.211l-5.91 28.325a.29.29 0 0 1-.31.231c-.022 0-2.216-.194-4.445-.408a.29.29 0 0 1-.261-.317.288.288 0 0 1 .317-.262c1.78.172 3.54.329 4.186.385l5.804-27.8-31.733-8.478 3.359 15.186h10.302a.289.289 0 0 1 .287.247l4.31 26.973a.298.298 0 0 1-.053.218.298.298 0 0 1-.193.115c-.016.001-.031.002-.046.001Z" fill="#002E5D"/><path d="M361.44 203.275a.289.289 0 0 1-.282-.222l-5.002-20.779a.29.29 0 1 1 .564-.137l4.942 20.534 6.527-.636a.288.288 0 0 1 .222.058.274.274 0 0 1 .077.089.299.299 0 0 1 .035.112.31.31 0 0 1-.013.117.285.285 0 0 1-.151.174.294.294 0 0 1-.114.028l-6.78.661-.025.001Zm15.058 10.164a.292.292 0 0 1-.285-.266.291.291 0 0 1 .237-.31l5.496-.943-3.544-6.139a.297.297 0 0 1-.023-.217.293.293 0 0 1 .35-.201.292.292 0 0 1 .176.129l3.751 6.503a.296.296 0 0 1 .011.268.285.285 0 0 1-.213.164l-5.91 1.014c-.016 0-.031 0-.046-.002Zm-55.818 53.074a.29.29 0 0 1-.267-.177l-2.709-6.476a.293.293 0 0 1 .055-.31l43.157-46.303a.295.295 0 0 1 .202-.092l7.822-.295a.269.269 0 0 1 .116.013.292.292 0 0 1 .182.381.292.292 0 0 1-.161.164.28.28 0 0 1-.115.022l-7.702.291-42.949 46.078 2.506 5.98 44.99-29.485a.292.292 0 0 1 .405.087.293.293 0 0 1-.087.406l-45.283 29.675a.28.28 0 0 1-.162.041Zm73.698 124.673h-7.234a.282.282 0 0 1-.184-.065.292.292 0 0 1-.1-.169l-15.094-76.489a.289.289 0 0 1 .224-.359.293.293 0 0 1 .226.048.302.302 0 0 1 .08.087c.02.034.033.072.039.111l15.045 76.254h6.692l-5.625-113.333a.353.353 0 0 1 0-.065l8.408-46.852a.274.274 0 0 1 .039-.11.28.28 0 0 1 .184-.134.288.288 0 0 1 .351.231.288.288 0 0 1-.003.117l-8.401 46.824 5.638 113.604a.282.282 0 0 1-.079.215.28.28 0 0 1-.096.066.28.28 0 0 1-.114.023l.004-.004Z" fill="#002E5D"/><path d="M363.995 391.187h-8.251a.287.287 0 0 1-.203-.084.293.293 0 0 1-.086-.203l-1.354-113.383v-.02l2.121-34.772a.288.288 0 0 1 .1-.195.29.29 0 0 1 .48.229l-2.121 34.763 1.354 113.086h7.7l9.124-86.626a.293.293 0 0 1 .321-.258.291.291 0 0 1 .257.32l-9.152 86.888a.291.291 0 0 1-.29.255Zm25.639-95.554a.296.296 0 0 1-.256-.151.296.296 0 0 1-.036-.149.3.3 0 0 1 .046-.148l21.382-33.516-12.009-41.649-13.616-6.982a.288.288 0 0 1-.126-.391.284.284 0 0 1 .169-.143.288.288 0 0 1 .221.018l13.729 7.038a.292.292 0 0 1 .147.178l12.078 41.895a.285.285 0 0 1-.034.238l-21.451 33.624a.288.288 0 0 1-.244.138Z" fill="#002E5D"/><path d="M389.097 284.814a.299.299 0 0 1-.207-.087.284.284 0 0 1-.083-.206.28.28 0 0 1 .023-.111l10.59-25.024-6.083-8.946a.305.305 0 0 1-.045-.218.29.29 0 0 1 .338-.231.29.29 0 0 1 .186.122l6.173 9.077a.29.29 0 0 1 .027.276l-10.655 25.17a.293.293 0 0 1-.264.178Zm-76.851-14.978a.293.293 0 0 1-.209-.088l-4.337-4.506a.28.28 0 0 1-.067-.114.28.28 0 0 1-.01-.132.306.306 0 0 1 .049-.123.31.31 0 0 1 .099-.088l4.454-2.407-1.97-.784a.29.29 0 0 1-.183-.27v-1.858a.296.296 0 0 1 .099-.219.28.28 0 0 1 .108-.06.301.301 0 0 1 .123-.01l6.226.846a.296.296 0 0 1 .255.212.289.289 0 0 1-.11.314.288.288 0 0 1-.224.049l-5.896-.799v1.328l2.37.94a.289.289 0 0 1 .147.412.29.29 0 0 1-.116.114l-4.666 2.521 3.941 4.088 6.708-2.741a.29.29 0 1 1 .22.537l-6.896 2.816a.28.28 0 0 1-.115.022Zm53.318 130.02H344.17a.286.286 0 0 1-.287-.336l.479-3.04a.29.29 0 0 1 .273-.246l9.016-.416 1.996-3.657a.293.293 0 0 1 .173-.132.285.285 0 0 1 .216.026.288.288 0 0 1 .121.384l-2.075 3.802a.29.29 0 0 1-.246.15l-8.942.412-.391 2.47h20.668l-1.97-6.893a.287.287 0 0 1 .199-.359.288.288 0 0 1 .36.199l2.074 7.27a.299.299 0 0 1 .006.133.289.289 0 0 1-.285.237l.009-.004Zm14.446-122.052h-25.62a.29.29 0 0 1-.193-.092.29.29 0 0 1 0-.397.29.29 0 0 1 .193-.092h25.621a.29.29 0 0 1 .218.078.289.289 0 0 1 .092.212.299.299 0 0 1-.092.213.29.29 0 0 1-.218.078h-.001Zm16.108 122.053h-21.356a.292.292 0 0 1-.291-.291v-2.619a.289.289 0 0 1 .261-.288l9.728-1.003 3.006-3.134a.291.291 0 0 1 .419.403l-3.079 3.21a.3.3 0 0 1-.18.088l-9.576.986v2.065h20.699l-1.519-6.484a.286.286 0 0 1 .107-.313.302.302 0 0 1 .222-.053.303.303 0 0 1 .109.043.282.282 0 0 1 .127.19l1.601 6.841a.3.3 0 0 1 .001.13.294.294 0 0 1-.283.227l.004.002Z" fill="#002E5D"/><path d="m364.694 396.526-10.863-.421-9.035.421-.45 3.182 21.327-.14-.979-3.042Zm30.826.495-11.353-1.04-9.18 1.04-.099 2.421 21.029-.137-.397-2.284Z" fill="#002E5D"/><path d="M417.285 399.999H181.874a.287.287 0 0 1-.285-.174.29.29 0 0 1 .285-.406h235.411a.291.291 0 0 1 .218.078c.029.027.052.06.067.097a.282.282 0 0 1 0 .231.278.278 0 0 1-.067.096.291.291 0 0 1-.218.078ZM263.728 388.44H11.705a.291.291 0 0 1 0-.58h252.023a.287.287 0 0 1 .285.174.29.29 0 0 1-.285.406Z" fill="#002E5D"/><path d="M127.809 73.941c4.302-4.305 4.302-11.286 0-15.591-4.302-4.306-11.278-4.306-15.58 0-4.303 4.305-4.303 11.286 0 15.591 4.302 4.306 11.278 4.306 15.58 0Zm222.016 68.572a7.802 7.802 0 0 0 0-11.026 7.788 7.788 0 0 0-11.018 0 7.8 7.8 0 0 0 0 11.026 7.788 7.788 0 0 0 11.018 0Z" fill="#BBD1DC"/><path d="M82.9 386.491a.29.29 0 0 1-.079-.571c7.635-2.147 19.21-6.104 19.788-8.204a.395.395 0 0 0-.123-.416c-2.061-2.176-14.313 1.329-18.86 2.865a.289.289 0 0 1-.21-.014.289.289 0 0 1-.013-.521c3.462-1.739 12.457-6.753 12.488-9.052 0-.182-.05-.456-.518-.707-1.585-.849-5.34.41-10.86 3.643-4.228 2.477-8.004 5.259-8.044 5.288a.292.292 0 0 1-.376-.027.292.292 0 0 1-.033-.376c.018-.026 1.815-2.525 3.41-5.196 2.833-4.737 2.587-5.884 2.359-6.162-.123-.144-.594-.384-2.324.481-7.716 3.87-12.348 16.883-12.395 17.013a.29.29 0 0 1-.529.024.292.292 0 0 1-.019-.216 49.864 49.864 0 0 1 3.325-7.147c1.978-3.501 5.207-8.109 9.365-10.189 1.584-.794 2.546-.901 3.024-.339.448.527.696 1.809-2.304 6.835a78.762 78.762 0 0 1-2.474 3.853c1.486-1.041 4.013-2.752 6.723-4.341 5.788-3.391 9.632-4.621 11.431-3.657.69.37.829.872.824 1.232-.019 1.356-2.136 3.327-6.477 6.013a83.759 83.759 0 0 1-3.561 2.076 99.345 99.345 0 0 1 5.626-1.509c6.034-1.413 9.677-1.503 10.848-.266a.976.976 0 0 1 .258.971c-.216.783-1.403 1.69-3.628 2.771-1.702.827-4.01 1.756-6.862 2.761-4.846 1.707-9.653 3.063-9.7 3.08a.307.307 0 0 1-.08.004Zm-37.843-3.523a.289.289 0 0 1-.26-.163c-.076-.155-7.68-15.603-13.599-22.393a.296.296 0 0 1-.082-.215.295.295 0 0 1 .1-.207.29.29 0 0 1 .42.04c5.97 6.847 13.606 22.363 13.683 22.52a.287.287 0 0 1-.043.319.289.289 0 0 1-.219.099Zm-1.906 1.615a.291.291 0 0 1-.228-.109c-.058-.073-5.916-7.312-14.245-10.33a.295.295 0 0 1-.179-.147.299.299 0 0 1-.014-.231.288.288 0 0 1 .274-.192c.04 0 .08.008.116.024 8.486 3.074 14.442 10.439 14.503 10.513a.295.295 0 0 1 .034.307.285.285 0 0 1-.107.12.282.282 0 0 1-.154.045Zm-3.008-23.485h-.03a.289.289 0 0 1-.206-.124l-1.172-1.614a.29.29 0 0 1 .07-.397.293.293 0 0 1 .399.055l.985 1.355 1.52-1.395a.294.294 0 0 1 .213-.086.298.298 0 0 1 .209.095.29.29 0 0 1-.03.42l-1.76 1.614a.292.292 0 0 1-.198.077Z" fill="#002E5D"/></g><defs><clipPath id="a"><path fill="#fff" d="M0 0h418v400H0z"/></clipPath></defs></svg>