<svg width="32" height="32" fill="none" xmlns="http://www.w3.org/2000/svg"><g clip-path="url(#a)"><path fill-rule="evenodd" clip-rule="evenodd" d="M19.619 19.561H12.38V32h7.238V19.561ZM23.07 32h7.237V13.005H23.07V32ZM8.93 14.261H1.693V32H8.93V14.261ZM8.31 3.078a4.227 4.227 0 0 0-3-1.242 4.227 4.227 0 0 0-2.998 1.242A4.226 4.226 0 0 0 1.07 6.076c0 1.171.475 2.231 1.243 2.999a4.227 4.227 0 0 0 2.998 1.242A4.227 4.227 0 0 0 8.31 9.075a4.227 4.227 0 0 0 1.243-2.999A4.23 4.23 0 0 0 8.31 3.078ZM18.998 8.28A4.227 4.227 0 0 0 16 7.037a4.227 4.227 0 0 0-2.998 1.243 4.227 4.227 0 0 0-1.243 2.998c0 1.171.475 2.231 1.242 2.998A4.227 4.227 0 0 0 16 15.52a4.227 4.227 0 0 0 2.998-1.242 4.227 4.227 0 0 0 1.243-2.999 4.227 4.227 0 0 0-1.243-2.998Zm10.689-7.038A4.228 4.228 0 0 0 26.689 0a4.227 4.227 0 0 0-2.999 1.242 4.227 4.227 0 0 0-1.242 2.999c0 1.17.475 2.23 1.242 2.998a4.227 4.227 0 0 0 2.999 1.242 4.227 4.227 0 0 0 2.998-1.242 4.227 4.227 0 0 0 1.242-2.998 4.227 4.227 0 0 0-1.242-2.999Z" fill="#F70431"/><path d="M16.508 9.696a.868.868 0 0 0-.62.228c-.16.152-.267.382-.32.69h1.224v.417h-1.265l-.005.123v.149l.005.106h1.096v.415h-1.05c.115.564.44.847.977.847.256 0 .519-.056.787-.169v.551c-.234.11-.507.166-.819.166-.431 0-.782-.12-1.052-.358-.269-.24-.444-.585-.527-1.037h-.408v-.415h.365l-.005-.1v-.101l.005-.177h-.365v-.418h.403c.068-.454.239-.81.513-1.069.274-.258.627-.388 1.06-.388.358 0 .679.08.962.24l-.226.507c-.275-.138-.52-.207-.735-.207Zm10.437-7a.868.868 0 0 0-.62.228c-.16.152-.266.382-.32.69h1.225v.417h-1.265l-.005.123v.149l.005.106h1.095v.415h-1.05c.115.564.44.847.978.847.256 0 .518-.057.787-.169v.551c-.235.11-.508.166-.82.166-.43 0-.781-.12-1.052-.358-.268-.24-.444-.585-.526-1.037h-.408v-.415h.365l-.005-.1v-.101l.005-.177h-.365v-.417h.402c.069-.455.24-.811.513-1.07.274-.258.628-.388 1.061-.388.358 0 .678.08.961.24l-.225.507c-.276-.138-.521-.207-.736-.207Zm-21.313 2a.867.867 0 0 0-.62.228c-.16.152-.266.382-.32.69h1.225v.417H4.652l-.005.123v.149l.005.106h1.096v.415h-1.05c.115.564.44.847.977.847.256 0 .519-.057.787-.169v.551c-.234.11-.507.166-.819.166-.431 0-.782-.12-1.052-.358-.269-.24-.444-.585-.527-1.037h-.408v-.415h.365l-.005-.1v-.101l.005-.177h-.365v-.417h.403c.068-.455.239-.811.513-1.07.274-.258.627-.388 1.06-.388.359 0 .679.08.962.24l-.226.507c-.275-.138-.52-.207-.736-.207Z" fill="#fff"/></g><defs><clipPath id="a"><path fill="#fff" d="M0 0h32v32H0z"/></clipPath></defs></svg>