<svg width="28" height="28" fill="none" xmlns="http://www.w3.org/2000/svg"><path d="M24.705 10.177V6H21.41V2.705H11.045L9.397 1.058h-7.27L.001 3.186v15.166a2.47 2.47 0 0 0 2.468 2.468h10.517l-2.632 2.632 3.49 3.49 5.004-5.004c.79.336 1.659.523 2.57.523A6.59 6.59 0 0 0 28 15.878a6.587 6.587 0 0 0-3.295-5.701ZM1.641 18.352V3.865l1.166-1.167h5.91l1.648 1.648h9.405V6H3.294v12.352a.828.828 0 0 1-1.654 0Zm3.151.828c.093-.259.144-.537.144-.828V7.641h18.128v1.863a6.59 6.59 0 0 0-8.23 6.374c0 .911.186 1.78.523 2.57l-.732.732H4.792Zm9.05 5.442-1.17-1.17 3.544-3.543c.34.437.733.83 1.17 1.17l-3.543 3.543Zm7.575-3.802a4.948 4.948 0 0 1-4.942-4.942 4.948 4.948 0 0 1 4.942-4.943 4.948 4.948 0 0 1 4.942 4.943 4.948 4.948 0 0 1-4.942 4.942Z" fill="#fff"/></svg>