<svg width="28" height="28" fill="none" xmlns="http://www.w3.org/2000/svg"><g fill="#fff" clip-path="url(#a)"><path d="M23.844 4.156H4.156v8.75h2.188A2.19 2.19 0 0 1 8.53 10.72h2.188v9.844c0 .603-.49 1.093-1.094 1.093H8.531v2.188H19.47v-2.188h-1.094c-.603 0-1.094-.49-1.094-1.093V10.72h2.188a2.19 2.19 0 0 1 2.187 2.187h2.188v-8.75Zm-4.375 4.375h-4.375v12.031c0 .384.067.752.188 1.094h-2.564c.121-.342.188-.71.188-1.093V8.53H8.531c-.796 0-1.543.215-2.187.589V6.344h15.312V9.12a4.346 4.346 0 0 0-2.187-.589ZM23.625 0v2.188h2.188v2.187H28V0h-4.375ZM2.188 2.188h2.187V0H0v4.375h2.188V2.187Zm23.625 23.625h-2.188V28H28v-4.375h-2.188v2.188Zm0-15.094H28v2.187h-2.188V10.72Zm0-4.375H28V8.53h-2.188V6.344Zm0 8.75H28v2.187h-2.188v-2.187Zm0 4.375H28v2.187h-2.188V19.47ZM2.188 23.625H0V28h4.375v-2.188H2.187v-2.187ZM0 10.719h2.188v2.187H0V10.72Zm0-4.375h2.188V8.53H0V6.344Zm0 8.75h2.188v2.187H0v-2.187Zm0 4.375h2.188v2.187H0V19.47ZM10.719 0h2.187v2.188H10.72V0ZM6.344 0H8.53v2.188H6.344V0Zm8.75 0h2.187v2.188h-2.187V0Zm4.375 0h2.187v2.188H19.47V0Zm-8.75 25.813h2.187V28H10.72v-2.188Zm-4.375 0H8.53V28H6.344v-2.188Zm8.75 0h2.187V28h-2.187v-2.188Zm4.375 0h2.187V28H19.47v-2.188Z"/></g><defs><clipPath id="a"><path fill="#fff" d="M0 0h28v28H0z"/></clipPath></defs></svg>