<svg width="28" height="28" fill="none" xmlns="http://www.w3.org/2000/svg"><g clip-path="url(#a)"><path d="M4.375 7.438H0V4.155A3.285 3.285 0 0 1 3.281.875h1.094v2.188H3.281c-.603 0-1.094.49-1.094 1.093V5.25h2.188v2.188Zm6.563 0H6.561V4.155A3.285 3.285 0 0 1 9.845.875h1.094v2.188H9.844c-.603 0-1.094.49-1.094 1.093V5.25h2.188v2.188Zm13.781 19.687h-1.094v-2.188h1.094c.603 0 1.093-.49 1.093-1.093V22.75h-2.187v-2.188H28v3.282a3.285 3.285 0 0 1-3.281 3.281Zm-6.563 0h-1.093v-2.188h1.093c.603 0 1.094-.49 1.094-1.093V22.75h-2.188v-2.188h4.375v3.282a3.285 3.285 0 0 1-3.28 3.281ZM13.125 3.063H28V5.25H13.125V3.062ZM0 22.75h14.875v2.188H0V22.75Zm0-6.562h28v2.187H0v-2.188Zm0-6.563h28v2.188H0V9.624Z" fill="#fff"/></g><defs><clipPath id="a"><path fill="#fff" d="M0 0h28v28H0z"/></clipPath></defs></svg>