<svg width="755" height="358" fill="none" xmlns="http://www.w3.org/2000/svg"><rect y="286" width="40" height="40" rx="2" fill="#F70431"/><rect x="120" y="286" width="40" height="40" rx="2" fill="#F70431"/><rect x="239" y="286" width="40" height="40" rx="2" fill="#F70431"/><path d="M378 286h18a2 2 0 0 1 2 2v36a2 2 0 0 1-2 2h-18v-40Z" fill="#325D9C"/><path d="M358 288a2 2 0 0 1 2-2h18v40h-18a2 2 0 0 1-2-2v-36Z" fill="#F70431"/><rect x="477" y="286" width="40" height="40" rx="2" fill="#325D9C"/><rect x="596" y="286" width="40" height="40" rx="2" fill="#325D9C"/><rect x="715" y="286" width="40" height="40" rx="2" fill="#325D9C"/><path d="M10.492 352H8.977l-6.243-9.586h-.062c.083 1.125.125 2.156.125 3.094V352H1.57v-11.422h1.5l6.227 9.547h.062c-.01-.141-.033-.591-.07-1.352a23.623 23.623 0 0 1-.039-1.64v-6.555h1.242V352Zm10.336-4.289c0 1.396-.351 2.487-1.055 3.273-.703.782-1.674 1.172-2.914 1.172-.765 0-1.445-.179-2.039-.539-.593-.359-1.052-.875-1.375-1.547-.323-.672-.484-1.458-.484-2.359 0-1.396.349-2.482 1.047-3.258.698-.781 1.667-1.172 2.906-1.172 1.198 0 2.148.399 2.852 1.196.708.796 1.062 1.875 1.062 3.234Zm-6.523 0c0 1.094.218 1.927.656 2.5.437.573 1.08.859 1.93.859.849 0 1.492-.284 1.93-.851.442-.573.663-1.409.663-2.508 0-1.089-.221-1.914-.664-2.477-.437-.567-1.086-.851-1.945-.851-.849 0-1.49.278-1.922.836-.432.557-.648 1.388-.648 2.492Zm11.57 3.375c.23 0 .45-.016.664-.047.214-.036.383-.073.508-.109v.992c-.14.068-.35.122-.625.164a4.33 4.33 0 0 1-.735.07c-1.656 0-2.484-.872-2.484-2.617v-5.094h-1.226v-.625l1.226-.539.547-1.828h.75v1.985h2.484v1.007H24.5v5.039c0 .516.122.912.367 1.188.245.276.58.414 1.008.414Zm6.508 1.07c-1.266 0-2.266-.385-3-1.156-.73-.771-1.094-1.841-1.094-3.211 0-1.38.339-2.477 1.016-3.289.682-.812 1.596-1.219 2.742-1.219 1.073 0 1.922.354 2.547 1.063.625.703.937 1.633.937 2.789v.82h-5.898c.026 1.005.279 1.768.758 2.289.484.521 1.164.781 2.039.781.922 0 1.833-.192 2.734-.578v1.157a6.666 6.666 0 0 1-1.305.421c-.406.089-.898.133-1.476.133Zm-.352-7.789c-.687 0-1.237.224-1.648.672-.406.448-.646 1.068-.719 1.859h4.477c0-.817-.183-1.442-.547-1.875-.365-.437-.886-.656-1.563-.656Z" fill="#445664"/><path stroke="#E5E5E5" d="M2 335.5h752"/><path stroke="#325D9C" stroke-width="2" d="M377 85v126"/><path d="M15.277 80.047H7.72v-4.278h7.558v-7.617h4.278v7.617h7.558v4.278h-7.558v7.52h-4.278v-7.52ZM60.805 92H40.844v-4.2l7.168-7.245c2.122-2.175 3.509-3.679 4.16-4.512.65-.846 1.12-1.628 1.406-2.344a5.94 5.94 0 0 0 .43-2.226c0-1.146-.32-1.999-.957-2.559-.625-.56-1.465-.84-2.52-.84-1.106 0-2.18.254-3.222.762-1.042.508-2.13 1.23-3.262 2.168l-3.281-3.887c1.406-1.198 2.571-2.044 3.496-2.539a12.538 12.538 0 0 1 3.027-1.133c1.094-.273 2.318-.41 3.672-.41 1.784 0 3.36.326 4.727.977 1.367.65 2.428 1.562 3.183 2.734.755 1.172 1.133 2.513 1.133 4.023a9.803 9.803 0 0 1-.703 3.712c-.456 1.145-1.172 2.324-2.149 3.535-.963 1.21-2.669 2.936-5.117 5.175l-3.672 3.457v.274h12.442V92Zm13.28-18.242c2.761 0 4.955.775 6.583 2.324 1.64 1.55 2.46 3.672 2.46 6.367 0 3.19-.982 5.645-2.948 7.364-1.967 1.718-4.779 2.578-8.438 2.578-3.177 0-5.742-.515-7.695-1.543v-5.215c1.029.547 2.226.996 3.594 1.348 1.367.338 2.662.507 3.886.507 3.685 0 5.528-1.51 5.528-4.531 0-2.878-1.908-4.316-5.723-4.316-.69 0-1.452.071-2.285.215-.834.13-1.51.273-2.031.43l-2.403-1.29 1.075-14.55h15.488v5.117H70.98l-.528 5.605.684-.137c.794-.182 1.777-.273 2.949-.273Zm32.267 3.965c0 4.987-.821 8.678-2.461 11.074-1.628 2.396-4.141 3.594-7.54 3.594-3.294 0-5.78-1.237-7.46-3.711-1.667-2.474-2.5-6.127-2.5-10.957 0-5.04.813-8.75 2.441-11.133 1.628-2.396 4.134-3.594 7.52-3.594 3.294 0 5.781 1.25 7.46 3.75 1.693 2.5 2.54 6.159 2.54 10.977Zm-13.965 0c0 3.502.3 6.015.898 7.539.612 1.51 1.634 2.265 3.067 2.265 1.406 0 2.421-.768 3.046-2.304.625-1.537.938-4.037.938-7.5 0-3.503-.319-6.016-.957-7.54-.625-1.536-1.634-2.304-3.027-2.304-1.42 0-2.435.768-3.047 2.305-.612 1.523-.918 4.036-.918 7.539ZM113.949 72c0 1.654.143 2.89.43 3.71.299.808.775 1.212 1.426 1.212 1.25 0 1.875-1.64 1.875-4.922 0-3.255-.625-4.883-1.875-4.883-.651 0-1.127.404-1.426 1.211-.287.794-.43 2.018-.43 3.672Zm8.653-.04c0 2.996-.58 5.248-1.739 6.759-1.159 1.497-2.858 2.246-5.097 2.246-2.149 0-3.809-.768-4.981-2.305-1.172-1.55-1.758-3.782-1.758-6.7 0-5.95 2.246-8.925 6.739-8.925 2.2 0 3.886.775 5.058 2.324 1.185 1.537 1.778 3.737 1.778 6.602Zm13.437-8.515L120.199 92h-4.687l15.84-28.555h4.687Zm-2.09 19.961c0 1.654.143 2.89.43 3.711.299.807.775 1.211 1.426 1.211 1.25 0 1.875-1.64 1.875-4.922 0-3.255-.625-4.883-1.875-4.883-.651 0-1.127.404-1.426 1.211-.287.795-.43 2.019-.43 3.672Zm8.653-.039c0 2.982-.58 5.228-1.739 6.739-1.159 1.497-2.858 2.246-5.097 2.246-2.149 0-3.809-.769-4.981-2.305-1.172-1.55-1.758-3.776-1.758-6.68 0-5.95 2.246-8.926 6.739-8.926 2.2 0 3.886.775 5.058 2.325 1.185 1.536 1.778 3.737 1.778 6.601ZM169.338 92h-2.979v-6.377c0-.788-.133-1.377-.4-1.767-.26-.398-.674-.596-1.24-.596-.762 0-1.315.28-1.66.84-.345.56-.518 1.48-.518 2.763V92h-2.979V81.082h2.276l.4 1.397h.166a2.994 2.994 0 0 1 1.27-1.172c.553-.287 1.188-.43 1.904-.43 1.634 0 2.741.534 3.32 1.602h.264c.293-.508.723-.902 1.289-1.182.573-.28 1.218-.42 1.934-.42 1.237 0 2.171.319 2.803.957.638.632.957 1.647.957 3.047V92h-2.989v-6.377c0-.788-.133-1.377-.4-1.767-.261-.398-.674-.596-1.24-.596-.73 0-1.276.26-1.641.781-.358.52-.537 1.348-.537 2.48V92Zm9.746-13.74c0-.97.54-1.455 1.621-1.455s1.621.485 1.621 1.455c0 .462-.137.823-.41 1.084-.267.254-.671.38-1.211.38-1.081 0-1.621-.488-1.621-1.464ZM182.189 92h-2.978V81.082h2.978V92Zm7.735-2.178c.521 0 1.146-.114 1.875-.341v2.216c-.742.332-1.654.498-2.735.498-1.191 0-2.06-.3-2.607-.898-.54-.606-.811-1.51-.811-2.715v-5.264h-1.425v-1.26l1.64-.996.86-2.304h1.904v2.324h3.057v2.236h-3.057v5.264c0 .423.117.736.352.938.24.201.556.302.947.302Z" fill="#325D9C"/><path d="M19 210.5 140 194l119-14 118.5-55.5 119.5-31 119-38 121.5-46" stroke="#325D9C" stroke-width="2"/><path d="M10.504 260.055c1.656 0 2.973.465 3.95 1.394.983.93 1.476 2.203 1.476 3.821 0 1.914-.59 3.386-1.77 4.418-1.18 1.031-2.867 1.546-5.062 1.546-1.907 0-3.446-.308-4.618-.925v-3.129c.618.328 1.336.597 2.157.808a9.72 9.72 0 0 0 2.332.305c2.21 0 3.316-.906 3.316-2.719 0-1.726-1.144-2.59-3.433-2.59-.415 0-.872.043-1.372.129a9.36 9.36 0 0 0-1.218.258l-1.442-.773.645-8.731h9.293v3.071H8.64l-.317 3.363.41-.082c.477-.11 1.067-.164 1.77-.164Zm11.894 8.425c-.406 1.579-1.093 3.45-2.062 5.614h-2.578a68.157 68.157 0 0 0 1.183-5.883h3.282l.175.269Zm14.426-6.046c0 2.992-.492 5.207-1.476 6.644-.977 1.438-2.485 2.156-4.524 2.156-1.976 0-3.469-.742-4.476-2.226-1-1.485-1.5-3.676-1.5-6.574 0-3.024.488-5.25 1.465-6.68.976-1.438 2.48-2.156 4.511-2.156 1.977 0 3.469.75 4.477 2.25 1.015 1.5 1.523 3.695 1.523 6.586Zm-8.379 0c0 2.101.18 3.609.54 4.523.367.906.98 1.359 1.84 1.359.843 0 1.452-.461 1.827-1.382.375-.922.563-2.422.563-4.5 0-2.102-.192-3.61-.574-4.524-.375-.922-.98-1.383-1.817-1.383-.851 0-1.46.461-1.828 1.383-.367.914-.55 2.422-.55 4.524Z" fill="#002E5D"/><g clip-path="url(#a)" fill="#fff"><path d="M20 294c-6.617 0-12 5.383-12 12s5.383 12 12 12 12-5.383 12-12-5.383-12-12-12Zm0 22.703a10.67 10.67 0 0 1-7.543-3.117 10.76 10.76 0 0 1-1.94-2.629A10.635 10.635 0 0 1 9.297 306c0-5.901 4.801-10.703 10.703-10.703 2.8 0 5.35 1.081 7.26 2.846.99.916 1.807 2.015 2.396 3.243A10.642 10.642 0 0 1 30.703 306c0 5.901-4.802 10.703-10.703 10.703Z"/><path d="M16 304.622a1.298 1.298 0 1 0 0-2.595 1.298 1.298 0 0 0 0 2.595Zm8.027 0a1.298 1.298 0 1 0 0-2.595 1.298 1.298 0 0 0 0 2.595Zm1.344 5.816c.1.176.192.36.273.545l1.188-.522a7.487 7.487 0 0 0-.33-.661 7.525 7.525 0 0 0-6.894-3.79 7.52 7.52 0 0 0-6.44 4.451l1.187.522a6.208 6.208 0 0 1 5.32-3.677 6.218 6.218 0 0 1 5.696 3.132Zm-6.751-10.041-2.102-1.521-.76 1.052 2.102 1.52.76-1.051Zm5.622-.469-.76-1.052-2.103 1.521.76 1.051 2.103-1.52Z"/></g><circle cx="20" cy="210" r="8" fill="#fff" stroke="#325D9C" stroke-width="2"/><path d="M135.633 267.449h-2.063V271h-3.539v-3.551h-7.312v-2.519l7.511-11.063h3.34v10.77h2.063v2.812Zm-5.602-2.812v-2.907c0-.484.02-1.187.059-2.109.039-.922.07-1.457.094-1.605h-.094c-.289.64-.637 1.265-1.043 1.875l-3.141 4.746h4.125Zm11.367 3.843c-.406 1.579-1.093 3.45-2.062 5.614h-2.578a67.992 67.992 0 0 0 1.183-5.883h3.282l.175.269Zm14.426-6.046c0 2.992-.492 5.207-1.476 6.644-.977 1.438-2.485 2.156-4.524 2.156-1.976 0-3.469-.742-4.476-2.226-1-1.485-1.5-3.676-1.5-6.574 0-3.024.488-5.25 1.464-6.68.977-1.438 2.481-2.156 4.512-2.156 1.977 0 3.469.75 4.477 2.25 1.015 1.5 1.523 3.695 1.523 6.586Zm-8.379 0c0 2.101.18 3.609.539 4.523.368.906.981 1.359 1.84 1.359.844 0 1.453-.461 1.828-1.382.375-.922.563-2.422.563-4.5 0-2.102-.192-3.61-.574-4.524-.375-.922-.981-1.383-1.817-1.383-.851 0-1.461.461-1.828 1.383-.367.914-.551 2.422-.551 4.524Z" fill="#002E5D"/><g clip-path="url(#b)" fill="#fff"><path d="M140 294c-6.617 0-12 5.383-12 12s5.383 12 12 12 12-5.383 12-12-5.383-12-12-12Zm0 22.703c-2.94 0-5.606-1.192-7.543-3.117a10.763 10.763 0 0 1-1.94-2.629 10.64 10.64 0 0 1-1.22-4.957c0-5.901 4.802-10.703 10.703-10.703 2.799 0 5.35 1.081 7.26 2.846a10.781 10.781 0 0 1 2.396 3.243 10.635 10.635 0 0 1 1.047 4.614c0 5.901-4.802 10.703-10.703 10.703Z"/><path d="M141.268 309.212a6.16 6.16 0 0 1 3.6 2.253l1.024-.797a7.468 7.468 0 0 0-4.359-2.726 7.517 7.517 0 0 0-7.426 2.726l1.025.797a6.208 6.208 0 0 1 6.136-2.253Zm-5.268-4.59a1.298 1.298 0 1 0-.001-2.595 1.298 1.298 0 0 0 .001 2.595Zm8.027 0a1.298 1.298 0 1 0 0-2.596 1.298 1.298 0 0 0 0 2.596Z"/></g><circle cx="140" cy="194" r="8" fill="#fff" stroke="#325D9C" stroke-width="2"/><path d="M253.578 257.699c0 1.071-.324 1.981-.973 2.731-.648.75-1.558 1.265-2.73 1.547v.07c1.383.172 2.43.594 3.141 1.265.711.665 1.066 1.563 1.066 2.696 0 1.648-.598 2.933-1.793 3.855-1.195.914-2.902 1.371-5.121 1.371-1.859 0-3.508-.308-4.945-.925v-3.082c.664.335 1.394.609 2.191.82a9.219 9.219 0 0 0 2.367.316c1.196 0 2.078-.203 2.649-.609.57-.406.855-1.059.855-1.957 0-.805-.328-1.375-.984-1.711-.656-.336-1.703-.504-3.141-.504h-1.301v-2.777h1.325c1.328 0 2.296-.172 2.906-.516.617-.351.926-.949.926-1.793 0-1.297-.813-1.945-2.438-1.945-.562 0-1.137.094-1.723.281-.578.188-1.222.512-1.933.973l-1.676-2.496c1.563-1.125 3.426-1.688 5.59-1.688 1.773 0 3.172.359 4.195 1.078 1.031.719 1.547 1.719 1.547 3Zm6.82 10.781c-.406 1.579-1.093 3.45-2.062 5.614h-2.578a67.992 67.992 0 0 0 1.183-5.883h3.282l.175.269Zm13.852-10.781c0 1.071-.324 1.981-.973 2.731-.648.75-1.558 1.265-2.73 1.547v.07c1.383.172 2.43.594 3.141 1.265.71.665 1.066 1.563 1.066 2.696 0 1.648-.598 2.933-1.793 3.855-1.195.914-2.902 1.371-5.121 1.371-1.86 0-3.508-.308-4.945-.925v-3.082c.664.335 1.394.609 2.191.82a9.219 9.219 0 0 0 2.367.316c1.195 0 2.078-.203 2.649-.609.57-.406.855-1.059.855-1.957 0-.805-.328-1.375-.984-1.711-.657-.336-1.703-.504-3.141-.504h-1.301v-2.777h1.324c1.329 0 2.297-.172 2.907-.516.617-.351.926-.949.926-1.793 0-1.297-.813-1.945-2.438-1.945-.562 0-1.137.094-1.723.281-.578.188-1.222.512-1.933.973l-1.676-2.496c1.562-1.125 3.426-1.688 5.59-1.688 1.773 0 3.172.359 4.195 1.078 1.031.719 1.547 1.719 1.547 3Z" fill="#002E5D"/><g clip-path="url(#c)" fill="#fff"><path d="M259 294c-6.617 0-12 5.383-12 12s5.383 12 12 12 12-5.383 12-12-5.383-12-12-12Zm0 22.703c-2.94 0-5.606-1.192-7.543-3.117a10.763 10.763 0 0 1-1.94-2.629 10.64 10.64 0 0 1-1.22-4.957c0-5.901 4.802-10.703 10.703-10.703 2.799 0 5.35 1.081 7.26 2.846a10.773 10.773 0 0 1 2.396 3.244 10.627 10.627 0 0 1 1.047 4.613c0 5.901-4.802 10.703-10.703 10.703Z"/><path d="m265.743 308.799-13.51.242.024 1.297 13.51-.242-.024-1.297Zm-10.757-4.096a1.298 1.298 0 1 0 0-2.596 1.298 1.298 0 0 0 0 2.596Zm8.028 0a1.298 1.298 0 1 0-.001-2.595 1.298 1.298 0 0 0 .001 2.595Z"/></g><circle cx="259" cy="179" r="8" fill="#fff" stroke="#325D9C" stroke-width="2"/><path d="M372.578 257.699c0 1.071-.324 1.981-.973 2.731-.648.75-1.558 1.265-2.73 1.547v.07c1.383.172 2.43.594 3.141 1.265.711.665 1.066 1.563 1.066 2.696 0 1.648-.598 2.933-1.793 3.855-1.195.914-2.902 1.371-5.121 1.371-1.859 0-3.508-.308-4.945-.925v-3.082c.664.335 1.394.609 2.191.82a9.219 9.219 0 0 0 2.367.316c1.196 0 2.078-.203 2.649-.609.57-.406.855-1.059.855-1.957 0-.805-.328-1.375-.984-1.711-.656-.336-1.703-.504-3.141-.504h-1.301v-2.777h1.325c1.328 0 2.296-.172 2.906-.516.617-.351.926-.949.926-1.793 0-1.297-.813-1.945-2.438-1.945-.562 0-1.137.094-1.723.281-.578.188-1.222.512-1.933.973l-1.676-2.496c1.563-1.125 3.426-1.688 5.59-1.688 1.773 0 3.172.359 4.195 1.078 1.031.719 1.547 1.719 1.547 3Zm6.82 10.781c-.406 1.579-1.093 3.45-2.062 5.614h-2.578a67.992 67.992 0 0 0 1.183-5.883h3.282l.175.269Zm14.426-6.046c0 2.992-.492 5.207-1.476 6.644-.977 1.438-2.485 2.156-4.524 2.156-1.976 0-3.469-.742-4.476-2.226-1-1.485-1.5-3.676-1.5-6.574 0-3.024.488-5.25 1.464-6.68.977-1.438 2.481-2.156 4.512-2.156 1.977 0 3.469.75 4.477 2.25 1.015 1.5 1.523 3.695 1.523 6.586Zm-8.379 0c0 2.101.18 3.609.539 4.523.368.906.981 1.359 1.84 1.359.844 0 1.453-.461 1.828-1.382.375-.922.563-2.422.563-4.5 0-2.102-.192-3.61-.574-4.524-.375-.922-.981-1.383-1.817-1.383-.851 0-1.461.461-1.828 1.383-.367.914-.551 2.422-.551 4.524Z" fill="#002E5D"/><g clip-path="url(#d)" fill="#fff"><path d="M378 294c-6.617 0-12 5.383-12 12s5.383 12 12 12 12-5.383 12-12-5.383-12-12-12Zm0 22.703c-2.94 0-5.606-1.192-7.543-3.117a10.763 10.763 0 0 1-1.94-2.629 10.64 10.64 0 0 1-1.22-4.957c0-5.901 4.802-10.703 10.703-10.703 2.799 0 5.35 1.081 7.26 2.846a10.773 10.773 0 0 1 2.396 3.244 10.627 10.627 0 0 1 1.047 4.613c0 5.901-4.802 10.703-10.703 10.703Z"/><path d="m382.383 308.883-8.842.158.023 1.297 8.843-.158-.024-1.297Zm-8.397-4.18a1.298 1.298 0 1 0 0-2.596 1.298 1.298 0 0 0 0 2.596Zm8.028 0a1.298 1.298 0 1 0-.001-2.595 1.298 1.298 0 0 0 .001 2.595Z"/></g><circle cx="378" cy="124" r="8" fill="#325D9C" stroke="#325D9C" stroke-width="4"/><path d="M492.246 271H480.27v-2.52l4.3-4.347c1.274-1.305 2.106-2.207 2.496-2.707.391-.508.672-.977.844-1.406.172-.43.258-.875.258-1.336 0-.688-.191-1.2-.574-1.536-.375-.336-.879-.503-1.512-.503-.664 0-1.309.152-1.934.457-.625.304-1.277.738-1.957 1.3l-1.968-2.332c.843-.718 1.543-1.226 2.097-1.523a7.506 7.506 0 0 1 1.817-.68 9.093 9.093 0 0 1 2.203-.246c1.07 0 2.015.195 2.836.586.82.391 1.457.938 1.91 1.641.453.703.68 1.507.68 2.414 0 .789-.141 1.531-.422 2.226-.274.688-.703 1.395-1.289 2.121-.578.727-1.602 1.762-3.071 3.106l-2.203 2.074v.164h7.465V271Zm6.152-2.52c-.406 1.579-1.093 3.45-2.062 5.614h-2.578a67.992 67.992 0 0 0 1.183-5.883h3.282l.175.269Zm14.426-6.046c0 2.992-.492 5.207-1.476 6.644-.977 1.438-2.485 2.156-4.524 2.156-1.976 0-3.469-.742-4.476-2.226-1-1.485-1.5-3.676-1.5-6.574 0-3.024.488-5.25 1.464-6.68.977-1.438 2.481-2.156 4.512-2.156 1.977 0 3.469.75 4.477 2.25 1.015 1.5 1.523 3.695 1.523 6.586Zm-8.379 0c0 2.101.18 3.609.539 4.523.368.906.981 1.359 1.84 1.359.844 0 1.453-.461 1.828-1.382.375-.922.563-2.422.563-4.5 0-2.102-.192-3.61-.574-4.524-.375-.922-.981-1.383-1.817-1.383-.851 0-1.461.461-1.828 1.383-.367.914-.551 2.422-.551 4.524Z" fill="#002E5D"/><g clip-path="url(#e)" fill="#fff"><path d="M497 294c-6.617 0-12 5.383-12 12s5.383 12 12 12 12-5.383 12-12-5.383-12-12-12Zm0 22.703c-2.94 0-5.606-1.192-7.543-3.117a10.763 10.763 0 0 1-1.94-2.629 10.64 10.64 0 0 1-1.22-4.957c0-5.901 4.802-10.703 10.703-10.703 2.799 0 5.35 1.081 7.26 2.846a10.773 10.773 0 0 1 2.396 3.244 10.627 10.627 0 0 1 1.047 4.613c0 5.901-4.802 10.703-10.703 10.703Z"/><path d="M502.03 309.488a2.335 2.335 0 0 1-1.139-.702 5.73 5.73 0 0 1-3.891 1.533 5.73 5.73 0 0 1-3.891-1.533 2.335 2.335 0 0 1-1.139.702 7.029 7.029 0 0 0 5.03 2.129 7.029 7.029 0 0 0 5.03-2.129Zm-9.044-4.947a1.297 1.297 0 1 0 .002-2.598 1.297 1.297 0 0 0-.002 2.598Zm9.236-.828a1.297 1.297 0 1 0-2.417-.94 1.297 1.297 0 0 0 2.417.94Z"/></g><circle cx="497" cy="93" r="8" fill="#fff" stroke="#325D9C" stroke-width="2"/><path d="M608.223 271h-3.621v-9.914l.035-1.629.058-1.781c-.601.601-1.019.996-1.254 1.183l-1.968 1.582-1.746-2.179 5.519-4.395h2.977V271Zm9.175-2.52c-.406 1.579-1.093 3.45-2.062 5.614h-2.578a67.992 67.992 0 0 0 1.183-5.883h3.282l.175.269Zm13.852-10.781c0 1.071-.324 1.981-.973 2.731-.648.75-1.558 1.265-2.73 1.547v.07c1.383.172 2.43.594 3.141 1.265.71.665 1.066 1.563 1.066 2.696 0 1.648-.598 2.933-1.793 3.855-1.195.914-2.902 1.371-5.121 1.371-1.86 0-3.508-.308-4.945-.925v-3.082c.664.335 1.394.609 2.191.82a9.219 9.219 0 0 0 2.367.316c1.195 0 2.078-.203 2.649-.609.57-.406.855-1.059.855-1.957 0-.805-.328-1.375-.984-1.711-.657-.336-1.703-.504-3.141-.504h-1.301v-2.777h1.324c1.329 0 2.297-.172 2.907-.516.617-.351.926-.949.926-1.793 0-1.297-.813-1.945-2.438-1.945-.562 0-1.137.094-1.723.281-.578.188-1.222.512-1.933.973l-1.676-2.496c1.562-1.125 3.426-1.688 5.59-1.688 1.773 0 3.172.359 4.195 1.078 1.031.719 1.547 1.719 1.547 3Z" fill="#002E5D"/><g clip-path="url(#f)" fill="#fff"><path d="M616 294c-6.617 0-12 5.383-12 12s5.383 12 12 12 12-5.383 12-12-5.383-12-12-12Zm0 22.703c-2.94 0-5.606-1.192-7.542-3.117a10.741 10.741 0 0 1-1.941-2.629 10.64 10.64 0 0 1-1.22-4.957c0-5.901 4.802-10.703 10.703-10.703 2.799 0 5.35 1.081 7.26 2.846a10.781 10.781 0 0 1 2.396 3.243 10.635 10.635 0 0 1 1.047 4.614c0 5.901-4.802 10.703-10.703 10.703Z"/><path d="M623.459 306h-1.297a6.164 6.164 0 0 1-6.162 6.162 6.164 6.164 0 0 1-6.162-6.162h-1.297a7.453 7.453 0 0 0 7.459 7.459 7.453 7.453 0 0 0 7.459-7.459ZM612 304.622a1.298 1.298 0 1 0-.001-2.595 1.298 1.298 0 0 0 .001 2.595Zm8.027 0a1.298 1.298 0 1 0 0-2.596 1.298 1.298 0 0 0 0 2.596Z"/></g><circle cx="616" cy="55" r="8" fill="#fff" stroke="#325D9C" stroke-width="2"/><path d="M727.223 271h-3.621v-9.914l.035-1.629.058-1.781c-.601.601-1.019.996-1.254 1.183l-1.968 1.582-1.746-2.179 5.519-4.395h2.977V271Zm9.175-2.52c-.406 1.579-1.093 3.45-2.062 5.614h-2.578a67.992 67.992 0 0 0 1.183-5.883h3.282l.175.269Zm14.426-6.046c0 2.992-.492 5.207-1.476 6.644-.977 1.438-2.485 2.156-4.524 2.156-1.976 0-3.469-.742-4.476-2.226-1-1.485-1.5-3.676-1.5-6.574 0-3.024.488-5.25 1.464-6.68.977-1.438 2.481-2.156 4.512-2.156 1.977 0 3.469.75 4.477 2.25 1.015 1.5 1.523 3.695 1.523 6.586Zm-8.379 0c0 2.101.18 3.609.539 4.523.368.906.981 1.359 1.84 1.359.844 0 1.453-.461 1.828-1.382.375-.922.563-2.422.563-4.5 0-2.102-.192-3.61-.574-4.524-.375-.922-.981-1.383-1.817-1.383-.851 0-1.461.461-1.828 1.383-.367.914-.551 2.422-.551 4.524Z" fill="#002E5D"/><g clip-path="url(#g)" fill="#fff"><path d="M735 294c-6.617 0-12 5.383-12 12s5.383 12 12 12 12-5.383 12-12-5.383-12-12-12Zm0 22.703c-2.94 0-5.606-1.192-7.542-3.117a10.741 10.741 0 0 1-1.941-2.629 10.64 10.64 0 0 1-1.22-4.957c0-5.901 4.802-10.703 10.703-10.703 2.799 0 5.35 1.081 7.26 2.846a10.781 10.781 0 0 1 2.396 3.243 10.635 10.635 0 0 1 1.047 4.614c0 5.901-4.802 10.703-10.703 10.703Z"/><path d="M742.297 306h-14.594a7.297 7.297 0 0 0 14.594 0Zm-1.459 1.297h.01c-.594 2.687-2.99 4.703-5.853 4.703-2.863 0-5.259-2.016-5.854-4.703h11.697Zm-9.852-3.243a1.298 1.298 0 1 0 0-2.595 1.298 1.298 0 0 0 0 2.595Zm8.028 0a1.297 1.297 0 1 0 0-2.595 1.297 1.297 0 0 0 0 2.595Z"/></g><circle cx="735" cy="9" r="8" fill="#fff" stroke="#325D9C" stroke-width="2"/><path d="m499.5 107.5-116 32v98h354v-212L615.5 74l-116 33.5Z" fill="url(#h)"/><path d="M139.5 209 19 226.5v11h352.5v-96L260 194l-120.5 15Z" fill="url(#i)"/><g clip-path="url(#j)"><path d="M203 93h6.882l2.546-9.852h4.335v-2.072h-3.765l.708-2.596-4.139-1.814-.668 1.754L203 93Zm10.195-16.067c1.406 0 2.546-1.162 2.546-2.596 0-1.434-1.14-2.597-2.546-2.597-1.407 0-2.547 1.163-2.547 2.597s1.14 2.596 2.547 2.596Z" fill="#002E5D"/><path d="M230.526 93h-6.881l-2.546-9.852h-4.336v-2.072h3.765l-.707-2.596 4.138-1.814.669 1.754L230.526 93Zm-10.194-16.067c1.406 0 2.546-1.162 2.546-2.596 0-1.434-1.14-2.597-2.546-2.597s-2.546 1.163-2.546 2.597 1.14 2.596 2.546 2.596Z" fill="#325D9C"/><path d="M221.345 66.03h-9.173v4.144h9.173V66.03Z" fill="#002E5D"/><path d="M224.412 65h-15.297v1.04h15.297V65Z" fill="#002E5D"/><path d="M209.626 65.991h.256v1.596l.255.525h-.766l.255-.525v-1.596Zm27.979 26.761 5.161-15.71h3.765l5.152 15.71h-3.765l-.905-3.4h-4.827l-.845 3.4h-3.736Zm5.309-6.175h3.391l-1.671-6.373-1.72 6.373Zm14.451-9.505v6.76l4.621-6.74h4.129l-5.447 7.533 5.692 8.127h-4.119l-4.837-7.384v7.384h-3.598v-15.68h3.559Zm10.293 15.68 5.142-15.68h3.765l5.171 15.68h-3.765l-.905-3.4h-4.826l-.885 3.4h-3.697Zm5.309-6.175h3.392l-1.672-6.373-1.72 6.373Zm23.427-1.863a8.429 8.429 0 0 1-.451 3.285 8.368 8.368 0 0 1-1.683 2.85 8.015 8.015 0 0 1-2.76 1.692 7.972 7.972 0 0 1-3.197.459 28.092 28.092 0 0 1-4.395-.327V77.18a28.146 28.146 0 0 1 4.346-.287 8.1 8.1 0 0 1 3.186.437 8.139 8.139 0 0 1 2.771 1.644 7.6 7.6 0 0 1 1.691 2.638 7.68 7.68 0 0 1 .492 3.101Zm-3.382 0c0-3.33-1.485-4.956-4.434-4.956a5.736 5.736 0 0 0-1.18.13v10.119a5.12 5.12 0 0 0 1.18.129c2.9 0 4.384-1.804 4.384-5.422h.05Zm9.133-4.688v3.201h5.801v2.775h-5.801v3.826h6.213v2.974h-9.772v-15.73h9.772v2.974l-6.213-.02Zm21.225 3.142-2.674 6.016h-3.224l-2.675-6.016v9.584h-3.46v-15.68h3.637l4.031 9.258 4.041-9.258h3.824v15.68h-3.451l-.049-9.584Zm6.931 9.584v-15.68h3.932v15.68h-3.932Zm11.069-15.68V89.78h6.449v2.973h-10.135v-15.68h3.686Zm8.671 0 2.949 6.74 2.95-6.74h3.931l-5.062 9.733v5.947h-3.667v-5.947l-5.161-9.683 4.06-.05Z" fill="#002E5D"/></g><defs><clipPath id="a"><path fill="#fff" transform="translate(8 294)" d="M0 0h24v24H0z"/></clipPath><clipPath id="b"><path fill="#fff" transform="translate(128 294)" d="M0 0h24v24H0z"/></clipPath><clipPath id="c"><path fill="#fff" transform="translate(247 294)" d="M0 0h24v24H0z"/></clipPath><clipPath id="d"><path fill="#fff" transform="translate(366 294)" d="M0 0h24v24H0z"/></clipPath><clipPath id="e"><path fill="#fff" transform="translate(485 294)" d="M0 0h24v24H0z"/></clipPath><clipPath id="f"><path fill="#fff" transform="translate(604 294)" d="M0 0h24v24H0z"/></clipPath><clipPath id="g"><path fill="#fff" transform="translate(723 294)" d="M0 0h24v24H0z"/></clipPath><clipPath id="j"><path fill="#fff" transform="translate(203 65)" d="M0 0h157v28H0z"/></clipPath><linearGradient id="h" x1="559.5" y1="25.5" x2="559.5" y2="237.5" gradientUnits="userSpaceOnUse"><stop stop-color="#325D9C"/><stop offset="1" stop-color="#325D9C" stop-opacity="0"/></linearGradient><linearGradient id="i" x1="196.25" y1="141.5" x2="196.25" y2="237.5" gradientUnits="userSpaceOnUse"><stop stop-color="#F70431"/><stop offset="1" stop-color="#F70431" stop-opacity="0"/></linearGradient></defs></svg>