<svg width="28" height="28" fill="none" xmlns="http://www.w3.org/2000/svg"><g fill="#fff" clip-path="url(#a)"><path d="M23.746 4.1a13.908 13.908 0 0 0-9.9-4.1h-.83v1.633a12.303 12.303 0 0 0-7.934 3.602A12.314 12.314 0 0 0 1.452 14c0 .922.1 1.835.3 2.726l-1.598.337.25.86a14.102 14.102 0 0 0 4.968 7.221A13.873 13.873 0 0 0 13.846 28c3.74 0 7.256-1.456 9.9-4.1a13.908 13.908 0 0 0 4.1-9.9 13.91 13.91 0 0 0-4.1-9.9ZM3.11 14c0-5.64 4.372-10.278 9.905-10.703v1.905h.83c4.852 0 8.799 3.947 8.799 8.798 0 4.852-3.947 8.798-8.799 8.798a8.772 8.772 0 0 1-8.375-6.096l-.23-.713-1.864.394A10.785 10.785 0 0 1 3.11 14Zm10.735 12.34c-5.151 0-9.784-3.26-11.565-8.03l1.865-.393a10.407 10.407 0 0 0 3.484 4.494 10.375 10.375 0 0 0 6.216 2.047c5.767 0 10.459-4.691 10.459-10.458 0-5.487-4.248-10.001-9.628-10.426V1.688c6.418.428 11.51 5.787 11.51 12.312 0 6.804-5.536 12.34-12.34 12.34Z"/><path d="m10.066 16.493 6.381-6.381 1.174 1.174-6.381 6.38-1.174-1.173Zm.724-5.697h1.66v1.734h-1.66v-1.734Zm4.453 4.453h1.66v1.734h-1.66v-1.734Z"/></g><defs><clipPath id="a"><path fill="#fff" d="M0 0h28v28H0z"/></clipPath></defs></svg>