<svg width="84" height="105" fill="none" xmlns="http://www.w3.org/2000/svg"><g clip-path="url(#a)" fill="#E5E5E5"><path d="M.16 87.27h20.952l7.76-30.569h13.192v-6.435H30.596l2.156-8.045-12.593-5.631-2.151 5.452L.159 87.271Zm31.039-49.877c4.286 0 7.76-3.602 7.76-8.045s-3.474-8.044-7.76-8.044-7.76 3.601-7.76 8.044c0 4.443 3.474 8.045 7.76 8.045ZM83.97 87.27H63.018l-7.76-30.569H42.066v-6.435h11.468l-2.156-8.045 12.593-5.631 2.152 5.452L83.97 87.271ZM52.93 37.393c-4.285 0-7.76-3.602-7.76-8.045s3.475-8.044 7.76-8.044c4.286 0 7.76 3.601 7.76 8.044 0 4.443-3.474 8.045-7.76 8.045Zm3.096-33.788H28.09v12.872h27.936V3.605Z"/><path d="M65.343.389h-46.56v3.218h46.56V.389Z"/><path d="M20.33 3.605h.776v4.827l.776 1.61h-2.328l.776-1.61V3.605ZM.16 104.817l3.538-10.962h2.578L9.8 104.817H7.222l-.616-2.373h-3.31l-.601 2.373H.159Zm3.638-4.311h2.32l-1.145-4.444h-.03l-1.145 4.444Zm9.892-6.651v4.7h.03l3.165-4.7h2.822l-3.724 5.255 3.867 5.707h-2.822l-3.309-5.151h-.028v5.151h-2.436V93.855h2.436Zm7.048 10.962 3.538-10.962h2.578l3.524 10.962H27.8l-.616-2.373h-3.31l-.6 2.373h-2.537Zm3.638-4.311h2.32l-1.145-4.444h-.029l-1.146 4.444Zm16.01-1.32c0 1.843-.487 3.269-1.462 4.28-.964 1.001-2.324 1.502-4.082 1.502a19.19 19.19 0 0 1-3.008-.226V93.93c.945-.15 1.948-.225 3.008-.225 1.758 0 3.118.486 4.083 1.457.974.96 1.461 2.302 1.461 4.024Zm-2.321 0c0-2.322-1.013-3.484-3.037-3.484-.277 0-.544.03-.802.09v7.088c.258.06.525.09.802.09 2.024 0 3.037-1.261 3.037-3.784Zm6.29-3.274v2.237h3.968v1.938h-3.968v2.673h4.254v2.057h-6.69V93.855h6.69v2.057h-4.255Zm14.53 2.192h-.028l-1.833 4.204h-2.206l-1.834-4.204h-.029v6.713H50.65V93.855h2.492l2.765 6.456h.028l2.765-6.457h2.55v10.963h-2.364v-6.713Zm4.751 6.713V93.855h2.679v10.962h-2.679Zm7.58-10.962v8.844h4.412v2.118h-6.92V93.855h2.508Zm5.934 0 2.034 4.7h.028l2.034-4.7h2.721l-3.552 6.757v4.205h-2.507v-4.205l-3.537-6.757h2.778Z"/></g><defs><clipPath id="a"><path fill="#fff" d="M0 0h84v105H0z"/></clipPath></defs></svg>