<svg width="188" height="145" fill="none" xmlns="http://www.w3.org/2000/svg"><g clip-path="url(#a)"><path d="M21.385 70.873c.58-8.585 3.021-44.59 30.028-61.908 30.908-19.82 77.737-4.738 101.172 25.289 14.277 18.295 25.132 48.885 13.301 74.856-20.118 44.162-95.98 53.333-127.57 21.243-19.614-19.919-17.508-51.001-16.931-59.48Z" fill="#F3F8FF"/><path d="M154.537 139.552c-.103 0-.206-.006-.308-.017l-67.897-7.622a2.757 2.757 0 0 1-1.841-1.022 2.775 2.775 0 0 1-.587-2.028L93.9 39.142a2.769 2.769 0 0 1 1.018-1.849 2.748 2.748 0 0 1 2.02-.589l67.897 7.624c.724.082 1.386.45 1.841 1.021.455.572.666 1.3.587 2.028l-9.996 89.72a2.774 2.774 0 0 1-.901 1.747 2.755 2.755 0 0 1-1.829.706v.002ZM96.631 37.353a2.092 2.092 0 0 0-1.39.537 2.107 2.107 0 0 0-.683 1.327l-9.995 89.72a2.097 2.097 0 0 0 1.843 2.315l67.897 7.622c.549.06 1.1-.101 1.532-.448.432-.346.71-.85.774-1.402l9.994-89.72a2.103 2.103 0 0 0-1.842-2.316l-67.897-7.622a2.135 2.135 0 0 0-.233-.013Z" fill="#444"/><path d="m145.906 142.162-65.761-18.599a2.431 2.431 0 0 1-1.45-1.152 2.445 2.445 0 0 1-.223-1.843l24.389-86.898a2.436 2.436 0 0 1 1.147-1.457 2.417 2.417 0 0 1 1.837-.222l65.759 18.601a2.43 2.43 0 0 1 1.451 1.152c.314.561.393 1.224.222 1.843l-24.389 86.896a2.432 2.432 0 0 1-2.982 1.679Z" fill="#325D9C"/><path d="m150.099 62.162-31.926-9.03a1.796 1.796 0 0 1-1.074-.851 1.807 1.807 0 0 1-.163-1.364 1.789 1.789 0 0 1 2.207-1.242l31.926 9.03c.456.13.841.436 1.073.85.232.416.291.906.164 1.365a1.8 1.8 0 0 1-.849 1.078 1.786 1.786 0 0 1-1.358.164Zm6.36 12.648L106.17 60.585a1.807 1.807 0 0 1-1.237-2.216c.13-.457.436-.844.849-1.077a1.788 1.788 0 0 1 1.358-.164l50.289 14.223a1.803 1.803 0 0 1 1.237 2.215 1.789 1.789 0 0 1-2.207 1.242Zm-2.233 7.957-50.289-14.223a1.803 1.803 0 0 1-1.237-2.216 1.79 1.79 0 0 1 2.207-1.242l50.289 14.224c.456.13.842.437 1.074.852.231.415.29.905.163 1.364a1.8 1.8 0 0 1-.849 1.077 1.787 1.787 0 0 1-1.358.164Zm-2.234 7.963-50.289-14.223a1.796 1.796 0 0 1-1.074-.852 1.812 1.812 0 0 1-.163-1.364 1.8 1.8 0 0 1 .849-1.078 1.785 1.785 0 0 1 1.358-.163l50.289 14.223a1.805 1.805 0 0 1 1.237 2.215 1.788 1.788 0 0 1-2.207 1.242Zm-2.234 7.956L99.469 84.463a1.796 1.796 0 0 1-1.073-.852 1.807 1.807 0 0 1-.164-1.364 1.8 1.8 0 0 1 .849-1.077 1.788 1.788 0 0 1 1.358-.164l50.289 14.223a1.797 1.797 0 0 1 .387 3.293 1.786 1.786 0 0 1-1.357.164Zm-2.233 7.959-50.29-14.223a1.796 1.796 0 0 1-1.073-.851 1.808 1.808 0 0 1-.163-1.364 1.8 1.8 0 0 1 .848-1.078 1.789 1.789 0 0 1 1.36-.164l50.288 14.223c.456.13.842.437 1.074.852.231.415.29.905.163 1.364a1.798 1.798 0 0 1-2.207 1.241Zm-2.234 7.959-50.29-14.223a1.794 1.794 0 0 1-1.073-.852 1.806 1.806 0 0 1-.163-1.364 1.8 1.8 0 0 1 .848-1.077 1.787 1.787 0 0 1 1.359-.164l50.289 14.223c.456.13.842.437 1.074.852.232.415.29.905.163 1.364a1.8 1.8 0 0 1-.848 1.077 1.786 1.786 0 0 1-1.359.164Zm-2.234 7.959L92.768 108.34a1.808 1.808 0 0 1-1.238-2.216 1.8 1.8 0 0 1 .849-1.077 1.785 1.785 0 0 1 1.358-.164l50.289 14.223a1.805 1.805 0 0 1 1.237 2.215 1.792 1.792 0 0 1-2.206 1.242Zm-2.233 7.959-50.29-14.223a1.806 1.806 0 0 1-1.237-2.215 1.798 1.798 0 0 1 2.209-1.242l50.289 14.223c.455.13.841.437 1.073.852.232.415.29.905.163 1.364a1.8 1.8 0 0 1-.848 1.077 1.786 1.786 0 0 1-1.359.164Z" fill="#B3CEF6"/><path d="M52.874 121.573h-.01c-.1 0-.189-.004-.27-.011l-.036-.003h-.012a2.75 2.75 0 0 1-.23-.032l-.017-.002-.062-.011a3.44 3.44 0 0 1-.246-.059l-.07-.02-.015-.005a3.09 3.09 0 0 1-.193-.066h-.006l-.087-.034a2.287 2.287 0 0 1-.199-.089l-.098-.05a3.912 3.912 0 0 1-.288-.174l-.026-.017a2.378 2.378 0 0 1-.227-.169 3.057 3.057 0 0 1-.138-.12l-.018-.016c-.02-.018-.039-.034-.054-.054a3.335 3.335 0 0 1-.197-.208l-.026-.031-.006-.007a2.774 2.774 0 0 1-.152-.197c-.018-.024-.033-.048-.05-.072l-.003-.005c-.04-.06-.08-.123-.117-.186l-.01-.018-.035-.06a3.63 3.63 0 0 1-.136-.275l-.205-.474-35.261-81.337a3.324 3.324 0 0 1-.133-.37c0-.008-.005-.018-.008-.027a2.684 2.684 0 0 1-.07-.297l-.009-.027a3.43 3.43 0 0 1-.03-.193 3.257 3.257 0 0 1-.023-.31v-.12c0-.057.002-.119.006-.188v-.02c0-.033.004-.066.007-.099a3.66 3.66 0 0 1 .025-.186l.005-.03a2.305 2.305 0 0 1 .052-.248l.004-.015a3.325 3.325 0 0 1 .161-.484l.007-.015c.04-.093.077-.173.116-.247l.036-.063.014-.025a3.479 3.479 0 0 1 .187-.292l.005-.008a3.656 3.656 0 0 1 .22-.274c.046-.054.095-.103.152-.159l.008-.007c.028-.028.054-.054.086-.082a3.06 3.06 0 0 1 .172-.144l.025-.02a3.264 3.264 0 0 1 .279-.193l.025-.016.07-.043c.104-.06.213-.114.323-.162l63.6-27.782a3.1 3.1 0 0 1 .337-.126l.078-.021.031-.008c.07-.02.15-.04.234-.058l.099-.016.03-.005a3.368 3.368 0 0 1 .334-.035h.016a3.24 3.24 0 0 1 .216-.004 3.403 3.403 0 0 1 .347.025h.007a2.784 2.784 0 0 1 .34.061l.027.006.082.02c.075.02.154.046.247.079l.019.006a3.29 3.29 0 0 1 .478.219l.017.01c.042.023.086.048.132.076l.07.046.025.018a2.8 2.8 0 0 1 .157.112l.075.06.013.01c.054.046.104.087.147.128.028.026.054.054.082.079.046.045.091.093.135.142.026.029.054.057.076.087.039.047.078.097.122.158l.015.02.054.073a3.43 3.43 0 0 1 .167.269c.053.1.102.194.142.287l35.462 81.808c.038.087.072.178.108.288l.02.065.006.021c.021.07.04.142.054.213l.003.016.017.076c.016.08.029.162.039.246v.01c0 .012.004.024.005.037.01.093.016.187.018.288v.102c0 .067-.004.126-.007.182 0 .043-.007.085-.011.128a3.255 3.255 0 0 1-.152.693l-.007.022a4.16 4.16 0 0 1-.104.271l-.04.089a3.13 3.13 0 0 1-.136.258l-.011.019-.028.048a3.227 3.227 0 0 1-.212.306l-.023.028a3.231 3.231 0 0 1-.277.304l-.021.02a3.41 3.41 0 0 1-.295.25 3.99 3.99 0 0 1-.216.15l-.026.015a3.112 3.112 0 0 1-.416.221l-63.6 27.782a4.618 4.618 0 0 1-.283.108l-.01.003-.053.017a3.379 3.379 0 0 1-.277.074l-.037.007h-.015a3.242 3.242 0 0 1-.257.041h-.01l-.035.005a3.796 3.796 0 0 1-.276.017l-.06.002ZM81.008 6.013c-.04 0-.084 0-.132.003h-.017a2.25 2.25 0 0 0-.264.028l-.036.005-.066.011c-.063.013-.13.03-.187.046l-.047.013-.04.01a2.749 2.749 0 0 0-.27.1L16.35 34.018a2.631 2.631 0 0 0-.258.13l-.036.023-.04.025c-.053.034-.11.07-.161.108a1.175 1.175 0 0 0-.05.04l-.03.024a2.732 2.732 0 0 0-.138.114c-.023.02-.045.042-.067.064l-.008.008a2.57 2.57 0 0 0-.295.345l-.006.009a2.623 2.623 0 0 0-.147.23l-.018.031-.023.04a2.681 2.681 0 0 0-.108.231l-.006.015a2.741 2.741 0 0 0-.116.35l-.004.015c-.011.045-.022.088-.03.128l-.008.055-.006.038c-.007.046-.015.1-.02.148 0 .024-.004.048-.005.072v.023a2.785 2.785 0 0 0-.006.15v.096c0 .05.004.1.009.152a2.021 2.021 0 0 0 .034.25l.006.029.012.063c.012.054.028.112.043.166l.012.04.01.038c.03.088.058.166.09.241l35.463 81.807c.03.067.065.139.108.22l.024.042.012.02c.03.054.062.102.094.149l.004.006a1.932 1.932 0 0 0 .18.236l.005.007c.046.055.098.109.156.163l.038.035.022.02.108.095c.033.029.054.043.08.063.026.02.067.049.102.072l.029.02.061.041c.047.029.1.06.162.093l.079.04c.054.027.108.05.158.071l.07.027c.055.021.109.039.16.054l.016.006.053.015c.065.018.131.034.198.047l.042.007.02.003c.063.011.125.02.184.026l.027.003h.013c.064.006.134.008.216.008h.057c.08 0 .152-.006.22-.013l.036-.005c.067-.008.135-.019.205-.033l.042-.008a2.275 2.275 0 0 0 .26-.071l.01-.003a2.14 2.14 0 0 0 .226-.086l63.599-27.782c.094-.042.185-.09.274-.141l.046-.03.033-.02a2.947 2.947 0 0 0 .254-.183c.054-.042.103-.086.155-.136l.025-.024c.014-.013.028-.025.04-.038.063-.064.123-.131.178-.2l.02-.024c.06-.076.115-.156.166-.24l.011-.02a2.555 2.555 0 0 0 .127-.24l.032-.071c.03-.07.058-.141.083-.217l.009-.027.012-.035a2.642 2.642 0 0 0 .106-.514l.009-.102c.003-.044.004-.091.006-.145v-.083c0-.082-.006-.156-.014-.228v-.008c0-.01 0-.02-.004-.03a2.653 2.653 0 0 0-.032-.198c-.003-.019-.008-.038-.012-.054l-.004-.017a3.108 3.108 0 0 0-.045-.17l-.007-.024a2.646 2.646 0 0 0-.099-.275L83.428 7.606a2.733 2.733 0 0 0-.114-.231l-.02-.034-.022-.035c-.034-.054-.062-.102-.091-.146l-.037-.05-.018-.024a2.677 2.677 0 0 0-.266-.309l-.066-.063a2.424 2.424 0 0 0-.117-.101l-.014-.012-.054-.046c-.04-.03-.084-.06-.125-.088l-.033-.023-.043-.03-.1-.056-.02-.01a2.668 2.668 0 0 0-.34-.163l-.021-.008-.038-.012a2.599 2.599 0 0 0-.197-.063l-.054-.013-.034-.008a2.763 2.763 0 0 0-.27-.048h-.007a2.674 2.674 0 0 0-.171-.016c-.037 0-.071-.003-.108-.005h-.04Z" fill="#444"/><path d="m113.71 102.127.048-.074c.047-.072.09-.146.13-.223.011-.022.024-.043.034-.066a2.867 2.867 0 0 0 .209-.552c.013-.044.019-.073.027-.108.013-.054.023-.108.032-.162l.016-.091c.011-.086.02-.171.024-.257v-.043a2.13 2.13 0 0 0 0-.226c0-.028-.003-.054-.004-.083a4.38 4.38 0 0 0-.02-.197c-.004-.027-.007-.055-.012-.08a3.201 3.201 0 0 0-.054-.272l-.128-.497-21.85-84.813-.275-1.068a3.247 3.247 0 0 0-.086-.275c-.01-.03-.023-.055-.035-.084a2.765 2.765 0 0 0-.076-.18c-.014-.03-.03-.06-.046-.091-.028-.054-.055-.109-.087-.157l-.054-.089a3.456 3.456 0 0 0-.1-.144l-.062-.083a3.012 3.012 0 0 0-.113-.134l-.067-.075a2.907 2.907 0 0 0-.125-.121c-.025-.024-.049-.048-.075-.07-.038-.034-.08-.066-.121-.098a2.93 2.93 0 0 0-.349-.238c-.02-.012-.042-.022-.062-.033a3.227 3.227 0 0 0-.208-.105l-.093-.038a3.366 3.366 0 0 0-.191-.072 2.206 2.206 0 0 0-.108-.032 2.438 2.438 0 0 0-.304-.072 2.75 2.75 0 0 0-.31-.038 3.418 3.418 0 0 0-.199-.006H88.9c-.072.002-.143.01-.216.018-.034.003-.067.005-.101.01a3.025 3.025 0 0 0-.319.064L21.115 28.606c-.105.027-.208.06-.31.1-.031.011-.061.026-.092.039a3.19 3.19 0 0 0-.2.09c-.034.018-.066.037-.1.054a3.01 3.01 0 0 0-.172.103c-.033.02-.065.044-.097.066a2.313 2.313 0 0 0-.243.193c-.054.045-.1.09-.148.139a2.386 2.386 0 0 0-.212.238c-.02.025-.04.048-.058.072a3.451 3.451 0 0 0-.138.203c-.01.017-.022.034-.033.05-.07.12-.133.244-.187.371-.021.05-.043.101-.062.152l-.033.102a2.998 2.998 0 0 0-.12.542 2.783 2.783 0 0 0-.017.17c0 .036-.005.072-.006.108v.177a2.953 2.953 0 0 0 .023.297c.004.03.006.06.011.09.015.095.034.19.059.284l.272 1.067L41.1 118.122l.13.499c.022.091.053.178.081.264l.03.076c.024.062.05.123.077.182l.036.076a3.4 3.4 0 0 0 .108.197l.022.037c.045.073.094.144.145.212l.058.073a2.1 2.1 0 0 0 .108.125l.077.084c.027.029.066.065.1.097.033.032.06.058.091.085a4.517 4.517 0 0 0 .243.189l.162.109.08.046c.054.03.108.059.162.085.024.012.048.025.072.035a3.188 3.188 0 0 0 .279.11c.066.023.132.043.2.061l.043.012c.078.019.158.035.24.048l.063.009c.082.012.162.02.247.025h.042c.077.003.154.002.232 0h.049a3.29 3.29 0 0 0 .257-.026l.053-.009c.09-.015.179-.032.267-.055l67.151-17.433c.111-.03.221-.066.328-.109.033-.013.065-.028.097-.042.073-.031.144-.064.216-.101l.102-.054c.067-.039.132-.081.196-.124l.084-.059a2.85 2.85 0 0 0 .233-.191l.02-.017c.082-.076.159-.157.231-.242.015-.017.029-.036.043-.054.054-.071.106-.143.155-.215Z" fill="#325D9C" style="mix-blend-mode:multiply" opacity=".2"/><path d="m92.266 10.808 22.25 86.376a3 3 0 0 1-.318 2.263 2.98 2.98 0 0 1-1.817 1.376l-67.147 17.434a2.973 2.973 0 0 1-3.625-2.143L19.355 29.738a3 3 0 0 1 1.091-3.134 2.97 2.97 0 0 1 1.046-.506L88.641 8.667a2.966 2.966 0 0 1 2.254.318 2.986 2.986 0 0 1 1.37 1.825v-.002Z" fill="#F70431"/><path d="m92.266 10.808.274 1.068-3.316 10.364-30.745 8.392-30.943 7.625-7.905-7.45-.276-1.07a2.996 2.996 0 0 1 1.091-3.133 2.97 2.97 0 0 1 1.046-.506L88.641 8.667a2.963 2.963 0 0 1 3.12 1.092 3 3 0 0 1 .505 1.049Zm22.124 85.88.128.498a2.992 2.992 0 0 1-2.135 3.639l-67.149 17.432a2.966 2.966 0 0 1-2.255-.318 2.987 2.987 0 0 1-1.37-1.825l-.128-.5 2.303-6.777a1.854 1.854 0 0 1 1.27-1.178l62.366-16.192a1.866 1.866 0 0 1 1.682.412l5.288 4.81Z" fill="#F70431"/><path d="M114.431 98.956a2.968 2.968 0 0 1-2.051 1.867l-67.146 17.434a2.972 2.972 0 0 1-2.693-.636l1.403-8.74a1.517 1.517 0 0 1 1.11-1.224l62.369-16.192a1.502 1.502 0 0 1 1.564.53l5.444 6.961ZM91.127 9.135 89.27 22.057a.914.914 0 0 1-.673.759L28.361 38.452a.907.907 0 0 1-.955-.334l-7.864-10.396a2.98 2.98 0 0 1 1.948-1.625l67.15-17.43a2.957 2.957 0 0 1 2.487.468Z" fill="#CF0328"/><path d="M62.147 50.538a2.82 2.82 0 0 1-1.727-.594 2.838 2.838 0 0 1-1.006-1.53L53.49 25.412a2.849 2.849 0 0 1 .303-2.145 2.83 2.83 0 0 1 1.722-1.306l1.371-.355a2.814 2.814 0 0 1 2.138.302 2.834 2.834 0 0 1 1.3 1.73l5.925 23a2.848 2.848 0 0 1-.303 2.145 2.83 2.83 0 0 1-1.722 1.306l-1.372.356c-.23.061-.467.092-.705.093ZM57.59 22.324c-.17 0-.339.022-.504.065l-1.37.356a2.023 2.023 0 0 0-1.23.933 2.037 2.037 0 0 0-.217 1.532l5.926 23.002c.135.519.468.963.929 1.236.46.272 1.01.35 1.527.216l1.37-.356a2.024 2.024 0 0 0 1.23-.934c.27-.461.35-1.012.217-1.531L59.543 23.84a2.014 2.014 0 0 0-1.952-1.517Z" fill="#444"/><path d="M59.836 27.887a3.966 3.966 0 0 0 0-5.593 3.93 3.93 0 0 0-5.572 0 3.966 3.966 0 0 0 0 5.593 3.93 3.93 0 0 0 5.572 0Zm3.001 23.619a3.948 3.948 0 0 0 3.94-3.956 3.948 3.948 0 0 0-3.94-3.955 3.948 3.948 0 0 0-3.94 3.956 3.948 3.948 0 0 0 3.94 3.955Z" fill="#fff"/><path d="m141.558 34.911-55.164-5.77a3.923 3.923 0 0 0-2.886.862 3.953 3.953 0 0 0-1.434 2.657l-9.014 86.82a3.963 3.963 0 0 0 .858 2.898 3.935 3.935 0 0 0 2.65 1.439l67.078 7.018a3.928 3.928 0 0 0 3.866-2.046c.246-.455.4-.955.454-1.471l7.77-74.863-14.178-17.545Z" fill="#325D9C" style="mix-blend-mode:multiply" opacity=".25"/><path d="M139.4 33.243 84.237 27.47a3.92 3.92 0 0 0-2.887.862 3.945 3.945 0 0 0-1.433 2.659l-9.015 86.822a3.958 3.958 0 0 0 2.04 3.881c.455.247.953.402 1.467.455l67.08 7.019a3.923 3.923 0 0 0 2.885-.861 3.957 3.957 0 0 0 1.435-2.657l7.77-74.862L139.4 33.243Z" fill="#fff"/><path d="M138.158 45.205a3.976 3.976 0 0 0 .857 2.897 3.946 3.946 0 0 0 2.647 1.44l11.916 1.245L139.4 33.243l-1.242 11.962Z" fill="#EDEDED"/><path d="m141.047 49.427 12.322 3.374.209-2.013-12.531-1.361Z" fill="#CECECE"/><path d="m132.654 51.905-33.731-3.53a1.666 1.666 0 0 1-1.118-.61 1.68 1.68 0 0 1-.364-1.223c.047-.44.265-.843.608-1.122.342-.278.78-.41 1.218-.365l33.734 3.53a1.677 1.677 0 0 1 1.48 1.833c-.047.44-.266.843-.608 1.122-.342.278-.781.41-1.219.365Z" fill="#F70431"/><path d="m142.501 64.326-55.768-5.835a1.666 1.666 0 0 1-1.118-.61 1.68 1.68 0 0 1-.364-1.223c.047-.44.266-.843.608-1.122a1.66 1.66 0 0 1 1.219-.365l55.767 5.835a1.674 1.674 0 0 1 1.481 1.834 1.673 1.673 0 0 1-1.825 1.486Zm-.878 8.452-55.768-5.836a1.666 1.666 0 0 1-1.117-.61 1.679 1.679 0 0 1-.364-1.223 1.673 1.673 0 0 1 1.827-1.487l55.767 5.835a1.668 1.668 0 0 1 1.481 1.833 1.673 1.673 0 0 1-1.826 1.488Zm-.877 8.451-55.769-5.835a1.666 1.666 0 0 1-1.117-.61 1.68 1.68 0 0 1-.364-1.223c.047-.44.266-.843.608-1.122.342-.278.78-.41 1.218-.365l55.769 5.835c.438.047.84.266 1.117.61.278.343.408.783.364 1.223a1.666 1.666 0 0 1-1.826 1.487Zm-.877 8.451L84.1 83.845a1.666 1.666 0 0 1-1.117-.61 1.68 1.68 0 0 1-.364-1.223 1.665 1.665 0 0 1 1.826-1.487l55.769 5.835c.438.047.839.267 1.117.61.277.344.408.783.364 1.223-.047.44-.266.843-.608 1.122-.342.278-.78.41-1.218.365Zm-.878 8.452-55.77-5.836a1.665 1.665 0 0 1-1.118-.61 1.677 1.677 0 0 1-.363-1.223 1.669 1.669 0 0 1 1.826-1.486l55.771 5.834a1.669 1.669 0 0 1-.346 3.32Zm-.878 8.451-55.768-5.832a1.667 1.667 0 0 1-1.117-.61 1.68 1.68 0 0 1-.364-1.223 1.667 1.667 0 0 1 1.827-1.488l55.767 5.836a1.669 1.669 0 0 1 .873 2.953c-.342.278-.78.409-1.218.364Zm-18.686 9.551c-.015-.27-.299-.433-.522-.252-.298.243-.606.483-.95.656l-.498.2c-.33.174-.514.036-.552-.415.299-.274-.108-.724-.418-.469-.385.315-.895.742-1.439.674a1.735 1.735 0 0 1-.501-.17c.113-.087.217-.186.311-.294.077-.091.054-.217.017-.317-.1-.277-.237-.461-.344-.654 1.295-1.297 2.406-2.974 2.922-4.612.1-.316-.262-.515-.506-.334-1.14.847-2.175 1.917-2.849 3.182-.237.447-.438.933-.354 1.451.011.052.024.104.041.155-.305.289-.628.559-.967.808-.46.33-.941.603-1.482.773-.386.12-.966.309-1.231-.069.875-.492 1.582-1.191 1.206-2.058-.567-1.308-1.921.665-1.991 1.767a7.194 7.194 0 0 1-1.332.455c-.391.096-.261.712.133.615.46-.117.909-.271 1.345-.461.742 1.314 3.091-.03 3.885-.627.236-.179.469-.374.701-.581.181.325.192.271-.257.574-.225.153-.221.468.044.578.488.204.99.517 1.533.455.168-.024.331-.072.485-.143a.306.306 0 0 0 .126.213c.86.566 1.951.098 2.779-.462a4.198 4.198 0 0 1-1.431 2.563c-1.185.975-2.704.739-4.093.466-.391-.077-.593.519-.2.596 1.515.298 3.135.551 4.473-.41 1.167-.842 1.991-2.403 1.916-3.853Zm-9.083-1.144c.486-.379.155.338-.015.513a2.202 2.202 0 0 1-.364.289c.012-.206.241-.696.378-.802h.001Zm4.083-.886c.117-.487.539-1.029.841-1.431.335-.446.709-.86 1.118-1.238a12.04 12.04 0 0 1-1.996 2.894c.007-.075.019-.15.035-.224l.002-.001Zm16.514 8.892a5.997 5.997 0 0 1-3.137-1.529 6.028 6.028 0 0 1-1.762-3.02 6.054 6.054 0 0 1 .206-3.494 6.02 6.02 0 0 1 2.106-2.79 5.99 5.99 0 0 1 8.983 2.356 6.042 6.042 0 0 1-1.928 7.399 5.998 5.998 0 0 1-4.468 1.078Zm1.679-10.622a4.69 4.69 0 0 0-2.708.375 4.736 4.736 0 0 0 .339 8.725 4.7 4.7 0 0 0 5.086-1.224 4.728 4.728 0 0 0 1.194-2.468 4.748 4.748 0 0 0-.842-3.516 4.71 4.71 0 0 0-3.069-1.892Z" fill="#E4ECF9"/><path d="m140.632 112.795-.041.006c-.483.08-.959.195-1.425.344l-.677.221-.647.259c-.85.347-1.674.755-2.464 1.223-.804.433-1.54.956-2.272 1.486-.409.3-.803.619-1.191.949a12.98 12.98 0 0 0-.683-.591c-.315-.278-.673-.525-1.021-.779a10.214 10.214 0 0 0-1.144-.69l-.037-.019a.087.087 0 0 0-.102.022.096.096 0 0 0-.021.051.082.082 0 0 0 .015.053 212.724 212.724 0 0 0 2.83 4.031.16.16 0 0 0 .223.035 216.94 216.94 0 0 0 4.386-3.192l2.18-1.615c.73-.533 1.44-1.094 2.161-1.639a.085.085 0 0 0 .032-.047.086.086 0 0 0-.004-.057.09.09 0 0 0-.038-.042.087.087 0 0 0-.055-.009h-.005Z" fill="#F70431"/><path d="M114.233 14.427c3.223 0 5.836-2.623 5.836-5.858 0-3.236-2.613-5.859-5.836-5.859-3.223 0-5.836 2.623-5.836 5.859 0 3.235 2.613 5.858 5.836 5.858Z" fill="#325D9C"/></g><defs><clipPath id="a"><path fill="#fff" d="M0 0h188v145H0z"/></clipPath></defs></svg>