<svg width="188" height="145" fill="none" xmlns="http://www.w3.org/2000/svg"><g clip-path="url(#a)"><path d="M168.172 132.092C180.506 118.073 188 99.63 188 79.418 188 35.558 152.725 0 109.209 0 65.694 0 30.42 35.557 30.42 79.418c0 20.212 7.496 38.655 19.83 52.674h117.922Z" fill="#F3F8FF"/><path d="M20.682 31.408c.502-2.072-.757-4.16-2.812-4.666-2.055-.506-4.128.763-4.63 2.834-.501 2.072.758 4.16 2.813 4.667 2.055.505 4.127-.764 4.63-2.835Z" fill="#C4D7F2"/><path d="m171.695 62.02-3.143-1.545a1.589 1.589 0 0 1-.709-.697 1.612 1.612 0 0 1-.16-.984l.873-5.56a3.371 3.371 0 0 0-.592-2.482 3.322 3.322 0 0 0-2.16-1.333l-55.895-8.912a3.607 3.607 0 0 0-2.705.656 3.666 3.666 0 0 0-1.453 2.39l-11.789 75.132a3.69 3.69 0 0 0 .65 2.726 3.644 3.644 0 0 0 2.373 1.465l55.895 8.91a3.279 3.279 0 0 0 2.463-.596 3.346 3.346 0 0 0 1.323-2.178l6.765-43.116a1.6 1.6 0 0 1 .445-.878c.237-.238.542-.394.872-.447l3.664-.577a2.832 2.832 0 0 0 1.574-.809c.425-.431.704-.989.794-1.59l2.476-16.578a2.884 2.884 0 0 0-.293-1.756 2.848 2.848 0 0 0-1.268-1.24Z" fill="#002E5D" style="mix-blend-mode:multiply" opacity=".18"/><path d="m167.53 75.323 1.522-16.694a2.882 2.882 0 0 0-.394-1.736 2.845 2.845 0 0 0-1.337-1.164l-3.227-1.36a1.586 1.586 0 0 1-.747-.655 1.609 1.609 0 0 1-.216-.973l.551-5.601a3.357 3.357 0 0 0-.733-2.444 3.31 3.31 0 0 0-2.233-1.206l-56.31-5.638a3.602 3.602 0 0 0-2.662.812c-.37.304-.676.68-.901 1.104a3.688 3.688 0 0 0-.413 1.367l-7.462 75.693a3.691 3.691 0 0 0 .805 2.683 3.626 3.626 0 0 0 2.453 1.324l56.313 5.64a3.296 3.296 0 0 0 2.424-.739 3.335 3.335 0 0 0 1.196-2.251l4.281-43.438a1.596 1.596 0 0 1 1.239-1.4l3.625-.79a2.832 2.832 0 0 0 1.525-.9c.4-.455.646-1.028.701-1.634Z" fill="#fff"/><path d="m130.429 53.783-24.646-2.468a1.333 1.333 0 0 1-1.147-.95 1.341 1.341 0 0 1-.05-.524l.235-2.389a1.35 1.35 0 0 1 .483-.909 1.33 1.33 0 0 1 .979-.298l24.645 2.468c.353.035.677.21.902.487.224.276.331.63.296.986l-.236 2.39a1.346 1.346 0 0 1-.942 1.156 1.326 1.326 0 0 1-.519.05Zm-7.384 35.783-21.493-2.15a.675.675 0 0 1-.598-.736l.134-1.364a.667.667 0 0 1 .731-.603l21.492 2.152a.667.667 0 0 1 .574.475c.025.085.034.173.025.261l-.134 1.364a.673.673 0 0 1-.731.6Zm29.69 8.239-43.842-4.39a.735.735 0 0 1-.501-.27.758.758 0 0 1-.163-.547l.12-1.217a.751.751 0 0 1 .522-.641.734.734 0 0 1 .288-.028l43.844 4.39a.737.737 0 0 1 .637.527.749.749 0 0 1 .027.29l-.119 1.217a.762.762 0 0 1-.268.505.739.739 0 0 1-.545.164Zm-.575 5.21-51.501-5.158a.798.798 0 0 1-.541-.292.812.812 0 0 1-.178-.592l.106-1.094a.8.8 0 0 1 .289-.546.806.806 0 0 1 .588-.179l51.502 5.157a.812.812 0 0 1 .542.292.83.83 0 0 1 .147.279c.03.101.041.208.03.313l-.105 1.095a.812.812 0 0 1-.567.694.803.803 0 0 1-.312.031Zm-.512 5.215-51.503-5.157a.812.812 0 0 1-.54-.292.82.82 0 0 1-.178-.593l.105-1.094a.815.815 0 0 1 .29-.546.808.808 0 0 1 .276-.148c.101-.031.207-.041.311-.031l51.503 5.157a.805.805 0 0 1 .718.885l-.105 1.094a.81.81 0 0 1-.29.545.797.797 0 0 1-.587.18Zm-.516 5.215-51.502-5.157a.81.81 0 0 1-.541-.292.81.81 0 0 1-.178-.593l.105-1.094a.802.802 0 0 1 .877-.725l51.503 5.158a.807.807 0 0 1 .718.884l-.105 1.094a.809.809 0 0 1-.29.546.795.795 0 0 1-.587.179Zm-.24 2.504-51.503-5.154a.803.803 0 0 0-.877.724l-.108 1.095a.806.806 0 0 0 .72.884l51.502 5.154a.803.803 0 0 0 .877-.724l.108-1.095a.806.806 0 0 0-.719-.884Z" fill="#F3F8FF"/><path d="m148.134 60.18-33.651-3.368a1.87 1.87 0 0 0-2.041 1.686l-1.914 19.434a1.877 1.877 0 0 0 1.672 2.057l33.651 3.368a1.87 1.87 0 0 0 2.042-1.686l1.914-19.434a1.877 1.877 0 0 0-1.673-2.057Z" fill="#F70431"/><path d="m146.041 62.797-.234-16.76a2.876 2.876 0 0 0-.572-1.685 2.842 2.842 0 0 0-1.452-1.017l-3.351-1.011a1.585 1.585 0 0 1-.812-.57 1.606 1.606 0 0 1-.317-.945l-.037-5.629a3.35 3.35 0 0 0-.987-2.35 3.295 3.295 0 0 0-2.345-.96l-56.589.383a3.62 3.62 0 0 0-2.563 1.09 3.679 3.679 0 0 0-1.047 2.598l.506 76.063a3.688 3.688 0 0 0 1.082 2.583 3.615 3.615 0 0 0 2.577 1.056l56.589-.383a3.3 3.3 0 0 0 3.044-2.08c.163-.406.246-.84.243-1.278l-.29-43.651a1.596 1.596 0 0 1 1.085-1.524l3.522-1.17a2.84 2.84 0 0 0 1.423-1.058 2.88 2.88 0 0 0 .525-1.702Z" fill="#002E5D" style="mix-blend-mode:multiply" opacity=".18"/><path d="m142.322 58.93-1.009-16.732a2.869 2.869 0 0 0-.65-1.656 2.834 2.834 0 0 0-1.497-.946l-3.394-.851a1.58 1.58 0 0 1-.838-.532 1.602 1.602 0 0 1-.359-.93l-.298-5.62a3.345 3.345 0 0 0-1.091-2.303 3.295 3.295 0 0 0-2.388-.851l-56.511 3.042a3.612 3.612 0 0 0-2.51 1.21 3.668 3.668 0 0 0-.926 2.643l4.02 75.955a3.685 3.685 0 0 0 1.2 2.53 3.634 3.634 0 0 0 2.623.933l56.51-3.038a3.272 3.272 0 0 0 1.252-.322 3.317 3.317 0 0 0 1.693-1.9c.144-.413.207-.852.183-1.289l-2.308-43.59c-.018-.336.071-.67.253-.953.182-.282.449-.5.761-.62l3.464-1.334a2.84 2.84 0 0 0 1.372-1.122 2.877 2.877 0 0 0 .448-1.723Z" fill="#fff"/><path d="m99.67 40.787-21.35 1.148a.774.774 0 0 1-.561-.2.787.787 0 0 1-.257-.54l-.112-2.114a.788.788 0 0 1 .198-.566.776.776 0 0 1 .537-.259l21.349-1.148a.77.77 0 0 1 .561.2.784.784 0 0 1 .257.541l.112 2.114a.78.78 0 0 1-.735.824Zm28.503 2.853L86.71 45.867a.775.775 0 0 0-.728.817l.112 2.128a.773.773 0 0 0 .811.735l41.462-2.227a.775.775 0 0 0 .729-.817l-.113-2.128a.773.773 0 0 0-.81-.735Zm.553 11.719-49.49 2.66a.837.837 0 0 1-.607-.216.85.85 0 0 1-.278-.585l-.105-1.987a.853.853 0 0 1 .477-.81.834.834 0 0 1 .317-.081l49.49-2.66a.839.839 0 0 1 .607.216c.166.15.265.36.277.585l.106 1.986a.85.85 0 0 1-.214.612.84.84 0 0 1-.58.28Zm.425 8.043-49.49 2.66a.837.837 0 0 1-.606-.216.85.85 0 0 1-.278-.585l-.105-1.987a.852.852 0 0 1 .214-.61.838.838 0 0 1 .58-.28l49.49-2.661a.832.832 0 0 1 .607.216.84.84 0 0 1 .278.585l.106 1.987a.867.867 0 0 1-.215.612.838.838 0 0 1-.581.28Zm.426 8.044-49.49 2.66a.837.837 0 0 1-.606-.216.85.85 0 0 1-.278-.585l-.106-1.986a.853.853 0 0 1 .477-.81.834.834 0 0 1 .318-.082l49.49-2.66a.839.839 0 0 1 .607.216c.165.15.265.361.277.585l.106 1.987a.855.855 0 0 1-.214.611.84.84 0 0 1-.581.28Zm.426 8.043-49.49 2.66a.837.837 0 0 1-.607-.216.85.85 0 0 1-.277-.585l-.106-1.987a.854.854 0 0 1 .477-.81.835.835 0 0 1 .318-.081l49.49-2.66a.833.833 0 0 1 .607.215.853.853 0 0 1 .277.586l.106 1.987a.852.852 0 0 1-.215.611.838.838 0 0 1-.58.28Zm.426 8.045-49.49 2.66a.837.837 0 0 1-.607-.216.85.85 0 0 1-.278-.585l-.105-1.987a.854.854 0 0 1 .477-.81.833.833 0 0 1 .318-.08l49.489-2.661a.846.846 0 0 1 .884.801l.106 1.987a.85.85 0 0 1-.214.611.84.84 0 0 1-.58.28Zm.426 8.044-49.49 2.66a.834.834 0 0 1-.804-.48.854.854 0 0 1-.08-.321l-.106-1.987a.85.85 0 0 1 .213-.61.838.838 0 0 1 .579-.281l49.49-2.66a.835.835 0 0 1 .606.216.85.85 0 0 1 .278.585l.105 1.986a.848.848 0 0 1-.791.891Zm.425 8.044-49.49 2.66a.837.837 0 0 1-.607-.216.85.85 0 0 1-.277-.585l-.106-1.987a.855.855 0 0 1 .215-.612.838.838 0 0 1 .58-.279l49.49-2.66a.849.849 0 0 1 .885.802l.105 1.985a.848.848 0 0 1-.795.892Z" fill="#F3F8FF"/><path d="m109.427 102.149-62.328 36.548a.306.306 0 0 1-.422-.114L.116 57.293a.313.313 0 0 1 .113-.425l62.328-36.549a3.52 3.52 0 0 1 2.689-.357 3.547 3.547 0 0 1 2.151 1.664l43.327 75.644a3.59 3.59 0 0 1-1.297 4.879Z" fill="#325D9C"/><path d="m116.752 106.193-8.634-42.778a1.61 1.61 0 0 1 .112-.98c.139-.306.371-.56.662-.726l3.232-1.833a2.85 2.85 0 0 0 1.194-1.314 2.884 2.884 0 0 0 .191-1.772l-3.436-16.402a2.868 2.868 0 0 0-.885-1.541 2.828 2.828 0 0 0-1.618-.715l-3.483-.34a1.58 1.58 0 0 1-1.397-1.268l-1.113-5.515a3.34 3.34 0 0 0-1.418-2.112 3.288 3.288 0 0 0-2.483-.485L42.22 39.78a3.634 3.634 0 0 0-2.305 1.568c-.532.81-.723 1.8-.531 2.752l15.043 74.538a3.681 3.681 0 0 0 1.556 2.325 3.601 3.601 0 0 0 2.73.535l55.457-11.372a3.31 3.31 0 0 0 2.099-1.429 3.356 3.356 0 0 0 .482-2.505Z" fill="#002E5D" style="mix-blend-mode:multiply" opacity=".18"/><path d="m112.656 106.511-7.736 2.118-46.873 12.832a3.594 3.594 0 0 1-2.76-.356 3.664 3.664 0 0 1-1.702-2.219l-19.78-73.404a3.69 3.69 0 0 1 .353-2.782 3.64 3.64 0 0 1 2.202-1.715l6.05-1.656 32.287-8.84 16.275-4.455a3.287 3.287 0 0 1 2.512.326 3.333 3.333 0 0 1 1.549 2.02l1.464 5.43a1.577 1.577 0 0 0 1.475 1.175l3.496.112c.603.02 1.184.234 1.658.61.475.376.818.894.981 1.48l4.477 16.144c.163.587.136 1.21-.077 1.78a2.856 2.856 0 0 1-1.107 1.387l-3.107 2.04a1.592 1.592 0 0 0-.663 1.753l11.349 42.124c.23.854.114 1.765-.321 2.532a3.322 3.322 0 0 1-2.002 1.564Z" fill="#fff"/><path d="m90.924 34.048-49.78 13.633a1.152 1.152 0 0 0-.802 1.413l.991 3.678a1.14 1.14 0 0 0 1.401.81l49.78-13.634c.608-.166.968-.799.802-1.412l-.991-3.679a1.14 1.14 0 0 0-1.401-.809Z" fill="#F70431"/><path d="m80.29 78.147-28.751 7.875a1.2 1.2 0 0 1-.915-.12 1.215 1.215 0 0 1-.563-.735l-7.282-27.014c-.083-.31-.04-.642.119-.921a1.2 1.2 0 0 1 .729-.568l28.75-7.875c.31-.084.638-.04.915.12s.48.424.564.735l7.28 27.014c.083.31.04.641-.118.92a1.21 1.21 0 0 1-.728.57Zm-5.195 8.259-22.447 6.147a.577.577 0 0 1-.709-.41l-.504-1.872a.583.583 0 0 1 .405-.715l22.447-6.145a.577.577 0 0 1 .71.409l.504 1.873a.586.586 0 0 1-.406.713Zm20.489-36.731L77.75 54.557a.7.7 0 0 1-.535-.07.709.709 0 0 1-.33-.43l-.438-1.626a.715.715 0 0 1 .069-.539.706.706 0 0 1 .427-.332l17.833-4.882a.698.698 0 0 1 .742.25.713.713 0 0 1 .122.249l.438 1.626a.716.716 0 0 1-.494.872Zm1.666 6.181-17.833 4.882a.7.7 0 0 1-.864-.499l-.438-1.626a.716.716 0 0 1 .249-.749.702.702 0 0 1 .246-.123l17.833-4.882a.7.7 0 0 1 .535.07.71.71 0 0 1 .33.429l.438 1.627a.716.716 0 0 1-.07.538.705.705 0 0 1-.426.333Zm1.667 6.181L81.084 66.92a.7.7 0 0 1-.865-.5l-.438-1.626a.716.716 0 0 1 .069-.539.706.706 0 0 1 .426-.332l17.833-4.883a.7.7 0 0 1 .535.07.71.71 0 0 1 .33.43l.438 1.626a.716.716 0 0 1-.25.748.702.702 0 0 1-.245.123Zm1.665 6.182L82.749 73.1a.699.699 0 0 1-.743-.25.713.713 0 0 1-.122-.25l-.439-1.625a.716.716 0 0 1 .07-.539.707.707 0 0 1 .425-.333l17.834-4.882a.707.707 0 0 1 .864.5l.438 1.626a.707.707 0 0 1-.494.871Zm4.254 16.381L54.508 98.38a.852.852 0 0 1-.906-.304.868.868 0 0 1-.15-.303l-.357-1.33a.87.87 0 0 1 .603-1.064l50.328-13.78a.853.853 0 0 1 1.056.608l.358 1.33a.873.873 0 0 1-.303.913.854.854 0 0 1-.301.15Zm1.591 5.902-50.329 13.78a.84.84 0 0 1-.653-.082.87.87 0 0 1-.402-.525l-.358-1.33a.876.876 0 0 1 .303-.914.851.851 0 0 1 .3-.15l50.328-13.78a.853.853 0 0 1 1.056.607l.357 1.33a.868.868 0 0 1-.602 1.064Zm1.589 5.9-50.327 13.78a.86.86 0 0 1-.907-.305.866.866 0 0 1-.15-.303l-.357-1.33a.871.871 0 0 1 .303-.913.855.855 0 0 1 .3-.151l50.328-13.78a.852.852 0 0 1 .907.305.88.88 0 0 1 .149.302l.358 1.33a.867.867 0 0 1-.604 1.064Zm-7.541 8.803-31.863 8.725a.474.474 0 0 1-.365-.047.492.492 0 0 1-.225-.294.488.488 0 0 1 .338-.595l31.862-8.726a.473.473 0 0 1 .366.047.483.483 0 0 1 .178.663.486.486 0 0 1-.291.227Z" fill="#F3F8FF"/><path d="m104.92 108.629-46.873 12.832a3.595 3.595 0 0 1-2.76-.356 3.664 3.664 0 0 1-1.702-2.219l-19.78-73.404a3.68 3.68 0 0 1 .456-2.952l8.15-3.201 32.285-8.84 2.801 7.242 2.217 5.73 2.568 6.637 1.126 2.912 1.195 3.09 1.127 2.91 1.195 3.092 1.125 2.91 1.197 3.092 1.125 2.91L95.38 83.97l1.126 2.91 1.09 2.82 1.126 2.909 1.09 2.82 1.125 2.91 3.983 10.29Z" fill="#002E5D" style="mix-blend-mode:multiply" opacity=".18"/><path d="m101.681 114.607-63.285 28.477a.301.301 0 0 1-.238.006.304.304 0 0 1-.171-.166L.027 57.214a.315.315 0 0 1 .158-.413l63.288-28.477a3.518 3.518 0 0 1 2.711-.074 3.556 3.556 0 0 1 1.97 1.88l35.323 79.759a3.585 3.585 0 0 1 .072 2.734 3.562 3.562 0 0 1-1.868 1.984Z" fill="#325D9C"/><path d="M60.895 67.212 33.58 79.508a1.299 1.299 0 0 1-1 .028 1.312 1.312 0 0 1-.728-.694L25.4 64.278a1.328 1.328 0 0 1-.027-1.009c.124-.327.372-.59.688-.733L53.376 50.24a1.3 1.3 0 0 1 1.73.666l6.453 14.565a1.326 1.326 0 0 1-.663 1.741Z" fill="#F9F8F7"/><path d="M29.088 66.234a.281.281 0 0 1-.275-.224.285.285 0 0 1 .16-.319l24.79-11.16a.28.28 0 0 1 .372.144.286.286 0 0 1-.142.376L29.203 66.21a.285.285 0 0 1-.115.024Zm1.995 4.504a.28.28 0 0 1-.275-.225.286.286 0 0 1 .16-.319l24.79-11.158a.278.278 0 0 1 .316.046.285.285 0 0 1-.087.472l-24.79 11.16a.286.286 0 0 1-.114.024Zm1.995 4.503a.281.281 0 0 1-.269-.225.287.287 0 0 1 .154-.316l24.79-11.159a.28.28 0 0 1 .372.144.286.286 0 0 1-.142.375l-24.79 11.156a.277.277 0 0 1-.115.025Z" fill="#192942"/><path d="M103.209 132.892h-2.996V145h2.996v-12.108Z" fill="#9FB8D6"/><path d="M100.213 132.892H79.649V145h20.564v-12.108Z" fill="#fff"/><path d="M92.28 137.947h-4.697a.878.878 0 0 1-.624-.261.896.896 0 0 1 0-1.258.886.886 0 0 1 .624-.261h4.698a.893.893 0 0 1 .624 1.519.886.886 0 0 1-.624.261Z" fill="#325D9C"/><path d="M100.213 129.443H78.928v4.317h21.285v-4.317Z" fill="#BBD1DC"/><path d="M103.872 129.443h-3.659v4.317h3.659v-4.317Z" fill="#A3B7C1"/><path opacity=".5" d="m79.65 133.76 20.563 2.083v-2.083H79.649Z" fill="#9FB8D6"/><path d="M93.874 139.137H85.99v3.894h7.885v-3.894Z" fill="#C4D7F2"/><path d="M92.39 126.588H80.327v2.894H92.39v-2.894Z" fill="#D7E3F4"/><path d="M99.365 127.103v1.864h.388v.514H92.39v-2.893h7.363v.515h-.388Z" fill="#87A7C6"/><path d="M99.364 127.103h-6.406v1.864h6.406v-1.864Z" fill="#D7E3F4"/><path d="M99.364 127.103h-6.406v.463h6.406v-.463Z" fill="#9FB8D6"/><path d="M87.162 127.238H81.2v1.593h5.962v-1.593Zm1.228 0h-.716v1.593h.717v-1.593Zm1.577 1.593c.436 0 .79-.356.79-.796a.794.794 0 0 0-.79-.797.794.794 0 0 0-.79.797c0 .44.353.796.79.796Z" fill="#fff"/><path d="M89.967 128.554a.517.517 0 0 0 .514-.519.517.517 0 0 0-.514-.519.517.517 0 0 0-.515.519c0 .286.23.519.515.519Z" fill="#87A7C6"/><path d="M95.093 114.771H78.606v5.127h20.087v-5.127h-3.6Zm.6 5.127H79.206v3.816h20.217v-3.816h-3.73Z" fill="#fff"/><path d="M95.093 114.771v5.127h-8.73l9.273 1.541v2.275h3.786v-3.816h-.729v-5.127h-3.6Z" fill="#9FB8D6"/><path d="M92.986 123.714H81.003v2.874h11.983v-2.874Z" fill="#F70431"/><path d="M99.914 124.225v1.852h.386v.511h-7.314v-2.874h7.314v.511h-.386Z" fill="#F70431"/><path d="M99.914 124.225H93.55v1.852h6.364v-1.852Z" fill="#D7E3F4"/><path d="M99.914 124.225H93.55v.46h6.364v-.46Z" fill="#9FB8D6"/><path d="M87.793 124.36h-5.922v1.583h5.922v-1.583Zm1.221 0h-.712v1.583h.712v-1.583Zm2.326.967a.792.792 0 0 0-.583-.952.785.785 0 0 0-.945.589.784.784 0 1 0 1.528.363Z" fill="#fff"/><path d="M90.579 125.667a.514.514 0 0 0 .511-.516.513.513 0 0 0-.511-.515.513.513 0 0 0-.512.515c0 .285.23.516.512.516Z" fill="#F70431"/><path d="m78.928 129.443 21.285 1.586v-1.586H78.928Z" fill="#A3B7C1"/><path d="m184.519 77.523-7.342 9.781c-.724.963-2.024 1.09-2.884.3l-20.568-18.863c-.399-.365-.329-1.173.15-1.809l4.858-6.472c.479-.639 1.232-.925 1.689-.639l23.601 14.826c.985.618 1.219 1.915.496 2.876Z" fill="#2D4351"/><path d="m151.689 60.353-5.593 7.449 5.954 4.542 5.593-7.449-5.954-4.542Z" fill="#435E6D"/><path d="m157.282 52.903-5.594 7.449 5.955 4.542 5.593-7.449-5.954-4.542Z" fill="#2D4351"/><path d="M132.273 72.798a27.245 27.245 0 0 1-19.011-7.74 27.677 27.677 0 0 1-8.337-18.88 27.708 27.708 0 0 1 7.018-19.418 27.278 27.278 0 0 1 18.433-9.05 27.217 27.217 0 0 1 19.494 6.4 27.642 27.642 0 0 1 9.609 18.257 27.731 27.731 0 0 1-5.674 19.86 27.314 27.314 0 0 1-17.77 10.308 27.217 27.217 0 0 1-3.762.263Zm.082-51.144a23.78 23.78 0 0 0-3.279.229c-6.228.87-11.748 4.132-15.542 9.186-3.795 5.054-5.409 11.295-4.547 17.573.863 6.279 4.099 11.843 9.113 15.668a23.306 23.306 0 0 0 14.176 4.797 23.46 23.46 0 0 0 18.8-9.401c3.794-5.055 5.409-11.296 4.546-17.574-.862-6.278-4.098-11.842-9.113-15.667-4.13-3.151-9.06-4.81-14.154-4.81Z" fill="#2D4351"/></g><defs><clipPath id="a"><path fill="#fff" d="M0 0h188v145H0z"/></clipPath></defs></svg>