<svg width="150" height="150" fill="none" xmlns="http://www.w3.org/2000/svg"><g clip-path="url(#a)"><path d="M149.998 65.682 12.284 39.387 0 103.721l137.714 26.295 12.284-64.334Z" fill="#F3F8FF"/><path d="M83.999 133.713c27.116 0 49.098-21.983 49.098-49.099 0-27.116-21.982-49.099-49.098-49.099S34.9 57.499 34.9 84.614c0 27.116 21.983 49.099 49.099 49.099Z" fill="#D6E7FF"/><path d="M133.21 84.614h-.225c0-27.01-21.975-48.986-48.986-48.986v-.225a49.171 49.171 0 0 1 49.211 49.211Z" fill="#002E5D"/><path d="M83.999 113.159c15.765 0 28.545-12.78 28.545-28.545 0-15.765-12.78-28.545-28.545-28.545-15.765 0-28.545 12.78-28.545 28.545 0 15.765 12.78 28.545 28.545 28.545Z" fill="#fff"/><path d="m143.85 23.207-28.693-11.973a3.057 3.057 0 0 0-3.993 1.642l-7.092 16.995a3.056 3.056 0 0 0 1.642 3.991l12.274 5.122-18.629 44.648a2.242 2.242 0 0 0 1.207 2.935l11.169 4.662a2.246 2.246 0 1 0 1.728-4.147l-9.097-3.794 2.998-7.194 6.388 2.662a2.246 2.246 0 1 0 1.728-4.147l-6.379-2.662 13.034-31.235 12.276 5.122a3.054 3.054 0 0 0 3.993-1.642l7.093-16.995a3.061 3.061 0 0 0-1.647-3.99Zm-9.04 17.932-26.043-10.863 5.987-14.346 26.043 10.872-5.987 14.337Z" fill="#C9DAF4"/><path d="M52.152 126.672H39.534a.846.846 0 0 0-.846.846v2.799c0 .467.378.846.846.846h12.618a.846.846 0 0 0 .847-.846v-2.799a.846.846 0 0 0-.847-.846Z" fill="#002E5D"/><path d="M94.164 61.243H36.506a3.886 3.886 0 0 0-3.885 3.885v57.658a3.886 3.886 0 0 0 3.885 3.886h57.658a3.886 3.886 0 0 0 3.886-3.886V65.128a3.886 3.886 0 0 0-3.886-3.885Z" fill="#325D9C"/><path d="M92.214 119.926V67.99a.911.911 0 0 0-.911-.911H39.367a.911.911 0 0 0-.912.91v51.937c0 .503.408.911.912.911h51.936a.911.911 0 0 0 .911-.911Z" fill="#002E5D"/><path d="M92.326 102.662h-.224V67.989a.798.798 0 0 0-.798-.798H68.787v-.225h22.517a1.024 1.024 0 0 1 1.022 1.024v34.672Z" fill="#fff"/><path d="M92.526 129.714h-16.29v2.161h16.29v-2.161Z" fill="#FFC15A"/><path d="M92.525 129.714h-6.443v2.161h6.443v-2.161Z" fill="#AF6215" style="mix-blend-mode:multiply" opacity=".25"/><path d="M92.526 129.218h-16.29v.495h16.29v-.495Z" fill="#FFD469"/><path d="M92.526 131.875h-16.29v.494h16.29v-.494Z" fill="#DD872A"/><path opacity=".4" d="M83.622 129.218h-3.9v3.151h3.9v-3.151Z" fill="#fff"/><path d="M92.526 132.481h-16.29a.113.113 0 0 1-.112-.112v-1a.113.113 0 0 1 .112-.112.112.112 0 0 1 .113.112v.889h16.064v-2.337a.11.11 0 0 1 .032-.079.112.112 0 0 1 .159 0 .11.11 0 0 1 .033.079v2.449a.113.113 0 0 1-.111.111Z" fill="#002E5D"/><path d="M93.344 126.562h-16.29v2.161h16.29v-2.161Z" fill="#FFC15A"/><path d="M93.344 126.562h-6.442v2.161h6.442v-2.161Z" fill="#AF6215" style="mix-blend-mode:multiply" opacity=".25"/><path d="M93.344 126.068h-16.29v.494h16.29v-.494Z" fill="#FFD469"/><path d="M93.344 128.723h-16.29v.495h16.29v-.495Z" fill="#DD872A"/><path opacity=".4" d="M84.442 126.068h-3.9v3.15h3.9v-3.15Z" fill="#fff"/><path d="M93.344 129.33h-16.29a.111.111 0 0 1-.111-.112v-1.001a.112.112 0 0 1 .191-.079c.021.021.033.05.033.079v.889h16.065v-2.332a.112.112 0 0 1 .224 0v2.449a.111.111 0 0 1-.112.107Z" fill="#002E5D"/><path d="M91.607 123.412h-16.29v2.162h16.29v-2.162Z" fill="#FFC15A"/><path d="M91.607 123.412h-6.442v2.16h6.442v-2.16Z" fill="#AF6215" style="mix-blend-mode:multiply" opacity=".25"/><path d="M91.607 122.917h-16.29v.495h16.29v-.495Z" fill="#FFD469"/><path d="M91.607 125.574h-16.29v.494h16.29v-.494Z" fill="#DD872A"/><path opacity=".4" d="M82.704 122.917h-3.9v3.151h3.9v-3.151Z" fill="#fff"/><path d="M91.607 126.18h-16.29a.112.112 0 0 1-.112-.112v-1.002a.112.112 0 0 1 .224 0v.89h16.066v-2.337a.11.11 0 0 1 .032-.079.112.112 0 0 1 .192.079v2.449a.112.112 0 0 1-.112.112Z" fill="#002E5D"/><path d="M93.47 120.261H77.18v2.161h16.29v-2.161Z" fill="#FFC15A"/><path d="M93.468 120.261h-6.442v2.161h6.442v-2.161Z" fill="#AF6215" style="mix-blend-mode:multiply" opacity=".25"/><path d="M93.47 119.766H77.18v.495h16.29v-.495Z" fill="#FFD469"/><path d="M93.47 122.422H77.18v.494h16.29v-.494Z" fill="#DD872A"/><path opacity=".4" d="M84.566 119.766h-3.9v3.15h3.9v-3.15Z" fill="#fff"/><path d="M93.466 123.029H77.18a.112.112 0 0 1-.08-.032.113.113 0 0 1-.032-.08v-1.002a.113.113 0 0 1 .112-.112.112.112 0 0 1 .112.112v.889h16.062v-2.337a.113.113 0 0 1 .112-.112.112.112 0 0 1 .112.112v2.45a.111.111 0 0 1-.112.112Z" fill="#002E5D"/><path d="M92.585 117.111H76.297v2.16h16.288v-2.16Z" fill="#FFC15A"/><path d="M92.585 117.111h-6.442v2.16h6.442v-2.16Z" fill="#AF6215" style="mix-blend-mode:multiply" opacity=".25"/><path d="M92.585 116.616H76.297v.495h16.288v-.495Z" fill="#FFD469"/><path d="M92.585 119.271H76.297v.495h16.288v-.495Z" fill="#DD872A"/><path opacity=".4" d="M83.683 116.615h-3.9v3.151h3.9v-3.151Z" fill="#fff"/><path d="M92.585 119.878H76.297a.112.112 0 0 1-.112-.112v-1.001a.112.112 0 0 1 .224 0v.889h16.064v-2.337a.112.112 0 0 1 .224 0v2.449a.113.113 0 0 1-.112.112Z" fill="#002E5D"/><path d="M94.76 113.959H78.47v2.161h16.29v-2.161Z" fill="#FFC15A"/><path d="M94.758 113.959h-6.442v2.161h6.442v-2.161Z" fill="#AF6215" style="mix-blend-mode:multiply" opacity=".25"/><path d="M94.76 113.465H78.47v.494h16.29v-.494Z" fill="#FFD469"/><path d="M94.76 116.12H78.47v.495h16.29v-.495Z" fill="#DD872A"/><path opacity=".4" d="M85.856 113.465h-3.9v3.15h3.9v-3.15Z" fill="#fff"/><path d="M94.758 116.728H78.47a.111.111 0 0 1-.112-.112v-1a.112.112 0 1 1 .224 0v.888h16.064v-2.338a.113.113 0 0 1 .112-.112.112.112 0 0 1 .112.112v2.449a.11.11 0 0 1-.008.044.112.112 0 0 1-.024.036.107.107 0 0 1-.08.033Z" fill="#002E5D"/><path d="M92.712 110.809h-16.29v2.162h16.29v-2.162Z" fill="#FFC15A"/><path d="M92.71 110.809h-6.44v2.16h6.442v-2.16Z" fill="#AF6215" style="mix-blend-mode:multiply" opacity=".25"/><path d="M92.712 110.314h-16.29v.495h16.29v-.495Z" fill="#FFD469"/><path d="M92.712 112.971h-16.29v.494h16.29v-.494Z" fill="#DD872A"/><path opacity=".4" d="M83.808 110.314h-3.9v3.151h3.9v-3.151Z" fill="#fff"/><path d="M92.71 113.577H76.424a.112.112 0 0 1-.112-.112v-1.002a.11.11 0 0 1 .032-.079.112.112 0 0 1 .192.079v.89H92.6v-2.338a.11.11 0 0 1 .032-.079.112.112 0 0 1 .192.079v2.45a.112.112 0 0 1-.112.112Z" fill="#002E5D"/><path d="M104.792 131.639H88.504v2.161h16.288v-2.161Z" fill="#FFC15A"/><path d="M104.793 131.639H98.35v2.161h6.443v-2.161Z" fill="#AF6215" style="mix-blend-mode:multiply" opacity=".25"/><path d="M104.792 131.145H88.504v.495h16.288v-.495Z" fill="#FFD469"/><path d="M104.792 133.8H88.504v.495h16.288v-.495Z" fill="#DD872A"/><path opacity=".4" d="M95.89 131.145h-3.9v3.15h3.9v-3.15Z" fill="#fff"/><path d="M104.793 134.407H88.504a.111.111 0 0 1-.112-.112v-1.002a.112.112 0 0 1 .192-.079c.02.021.032.05.032.079v.89h16.064v-2.336a.114.114 0 0 1 .113-.113.113.113 0 0 1 .112.113v2.448c0 .03-.012.059-.033.08a.112.112 0 0 1-.079.032Z" fill="#002E5D"/><path d="M105.611 128.489H89.323v2.16h16.288v-2.16Z" fill="#FFC15A"/><path d="M105.611 128.489h-6.442v2.16h6.442v-2.16Z" fill="#AF6215" style="mix-blend-mode:multiply" opacity=".25"/><path d="M105.611 127.993H89.323v.496h16.288v-.496Z" fill="#FFD469"/><path d="M105.611 130.65H89.323v.495h16.288v-.495Z" fill="#DD872A"/><path opacity=".4" d="M96.709 127.993h-3.9v3.151h3.9v-3.151Z" fill="#fff"/><path d="M105.612 131.257H89.319a.112.112 0 0 1-.112-.112v-1.002a.112.112 0 0 1 .224 0v.89H105.5v-2.338c0-.03.012-.058.033-.079a.111.111 0 0 1 .158 0 .111.111 0 0 1 .033.079v2.45c0 .03-.012.058-.033.079a.111.111 0 0 1-.079.033Z" fill="#002E5D"/><path d="M103.874 125.338H87.585v2.161h16.289v-2.161Z" fill="#FFC15A"/><path d="M103.874 125.338h-6.443v2.161h6.443v-2.161Z" fill="#AF6215" style="mix-blend-mode:multiply" opacity=".25"/><path d="M103.874 124.843H87.585v.495h16.289v-.495Z" fill="#FFD469"/><path d="M103.874 127.499H87.585v.495h16.289v-.495Z" fill="#DD872A"/><path opacity=".4" d="M94.971 124.843h-3.9v3.15h3.9v-3.15Z" fill="#fff"/><path d="M103.875 128.106h-16.29a.111.111 0 0 1-.112-.112v-.996a.112.112 0 0 1 .224 0v.889h16.066v-2.346a.11.11 0 0 1 .112-.112.113.113 0 0 1 .112.112v2.45a.11.11 0 0 1-.008.044.091.091 0 0 1-.024.037.108.108 0 0 1-.037.026.122.122 0 0 1-.043.008Z" fill="#002E5D"/><path d="M105.736 122.188H89.448v2.161h16.288v-2.161Z" fill="#FFC15A"/><path d="M105.736 122.188h-6.442v2.161h6.442v-2.161Z" fill="#AF6215" style="mix-blend-mode:multiply" opacity=".25"/><path d="M105.736 121.692H89.448v.496h16.288v-.496Z" fill="#FFD469"/><path d="M105.736 124.349H89.448v.495h16.288v-.495Z" fill="#DD872A"/><path opacity=".4" d="M96.834 121.692h-3.9v3.151h3.9v-3.151Z" fill="#fff"/><path d="M105.736 124.955H89.448a.112.112 0 0 1-.112-.112v-1.001a.112.112 0 0 1 .224 0v.889h16.064v-2.337a.113.113 0 0 1 .112-.112c.03 0 .058.012.079.033a.107.107 0 0 1 .033.079v2.449c0 .03-.011.058-.033.079a.111.111 0 0 1-.079.033Z" fill="#002E5D"/><path d="M82.954 132.369h-6.717v-3.151h.818v-3.15h-1.736v-3.151h1.861v-3.151h-.883v-3.15h2.173v-3.151h-2.047v-3.151h4.784l.04.495.17 2.162.08.988.17 2.161.039.496.04.495.17 2.16.04.495.039.495.17 2.161.04.495.04.495.171 2.162.038.494.04.494.171 2.161.04.495.039.496.171 2.161.04.494Z" fill="#AF6215" style="mix-blend-mode:multiply" opacity=".4"/><path d="M79.772 59.213V128.7c0 .618-.299 1.05-.683 1.029h-6.256V58.183h6.256c.384-.02.683.412.683 1.03Z" fill="#325D9C"/><path d="M73.446 59.213v69.488c0 .672-.355 1.12-.785 1.008l-33.76-8.756c-.247-.064-.449-.524-.449-1.027V67.989c0-.502.199-.963.449-1.026L72.656 58.2c.434-.112.789.342.789 1.014Z" fill="#C9DAF4"/><path d="M79.773 87.447v41.256c0 .617-.3 1.049-.684 1.029h-6.256a.522.522 0 0 1-.176-.015L38.9 120.953c-.247-.064-.449-.524-.449-1.027v-9.764l34.38-22.317.614-.398h6.327Z" fill="#325D9C" style="mix-blend-mode:multiply" opacity=".25"/><path d="M54.318 102.662c2.649 0 4.797-3.897 4.797-8.704s-2.148-8.704-4.797-8.704c-2.65 0-4.797 3.897-4.797 8.704s2.147 8.704 4.797 8.704Z" fill="#002E5D"/><path d="M54.222 88.857h-3.13v10.2h3.13c1.553 0 2.81-2.284 2.81-5.1 0-2.817-1.257-5.1-2.81-5.1Z" fill="#C9DAF4"/><path d="M51.092 99.057c1.553 0 2.811-2.283 2.811-5.1 0-2.816-1.258-5.099-2.81-5.099-1.553 0-2.812 2.283-2.812 5.1 0 2.816 1.259 5.1 2.811 5.1Z" fill="#325D9C"/><path d="M38.568 96.894h-.225V67.99c0-.569.224-1.057.53-1.135l33.755-8.763a.595.595 0 0 1 .534.112c.248.19.396.57.396 1.009v21.205h-.224V59.213c0-.373-.112-.685-.309-.834a.38.38 0 0 0-.336-.072l-33.76 8.764c-.17.044-.361.432-.361.918v28.905Z" fill="#002E5D"/><path d="M40.108 76.22a1.652 1.652 0 1 0-3.304 0v8.397a1.652 1.652 0 1 0 3.303 0V76.22Zm0 27.077a1.652 1.652 0 0 0-3.304 0v8.398a1.652 1.652 0 0 0 3.303 0v-8.398Zm-7.376-24.845h-.224v43.24h.224v-43.24Z" fill="#002E5D"/><path d="M79.433 46.192a1.931 1.931 0 1 0-3.759-.887 1.931 1.931 0 0 0 3.759.887Zm63.832 72.043a4.02 4.02 0 1 0-5.685-5.683 4.02 4.02 0 0 0 5.685 5.683Z" fill="#C9DAF4"/><path d="M123.621 136.089H97.087a.113.113 0 0 1 0-.225h26.534a.114.114 0 0 1 .113.112.114.114 0 0 1-.113.113Zm-15.999 2.123h-55.95a.111.111 0 0 1-.079-.191.112.112 0 0 1 .08-.033h55.949c.03 0 .059.012.08.033.021.021.032.05.032.079 0 .03-.011.059-.032.08a.113.113 0 0 1-.08.032Z" fill="#002E5D"/></g><defs><clipPath id="a"><path fill="#fff" d="M0 0h150v150H0z"/></clipPath></defs></svg>