<svg width="150" height="150" fill="none" xmlns="http://www.w3.org/2000/svg"><path d="m150 51.682-11.932 83.724-102.06-14.533-5.08-.724-15.425-2.195-8.742-1.246L0 115.745l11.93-83.722L150 51.682Z" fill="#F3F8FF"/><path d="m54.676 30.575-3.814 2.886a1.331 1.331 0 0 0-.258 1.865l5.476 7.233c.445.587 1.28.702 1.867.259l3.814-2.886c.587-.444.702-1.28.258-1.866l-5.476-7.233a1.333 1.333 0 0 0-1.867-.258Z" fill="#454E54"/><path d="m54.245 26.576-7.116 5.383a1.196 1.196 0 0 0-.232 1.677l2.318 3.06c.398.528 1.15.632 1.677.233l7.116-5.384c.527-.398.63-1.15.232-1.676l-2.318-3.061a1.198 1.198 0 0 0-1.677-.232Zm34.171-7.756h-4.783c-.736 0-1.333.595-1.333 1.331v9.071c0 .736.597 1.332 1.333 1.332h4.783c.736 0 1.332-.596 1.332-1.332v-9.071c0-.736-.596-1.332-1.332-1.332Z" fill="#454E54"/><path d="M90.487 15.37h-8.925c-.661 0-1.197.536-1.197 1.197v3.84c0 .66.536 1.196 1.197 1.196h8.925c.66 0 1.197-.536 1.197-1.197v-3.839c0-.66-.536-1.196-1.197-1.196Z" fill="#454E54"/><path d="M86.024 124.288c26.714 0 48.369-21.646 48.369-48.348 0-26.702-21.655-48.348-48.369-48.348-26.713 0-48.369 21.646-48.369 48.348 0 26.702 21.656 48.348 48.37 48.348Z" fill="#C9DAF4"/><path d="M86.024 113.074c20.517 0 37.15-16.625 37.15-37.134 0-20.508-16.633-37.133-37.15-37.133s-37.15 16.625-37.15 37.133c0 20.509 16.633 37.134 37.15 37.134Z" fill="#fff"/><path d="M53.597 100.285a.11.11 0 0 1-.089-.045c-5.287-7.056-8.078-15.46-8.078-24.303a40.553 40.553 0 0 1 6.218-21.61 40.577 40.577 0 0 1 16.778-14.979 40.597 40.597 0 0 1 42.951 4.893.116.116 0 0 1 .041.075.114.114 0 0 1-.024.081.112.112 0 0 1-.156.017c-7.222-5.779-15.94-8.834-25.212-8.834-22.267.003-40.377 18.107-40.377 40.357 0 8.793 2.78 17.15 8.037 24.167a.114.114 0 0 1-.022.156.116.116 0 0 1-.067.025Z" fill="#002E5D"/><path d="M51.883 110.3a.124.124 0 0 1-.043-.008.126.126 0 0 1-.036-.024 48.495 48.495 0 0 1-10.673-52.652.112.112 0 0 1 .103-.076.11.11 0 0 1 .082.034.111.111 0 0 1 .02.125 47.961 47.961 0 0 0-3.57 18.238c0 12.918 5.041 25.053 14.191 34.17a.11.11 0 0 1-.078.19l.004.003Zm49.986 11.446a.112.112 0 0 1-.11-.093.109.109 0 0 1 .014-.075.116.116 0 0 1 .06-.049c19.413-6.722 32.449-25.044 32.449-45.589a.111.111 0 0 1 .186-.072c.02.019.033.045.036.072 0 10.275-3.175 20.095-9.184 28.387a48.598 48.598 0 0 1-23.414 17.414.114.114 0 0 1-.037.005Zm15.186-82.783a.107.107 0 0 1-.071-.026 48.364 48.364 0 0 0-44.97-9.17.111.111 0 1 1-.064-.212 48.444 48.444 0 0 1 45.176 9.212.112.112 0 0 1 .04.075.114.114 0 0 1-.064.111.11.11 0 0 1-.047.01Z" fill="#002E5D"/><path d="M86.024 26.883a10.45 10.45 0 0 1-9.65-6.446 10.438 10.438 0 0 1 7.612-14.236 10.45 10.45 0 0 1 10.724 4.44 10.438 10.438 0 0 1 1.76 5.8 10.45 10.45 0 0 1-3.063 7.38 10.46 10.46 0 0 1-7.383 3.062Zm0-19.552a9.117 9.117 0 0 0-8.421 5.623 9.107 9.107 0 0 0 1.975 9.93 9.115 9.115 0 0 0 15.56-6.443 9.119 9.119 0 0 0-9.114-9.11Z" fill="#454E54"/><path d="M86.024 47.402a.986.986 0 0 1-.985-.985v-4.168a.985.985 0 1 1 1.97 0v4.167a.983.983 0 0 1-.985.986Z" fill="#325D9C"/><path d="M119.733 76.926a.985.985 0 1 0 0-1.97h-4.171a.986.986 0 0 0 0 1.97h4.171Zm-13.52 19.194a.987.987 0 0 1 1.394 0l2.95 2.949a.97.97 0 0 1 .289.697.98.98 0 0 1-.609.91.972.972 0 0 1-.754 0 .975.975 0 0 1-.32-.213l-2.95-2.949a.996.996 0 0 1-.214-1.074c.05-.12.123-.228.214-.32Zm-20.189 8.359a.985.985 0 0 1 .986.986v4.169a.987.987 0 0 1-1.683.697.987.987 0 0 1-.288-.697v-4.169a.985.985 0 0 1 .985-.986ZM65.835 96.12a.985.985 0 0 1 0 1.394l-2.95 2.951a.988.988 0 0 1-1.606-.32.987.987 0 0 1 .213-1.074l2.95-2.948a.986.986 0 0 1 1.393-.002Zm-8.362-20.183a.985.985 0 0 1-.986.985h-4.172a.986.986 0 1 1 0-1.97h4.171a.988.988 0 0 1 .987.985Zm8.362-20.177a.983.983 0 0 1-1.394 0l-2.949-2.948a.987.987 0 1 1 1.395-1.394l2.948 2.947a.986.986 0 0 1 0 1.396Z" fill="#C9DAF4"/><path d="M86.724 92.63 64.339 70.257l9.422-9.418 12.963 12.957 45.109-45.089 9.422 9.418L86.724 92.63Z" fill="#325D9C"/><path d="M86.326 89.048a.11.11 0 0 1-.085-.04l-20.486-24.12a.116.116 0 0 1-.025-.082.112.112 0 0 1 .04-.075l10.156-8.62a.11.11 0 0 1 .123-.015.113.113 0 0 1 .034.027l11.792 13.883 48.544-41.2a.113.113 0 0 1 .157.013l8.625 10.153a.112.112 0 0 1 .025.08.111.111 0 0 1-.038.077l-24.236 20.569a.113.113 0 0 1-.083.03.117.117 0 0 1-.044-.01.12.12 0 0 1-.035-.028.12.12 0 0 1-.022-.04c-.004-.014-.005-.03-.004-.045a.127.127 0 0 1 .014-.043.12.12 0 0 1 .03-.033L144.96 39.03l-8.481-9.981-48.545 41.198a.11.11 0 0 1-.08.026.11.11 0 0 1-.076-.04L75.984 56.352l-9.987 8.477L86.343 88.78l8.376-7.113a.11.11 0 0 1 .178.095.11.11 0 0 1-.034.075l-8.465 7.184a.11.11 0 0 1-.072.027Z" fill="#002E5D"/><path d="M107.601 110.3a.115.115 0 0 1-.099-.052.112.112 0 0 1-.015-.041.104.104 0 0 1 .019-.082.114.114 0 0 1 .032-.03c11.81-7.449 18.86-20.217 18.86-34.158a40.14 40.14 0 0 0-6.898-22.563.112.112 0 0 1 .185-.125 40.61 40.61 0 0 1 1.723 42.59 40.869 40.869 0 0 1-13.752 14.443.106.106 0 0 1-.055.018Z" fill="#002E5D"/><path d="m69.836 100.725 10.824-.551-2.204 4.007 2.404 6.311-11.024-.451v-9.316Z" fill="#F70431"/><path d="m82.828 139.871-29.529-4.204a2.296 2.296 0 0 1-1.947-2.593l2.9-20.342a2.293 2.293 0 0 1 2.593-1.945l29.528 4.205a2.291 2.291 0 0 1 1.947 2.591l-2.899 20.342a2.293 2.293 0 0 1-2.594 1.946Z" fill="#325D9C"/><path d="M85.78 137.622c-.058 0-.117 0-.177-.007l-15.775-1.158a.117.117 0 0 1-.071-.04.112.112 0 0 1 .01-.153.113.113 0 0 1 .077-.029l15.775 1.158a2.183 2.183 0 0 0 2.336-2.015l1.505-20.489a2.182 2.182 0 0 0-2.016-2.334l-14.333-1.058a.11.11 0 0 1-.103-.075.115.115 0 0 1 .006-.088.122.122 0 0 1 .029-.035.142.142 0 0 1 .04-.021.113.113 0 0 1 .045-.003l14.333 1.052a2.4 2.4 0 0 1 2.106 1.643c.1.299.139.615.115.93l-1.505 20.489a2.406 2.406 0 0 1-2.396 2.233Zm-31.558-11.131h-.008a.108.108 0 0 1-.073-.04.11.11 0 0 1-.026-.079l1.03-14.005a2.404 2.404 0 0 1 2.573-2.221l8.896.653a.116.116 0 0 1 .073.04.115.115 0 0 1 .025.08.11.11 0 0 1-.04.073.106.106 0 0 1-.079.025l-8.896-.653a2.186 2.186 0 0 0-2.335 2.014l-1.029 14.007a.112.112 0 0 1-.111.106Z" fill="#002E5D"/><path d="M74.78 130.27a6.987 6.987 0 0 0 0-9.883 6.993 6.993 0 0 0-9.887 0 6.987 6.987 0 0 0 0 9.883 6.993 6.993 0 0 0 9.886 0Z" fill="#fff"/><path d="M69.836 125.44a.112.112 0 0 1-.111-.111v-25.155c0-.03.012-.058.032-.079a.11.11 0 0 1 .08-.032.11.11 0 0 1 .11.111v25.155a.113.113 0 0 1-.11.111Zm-2.95 14.704H18.034a.11.11 0 0 1-.111-.111c0-.029.011-.058.032-.079a.116.116 0 0 1 .079-.032h48.852c.03 0 .058.012.079.032.02.021.032.05.032.079 0 .03-.012.058-.032.079a.11.11 0 0 1-.08.032Zm58.759 2.972H32.75a.101.101 0 0 1-.046-.005.12.12 0 0 1-.04-.023.118.118 0 0 1-.027-.037.108.108 0 0 1 0-.09.111.111 0 0 1 .067-.061.101.101 0 0 1 .046-.005h92.895a.102.102 0 0 1 .046.005.123.123 0 0 1 .04.023.113.113 0 0 1 .036.083.12.12 0 0 1-.009.045.122.122 0 0 1-.027.037.123.123 0 0 1-.04.023c-.015.005-.03.007-.046.005Z" fill="#002E5D"/><path d="M145.697 119.373a6.562 6.562 0 0 0-5.428-7.528 6.562 6.562 0 1 0-2.103 12.953 6.563 6.563 0 0 0 7.531-5.425ZM68.833 15.829a2.003 2.003 0 1 0-3.898-.92 2.003 2.003 0 0 0 3.898.92Zm-53.191 87.957a2.003 2.003 0 1 0-3.898-.92 2.003 2.003 0 0 0 3.898.92Z" fill="#C9DAF4"/><path d="M142.263 120.842a.327.327 0 0 1-.177-.052l-6.102-3.857a.33.33 0 0 1 .104-.606.334.334 0 0 1 .252.043l6.102 3.857a.33.33 0 0 1 .133.164.331.331 0 0 1-.312.451Z" fill="#fff"/><path d="M137.283 121.963a.33.33 0 0 1-.292-.173.331.331 0 0 1 .011-.338l3.859-6.1a.337.337 0 0 1 .466-.114.35.35 0 0 1 .096.092.344.344 0 0 1 .052.255.342.342 0 0 1-.051.123l-3.855 6.1a.331.331 0 0 1-.286.155Z" fill="#fff"/></svg>