<svg width="150" height="150" fill="none" xmlns="http://www.w3.org/2000/svg"><g clip-path="url(#a)"><path d="m149.87 108.896-13.878 2.199-12.028 1.904L8.907 131.223 0 92.588l135.529-41.562 14.341 57.87ZM50.964 40.585l2.33-3.75-4.405-5.525-4.176 1.433-4.872-2.69-1.004-4.296-7.023-.792-1.938 3.963-5.35 1.541-3.75-2.33-5.526 4.406 1.433 4.175-2.686 4.875L9.7 42.6l-.8 7.023 3.968 1.935 1.542 5.35-2.33 3.75 4.406 5.525 4.175-1.433 4.872 2.692 1.005 4.297 7.022.791 1.943-3.968 5.35-1.54 3.75 2.33 5.525-4.406-1.438-4.175 2.693-4.873 4.297-1.004.797-7.023-3.968-1.936-1.546-5.35ZM35.217 57.521a9.131 9.131 0 1 1-5.055-17.549 9.131 9.131 0 0 1 5.055 17.549Z" fill="#F3F8FF"/><path d="M31.45 69.888h-.015l-7.021-.791a.129.129 0 0 1-.112-.103l-.991-4.243-4.773-2.638-4.12 1.419a.129.129 0 0 1-.143-.041l-4.407-5.525a.13.13 0 0 1-.008-.15l2.3-3.7-1.509-5.236-3.917-1.913a.129.129 0 0 1-.071-.131l.79-7.023a.13.13 0 0 1 .103-.112l4.244-.991 2.634-4.768-1.418-4.123a.13.13 0 0 1 .041-.144l5.525-4.406a.13.13 0 0 1 .149-.009l3.702 2.3 5.24-1.509 1.91-3.916a.13.13 0 0 1 .13-.073l7.023.792a.13.13 0 0 1 .112.102l1.004 4.297a.13.13 0 0 1-.05.135.13.13 0 0 1-.181-.029.127.127 0 0 1-.021-.046l-.983-4.217-6.843-.766-1.897 3.888a.127.127 0 0 1-.08.068l-5.35 1.54a.13.13 0 0 1-.102-.014l-3.672-2.282-5.383 4.293 1.408 4.092a.133.133 0 0 1-.01.103l-2.693 4.872a.124.124 0 0 1-.083.063l-4.21.985-.772 6.84 3.888 1.895a.133.133 0 0 1 .067.081l1.54 5.344a.127.127 0 0 1-.015.102l-2.28 3.677 4.296 5.383 4.093-1.407a.128.128 0 0 1 .102.008l4.873 2.693a.13.13 0 0 1 .063.084l.984 4.211 6.84.77 1.896-3.888a.133.133 0 0 1 .08-.067l5.343-1.539a.13.13 0 0 1 .102.014l3.672 2.282 5.383-4.297-1.408-4.093a.133.133 0 0 1 .01-.102l2.693-4.873a.13.13 0 0 1 .078-.061.129.129 0 0 1 .149.186l-2.666 4.823 1.42 4.12a.132.132 0 0 1-.043.144l-5.527 4.415a.128.128 0 0 1-.148.008l-3.699-2.3-5.24 1.508-1.91 3.917a.133.133 0 0 1-.116.072Zm-.872-14.651a9.262 9.262 0 0 1-2.567-18.161.13.13 0 0 1 .072.25A9.004 9.004 0 1 0 36.13 53.06a.13.13 0 0 1 .205.067.129.129 0 0 1-.012.099.13.13 0 0 1-.033.038 9.295 9.295 0 0 1-5.712 1.973v-.001Z" fill="#002E5D"/><path d="M104.37 10.13h-6.036v124.797h6.036a3.615 3.615 0 0 0 2.566-1.062 3.623 3.623 0 0 0 1.062-2.566V13.758a3.617 3.617 0 0 0-1.062-2.566 3.63 3.63 0 0 0-2.566-1.062Z" fill="#454E54"/><path d="M100.681 10.13h-55.57a3.628 3.628 0 0 0-3.63 3.628v117.546a3.629 3.629 0 0 0 3.63 3.629h55.57a3.628 3.628 0 0 0 3.628-3.629V13.758a3.628 3.628 0 0 0-3.628-3.628Z" fill="#C9DAF4"/><path d="M99.24 128.203V16.859a1.66 1.66 0 0 0-1.661-1.66H48.21a1.66 1.66 0 0 0-1.66 1.66v111.344a1.66 1.66 0 0 0 1.66 1.661h49.37a1.66 1.66 0 0 0 1.66-1.661Z" fill="#fff"/><path d="M97.806 135.062h-35.72a.137.137 0 0 1-.099-.034.126.126 0 0 1-.031-.044.128.128 0 0 1 0-.104.126.126 0 0 1 .077-.071.12.12 0 0 1 .053-.006h35.72a3.504 3.504 0 0 0 3.499-3.5V13.758a3.503 3.503 0 0 0-3.5-3.5H42.237a3.503 3.503 0 0 0-3.5 3.5v89.105a.129.129 0 0 1-.076.13.134.134 0 0 1-.053.011.134.134 0 0 1-.096-.042.129.129 0 0 1-.034-.099V13.758A3.764 3.764 0 0 1 42.237 10h55.57a3.765 3.765 0 0 1 3.758 3.758v117.545a3.766 3.766 0 0 1-3.758 3.759Zm-48.98 0h-6.59a3.765 3.765 0 0 1-3.758-3.759v-17.059a.13.13 0 0 1 .217-.084.13.13 0 0 1 .042.084v17.059a3.504 3.504 0 0 0 3.499 3.5h6.59a.12.12 0 0 1 .053.006.126.126 0 0 1 .077.071.128.128 0 0 1 0 .105.132.132 0 0 1-.13.077Z" fill="#002E5D"/><path d="M19.477 140.309h-4.268l9.105-31.413h4.269l-9.106 31.413Zm22.954 0h-4.267l9.105-31.413h4.269l-9.107 31.413Z" fill="#454E54"/><path d="M36.963 140.309h-5.036l-6.96-30.9h5.035l6.96 30.9Zm22.495 0H54.42l-6.96-30.9h5.035l6.962 30.9Z" fill="#fff"/><path d="M51.373 125.371h4.72l.787 3.5-5.507-3.5Zm-22.494 0h4.718l.79 3.5-5.508-3.5Zm-3.274-13.829h4.72l.788 3.5-5.508-3.5Zm22.652 0h4.72l.789 3.5-5.509-3.5Z" fill="#C9DAF4"/><path d="M36.963 140.439h-5.04a.127.127 0 0 1-.092-.038.129.129 0 0 1-.038-.092.13.13 0 0 1 .038-.092.131.131 0 0 1 .091-.038h4.875l-6.898-30.641h-4.771l4.66 20.691a.129.129 0 0 1-.097.156.136.136 0 0 1-.1-.019.144.144 0 0 1-.036-.036.14.14 0 0 1-.02-.048l-4.696-20.85a.129.129 0 0 1 .026-.109.129.129 0 0 1 .102-.048h5.036a.132.132 0 0 1 .127.102l6.957 30.9a.128.128 0 0 1-.025.109.125.125 0 0 1-.044.038.135.135 0 0 1-.055.015Zm22.495 0H54.42a.126.126 0 0 1-.081-.029.125.125 0 0 1-.045-.073l-6.958-30.899a.134.134 0 0 1 .026-.11.14.14 0 0 1 .046-.036.138.138 0 0 1 .056-.012H52.5a.128.128 0 0 1 .127.102l6.958 30.9a.129.129 0 0 1-.026.109.139.139 0 0 1-.044.036.134.134 0 0 1-.056.013l-.002-.001Zm-4.933-.26h4.77l-6.902-30.641h-4.771l6.903 30.641Z" fill="#002E5D"/><path d="m61.846 106.25 1.193 5.292H15.384l-1.192-5.292h47.654Zm3.115 13.828 1.192 5.293H18.5l-1.192-5.293H64.96Z" fill="#fff"/><path d="m21.124 107.275-1.108 4.267h6.517l1.108-4.267h-6.517Zm13.829 0-1.109 4.267h6.517l1.108-4.267h-6.516Zm13.828 0-1.108 4.267h6.517l1.108-4.267H48.78Zm-24.104 13.572-1.174 4.524h6.516l1.175-4.524h-6.517Zm13.83 0-1.176 4.524h6.517l1.175-4.524h-6.517Zm13.829 0-1.176 4.524h6.516l1.176-4.524h-6.516Z" fill="#325D9C"/><path d="M63.039 111.672H15.385a.133.133 0 0 1-.081-.028.13.13 0 0 1-.046-.074l-.331-1.472a.133.133 0 0 1 .012-.104.127.127 0 0 1 .035-.039.125.125 0 0 1 .048-.022.119.119 0 0 1 .053-.001.126.126 0 0 1 .086.058.14.14 0 0 1 .019.05l.307 1.372h47.39l-1.134-5.031H30.81a.12.12 0 0 1-.053-.006.126.126 0 0 1-.077-.071.128.128 0 0 1 0-.104.126.126 0 0 1 .077-.071c.017-.006.035-.008.053-.006h31.038c.03 0 .058.01.08.028a.131.131 0 0 1 .046.074l1.193 5.292a.129.129 0 0 1-.071.144.134.134 0 0 1-.056.011Zm3.115 13.828H18.5a.126.126 0 0 1-.081-.029.126.126 0 0 1-.045-.073l-1.193-5.293a.134.134 0 0 1 0-.058.126.126 0 0 1 .025-.051.119.119 0 0 1 .046-.036.125.125 0 0 1 .057-.013h16.636a.137.137 0 0 1 .1.034.132.132 0 0 1 .03.043.134.134 0 0 1 0 .105.126.126 0 0 1-.077.071c-.017.006-.035.008-.053.006H17.472l1.134 5.033h47.388l-1.134-5.033H42.161a.13.13 0 0 1-.084-.217.13.13 0 0 1 .084-.042h22.8c.03 0 .059.011.082.029a.133.133 0 0 1 .045.074l1.192 5.293a.122.122 0 0 1-.026.109.137.137 0 0 1-.044.036.133.133 0 0 1-.056.012Zm83.716 9.562h-38.157a.139.139 0 0 1-.099-.034.131.131 0 0 1-.042-.096.131.131 0 0 1 .088-.123c.017-.006.036-.008.053-.006h38.157a.12.12 0 0 1 .053.006.133.133 0 0 1 .078.071.131.131 0 0 1 0 .105.134.134 0 0 1-.131.077Zm-45.617 5.377H5.062a.127.127 0 0 1-.092-.038.129.129 0 0 1 0-.183.128.128 0 0 1 .092-.039h99.191c.034 0 .067.014.091.039a.126.126 0 0 1 0 .183.125.125 0 0 1-.091.038Z" fill="#002E5D"/><path d="M92.953 140.358H75.564l.402-1.502 1.291-4.832.75-2.8.61-2.285.682-2.548.612-2.285 1.451-5.43h5.793l1.336 4.996 1.102 4.123 1.253 4.688 1.103 4.123 1.004 3.752Z" fill="#fff"/><path d="m89.593 127.795-11.586 3.429.61-2.285.682-2.548 9.192-2.719 1.102 4.123Zm2.357 8.811-9.14 2.706.61-2.285.681-2.548 6.745-1.996 1.103 4.123Z" fill="#F3F8FF"/><path d="m87.391 126.341-8.774 2.598 1.293-4.833 6.378-1.887 1.103 4.122Zm2.263 8.464-13.688 4.051 1.291-4.832 11.294-3.342 1.103 4.123Z" fill="#F70431"/><path d="M92.953 140.487H75.559a.116.116 0 0 1-.057-.013.12.12 0 0 1-.046-.037.125.125 0 0 1-.023-.112l5.806-21.682a.125.125 0 0 1 .046-.069.126.126 0 0 1 .079-.027h5.793c.028 0 .056.009.08.026a.13.13 0 0 1 .046.07l5.797 21.682a.127.127 0 0 1-.022.112.128.128 0 0 1-.103.05h-.002Zm-17.22-.259h17.051l-5.73-21.422h-5.593l-5.729 21.422Z" fill="#002E5D"/><path d="M79.909 124.237a.134.134 0 0 1-.083-.033.13.13 0 0 1-.023-.167.127.127 0 0 1 .07-.054l5.868-1.743a.13.13 0 0 1 .144.185.127.127 0 0 1-.07.064l-5.873 1.739a.195.195 0 0 1-.033.009Zm-1.292 4.831a.127.127 0 0 1-.087-.03.127.127 0 0 1-.045-.08.131.131 0 0 1 .02-.091.131.131 0 0 1 .076-.053l5.005-1.48a.13.13 0 0 1 .073.248l-5.005 1.481a.153.153 0 0 1-.037.005Zm-1.359 5.087a.13.13 0 0 1-.084-.033.128.128 0 0 1-.024-.166.134.134 0 0 1 .07-.055l9.935-2.94a.122.122 0 0 1 .05-.005.13.13 0 0 1 .11.092.127.127 0 0 1-.01.098.134.134 0 0 1-.032.039.144.144 0 0 1-.045.023l-9.933 2.942a.153.153 0 0 1-.037.005Zm-1.293 4.83a.123.123 0 0 1-.083-.033.128.128 0 0 1-.023-.166.128.128 0 0 1 .07-.054l8.743-2.587a.142.142 0 0 1 .05-.005.136.136 0 0 1 .049.015.12.12 0 0 1 .038.033.127.127 0 0 1 .014.142.128.128 0 0 1-.077.063l-8.744 2.587a.092.092 0 0 1-.037.005Zm42.619-89.016a2.545 2.545 0 0 1-1.809-.748.132.132 0 0 1-.031-.09.13.13 0 0 1 .214-.094 2.298 2.298 0 0 0 1.626.672c.035 0 .068.013.092.038a.128.128 0 0 1 .039.092.143.143 0 0 1-.009.05.142.142 0 0 1-.029.042.126.126 0 0 1-.093.038Zm1.718-.717a.13.13 0 0 1-.05-.01.134.134 0 0 1-.079-.12c0-.017.003-.034.01-.05a.121.121 0 0 1 .028-.042 2.295 2.295 0 0 0 .674-1.626.137.137 0 0 1 .13-.136.127.127 0 0 1 .119.077c.006.015.01.032.01.048v.01a2.553 2.553 0 0 1-.749 1.81.131.131 0 0 1-.089.042l-.004-.003Zm-4.153-1.717a.124.124 0 0 1-.049-.008.14.14 0 0 1-.043-.028.135.135 0 0 1-.028-.041.138.138 0 0 1-.01-.05 2.543 2.543 0 0 1 .746-1.806.129.129 0 0 1 .182 0 .13.13 0 0 1 .039.09.13.13 0 0 1-.038.092 2.294 2.294 0 0 0-.67 1.625.131.131 0 0 1-.125.13l-.004-.004Zm4.146-1.729a.133.133 0 0 1-.05-.01.132.132 0 0 1-.041-.027 2.305 2.305 0 0 0-1.623-.669.133.133 0 0 1-.133-.13c0-.016.003-.033.009-.048a.12.12 0 0 1 .027-.042.124.124 0 0 1 .09-.038h.007a2.547 2.547 0 0 1 1.805.743.13.13 0 0 1 .029.142.128.128 0 0 1-.12.08Zm25.442 75.432a2.547 2.547 0 0 1-1.811-.747.126.126 0 0 1-.042-.093c0-.017.003-.035.009-.051a.142.142 0 0 1 .029-.043.125.125 0 0 1 .094-.038c.017 0 .034.004.05.011a.128.128 0 0 1 .043.03c.213.214.466.383.745.498.279.116.578.175.879.174a.13.13 0 0 1 .122.179.12.12 0 0 1-.028.042.142.142 0 0 1-.041.028.143.143 0 0 1-.049.01Zm1.717-.716a.14.14 0 0 1-.071-.023.128.128 0 0 1-.054-.132.127.127 0 0 1 .034-.066 2.296 2.296 0 0 0 .674-1.628c0-.035.013-.069.037-.094a.136.136 0 0 1 .142-.032.122.122 0 0 1 .041.027.11.11 0 0 1 .029.041.132.132 0 0 1 .009.048v.01a2.537 2.537 0 0 1-.748 1.811.15.15 0 0 1-.042.029.127.127 0 0 1-.051.012v-.003Zm-4.153-1.717a.141.141 0 0 1-.049-.009.147.147 0 0 1-.042-.028.142.142 0 0 1-.028-.041.137.137 0 0 1-.009-.049 2.535 2.535 0 0 1 .744-1.811.134.134 0 0 1 .094-.047.16.16 0 0 1 .053.009.117.117 0 0 1 .044.029.143.143 0 0 1 .03.044.16.16 0 0 1 .009.053.137.137 0 0 1-.013.052.146.146 0 0 1-.032.042 2.272 2.272 0 0 0-.671 1.624.115.115 0 0 1-.009.051.12.12 0 0 1-.027.043.14.14 0 0 1-.043.03.145.145 0 0 1-.051.011v-.003Zm4.146-1.728a.134.134 0 0 1-.091-.038 2.275 2.275 0 0 0-1.623-.668.136.136 0 0 1-.093-.038.14.14 0 0 1-.04-.092.133.133 0 0 1 .036-.091.125.125 0 0 1 .09-.038h.007a2.554 2.554 0 0 1 1.806.743.146.146 0 0 1 .029.041c.006.016.01.033.01.05a.144.144 0 0 1-.01.05.15.15 0 0 1-.07.072.146.146 0 0 1-.051.012v-.003ZM20.018 98.81a2.544 2.544 0 0 1-1.81-.748.13.13 0 1 1 .182-.183 2.29 2.29 0 0 0 1.626.672.13.13 0 0 1 .118.13.13.13 0 0 1-.118.129h.002Zm1.719-.716a.13.13 0 0 1-.092-.221 2.29 2.29 0 0 0 .673-1.62.135.135 0 0 1 .13-.136.125.125 0 0 1 .13.125v.01a2.545 2.545 0 0 1-.75 1.81.129.129 0 0 1-.091.032Zm-4.154-1.717a.128.128 0 0 1-.12-.078.127.127 0 0 1-.009-.049 2.547 2.547 0 0 1 .745-1.81.128.128 0 0 1 .093-.047.131.131 0 0 1 .127.082.13.13 0 0 1-.036.146 2.294 2.294 0 0 0-.67 1.631.132.132 0 0 1-.13.128v-.003Zm4.147-1.73a.13.13 0 0 1-.092-.037 2.288 2.288 0 0 0-1.622-.668.134.134 0 0 1-.134-.13.126.126 0 0 1 .077-.119.127.127 0 0 1 .049-.01h.008a2.546 2.546 0 0 1 1.805.744.13.13 0 0 1 .028.141.13.13 0 0 1-.028.042.125.125 0 0 1-.091.04v-.002Z" fill="#002E5D"/><path d="M40.21 88.57V54.573l.259-.361v34.385l-.259-.027Z" fill="#B50223"/><path d="M96.943 88.783a7.196 7.196 0 0 1-4.285.64l-50.989-8.36c-5.174-.849-6.871-7.078-3.058-11.212L57.464 49.41l.75-.819 4.621-5.013.752-.819 12.624-13.675c3.813-4.135 10.28-3.076 11.638 1.907l10.49 38.47 1.915 7.02.989 3.63c.963 3.533-1.15 7.157-4.3 8.672Z" fill="#F3F8FF"/><path d="M92.992 85.4a6.817 6.817 0 0 1-4.165.898l-52.314-5.14c-5.307-.521-8.059-6.597-4.954-10.927l15.348-21.428.614-.853 3.76-5.252.615-.854 10.273-14.348c3.104-4.335 9.739-3.683 11.94 1.174l17 37.501 3.101 6.84 1.605 3.54c1.559 3.433.065 7.156-2.823 8.85Z" fill="#F70431"/><path d="M65.493 74.644a3.655 3.655 0 1 0-.04-7.31 3.655 3.655 0 0 0 .04 7.31Zm3.091-9.452-4.178-.692c-.566-.095-.989-.512-.94-.934l2.617-22.388a1.35 1.35 0 0 1 1.577-1.169l5.746.953a1.351 1.351 0 0 1 1.118 1.615l-4.745 22.035c-.094.415-.629.673-1.195.58Z" fill="#B50223"/><path d="M64.283 73.69a3.655 3.655 0 1 0-.526-7.291 3.655 3.655 0 0 0 .526 7.29Zm2.448-9.625-4.216-.41c-.571-.056-1.023-.445-.999-.868l1.126-22.51a1.35 1.35 0 0 1 1.498-1.27l5.796.562a1.35 1.35 0 0 1 1.221 1.535l-3.274 22.305c-.065.418-.582.716-1.152.656Z" fill="#454E54"/></g><defs><clipPath id="a"><path fill="#fff" d="M0 0h150v150H0z"/></clipPath></defs></svg>