<svg width="150" height="150" fill="none" xmlns="http://www.w3.org/2000/svg"><g clip-path="url(#a)"><path d="M145.147 38.505 150 103.283 8.118 119.517V67.766l137.029-29.261Z" fill="#F3F8FF"/><path d="m90.38 18.383-26.517 2.054.843 10.887 26.518-2.055-.843-10.886Z" fill="#C9DAF4"/><path d="m86.638 27.08-4.407-6.393a6.67 6.67 0 1 0-9.963.771l-3.374 6.995a.233.233 0 1 0 .42.204l3.444-7.151v-.01a.208.208 0 0 0 .008-.025.168.168 0 0 0 .006-.02v-.023a.162.162 0 0 0 0-.045v-.022c0-.008-.004-.015-.006-.022l-.007-.02c0-.008-.006-.015-.01-.022l-.01-.02a.164.164 0 0 0-.03-.036l-.008-.008a6.199 6.199 0 1 1 9.047-.701.051.051 0 0 0-.005.01l-.014.02a.174.174 0 0 0-.01.02c0 .007-.006.014-.008.021a.226.226 0 0 0-.007.022v.111l.007.022c0 .007.006.013.008.02a.207.207 0 0 0 .013.022l.005.01 4.5 6.531a.234.234 0 0 0 .321.06.234.234 0 0 0 .08-.322Z" fill="#C9DAF4"/><path d="m115.041 125.004-74.798-2.529c7.316-31.545 9.344-63.938 6-95.847l74.798 2.528c3.344 31.906 1.316 64.303-6 95.848Z" fill="#C9DAF4"/><path d="M108.755 120.389h-74.84a292.781 292.781 0 0 0 9.673-43.753 277.336 277.336 0 0 0 2.713-34.63c.077-5.103.01-10.192-.203-15.266h74.84c1.301 30.994-2.817 62.65-12.183 93.649Z" fill="#fff"/><path d="M40.318 95.424h-.023a.108.108 0 0 1-.08-.128c.949-4.54 1.797-9.149 2.522-13.7a.108.108 0 0 1 .215.035 287.038 287.038 0 0 1-2.526 13.709.107.107 0 0 1-.108.084Zm68.437 25.074H77.544a.11.11 0 0 1-.077-.031.11.11 0 0 1 0-.154.11.11 0 0 1 .077-.032h31.131c9.356-31.002 13.448-62.439 12.159-93.44H93.833a.108.108 0 0 1-.109-.064.108.108 0 0 1 .026-.123.108.108 0 0 1 .083-.029h27.105a.11.11 0 0 1 .109.104c.647 15.433-.057 31.195-2.089 46.847-2.033 15.652-5.434 31.412-10.096 46.843a.107.107 0 0 1-.107.079ZM46.247 31.294a.107.107 0 0 1-.108-.106 274.105 274.105 0 0 0-.15-4.45.11.11 0 0 1 .03-.08.11.11 0 0 1 .08-.033h12.153a.108.108 0 0 1 .07.181.108.108 0 0 1-.07.035H46.211c.059 1.439.108 2.899.144 4.339a.108.108 0 0 1-.105.11l-.003.005Z" fill="#002E5D"/><path d="m71.628 73.874-27.646 5.352c-.14-.863-.27-1.726-.394-2.59a277.337 277.337 0 0 0 2.713-34.63c6.633.06 13.266.119 19.9.177a117.875 117.875 0 0 0 5.427 31.691Z" fill="#C9DAF4"/><path d="M68.778 72.867 40.76 75.678a136.185 136.185 0 0 1 2.52-37.177l22.98 2.306a117.868 117.868 0 0 0 2.518 32.059Z" fill="#fff"/><path d="M65.281 41.782a127.668 127.668 0 0 0-.2 6.67 499.364 499.364 0 0 0-23.034 4.581c.424-4.446 1.06-8.858 1.905-13.239l21.33 1.988Zm-23.294 11.92a516.884 516.884 0 0 1 23.095-4.666c0 .482 0 .728.011 1.213a504.382 504.382 0 0 0-23.22 4.839c.041-.555.069-.832.114-1.386Zm23.138-1.909c.037 1.183.087 2.364.152 3.545A521.312 521.312 0 0 0 41.55 60.91a157.4 157.4 0 0 1 .197-4.06 527.496 527.496 0 0 1 23.378-5.058ZM41.497 67.627a554.258 554.258 0 0 1 24.265-6.447c.403 3.61.966 7.195 1.687 10.754L41.781 74.35c-.146-2.24-.24-4.481-.284-6.724Z" fill="#F3F8FF"/><path d="M40.651 58.207h-.007a.108.108 0 0 1-.101-.115 139.108 139.108 0 0 1 2.633-19.61.108.108 0 0 1 .116-.085l22.98 2.305a.108.108 0 0 1 .097.114 124 124 0 0 0-.178 10.02.11.11 0 0 1-.148.103.108.108 0 0 1-.07-.1c-.074-3.297-.016-6.638.174-9.932l-22.78-2.285a139.016 139.016 0 0 0-2.608 19.484.108.108 0 0 1-.108.101Zm.11 17.583a.11.11 0 0 1-.108-.1c-.173-2.483-.284-5-.33-7.487a.109.109 0 0 1 .108-.108.108.108 0 0 1 .109.108 147.2 147.2 0 0 0 .321 7.363l22.226-2.237a.108.108 0 0 1 .114.14.106.106 0 0 1-.052.064.106.106 0 0 1-.04.012l-22.337 2.244h-.01Z" fill="#002E5D"/><path d="m55.842 48.029-10.285-.516a.107.107 0 0 1-.096-.072.11.11 0 0 1-.006-.042.105.105 0 0 1 .114-.102l10.284.515a.109.109 0 0 1-.006.217h-.005Zm6.611 5.965-17.502-.266a.111.111 0 0 1-.077-.033.11.11 0 0 1-.03-.077.112.112 0 0 1 .11-.107l17.502.267a.108.108 0 0 1 .07.18.108.108 0 0 1-.07.036h-.003Zm-17.811 5.969a.108.108 0 1 1 0-.217l18.103-.343a.11.11 0 0 1 .111.107.109.109 0 0 1-.107.11l-18.103.343h-.004Zm-.011 6.243a.109.109 0 0 1-.006-.216l18.676-.978a.106.106 0 0 1 .078.027.106.106 0 0 1 .035.076.108.108 0 0 1-.102.114l-18.675.977h-.006Z" fill="#002E5D"/><path d="m55.875 38.673-2.529 4.424-.893-5.326 3.422.902Z" fill="#454E54"/><path d="M56.636 38.613c.227-.881-.763-1.898-2.21-2.271-1.449-.374-2.807.038-3.034.92-.227.88.763 1.897 2.21 2.27 1.449.374 2.807-.038 3.034-.92Z" fill="#454E54"/><path d="m73.68 106.313 27.646 5.352a136.248 136.248 0 0 0 .877-37.252l-23.092.205a117.832 117.832 0 0 1-5.432 31.695Z" fill="#C9DAF4"/><path d="m76.53 105.305 28.018 2.813a136.25 136.25 0 0 0-2.521-37.177l-22.979 2.305a117.846 117.846 0 0 1-2.519 32.059Z" fill="#fff"/><path d="M80.027 74.221c.124 2.221.19 4.444.2 6.67a498.048 498.048 0 0 1 23.035 4.583 140.357 140.357 0 0 0-1.905-13.239l-21.33 1.986Zm23.296 11.919a520.281 520.281 0 0 0-23.096-4.665c0 .482 0 .728-.01 1.213a504.478 504.478 0 0 1 23.22 4.839 106.35 106.35 0 0 0-.114-1.386Zm-23.136-1.908a147.956 147.956 0 0 1-.152 3.545 521.556 521.556 0 0 1 23.727 5.572 152.655 152.655 0 0 0-.198-4.06 533.279 533.279 0 0 0-23.377-5.057Zm23.623 15.834a555.111 555.111 0 0 0-24.266-6.447c-.403 3.61-.966 7.194-1.687 10.754l25.667 2.417c.148-2.24.243-4.481.286-6.724Z" fill="#F3F8FF"/><path d="M104.658 90.646a.108.108 0 0 1-.108-.101 139.094 139.094 0 0 0-2.609-19.484l-22.777 2.285c.19 3.294.248 6.635.172 9.933a.106.106 0 0 1-.151.097.107.107 0 0 1-.058-.06.11.11 0 0 1-.007-.042 124.48 124.48 0 0 0-.178-10.02.108.108 0 0 1 .097-.114l22.98-2.304a.106.106 0 0 1 .074.02.104.104 0 0 1 .042.065 139.242 139.242 0 0 1 2.633 19.61.107.107 0 0 1-.027.078.11.11 0 0 1-.074.037h-.009Zm-.11 17.582h-.01l-22.337-2.244a.107.107 0 0 1-.1-.075.107.107 0 0 1 .037-.119.1.1 0 0 1 .04-.019.095.095 0 0 1 .044-.002l22.226 2.233c.168-2.442.276-4.918.321-7.363a.109.109 0 0 1 .064-.109.112.112 0 0 1 .088 0 .109.109 0 0 1 .064.109 152.023 152.023 0 0 1-.33 7.485.119.119 0 0 1-.011.042.127.127 0 0 1-.027.034.11.11 0 0 1-.069.028Z" fill="#002E5D"/><path d="M89.464 80.468a.109.109 0 0 1-.081-.184.109.109 0 0 1 .076-.034l10.284-.515a.108.108 0 0 1 .01.216l-10.284.516h-.005Zm-6.608 5.965a.11.11 0 0 1-.1-.109.109.109 0 0 1 .1-.108l17.499-.266a.108.108 0 0 1 .108.108.106.106 0 0 1-.032.077.108.108 0 0 1-.076.031l-17.503.267h.004Zm17.811 5.969-18.103-.343a.11.11 0 0 1-.099-.069.11.11 0 0 1 .026-.118.106.106 0 0 1 .077-.03l18.103.343c.029 0 .057.011.077.031a.11.11 0 0 1 .032.077.108.108 0 0 1-.109.109h-.004Zm.009 6.243-18.678-.978a.11.11 0 0 1-.104-.07.108.108 0 0 1 .07-.143.11.11 0 0 1 .045-.003l18.675.977a.11.11 0 0 1 .097.111.11.11 0 0 1-.103.106h-.002Z" fill="#002E5D"/><path d="m89.434 71.112 2.53 4.424.892-5.326-3.422.902Z" fill="#454E54"/><path d="M91.531 72.858c1.448-.374 2.438-1.39 2.211-2.271-.227-.882-1.585-1.293-3.033-.92-1.448.373-2.438 1.39-2.21 2.271.226.881 1.584 1.293 3.032.92Z" fill="#454E54"/><path d="m100.538 35.585-26.856 4.494 1.06 6.335 26.856-4.494-1.06-6.335Zm5.934 15.089h-27.23v6.423h27.23v-6.423ZM73.973 82.371 49.47 83.876l.393 6.41 24.505-1.503-.394-6.41Z" fill="#F3F8FF"/><path d="m75.125 46.872-.756-.92-.595 1.045c-.063.113-.138.22-.225.316a.39.39 0 0 1-.253.111.435.435 0 0 1-.408-.184.329.329 0 0 1-.046-.137c-.009-.097.042-.241.151-.432l.723-1.268-.828-.928c-.143-.152-.22-.29-.23-.41a.32.32 0 0 1 .091-.257.429.429 0 0 1 .287-.135.401.401 0 0 1 .277.067c.1.077.192.166.274.264l.67.762.506-.869c.062-.113.137-.218.224-.313a.408.408 0 0 1 .257-.111.45.45 0 0 1 .311.075.323.323 0 0 1 .142.237.429.429 0 0 1-.03.205 1.466 1.466 0 0 1-.13.241l-.648 1.062.94 1.117c.148.176.225.31.234.402a.322.322 0 0 1-.099.261.45.45 0 0 1-.29.132.408.408 0 0 1-.276-.067 1.547 1.547 0 0 1-.273-.266Zm3.594-.325-.757-.92-.596 1.044a1.68 1.68 0 0 1-.224.315.39.39 0 0 1-.253.112.434.434 0 0 1-.408-.184.328.328 0 0 1-.046-.137c-.009-.097.042-.24.151-.432l.723-1.268-.828-.928c-.143-.152-.22-.29-.23-.41a.322.322 0 0 1 .09-.256.433.433 0 0 1 .292-.132.402.402 0 0 1 .276.066c.1.078.192.167.273.265l.671.761.506-.868c.062-.113.137-.218.225-.313a.402.402 0 0 1 .257-.111.448.448 0 0 1 .31.075.32.32 0 0 1 .143.241.44.44 0 0 1-.032.205 1.49 1.49 0 0 1-.129.241l-.647 1.062.941 1.108c.147.175.225.31.234.402a.322.322 0 0 1-.099.26.442.442 0 0 1-.29.132.408.408 0 0 1-.276-.067 1.549 1.549 0 0 1-.277-.263Zm3.596-.327-.757-.92-.595 1.045c-.063.114-.138.22-.225.316a.394.394 0 0 1-.253.112.438.438 0 0 1-.408-.185.329.329 0 0 1-.046-.137c-.008-.096.042-.24.151-.431l.724-1.269-.829-.927c-.143-.153-.22-.29-.23-.41a.32.32 0 0 1 .091-.258.432.432 0 0 1 .291-.13.394.394 0 0 1 .276.066c.101.077.193.166.274.264l.67.761.506-.867c.062-.113.138-.218.225-.313a.402.402 0 0 1 .257-.112c.11-.014.22.013.31.076a.317.317 0 0 1 .143.237.443.443 0 0 1-.031.205 1.53 1.53 0 0 1-.13.24l-.647 1.062.942 1.117c.147.174.225.308.233.402a.32.32 0 0 1-.099.26.443.443 0 0 1-.29.132.407.407 0 0 1-.276-.067 1.525 1.525 0 0 1-.277-.268Zm3.595-.325-.756-.92-.595 1.045c-.063.113-.138.22-.224.316a.393.393 0 0 1-.253.11.438.438 0 0 1-.309-.08.33.33 0 0 1-.145-.24c-.009-.097.04-.242.15-.432l.724-1.269-.828-.927c-.143-.153-.22-.29-.231-.412a.328.328 0 0 1 .092-.256.431.431 0 0 1 .291-.132.401.401 0 0 1 .277.068c.1.077.192.166.273.263l.67.762.506-.868c.062-.113.138-.218.225-.312a.402.402 0 0 1 .256-.112.45.45 0 0 1 .311.075.316.316 0 0 1 .143.237.444.444 0 0 1-.03.206c-.037.083-.08.164-.13.24l-.649 1.061.941 1.118c.147.175.225.31.234.401a.322.322 0 0 1-.099.26.446.446 0 0 1-.29.133.406.406 0 0 1-.276-.067 1.585 1.585 0 0 1-.278-.268Z" fill="#454E54"/><path d="m84.409 57.287-.552-1.055-.796.9a1.72 1.72 0 0 1-.285.263.388.388 0 0 1-.27.057.432.432 0 0 1-.362-.266.332.332 0 0 1-.017-.142c.011-.097.09-.227.236-.392l.968-1.094-.62-1.078c-.108-.178-.155-.328-.143-.449a.326.326 0 0 1 .143-.232.43.43 0 0 1 .31-.069.4.4 0 0 1 .258.122c.083.096.155.202.214.314l.5.884.673-.746a1.59 1.59 0 0 1 .284-.26.402.402 0 0 1 .274-.058c.11.01.212.058.289.138a.315.315 0 0 1 .09.26.442.442 0 0 1-.071.195 1.554 1.554 0 0 1-.176.21l-.85.906.69 1.286c.108.2.157.348.148.443a.321.321 0 0 1-.15.234.446.446 0 0 1-.311.07.408.408 0 0 1-.257-.122 1.57 1.57 0 0 1-.217-.319Zm3.587.416-.552-1.056-.796.9a1.78 1.78 0 0 1-.284.263.39.39 0 0 1-.271.057.435.435 0 0 1-.362-.265.326.326 0 0 1-.016-.143c.01-.096.09-.227.236-.392l.964-1.094-.622-1.076c-.109-.179-.156-.329-.142-.45a.323.323 0 0 1 .143-.232.426.426 0 0 1 .31-.07c.099.008.19.052.258.123.083.096.154.201.214.314l.5.884.673-.747c.084-.098.18-.185.284-.26a.401.401 0 0 1 .274-.057c.11.009.213.058.29.138a.316.316 0 0 1 .09.26.435.435 0 0 1-.072.195 1.554 1.554 0 0 1-.176.21l-.851.906.693 1.285c.107.201.155.349.146.443a.323.323 0 0 1-.15.235.445.445 0 0 1-.311.07.408.408 0 0 1-.257-.123 1.611 1.611 0 0 1-.213-.318Zm7.174.834-.552-1.056-.796.896c-.085.098-.18.186-.285.263a.388.388 0 0 1-.27.058.438.438 0 0 1-.361-.266.335.335 0 0 1-.018-.143c.011-.096.09-.227.236-.391l.964-1.095-.62-1.076c-.108-.179-.155-.328-.143-.45a.323.323 0 0 1 .143-.232.43.43 0 0 1 .311-.07c.098.008.19.052.257.123.083.096.155.201.214.314l.5.884.673-.747c.084-.098.18-.185.284-.26a.401.401 0 0 1 .274-.056c.11.008.213.057.289.137a.315.315 0 0 1 .09.261.44.44 0 0 1-.07.194 1.554 1.554 0 0 1-.177.21l-.85.907.692 1.285c.108.202.16.349.146.443a.32.32 0 0 1-.15.235.447.447 0 0 1-.311.07.411.411 0 0 1-.257-.122 1.57 1.57 0 0 1-.213-.316Z" fill="#325D9C"/><path d="m54.778 90.893-.794-.888-.553 1.067a1.732 1.732 0 0 1-.21.325.39.39 0 0 1-.25.122.435.435 0 0 1-.414-.17.33.33 0 0 1-.052-.133c-.013-.096.031-.241.133-.438l.67-1.298-.865-.893c-.15-.146-.232-.28-.248-.401a.327.327 0 0 1 .08-.26.43.43 0 0 1 .285-.145.402.402 0 0 1 .279.056c.104.073.2.157.284.252l.702.733.469-.889a1.61 1.61 0 0 1 .21-.321.402.402 0 0 1 .253-.122.45.45 0 0 1 .314.062.317.317 0 0 1 .151.231.43.43 0 0 1-.021.206 1.539 1.539 0 0 1-.12.246l-.602 1.088.987 1.077c.154.168.238.299.25.393a.322.322 0 0 1-.088.264.439.439 0 0 1-.284.144.402.402 0 0 1-.28-.054 1.578 1.578 0 0 1-.286-.254Zm3.58-.478-.794-.884-.551 1.065a1.692 1.692 0 0 1-.212.322.39.39 0 0 1-.248.122.434.434 0 0 1-.311-.07.325.325 0 0 1-.156-.233c-.013-.097.031-.243.133-.438l.667-1.295-.866-.892c-.15-.146-.232-.28-.248-.402a.32.32 0 0 1 .08-.26.431.431 0 0 1 .286-.143.401.401 0 0 1 .278.054c.104.074.2.158.285.253l.702.732.472-.883c.057-.116.128-.224.21-.322a.402.402 0 0 1 .252-.122.448.448 0 0 1 .315.063.316.316 0 0 1 .151.23c.01.07.003.14-.021.206a1.539 1.539 0 0 1-.12.247l-.603 1.087.988 1.077c.154.168.237.3.25.393a.323.323 0 0 1-.088.264.44.44 0 0 1-.284.144.402.402 0 0 1-.28-.054 1.575 1.575 0 0 1-.288-.26Zm7.159-.953-.795-.884-.551 1.067a1.73 1.73 0 0 1-.21.321.39.39 0 0 1-.25.122.432.432 0 0 1-.415-.17.332.332 0 0 1-.052-.133c-.013-.097.032-.242.134-.438l.67-1.298-.867-.892c-.148-.146-.231-.28-.248-.401a.32.32 0 0 1 .08-.26.427.427 0 0 1 .285-.145.395.395 0 0 1 .279.056c.104.073.2.157.285.251l.702.733.469-.889a1.59 1.59 0 0 1 .211-.321.402.402 0 0 1 .252-.123.448.448 0 0 1 .314.063.321.321 0 0 1 .152.23c.009.07 0 .14-.023.207a1.482 1.482 0 0 1-.119.246l-.602 1.088.989 1.078c.154.169.238.3.25.394a.321.321 0 0 1-.09.268.45.45 0 0 1-.284.144.409.409 0 0 1-.279-.056 1.544 1.544 0 0 1-.287-.258Z" fill="#F70431"/><path d="M87.447 19.991 60.9 21.62l.668 10.899 26.548-1.629-.669-10.899Z" fill="#325D9C"/><path d="M69.575 22.958a.23.23 0 0 1-.16-.065 6.668 6.668 0 1 1 9.739-.598.234.234 0 1 1-.36-.297 6.199 6.199 0 1 0-9.058.557.233.233 0 0 1-.161.402Z" fill="#002E5D"/><path d="M83.372 28.984a.233.233 0 0 1-.194-.105l-4.398-6.603a.234.234 0 0 1 .388-.259l4.399 6.604a.233.233 0 0 1-.065.32.231.231 0 0 1-.13.043ZM66.017 30.05a.234.234 0 0 1-.208-.34l3.557-7.088a.234.234 0 0 1 .418.21l-3.557 7.09a.235.235 0 0 1-.21.127Zm22.366 105.895H11.329a.095.095 0 0 1-.044-.005.115.115 0 0 1-.039-.023.11.11 0 0 1 0-.16.098.098 0 0 1 .039-.022.111.111 0 0 1 .044-.006h77.054a.111.111 0 0 1 .044.006.097.097 0 0 1 .038.022c.011.01.02.023.026.037a.09.09 0 0 1 .01.043.11.11 0 0 1-.036.08.113.113 0 0 1-.038.023.095.095 0 0 1-.044.005Zm50.057 3.79H79.05a.11.11 0 0 1-.077-.031.108.108 0 0 1 .077-.186h59.39a.11.11 0 0 1 .076.186.108.108 0 0 1-.076.031Z" fill="#002E5D"/><path d="m19.787 78.012-1.9 3.127-2.042-3.127 2.041-3.128 1.901 3.128Zm112.777-45.069-1.901 3.128-2.041-3.128 2.041-3.128 1.901 3.128Z" fill="#C9DAF4"/><path d="m47.807 100.046 4.01.586a.652.652 0 0 0 .542-.172.639.639 0 0 0 .194-.535l-.42-4.03-4.326 4.151Z" fill="#002E5D"/><path d="m4.434 46.195-2.42 2.323L49.71 98.22l2.42-2.322L4.435 46.195Z" fill="#fff"/><path d="M2.53 48.023.108 50.346l47.696 49.703 2.42-2.323L2.53 48.023Z" fill="#F70431"/><path d="M47.807 100.158a.13.13 0 0 1-.044-.008.125.125 0 0 1-.036-.025L.03 50.422a.106.106 0 0 1-.031-.08c0-.029.013-.056.033-.077l4.326-4.15a.106.106 0 0 1 .076-.031.107.107 0 0 1 .077.031L52.21 95.82a.106.106 0 0 1 .032.076.109.109 0 0 1-.032.076l-4.325 4.152a.105.105 0 0 1-.035.025.124.124 0 0 1-.043.01ZM.261 50.348l47.546 49.544 4.17-4.001L4.43 46.347.261 50.348Z" fill="#002E5D"/></g><defs><clipPath id="a"><path fill="#fff" d="M0 0h150v150H0z"/></clipPath></defs></svg>