<svg width="150" height="150" fill="none" xmlns="http://www.w3.org/2000/svg"><g clip-path="url(#a)"><path d="M150 76.87c0 22.049-9.809 41.841-25.362 55.375a74.202 74.202 0 0 1-6.472 5.043 75.173 75.173 0 0 1-5.623 3.546l-.288.166H37.75a75.877 75.877 0 0 1-3.654-2.199 75.203 75.203 0 0 1-6.263-4.491C10.855 120.761 0 100.065 0 76.87 0 36.073 33.58 3 74.999 3S150 36.074 150 76.87Z" fill="#F3F8FF"/><path d="M95.177 44.967H59.328V141h35.85V44.967Z" fill="#325D9C"/><path d="M80.55 44.967H44.701V141h35.85V44.967Z" fill="#C9DAF4"/><path d="M63.255 88.436H27.406V141h35.85V88.436Z" fill="#325D9C"/><path d="M48.627 88.436H12.778V141h35.85V88.436Z" fill="#C9DAF4"/><path d="M137.38 112.664h-35.849V141h35.849v-28.336Z" fill="#325D9C"/><path d="M122.752 112.664H86.903V141h35.849v-28.336Z" fill="#C9DAF4"/><path d="M127.593 110.057h-35.04v2.607h35.04v-2.607Zm-73.5-24.358h-35.04v2.737h35.04v-2.737Z" fill="#002E5D"/><path d="M87.634 42.23h-35.04v2.737h35.04V42.23Z" fill="#325D9C"/><path d="M42.1 56.147c1.333.003 2.658.214 3.926.625v28.917c-.177.008-.356.012-.533.012-7.371 0-14.105-6.616-15.041-14.777-.937-8.16 4.277-14.777 11.648-14.777Z" fill="#DD872A"/><path d="M31.848 70.923c.936 8.16 7.669 14.776 15.041 14.776a11.25 11.25 0 0 0 6.098-1.748c.195-.124.386-.255.572-.391 3.555-2.59 5.59-7.277 4.978-12.63v-.007a16.639 16.639 0 0 0-.086-.639c-1.202-7.867-7.775-14.143-14.956-14.143-7.368.006-12.583 6.621-11.647 14.782Z" fill="#FFC15A"/><path d="M50.695 81.871c5.166-2.594 6.892-9.6 3.855-15.649-3.037-6.049-9.687-8.85-14.853-6.256-5.166 2.594-6.892 9.6-3.855 15.65 3.037 6.048 9.687 8.849 14.853 6.255Z" fill="#fff"/><path d="M49.38 79.252c3.93-1.974 5.243-7.304 2.932-11.906-2.31-4.602-7.37-6.733-11.3-4.76-3.93 1.973-5.243 7.304-2.932 11.906 2.31 4.602 7.37 6.733 11.3 4.76Z" fill="#FFC15A"/><path d="M47.89 76.283c2.53-1.27 3.375-4.702 1.888-7.664-1.488-2.963-4.745-4.335-7.275-3.064-2.53 1.27-3.376 4.702-1.888 7.664 1.487 2.962 4.744 4.334 7.274 3.064Z" fill="#fff"/><path d="M46.37 73.258c1.102-.554 1.47-2.05.822-3.34-.648-1.292-2.067-1.89-3.17-1.336-1.102.553-1.47 2.049-.822 3.34s2.067 1.89 3.17 1.336Z" fill="#FFC15A"/><path d="m46.35 69.986 12.19.944v-.007a16.252 16.252 0 0 0-.084-.639l-12.058-.934-.049.636Zm-2.334 8.472 8.971 5.493c.195-.124.386-.255.572-.391l-9.217-5.645-.326.543Z" fill="#AF6215" style="mix-blend-mode:multiply" opacity=".25"/><path d="m46.026 69.44 12.213-7.208.348-1.666 4.761-2.81-.468 2.102 2.067.606-4.761 2.81-1.627-.498-12.212 7.209-.321-.544Zm-1.931 8.388 14.072 1.75 1.293-1.105 5.487.681-1.655 1.38 1.267 1.741-5.486-.681-.984-1.39-14.073-1.748.079-.628Z" fill="#002E5D"/><path d="m64.265 28.09-.301 2.112a9.808 9.808 0 0 1-5.056-2.3c-1.69-1.434-3.078-3.508-4.11-6.157a26.022 26.022 0 0 1-1.033-3.336 25.852 25.852 0 0 1-.639-3.802l-.032-.54a.56.56 0 0 1 .563-.604h7.475v2.13h-5.176a.477.477 0 0 0-.47.557c.039.222.082.46.132.713.37 1.86 1.097 4.482 2.456 6.73 1.346 2.224 3.317 4.086 6.191 4.497ZM87.357 13.9l-.05.705a27.214 27.214 0 0 1-1.671 7.136c-1.031 2.649-2.417 4.718-4.107 6.157a9.81 9.81 0 0 1-5.058 2.3l-.301-2.112c2.876-.411 4.846-2.273 6.192-4.494 1.584-2.611 2.302-5.728 2.608-7.562a.372.372 0 0 0-.366-.432h-5.296v-2.13h7.641a.41.41 0 0 1 .408.432ZM72.534 31.338h-4.588V40.3h4.588v-8.962Z" fill="#FFC15A"/><path d="M72.534 30.63v5.613c-1.635.374-3.227.186-4.588-.204v-5.408h4.588Z" fill="#EF9A1D"/><path d="M61.129 13.463h-3.055v2.133h3.055v-2.133Zm3.136 14.627-.301 2.112a9.809 9.809 0 0 1-5.056-2.3 10.294 10.294 0 0 1-.834-4.062v-.248c1.346 2.225 3.318 4.087 6.191 4.498Zm18.097-14.627h-3.054v2.133h3.054v-2.133Zm-.001 10.129v.244a10.33 10.33 0 0 1-.828 4.066 9.81 9.81 0 0 1-5.058 2.3l-.301-2.112c2.87-.41 4.842-2.273 6.187-4.498Z" fill="#F49E21"/><path d="M81.409 10.403V23.84a11.221 11.221 0 0 1-11.19 11.194 11.004 11.004 0 0 1-3.653-.619 11.257 11.257 0 0 1-7.437-9.054 11.056 11.056 0 0 1-.106-1.524V10.403h22.386Z" fill="#FFC15A"/><path d="M82.95 10.172v.464a1.171 1.171 0 0 1-1.172 1.172H58.665a1.172 1.172 0 0 1-1.172-1.172v-.464A1.172 1.172 0 0 1 58.665 9h23.113a1.172 1.172 0 0 1 1.172 1.172Z" fill="#FFC15A"/><path d="M71.179 10.404a18.292 18.292 0 0 1-12.049 14.96 11.056 11.056 0 0 1-.106-1.524V10.404h12.155Z" fill="#FFD469"/><path d="M73.004 22.913a.251.251 0 0 0-.073.222l.522 3.178a.252.252 0 0 1-.368.262l-2.843-1.518a.247.247 0 0 0-.234 0l-2.854 1.475a.252.252 0 0 1-.365-.266l.445-2.49.122-.68a.247.247 0 0 0-.07-.223l-.58-.575L65 20.608a.252.252 0 0 1 .144-.426l3.18-.442a.256.256 0 0 0 .19-.136l1.444-2.875a.254.254 0 0 1 .453 0l.834 1.723.099.203.47.973a.252.252 0 0 0 .188.138l3.184.486a.25.25 0 0 1 .136.426l-2.319 2.235Z" fill="#FCE897"/><path d="M59.026 11.809v.552l22.383 1.102v-1.654H59.026Z" fill="#F9B13D"/><path d="M73.075 9c-.19.964-.48 1.905-.865 2.809H58.66a1.172 1.172 0 0 1-1.172-1.172v-.465A1.171 1.171 0 0 1 58.659 9h14.416Z" fill="#FFD469"/><path d="M71.347 18.655a8.496 8.496 0 0 1-4.114 5.12l.121-.68a.25.25 0 0 0-.07-.222l-.58-.575-1.705-1.69a.251.251 0 0 1 .144-.426l3.183-.442a.256.256 0 0 0 .19-.136l1.443-2.875a.254.254 0 0 1 .453 0l.834 1.723.101.203Z" fill="#FFEEA4"/><path d="M74.636 40.3h-8.835v1.93h8.835V40.3Z" fill="#FFC15A"/><path d="M82.95 10.172v.464a1.171 1.171 0 0 1-1.172 1.172h-.367v12.036a11.221 11.221 0 0 1-11.193 11.19 11.003 11.003 0 0 1-3.652-.619c10.6-1.624 11.893-15.19 11.787-22.607 0-.5-.017-.969-.035-1.405-.02-.517-.045-.989-.072-1.4h3.529a1.171 1.171 0 0 1 1.174 1.169Z" fill="#AF6215" style="mix-blend-mode:multiply" opacity=".18"/><path d="M63.255 88.436 68.187 141h-4.932V88.436Z" fill="#325D9C" style="mix-blend-mode:multiply" opacity=".25"/><path d="M80.71 103.53h-.319V45.127h-35.69v-.319H80.71v58.722Zm-67.931 15.879a.16.16 0 0 1-.16-.16V88.394a.16.16 0 0 1 .16-.158H31.94a.16.16 0 1 1 0 .32H12.939v30.694a.158.158 0 0 1-.047.112.16.16 0 0 1-.113.047Z" fill="#002E5D"/></g><defs><clipPath id="a"><path fill="#fff" d="M0 0h150v150H0z"/></clipPath></defs></svg>