<svg width="150" height="146" fill="none" xmlns="http://www.w3.org/2000/svg"><g clip-path="url(#a)"><path d="M150 74.548c0 22.252-9.809 42.226-25.362 55.885a74.134 74.134 0 0 1-6.472 5.089 74.906 74.906 0 0 1-5.623 3.579l-.288.167H37.75a75.194 75.194 0 0 1-9.917-6.751C10.855 118.843 0 97.957 0 74.548 0 33.378 33.58 0 74.999 0S150 33.378 150 74.548Z" fill="#F3F8FF"/><path d="m111.29 20.555-52.507-2.753a2.428 2.428 0 0 0-2.558 2.288l-5.68 107.028a2.424 2.424 0 0 0 2.301 2.542l52.507 2.754a2.428 2.428 0 0 0 2.558-2.288l5.681-107.028a2.425 2.425 0 0 0-2.302-2.543Z" fill="#fff"/><path d="M103.404 27.068h-52.58a2.426 2.426 0 0 0-2.433 2.419v107.177a2.426 2.426 0 0 0 2.433 2.418h52.58a2.426 2.426 0 0 0 2.433-2.418V29.487a2.426 2.426 0 0 0-2.433-2.419Z" fill="#C9DAF4"/><path d="M101.709 134.198V31.952a.784.784 0 0 0-.787-.781H53.304a.784.784 0 0 0-.787.782v102.245c0 .432.352.782.787.782h47.618c.435 0 .787-.35.787-.782Z" fill="#fff"/><path d="M101.403 136.961h-52.58a2.6 2.6 0 0 1-1.824-.756 2.566 2.566 0 0 1-.756-1.815V27.214c0-.682.273-1.335.758-1.817a2.596 2.596 0 0 1 1.827-.753h52.58c.686 0 1.343.271 1.828.753a2.57 2.57 0 0 1 .758 1.817V134.39a2.568 2.568 0 0 1-.76 1.818 2.6 2.6 0 0 1-1.831.753ZM48.823 24.947a2.29 2.29 0 0 0-1.611.665 2.262 2.262 0 0 0-.669 1.602V134.39c.001.601.242 1.177.67 1.602a2.286 2.286 0 0 0 1.61.664h52.58c.605 0 1.184-.239 1.612-.664a2.266 2.266 0 0 0 .669-1.602V27.214a2.262 2.262 0 0 0-.669-1.602 2.289 2.289 0 0 0-1.612-.665h-52.58Z" fill="#002E5D"/><path d="M65.422 135.131H53.305a.945.945 0 0 1-.665-.274.934.934 0 0 1-.275-.662V31.953c0-.247.1-.485.275-.66a.943.943 0 0 1 .665-.274h47.617c.249 0 .488.1.664.274a.931.931 0 0 1 .275.66v15.615c0 .04-.016.079-.044.107a.155.155 0 0 1-.108.044.151.151 0 0 1-.153-.151V31.954a.627.627 0 0 0-.186-.446.638.638 0 0 0-.448-.184H53.305a.636.636 0 0 0-.634.63v102.241a.636.636 0 0 0 .634.63h12.117c.04 0 .079.016.108.045a.15.15 0 0 1 0 .214.155.155 0 0 1-.108.044v.003Z" fill="#002E5D"/><path d="M71.398 50.965 69.4 61.078h14.613v4.013l2.219-1.476-.444-8.31-14.39-4.339Z" fill="#1F3A6F"/><path d="m71.25 61.004.888 18.348 2.497 1.727s1.683 1.25 3.773-.202c2.09-1.453 5.582-4.044 5.582-4.044l.019-15.756-12.76-.073Z" fill="#FDC8AA"/><path d="M76.43 81.731a3.15 3.15 0 0 1-1.73-.512l-5.79-3.8a.15.15 0 0 1-.07-.127V61.04a.152.152 0 0 1 .153-.152h15.02a.154.154 0 0 1 .152.152v15.815a.15.15 0 0 1-.063.123l-5.839 4.174a3.152 3.152 0 0 1-1.833.58Zm-7.284-4.52 5.723 3.755a2.863 2.863 0 0 0 3.216-.064l5.774-4.129v-15.58H69.146V77.21Z" fill="#002E5D"/><path d="M84.013 65.42a.154.154 0 0 1-.142-.102.15.15 0 0 1 .049-.167l4.916-3.946-1.468-5.375-19.38-5.703-2.605 9.085 3.733 5.31a.15.15 0 0 1-.039.21.154.154 0 0 1-.213-.036l-3.773-5.364a.15.15 0 0 1-.021-.129l2.666-9.308a.15.15 0 0 1 .073-.093.147.147 0 0 1 .117-.013l19.606 5.773a.152.152 0 0 1 .104.105l1.516 5.55a.15.15 0 0 1-.05.158l-4.99 4.012a.153.153 0 0 1-.1.034ZM56.365 53.9a.154.154 0 0 1-.154-.152V42.28a.152.152 0 0 1 .154-.152h11.49a.154.154 0 0 1 .141.152.152.152 0 0 1-.141.152H56.517v11.316a.152.152 0 0 1-.152.152Z" fill="#002E5D"/><path d="M89.006 86.215H65.221v44.961h23.785v-44.96Z" fill="#F3F8FF"/><path d="M67.314 89.391h-10.95a.155.155 0 0 1-.108-.044.15.15 0 0 1-.045-.108V76.09a.151.151 0 0 1 .092-.15.155.155 0 0 1 .174.035.153.153 0 0 1 .04.116v12.998H67.31a.153.153 0 0 1 .153.151.151.151 0 0 1-.153.152h.004Zm30.548 0H87.474a.153.153 0 0 1-.153-.152.152.152 0 0 1 .153-.151h10.235v-8.286a.153.153 0 0 1 .305 0v8.437a.15.15 0 0 1-.094.14.153.153 0 0 1-.058.012Zm0-28.581a.152.152 0 0 1-.152-.152V42.432h-6.527a.154.154 0 0 1-.142-.152.152.152 0 0 1 .142-.152h6.681a.153.153 0 0 1 .153.152v18.378a.149.149 0 0 1-.096.14.151.151 0 0 1-.059.012Z" fill="#002E5D"/><path d="M88.112 123.567a15.395 15.395 0 0 0 0-21.865c-6.075-6.038-15.923-6.038-21.997 0a15.396 15.396 0 0 0 0 21.865c6.074 6.038 15.922 6.038 21.997 0Z" fill="#325D9C"/><path d="M75.113 127.11c-8.66 0-15.707-7.004-15.707-15.612 0-8.609 7.047-15.614 15.707-15.614a.153.153 0 0 1 .153.152.153.153 0 0 1-.153.152c-8.492 0-15.401 6.868-15.401 15.31s6.907 15.309 15.401 15.309 15.403-6.868 15.403-15.309a.15.15 0 0 1 .044-.108.155.155 0 0 1 .216 0 .152.152 0 0 1 .045.108c0 8.608-7.046 15.612-15.708 15.612Z" fill="#002E5D"/><path d="m75.47 119.869-8.003-7.955 3.783-3.761 4.22 4.196 17.41-17.304 3.783 3.76L75.47 119.87Z" fill="#fff"/><path d="M72.096 117.941a.148.148 0 0 1-.063-.013.141.141 0 0 1-.05-.037l-4.63-5.122a.147.147 0 0 1-.026-.167.139.139 0 0 1 .036-.048l3.98-3.554a.15.15 0 0 1 .217.012l3.886 4.299 6.978-6.235a.155.155 0 0 1 .21.018.152.152 0 0 1-.005.209l-7.097 6.336a.164.164 0 0 1-.051.03.149.149 0 0 1-.117-.006.175.175 0 0 1-.048-.035l-3.886-4.301-3.753 3.351 4.526 5.009a.15.15 0 0 1-.01.214.158.158 0 0 1-.097.04Zm6.069.45a.153.153 0 0 1-.149-.189.157.157 0 0 1 .047-.077l19.046-17.007-3.473-3.843a.152.152 0 0 1 .018-.207.154.154 0 0 1 .21.004l3.576 3.956a.152.152 0 0 1-.012.215l-19.16 17.11a.159.159 0 0 1-.103.038Z" fill="#002E5D"/><path d="M90.717 37.165H63.51a1.242 1.242 0 0 1-1.143-.759 1.223 1.223 0 0 1 .269-1.339c.231-.23.546-.36.874-.36h27.207c.328 0 .642.13.874.36a1.224 1.224 0 0 1-.4 2.004 1.24 1.24 0 0 1-.474.094Z" fill="#454E54"/><path d="M135.471 139.42H22.246a.159.159 0 0 1-.116-.04.154.154 0 0 1-.036-.174.15.15 0 0 1 .036-.05.147.147 0 0 1 .116-.041H135.47a.154.154 0 0 1 .142.153.154.154 0 0 1-.142.152Zm-8.095 3.125H80.433a.151.151 0 0 1-.108-.045.15.15 0 0 1 0-.214.151.151 0 0 1 .108-.045h46.943a.15.15 0 0 1 .108.045.149.149 0 0 1 0 .214.15.15 0 0 1-.108.045ZM84.257 146H38.261a.152.152 0 0 1-.108-.259.154.154 0 0 1 .108-.044h45.996a.152.152 0 0 1 .108.259.154.154 0 0 1-.108.044Z" fill="#002E5D"/><path d="M54.633 53.468a14.055 14.055 0 0 0 0-19.962c-5.546-5.512-14.537-5.512-20.083 0a14.055 14.055 0 0 0 0 19.962c5.546 5.512 14.537 5.512 20.083 0Z" fill="#F70431"/><path d="M44.592 51.876a4.68 4.68 0 0 1-3.294-1.359 4.624 4.624 0 0 1-1.367-3.274v-7.642c0-1.229.491-2.407 1.365-3.276a4.675 4.675 0 0 1 3.296-1.357c1.236 0 2.421.488 3.295 1.357a4.618 4.618 0 0 1 1.365 3.276v7.642a4.624 4.624 0 0 1-1.366 3.274 4.68 4.68 0 0 1-3.294 1.359Zm0-15.353a3.11 3.11 0 0 0-2.187.904 3.073 3.073 0 0 0-.908 2.174v7.642c0 .817.327 1.6.907 2.177a3.107 3.107 0 0 0 4.38 0 3.07 3.07 0 0 0 .908-2.177v-7.642a3.073 3.073 0 0 0-.91-2.177 3.11 3.11 0 0 0-2.19-.902v.001Z" fill="#454E54"/><path d="M38.266 42.875a6.693 6.693 0 0 0 .752 6.215 6.758 6.758 0 0 0 2.426 2.14 6.804 6.804 0 0 0 6.298 0 6.758 6.758 0 0 0 2.426-2.14 6.705 6.705 0 0 0 .752-6.215.945.945 0 0 0-.883-.611H39.15a.953.953 0 0 0-.885.611Z" fill="#F9F9F9"/><path d="M45.897 45.696a1.29 1.29 0 0 0-.67-1.13 1.308 1.308 0 0 0-1.785.527 1.29 1.29 0 0 0 .568 1.762v1.365a.576.576 0 0 0 .581.578.583.583 0 0 0 .582-.578v-1.364a1.3 1.3 0 0 0 .724-1.16Z" fill="#F70431"/><path d="M45.489 53.039a6.955 6.955 0 0 1-3.537-.963 6.906 6.906 0 0 1-2.303-2.213 6.855 6.855 0 0 1-.635-6.162 1.09 1.09 0 0 1 1.023-.711h10.887a1.1 1.1 0 0 1 1.023.709 6.846 6.846 0 0 1-.762 6.358 6.91 6.91 0 0 1-2.48 2.19 6.96 6.96 0 0 1-3.22.793l.004-.001Zm-5.449-9.746a.797.797 0 0 0-.744.517 6.542 6.542 0 0 0 .733 6.075 6.604 6.604 0 0 0 2.372 2.092 6.65 6.65 0 0 0 6.156 0 6.604 6.604 0 0 0 2.371-2.092 6.553 6.553 0 0 0 .733-6.075.788.788 0 0 0-.74-.514l-10.88-.003Zm17.172-.446a.154.154 0 0 1-.153-.152c0-7.7-6.302-13.966-14.05-13.966-7.747 0-14.05 6.264-14.05 13.966a.152.152 0 0 1-.09.151.155.155 0 0 1-.207-.09.152.152 0 0 1-.008-.061c0-7.867 6.438-14.267 14.353-14.267 7.914 0 14.353 6.4 14.353 14.267a.153.153 0 0 1-.148.152Z" fill="#002E5D"/><path d="M144.793 47.828a6.599 6.599 0 0 0 0-9.373 6.696 6.696 0 0 0-9.429 0 6.599 6.599 0 0 0 0 9.373 6.696 6.696 0 0 0 9.429 0ZM17.52 52.015a2.387 2.387 0 0 0-1.786-2.871 2.402 2.402 0 0 0-2.89 1.774 2.386 2.386 0 0 0 1.786 2.872 2.402 2.402 0 0 0 2.89-1.775Zm117.896 79.541a1.687 1.687 0 0 0-1.262-2.03 1.699 1.699 0 0 0-2.043 1.255 1.687 1.687 0 0 0 1.262 2.03 1.697 1.697 0 0 0 2.043-1.255Z" fill="#C9DAF4"/></g><defs><clipPath id="a"><path fill="#fff" d="M0 0h150v146H0z"/></clipPath></defs></svg>