<svg width="31" height="24" fill="none" xmlns="http://www.w3.org/2000/svg"><g clip-path="url(#a)"><path d="M30.065 22.874v.06h.056a.058.058 0 0 0 .03-.007.026.026 0 0 0 .012-.023.025.025 0 0 0-.011-.022.054.054 0 0 0-.031-.008h-.056Zm.056-.041c.03 0 .052.006.068.019.016.013.023.03.023.052a.06.06 0 0 1-.018.047.093.093 0 0 1-.054.021l.074.085h-.058l-.069-.084h-.022v.084h-.049v-.224h.105Zm-.014.302a.194.194 0 0 0 .175-.116.186.186 0 0 0 0-.147.192.192 0 0 0-.102-.1.198.198 0 0 0-.21.04.183.183 0 0 0-.055.134c0 .026.005.05.015.073a.17.17 0 0 0 .04.06.19.19 0 0 0 .062.04c.023.01.048.016.075.016Zm0-.431a.247.247 0 0 1 .176.07.233.233 0 0 1 .073.172.246.246 0 0 1-.25.242.25.25 0 0 1-.231-.148.227.227 0 0 1-.02-.094.239.239 0 0 1 .152-.223.25.25 0 0 1 .1-.02Zm-23.025-.866c0-.428.284-.78.749-.78.444 0 .743.337.743.78 0 .444-.3.78-.743.78-.465 0-.749-.351-.749-.78Zm1.998 0V20.62h-.536v.296c-.17-.22-.429-.357-.78-.357-.692 0-1.234.535-1.234 1.28 0 .744.542 1.279 1.234 1.279.351 0 .61-.138.78-.357v.296h.536v-1.219Zm18.133 0c0-.428.284-.78.75-.78.444 0 .742.337.742.78 0 .444-.298.78-.743.78-.465 0-.749-.351-.749-.78Zm1.999 0v-2.196h-.537v1.274c-.17-.22-.429-.357-.78-.357-.692 0-1.234.535-1.234 1.28 0 .744.542 1.279 1.234 1.279.351 0 .61-.138.78-.357v.296h.537v-1.219Zm-13.471-.805c.346 0 .568.214.625.591h-1.281c.057-.352.274-.59.656-.59Zm.01-.474c-.723 0-1.229.52-1.229 1.28 0 .774.527 1.279 1.266 1.279.371 0 .712-.092 1.011-.341l-.263-.393a1.19 1.19 0 0 1-.718.255c-.345 0-.66-.158-.738-.597h1.833c.005-.066.01-.133.01-.204-.005-.76-.48-1.28-1.171-1.28Zm6.48 1.28c0-.429.284-.78.749-.78.443 0 .743.336.743.78 0 .443-.3.78-.743.78-.465 0-.75-.352-.75-.78Zm1.998 0V20.62h-.537v.296c-.17-.22-.428-.357-.78-.357-.691 0-1.234.535-1.234 1.28 0 .744.543 1.279 1.235 1.279.35 0 .608-.138.78-.357v.296h.536v-1.219Zm-5.029 0c0 .739.522 1.279 1.317 1.279.372 0 .62-.082.888-.29l-.258-.43c-.201.144-.413.22-.646.22-.428-.005-.743-.31-.743-.78 0-.469.315-.774.743-.78.233 0 .444.077.646.22l.258-.429c-.269-.209-.516-.29-.888-.29-.795 0-1.317.54-1.317 1.28Zm6.919-1.28a.73.73 0 0 0-.65.357v-.296h-.533v2.437h.538V21.69c0-.403.175-.627.526-.627.109 0 .222.015.336.06l.165-.499a1.154 1.154 0 0 0-.382-.066Zm-14.385.255c-.258-.168-.614-.255-1.006-.255-.625 0-1.028.296-1.028.78 0 .397.3.642.852.719l.253.035c.295.041.433.118.433.255 0 .189-.196.296-.562.296-.372 0-.64-.117-.821-.255l-.253.413c.294.214.666.316 1.069.316.712 0 1.125-.332 1.125-.795 0-.429-.325-.653-.862-.73l-.253-.035c-.232-.03-.418-.076-.418-.24 0-.178.175-.285.47-.285.314 0 .62.117.769.209l.232-.428Zm6.924-.255a.728.728 0 0 0-.65.357v-.296h-.532v2.437h.537V21.69c0-.403.175-.627.526-.627.109 0 .222.015.336.06l.165-.499a1.156 1.156 0 0 0-.382-.066Zm-4.58.061h-.877v-.74h-.543v.74h-.5v.484h.5v1.112c0 .565.223.902.857.902.233 0 .502-.071.672-.189l-.155-.454a1 1 0 0 1-.475.138c-.269 0-.356-.163-.356-.408v-1.1h.877v-.485Zm-8.023 2.437v-1.53c0-.576-.372-.963-.97-.968-.316-.006-.64.091-.868.433-.17-.27-.439-.433-.816-.433-.264 0-.521.076-.723.361v-.3h-.537v2.437h.542v-1.351c0-.423.238-.648.605-.648.356 0 .536.23.536.643v1.356h.543v-1.351c0-.423.247-.648.604-.648.366 0 .542.23.542.643v1.356h.542Z" fill="#231F20"/><path d="M30.395 14.954v-.356h-.093l-.11.244-.107-.244h-.095v.356h.067v-.269l.102.232h.069l.101-.232v.269h.066Zm-.596 0v-.296h.12v-.06h-.307v.06h.121v.296h.066Z" fill="#F79410"/><path d="M19.711 16.485h-8.133V2.055h8.133v14.43Z" fill="#FF5F00"/><path d="M12.099 9.269c0-2.927 1.388-5.535 3.55-7.215A9.33 9.33 0 0 0 9.905.092C4.772.092.61 4.2.61 9.269s4.16 9.177 9.294 9.177a9.33 9.33 0 0 0 5.744-1.962c-2.162-1.68-3.55-4.288-3.55-7.215Z" fill="#EB001B"/><path d="M30.68 9.269c0 5.069-4.162 9.177-9.295 9.177a9.333 9.333 0 0 1-5.745-1.962c2.163-1.68 3.55-4.288 3.55-7.215 0-2.927-1.387-5.535-3.55-7.215A9.333 9.333 0 0 1 21.385.092c5.133 0 9.294 4.109 9.294 9.177Z" fill="#F79E1B"/></g><defs><clipPath id="a"><path fill="#fff" transform="translate(.6 .1)" d="M0 0h30.1v23.1H0z"/></clipPath></defs></svg>