<svg width="32" height="32" fill="none" xmlns="http://www.w3.org/2000/svg"><path fill-rule="evenodd" clip-rule="evenodd" d="M13.353 1C6.53 1 1 6.53 1 13.353c0 6.822 5.53 12.352 12.353 12.352 1.468 0 2.877-.256 4.183-.727-.164-.257-.24-.543-.283-.852-.013-.09-.024-.251-.048-.354-.079-.073-.213-.163-.287-.22-.298-.235-.543-.494-.675-.858s-.107-.718-.028-1.089c.02-.088.065-.247.077-.35-.04-.079-.117-.187-.158-.25-.167-.26-.303-.514-.357-.822a1.51 1.51 0 0 1-.001-.518H6.673a6.68 6.68 0 0 1 11.053-5.048c.237-.246.53-.386.855-.492.088-.028.245-.067.342-.109.058-.09.123-.238.167-.32.178-.334.39-.621.725-.814.335-.194.689-.232 1.067-.219.091.003.252.02.358.015.085-.066.196-.182.266-.245.282-.252.58-.448.96-.515s.728.015 1.079.156c.087.035.231.106.334.138.101-.03.247-.102.331-.136.351-.141.697-.227 1.078-.16.123.022.238.058.346.104C24.969 5.825 19.724 1 13.353 1Zm8.983 26.89L20.888 31l-1.247-2.146-2.445.427 1.628-3.498c.037.011.072.024.102.036.057.09.123.237.166.318.178.334.389.62.723.814.335.194.689.233 1.067.22.091-.003.252-.02.358-.014.085.064.197.181.266.243.25.224.51.404.83.49Zm6.95-2.22 1.272 2.956-2.431-.498-1.31 2.109-1.067-2.48c.178-.092.34-.215.497-.356.07-.063.182-.179.267-.244.106-.006.267.011.358.014.378.014.732-.025 1.067-.218.335-.194.547-.48.725-.815.044-.082.109-.23.167-.32.097-.041.254-.08.341-.109l.114-.038Zm1.706-5.844c.078.44-.443.823-.52 1.254-.071.407.232.907.099 1.274-.135.368-.691.558-.895.91-.205.355-.092.932-.343 1.232-.25.298-.838.288-1.152.551-.31.262-.4.843-.742 1.04-.334.193-.886-.017-1.271.123-.379.137-.662.652-1.054.721-.393.07-.835-.318-1.237-.317-.41 0-.857.386-1.237.32-.388-.07-.671-.584-1.053-.724-.385-.14-.934.07-1.271-.125-.34-.195-.43-.776-.743-1.039-.313-.262-.9-.25-1.153-.55-.25-.298-.137-.873-.343-1.23-.203-.35-.759-.54-.894-.912-.132-.364.173-.863.1-1.274-.067-.379-.459-.717-.521-1.071-.078-.44.443-.823.52-1.255.071-.406-.232-.907-.099-1.273.135-.369.692-.559.895-.911.205-.354.092-.931.343-1.231.25-.299.838-.288 1.152-.552.31-.262.4-.842.742-1.04.335-.193.886.017 1.271-.122.379-.138.662-.653 1.054-.722.393-.07.835.318 1.237.318.41 0 .857-.387 1.237-.32.388.069.671.584 1.053.723.385.14.934-.07 1.271.125.34.196.43.777.743 1.04.312.261.9.249 1.153.55.25.298.137.872.343 1.23.202.35.759.54.894.912.132.364-.173.862-.1 1.274.066.378.459.717.521 1.07Zm-7.115-5.263c1.478 0 2.817.6 3.786 1.568a5.337 5.337 0 0 1 1.568 3.786 5.34 5.34 0 0 1-1.568 3.786 5.337 5.337 0 0 1-3.786 1.568 5.338 5.338 0 0 1-3.786-1.568 5.338 5.338 0 0 1-1.568-3.786c0-1.478.6-2.817 1.568-3.786a5.337 5.337 0 0 1 3.786-1.568Zm3.079 2.275a4.34 4.34 0 0 1 1.275 3.08 4.34 4.34 0 0 1-1.275 3.078 4.34 4.34 0 0 1-3.079 1.275 4.34 4.34 0 0 1-3.079-1.275 4.34 4.34 0 0 1-1.275-3.079 4.34 4.34 0 0 1 1.275-3.079 4.34 4.34 0 0 1 3.08-1.275 4.34 4.34 0 0 1 3.078 1.275Zm-3.079-.137.823 2.015 2.171.16-1.662 1.406.519 2.114-1.85-1.146-1.851 1.146.518-2.114-1.662-1.406 2.17-.16.824-2.015ZM13.353 5.605a3.377 3.377 0 1 1 0 6.755 3.377 3.377 0 0 1 0-6.755Z" fill="#325D9C"/></svg>