<svg width="308" height="390" fill="none" xmlns="http://www.w3.org/2000/svg"><g clip-path="url(#a)"><path d="M260.338 22.948a1.801 1.801 0 0 1-1.8-1.802c0-9.664-5.684-17.536-12.671-17.536a1.798 1.798 0 0 1-1.871-1.8 1.803 1.803 0 0 1 1.871-1.8c8.97 0 16.271 9.48 16.271 21.13a1.801 1.801 0 0 1-1.8 1.807Zm-46.585 0a1.799 1.799 0 0 1-1.797-1.802c0-9.664-5.684-17.536-12.671-17.536a1.795 1.795 0 0 1-1.727-1.094A1.803 1.803 0 0 1 199.285.01c8.97 0 16.268 9.48 16.268 21.13a1.82 1.82 0 0 1-.525 1.278 1.807 1.807 0 0 1-1.275.53Zm-46.582 0a1.801 1.801 0 0 1-1.8-1.802c0-9.664-5.684-17.536-12.671-17.536a1.795 1.795 0 0 1-1.727-1.094A1.803 1.803 0 0 1 152.7.01c8.97 0 16.268 9.48 16.268 21.13a1.817 1.817 0 0 1-.524 1.277 1.805 1.805 0 0 1-1.273.53Zm-46.585 0a1.8 1.8 0 0 1-1.797-1.802c0-9.664-5.685-17.536-12.674-17.536a1.8 1.8 0 0 1 0-3.6c8.973 0 16.27 9.48 16.27 21.13a1.8 1.8 0 0 1-1.799 1.808Z" fill="#445664"/><path d="M275.32 21.132H69v291.939h206.32V21.132Z" fill="#fff"/><path d="M297.49 21.132h-22.17v291.939h22.17V21.132Zm-28.532 5.461H75.362v45.042h193.596V26.593Z" fill="#BBD1DC"/><path d="M228.218 77.965 75.362 156.542V77.965h152.856Zm40.74 0V88.22L75.362 187.741v-17.134l180.213-92.642h13.383Zm0 60.786v28.258L75.362 266.528v-28.256l193.596-99.521Zm0 42.109v65.414l-116.365 59.819h-77.23v-25.712l193.595-99.521Zm-66.803 125.233 66.803-34.342v34.342h-66.803Z" fill="#F3F8FF"/><path d="M305.779 283.942a.301.301 0 0 1-.205-.083.3.3 0 0 1-.095-.2L286.85 21.432h-11.535a.299.299 0 0 1-.3-.3.3.3 0 0 1 .3-.3h11.818a.301.301 0 0 1 .299.283l18.646 262.507a.278.278 0 0 1-.014.118.31.31 0 0 1-.153.175.326.326 0 0 1-.115.03l-.017-.003Z" fill="#002E5D"/><path d="M105.719 44.737c2.021 0 3.659-1.913 3.659-4.273 0-2.36-1.638-4.274-3.659-4.274-2.02 0-3.658 1.913-3.658 4.274 0 2.36 1.638 4.273 3.658 4.273Z" fill="#445664"/><path d="M106.115 42.265c-8.97 0-16.268-9.48-16.268-21.133 0-11.653 7.298-21.13 16.268-21.13a1.795 1.795 0 0 1 1.727 1.094 1.803 1.803 0 0 1-1.727 2.506c-6.987 0-12.671 7.865-12.671 17.536 0 9.67 5.684 17.535 12.671 17.535a1.797 1.797 0 0 1 1.799 1.802 1.8 1.8 0 0 1-1.799 1.802v-.012Zm46.186 2.472c2.021 0 3.659-1.913 3.659-4.273 0-2.36-1.638-4.274-3.659-4.274-2.02 0-3.658 1.913-3.658 4.274 0 2.36 1.638 4.273 3.658 4.273Z" fill="#445664"/><path d="M152.7 42.265c-8.97 0-16.271-9.48-16.271-21.133 0-11.653 7.301-21.13 16.271-21.13a1.795 1.795 0 0 1 1.727 1.094 1.803 1.803 0 0 1-1.727 2.506c-6.987 0-12.671 7.865-12.671 17.536 0 9.67 5.684 17.535 12.671 17.535a1.802 1.802 0 0 1 0 3.603v-.01Zm46.187 2.472c2.02 0 3.658-1.913 3.658-4.273 0-2.36-1.638-4.274-3.658-4.274-2.021 0-3.659 1.913-3.659 4.274 0 2.36 1.638 4.273 3.659 4.273Z" fill="#445664"/><path d="M199.285 42.265c-8.973 0-16.27-9.48-16.27-21.133 0-11.653 7.297-21.13 16.27-21.13a1.797 1.797 0 0 1 1.728 1.8 1.799 1.799 0 0 1-1.728 1.8c-6.989 0-12.674 7.866-12.674 17.536 0 9.67 5.685 17.535 12.674 17.535a1.801 1.801 0 0 1 0 3.604v-.012Zm46.184 2.472c2.021 0 3.659-1.913 3.659-4.273 0-2.36-1.638-4.274-3.659-4.274s-3.659 1.913-3.659 4.274c0 2.36 1.638 4.273 3.659 4.273Z" fill="#445664"/><path d="M245.867 42.265c-8.97 0-16.27-9.48-16.27-21.133 0-11.653 7.3-21.13 16.27-21.13a1.803 1.803 0 0 1 1.727 1.094 1.803 1.803 0 0 1-1.727 2.506c-6.987 0-12.671 7.865-12.671 17.536 0 9.67 5.684 17.535 12.671 17.535a1.8 1.8 0 0 1 1.8 1.802 1.8 1.8 0 0 1-1.8 1.802v-.012Z" fill="#445664"/><path d="M252.888 112.377H91.432a.299.299 0 1 1 0-.599h161.456a.3.3 0 0 1 .3.299.3.3 0 0 1-.3.3Zm0 38.652H91.432a.299.299 0 1 1 0-.599h161.456a.3.3 0 1 1 0 .599Zm0 38.655H91.432a.3.3 0 0 1-.195-.504.3.3 0 0 1 .195-.098h161.456a.301.301 0 0 1 .273.301.303.303 0 0 1-.273.301Zm0 38.652H91.432a.3.3 0 0 1-.195-.504.3.3 0 0 1 .195-.098h161.456a.301.301 0 0 1 .273.301.303.303 0 0 1-.273.301Zm-95.385 38.653h-66.07a.304.304 0 0 1-.274-.302.303.303 0 0 1 .273-.301h66.071a.301.301 0 0 1 .273.301.305.305 0 0 1-.078.204.306.306 0 0 1-.195.098Z" fill="#002E5D"/><path d="M203.972 172.861H93.995v9.781h109.977v-9.781Zm-34.764 38.899H93.995v9.78h75.213v-9.78Zm65.211 0h-54.761v9.78h54.761v-9.78Z" fill="#BBD1DC"/><path d="M52.18 84.555c35.911-15.008 74.951-3.372 87.197 25.997 3.895 9.341 4.607 19.351 2.615 29.14a21.073 21.073 0 0 0 2.903 15.527l16.49 25.85c.235.368.365.794.377 1.23a2.41 2.41 0 0 1-.312 1.248 2.411 2.411 0 0 1-.911.907c-.38.214-.812.32-1.248.306l-42.193-1.304a21.147 21.147 0 0 0-11.11 2.8 86.513 86.513 0 0 1-9.461 4.646c-35.912 15.01-74.951 3.371-87.196-25.996-12.246-29.366 6.94-65.341 42.849-80.35Z" fill="#F70431"/><path d="M57.422 206.381c1.649 0 3.31-.053 4.982-.158 9.2-.58 18.328-2.739 27.132-6.419a86.974 86.974 0 0 0 9.487-4.659 20.893 20.893 0 0 1 10.981-2.768l42.197 1.305a2.64 2.64 0 0 0 2.724-2.713 2.645 2.645 0 0 0-.415-1.356l-16.49-25.85a20.719 20.719 0 0 1-2.871-15.35 52.134 52.134 0 0 0 .904-14.809 48.12 48.12 0 0 0-3.533-14.476c-4.086-9.799-11.351-18.013-21.012-23.754-9.379-5.576-20.7-8.664-32.736-8.93a.242.242 0 0 0-.251.24.247.247 0 0 0 .24.252c24.781.55 45.206 12.958 53.305 32.382 3.738 8.965 4.638 18.995 2.601 28.997a21.203 21.203 0 0 0 2.938 15.712l16.49 25.851a2.152 2.152 0 0 1-1.88 3.312l-42.196-1.305a21.39 21.39 0 0 0-11.24 2.831 86.489 86.489 0 0 1-9.436 4.634c-35.73 14.934-74.702 3.33-86.875-25.864a.249.249 0 0 0-.134-.124.25.25 0 0 0-.183.003.248.248 0 0 0-.137.311c3.008 7.215 7.654 13.492 13.808 18.655 5.942 4.985 13.03 8.728 21.07 11.125 6.53 1.944 13.413 2.925 20.53 2.925Z" fill="#002E5D"/><path d="M49.296 126.82c-.453-2.872.006-5.928 1.377-9.167 1.37-3.238 3.67-6.105 6.898-8.6 3.227-2.493 7.196-4.114 11.906-4.861 4.378-.694 8.372-.497 11.982.589 3.61 1.086 6.549 2.875 8.817 5.367 2.269 2.492 3.662 5.371 4.181 8.635.409 2.569.246 4.903-.489 7.003a20.951 20.951 0 0 1-2.917 5.601c-1.213 1.633-3.412 4.406-6.597 8.32a31.895 31.895 0 0 0-2.075 2.862c-.507.809-.864 1.532-1.072 2.169a9.675 9.675 0 0 0-.422 1.88c-.072.615-.157 1.69-.254 3.224-.074 3.235-1.621 5.092-4.64 5.57-1.571.248-2.974-.057-4.21-.914-1.234-.858-2.013-2.3-2.335-4.326-.404-2.542-.361-4.803.13-6.784a16.95 16.95 0 0 1 2.347-5.393c1.073-1.613 2.56-3.56 4.458-5.841 1.664-2 2.858-3.498 3.582-4.496a13.154 13.154 0 0 0 1.717-3.224 7.058 7.058 0 0 0 .339-3.587c-.384-2.418-1.607-4.316-3.668-5.694-2.06-1.379-4.512-1.843-7.353-1.393-3.322.526-5.635 1.752-6.938 3.679-1.303 1.926-2.24 4.607-2.809 8.044-.483 3.579-2.16 5.596-5.034 6.052-1.692.268-3.214-.103-4.566-1.112-1.352-1.01-2.137-2.21-2.355-3.603Zm30.002 46.195c-1.843.291-3.546-.051-5.11-1.027-1.564-.977-2.516-2.538-2.856-4.684-.303-1.904.107-3.612 1.229-5.123 1.122-1.511 2.65-2.419 4.582-2.724 1.904-.302 3.608.095 5.112 1.189s2.408 2.595 2.713 4.502c.336 2.116-.08 3.886-1.246 5.31-1.167 1.424-2.642 2.276-4.424 2.557Z" fill="#fff"/><path d="m51.368 268.234-21.056-16.559 16.54-21.08 21.056 16.559-16.54 21.08Zm228.334 117.524 11.65-20.394.746 17.263 15.006-7.066-3.076 5.666 18.362 4.531h-42.688Z" fill="#F3F8FF"/><path d="M276.253 384.678a.264.264 0 0 0 .136-.041.255.255 0 0 0 .091-.109l9.058-21.197-.583 19.791a.252.252 0 0 0 .03.126.241.241 0 0 0 .214.128.249.249 0 0 0 .125-.033l17.756-10.206-5.419 9.871a.247.247 0 0 0 .199.365l25.85 1.305a.245.245 0 0 0 .097-.012.235.235 0 0 0 .086-.048.247.247 0 0 0 .07-.271.252.252 0 0 0-.132-.141.268.268 0 0 0-.097-.021l-25.457-1.285 5.652-10.294a.246.246 0 0 0-.043-.298.24.24 0 0 0-.298-.038l-18.136 10.419.619-20.646a.248.248 0 0 0-.358-.225.244.244 0 0 0-.114.121l-9.569 22.395a.246.246 0 0 0 .223.344Z" fill="#002E5D"/><path d="m226.404 174.072 3.66 21.307-2.432-.49-2.912 16.005 12.17 2.34 22.757 26.923a5.363 5.363 0 0 1 .355 6.456l-16.448 24.481 1.292 52.322 8.109 53.925h-1.491l6.19 12.414h-27.09l.034-4.779h13.246l3.386-7.55-2.304.038-19.768-68.847-6.749 68.753h-1.757l5.96 12.275-26.888.115-.15-4.848 13.212.042 3.459-7.532-2.727-.073-2.449-103.173-2.484-40.616-8.02-.657a10.363 10.363 0 0 1-7.415-4.071 10.388 10.388 0 0 1-1.923-8.245l5.602-29.096-3.036-10.822 11.821-.851-.427 4.125 2.76.127-4.036 7.843-1.284 1.461-2.529 23.308 8.982 2.201 10.298-6.696-2.032-8.876-6.069 1.835 1.5-27.818-4.827-.715v-8.598l22.454 6.057Z" fill="#fff"/><path d="m204.054 168.043-.104 5.715 18.939 3.298-1.469 16.588 8.627 1.639-3.643-21.208-22.35-6.032Z" fill="#325D9C"/><path d="M195.579 387.445h20.061l3.976-3.712 3.053 6.022h-27.09v-2.31Z" fill="#002E5D"/><path d="m207.269 205.302 1.38-27.989 9.075 1.347-.92 23.524-9.535 3.118Z" fill="#F4B18F"/><path d="M230.577 387.445h20.061l3.976-3.712 3.053 6.022h-27.09v-2.31Z" fill="#002E5D"/><path d="m194.382 207.366-2.248 14.307 11.812 3.298.646 8.761-8.742-.935c-6.363-.988-10.056-7.294-8.572-13.568l2.384-11.873 4.72.01Z" fill="#F70431"/><path d="m189.67 207.356 3.053-16.048-2.928-10.635 11.959-.929-.585 4.361-1.013.051-.661 3.432-2.525 4.104-2.583 15.674-4.717-.01Z" fill="#F4B18F"/><path d="m215.47 212.143-7.52 4.89 5.47 55.535 22.351-6.346 4.72-10.221 6.168 4.394 8.282-15.851a3.687 3.687 0 0 0-.443-4.077l-19.597-23.385-10.788-3.909-6.385 8.686-2.258-9.716Z" fill="#F70431"/><path d="m232.674 267.101-19.254 5.467-1.685 104.896 6.675-.123 6.652-69.123-4.369-15.149 2.977-3.738 23.942 88.133h5.369l-8.108-53.921-1.314-52.449-9.907 14.571-7.395-6.816 6.417-11.748Z" fill="#325D9C"/><path d="m246.656 260.395-14.871 23.767-2.947-2.934 11.649-25.227 6.169 4.394Z" fill="#F4B18F"/><path d="M230.064 195.628a.245.245 0 0 0 .243-.288l-3.661-21.307a.26.26 0 0 0-.06-.126.254.254 0 0 0-.119-.073l-22.45-6.06a.25.25 0 0 0-.284.129.243.243 0 0 0-.026.109v8.602a.246.246 0 0 0 .212.243l15.583 2.311-1.344 13.841a.244.244 0 0 0 .198.265l11.665 2.346a.217.217 0 0 0 .043.008Zm-3.874-21.356 3.576 20.797-11.097-2.23 1.342-13.853a.248.248 0 0 0-.209-.268l-15.605-2.314v-8.067l21.993 5.935Z" fill="#002E5D"/><path d="M207.269 205.548a.253.253 0 0 0 .077-.012l14.497-4.74a.25.25 0 0 0 .136-.124.25.25 0 0 0-.106-.325.248.248 0 0 0-.183-.02l-14.156 4.63 1.299-25.591a.252.252 0 0 0-.063-.178.253.253 0 0 0-.077-.057.232.232 0 0 0-.093-.023.236.236 0 0 0-.095.014.23.23 0 0 0-.082.049.25.25 0 0 0-.081.17l-1.318 25.948a.248.248 0 0 0 .245.259Zm10.446 16.759a.255.255 0 0 0 .111-.026.259.259 0 0 0 .087-.074l5.272-7.135a.247.247 0 0 0-.236-.39.245.245 0 0 0-.161.098l-4.955 6.706-3.589-15.415a.242.242 0 0 0-.11-.153.242.242 0 0 0-.185-.031.258.258 0 0 0-.088.039.255.255 0 0 0-.099.16.258.258 0 0 0 .003.096l3.709 15.932a.25.25 0 0 0 .19.185.272.272 0 0 0 .051.008Zm15.914 63.698a.246.246 0 0 0 .204-.108l26.383-38.962a5.75 5.75 0 0 0-.359-6.89l-22.625-26.936a.241.241 0 0 0-.142-.083l-12.085-2.325 1.933-10.755a.26.26 0 0 0-.04-.185.241.241 0 0 0-.158-.101.239.239 0 0 0-.184.04.245.245 0 0 0-.102.158l-1.977 10.996a.248.248 0 0 0 .199.285l12.239 2.354 22.566 26.869a5.256 5.256 0 0 1 .328 6.297l-26.387 38.961a.249.249 0 0 0 .073.348.253.253 0 0 0 .125.037h.009Z" fill="#002E5D"/><path d="M236.581 288.77a.246.246 0 0 0 .168-.426l-10.324-9.675a.24.24 0 0 0-.175-.064.243.243 0 0 0-.17.077.254.254 0 0 0-.067.175.249.249 0 0 0 .076.172l10.324 9.675a.242.242 0 0 0 .168.066Z" fill="#002E5D"/><path d="M228.825 281.502a.24.24 0 0 0 .133-.039.242.242 0 0 0 .091-.104l17.492-37.886a.247.247 0 0 0 .014-.163.25.25 0 0 0-.092-.135l-18.008-13.125a.25.25 0 0 0-.179-.036.251.251 0 0 0-.154.097.249.249 0 0 0 .043.337l17.846 13.002-17.409 37.703a.23.23 0 0 0-.022.093.236.236 0 0 0 .065.177.246.246 0 0 0 .18.079Z" fill="#002E5D"/><path d="M246.904 260.818a.247.247 0 0 0 .143-.447l-6.418-4.575a.248.248 0 0 0-.319.073.248.248 0 0 0-.045.169c.007.06.034.115.079.156l6.418 4.575a.244.244 0 0 0 .142.049Zm-41.734-41.685a.245.245 0 0 0 .137-.041l7.175-4.789a.249.249 0 0 0 .058-.335.246.246 0 0 0-.331-.075l-7.086 4.73c-5.002-1.177-7.947-1.86-8.786-2.037.112-1.845 1.848-17.169 2.537-23.18a.236.236 0 0 0-.046-.189.246.246 0 0 0-.355-.041.246.246 0 0 0-.087.174c-.007.058-.675 5.882-1.319 11.65-.377 3.388-.673 6.093-.879 8.041-.397 3.78-.382 3.795-.281 3.908.042.047.1.076.163.083.298.045 5.563 1.276 9.04 2.095.02.004.04.006.06.006Zm-9.079-2.595a.317.317 0 0 1 .001 0h-.001Zm4.93-26.432a.244.244 0 0 0 .216-.13l3.195-5.912a.241.241 0 0 0 .029-.126.237.237 0 0 0-.038-.123.241.241 0 0 0-.22-.114l-9.437.488a.251.251 0 0 0-.236.262.247.247 0 0 0 .261.235l9.005-.466-2.986 5.528a.241.241 0 0 0-.019.187.244.244 0 0 0 .119.146.235.235 0 0 0 .111.025Z" fill="#002E5D"/><path d="M192.48 190.448a.244.244 0 0 0 .214-.126.247.247 0 0 0 .022-.188l-2.605-9.24 11.356-.881-.544 4.059a.24.24 0 0 0 .053.175c.039.05.097.082.159.09a.242.242 0 0 0 .178-.045.243.243 0 0 0 .097-.155l.585-4.361a.239.239 0 0 0-.01-.106.231.231 0 0 0-.054-.092.252.252 0 0 0-.199-.077l-11.959.929a.247.247 0 0 0-.183.104.244.244 0 0 0-.035.208l2.683 9.53a.248.248 0 0 0 .242.176Zm9.274 43.196a.247.247 0 0 0 .166-.07.248.248 0 0 0-.142-.421l-5.34-.533a10.186 10.186 0 0 1-8.997-12.018l5.085-27.182a.258.258 0 0 0-.001-.096.264.264 0 0 0-.038-.088.237.237 0 0 0-.158-.102.234.234 0 0 0-.095.001.24.24 0 0 0-.191.195l-5.084 27.186a10.69 10.69 0 0 0 5.247 11.274 10.67 10.67 0 0 0 4.184 1.325l5.343.529h.021Z" fill="#002E5D"/><path d="M191.292 207.612c1.589 0 3.783-.01 3.922-.011a.25.25 0 0 0 .248-.248.248.248 0 0 0-.248-.249c-1.444.007-5.25.019-5.526 0a.243.243 0 0 0-.169.066.24.24 0 0 0-.079.164.245.245 0 0 0 .215.261c.119.014.795.017 1.637.017Zm15.783 66.987a.25.25 0 0 0 .066-.009l19.914-5.6a.247.247 0 0 0 .17-.304.249.249 0 0 0-.303-.17l-19.626 5.517-3.105-50.983a.245.245 0 0 0-.26-.23.246.246 0 0 0-.231.26l3.123 51.287a.247.247 0 0 0 .247.232h.005Z" fill="#002E5D"/><path d="M209.417 377.71h8.981a.245.245 0 0 0 .245-.222l6.755-68.847a.245.245 0 0 0-.221-.258.243.243 0 0 0-.176.051.243.243 0 0 0-.092.158l-6.737 68.623h-8.519l-2.337-102.871a.25.25 0 0 0-.254-.243.25.25 0 0 0-.243.254l2.344 103.112a.238.238 0 0 0 .076.175.243.243 0 0 0 .178.068Z" fill="#002E5D"/><path d="M244.927 377.71h8.054a.257.257 0 0 0 .103-.022.257.257 0 0 0 .134-.157.252.252 0 0 0 .007-.106l-8.125-54.032-1.291-52.307a.246.246 0 0 0-.246-.24h-.007a.244.244 0 0 0-.239.252l1.291 52.322a.15.15 0 0 0 0 .03l8.085 53.768h-7.582l-24.184-84.217a.244.244 0 0 0-.301-.157.249.249 0 0 0-.172.293l24.239 84.395a.242.242 0 0 0 .234.178ZM195.574 390h27.096a.241.241 0 0 0 .209-.117.245.245 0 0 0 .01-.24l-4.906-9.676a.246.246 0 0 0-.453.036.243.243 0 0 0 .015.187l4.723 9.318h-26.443v-4.345h13.079a.248.248 0 0 0 .226-.147l2.123-4.839a.245.245 0 0 0-.126-.324.245.245 0 0 0-.324.125l-2.059 4.692h-13.17a.248.248 0 0 0-.174.071.249.249 0 0 0-.072.174v4.839c0 .032.006.064.018.094a.257.257 0 0 0 .134.134c.03.012.062.018.094.018Zm35.003 0h27.09c.042 0 .083-.01.12-.031a.244.244 0 0 0 .1-.326l-4.907-9.676a.243.243 0 0 0-.33-.107.248.248 0 0 0-.108.33l4.721 9.318h-26.444v-4.345h13.083a.245.245 0 0 0 .225-.147l2.123-4.839a.245.245 0 0 0-.314-.329.254.254 0 0 0-.136.13l-2.058 4.692h-13.165a.246.246 0 0 0-.247.245v4.839a.254.254 0 0 0 .072.174c.023.023.05.041.08.054.03.012.062.018.095.018Z" fill="#002E5D"/><path d="M162.341 390h194.41a.238.238 0 0 0 .099-.014.25.25 0 0 0 .163-.232.25.25 0 0 0-.262-.246h-194.41a.256.256 0 0 0-.099.014.25.25 0 0 0-.163.232.25.25 0 0 0 .262.246Z" fill="#002E5D"/><path d="m312.575 250.277 14.671 11.538-11.524 14.687-14.67-11.537 11.523-14.688Z" fill="#F3F8FF"/></g><defs><clipPath id="a"><path fill="#fff" transform="matrix(-1 0 0 1 308 0)" d="M0 0h308v390H0z"/></clipPath></defs></svg>