<svg width="48" height="16" fill="none" xmlns="http://www.w3.org/2000/svg"><g clip-path="url(#a)"><path d="M20.827 15.416H16.97L19.383.568h3.855l-2.411 14.848ZM34.805.932A9.54 9.54 0 0 0 31.346.3c-3.808 0-6.489 2.021-6.506 4.912-.031 2.132 1.92 3.317 3.38 4.028 1.492.727 1.999 1.2 1.999 1.848-.015.995-1.206 1.454-2.316 1.454-1.54 0-2.364-.237-3.618-.79l-.508-.237-.54 3.333c.905.41 2.572.774 4.301.79 4.046 0 6.68-1.99 6.711-5.07.016-1.691-1.015-2.986-3.236-4.044-1.349-.68-2.175-1.138-2.175-1.833.016-.632.699-1.28 2.221-1.28a6.574 6.574 0 0 1 2.872.57l.35.157.524-3.206Zm5.125 9.224 1.539-4.154c-.016.031.317-.869.507-1.422l.27 1.28s.73 3.554.889 4.296H39.93ZM44.69.568h-2.983c-.92 0-1.619.269-2.016 1.232l-5.727 13.616h4.046l.81-2.228h4.95c.11.522.46 2.228.46 2.228h3.57L44.69.568Zm-30.94 0L9.974 10.693 9.56 8.64c-.698-2.37-2.887-4.944-5.33-6.224L7.688 15.4h4.078L17.826.568H13.75Z" fill="#00579F"/><path d="M6.467.568H.263L.2.868C5.04 2.1 8.244 5.07 9.561 8.64L8.213 1.816C7.99.868 7.308.6 6.467.568Z" fill="#FAA61A"/></g><defs><clipPath id="a"><path fill="#fff" transform="translate(.2 .3)" d="M0 0h47.6v15.403H0z"/></clipPath></defs></svg>