<svg width="31" height="32" fill="none" xmlns="http://www.w3.org/2000/svg"><g clip-path="url(#a)"><path d="M0 31.407h7.597l2.813-11.05h4.783V18.03h-4.158l.782-2.908-4.566-2.036-.78 1.971L0 31.407Zm11.254-18.03c1.554 0 2.814-1.302 2.814-2.908 0-1.606-1.26-2.908-2.814-2.908S8.44 8.863 8.44 10.469c0 1.606 1.26 2.908 2.814 2.908Z" fill="#002E5D"/><path d="M30.387 31.407H22.79l-2.814-11.05h-4.783V18.03h4.158l-.782-2.908 4.566-2.036.78 1.971 6.47 16.35Zm-11.254-18.03c-1.554 0-2.813-1.302-2.813-2.908 0-1.606 1.26-2.908 2.813-2.908 1.554 0 2.814 1.302 2.814 2.908 0 1.606-1.26 2.908-2.814 2.908Z" fill="#325D9C"/><path d="M20.256 1.163H10.127v4.653h10.129V1.163ZM23.634 0H6.752v1.163h16.882V0ZM7.313 1.163h.281v1.745l.282.582h-.844l.281-.582V1.163Z" fill="#002E5D"/></g><defs><clipPath id="a"><path fill="#fff" d="M0 0h31v32H0z"/></clipPath></defs></svg>