<svg width="24" height="24" fill="none" xmlns="http://www.w3.org/2000/svg"><g fill="#325D9C"><path d="M22.494 15.931V8.466l-1.406.469v6.996a2.213 2.213 0 0 0-1.506 2.094v3.766c0 .388.315.703.703.703h3.013A.703.703 0 0 0 24 21.79v-3.766c0-.972-.632-1.8-1.507-2.094Zm-11.16-4.189L4.52 9.47v4.79c0 .186.074.365.206.497A10.223 10.223 0 0 0 12 17.77a10.22 10.22 0 0 0 7.275-3.013.703.703 0 0 0 .206-.498V9.47l-6.814 2.272a2.11 2.11 0 0 1-1.334 0Z"/><path d="M12 10.444c.075 0 .15-.012.222-.036L23.52 6.642a.703.703 0 0 0 0-1.334L12.222 1.542a.704.704 0 0 0-.444 0L.48 5.308a.703.703 0 0 0 0 1.334l11.297 3.766a.704.704 0 0 0 .222.036Z"/></g></svg>