<svg width="20" height="20" fill="none" xmlns="http://www.w3.org/2000/svg"><g fill="#fff"><path d="M15 9a1 1 0 1 0 0-2 1 1 0 0 0 0 2Z"/><path d="M16.875 1.563h-1.016V.78a.781.781 0 0 0-1.562 0v.781h-3.555v-.78a.781.781 0 0 0-1.562 0v.78H5.664v-.78a.781.781 0 1 0-1.562 0v.78h-.977A3.129 3.129 0 0 0 0 4.688v12.188A3.129 3.129 0 0 0 3.125 20h5.977a.781.781 0 1 0 0-1.563H3.125c-.862 0-1.563-.7-1.563-1.562V4.687c0-.861.701-1.562 1.563-1.562h.977v.781a.781.781 0 1 0 1.562 0v-.781H9.18v.781a.781.781 0 1 0 1.562 0v-.781h3.555v.781a.781.781 0 1 0 1.562 0v-.781h1.016c.862 0 1.563.7 1.563 1.563V9.14a.781.781 0 0 0 1.562 0V4.687a3.129 3.129 0 0 0-3.125-3.125Z"/><path d="M15.5 11a4.505 4.505 0 0 0-4.5 4.5c0 2.481 2.019 4.5 4.5 4.5s4.5-2.019 4.5-4.5-2.019-4.5-4.5-4.5Zm0 7.512a3.016 3.016 0 0 1-3.012-3.012 3.016 3.016 0 0 1 3.012-3.012 3.016 3.016 0 0 1 3.012 3.012 3.016 3.016 0 0 1-3.012 3.012Z"/><path d="M16.13 14.518h-.39v-.777c0-.41-.39-.741-.87-.741s-.87.332-.87.74v1.52c0 .408.39.74.87.74h1.26c.48 0 .87-.332.87-.74 0-.41-.39-.742-.87-.742ZM12 9a1 1 0 1 0 0-2 1 1 0 0 0 0 2Zm-3 4a1 1 0 1 0 0-2 1 1 0 0 0 0 2ZM5 9a1 1 0 1 0 0-2 1 1 0 0 0 0 2Zm0 4a1 1 0 1 0 0-2 1 1 0 0 0 0 2Zm0 3a1 1 0 1 0 0-2 1 1 0 0 0 0 2Zm4 0a1 1 0 1 0 0-2 1 1 0 0 0 0 2Zm0-7a1 1 0 1 0 0-2 1 1 0 0 0 0 2Z"/></g></svg>