<svg width="24" height="24" fill="none" xmlns="http://www.w3.org/2000/svg"><g fill="#325D9C"><path d="M19 22.75H5A3.755 3.755 0 0 1 1.25 19V7A3.755 3.755 0 0 1 5 3.25h14A3.755 3.755 0 0 1 22.75 7v12A3.755 3.755 0 0 1 19 22.75Zm-14-18A2.253 2.253 0 0 0 2.75 7v12A2.253 2.253 0 0 0 5 21.25h14A2.253 2.253 0 0 0 21.25 19V7A2.253 2.253 0 0 0 19 4.75H5Z"/><path d="M22 9.75H2A.75.75 0 0 1 1.25 9V7A3.755 3.755 0 0 1 5 3.25h14A3.755 3.755 0 0 1 22.75 7v2a.75.75 0 0 1-.75.75ZM2.75 8.25h18.5V7A2.253 2.253 0 0 0 19 4.75H5A2.253 2.253 0 0 0 2.75 7v1.25Z"/><path d="M16 6.75a.75.75 0 0 1-.75-.75V2a.75.75 0 1 1 1.5 0v4a.75.75 0 0 1-.75.75Zm-8 0A.75.75 0 0 1 7.25 6V2a.75.75 0 0 1 1.5 0v4a.75.75 0 0 1-.75.75ZM2 9v9a4 4 0 0 0 4 4h12a4 4 0 0 0 4-4V9H2Zm4 9a1 1 0 1 1 0-2 1 1 0 0 1 0 2Zm0-4a1 1 0 1 1 0-2 1 1 0 0 1 0 2Zm4 4a1 1 0 1 1 0-2 1 1 0 0 1 0 2Zm0-4a1 1 0 1 1 0-2 1 1 0 0 1 0 2Zm4 4a1 1 0 1 1 0-2 1 1 0 0 1 0 2Zm0-4a1 1 0 1 1 0-2 1 1 0 0 1 0 2Zm4 4a1 1 0 1 1 0-2 1 1 0 0 1 0 2Zm0-4a1 1 0 1 1 0-2 1 1 0 0 1 0 2Z"/></g></svg>