<svg width="40" height="40" fill="none" xmlns="http://www.w3.org/2000/svg"><g clip-path="url(#a)"><path d="m37.96 6.314-2.258-2.257a1.86 1.86 0 0 0-2.63 0l-9.14 9.139-1.994 1.993-2.655 2.654-.272.271-1.857-1.857-2.374-2.375a1.86 1.86 0 0 0-2.63 0L9.892 16.14a1.86 1.86 0 0 0 0 2.63l.243.242 4.48 4.48 1.993 1.994 1.089 1.088a1.858 1.858 0 0 0 2.63 0l8.846-8.846 1.994-1.993 6.792-6.79a1.86 1.86 0 0 0 0-2.63Z" fill="#F70431"/><path d="M35.681 21.058h-.052a1.971 1.971 0 0 0-1.894 1.62c-1.269 6.918-7.292 12.194-14.545 12.301l-.225.002c-1.095 0-2.187-.119-3.256-.356-6.72-1.49-11.76-7.498-11.76-14.66 0-8.511 6.99-15.024 15.003-15.024a14.855 14.855 0 0 1 1.776.107c.08.01.159.014.238.014l.067-.001a1.972 1.972 0 0 0 .163-3.928A18.936 18.936 0 0 0 5.557 6.557c-9.213 9.213-6.502 24.475 4.679 30.247a19.26 19.26 0 0 0 4.394 1.633c1.417.337 2.87.508 4.326.508 8.903 0 17.014-6.39 18.665-15.566a1.97 1.97 0 0 0-1.94-2.32Z" fill="#F70431"/><path d="m19.284 17.843-2.13-1.586 1.858 1.858.272-.272Z" fill="#002E5D"/><path d="M31.682 2.794a1.86 1.86 0 0 1 2.602-.38l2.56 1.907a1.858 1.858 0 0 1 .38 2.603l-8.05 10.804-6.847 9.19a1.86 1.86 0 0 1-2.601.38l-.302-.225-4.808-3.58-3.742-2.788a1.859 1.859 0 0 1-.738-1.693l-.243-.243a1.677 1.677 0 0 1-.106-.115 2.273 2.273 0 0 0 .844 2.378l5.98 4.454 2.172 1.619.7.52a2.266 2.266 0 0 0 3.172-.463l8.514-11.427 5.751-7.718.633-.85a2.269 2.269 0 0 0-.466-3.172l-2.56-1.908a2.267 2.267 0 0 0-3.172.464L26.4 9.2l-4.462 5.988 1.993-1.993 7.751-10.402Z" fill="#002E5D"/><path d="M39.995 20.077a2.38 2.38 0 0 0-2.85-2.282l-.007.002a2.38 2.38 0 0 0-1.907 2.38c.006.313.002.625-.012.935.134-.032.272-.05.41-.053.012-.295.016-.592.01-.89a1.973 1.973 0 0 1 1.58-1.973h.006a1.972 1.972 0 0 1 2.362 1.89c.202 9.32-6.48 17.193-15.205 18.96-2.389.482-4.93.509-7.526-.019a19.393 19.393 0 0 1-2.226-.59C3.065 34.612-2.223 20.581 4.823 9.958a18.929 18.929 0 0 1 14.252-8.42 1.972 1.972 0 0 1 .318 3.93c-.592.048-1.18.13-1.762.248-7.855 1.59-13.413 9.36-11.724 17.702 1.09 5.386 4.954 9.517 9.802 11.206a15.007 15.007 0 0 0 3.481.354c-6.214-.617-11.582-5.209-12.884-11.64-1.599-7.9 3.518-15.625 11.406-17.222a14.526 14.526 0 0 1 1.713-.242 2.378 2.378 0 0 0-.384-4.742 19.346 19.346 0 0 0-14.559 8.6 19.666 19.666 0 0 0-2.207 4.456 19.01 19.01 0 0 0-.973 4.631 19.224 19.224 0 0 0 .179 4.61 19.656 19.656 0 0 0 3.485 8.407 19.357 19.357 0 0 0 3.148 3.404 19.115 19.115 0 0 0 3.966 2.596 19.738 19.738 0 0 0 8.617 1.986 19.042 19.042 0 0 0 7.002-1.338 19.415 19.415 0 0 0 2.981-1.49 19.635 19.635 0 0 0 6.84-7.08 19.306 19.306 0 0 0 1.388-3.048 19.055 19.055 0 0 0 1.087-6.79Z" fill="#002E5D"/></g><defs><clipPath id="a"><path fill="#fff" d="M0 0h40v40H0z"/></clipPath></defs></svg>