<svg width="16" height="16" fill="none" xmlns="http://www.w3.org/2000/svg"><g fill="#F43855"><path d="m8 7.048 6.795-4.237a1.438 1.438 0 0 0-.225-.02H1.43c-.077 0-.152.008-.225.02L8 7.048Z"/><path d="m8.428 8.686-.029.015-.03.016a.803.803 0 0 1-.164.064l-.017.004A.819.819 0 0 1 8 8.808a.807.807 0 0 1-.187-.023l-.017-.004a.826.826 0 0 1-.195-.08l-.028-.015-7.55-4.708c-.014.08-.023.16-.023.245v7.555c0 .79.64 1.43 1.43 1.43h13.14c.79 0 1.43-.64 1.43-1.43V4.223c0-.084-.009-.165-.023-.245l-7.55 4.708Z"/></g></svg>