<svg width="20" height="20" fill="none" xmlns="http://www.w3.org/2000/svg"><g fill="#325D9C"><path d="M16.875 3.75c-3.475 0-6.456-2.337-6.488-2.362a.625.625 0 0 0-.774 0c-.032.025-3 2.362-6.488 2.362a.625.625 0 0 0-.625.625V10c0 4.194 1.694 6.25 7.244 8.694a.625.625 0 0 0 .512 0c5.55-2.444 7.244-4.5 7.244-8.694V4.375a.625.625 0 0 0-.625-.625ZM10 15a5 5 0 1 1 0-10 5 5 0 0 1 0 10Z"/><path d="M11.431 8.306 9.375 10.37l-.806-.813a.627.627 0 1 0-.888.888l1.25 1.25a.626.626 0 0 0 .888 0l2.5-2.5a.628.628 0 1 0-.888-.888Z"/></g></svg>