<svg width="24" height="24" fill="none" xmlns="http://www.w3.org/2000/svg"><g fill="#325D9C" clip-path="url(#a)"><path d="M23.297 6.421h-.776c-.045.065-8.344 8.373-8.344 8.373-.262.261-.588.45-.945.546l-2.7.724c-.734.218-1.554-.019-2.086-.58a2.081 2.081 0 0 1-.511-2.015l.724-2.701a2.11 2.11 0 0 1 .546-.946l3.402-3.401H6.094v17.578h17.203a.703.703 0 0 0 .703-.703V7.124a.703.703 0 0 0-.703-.703ZM20.836 19.96h-.654a2.216 2.216 0 0 1-1.698-.79.805.805 0 0 0-.667-.288.806.806 0 0 0-.63.36l-.647.966a2.215 2.215 0 0 1-1.845.986 2.215 2.215 0 0 1-1.845-.986l-.646-.966a.806.806 0 0 0-.63-.36.806.806 0 0 0-.668.289 2.216 2.216 0 0 1-1.697.789h-.654a.703.703 0 1 1 0-1.406h.654c.24 0 .467-.106.622-.29a2.2 2.2 0 0 1 1.82-.786 2.2 2.2 0 0 1 1.722.983l.646.965a.8.8 0 0 0 .676.361.802.802 0 0 0 .677-.361l.645-.965a2.2 2.2 0 0 1 1.722-.983 2.198 2.198 0 0 1 1.821.787.815.815 0 0 0 .622.289h.654a.703.703 0 0 1 0 1.406ZM4.688 6.421v17.578H.703a.703.703 0 0 1 0-1.406h1.172v-1.828H.703a.703.703 0 0 1 0-1.407h1.172V17.53H.703a.703.703 0 0 1 0-1.406h1.172v-1.828H.703a.703.703 0 0 1 0-1.406h1.172v-1.828H.703a.703.703 0 0 1 0-1.407h1.172V7.827H.703a.703.703 0 0 1 0-1.406h3.985Z"/><path d="m18.39 2.626 2.984 2.983-8.19 8.19a.703.703 0 0 1-.316.183l-2.718.728a.676.676 0 0 1-.675-.185.677.677 0 0 1-.186-.676l.73-2.717a.702.702 0 0 1 .18-.316l8.192-8.19Zm5.61.065a.703.703 0 0 1-.206.497l-1.426 1.427-2.983-2.984L20.81.205a.707.707 0 0 1 .994 0l1.99 1.989c.131.132.205.31.205.497Z"/></g><defs><clipPath id="a"><path fill="#fff" d="M0 0h24v24H0z"/></clipPath></defs></svg>