<svg width="24" height="24" fill="none" xmlns="http://www.w3.org/2000/svg"><g clip-path="url(#a)"><path fill-rule="evenodd" clip-rule="evenodd" d="M10.014.75a9.265 9.265 0 1 0 3.138 17.984 1.556 1.556 0 0 1-.212-.64c-.01-.067-.018-.188-.036-.265-.06-.055-.16-.122-.216-.166-.223-.175-.407-.37-.506-.642-.099-.274-.08-.54-.02-.817.014-.066.048-.185.057-.263-.03-.059-.088-.14-.118-.187-.125-.195-.228-.386-.268-.617a1.133 1.133 0 0 1-.001-.388H5.004a5.01 5.01 0 0 1 8.29-3.787c.178-.184.398-.288.642-.368.066-.022.183-.05.256-.082.044-.067.093-.178.126-.24.133-.25.292-.466.543-.61.251-.146.517-.175.8-.165.069.003.19.015.269.011.064-.049.147-.136.2-.183.211-.19.435-.336.72-.386.285-.05.545.01.809.117.065.026.173.08.25.103.076-.023.185-.076.249-.102.263-.106.522-.17.808-.12.092.017.178.043.26.078C18.725 4.37 14.793.75 10.014.75Zm6.738 20.167-1.086 2.333-.935-1.61-1.834.32 1.221-2.623a.918.918 0 0 1 .076.027c.043.067.092.178.125.239.133.25.292.465.542.61.252.145.517.175.8.165.07-.002.19-.015.27-.01.063.048.147.136.199.182.186.168.382.303.622.367Zm5.212-1.664.955 2.216-1.824-.373-.982 1.581-.8-1.859c.133-.07.255-.162.373-.267.052-.047.136-.134.2-.183.08-.005.2.008.268.01.284.01.549-.018.8-.163.252-.145.41-.36.544-.611.033-.062.082-.173.125-.24.073-.031.19-.06.256-.082.029-.01.057-.019.085-.03Zm1.28-4.384c.058.33-.332.618-.39.941-.053.305.174.68.074.955-.1.277-.518.419-.671.684-.154.265-.069.698-.257.923-.188.224-.629.216-.864.414-.233.196-.3.631-.557.78-.25.144-.664-.013-.953.091-.284.103-.496.49-.79.541-.295.052-.627-.238-.929-.238-.307 0-.642.29-.927.24-.291-.052-.503-.438-.79-.542-.288-.106-.7.052-.953-.094-.254-.147-.322-.582-.557-.78-.235-.196-.675-.186-.865-.412-.188-.224-.103-.655-.257-.923-.152-.263-.57-.405-.67-.684-.1-.273.129-.646.074-.955-.05-.284-.344-.538-.39-.803-.059-.33.332-.618.389-.941.054-.305-.174-.68-.074-.955.101-.277.519-.42.672-.684.153-.265.068-.698.257-.923.188-.224.628-.216.864-.414.233-.196.3-.632.556-.78.251-.144.665.013.954-.091.284-.103.496-.49.79-.542.295-.052.626.239.928.238.307 0 .642-.29.928-.239.29.051.503.438.79.542.288.106.7-.053.953.094.254.147.322.582.557.78.234.195.675.186.864.412.189.224.103.655.258.923.152.262.569.404.67.684.1.273-.13.646-.075.955.05.284.344.538.391.803Zm-5.336-3.947a4.01 4.01 0 0 1 2.84 1.176 4.003 4.003 0 0 1 1.175 2.84c0 1.109-.45 2.113-1.176 2.84a4.003 4.003 0 0 1-2.84 1.176 4.003 4.003 0 0 1-2.839-1.177 4.003 4.003 0 0 1-1.176-2.84c0-1.108.45-2.112 1.176-2.838a4.003 4.003 0 0 1 2.84-1.177Zm2.309 1.707c.59.59.956 1.407.956 2.309 0 .902-.365 1.718-.956 2.31a3.256 3.256 0 0 1-2.31.955 3.256 3.256 0 0 1-2.308-.956 3.256 3.256 0 0 1-.957-2.31c0-.9.366-1.717.957-2.308a3.256 3.256 0 0 1 2.309-.957c.902 0 1.718.366 2.309.957Zm-2.31-.103.618 1.511 1.628.12-1.246 1.055.389 1.585-1.388-.86-1.388.86.389-1.585-1.247-1.055 1.628-.12.618-1.511Zm-7.892-8.322a2.533 2.533 0 1 1 0 5.066 2.533 2.533 0 0 1 0-5.066Z" fill="#fff"/></g><defs><clipPath id="a"><path fill="#fff" d="M0 0h24v24H0z"/></clipPath></defs></svg>