<svg width="322" height="173" fill="none" xmlns="http://www.w3.org/2000/svg"><path d="M137.561 80.62 109.05 37.486 97.398 55.117l16.855 25.504h23.308Zm-86.767 52.776h23.304l-4.169 6.309H46.625l4.169-6.309Zm32.871-14.467-4.055 6.134H56.305l4.055-6.134h23.305Zm9.559-14.467-4.055 6.134H65.868l4.052-6.134h23.305Zm95.078 26.924-11.207 16.957H120.93l39.29-59.447 28.082 42.49ZM247.055 0l-71.051 35.479 13.585 8.982-.002.001-13.81 20.89 28.083 42.489 24.811-37.536v-.002l13.587 8.984L247.055 0Zm64.42 165.139H0l22.829-8.933h265.818l22.828 8.933Z" fill="#BBD1DC"/><path d="m222.515 59.644-40.07 60.483 1.845 1.223 40.07-60.484-1.845-1.222Zm72.932-6.641-21.545 32.595 1.854 1.226 21.545-32.595-1.854-1.226Zm-81.393 34.833-24.55 37.145-11.652 17.634 11.652 17.63 11.653-17.63 36.205-54.779h-23.308Zm34.918-52.829 11.652 17.634-15.842 23.967h-23.305l27.495-41.601Zm29.601-9.526-2.66 4.025-10.296 15.576-11.652-17.632 5.729-8.668 2.662-4.025 16.217 10.724Z" fill="#F70431"/><path d="M281.552 33.234 283.543.33l-29.484 14.722 27.493 18.18ZM80.626 61.101l11.651 17.63-28.651 43.352H40.32l40.306-60.982Z" fill="#F70431"/><path d="M27.575 159.872h23.823v-6.62H27.575v6.62Z" fill="#325D9C"/><path d="M27.573 159.872h11.986v-6.62H27.573v6.62Z" fill="#325D9C" style="mix-blend-mode:multiply" opacity=".22"/><path d="M51.401 159.872h9.22v-6.62h-9.22v6.62Z" fill="#325D9C"/><path d="M39.212 159.872h1.081v-6.62h-1.081v6.62Zm11.648 0h1.081v-6.62H50.86v6.62Z" fill="#fff"/><path d="M27.578 161.471H60.62v-1.599H27.578v1.599Zm1.809-9.818h23.824v-6.62H29.388v6.62Z" fill="#325D9C"/><path d="M29.39 151.653h11.985v-6.62H29.389v6.62Z" fill="#325D9C" style="mix-blend-mode:multiply" opacity=".22"/><path d="M53.214 151.653h9.22v-6.62h-9.22v6.62Z" fill="#325D9C"/><path d="M41.024 151.653h1.081v-6.62h-1.08v6.62Zm11.648 0h1.082v-6.62h-1.081v6.62Z" fill="#fff"/><path d="M29.39 153.254h33.044v-1.599H29.39v1.599Zm-4.346-9.818h23.823v-6.62H25.044v6.62Z" fill="#325D9C"/><path d="M25.042 143.436h11.985v-6.62H25.042v6.62Z" fill="#325D9C" style="mix-blend-mode:multiply" opacity=".22"/><path d="M48.87 143.436h9.22v-6.62h-9.22v6.62Z" fill="#325D9C"/><path d="M36.68 143.436h1.082v-6.62H36.68v6.62Zm11.645 0h1.081v-6.62h-1.081v6.62Z" fill="#fff"/><path d="M25.046 145.035H58.09v-1.599H25.046v1.599Zm4.341-9.82h23.824v-6.62H29.388v6.62Z" fill="#325D9C"/><path d="M29.39 135.215h11.985v-6.62H29.389v6.62Z" fill="#325D9C" style="mix-blend-mode:multiply" opacity=".22"/><path d="M53.214 135.215h9.22v-6.62h-9.22v6.62Z" fill="#325D9C"/><path d="M41.024 135.215h1.081v-6.62h-1.08v6.62Zm11.648 0h1.082v-6.62h-1.081v6.62Z" fill="#fff"/><path d="M29.39 136.814h33.044v-1.599H29.39v1.599Z" fill="#325D9C"/><path d="m28.926 122.674 1.863 1.232 1.231-1.864-1.863-1.231-1.23 1.863Zm4.039-6.113 1.863 1.231 1.231-1.863-1.862-1.231-1.232 1.863Zm4.04-6.116 1.862 1.231 1.231-1.863-1.862-1.231-1.231 1.863Zm4.042-6.115 1.863 1.231 1.231-1.863-1.862-1.231-1.232 1.863Zm4.036-6.115 1.862 1.231 1.231-1.863-1.862-1.231-1.231 1.863Zm231.062-38.19 1.863 1.231 1.231-1.863-1.863-1.231-1.231 1.863Zm4.039-6.115 1.863 1.231 1.231-1.863-1.863-1.231-1.231 1.863Zm4.039-6.115 1.863 1.231 1.231-1.863-1.863-1.231-1.231 1.863Zm4.043-6.116 1.863 1.23 1.231-1.862-1.863-1.231-1.231 1.863Zm4.039-6.115 1.863 1.231 1.231-1.863-1.863-1.231-1.231 1.863Z" fill="#F70431"/><path d="m105.631 125.262 54.837-12.167c1.487-.329 3.19.58 3.81 2.028l18.222 42.415c.623 1.45-.077 2.896-1.562 3.223l-33.253 7.386-11.078 2.456-10.494 2.329c-1.483.33-3.193-.578-3.816-2.027l-18.223-42.415c-.628-1.456.072-2.899 1.557-3.228Z" fill="#325D9C"/><path d="M189.735 165.505h-23.308l-32.548-49.246-1.883-2.849L87.23 45.679l11.654-17.632 56.419 85.363 1.882 2.849 32.55 49.246Z" fill="#F70431"/><path d="m105.631 125.262 54.837-12.167c1.487-.329 3.19.58 3.81 2.028l11.112 25.863-38.783 29.617-10.494 2.329c-1.483.33-3.193-.578-3.816-2.027l-18.223-42.415c-.628-1.456.072-2.899 1.557-3.228Z" fill="#325D9C" style="mix-blend-mode:multiply" opacity=".5"/><path d="m158.401 92.882 18.222 42.415c.623 1.449.044 3.342-1.294 4.224l-49.387 32.634c-1.339.884-2.928.426-3.551-1.022l-18.222-42.415c-.624-1.449-.045-3.342 1.294-4.226l49.387-32.634c1.339-.886 2.928-.426 3.551 1.024Z" fill="#325D9C"/><path d="M172.409 135.579a2.018 2.018 0 0 1-.87 1.862l-41.94 27.717a.29.29 0 0 1-.217.055.287.287 0 0 1-.187-.122.277.277 0 0 1 .098-.399l41.943-27.716a1.45 1.45 0 0 0 .528-1.715l-12.934-30.092a.282.282 0 0 1-.003-.213.275.275 0 0 1 .361-.156.291.291 0 0 1 .091.059.295.295 0 0 1 .062.09l12.931 30.092c.072.172.119.353.137.538Zm-22.293-35.507a.277.277 0 0 1-.122.259l-40.425 26.713a1.455 1.455 0 0 0-.528 1.715l4.948 11.513a.28.28 0 0 1-.252.388.278.278 0 0 1-.198-.078.276.276 0 0 1-.061-.09l-4.948-11.513a2.008 2.008 0 0 1 .733-2.4l40.422-26.713a.28.28 0 0 1 .431.206Z" fill="#fff"/><path d="m168.481 107.257 4.148 9.653c.472 1.097.033 2.53-.979 3.199l-12.798 8.456c-1.013.669-2.214.322-2.687-.775l-4.147-9.653c-.472-1.097-.034-2.53.979-3.199l12.798-8.458c1.012-.668 2.214-.32 2.686.777Z" fill="#002E5D"/><path d="M161.867 120.38c.586-1.687-.081-3.451-1.49-3.941-1.409-.49-3.026.48-3.612 2.166-.587 1.687.08 3.451 1.489 3.941 1.409.49 3.027-.48 3.613-2.166Z" fill="#fff"/><path d="m321.791 103.949-.41 59.491a6.672 6.672 0 0 1-6.718 6.628l-99.029-.681a6.677 6.677 0 0 1-6.626-6.72l.412-59.49a6.67 6.67 0 0 1 1.987-4.706 6.674 6.674 0 0 1 4.731-1.922l99.027.682a6.675 6.675 0 0 1 6.626 6.718Z" fill="#4A88E3"/><path d="m321.793 103.949-.41 59.491a6.673 6.673 0 0 1-6.719 6.628l-87.875-.608 73.74-72.332 14.646.1a6.675 6.675 0 0 1 6.618 6.721Z" fill="#325D9C"/><path d="M316.782 169.954a6.848 6.848 0 0 1-2.122.321l-99.028-.682a6.888 6.888 0 0 1-6.831-6.929l.17-25.054a.206.206 0 0 1 .412 0l-.17 25.054a6.476 6.476 0 0 0 6.422 6.512l99.027.681a6.472 6.472 0 0 0 6.512-6.423l.41-59.489a6.473 6.473 0 0 0-6.422-6.51l-82.236-.569a.207.207 0 1 1 0-.412l82.236.569a6.89 6.89 0 0 1 6.833 6.928l-.412 59.489a6.9 6.9 0 0 1-4.801 6.514Z" fill="#232323"/><path d="m265.347 140.059-42.538-.297-.029 4.132 42.538.297.029-4.132Zm-15.739 9.906-26.87-.188-.029 4.133 26.87.187.029-4.132Zm45.984 3.81-7.471-.053 11.288-11.7 7.469.051-11.286 11.702Zm-12.451-.087-7.469-.051 11.286-11.702 7.469.053-11.286 11.7Z" fill="#fff"/><path d="M309.779 92.386a43.972 43.972 0 0 1-17.114 34.508l-54.135-.373a44.113 44.113 0 0 1-4.598-4.216 43.786 43.786 0 0 1-12.044-30.527c.171-24.274 19.978-43.817 44.246-43.65a43.924 43.924 0 0 1 30.989 13.085 43.96 43.96 0 0 1 12.656 31.173Z" fill="#FFC15A"/><path d="M309.777 92.386a43.972 43.972 0 0 1-17.114 34.508l-54.135-.373a44.012 44.012 0 0 1-4.598-4.216l.924-.906 61.82-60.642a43.827 43.827 0 0 1 13.103 31.63Z" fill="#AF6215" style="mix-blend-mode:multiply" opacity=".25"/><path d="m295.285 114.115-1.321-.992a35.137 35.137 0 0 0 6.422-27.299 35.153 35.153 0 0 0-15.596-23.306 35.126 35.126 0 0 0-49.813 12.749l-1.45-.792a36.79 36.79 0 0 1 38.161-18.728 36.783 36.783 0 0 1 30.343 29.775 36.795 36.795 0 0 1-6.746 28.593Zm-60.098-1.676a36.607 36.607 0 0 1-6.131-20.612c.01-1.372.095-2.742.256-4.105l1.64.194a35.381 35.381 0 0 0-.244 3.918c-.06 7 1.982 13.858 5.862 19.685l-1.383.92Z" fill="#fff"/><path d="M274.62 106.62c-4.565 5.533-7.956 7.716-12.832 6.081-6.861-2.301-9.324-10.004-6.936-20.257l19.6 6.572.907-2.707-19.765-6.628a44.565 44.565 0 0 1 .801-2.398l19.766 6.628.908-2.707-19.584-6.568c3.746-8.192 9.785-12.762 16.689-10.45 1.817.61 3.628 1.704 4.615 2.897 1.991 2.151 2.265 5.139 1.797 9.71l1.63.052c.681-3.303 1.624-7.226 2.384-10.147-1.471-.852-4.428-3.11-8.546-4.49-9.225-3.094-18.222 1.282-23.321 10.837l-2.936-.985-.908 2.707 2.611.875c-.32.764-.617 1.553-.892 2.368l-2.522-.852-.906 2.707 2.634.884c-2.486 10.297.431 20.76 10.93 24.281 3.633 1.217 7.745 1.325 9.258 1.408 1.377-1.729 4.152-5.883 5.843-8.708l-1.225-1.11Z" fill="#fff"/><path d="M302.924 115.953a.216.216 0 0 1-.17-.024.206.206 0 0 1-.059-.055.203.203 0 0 1-.032-.074.2.2 0 0 1 .028-.155 43.76 43.76 0 0 0-14.369-61.084 43.737 43.737 0 0 0-22.188-6.225c-24.115-.17-43.871 19.322-44.038 43.437a.205.205 0 0 1-.061.146.204.204 0 0 1-.291 0 .204.204 0 0 1-.06-.146 44.158 44.158 0 0 1 36.46-43.171 44.14 44.14 0 0 1 37.807 11.195 44.17 44.17 0 0 1 13.786 36.949 44.154 44.154 0 0 1-6.699 19.118.219.219 0 0 1-.114.089Z" fill="#232323"/><path d="m308.67 121.91-.035 5.096-15.975-.112-54.135-.373-15.615-.108.036-5.098 10.135.07 1.772.014 63.322.437 10.495.074Z" fill="#002E5D"/></svg>