<svg width="16" height="16" fill="none" xmlns="http://www.w3.org/2000/svg"><g fill="#325D9C"><path d="M3.6 5.325h10.8c.175 0 .35.05.525.125V4.3c0-1.125-.9-2.05-2.025-2.1v1.15c0 .275-.225.5-.5.5s-.5-.25-.5-.5V2.2H5.725v1.1c0 .275-.225.5-.5.5s-.5-.25-.5-.5V2.2c-1.15 0-2.1.95-2.1 2.1v1.675c.15-.4.525-.65.975-.65Zm10.325 6.65c-.35.7-1.05 1.125-1.8 1.125H2.75c.3.825 1.075 1.4 1.975 1.4h8.1c1.15 0 2.1-.95 2.1-2.1V9.375c-.075.275-.175.575-.275.85-.2.575-.45 1.175-.725 1.75Z"/><path d="M14.4 6.325H3.6c-.05 0-.075.025-.075.075a17.323 17.323 0 0 1-.85 3.575c-.2.525-.425 1.075-.675 1.6-.1.225.05.525.325.525h9.825c.375 0 .725-.225.9-.55.25-.525.475-1.1.675-1.65.4-1.125.65-2.3.775-3.475 0-.025 0-.05-.025-.075-.025-.025-.05-.025-.075-.025ZM10.6 8.35 8.55 10.4c-.2.2-.525.2-.7 0L6.425 8.975c-.45-.45.25-1.175.7-.7L8.2 9.35l1.7-1.7c.45-.45 1.15.25.7.7Z"/></g></svg>