<svg width="20" height="20" fill="none" xmlns="http://www.w3.org/2000/svg"><g fill="#fff"><path d="m10.001 8.81 8.494-5.297a1.797 1.797 0 0 0-.282-.024H1.79c-.096 0-.19.01-.282.024L10 8.81Z"/><path d="M10.535 10.857c-.012.008-.024.012-.036.02l-.038.019a1.004 1.004 0 0 1-.205.08l-.022.005c-.077.018-.155.03-.233.03H10c-.078 0-.156-.012-.233-.03l-.022-.005a1.029 1.029 0 0 1-.243-.1c-.012-.006-.025-.011-.036-.019L.028 4.972c-.017.1-.028.202-.028.306v9.444c0 .988.8 1.789 1.789 1.789H18.21c.988 0 1.789-.8 1.789-1.789V5.278c0-.104-.01-.206-.028-.306l-9.437 5.885Z"/></g></svg>