<svg width="16" height="16" fill="none" xmlns="http://www.w3.org/2000/svg"><g clip-path="url(#a)"><path d="M13.267 3.133a7.163 7.163 0 0 0-11.702 8 .781.781 0 0 1 .066.549l-.483 1.776a1.167 1.167 0 0 0 1.386 1.445l1.973-.456a.787.787 0 0 1 .5.067c.94.432 1.963.655 2.997.653.41 0 .818-.034 1.221-.101a7.166 7.166 0 0 0 4.042-11.933Zm-5.266 6.7H5.334a.5.5 0 0 1 0-1h2.667a.5.5 0 0 1 0 1Zm2.666-2.666H5.334a.5.5 0 0 1 0-1h5.333a.5.5 0 0 1 0 1Z" fill="#325D9C"/></g><defs><clipPath id="a"><path fill="#fff" d="M0 0h16v16H0z"/></clipPath></defs></svg>