<svg width="21" height="20" fill="none" xmlns="http://www.w3.org/2000/svg"><g clip-path="url(#a)"><path d="M10.677.2C5.363.2 1.055 4.474 1.055 9.748c0 1.804.504 3.49 1.38 4.93L.7 19.8l5.328-1.692a9.643 9.643 0 0 0 4.65 1.188c5.314 0 9.622-4.276 9.622-9.548C20.3 4.474 15.991.2 10.677.2Zm4.784 13.174c-.226.562-1.25 1.074-1.702 1.096-.452.024-.464.35-2.924-.718s-3.94-3.668-4.056-3.836c-.116-.166-.952-1.358-.908-2.558.046-1.2.702-1.766.936-2a.936.936 0 0 1 .666-.28c.194-.004.32-.006.462 0 .144.006.358-.03.544.466.186.496.632 1.712.688 1.838.056.124.092.268.004.428-.088.16-.134.26-.26.398-.128.138-.27.308-.384.414-.128.116-.262.244-.126.494.134.25.598 1.066 1.302 1.738.906.864 1.688 1.152 1.93 1.282.242.132.386.116.534-.04.148-.158.64-.688.814-.926.174-.238.336-.192.558-.102.222.09 1.406.724 1.648.856.242.13.402.198.46.302.058.098.04.586-.186 1.148Z" fill="#fff"/></g><defs><clipPath id="a"><path fill="#fff" transform="translate(.5)" d="M0 0h20v20H0z"/></clipPath></defs></svg>