<svg width="16" height="16" fill="none" xmlns="http://www.w3.org/2000/svg"><g clip-path="url(#a)"><path d="M8 .833A7.167 7.167 0 1 0 15.168 8 7.174 7.174 0 0 0 8.001.833Zm2 4a1.166 1.166 0 1 1 0 2.333 1.166 1.166 0 0 1 0-2.333Zm-4 0a1.167 1.167 0 1 1 0 2.334 1.167 1.167 0 0 1 0-2.334Zm5.565 5.5a4.77 4.77 0 0 1-3.564 1.5 4.768 4.768 0 0 1-3.565-1.5.5.5 0 1 1 .743-.666A3.822 3.822 0 0 0 8 10.833a3.822 3.822 0 0 0 2.822-1.166.5.5 0 1 1 .742.666Z" fill="#325D9C"/></g><defs><clipPath id="a"><path fill="#fff" d="M0 0h16v16H0z"/></clipPath></defs></svg>