<svg width="12" height="12" fill="none" xmlns="http://www.w3.org/2000/svg"><g clip-path="url(#a)"><path d="M1.742 1.766C2.919.59 4.339 0 6 0s3.073.589 4.234 1.766C11.41 2.927 12 4.34 12 6s-.589 3.08-1.766 4.258C9.073 11.42 7.66 12 6 12s-3.08-.58-4.258-1.742C.58 9.081 0 7.661 0 6s.58-3.073 1.742-4.234Zm6.484 5.807a.328.328 0 0 0 .097-.242.39.39 0 0 0-.146-.315L6.774 6V2.516a.322.322 0 0 0-.12-.266.322.322 0 0 0-.267-.121h-.774c-.113 0-.21.04-.29.121a.36.36 0 0 0-.097.266V6.29c0 .307.12.557.363.75l1.62 1.186a.328.328 0 0 0 .243.097.326.326 0 0 0 .29-.146l.484-.604Z" fill="#002E5D"/></g><defs><clipPath id="a"><path fill="#fff" d="M0 0h12v12H0z"/></clipPath></defs></svg>