<svg width="12" height="12" fill="none" xmlns="http://www.w3.org/2000/svg"><g clip-path="url(#a)"><circle cx="6" cy="6" r="6" fill="#F70431"/><path d="M4 9v-.413h.113c.095 0 .192-.01.293-.031a.527.527 0 0 0 .264-.148c.075-.073.113-.182.113-.327V5.71c0-.14-.038-.243-.113-.311a.562.562 0 0 0-.274-.132 1.387 1.387 0 0 0-.283-.032H4v-.413h2.217V8.08c0 .145.035.254.104.327a.586.586 0 0 0 .273.148c.107.02.205.031.293.031H7V9H4Zm1.453-4.878a1.16 1.16 0 0 1-.576-.132.47.47 0 0 1-.226-.429c0-.197.079-.34.236-.429A1.16 1.16 0 0 1 5.462 3c.214 0 .4.044.557.132a.451.451 0 0 1 .245.429.461.461 0 0 1-.245.429 1.139 1.139 0 0 1-.566.132Z" fill="#fff"/></g><defs><clipPath id="a"><path fill="#fff" d="M0 0h12v12H0z"/></clipPath></defs></svg>