<svg width="24" height="24" fill="none" xmlns="http://www.w3.org/2000/svg"><g clip-path="url(#a)"><path d="m2.172 21.416 1.45-2.172-1.45-2.174H.724c-.4 0-.725.325-.725.725v2.897c0 .4.325.724.725.724h1.448Z" fill="#F70431"/><path d="M24 20.692v-2.897c0-.4-.324-.725-.724-.725H2.173c-.4 0-.724.325-.724.725v2.897c0 .4.324.724.724.724h21.103c.4 0 .724-.324.724-.724Z" fill="#325D9C"/><path d="M2.172 14.173 3.622 12l-1.45-2.173H.724c-.4 0-.725.324-.725.724v2.898c0 .4.325.724.725.724h1.448Z" fill="#F70431"/><path d="M24 13.449V10.55c0-.4-.324-.724-.724-.724H2.173c-.4 0-.724.324-.724.724v2.898c0 .4.324.724.724.724h21.103c.4 0 .724-.324.724-.724Z" fill="#325D9C"/><path d="m2.172 6.93 1.45-2.173-1.45-2.173H.724c-.4 0-.725.324-.725.724v2.897c0 .4.325.725.725.725h1.448Z" fill="#F70431"/><path d="M24 6.205V3.308c0-.4-.324-.724-.724-.724H2.173c-.4 0-.724.324-.724.724v2.897c0 .4.324.725.724.725h21.103c.4 0 .724-.325.724-.725Z" fill="#325D9C"/></g><defs><clipPath id="a"><path fill="#fff" transform="rotate(180 12 12)" d="M0 0h24v24H0z"/></clipPath></defs></svg>