<svg width="32" height="32" fill="none" xmlns="http://www.w3.org/2000/svg"><g clip-path="url(#a)"><path d="M16.285.318C7.782.318.89 7.157.89 15.595c0 2.887.806 5.584 2.208 7.888L.32 31.678l8.525-2.707a15.428 15.428 0 0 0 7.44 1.901c8.502 0 15.395-6.842 15.395-15.277C31.68 7.157 24.787.318 16.285.318Zm7.654 21.079c-.361.899-2 1.718-2.723 1.753-.723.039-.742.56-4.678-1.148-3.937-1.71-6.305-5.87-6.49-6.138-.186-.266-1.523-2.173-1.453-4.093.074-1.92 1.123-2.825 1.498-3.2a1.497 1.497 0 0 1 1.065-.448c.31-.006.512-.01.74 0 .23.01.572-.048.87.746.297.793 1.011 2.739 1.1 2.94.09.199.148.43.007.685-.14.256-.214.416-.416.637-.205.221-.432.493-.614.663-.205.185-.42.39-.202.79.214.4.957 1.706 2.083 2.78 1.45 1.383 2.701 1.844 3.088 2.052.388.211.618.186.855-.064.237-.253 1.024-1.1 1.302-1.482.279-.38.538-.307.893-.163s2.25 1.159 2.637 1.37c.387.208.643.317.736.483.093.157.064.938-.298 1.837Z" fill="#fff"/></g><defs><clipPath id="a"><path fill="#fff" d="M0 0h32v32H0z"/></clipPath></defs></svg>