<svg width="24" height="24" viewBox="0 0 24 24" fill="none" xmlns="http://www.w3.org/2000/svg">
<g id="mortarboard (3) 1">
<g id="Group">
<path id="Vector" d="M22.4945 15.931V8.46619L21.0883 8.93494V15.931C20.2138 16.2255 19.582 17.0526 19.582 18.025V21.7906C19.582 22.1789 19.8968 22.4937 20.2852 22.4937H23.2976C23.6859 22.4937 24.0007 22.1789 24.0007 21.7906V18.025C24.0007 17.0526 23.369 16.2255 22.4945 15.931Z" fill="#325D9C"/>
<path id="Vector_2" d="M11.334 11.7418L4.51953 9.47034V14.2594C4.51953 14.4459 4.59364 14.6247 4.7255 14.7566C6.66903 16.6999 9.25292 17.7701 12.0011 17.7701C14.7493 17.7701 17.333 16.6999 19.2761 14.7565C19.408 14.6246 19.482 14.4458 19.482 14.2594V9.47034L12.6678 11.7418C12.202 11.8969 11.7331 11.8748 11.334 11.7418Z" fill="#325D9C"/>
<path id="Vector_3" d="M12 10.4438C12.0751 10.4438 12.1502 10.4317 12.2223 10.4077L23.5192 6.64206C23.8063 6.54634 24 6.27765 24 5.97502C24 5.6724 23.8064 5.40371 23.5192 5.30799L12.2223 1.54238C12.078 1.49434 11.922 1.49434 11.7777 1.54238L0.480797 5.30799C0.193641 5.40366 0 5.67235 0 5.97502C0 6.2777 0.193641 6.54634 0.480797 6.64206L11.7777 10.4077C11.8498 10.4317 11.9249 10.4438 12 10.4438Z" fill="#325D9C"/>
</g>
</g>
</svg>
