<svg width="24" height="24" viewBox="0 0 24 24" fill="none" xmlns="http://www.w3.org/2000/svg">
<g id="calendar (6) 1">
<g id="Layer 2">
<path id="Vector" d="M19 22.75H5C4.00584 22.7487 3.05279 22.3532 2.34981 21.6502C1.64684 20.9472 1.25132 19.9942 1.25 19V7C1.25132 6.00584 1.64684 5.05279 2.34981 4.34981C3.05279 3.64684 4.00584 3.25132 5 3.25H19C19.9942 3.25132 20.9472 3.64684 21.6502 4.34981C22.3532 5.05279 22.7487 6.00584 22.75 7V19C22.7487 19.9942 22.3532 20.9472 21.6502 21.6502C20.9472 22.3532 19.9942 22.7487 19 22.75ZM5 4.75C4.40351 4.75079 3.83167 4.9881 3.40989 5.40989C2.9881 5.83167 2.75079 6.40351 2.75 7V19C2.75079 19.5965 2.9881 20.1683 3.40989 20.5901C3.83167 21.0119 4.40351 21.2492 5 21.25H19C19.5965 21.2492 20.1683 21.0119 20.5901 20.5901C21.0119 20.1683 21.2492 19.5965 21.25 19V7C21.2492 6.40351 21.0119 5.83167 20.5901 5.40989C20.1683 4.9881 19.5965 4.75079 19 4.75H5Z" fill="#325D9C"/>
<path id="Vector_2" d="M22 9.75H2C1.80109 9.75 1.61032 9.67098 1.46967 9.53033C1.32902 9.38968 1.25 9.19891 1.25 9V7C1.25132 6.00584 1.64684 5.05279 2.34981 4.34981C3.05279 3.64684 4.00584 3.25132 5 3.25H19C19.9942 3.25132 20.9472 3.64684 21.6502 4.34981C22.3532 5.05279 22.7487 6.00584 22.75 7V9C22.75 9.19891 22.671 9.38968 22.5303 9.53033C22.3897 9.67098 22.1989 9.75 22 9.75ZM2.75 8.25H21.25V7C21.2492 6.40351 21.0119 5.83167 20.5901 5.40989C20.1683 4.9881 19.5965 4.75079 19 4.75H5C4.40351 4.75079 3.83167 4.9881 3.40989 5.40989C2.9881 5.83167 2.75079 6.40351 2.75 7V8.25Z" fill="#325D9C"/>
<path id="Vector_3" d="M16 6.75C15.8011 6.75 15.6103 6.67098 15.4697 6.53033C15.329 6.38968 15.25 6.19891 15.25 6V2C15.25 1.80109 15.329 1.61032 15.4697 1.46967C15.6103 1.32902 15.8011 1.25 16 1.25C16.1989 1.25 16.3897 1.32902 16.5303 1.46967C16.671 1.61032 16.75 1.80109 16.75 2V6C16.75 6.19891 16.671 6.38968 16.5303 6.53033C16.3897 6.67098 16.1989 6.75 16 6.75Z" fill="#325D9C"/>
<path id="Vector_4" d="M8 6.75C7.80109 6.75 7.61032 6.67098 7.46967 6.53033C7.32902 6.38968 7.25 6.19891 7.25 6V2C7.25 1.80109 7.32902 1.61032 7.46967 1.46967C7.61032 1.32902 7.80109 1.25 8 1.25C8.19891 1.25 8.38968 1.32902 8.53033 1.46967C8.67098 1.61032 8.75 1.80109 8.75 2V6C8.75 6.19891 8.67098 6.38968 8.53033 6.53033C8.38968 6.67098 8.19891 6.75 8 6.75Z" fill="#325D9C"/>
<path id="Vector_5" d="M2 9V18C2 19.0609 2.42143 20.0783 3.17157 20.8284C3.92172 21.5786 4.93913 22 6 22H18C19.0609 22 20.0783 21.5786 20.8284 20.8284C21.5786 20.0783 22 19.0609 22 18V9H2ZM6 18C5.80222 18 5.60888 17.9414 5.44443 17.8315C5.27998 17.7216 5.15181 17.5654 5.07612 17.3827C5.00043 17.2 4.98063 16.9989 5.01921 16.8049C5.0578 16.6109 5.15304 16.4327 5.29289 16.2929C5.43275 16.153 5.61093 16.0578 5.80491 16.0192C5.99889 15.9806 6.19996 16.0004 6.38268 16.0761C6.56541 16.1518 6.72159 16.28 6.83147 16.4444C6.94135 16.6089 7 16.8022 7 17C7 17.2652 6.89464 17.5196 6.70711 17.7071C6.51957 17.8946 6.26522 18 6 18ZM6 14C5.80222 14 5.60888 13.9414 5.44443 13.8315C5.27998 13.7216 5.15181 13.5654 5.07612 13.3827C5.00043 13.2 4.98063 12.9989 5.01921 12.8049C5.0578 12.6109 5.15304 12.4327 5.29289 12.2929C5.43275 12.153 5.61093 12.0578 5.80491 12.0192C5.99889 11.9806 6.19996 12.0004 6.38268 12.0761C6.56541 12.1518 6.72159 12.28 6.83147 12.4444C6.94135 12.6089 7 12.8022 7 13C7 13.2652 6.89464 13.5196 6.70711 13.7071C6.51957 13.8946 6.26522 14 6 14ZM10 18C9.80222 18 9.60888 17.9414 9.44443 17.8315C9.27998 17.7216 9.15181 17.5654 9.07612 17.3827C9.00043 17.2 8.98063 16.9989 9.01921 16.8049C9.0578 16.6109 9.15304 16.4327 9.29289 16.2929C9.43275 16.153 9.61093 16.0578 9.80491 16.0192C9.99889 15.9806 10.2 16.0004 10.3827 16.0761C10.5654 16.1518 10.7216 16.28 10.8315 16.4444C10.9414 16.6089 11 16.8022 11 17C11 17.2652 10.8946 17.5196 10.7071 17.7071C10.5196 17.8946 10.2652 18 10 18ZM10 14C9.80222 14 9.60888 13.9414 9.44443 13.8315C9.27998 13.7216 9.15181 13.5654 9.07612 13.3827C9.00043 13.2 8.98063 12.9989 9.01921 12.8049C9.0578 12.6109 9.15304 12.4327 9.29289 12.2929C9.43275 12.153 9.61093 12.0578 9.80491 12.0192C9.99889 11.9806 10.2 12.0004 10.3827 12.0761C10.5654 12.1518 10.7216 12.28 10.8315 12.4444C10.9414 12.6089 11 12.8022 11 13C11 13.2652 10.8946 13.5196 10.7071 13.7071C10.5196 13.8946 10.2652 14 10 14ZM14 18C13.8022 18 13.6089 17.9414 13.4444 17.8315C13.28 17.7216 13.1518 17.5654 13.0761 17.3827C13.0004 17.2 12.9806 16.9989 13.0192 16.8049C13.0578 16.6109 13.153 16.4327 13.2929 16.2929C13.4327 16.153 13.6109 16.0578 13.8049 16.0192C13.9989 15.9806 14.2 16.0004 14.3827 16.0761C14.5654 16.1518 14.7216 16.28 14.8315 16.4444C14.9414 16.6089 15 16.8022 15 17C15 17.2652 14.8946 17.5196 14.7071 17.7071C14.5196 17.8946 14.2652 18 14 18ZM14 14C13.8022 14 13.6089 13.9414 13.4444 13.8315C13.28 13.7216 13.1518 13.5654 13.0761 13.3827C13.0004 13.2 12.9806 12.9989 13.0192 12.8049C13.0578 12.6109 13.153 12.4327 13.2929 12.2929C13.4327 12.153 13.6109 12.0578 13.8049 12.0192C13.9989 11.9806 14.2 12.0004 14.3827 12.0761C14.5654 12.1518 14.7216 12.28 14.8315 12.4444C14.9414 12.6089 15 12.8022 15 13C15 13.2652 14.8946 13.5196 14.7071 13.7071C14.5196 13.8946 14.2652 14 14 14ZM18 18C17.8022 18 17.6089 17.9414 17.4444 17.8315C17.28 17.7216 17.1518 17.5654 17.0761 17.3827C17.0004 17.2 16.9806 16.9989 17.0192 16.8049C17.0578 16.6109 17.153 16.4327 17.2929 16.2929C17.4327 16.153 17.6109 16.0578 17.8049 16.0192C17.9989 15.9806 18.2 16.0004 18.3827 16.0761C18.5654 16.1518 18.7216 16.28 18.8315 16.4444C18.9414 16.6089 19 16.8022 19 17C19 17.2652 18.8946 17.5196 18.7071 17.7071C18.5196 17.8946 18.2652 18 18 18ZM18 14C17.8022 14 17.6089 13.9414 17.4444 13.8315C17.28 13.7216 17.1518 13.5654 17.0761 13.3827C17.0004 13.2 16.9806 12.9989 17.0192 12.8049C17.0578 12.6109 17.153 12.4327 17.2929 12.2929C17.4327 12.153 17.6109 12.0578 17.8049 12.0192C17.9989 11.9806 18.2 12.0004 18.3827 12.0761C18.5654 12.1518 18.7216 12.28 18.8315 12.4444C18.9414 12.6089 19 12.8022 19 13C19 13.2652 18.8946 13.5196 18.7071 13.7071C18.5196 13.8946 18.2652 14 18 14Z" fill="#325D9C"/>
</g>
</g>
</svg>
