<svg width="40" height="40" viewBox="0 0 40 40" fill="none" xmlns="http://www.w3.org/2000/svg">
<g id="check 1" clip-path="url(#clip0_360_3137)">
<g id="&#208;&#161;&#208;&#187;&#208;&#190;&#208;&#185; 2">
<g id="Layer 1">
<path id="Vector" d="M37.9593 6.31447L35.7016 4.05678C35.3528 3.70817 34.8799 3.51233 34.3868 3.51233C33.8937 3.51233 33.4208 3.70817 33.0721 4.05678L23.9311 13.196L21.9378 15.1892L19.2831 17.8427L19.0113 18.1145L17.1539 16.2572L14.7797 13.8824C14.4309 13.5338 13.958 13.3379 13.4649 13.3379C12.9717 13.3379 12.4988 13.5338 12.15 13.8824L9.89235 16.1398C9.56299 16.4694 9.36936 16.9106 9.34979 17.3761C9.33021 17.8417 9.48612 18.2976 9.78665 18.6536C9.81997 18.6933 9.8552 18.7319 9.89235 18.7695L10.1353 19.0124L14.6152 23.4925L16.6085 25.4858L17.6966 26.5739C17.8693 26.7466 18.0742 26.8836 18.2998 26.977C18.5254 27.0705 18.7672 27.1186 19.0114 27.1186C19.2556 27.1186 19.4973 27.0705 19.7229 26.977C19.9485 26.8836 20.1535 26.7466 20.3261 26.5739C22.6451 24.2551 26.0056 20.895 29.1733 17.728L31.1665 15.7347L37.9591 8.94454C38.1318 8.77188 38.2689 8.56687 38.3624 8.34124C38.4558 8.11561 38.504 7.87377 38.504 7.62954C38.504 7.3853 38.4559 7.14346 38.3624 6.91781C38.269 6.69217 38.132 6.48715 37.9593 6.31447Z" fill="#F70431"/>
<path id="Vector_2" d="M35.6813 21.0585H35.6746C35.6595 21.0585 35.6444 21.0585 35.6293 21.0585C35.1753 21.0689 34.7387 21.2359 34.3935 21.5311C34.0483 21.8263 33.8156 22.2317 33.7348 22.6786C32.4664 29.5959 26.4432 34.8718 19.1902 34.979C19.1152 34.9801 19.0401 34.9806 18.9648 34.9806C17.8699 34.9812 16.7783 34.862 15.7094 34.6252C8.9896 33.1343 3.94886 27.1271 3.94886 19.9647C3.94886 11.4536 10.9382 4.94084 18.9521 4.94084C19.4668 4.9409 19.9813 4.96772 20.4932 5.02118C20.5715 5.02933 20.6498 5.03814 20.7282 5.0476C20.8073 5.05715 20.8869 5.06194 20.9665 5.06195C20.9887 5.06195 21.0107 5.06195 21.0328 5.06089C22.0737 5.02571 22.932 4.16739 22.932 3.09011C22.9324 2.60797 22.7559 2.14243 22.436 1.78169C22.1161 1.42095 21.6751 1.19006 21.1963 1.13277C18.3489 0.793805 15.4617 1.10593 12.7526 2.0456C10.0434 2.98526 7.58305 4.52793 5.55708 6.55721C-3.65626 15.7701 -0.945397 31.0323 10.236 36.8036C10.6724 37.0289 11.1217 37.2394 11.5837 37.4351C12.5697 37.8529 13.5887 38.1877 14.6303 38.4361C16.0474 38.7743 17.4994 38.9452 18.9563 38.9455C27.859 38.9455 35.9697 32.5541 37.6207 23.3794C37.839 22.1703 36.91 21.0585 35.6813 21.0585Z" fill="#F70431"/>
<path id="Vector_3" d="M19.284 17.8428L17.1548 16.2572L19.0122 18.1146L19.284 17.8428Z" fill="#002E5D"/>
<path id="Vector_4" d="M31.6821 2.7942C31.828 2.59839 32.011 2.43323 32.2207 2.30816C32.4304 2.18309 32.6627 2.10054 32.9043 2.06525C33.1459 2.02996 33.3921 2.0426 33.6288 2.10246C33.8655 2.16232 34.0881 2.26822 34.2839 2.41411L36.8444 4.32147C37.0403 4.46732 37.2055 4.65034 37.3306 4.86007C37.4557 5.0698 37.5383 5.30213 37.5736 5.54379C37.6089 5.78544 37.5962 6.03168 37.5363 6.26844C37.4764 6.50519 37.3704 6.72783 37.2245 6.92361L29.1746 17.7279C26.6891 21.0638 24.134 24.493 22.3274 26.918C22.0328 27.3135 21.5932 27.5757 21.1053 27.6471C20.6173 27.7184 20.121 27.593 19.7256 27.2984L19.4236 27.0728L14.6158 23.4925L10.8737 20.7047C10.614 20.5114 10.4092 20.2535 10.2798 19.9567C10.1503 19.6598 10.1007 19.3343 10.1358 19.0124L9.89281 18.7694C9.85536 18.732 9.82013 18.6934 9.78711 18.6536C9.67702 19.089 9.69841 19.5472 9.84856 19.9705C9.99872 20.3937 10.2709 20.763 10.6308 21.0317L16.6106 25.4863L18.7833 27.1048L19.4828 27.6259C19.7215 27.8038 19.9929 27.9329 20.2816 28.0059C20.5702 28.0789 20.8704 28.0943 21.165 28.0512C21.4596 28.0081 21.7428 27.9075 21.9985 27.7549C22.2541 27.6024 22.4773 27.401 22.6551 27.1622C24.5164 24.664 27.3687 20.835 31.1693 15.735L36.9202 8.01674L37.5528 7.16779C37.7306 6.92891 37.8597 6.65731 37.9326 6.36853C38.0055 6.07974 38.0208 5.77942 37.9776 5.48473C37.9343 5.19004 37.8335 4.90675 37.6807 4.65106C37.528 4.39537 37.3263 4.17228 37.0873 3.99454L34.5275 2.08703C34.0453 1.72788 33.4402 1.57496 32.8453 1.6619C32.2504 1.74884 31.7144 2.06851 31.3552 2.55062C31.2602 2.67792 28.9542 5.77204 26.3997 9.20108L21.938 15.1892L23.9312 13.1959L31.6821 2.7942Z" fill="#002E5D"/>
<path id="Vector_5" d="M39.995 20.0766C39.9876 19.7285 39.9038 19.3863 39.7497 19.0741C39.5955 18.7619 39.3747 18.4874 39.1029 18.2698C38.8311 18.0523 38.5148 17.8971 38.1764 17.8151C37.838 17.7331 37.4857 17.7264 37.1445 17.7955L37.138 17.7969C36.592 17.9078 36.1021 18.2067 35.7538 18.6415C35.4054 19.0764 35.2206 19.6196 35.2315 20.1767C35.2373 20.4903 35.2332 20.802 35.2192 21.1117C35.3535 21.0798 35.4909 21.062 35.629 21.0589C35.6412 20.7638 35.6445 20.4672 35.6391 20.1692C35.63 19.7074 35.7831 19.2572 36.0718 18.8967C36.3604 18.5362 36.7664 18.2884 37.2189 18.1964L37.2253 18.1951C38.4297 17.9513 39.5607 18.8569 39.5873 20.0854C39.7889 29.4053 33.1076 37.2788 24.3819 39.0451C21.9934 39.5283 19.4517 39.5546 16.8561 39.0273C16.1031 38.8745 15.3598 38.6771 14.6302 38.4361C3.06543 34.613 -2.2228 20.5816 4.82299 9.95903C6.19759 7.88261 7.9684 6.09783 10.0339 4.70696C12.0995 3.31608 14.4192 2.34645 16.8601 1.85363C17.5916 1.70565 18.3311 1.60077 19.0748 1.53954C19.4923 1.50617 19.9095 1.60659 20.2661 1.82624C20.6227 2.0459 20.9001 2.37338 21.0582 2.76124C21.2162 3.14911 21.2466 3.57721 21.145 3.98352C21.0434 4.38983 20.8151 4.75326 20.4932 5.02113C20.2443 5.22924 19.9473 5.37188 19.6293 5.4361C19.5512 5.45184 19.4722 5.46294 19.3928 5.46932C18.8011 5.51667 18.2127 5.59942 17.6309 5.71712C9.77629 7.30721 4.21806 15.0772 5.90676 23.4191C6.99718 28.8054 10.8611 32.9363 15.7093 34.6251C16.7782 34.862 17.8699 34.9812 18.9647 34.9806C19.0399 34.9806 19.1151 34.98 19.1902 34.9789C12.9763 34.3625 7.608 29.7704 6.30632 23.3382C4.70732 15.439 9.82371 7.71357 17.7118 6.11668C18.2777 6.00216 18.8499 5.92148 19.4254 5.87507C19.5211 5.86745 19.6162 5.85409 19.7102 5.83506C20.3273 5.7086 20.869 5.34249 21.2165 4.81709C21.564 4.29168 21.6888 3.64989 21.5637 3.03253C21.3251 1.85121 20.2406 1.03457 19.0419 1.13318C15.7625 1.40179 12.6056 2.50096 9.86856 4.32711C7.73234 5.75371 5.90163 7.59146 4.48323 9.73313C3.56146 11.1191 2.81937 12.6164 2.27476 14.1893C1.75893 15.6865 1.43218 17.2422 1.30213 18.8204C1.17646 20.3584 1.23644 21.906 1.48077 23.4297C1.96868 26.4662 3.16231 29.3459 4.96569 31.8371C5.87504 33.0935 6.93189 34.2362 8.11356 35.2408C9.32301 36.2673 10.6556 37.1393 12.0805 37.8366C14.7655 39.1419 17.7117 39.8211 20.6972 39.8231C23.0945 39.8217 25.4701 39.3676 27.6989 38.4847C28.7335 38.0748 29.7309 37.5767 30.6802 36.9959C33.5248 35.2548 35.879 32.8178 37.5208 29.9148C38.0706 28.9411 38.5348 27.9214 38.9081 26.8673C39.6792 24.6884 40.0476 22.3874 39.995 20.0766Z" fill="#002E5D"/>
</g>
</g>
</g>
<defs>
<clipPath id="clip0_360_3137">
<rect width="40" height="40" fill="white"/>
</clipPath>
</defs>
</svg>
