<svg width="64" height="64" viewBox="0 0 64 64" fill="none" xmlns="http://www.w3.org/2000/svg">
<g id="guarantee 1">
<g id="26-Guranteed">
<path id="Vector" d="M54 12C42.88 12 33.34 4.51995 33.24 4.43995C32.8869 4.16093 32.45 4.00916 32 4.00916C31.55 4.00916 31.1131 4.16093 30.76 4.43995C30.66 4.51995 21.16 12 10 12C9.46957 12 8.96086 12.2107 8.58579 12.5857C8.21071 12.9608 8 13.4695 8 14V32C8 45.42 13.42 52 31.18 59.82C31.4378 59.9359 31.7173 59.9958 32 59.9958C32.2827 59.9958 32.5622 59.9359 32.82 59.82C50.58 52 56 45.42 56 32V14C56 13.4695 55.7893 12.9608 55.4142 12.5857C55.0391 12.2107 54.5304 12 54 12ZM32 48C28.8355 48 25.7421 47.0616 23.1109 45.3035C20.4797 43.5454 18.4289 41.0465 17.2179 38.1229C16.0069 35.1993 15.6901 31.9822 16.3074 28.8785C16.9248 25.7748 18.4487 22.9239 20.6863 20.6862C22.9239 18.4486 25.7749 16.9248 28.8786 16.3074C31.9823 15.69 35.1993 16.0069 38.1229 17.2179C41.0466 18.4289 43.5454 20.4796 45.3035 23.1108C47.0616 25.742 48 28.8355 48 32C48 36.2434 46.3143 40.3131 43.3137 43.3137C40.3131 46.3142 36.2435 48 32 48Z" fill="#F70431"/>
<path id="Vector_2" d="M36.5799 26.5799L29.9999 33.1799L27.4199 30.5799C27.2334 30.3934 27.012 30.2455 26.7684 30.1446C26.5247 30.0436 26.2636 29.9917 25.9999 29.9917C25.7362 29.9917 25.475 30.0436 25.2314 30.1446C24.9877 30.2455 24.7664 30.3934 24.5799 30.5799C24.3934 30.7664 24.2455 30.9877 24.1446 31.2314C24.0436 31.475 23.9917 31.7362 23.9917 31.9999C23.9917 32.2636 24.0436 32.5247 24.1446 32.7684C24.2455 33.012 24.3934 33.2334 24.5799 33.4199L28.5799 37.4199C28.7658 37.6073 28.987 37.7561 29.2307 37.8577C29.4744 37.9592 29.7359 38.0115 29.9999 38.0115C30.2639 38.0115 30.5253 37.9592 30.769 37.8577C31.0128 37.7561 31.234 37.6073 31.4199 37.4199L39.4199 29.4199C39.6064 29.2334 39.7543 29.012 39.8552 28.7684C39.9561 28.5247 40.0081 28.2636 40.0081 27.9999C40.0081 27.7362 39.9561 27.475 39.8552 27.2314C39.7543 26.9877 39.6064 26.7664 39.4199 26.5799C39.2334 26.3934 39.012 26.2455 38.7684 26.1446C38.5247 26.0436 38.2636 25.9917 37.9999 25.9917C37.7362 25.9917 37.475 26.0436 37.2314 26.1446C36.9877 26.2455 36.7664 26.3934 36.5799 26.5799Z" fill="#F70431"/>
</g>
</g>
</svg>
