<svg width="16" height="16" viewBox="0 0 16 16" fill="none" xmlns="http://www.w3.org/2000/svg">
<g id="email 1">
<g id="Group">
<path id="Vector" d="M8.00043 7.04757L14.7953 2.81078C14.7214 2.79907 14.6464 2.79146 14.5696 2.79146H1.43128C1.35442 2.79146 1.27932 2.79936 1.20569 2.81078L8.00043 7.04757Z" fill="#F43855"/>
<path id="Vector_2" d="M8.42776 8.68587C8.41869 8.69173 8.40873 8.69553 8.39936 8.7011C8.38955 8.70651 8.37901 8.71178 8.36921 8.71676C8.31577 8.74428 8.26073 8.76639 8.20451 8.78103C8.19866 8.78264 8.19309 8.78351 8.18753 8.78469C8.12561 8.79918 8.06339 8.80811 8.00103 8.80811C8.00088 8.80811 8.00059 8.80811 8.00044 8.80811C8.00029 8.80811 8 8.80811 7.99971 8.80811C7.93734 8.80811 7.87498 8.79933 7.81335 8.78469C7.80764 8.78337 7.80178 8.78249 7.79607 8.78103C7.73986 8.76624 7.68525 8.74413 7.63153 8.71676C7.62143 8.71178 7.61118 8.70651 7.60122 8.7011C7.59171 8.69568 7.5819 8.69187 7.57253 8.68587L0.0223983 3.97798C0.00878365 4.05747 0 4.13887 0 4.22261V11.7779C0 12.5681 0.640474 13.2087 1.43086 13.2087H14.5691C15.3594 13.2087 16 12.5681 16 11.7779V4.22261C16 4.13887 15.9914 4.05762 15.9775 3.97798L8.42776 8.68587Z" fill="#F43855"/>
</g>
</g>
</svg>
