<svg width="20" height="20" viewBox="0 0 20 20" fill="none" xmlns="http://www.w3.org/2000/svg">
<g id="guarantee (1) 1">
<g id="26-Guranteed">
<path id="Vector" d="M16.875 3.74999C13.4 3.74999 10.4188 1.41249 10.3875 1.38749C10.2772 1.3003 10.1406 1.25287 10 1.25287C9.85937 1.25287 9.72284 1.3003 9.6125 1.38749C9.58125 1.41249 6.6125 3.74999 3.125 3.74999C2.95924 3.74999 2.80027 3.81584 2.68306 3.93305C2.56585 4.05026 2.5 4.20923 2.5 4.37499V9.99999C2.5 14.1937 4.19375 16.25 9.74375 18.6937C9.82432 18.73 9.91166 18.7487 10 18.7487C10.0883 18.7487 10.1757 18.73 10.2562 18.6937C15.8062 16.25 17.5 14.1937 17.5 9.99999V4.37499C17.5 4.20923 17.4342 4.05026 17.3169 3.93305C17.1997 3.81584 17.0408 3.74999 16.875 3.74999ZM10 15C9.01109 15 8.04439 14.7067 7.22215 14.1573C6.3999 13.6079 5.75904 12.827 5.3806 11.9134C5.00216 10.9998 4.90315 9.99445 5.09607 9.02454C5.289 8.05464 5.7652 7.16372 6.46447 6.46446C7.16373 5.7652 8.05464 5.28899 9.02455 5.09607C9.99445 4.90314 10.9998 5.00216 11.9134 5.38059C12.827 5.75903 13.6079 6.3999 14.1573 7.22214C14.7068 8.04439 15 9.01109 15 9.99999C15 11.3261 14.4732 12.5978 13.5355 13.5355C12.5979 14.4732 11.3261 15 10 15Z" fill="#325D9C"/>
<path id="Vector_2" d="M11.4309 8.30624L9.37463 10.3687L8.56838 9.55624C8.5101 9.49797 8.44092 9.45174 8.36478 9.42021C8.28864 9.38867 8.20704 9.37244 8.12463 9.37244C8.04222 9.37244 7.96061 9.38867 7.88447 9.42021C7.80833 9.45174 7.73915 9.49797 7.68088 9.55624C7.6226 9.61452 7.57638 9.6837 7.54484 9.75984C7.5133 9.83598 7.49707 9.91758 7.49707 9.99999C7.49707 10.0824 7.5133 10.164 7.54484 10.2401C7.57638 10.3163 7.6226 10.3855 7.68088 10.4437L8.93088 11.6937C8.98898 11.7523 9.0581 11.7988 9.13427 11.8306C9.21043 11.8623 9.29212 11.8786 9.37463 11.8786C9.45713 11.8786 9.53883 11.8623 9.61499 11.8306C9.69115 11.7988 9.76028 11.7523 9.81838 11.6937L12.3184 9.19374C12.3767 9.13547 12.4229 9.06629 12.4544 8.99015C12.486 8.91401 12.5022 8.83241 12.5022 8.74999C12.5022 8.66758 12.486 8.58598 12.4544 8.50984C12.4229 8.4337 12.3767 8.36452 12.3184 8.30624C12.2601 8.24797 12.1909 8.20174 12.1148 8.17021C12.0386 8.13867 11.957 8.12244 11.8746 8.12244C11.7922 8.12244 11.7106 8.13867 11.6345 8.17021C11.5583 8.20174 11.4892 8.24797 11.4309 8.30624Z" fill="#325D9C"/>
</g>
</g>
</svg>
