<svg width="20" height="20" viewBox="0 0 20 20" fill="none" xmlns="http://www.w3.org/2000/svg">
<g id="guarantee (1) 1">
<g id="Group 2752">
<rect id="Rectangle 426" x="2" y="2" width="16" height="16" rx="2" fill="#002E5D"/>
<path id="Vector" d="M10.9338 8.18381L8.87756 10.2463L8.07131 9.43381C8.01303 9.37553 7.94385 9.32931 7.86771 9.29777C7.79157 9.26623 7.70997 9.25 7.62756 9.25C7.54515 9.25 7.46354 9.26623 7.3874 9.29777C7.31126 9.32931 7.24208 9.37553 7.18381 9.43381C7.12553 9.49208 7.07931 9.56126 7.04777 9.6374C7.01623 9.71354 7 9.79515 7 9.87756C7 9.95997 7.01623 10.0416 7.04777 10.1177C7.07931 10.1939 7.12553 10.263 7.18381 10.3213L8.43381 11.5713C8.49191 11.6299 8.56103 11.6764 8.6372 11.7081C8.71336 11.7398 8.79505 11.7562 8.87756 11.7562C8.96006 11.7562 9.04176 11.7398 9.11792 11.7081C9.19408 11.6764 9.26321 11.6299 9.32131 11.5713L11.8213 9.07131C11.8796 9.01303 11.9258 8.94385 11.9573 8.86771C11.9889 8.79157 12.0051 8.70997 12.0051 8.62756C12.0051 8.54515 11.9889 8.46354 11.9573 8.3874C11.9258 8.31126 11.8796 8.24208 11.8213 8.18381C11.763 8.12553 11.6939 8.07931 11.6177 8.04777C11.5416 8.01623 11.46 8 11.3776 8C11.2951 8 11.2135 8.01623 11.1374 8.04777C11.0613 8.07931 10.9921 8.12553 10.9338 8.18381Z" fill="white"/>
</g>
</g>
</svg>
