<svg width="20" height="20" viewBox="0 0 20 20" fill="none" xmlns="http://www.w3.org/2000/svg">
<g id="guarantee (1) 1">
<g id="26-Guranteed">
<path id="Vector" d="M16.875 3.75005C13.4 3.75005 10.4188 1.41255 10.3875 1.38755C10.2772 1.30036 10.1406 1.25293 10 1.25293C9.85937 1.25293 9.72284 1.30036 9.6125 1.38755C9.58125 1.41255 6.6125 3.75005 3.125 3.75005C2.95924 3.75005 2.80027 3.8159 2.68306 3.93311C2.56585 4.05032 2.5 4.20929 2.5 4.37505V10.0001C2.5 14.1938 4.19375 16.2501 9.74375 18.6938C9.82432 18.73 9.91166 18.7487 10 18.7487C10.0883 18.7487 10.1757 18.73 10.2562 18.6938C15.8062 16.2501 17.5 14.1938 17.5 10.0001V4.37505C17.5 4.20929 17.4342 4.05032 17.3169 3.93311C17.1997 3.8159 17.0408 3.75005 16.875 3.75005ZM10 15.0001C9.01109 15.0001 8.04439 14.7068 7.22215 14.1574C6.3999 13.608 5.75904 12.8271 5.3806 11.9135C5.00216 10.9998 4.90315 9.99451 5.09607 9.0246C5.289 8.0547 5.7652 7.16378 6.46447 6.46452C7.16373 5.76526 8.05464 5.28905 9.02455 5.09613C9.99445 4.9032 10.9998 5.00222 11.9134 5.38066C12.827 5.75909 13.6079 6.39996 14.1573 7.2222C14.7068 8.04445 15 9.01115 15 10.0001C15 11.3261 14.4732 12.5979 13.5355 13.5356C12.5979 14.4733 11.3261 15.0001 10 15.0001Z" fill="#325D9C"/>
<path id="Vector_2" d="M11.4312 8.30624L9.37499 10.3687L8.56874 9.55624C8.51047 9.49797 8.44129 9.45174 8.36515 9.42021C8.28901 9.38867 8.20741 9.37244 8.12499 9.37244C8.04258 9.37244 7.96098 9.38867 7.88484 9.42021C7.8087 9.45174 7.73952 9.49797 7.68124 9.55624C7.62297 9.61452 7.57674 9.6837 7.54521 9.75984C7.51367 9.83598 7.49744 9.91758 7.49744 9.99999C7.49744 10.0824 7.51367 10.164 7.54521 10.2401C7.57674 10.3163 7.62297 10.3855 7.68124 10.4437L8.93124 11.6937C8.98935 11.7523 9.05847 11.7988 9.13463 11.8306C9.2108 11.8623 9.29249 11.8786 9.37499 11.8786C9.4575 11.8786 9.53919 11.8623 9.61535 11.8306C9.69152 11.7988 9.76064 11.7523 9.81874 11.6937L12.3187 9.19374C12.377 9.13547 12.4232 9.06629 12.4548 8.99015C12.4863 8.91401 12.5026 8.83241 12.5026 8.74999C12.5026 8.66758 12.4863 8.58598 12.4548 8.50984C12.4232 8.4337 12.377 8.36452 12.3187 8.30624C12.2605 8.24797 12.1913 8.20174 12.1151 8.17021C12.039 8.13867 11.9574 8.12244 11.875 8.12244C11.7926 8.12244 11.711 8.13867 11.6348 8.17021C11.5587 8.20174 11.4895 8.24797 11.4312 8.30624Z" fill="#325D9C"/>
</g>
</g>
</svg>
