<svg width="168" height="146" viewBox="0 0 168 146" fill="none" xmlns="http://www.w3.org/2000/svg">
<g id="&#208;&#191;&#208;&#190;&#208;&#188;&#208;&#190;&#209;&#137;&#209;&#140; 1" clip-path="url(#clip0_309_2256)">
<g id="Group">
<g id="&#208;&#161;&#208;&#187;&#208;&#190;&#208;&#185; 2">
<g id="Layer 1">
<path id="Vector" d="M168 146H0L14.3037 133.977H153.696L168 146Z" fill="#F0F0FF"/>
<path id="Vector_2" d="M46.1124 39.0803H30.1329C29.4503 39.0803 28.7957 39.3505 28.3131 39.8314C27.8304 40.3124 27.5593 40.9647 27.5593 41.6448V137.638C27.5593 138.318 27.8304 138.97 28.3131 139.451C28.7957 139.932 29.4503 140.202 30.1329 140.202H46.1124V39.0803Z" fill="#2D4351"/>
<path id="Vector_3" d="M107.968 39.0803H43.0779C41.6549 39.0803 40.5013 40.2298 40.5013 41.6477V137.639C40.5013 139.057 41.6549 140.207 43.0779 140.207H107.968C109.391 140.207 110.544 139.057 110.544 137.639V41.6477C110.544 40.2298 109.391 39.0803 107.968 39.0803Z" fill="#435E6D"/>
<path id="Vector_4" d="M37.014 52.7228H30.6026C29.941 52.7228 29.4047 53.2572 29.4047 53.9164V69.0813C29.4047 69.7405 29.941 70.2749 30.6026 70.2749H37.014C37.6756 70.2749 38.2119 69.7405 38.2119 69.0813V53.9164C38.2119 53.2572 37.6756 52.7228 37.014 52.7228Z" fill="#22353F"/>
<path id="Vector_5" d="M37.8235 106.605H29.7931C29.5786 106.605 29.4047 106.778 29.4047 106.992V108.735C29.4047 108.948 29.5786 109.122 29.7931 109.122H37.8235C38.038 109.122 38.2119 108.948 38.2119 108.735V106.992C38.2119 106.778 38.038 106.605 37.8235 106.605Z" fill="#22353F"/>
<path id="Vector_6" d="M37.8235 113.477H29.7931C29.5786 113.477 29.4047 113.65 29.4047 113.864V115.607C29.4047 115.82 29.5786 115.994 29.7931 115.994H37.8235C38.038 115.994 38.2119 115.82 38.2119 115.607V113.864C38.2119 113.65 38.038 113.477 37.8235 113.477Z" fill="#22353F"/>
<path id="Vector_7" d="M37.8235 120.349H29.7931C29.5786 120.349 29.4047 120.523 29.4047 120.736V122.479C29.4047 122.693 29.5786 122.866 29.7931 122.866H37.8235C38.038 122.866 38.2119 122.693 38.2119 122.479V120.736C38.2119 120.523 38.038 120.349 37.8235 120.349Z" fill="#22353F"/>
<g id="Group_2" style="mix-blend-mode:multiply" opacity="0.2">
<path id="Vector_8" d="M108.052 140.206H50.6444C49.3857 140.206 48.3328 139.219 48.2925 138.001L45.5895 55.5408C45.5497 54.3233 46.5377 53.3359 47.7964 53.3359H105.205C106.464 53.3359 107.517 54.3233 107.556 55.5408L110.258 138.001C110.3 139.219 109.311 140.206 108.052 140.206Z" fill="#22353F"/>
</g>
<path id="Vector_9" d="M58.0706 50.74H52.4279C51.8229 50.74 51.2426 50.9795 50.8148 51.4058C50.387 51.832 50.1467 52.4102 50.1467 53.0131V137.935C50.1467 138.538 50.387 139.116 50.8148 139.543C51.2426 139.969 51.8229 140.208 52.4279 140.208H58.0706V50.74Z" fill="#BBD1DC"/>
<path id="Vector_10" d="M114.996 53.0113V137.935C114.997 138.234 114.938 138.53 114.824 138.806C114.71 139.082 114.542 139.333 114.33 139.544C114.118 139.755 113.866 139.923 113.589 140.037C113.312 140.151 113.015 140.209 112.715 140.208H55.308C54.703 140.208 54.1228 139.969 53.695 139.543C53.2672 139.116 53.0268 138.538 53.0268 137.935V53.0113C53.0268 52.4084 53.2672 51.8303 53.695 51.404C54.1228 50.9777 54.703 50.7382 55.308 50.7382H112.715C113.32 50.7382 113.9 50.9777 114.328 51.404C114.756 51.8303 114.996 52.4084 114.996 53.0113Z" fill="white"/>
<path id="Vector_11" d="M70.8471 67.1818L65.7483 62.2149L60.649 67.1818V50.74H70.8471V67.1818Z" fill="#325D9C"/>
<path id="Vector_12" d="M64.9008 48.6593L66.0788 54.761C66.0898 54.8182 66.0829 54.8773 66.059 54.9305C66.0352 54.9836 65.9955 55.0281 65.9454 55.058C65.8953 55.0879 65.8371 55.1017 65.7789 55.0976C65.7206 55.0935 65.665 55.0716 65.6196 55.035L60.5209 50.909L64.9008 48.6593Z" fill="#435E6D"/>
<path id="Vector_13" d="M63.8965 51.6848C65.6383 50.7693 66.5884 49.1545 66.0185 48.078C65.4487 47.0015 63.5747 46.871 61.8329 47.7864C60.0911 48.7019 59.141 50.3167 59.7108 51.3932C60.2807 52.4697 62.1547 52.6002 63.8965 51.6848Z" fill="#2D4351"/>
<path id="Vector_14" d="M106.826 64.126H76.3243V67.1819H106.826V64.126Z" fill="#BBD1DC"/>
<path id="Vector_15" d="M84.484 75.4832H60.5209V78.539H84.484V75.4832Z" fill="#BBD1DC"/>
<path id="Vector_16" d="M72.5024 86.8403H60.5209V89.8961H72.5024V86.8403Z" fill="#BBD1DC"/>
<path id="Vector_17" d="M106.826 86.8403H76.3243V89.8961H106.826V86.8403Z" fill="#BBD1DC"/>
<path id="Vector_18" d="M83.4475 98.1975H60.5209V101.253H83.4475V98.1975Z" fill="#BBD1DC"/>
<path id="Vector_19" d="M106.826 98.1975H87.1068V101.253H106.826V98.1975Z" fill="#BBD1DC"/>
<path id="Vector_20" d="M106.826 109.555H60.5209V112.61H106.826V109.555Z" fill="#BBD1DC"/>
<path id="Vector_21" d="M78.2996 120.912H60.5209V123.968H78.2996V120.912Z" fill="#BBD1DC"/>
<g id="Group_3" style="mix-blend-mode:multiply" opacity="0.2">
<path id="Vector_22" d="M113.727 88.4886V138.448C113.727 138.568 113.715 138.687 113.691 138.805C112.055 139.516 110.33 140.003 108.564 140.253H102.773C95.3578 139.223 88.6662 134.319 84.4004 127.34C83.9196 126.555 83.4711 125.745 83.0551 124.91C82.0049 122.803 81.184 120.59 80.6066 118.309C80.4042 117.512 80.2307 116.702 80.086 115.879C79.9082 114.869 79.7769 113.841 79.6923 112.797C79.5968 111.626 79.565 110.452 79.597 109.278C79.6192 108.456 79.6728 107.646 79.7578 106.848C80.4176 100.617 82.9252 95.1504 86.6868 91.2151C87.5304 90.3297 88.4475 89.5168 89.4284 88.7852C92.8063 86.2691 96.875 84.8074 101.346 84.7736C105.751 84.7398 109.988 86.0954 113.727 88.4886Z" fill="#1F3549"/>
</g>
<path id="Vector_23" d="M133.498 111.747C133.498 97.7528 125.133 86.1019 114.066 83.5683V83.0583H109.547C96.3205 83.0583 85.5971 95.9029 85.5971 111.747C85.5971 127.591 96.3205 140.435 109.547 140.435H114.066V139.925C125.133 137.394 133.498 125.741 133.498 111.747Z" fill="#002E5D"/>
<path id="Vector_24" d="M138.017 111.747C138.018 113.924 137.812 116.096 137.401 118.233C135.889 126.073 131.693 132.683 126.035 136.601C122.514 139.04 118.427 140.435 114.067 140.435C100.839 140.435 90.1157 127.591 90.1157 111.747C90.1157 95.9041 100.839 83.0583 114.067 83.0583C127.294 83.0583 138.017 95.9023 138.017 111.747Z" fill="#325D9C"/>
<path id="Vector_25" d="M114.066 135.023C124.798 135.023 133.498 124.602 133.498 111.747C133.498 98.8916 124.798 88.4705 114.066 88.4705C103.334 88.4705 94.6342 98.8916 94.6342 111.747C94.6342 124.602 103.334 135.023 114.066 135.023Z" fill="white"/>
<path id="Vector_26" d="M103.534 117.609L102.708 115.799L113.069 111.107V101.557H115.063V112.387L103.534 117.609Z" fill="#325D9C"/>
<path id="Vector_27" d="M114.105 90.7051H114.027C113.71 90.7051 113.454 90.9605 113.454 91.2757V95.1358C113.454 95.4509 113.71 95.7064 114.027 95.7064H114.105C114.421 95.7064 114.678 95.4509 114.678 95.1358V91.2757C114.678 90.9605 114.421 90.7051 114.105 90.7051Z" fill="#BBD1DC"/>
<path id="Vector_28" d="M123.536 100.405C123.42 100.257 123.356 100.074 123.356 99.8866C123.356 99.6987 123.42 99.5163 123.536 99.3684L125.623 96.8681C125.673 96.8014 125.739 96.7474 125.814 96.7102C125.889 96.6729 125.972 96.6536 126.055 96.6536C126.139 96.6536 126.222 96.6729 126.297 96.7102C126.372 96.7474 126.437 96.8014 126.488 96.8681C126.604 97.0159 126.667 97.1984 126.667 97.3862C126.667 97.574 126.604 97.7565 126.488 97.9043L124.401 100.405C124.161 100.691 123.774 100.691 123.536 100.405Z" fill="#BBD1DC"/>
<path id="Vector_29" d="M131.632 111.811V111.683C131.632 111.313 131.332 111.014 130.961 111.014H128.128C127.757 111.014 127.457 111.313 127.457 111.683V111.811C127.457 112.181 127.757 112.48 128.128 112.48H130.961C131.332 112.48 131.632 112.181 131.632 111.811Z" fill="#BBD1DC"/>
<path id="Vector_30" d="M123.536 123.089C123.775 122.802 124.162 122.802 124.401 123.089L126.488 125.589C126.604 125.737 126.667 125.919 126.667 126.107C126.667 126.295 126.604 126.477 126.488 126.625C126.437 126.692 126.372 126.746 126.297 126.783C126.222 126.82 126.139 126.84 126.055 126.84C125.972 126.84 125.889 126.82 125.814 126.783C125.739 126.746 125.673 126.692 125.623 126.625L123.536 124.126C123.42 123.978 123.356 123.795 123.356 123.607C123.356 123.419 123.42 123.237 123.536 123.089Z" fill="#BBD1DC"/>
<path id="Vector_31" d="M114.027 132.789H114.106C114.422 132.789 114.678 132.533 114.678 132.218V128.358C114.678 128.043 114.422 127.787 114.106 127.787H114.027C113.711 127.787 113.455 128.043 113.455 128.358V132.218C113.455 132.533 113.711 132.789 114.027 132.789Z" fill="#BBD1DC"/>
<path id="Vector_32" d="M104.597 123.089C104.713 123.237 104.777 123.419 104.777 123.607C104.777 123.795 104.713 123.978 104.597 124.125L102.51 126.625C102.271 126.911 101.884 126.911 101.645 126.625C101.529 126.477 101.465 126.295 101.465 126.107C101.465 125.919 101.529 125.737 101.645 125.589L103.732 123.089C103.783 123.022 103.848 122.968 103.923 122.931C103.998 122.894 104.081 122.874 104.165 122.874C104.248 122.874 104.331 122.894 104.406 122.931C104.481 122.968 104.547 123.022 104.597 123.089Z" fill="#BBD1DC"/>
<path id="Vector_33" d="M96.4995 111.683V111.811C96.4995 112.181 96.7999 112.48 97.1704 112.48H100.004C100.375 112.48 100.675 112.181 100.675 111.811V111.683C100.675 111.313 100.375 111.014 100.004 111.014H97.1704C96.7999 111.014 96.4995 111.313 96.4995 111.683Z" fill="#BBD1DC"/>
<path id="Vector_34" d="M104.597 100.405C104.547 100.471 104.481 100.525 104.406 100.563C104.331 100.6 104.248 100.619 104.165 100.619C104.081 100.619 103.998 100.6 103.923 100.563C103.848 100.525 103.783 100.471 103.732 100.405L101.645 97.9044C101.529 97.7564 101.465 97.574 101.465 97.3862C101.465 97.1984 101.529 97.016 101.645 96.8681C101.884 96.5819 102.271 96.5819 102.51 96.8681L104.597 99.3684C104.713 99.5163 104.777 99.6988 104.777 99.8866C104.777 100.074 104.713 100.257 104.597 100.405Z" fill="#BBD1DC"/>
<path id="Vector_35" d="M18.3864 108.414C18.6867 106.974 17.7587 105.564 16.3135 105.264C14.8684 104.965 13.4535 105.89 13.1532 107.33C12.8528 108.77 13.7809 110.18 15.226 110.479C16.6711 110.778 18.0861 109.853 18.3864 108.414Z" fill="#325D9C"/>
<path id="Vector_36" d="M148.868 105.043C151.621 105.043 153.853 102.819 153.853 100.075C153.853 97.3319 151.621 95.1079 148.868 95.1079C146.114 95.1079 143.882 97.3319 143.882 100.075C143.882 102.819 146.114 105.043 148.868 105.043Z" fill="#F0F0FF"/>
<g id="Group_4" style="mix-blend-mode:multiply" opacity="0.25">
<path id="Vector_37" d="M121.499 37.495V69.7959C121.241 70.3111 120.97 70.8234 120.688 71.3328C113.542 62.2505 92.7999 57.5843 92.7999 57.5843C92.7999 57.5843 80.2644 40.4675 69.0602 37.5347C69.0719 37.5201 69.0836 37.5055 69.0941 37.491L121.499 37.495Z" fill="#325D9C"/>
</g>
<path id="Vector_38" d="M137.552 19.9819H132.58V21.8849H136.374L138.083 20.2122C138.015 20.1398 137.933 20.082 137.841 20.0424C137.75 20.0028 137.651 19.9822 137.552 19.9819Z" fill="#325D9C"/>
<path id="Vector_39" d="M159.015 50.4795C159.155 50.205 159.135 49.8494 158.887 49.5469L121.492 3.5961C121.398 3.48118 121.28 3.387 121.147 3.31949C121.014 3.25199 120.869 3.21261 120.72 3.20385L61.4369 -4.41936e-06C61.0438 -0.0215694 60.7431 0.17135 60.6028 0.445283L59.4914 2.61227L63.3121 4.55428L98.1239 47.3281C98.2183 47.4432 98.3357 47.5375 98.4686 47.6051C98.6015 47.6727 98.747 47.7121 98.896 47.7209L154.083 50.7015L157.904 52.6441L159.015 50.4795Z" fill="#325D9C"/>
<path id="Vector_40" d="M157.072 53.0911L97.7881 49.8908C97.6392 49.882 97.4937 49.8426 97.3608 49.775C97.2279 49.7074 97.1105 49.613 97.016 49.4979L69.2977 15.4381L68.2787 14.1874L59.6218 3.54827C59.1258 2.93863 59.5429 2.12557 60.3284 2.1687L71.3835 2.76552L72.7224 2.8378L119.612 5.3708C119.761 5.37953 119.907 5.41888 120.04 5.48638C120.173 5.55389 120.29 5.64809 120.385 5.76305L157.78 51.7116C158.274 52.3206 157.857 53.1331 157.072 53.0911Z" fill="#002E5D"/>
<path id="Vector_41" d="M123.993 65.477C115.894 57.2269 94.7641 54.8449 94.7641 54.8449C94.7641 54.8449 80.4288 39.1946 68.9689 37.502C79.2109 20.8527 97.9513 13.2945 112.305 20.5916C126.659 27.8887 131.513 47.4429 123.993 65.477Z" fill="#325D9C"/>
<path id="Vector_42" d="M136.376 21.8849V72.3498H138.286V20.7134C138.286 20.5267 138.214 20.3473 138.085 20.2122L136.376 21.8849Z" fill="#325D9C"/>
<path id="Vector_43" d="M139.176 70.2854L137.672 69.586C137.565 69.5368 137.449 69.5113 137.331 69.5113C137.214 69.5113 137.098 69.5368 136.991 69.586L135.487 70.2854C135.382 70.3341 135.289 70.4045 135.214 70.492C135.139 70.5794 135.083 70.6819 135.051 70.7925L132.457 79.7489C132.422 79.8689 132.416 79.9952 132.439 80.1179C132.461 80.2407 132.512 80.3565 132.588 80.4562C132.663 80.556 132.76 80.6369 132.873 80.6927C132.985 80.7485 133.108 80.7776 133.233 80.7776H141.429C141.555 80.7777 141.678 80.7487 141.79 80.6929C141.902 80.6372 142 80.5562 142.075 80.4564C142.151 80.3567 142.202 80.2408 142.224 80.1181C142.247 79.9953 142.241 79.8689 142.206 79.7489L139.611 70.7925C139.579 70.6819 139.524 70.5794 139.449 70.492C139.373 70.4045 139.28 70.3341 139.176 70.2854Z" fill="#325D9C"/>
<g id="Group_5" style="mix-blend-mode:multiply" opacity="0.2">
<path id="Vector_44" d="M75.0843 125.058C70.6828 125.042 66.2397 127.958 64.0655 131.947C61.9645 130.343 58.8392 130.331 55.9672 131.918C55.7216 127.92 52.7022 124.977 48.2919 124.961C46.6447 124.956 44.9923 125.359 43.4551 126.077V128.355C44.794 127.624 46.2745 127.202 47.7497 127.208C51.4978 127.223 53.9498 129.991 53.6398 133.583V133.59C53.6402 133.595 53.6402 133.599 53.6398 133.604L43.4622 133.568V136.156C43.9524 135.98 44.4637 135.868 44.983 135.824L53.1052 135.852C52.6135 137.084 51.8756 138.204 50.9363 139.144C50.4471 139.646 49.9097 140.099 49.3319 140.497C48.6502 140.968 47.9124 141.353 47.1355 141.643H51.1463C51.2083 141.595 51.2697 141.545 51.3317 141.494C53.145 139.999 54.5979 138.04 55.3776 135.86L59.0246 135.874L62.7682 135.887C62.4962 138.064 63.0021 140.028 64.0907 141.532C64.117 141.57 64.1451 141.607 64.1743 141.643H68.0483C66.9884 141.119 66.1329 140.259 65.6156 139.198C65.1383 138.241 64.9277 137.118 65.0412 135.895L73.0055 135.925C73.2523 135.945 75.5563 136.184 75.1873 137.714C75.0375 138.335 75.4212 138.84 76.0424 138.843C76.6636 138.846 77.2912 138.342 77.441 137.723C77.61 137.023 77.5761 136.434 77.407 135.941L79.8976 135.95C78.8957 138.5 76.7034 140.624 74.1724 141.643H78.061C80.2164 139.895 81.8665 137.487 82.5064 134.834C83.795 129.469 80.472 125.077 75.0843 125.058ZM57.0926 133.618C57.9899 133.181 58.9024 132.949 59.771 132.951C60.6041 132.949 61.4202 133.187 62.1212 133.635L57.0926 133.618ZM80.4311 133.703L73.5828 133.678L65.5775 133.649C65.5787 133.643 65.5806 133.637 65.5834 133.632V133.625C67.0059 130.038 70.7892 127.292 74.5397 127.305C78.3061 127.32 80.7569 130.101 80.4323 133.703H80.4311Z" fill="#325D9C"/>
</g>
<path id="Vector_45" d="M87.4104 134.834C87.4303 129.472 83.0621 125.077 77.6703 125.058C73.2634 125.042 69.5158 127.958 68.2904 131.947C67.0867 131.162 65.6803 130.741 64.2415 130.736C62.8027 130.731 61.3933 131.141 60.184 131.918C58.9878 127.92 55.2706 124.977 50.8544 124.961C45.4626 124.942 41.0628 129.302 41.0435 134.667C41.0242 140.032 45.3918 144.423 50.7837 144.443C52.94 144.444 55.0374 143.741 56.7546 142.441C57.1315 142.151 57.4869 141.835 57.8179 141.494C59.3167 139.963 60.2677 137.983 60.5238 135.86L64.1749 135.873L67.9225 135.887C68.1917 138.26 69.3259 140.452 71.1097 142.047C72.8935 143.642 75.2028 144.529 77.5995 144.539C82.9913 144.559 87.3911 140.207 87.4104 134.834ZM77.6621 127.306C79.4606 127.314 81.1967 127.964 82.5563 129.137C83.9158 130.311 84.809 131.93 85.0742 133.703L78.2207 133.678L70.2072 133.649C70.2072 133.644 70.2072 133.639 70.2072 133.634V133.627C70.7787 130.038 73.9098 127.292 77.6621 127.306ZM64.2334 132.952C65.1166 132.963 65.9823 133.198 66.7486 133.636L61.7153 133.618C62.4839 133.185 63.3508 132.956 64.2334 132.952ZM50.8462 127.209C54.5985 127.223 57.7097 129.991 58.2531 133.583V133.59C58.2528 133.595 58.2528 133.6 58.2531 133.605L43.3867 133.551C43.9465 129.955 47.0793 127.195 50.8462 127.209ZM56.8639 139.145C56.494 139.646 56.0629 140.101 55.5806 140.496C54.5525 141.337 53.3189 141.891 52.0058 142.101C50.6927 142.311 49.3471 142.17 48.1064 141.693C46.8658 141.215 45.7745 140.418 44.9441 139.383C44.1137 138.348 43.5738 137.112 43.3797 135.801L45.7153 135.809C45.4014 136.349 45.2397 136.963 45.2474 137.587C45.2434 137.737 45.2696 137.886 45.3242 138.026C45.3789 138.165 45.461 138.292 45.5657 138.4C45.6704 138.507 45.7955 138.593 45.9339 138.651C46.0722 138.71 46.2209 138.74 46.3712 138.741C46.5215 138.742 46.6704 138.712 46.8092 138.655C46.9479 138.597 47.0737 138.512 47.1792 138.406C47.2846 138.299 47.3677 138.172 47.4233 138.033C47.479 137.894 47.5062 137.745 47.5034 137.596C47.5087 136.066 49.8718 135.844 50.1227 135.825L58.2531 135.854C58.0691 137.048 57.5919 138.179 56.8639 139.145ZM77.6077 142.292C75.861 142.289 74.1707 141.676 72.8312 140.559C72.352 140.159 71.9243 139.702 71.5578 139.198C70.838 138.226 70.3704 137.091 70.1967 135.895L78.1686 135.925C78.4201 135.946 80.7809 136.184 80.7756 137.714C80.7745 138.012 80.8923 138.298 81.103 138.51C81.3138 138.721 81.6002 138.841 81.8993 138.842C82.1984 138.843 82.4856 138.725 82.6979 138.515C82.9101 138.305 83.03 138.02 83.0311 137.722C83.0428 137.098 82.885 136.483 82.5743 135.941L85.066 135.95C84.7888 137.721 83.8841 139.334 82.5159 140.497C81.1476 141.661 79.4064 142.298 77.6077 142.292Z" fill="#F70431"/>
</g>
</g>
</g>
</g>
<defs>
<clipPath id="clip0_309_2256">
<rect width="168" height="146" fill="white"/>
</clipPath>
</defs>
</svg>
