<svg width="16" height="16" viewBox="0 0 16 16" fill="none" xmlns="http://www.w3.org/2000/svg">
<g clip-path="url(#clip0_1489_17927)">
<path d="M3.5 0H0.5C0.224 0 0 0.224 0 0.5V3.5C0 3.776 0.224 4 0.5 4H3.5C3.776 4 4 3.776 4 3.5V0.5C4 0.224 3.776 0 3.5 0ZM3 3H1V1H3V3Z" fill="#325D9C"/>
<path d="M3.5 6H0.5C0.224 6 0 6.224 0 6.5V9.5C0 9.776 0.224 10 0.5 10H3.5C3.776 10 4 9.776 4 9.5V6.5C4 6.224 3.776 6 3.5 6ZM3 9H1V7H3V9Z" fill="#325D9C"/>
<path d="M3.5 12H0.5C0.224 12 0 12.224 0 12.5V15.5C0 15.776 0.224 16 0.5 16H3.5C3.776 16 4 15.776 4 15.5V12.5C4 12.224 3.776 12 3.5 12ZM3 15H1V13H3V15Z" fill="#325D9C"/>
<path d="M16 0.5H6V1.5H16V0.5Z" fill="#325D9C"/>
<path d="M16 2.5H6V3.5H16V2.5Z" fill="#325D9C"/>
<path d="M16 6.5H6V7.5H16V6.5Z" fill="#325D9C"/>
<path d="M16 8.5H6V9.5H16V8.5Z" fill="#325D9C"/>
<path d="M16 12.5H6V13.5H16V12.5Z" fill="#325D9C"/>
<path d="M16 14.5H6V15.5H16V14.5Z" fill="#325D9C"/>
</g>
<defs>
<clipPath id="clip0_1489_17927">
<rect width="16" height="16" fill="white"/>
</clipPath>
</defs>
</svg>
