<svg width="24" height="24" viewBox="0 0 24 24" fill="none" xmlns="http://www.w3.org/2000/svg">
<g id="drawing 1" clip-path="url(#clip0_590_5010)">
<g id="Group">
<path id="Vector" d="M23.2969 6.42102H22.5211C22.4761 6.48571 14.1769 14.7938 14.1769 14.7938C13.9153 15.0554 13.5886 15.2443 13.2319 15.3399L10.5319 16.0637C9.79758 16.2823 8.97783 16.0452 8.44594 15.4843C7.92562 14.9406 7.73109 14.1756 7.935 13.4687L8.65922 10.7677C8.75484 10.4106 8.94375 10.0838 9.20531 9.82227L12.6066 6.42102H6.09375V23.9991H23.2969C23.685 23.9991 24 23.6841 24 23.296V7.12415C24 6.73602 23.685 6.42102 23.2969 6.42102ZM20.8359 19.9599H20.182C19.5258 19.9599 18.907 19.6721 18.4842 19.1706C18.3183 18.9732 18.075 18.8677 17.8172 18.8823C17.5594 18.8968 17.3297 19.0276 17.1863 19.2423L16.5403 20.2079C16.1278 20.8252 15.4378 21.1937 14.6953 21.1937C13.9528 21.1937 13.2628 20.8252 12.8503 20.2079L12.2044 19.2423C12.0609 19.0276 11.8312 18.8968 11.5734 18.8823C11.3161 18.8677 11.0723 18.9732 10.9064 19.1706C10.4836 19.6721 9.86484 19.9599 9.20859 19.9599H8.55469C8.16656 19.9599 7.85156 19.6454 7.85156 19.2568C7.85156 18.8687 8.16656 18.5537 8.55469 18.5537H9.20859C9.44906 18.5537 9.67594 18.4482 9.83063 18.2645C10.2844 17.7259 10.9477 17.439 11.6512 17.4784C12.3544 17.5173 12.982 17.8754 13.3734 18.4609L14.0189 19.426C14.1727 19.6557 14.4192 19.7874 14.6953 19.7874C14.9714 19.7874 15.218 19.6557 15.3717 19.426L16.0172 18.4609C16.4086 17.8754 17.0363 17.5173 17.7394 17.4784C18.4434 17.4385 19.1062 17.7259 19.56 18.2645C19.7147 18.4482 19.9416 18.5537 20.182 18.5537H20.8359C21.2241 18.5537 21.5391 18.8687 21.5391 19.2568C21.5391 19.6454 21.2241 19.9599 20.8359 19.9599Z" fill="#325D9C"/>
<path id="Vector_2" d="M4.6875 6.42102V23.9991H0.703125C0.315 23.9991 0 23.6841 0 23.296C0 22.9079 0.315 22.5929 0.703125 22.5929H1.875V20.7648H0.703125C0.315 20.7648 0 20.4498 0 20.0616C0 19.6735 0.315 19.3585 0.703125 19.3585H1.875V17.5304H0.703125C0.315 17.5304 0 17.2154 0 16.8273C0 16.4391 0.315 16.1241 0.703125 16.1241H1.875V14.296H0.703125C0.315 14.296 0 13.981 0 13.5929C0 13.2048 0.315 12.8898 0.703125 12.8898H1.875V11.0616H0.703125C0.315 11.0616 0 10.7466 0 10.3585C0 9.9704 0.315 9.6554 0.703125 9.6554H1.875V7.82727H0.703125C0.315 7.82727 0 7.51227 0 7.12415C0 6.73602 0.315 6.42102 0.703125 6.42102H4.6875Z" fill="#325D9C"/>
<path id="Vector_3" d="M18.3909 2.62604L21.374 5.60916L13.1831 13.7996C13.0959 13.8868 12.9871 13.9496 12.8681 13.9815L10.1502 14.7104C9.9004 14.7873 9.64681 14.6973 9.47478 14.5253V14.5248C9.30275 14.3532 9.21275 14.1001 9.28915 13.8493L10.0181 11.1315C10.0499 11.0124 10.1127 10.9037 10.1999 10.8165L18.3909 2.62604Z" fill="#325D9C"/>
<path id="Vector_4" d="M24.0001 2.6912C24.0001 2.87777 23.926 3.05636 23.7943 3.18808L22.3679 4.61495L19.3848 1.63136L20.8112 0.204954C21.0726 -0.0672959 21.5439 -0.0670615 21.8054 0.204954L23.7943 2.19386C23.926 2.32558 24.0001 2.50464 24.0001 2.6912Z" fill="#325D9C"/>
</g>
</g>
<defs>
<clipPath id="clip0_590_5010">
<rect width="24" height="24" fill="white"/>
</clipPath>
</defs>
</svg>
