<svg width="322" height="173" viewBox="0 0 322 173" fill="none" xmlns="http://www.w3.org/2000/svg">
<path d="M137.561 80.6208L109.05 37.4854L97.3984 55.1173L114.253 80.6208H137.561Z" fill="#BBD1DC"/>
<path d="M50.794 133.396H74.0979L69.929 139.705H46.625L50.794 133.396Z" fill="#BBD1DC"/>
<path d="M83.6652 118.929L79.6104 125.063H56.3047L60.3596 118.929H83.6652Z" fill="#BBD1DC"/>
<path d="M93.2243 104.462L89.1695 110.596H65.8672L69.9186 104.462H93.2243Z" fill="#BBD1DC"/>
<path d="M188.302 131.386L177.095 148.343H120.93L160.22 88.8958L188.302 131.386Z" fill="#BBD1DC"/>
<path d="M247.055 0L176.004 35.4786L189.589 44.4607L189.587 44.4624L175.777 65.3513L203.86 107.841L228.671 70.3048V70.3031L242.258 79.2869L247.055 0Z" fill="#BBD1DC"/>
<path d="M311.475 165.139H0L22.8288 156.206H288.647L311.475 165.139Z" fill="#BBD1DC"/>
<path d="M222.515 59.6435L182.445 120.127L184.29 121.35L224.36 60.8662L222.515 59.6435Z" fill="#F70431"/>
<path d="M295.447 53.0032L273.902 85.5981L275.756 86.8241L297.301 54.2291L295.447 53.0032Z" fill="#F70431"/>
<path d="M214.054 87.8364L189.504 124.981L177.852 142.615L189.504 160.245L201.157 142.615L237.362 87.8364H214.054Z" fill="#F70431"/>
<path d="M248.972 35.0068L260.624 52.6405L244.782 76.6075H221.477L248.972 35.0068Z" fill="#F70431"/>
<path d="M278.573 25.4813L275.913 29.5064L265.617 45.0824L253.965 27.4504L259.694 18.7818L262.356 14.7566L278.573 25.4813Z" fill="#F70431"/>
<path d="M281.552 33.2336L283.543 0.330566L254.059 15.0531L281.552 33.2336Z" fill="#F70431"/>
<path d="M80.6255 61.1013L92.2774 78.7316L63.626 122.083H40.3203L80.6255 61.1013Z" fill="#F70431"/>
<path d="M27.575 159.872H51.3984V153.252H27.575V159.872Z" fill="#325D9C"/>
<g style="mix-blend-mode:multiply" opacity="0.22">
<path d="M27.5728 159.872H39.5586V153.252H27.5728V159.872Z" fill="#325D9C"/>
</g>
<path d="M51.401 159.872H60.6211V153.252H51.401V159.872Z" fill="#325D9C"/>
<path d="M39.2116 159.872H40.293V153.252H39.2116V159.872Z" fill="white"/>
<path d="M50.86 159.872H51.9414V153.252H50.86V159.872Z" fill="white"/>
<path d="M27.5776 161.471H60.6211V159.872H27.5776V161.471Z" fill="#325D9C"/>
<path d="M29.3875 151.653H53.2109V145.033H29.3875V151.653Z" fill="#325D9C"/>
<g style="mix-blend-mode:multiply" opacity="0.22">
<path d="M29.3892 151.653H41.375V145.033H29.3892V151.653Z" fill="#325D9C"/>
</g>
<path d="M53.2135 151.653H62.4336V145.033H53.2135V151.653Z" fill="#325D9C"/>
<path d="M41.0241 151.653H42.1055V145.033H41.0241V151.653Z" fill="white"/>
<path d="M52.6725 151.653H53.7539V145.033H52.6725V151.653Z" fill="white"/>
<path d="M29.3901 153.254H62.4336V151.655H29.3901V153.254Z" fill="#325D9C"/>
<path d="M25.0438 143.436H48.8672V136.816H25.0438V143.436Z" fill="#325D9C"/>
<g style="mix-blend-mode:multiply" opacity="0.22">
<path d="M25.0416 143.436H37.0273V136.816H25.0416V143.436Z" fill="#325D9C"/>
</g>
<path d="M48.8698 143.436H58.0898V136.816H48.8698V143.436Z" fill="#325D9C"/>
<path d="M36.6803 143.436H37.7617V136.816H36.6803V143.436Z" fill="white"/>
<path d="M48.3248 143.436H49.4062V136.816H48.3248V143.436Z" fill="white"/>
<path d="M25.0463 145.035H58.0898V143.436H25.0463V145.035Z" fill="#325D9C"/>
<path d="M29.3875 135.215H53.2109V128.595H29.3875V135.215Z" fill="#325D9C"/>
<g style="mix-blend-mode:multiply" opacity="0.22">
<path d="M29.3892 135.215H41.375V128.595H29.3892V135.215Z" fill="#325D9C"/>
</g>
<path d="M53.2135 135.215H62.4336V128.595H53.2135V135.215Z" fill="#325D9C"/>
<path d="M41.0241 135.215H42.1055V128.595H41.0241V135.215Z" fill="white"/>
<path d="M52.6725 135.215H53.7539V128.595H52.6725V135.215Z" fill="white"/>
<path d="M29.3901 136.814H62.4336V135.215H29.3901V136.814Z" fill="#325D9C"/>
<path d="M28.9264 122.674L30.7891 123.906L32.02 122.042L30.1574 120.811L28.9264 122.674Z" fill="#F70431"/>
<path d="M32.9655 116.561L34.8281 117.792L36.0591 115.929L34.1965 114.698L32.9655 116.561Z" fill="#F70431"/>
<path d="M37.0046 110.445L38.8672 111.676L40.0982 109.813L38.2355 108.582L37.0046 110.445Z" fill="#F70431"/>
<path d="M41.0475 104.33L42.9102 105.561L44.1411 103.698L42.2785 102.467L41.0475 104.33Z" fill="#F70431"/>
<path d="M45.0827 98.215L46.9453 99.4463L48.1763 97.5832L46.3137 96.3519L45.0827 98.215Z" fill="#F70431"/>
<path d="M276.145 60.0248L278.008 61.2561L279.239 59.393L277.376 58.1618L276.145 60.0248Z" fill="#F70431"/>
<path d="M280.184 53.9098L282.047 55.1411L283.278 53.278L281.415 52.0468L280.184 53.9098Z" fill="#F70431"/>
<path d="M284.223 47.7951L286.086 49.0264L287.317 47.1633L285.454 45.932L284.223 47.7951Z" fill="#F70431"/>
<path d="M288.266 41.6786L290.129 42.9099L291.36 41.0468L289.497 39.8156L288.266 41.6786Z" fill="#F70431"/>
<path d="M292.305 35.5639L294.168 36.7952L295.399 34.9321L293.536 33.7008L292.305 35.5639Z" fill="#F70431"/>
<path d="M105.631 125.262L160.468 113.095C161.955 112.766 163.658 113.675 164.278 115.123L182.5 157.538C183.123 158.988 182.423 160.434 180.938 160.761L147.685 168.147L136.607 170.603L126.113 172.932C124.63 173.262 122.92 172.354 122.297 170.905L104.074 128.49C103.446 127.034 104.146 125.591 105.631 125.262Z" fill="#325D9C"/>
<path d="M189.735 165.505H166.427L133.879 116.259L131.996 113.41L87.2305 45.6786L98.8842 28.0466L155.303 113.41L157.185 116.259L189.735 165.505Z" fill="#F70431"/>
<g style="mix-blend-mode:multiply" opacity="0.5">
<path d="M105.631 125.262L160.468 113.095C161.955 112.766 163.658 113.675 164.278 115.123L175.39 140.986L136.607 170.603L126.113 172.932C124.63 173.262 122.92 172.354 122.297 170.905L104.074 128.49C103.446 127.034 104.146 125.591 105.631 125.262Z" fill="#325D9C"/>
</g>
<path d="M158.401 92.8819L176.623 135.297C177.246 136.746 176.667 138.639 175.329 139.521L125.942 172.155C124.603 173.039 123.014 172.581 122.391 171.133L104.169 128.718C103.545 127.269 104.124 125.376 105.463 124.492L154.85 91.8581C156.189 90.9723 157.778 91.4323 158.401 92.8819Z" fill="#325D9C"/>
<path d="M172.409 135.579C172.444 135.939 172.381 136.302 172.228 136.629C172.075 136.956 171.837 137.237 171.539 137.441L129.599 165.158C129.569 165.181 129.534 165.198 129.496 165.208C129.459 165.217 129.42 165.219 129.382 165.213C129.344 165.206 129.308 165.192 129.276 165.171C129.243 165.15 129.216 165.123 129.195 165.091C129.173 165.059 129.159 165.022 129.152 164.984C129.146 164.946 129.147 164.908 129.157 164.87C129.166 164.833 129.183 164.798 129.206 164.767C129.229 164.737 129.259 164.711 129.293 164.692L171.236 136.976C171.503 136.791 171.701 136.521 171.796 136.21C171.892 135.899 171.881 135.565 171.764 135.261L158.83 105.169C158.815 105.135 158.808 105.099 158.807 105.062C158.807 105.026 158.813 104.99 158.827 104.956C158.84 104.922 158.86 104.891 158.886 104.865C158.911 104.838 158.942 104.818 158.975 104.803C159.009 104.789 159.045 104.781 159.081 104.781C159.118 104.78 159.154 104.787 159.188 104.8C159.222 104.814 159.253 104.834 159.279 104.859C159.305 104.885 159.326 104.915 159.341 104.949L172.272 135.041C172.344 135.213 172.391 135.394 172.409 135.579Z" fill="white"/>
<path d="M150.116 100.072C150.121 100.122 150.113 100.173 150.091 100.219C150.07 100.264 150.036 100.303 149.994 100.331L109.569 127.044C109.302 127.229 109.104 127.499 109.008 127.81C108.913 128.121 108.924 128.455 109.041 128.759L113.989 140.272C114.003 140.306 114.011 140.342 114.011 140.379C114.012 140.415 114.005 140.451 113.991 140.485C113.978 140.519 113.958 140.55 113.932 140.576C113.907 140.603 113.877 140.623 113.843 140.638C113.809 140.652 113.773 140.66 113.737 140.66C113.7 140.661 113.664 140.654 113.63 140.641C113.596 140.627 113.565 140.607 113.539 140.582C113.513 140.556 113.492 140.526 113.478 140.492L108.53 128.979C108.361 128.555 108.341 128.086 108.474 127.65C108.607 127.213 108.885 126.835 109.263 126.579L149.685 99.8659C149.747 99.8252 149.823 99.8109 149.895 99.8259C149.968 99.8409 150.031 99.8841 150.072 99.9459C150.097 99.9835 150.112 100.027 150.116 100.072Z" fill="white"/>
<path d="M168.481 107.257L172.629 116.91C173.101 118.007 172.662 119.44 171.65 120.109L158.852 128.565C157.839 129.234 156.638 128.887 156.165 127.79L152.018 118.137C151.546 117.04 151.984 115.607 152.997 114.938L165.795 106.48C166.807 105.812 168.009 106.16 168.481 107.257Z" fill="#002E5D"/>
<path d="M161.867 120.38C162.453 118.693 161.786 116.929 160.377 116.439C158.968 115.949 157.351 116.919 156.765 118.605C156.178 120.292 156.845 122.056 158.254 122.546C159.663 123.036 161.281 122.066 161.867 120.38Z" fill="white"/>
<path d="M321.791 103.949L321.381 163.44C321.368 165.21 320.654 166.903 319.394 168.146C318.134 169.389 316.432 170.08 314.663 170.068L215.634 169.387C213.865 169.374 212.173 168.659 210.93 167.399C209.688 166.139 208.996 164.437 209.008 162.667L209.42 103.177C209.426 102.301 209.605 101.434 209.946 100.627C210.286 99.8192 210.783 99.0869 211.407 98.4714C212.031 97.856 212.77 97.3694 213.582 97.0396C214.393 96.7098 215.262 96.5432 216.138 96.5492L315.165 97.2306C316.934 97.2432 318.626 97.9579 319.869 99.2177C321.111 100.478 321.803 102.179 321.791 103.949Z" fill="#4A88E3"/>
<path d="M321.793 103.949L321.383 163.44C321.37 165.21 320.655 166.903 319.396 168.146C318.136 169.389 316.434 170.08 314.664 170.068L226.789 169.46L300.529 97.1284L315.175 97.2289C316.943 97.2438 318.633 97.9597 319.874 99.2196C321.115 100.48 321.805 102.18 321.793 103.949Z" fill="#325D9C"/>
<path d="M316.782 169.954C316.096 170.172 315.38 170.28 314.66 170.275L215.632 169.593C213.808 169.578 212.065 168.84 210.784 167.541C209.504 166.242 208.79 164.488 208.801 162.664L208.971 137.61C208.971 137.555 208.993 137.503 209.032 137.464C209.07 137.426 209.123 137.404 209.177 137.404C209.232 137.404 209.284 137.426 209.323 137.464C209.362 137.503 209.383 137.555 209.383 137.61L209.213 162.664C209.203 164.379 209.873 166.028 211.077 167.249C212.281 168.47 213.921 169.163 215.635 169.176L314.662 169.857C316.377 169.868 318.026 169.198 319.247 167.993C320.468 166.789 321.161 165.149 321.174 163.434L321.584 103.945C321.594 102.231 320.924 100.582 319.72 99.3616C318.516 98.141 316.877 97.4481 315.162 97.435L232.926 96.8661C232.871 96.8661 232.819 96.8444 232.78 96.8057C232.741 96.7671 232.72 96.7146 232.72 96.66C232.72 96.6053 232.741 96.5529 232.78 96.5142C232.819 96.4756 232.871 96.4539 232.926 96.4539L315.162 97.0228C316.986 97.0377 318.73 97.7753 320.01 99.074C321.291 100.373 322.005 102.126 321.995 103.951L321.583 163.44C321.571 164.894 321.1 166.306 320.238 167.476C319.376 168.646 318.166 169.513 316.782 169.954Z" fill="#232323"/>
<path d="M265.347 140.059L222.809 139.762L222.78 143.894L265.318 144.191L265.347 140.059Z" fill="white"/>
<path d="M249.608 149.965L222.738 149.777L222.709 153.91L249.579 154.097L249.608 149.965Z" fill="white"/>
<path d="M295.592 153.775L288.121 153.722L299.409 142.022L306.878 142.073L295.592 153.775Z" fill="white"/>
<path d="M283.141 153.688L275.672 153.637L286.958 141.935L294.427 141.988L283.141 153.688Z" fill="white"/>
<path d="M309.779 92.3862C309.732 99.0601 308.166 105.636 305.201 111.614C302.236 117.593 297.949 122.818 292.665 126.894L238.53 126.521C236.9 125.226 235.363 123.817 233.932 122.305C233.644 122.003 233.361 121.695 233.08 121.385C225.788 113.258 221.797 102.698 221.888 91.7781C222.059 67.5045 241.866 47.9613 266.134 48.1283C271.906 48.1666 277.613 49.3419 282.93 51.5871C288.247 53.8322 293.07 57.1032 297.123 61.2132C301.176 65.3232 304.38 70.1917 306.552 75.5404C308.723 80.8892 309.82 86.6135 309.779 92.3862Z" fill="#FFC15A"/>
<g style="mix-blend-mode:multiply" opacity="0.25">
<path d="M309.777 92.3862C309.73 99.0601 308.164 105.636 305.199 111.614C302.234 117.593 297.947 122.818 292.663 126.894L238.528 126.521C236.897 125.226 235.361 123.817 233.93 122.305L234.854 121.399L296.674 60.7573C300.868 64.88 304.19 69.805 306.441 75.239C308.692 80.6729 309.826 86.5045 309.777 92.3862Z" fill="#AF6215"/>
</g>
<path d="M295.285 114.115L293.964 113.123C296.851 109.258 298.911 104.839 300.016 100.142C301.121 95.4458 301.247 90.5718 300.386 85.8243C299.525 81.0767 297.696 76.5573 295.013 72.5477C292.33 68.538 288.85 65.124 284.79 62.5184C280.73 59.9128 276.177 58.1714 271.415 57.4028C266.653 56.6341 261.783 56.8547 257.11 58.0507C252.437 59.2467 248.06 61.3925 244.252 64.3545C240.444 67.3165 237.287 71.0311 234.977 75.2669L233.527 74.4748C235.944 70.0359 239.249 66.1426 243.237 63.0378C247.224 59.933 251.808 57.6832 256.703 56.4288C261.598 55.1743 266.7 54.9422 271.688 55.7467C276.677 56.5513 281.447 58.3753 285.7 61.1051C289.952 63.8348 293.597 67.4118 296.407 71.6128C299.217 75.8138 301.131 80.5488 302.031 85.5225C302.93 90.4963 302.795 95.602 301.635 100.521C300.474 105.441 298.313 110.068 295.285 114.115Z" fill="white"/>
<path d="M235.187 112.439C231.126 106.337 228.99 99.1568 229.056 91.8274C229.066 90.4553 229.151 89.0849 229.312 87.7222L230.952 87.9164C230.798 89.2168 230.717 90.5248 230.708 91.8342C230.648 98.8348 232.69 105.692 236.57 111.519L235.187 112.439Z" fill="white"/>
<path d="M274.62 106.62C270.055 112.153 266.664 114.336 261.788 112.701C254.927 110.4 252.464 102.697 254.852 92.4441L274.452 99.0158L275.359 96.3091L255.594 89.6811C255.725 89.2485 255.863 88.8124 256.011 88.3729C256.134 88.0033 256.264 87.6404 256.395 87.2827L276.161 93.9107L277.069 91.204L257.485 84.6356C261.231 76.4439 267.27 71.8737 274.174 74.1869C275.991 74.7967 277.802 75.8903 278.789 77.0827C280.78 79.2341 281.054 82.2219 280.586 86.7921L282.216 86.8449C282.897 83.542 283.84 79.6191 284.6 76.6977C283.129 75.846 280.172 73.5873 276.054 72.2075C266.829 69.1141 257.832 73.4902 252.733 83.0446L249.797 82.0601L248.889 84.7668L251.5 85.6423C251.18 86.4055 250.883 87.1947 250.608 88.0101L248.086 87.1584L247.18 89.8651L249.814 90.7492C247.328 101.046 250.245 111.509 260.744 115.03C264.377 116.247 268.489 116.355 270.002 116.438C271.379 114.709 274.154 110.555 275.845 107.73L274.62 106.62Z" fill="white"/>
<path d="M302.924 115.953C302.896 115.961 302.866 115.963 302.836 115.959C302.807 115.955 302.779 115.945 302.754 115.929C302.731 115.915 302.711 115.896 302.695 115.874C302.68 115.852 302.668 115.826 302.663 115.8C302.657 115.774 302.656 115.746 302.661 115.719C302.666 115.693 302.676 115.667 302.691 115.645C306.901 109.054 309.268 101.455 309.545 93.6384C309.822 85.822 308 78.0742 304.267 71.2016C300.534 64.329 295.028 58.5829 288.322 54.5614C281.615 50.5399 273.953 48.3902 266.134 48.336C242.019 48.1657 222.263 67.6578 222.096 91.773C222.096 91.8276 222.074 91.8801 222.035 91.9187C221.997 91.9574 221.944 91.9791 221.89 91.9791C221.835 91.9791 221.783 91.9574 221.744 91.9187C221.705 91.8801 221.684 91.8276 221.684 91.773C221.732 84.9289 223.371 78.1899 226.47 72.0878C229.569 65.9857 234.043 60.6876 239.54 56.6117C245.037 52.5358 251.406 49.7937 258.144 48.6018C264.882 47.4099 271.805 47.8008 278.366 49.7438C284.928 51.6867 290.947 55.1284 295.951 59.7973C300.954 64.4662 304.804 70.2344 307.197 76.6466C309.589 83.0588 310.459 89.9395 309.737 96.7456C309.016 103.552 306.722 110.097 303.038 115.864C303.011 115.906 302.971 115.937 302.924 115.953Z" fill="#232323"/>
<path d="M308.67 121.91L308.635 127.006L292.66 126.894L238.525 126.521L222.91 126.413L222.946 121.315L233.081 121.385L234.853 121.399L298.175 121.836L308.67 121.91Z" fill="#002E5D"/>
</svg>
