<svg width="24" height="24" viewBox="0 0 24 24" fill="none" xmlns="http://www.w3.org/2000/svg">
<g id="professional 1" clip-path="url(#clip0_209_3982)">
<path id="Vector" fill-rule="evenodd" clip-rule="evenodd" d="M10.0145 0.75C4.89788 0.75 0.75 4.89788 0.75 10.0145C0.75 15.1312 4.89788 19.279 10.0145 19.279C11.1159 19.279 12.1722 19.0864 13.152 18.7337C13.0288 18.541 12.9722 18.3264 12.9396 18.0947C12.93 18.0271 12.9217 17.9059 12.9039 17.8289C12.8448 17.7743 12.7439 17.7068 12.6885 17.6634C12.465 17.4881 12.2811 17.2934 12.1823 17.0207C12.0832 16.7475 12.1017 16.4817 12.1614 16.2038C12.1757 16.1376 12.2101 16.0186 12.2189 15.9412C12.189 15.882 12.1309 15.8012 12.1005 15.7537C11.9756 15.5592 11.8735 15.3681 11.8328 15.1369C11.8093 15.0035 11.8107 14.8743 11.8318 14.7491H5.00442C5.00442 11.9821 7.24753 9.73898 10.0145 9.73898C11.2692 9.73898 12.4159 10.2004 13.2947 10.9625C13.4723 10.7783 13.6916 10.6736 13.936 10.5938C14.0015 10.5724 14.1192 10.5432 14.1924 10.5121C14.2358 10.4447 14.2846 10.3337 14.3175 10.2721C14.4509 10.0214 14.6099 9.80625 14.8611 9.66117C15.1124 9.51605 15.3778 9.4875 15.6613 9.4973C15.7298 9.49964 15.8503 9.51239 15.9298 9.50831C15.9939 9.45923 16.0772 9.37223 16.1298 9.32513C16.3411 9.1358 16.5649 8.98908 16.8499 8.93883C17.1349 8.88858 17.3953 8.94989 17.6586 9.05555C17.7241 9.08184 17.8322 9.13509 17.9093 9.15928C17.9854 9.13598 18.0942 9.08278 18.1578 9.05709C18.4209 8.95092 18.6801 8.88698 18.9659 8.93742C19.0583 8.95373 19.1442 8.98027 19.2253 9.01509C18.7268 4.36852 14.7935 0.75 10.0145 0.75ZM16.7521 20.9169L15.666 23.25L14.7306 21.6404L12.8967 21.9608L14.1183 19.337C14.1458 19.3458 14.172 19.3549 14.1942 19.3643C14.2374 19.4311 14.2865 19.542 14.319 19.603C14.4524 19.8534 14.6106 20.0684 14.8615 20.2134C15.1125 20.3585 15.3778 20.388 15.6613 20.3784C15.7301 20.3761 15.8507 20.3633 15.9301 20.3675C15.9939 20.416 16.0778 20.5036 16.1297 20.5503C16.3163 20.7181 16.5121 20.853 16.7521 20.9169ZM21.9642 19.2529L22.9188 21.4692L21.095 21.0957L20.1134 22.6775L19.3125 20.8181C19.4463 20.7484 19.5679 20.6562 19.6855 20.5508C19.7381 20.5037 19.8215 20.4166 19.8856 20.3676C19.9651 20.3634 20.0856 20.3762 20.1541 20.3786C20.4376 20.3884 20.703 20.3598 20.9543 20.2147C21.2055 20.0696 21.3645 19.8545 21.4979 19.6038C21.5307 19.5421 21.5796 19.4312 21.6229 19.3637C21.6961 19.3327 21.8139 19.3034 21.8793 19.2821C21.908 19.2728 21.9363 19.263 21.9642 19.2529ZM23.2441 14.8692C23.3022 15.1989 22.9115 15.4866 22.8544 15.8102C22.8006 16.1151 23.0283 16.4905 22.9281 16.7653C22.8272 17.0416 22.4097 17.184 22.2567 17.4487C22.1033 17.7141 22.1882 18.1468 21.9998 18.3716C21.8119 18.5958 21.3712 18.5878 21.1359 18.7856C20.9025 18.9818 20.8354 19.4173 20.5793 19.5652C20.3284 19.7102 19.9148 19.5526 19.6258 19.6574C19.342 19.7603 19.1298 20.1466 18.8353 20.1985C18.5408 20.2504 18.2093 19.96 17.9074 19.9604C17.6001 19.9607 17.2653 20.2503 16.9799 20.1999C16.6887 20.1485 16.4766 19.7622 16.1902 19.6576C15.9016 19.5522 15.4901 19.7105 15.2368 19.5641C14.9827 19.4172 14.9145 18.9816 14.6797 18.7847C14.4454 18.5882 14.0046 18.5975 13.8151 18.3721C13.6271 18.1484 13.7124 17.7172 13.5577 17.4494C13.4058 17.1865 12.9886 17.0444 12.8874 16.7652C12.7885 16.4923 13.0169 16.1186 12.9624 15.8099C12.9124 15.526 12.6182 15.272 12.5714 15.0067C12.5132 14.6767 12.9039 14.3894 12.961 14.0657C13.0148 13.7611 12.7872 13.3852 12.8874 13.1106C12.9883 12.8341 13.4059 12.6917 13.5588 12.4272C13.7121 12.162 13.6272 11.7291 13.8157 11.5042C14.0036 11.2801 14.4444 11.288 14.6796 11.0903C14.913 10.8941 14.9803 10.4584 15.2362 10.3106C15.4872 10.1657 15.9008 10.3232 16.1897 10.2185C16.4736 10.1155 16.6857 9.72933 16.9802 9.67739C17.2748 9.62545 17.6062 9.91584 17.9081 9.91547C18.2153 9.91514 18.5502 9.62564 18.8356 9.67598C19.1268 9.72736 19.3391 10.1138 19.6253 10.2183C19.914 10.3237 20.3255 10.1654 20.5787 10.3118C20.8328 10.4587 20.901 10.8944 21.1358 11.0912C21.3701 11.2875 21.8111 11.2785 22.0004 11.5038C22.1886 11.7277 22.1031 12.1585 22.2578 12.4265C22.4095 12.6892 22.8268 12.8314 22.9282 13.1108C23.0272 13.3836 22.7986 13.7573 22.8531 14.066C22.9031 14.3499 23.1973 14.6039 23.2441 14.8692ZM17.9078 10.9223C19.0166 10.9223 20.0205 11.3718 20.7472 12.0985C21.4739 12.8252 21.9234 13.8291 21.9234 14.9379C21.9234 16.0468 21.4739 17.0507 20.7472 17.7774C20.0205 18.5041 19.0166 18.9536 17.9078 18.9536C16.7989 18.9536 15.795 18.5041 15.0683 17.7774C14.3416 17.0507 13.8921 16.0468 13.8921 14.9379C13.8921 13.8291 14.3416 12.8252 15.0683 12.0985C15.795 11.3718 16.7989 10.9223 17.9078 10.9223ZM20.217 12.6287C20.8079 13.2197 21.1734 14.0361 21.1734 14.9379C21.1734 15.8397 20.8079 16.6561 20.217 17.2471C19.626 17.838 18.8096 18.2035 17.9078 18.2035C17.006 18.2035 16.1895 17.838 15.5986 17.2471C15.0077 16.6561 14.6422 15.8397 14.6422 14.9379C14.6422 14.0361 15.0077 13.2196 15.5986 12.6287C16.1895 12.0378 17.006 11.6723 17.9078 11.6723C18.8096 11.6723 19.626 12.0378 20.217 12.6287ZM17.9078 12.5258L18.5253 14.037L20.1534 14.1573L18.907 15.2116L19.2957 16.7972L17.9078 15.9376L16.5199 16.7972L16.9086 15.2116L15.6622 14.1573L17.2903 14.037L17.9078 12.5258ZM10.0146 4.20408C11.4135 4.20408 12.5476 5.33817 12.5476 6.73716C12.5476 8.13614 11.4135 9.27023 10.0146 9.27023C8.61558 9.27023 7.48148 8.13614 7.48148 6.73716C7.48148 5.33817 8.61558 4.20408 10.0146 4.20408Z" fill="white"/>
</g>
<defs>
<clipPath id="clip0_209_3982">
<rect width="24" height="24" fill="white"/>
</clipPath>
</defs>
</svg>
