<svg width="24" height="24" viewBox="0 0 24 24" fill="none" xmlns="http://www.w3.org/2000/svg">
<path d="M12.0002 24C18.5484 21.5504 22.8882 15.2935 22.8882 8.30217V4.06481C20.6432 4.06481 18.8234 2.24494 18.8234 0H12.0002H5.17712C5.17712 2.24494 3.35724 4.06481 1.1123 4.06481V8.30212C1.1123 15.2935 5.45204 21.5504 12.0002 24Z" fill="#1FDA74"/>
<path d="M12 24C18.5482 21.5504 22.8879 15.2935 22.8879 8.30217V4.06481C20.643 4.06481 18.8231 2.24494 18.8231 0H12C12 0 12 18.6562 12 24Z" fill="#04B856"/>
<path d="M10.4835 16.2318L6.87402 12.6224L8.86274 10.6337L10.4835 12.2544L15.1378 7.6001L17.1265 9.58882L10.4835 16.2318Z" fill="white"/>
<path d="M12 14.7151V10.7376L15.1375 7.6001L17.1262 9.58882L12 14.7151Z" fill="#E6E6E6"/>
</svg>
