<svg width="16" height="18" viewBox="0 0 16 18" fill="none" xmlns="http://www.w3.org/2000/svg">
<path d="M14.875 2.74999C11.4 2.74999 8.41875 0.412493 8.3875 0.387493C8.27716 0.300299 8.14063 0.252869 8 0.252869C7.85937 0.252869 7.72284 0.300299 7.6125 0.387493C7.58125 0.412493 4.6125 2.74999 1.125 2.74999C0.95924 2.74999 0.800269 2.81584 0.683058 2.93305C0.565848 3.05026 0.5 3.20923 0.5 3.37499V8.99999C0.5 13.1937 2.19375 15.25 7.74375 17.6937C7.82432 17.73 7.91166 17.7487 8 17.7487C8.08834 17.7487 8.17568 17.73 8.25625 17.6937C13.8062 15.25 15.5 13.1937 15.5 8.99999V3.37499C15.5 3.20923 15.4342 3.05026 15.3169 2.93305C15.1997 2.81584 15.0408 2.74999 14.875 2.74999ZM8 14C7.01109 14 6.04439 13.7067 5.22215 13.1573C4.3999 12.6079 3.75904 11.827 3.3806 10.9134C3.00216 9.99978 2.90315 8.99445 3.09607 8.02454C3.289 7.05464 3.7652 6.16372 4.46447 5.46446C5.16373 4.7652 6.05464 4.28899 7.02455 4.09607C7.99445 3.90314 8.99979 4.00216 9.91342 4.38059C10.827 4.75903 11.6079 5.3999 12.1573 6.22214C12.7068 7.04439 13 8.01109 13 8.99999C13 10.3261 12.4732 11.5978 11.5355 12.5355C10.5979 13.4732 9.32608 14 8 14Z" fill="#325D9C"/>
<path d="M9.43137 7.30624L7.37512 9.36874L6.56887 8.55624C6.51059 8.49797 6.44141 8.45174 6.36527 8.42021C6.28913 8.38867 6.20753 8.37244 6.12512 8.37244C6.0427 8.37244 5.9611 8.38867 5.88496 8.42021C5.80882 8.45174 5.73964 8.49797 5.68137 8.55624C5.62309 8.61452 5.57687 8.6837 5.54533 8.75984C5.51379 8.83598 5.49756 8.91758 5.49756 8.99999C5.49756 9.08241 5.51379 9.16401 5.54533 9.24015C5.57687 9.31629 5.62309 9.38547 5.68137 9.44374L6.93137 10.6937C6.98947 10.7523 7.05859 10.7988 7.13476 10.8306C7.21092 10.8623 7.29261 10.8786 7.37512 10.8786C7.45762 10.8786 7.53931 10.8623 7.61548 10.8306C7.69164 10.7988 7.76076 10.7523 7.81887 10.6937L10.3189 8.19374C10.3771 8.13547 10.4234 8.06629 10.4549 7.99015C10.4864 7.91401 10.5027 7.83241 10.5027 7.74999C10.5027 7.66758 10.4864 7.58598 10.4549 7.50984C10.4234 7.4337 10.3771 7.36452 10.3189 7.30624C10.2606 7.24797 10.1914 7.20174 10.1153 7.17021C10.0391 7.13867 9.95753 7.12244 9.87512 7.12244C9.7927 7.12244 9.7111 7.13867 9.63496 7.17021C9.55882 7.20174 9.48964 7.24797 9.43137 7.30624Z" fill="#325D9C"/>
</svg>
