<svg width="21" height="20" viewBox="0 0 21 20" fill="none" xmlns="http://www.w3.org/2000/svg">
<g id="whatsapp-blue" clip-path="url(#clip0_574_2375)">
<path id="Vector" d="M10.6773 0.199585C5.36322 0.199585 1.05522 4.47358 1.05522 9.74761C1.05522 11.5516 1.55922 13.2376 2.43522 14.6776L0.699219 19.7996L6.02722 18.1076C7.40522 18.8636 8.99122 19.2956 10.6773 19.2956C15.9913 19.2956 20.2993 15.0196 20.2993 9.74761C20.2993 4.47358 15.9913 0.199585 10.6773 0.199585ZM15.4613 13.3736C15.2353 13.9356 14.2113 14.4476 13.7593 14.4696C13.3073 14.4936 13.2953 14.8196 10.8353 13.7516C8.37522 12.6836 6.89522 10.0836 6.77922 9.91561C6.66322 9.74961 5.82722 8.55758 5.87122 7.35758C5.91722 6.15758 6.57322 5.59158 6.80722 5.35758C7.04122 5.12158 7.30922 5.07958 7.47322 5.07758C7.66722 5.07358 7.79322 5.07158 7.93522 5.07758C8.07922 5.08358 8.29322 5.04758 8.47922 5.54358C8.66522 6.03958 9.11122 7.25558 9.16722 7.38158C9.22322 7.50558 9.25922 7.64958 9.17122 7.80958C9.08322 7.96958 9.03722 8.06958 8.91122 8.20758C8.78322 8.34558 8.64122 8.51558 8.52722 8.62158C8.39922 8.73758 8.26522 8.86558 8.40122 9.11558C8.53522 9.36558 8.99922 10.1816 9.70322 10.8536C10.6093 11.7176 11.3913 12.0056 11.6333 12.1356C11.8753 12.2676 12.0193 12.2516 12.1673 12.0956C12.3153 11.9376 12.8073 11.4076 12.9813 11.1696C13.1553 10.9316 13.3173 10.9776 13.5393 11.0676C13.7613 11.1576 14.9453 11.7916 15.1873 11.9236C15.4293 12.0536 15.5893 12.1216 15.6473 12.2256C15.7053 12.3236 15.6873 12.8116 15.4613 13.3736Z" fill="white"/>
</g>
<defs>
<clipPath id="clip0_574_2375">
<rect width="20" height="20" fill="white" transform="translate(0.5)"/>
</clipPath>
</defs>
</svg>
