<svg width="16" height="16" viewBox="0 0 16 16" fill="none" xmlns="http://www.w3.org/2000/svg">
<g id="bubble-chat (1) 1" clip-path="url(#clip0_601_11084)">
<g id="Layer 2">
<path id="Vector" d="M13.2674 3.13333C12.1016 1.86754 10.5192 1.06373 8.80945 0.868934C7.09971 0.674135 5.37699 1.10137 3.95641 2.07249C2.53582 3.04361 1.51233 4.49369 1.07315 6.1575C0.63397 7.82131 0.808456 9.58762 1.56469 11.1333C1.65302 11.302 1.67673 11.4971 1.63136 11.682L1.14803 13.458C1.09494 13.6526 1.09316 13.8575 1.14287 14.053C1.19257 14.2484 1.29206 14.4277 1.43165 14.5732C1.57123 14.7188 1.74614 14.8257 1.93934 14.8836C2.13253 14.9414 2.33742 14.9482 2.53403 14.9033L4.50736 14.4473C4.67683 14.4141 4.85252 14.4375 5.00736 14.514C5.94724 14.9459 6.96964 15.1688 8.00403 15.1673C8.41324 15.1673 8.82174 15.1334 9.22536 15.066C10.497 14.8473 11.686 14.2893 12.6669 13.4509C13.6477 12.6125 14.384 11.5249 14.798 10.3027C15.212 9.0806 15.2883 7.76938 15.0189 6.50748C14.7495 5.24559 14.1443 4.07984 13.2674 3.13333ZM8.00069 9.83333H5.33403C5.20142 9.83333 5.07424 9.78065 4.98047 9.68689C4.8867 9.59312 4.83403 9.46594 4.83403 9.33333C4.83403 9.20072 4.8867 9.07355 4.98047 8.97978C5.07424 8.88601 5.20142 8.83333 5.33403 8.83333H8.00069C8.1333 8.83333 8.26048 8.88601 8.35425 8.97978C8.44802 9.07355 8.50069 9.20072 8.50069 9.33333C8.50069 9.46594 8.44802 9.59312 8.35425 9.68689C8.26048 9.78065 8.1333 9.83333 8.00069 9.83333ZM10.6674 7.16667H5.33403C5.20142 7.16667 5.07424 7.11399 4.98047 7.02022C4.8867 6.92645 4.83403 6.79927 4.83403 6.66667C4.83403 6.53406 4.8867 6.40688 4.98047 6.31311C5.07424 6.21935 5.20142 6.16667 5.33403 6.16667H10.6674C10.8 6.16667 10.9271 6.21935 11.0209 6.31311C11.1147 6.40688 11.1674 6.53406 11.1674 6.66667C11.1674 6.79927 11.1147 6.92645 11.0209 7.02022C10.9271 7.11399 10.8 7.16667 10.6674 7.16667Z" fill="#325D9C"/>
</g>
</g>
<defs>
<clipPath id="clip0_601_11084">
<rect width="16" height="16" fill="white"/>
</clipPath>
</defs>
</svg>
