<svg width="16" height="16" viewBox="0 0 16 16" fill="none" xmlns="http://www.w3.org/2000/svg">
<g id="calendar (7) 1">
<g id="Group">
<path id="Vector" d="M3.6 5.32501H13.925H14.4C14.575 5.32501 14.75 5.37501 14.925 5.45001V4.30001C14.925 3.17501 14.025 2.25001 12.9 2.20001V3.20001V3.35001C12.9 3.62501 12.675 3.85001 12.4 3.85001C12.125 3.85001 11.9 3.60001 11.9 3.35001C11.9 3.30001 11.9 3.25001 11.9 3.20001C11.9 2.87501 11.9 2.55001 11.9 2.20001H5.725V3.20001V3.30001C5.725 3.57501 5.5 3.80001 5.225 3.80001C4.95 3.80001 4.725 3.55001 4.725 3.30001C4.725 3.27501 4.725 3.22501 4.725 3.20001C4.725 3.17501 4.725 3.17501 4.725 3.15001C4.725 2.82501 4.725 2.52501 4.725 2.20001C3.575 2.20001 2.625 3.15001 2.625 4.30001V5.97501C2.775 5.57501 3.15 5.32501 3.6 5.32501Z" fill="#325D9C"/>
<path id="Vector_2" d="M13.925 11.975C13.575 12.675 12.875 13.1 12.125 13.1H3.875H2.75C3.05 13.925 3.825 14.5 4.725 14.5H12.825C13.975 14.5 14.925 13.55 14.925 12.4V9.375C14.85 9.65 14.75 9.95 14.65 10.225C14.45 10.8 14.2 11.4 13.925 11.975Z" fill="#325D9C"/>
<path id="Vector_3" d="M14.3998 6.32501H3.59983C3.54983 6.32501 3.52483 6.35001 3.52483 6.40001C3.37483 7.62501 3.07483 8.82501 2.67483 9.97501C2.47483 10.5 2.24983 11.05 1.99983 11.575C1.89983 11.8 2.04983 12.1 2.32483 12.1H12.1498C12.5248 12.1 12.8748 11.875 13.0498 11.55C13.2998 11.025 13.5248 10.45 13.7248 9.90001C14.1248 8.77501 14.3748 7.60001 14.4998 6.42501C14.4998 6.40001 14.4998 6.37501 14.4748 6.35001C14.4498 6.32501 14.4248 6.32501 14.3998 6.32501ZM10.5998 8.35001C9.92483 9.02501 9.24983 9.70001 8.54983 10.4C8.34983 10.6 8.02483 10.6 7.84983 10.4C7.37483 9.92501 6.89983 9.45001 6.42483 8.97501C5.97483 8.52501 6.67483 7.80001 7.12483 8.27501C7.47483 8.62501 7.84983 9.00001 8.19983 9.35001C8.77483 8.77501 9.32483 8.22501 9.89983 7.65001C10.3498 7.20001 11.0498 7.90001 10.5998 8.35001Z" fill="#325D9C"/>
</g>
</g>
</svg>
