<svg width="20" height="20" viewBox="0 0 20 20" fill="none" xmlns="http://www.w3.org/2000/svg">
<g id="email 1">
<g id="Group">
<path id="Vector" d="M10.0012 8.80946L18.4948 3.51347C18.4024 3.49883 18.3087 3.48932 18.2127 3.48932H1.7898C1.69373 3.48932 1.59986 3.4992 1.50781 3.51347L10.0012 8.80946Z" fill="white"/>
<path id="Vector_2" d="M10.5347 10.8573C10.5234 10.8647 10.5109 10.8694 10.4992 10.8764C10.4869 10.8831 10.4738 10.8897 10.4615 10.8959C10.3947 10.9303 10.3259 10.958 10.2556 10.9763C10.2483 10.9783 10.2414 10.9794 10.2344 10.9809C10.157 10.999 10.0792 11.0101 10.0013 11.0101C10.0011 11.0101 10.0007 11.0101 10.0005 11.0101C10.0004 11.0101 10 11.0101 9.99963 11.0101C9.92168 11.0101 9.84373 10.9992 9.76668 10.9809C9.75955 10.9792 9.75223 10.9781 9.74509 10.9763C9.67482 10.9578 9.60657 10.9302 9.53941 10.8959C9.52678 10.8897 9.51397 10.8831 9.50153 10.8764C9.48963 10.8696 9.47737 10.8648 9.46566 10.8573L0.0279979 4.97247C0.0109796 5.07184 0 5.17358 0 5.27825V14.7223C0 15.7101 0.800593 16.5109 1.78857 16.5109H18.2114C19.1992 16.5109 20 15.7101 20 14.7223V5.27825C20 5.17358 19.9892 5.07202 19.9718 4.97247L10.5347 10.8573Z" fill="white"/>
</g>
</g>
</svg>
