<svg width="16" height="16" viewBox="0 0 16 16" fill="none" xmlns="http://www.w3.org/2000/svg">
<g id="emoticon 1" clip-path="url(#clip0_601_11093)">
<g id="Layer 2">
<path id="Vector" d="M8.00066 0.833313C6.58322 0.833313 5.19762 1.25363 4.01907 2.04111C2.84052 2.8286 1.92195 3.94788 1.37952 5.25742C0.83709 6.56695 0.695166 8.00793 0.971693 9.39813C1.24822 10.7883 1.93078 12.0653 2.93306 13.0676C3.93533 14.0699 5.21231 14.7524 6.60251 15.0289C7.9927 15.3055 9.43368 15.1635 10.7432 14.6211C12.0528 14.0787 13.172 13.1601 13.9595 11.9816C14.747 10.803 15.1673 9.41741 15.1673 7.99998C15.1652 6.09991 14.4095 4.27827 13.0659 2.93472C11.7224 1.59117 9.90072 0.83543 8.00066 0.833313ZM10.0007 4.83331C10.2314 4.83331 10.457 4.90174 10.6488 5.02993C10.8407 5.15813 10.9902 5.34034 11.0785 5.55352C11.1668 5.7667 11.1899 6.00127 11.1449 6.22759C11.0999 6.4539 10.9888 6.66178 10.8256 6.82494C10.6625 6.9881 10.4546 7.09921 10.2283 7.14423C10.0019 7.18925 9.76737 7.16614 9.55419 7.07784C9.34101 6.98954 9.1588 6.84 9.03061 6.64815C8.90241 6.45629 8.83399 6.23073 8.83399 5.99998C8.83434 5.69067 8.95737 5.39413 9.17609 5.17541C9.3948 4.9567 9.69134 4.83367 10.0007 4.83331ZM6.00065 4.83331C6.2314 4.83331 6.45696 4.90174 6.64882 5.02993C6.84068 5.15813 6.99021 5.34034 7.07851 5.55352C7.16682 5.7667 7.18992 6.00127 7.1449 6.22759C7.09989 6.4539 6.98877 6.66178 6.82561 6.82494C6.66245 6.9881 6.45457 7.09921 6.22826 7.14423C6.00195 7.18925 5.76737 7.16614 5.55419 7.07784C5.34101 6.98954 5.1588 6.84 5.03061 6.64815C4.90241 6.45629 4.83399 6.23073 4.83399 5.99998C4.83434 5.69067 4.95737 5.39413 5.17609 5.17541C5.3948 4.9567 5.69134 4.83367 6.00065 4.83331ZM11.5653 10.3333C11.1089 10.8184 10.5558 11.2025 9.94188 11.4609C9.32791 11.7193 8.66664 11.8461 8.00066 11.8333C7.33467 11.8461 6.6734 11.7193 6.05943 11.4609C5.44547 11.2025 4.89244 10.8184 4.43599 10.3333C4.38722 10.2855 4.34878 10.2281 4.32304 10.1648C4.2973 10.1015 4.2848 10.0336 4.28632 9.96533C4.28783 9.89702 4.30334 9.82975 4.33187 9.76767C4.36039 9.70558 4.40135 9.65001 4.45219 9.60436C4.50303 9.55872 4.56269 9.52399 4.62749 9.5023C4.69228 9.48061 4.76083 9.47243 4.8289 9.47827C4.89698 9.48411 4.96314 9.50383 5.02329 9.53623C5.08345 9.56863 5.13632 9.61302 5.17865 9.66665C5.54363 10.0446 5.98259 10.3432 6.46812 10.5439C6.95366 10.7447 7.47536 10.8432 8.00066 10.8333C8.52595 10.8432 9.04765 10.7447 9.53319 10.5439C10.0187 10.3432 10.4577 10.0446 10.8227 9.66665C10.865 9.61302 10.9179 9.56863 10.978 9.53623C11.0382 9.50383 11.1043 9.48411 11.1724 9.47827C11.2405 9.47243 11.309 9.48061 11.3738 9.5023C11.4386 9.52399 11.4983 9.55872 11.5491 9.60436C11.6 9.65001 11.6409 9.70558 11.6694 9.76767C11.698 9.82975 11.7135 9.89702 11.715 9.96533C11.7165 10.0336 11.704 10.1015 11.6783 10.1648C11.6525 10.2281 11.6141 10.2855 11.5653 10.3333Z" fill="#325D9C"/>
</g>
</g>
<defs>
<clipPath id="clip0_601_11093">
<rect width="16" height="16" fill="white"/>
</clipPath>
</defs>
</svg>
