<svg width="16" height="16" viewBox="0 0 16 16" fill="none" xmlns="http://www.w3.org/2000/svg">
<g id="clock_time_icon_142903 1" clip-path="url(#clip0_574_2370)">
<path id="Vector" fill-rule="evenodd" clip-rule="evenodd" d="M8.8 7.53812V4C8.8 3.5584 8.4416 3.2 8 3.2C7.5584 3.2 7.2 3.5584 7.2 4V7.99107C7.19859 8.13223 7.2346 8.27174 7.304 8.39451C7.38197 8.52699 7.48478 8.62793 7.60773 8.69729L11.0641 10.6928C11.4465 10.9136 11.9361 10.7824 12.1569 10.4C12.3777 10.0176 12.2465 9.52798 11.8641 9.30718L8.8 7.53812ZM8 0C12.4184 0 16 3.58161 16 8C16 12.4184 12.4184 16 8 16C3.58161 16 0 12.4184 0 8C0 3.58161 3.58161 0 8 0Z" fill="#325D9C"/>
</g>
<defs>
<clipPath id="clip0_574_2370">
<rect width="16" height="16" fill="white"/>
</clipPath>
</defs>
</svg>
