<svg width="12" height="12" viewBox="0 0 12 12" fill="none" xmlns="http://www.w3.org/2000/svg">
<g clip-path="url(#clip0_172_835)">
<path d="M1.74194 1.76613C2.91935 0.58871 4.33871 0 6 0C7.66129 0 9.07258 0.58871 10.2339 1.76613C11.4113 2.92742 12 4.33871 12 6C12 7.66129 11.4113 9.08065 10.2339 10.2581C9.07258 11.4194 7.66129 12 6 12C4.33871 12 2.91935 11.4194 1.74194 10.2581C0.580645 9.08065 0 7.66129 0 6C0 4.33871 0.580645 2.92742 1.74194 1.76613ZM8.22581 7.57258C8.29032 7.50806 8.32258 7.42742 8.32258 7.33065C8.32258 7.20161 8.27419 7.09677 8.17742 7.01613L6.77419 6V2.51613C6.77419 2.40323 6.73387 2.31452 6.65323 2.25C6.58871 2.16935 6.5 2.12903 6.3871 2.12903H5.6129C5.5 2.12903 5.40323 2.16935 5.32258 2.25C5.25806 2.31452 5.22581 2.40323 5.22581 2.51613V6.29032C5.22581 6.59677 5.34677 6.84677 5.58871 7.04032L7.20968 8.22581C7.27419 8.29032 7.35484 8.32258 7.45161 8.32258C7.58065 8.32258 7.67742 8.27419 7.74194 8.17742L8.22581 7.57258Z" fill="#002E5D"/>
</g>
<defs>
<clipPath id="clip0_172_835">
<rect width="12" height="12" fill="white"/>
</clipPath>
</defs>
</svg>
