<svg width="12" height="12" viewBox="0 0 12 12" fill="none" xmlns="http://www.w3.org/2000/svg">
<g id="i" clip-path="url(#clip0_208_1065)">
<g id="Group 2372">
<circle id="Ellipse 23" cx="6" cy="6" r="6" fill="#F70431"/>
<path id="i_2" d="M4 9V8.58701H4.11321C4.20755 8.58701 4.30503 8.57662 4.40566 8.55584C4.51258 8.52987 4.60063 8.48052 4.66981 8.40779C4.74528 8.33507 4.78302 8.22597 4.78302 8.08052V5.71169C4.78302 5.57143 4.74528 5.46753 4.66981 5.4C4.59434 5.33247 4.50314 5.28831 4.39623 5.26753C4.2956 5.24675 4.20126 5.23636 4.11321 5.23636H4V4.82338H6.21698V8.08052C6.21698 8.22597 6.25157 8.33507 6.32075 8.40779C6.39623 8.48052 6.48742 8.52987 6.59434 8.55584C6.70126 8.57662 6.79874 8.58701 6.88679 8.58701H7V9H4ZM5.45283 4.12208C5.22642 4.12208 5.03459 4.07792 4.87736 3.98961C4.72642 3.8961 4.65094 3.75325 4.65094 3.56104C4.65094 3.36364 4.72956 3.22078 4.88679 3.13247C5.04403 3.04416 5.23585 3 5.46226 3C5.6761 3 5.86164 3.04416 6.01887 3.13247C6.18239 3.22078 6.26415 3.36364 6.26415 3.56104C6.26415 3.75325 6.18239 3.8961 6.01887 3.98961C5.86164 4.07792 5.67296 4.12208 5.45283 4.12208Z" fill="white"/>
</g>
</g>
<defs>
<clipPath id="clip0_208_1065">
<rect width="12" height="12" fill="white"/>
</clipPath>
</defs>
</svg>
