<svg width="24" height="24" viewBox="0 0 24 24" fill="none" xmlns="http://www.w3.org/2000/svg">
<g id="menu 1" clip-path="url(#clip0_590_5022)">
<g id="Group">
<path id="Vector" d="M2.1724 21.4165L3.62109 19.2435L2.1724 17.0704L0.723709 17.0704C0.323677 17.0704 -0.000636929 17.3947 -0.000636894 17.7948L-0.000636641 20.6922C-0.000636606 21.0922 0.323677 21.4165 0.723709 21.4165L2.1724 21.4165Z" fill="#F70431"/>
<path id="Vector_2" d="M24 20.6922L24 17.7948C24 17.3947 23.6757 17.0704 23.2757 17.0704L2.17304 17.0704C1.77301 17.0704 1.44869 17.3947 1.44869 17.7948L1.44869 20.6922C1.44869 21.0922 1.77301 21.4165 2.17304 21.4165L23.2757 21.4165C23.6757 21.4165 24 21.0922 24 20.6922Z" fill="#325D9C"/>
<path id="Vector_3" d="M2.1724 14.173L3.62109 12L2.1724 9.82696L0.723709 9.82696C0.323677 9.82696 -0.000636929 10.1513 -0.000636894 10.5513L-0.000636641 13.4487C-0.000636606 13.8487 0.323677 14.173 0.723709 14.173L2.1724 14.173Z" fill="#F70431"/>
<path id="Vector_4" d="M24 13.4487L24 10.5513C24 10.1513 23.6757 9.82696 23.2757 9.82696L2.17304 9.82696C1.77301 9.82696 1.44869 10.1513 1.44869 10.5513L1.44869 13.4487C1.44869 13.8487 1.77301 14.173 2.17304 14.173L23.2757 14.173C23.6757 14.173 24 13.8487 24 13.4487Z" fill="#325D9C"/>
<path id="Vector_5" d="M2.1724 6.9296L3.62109 4.75656L2.1724 2.58352L0.723709 2.58352C0.323677 2.58352 -0.000636929 2.90783 -0.000636894 3.30787L-0.000636641 6.20525C-0.000636606 6.60528 0.323677 6.9296 0.723709 6.9296L2.1724 6.9296Z" fill="#F70431"/>
<path id="Vector_6" d="M24 6.20525L24 3.30787C24 2.90783 23.6757 2.58352 23.2757 2.58352L2.17304 2.58352C1.77301 2.58352 1.44869 2.90784 1.44869 3.30787L1.44869 6.20525C1.44869 6.60528 1.77301 6.9296 2.17304 6.9296L23.2757 6.9296C23.6757 6.9296 24 6.60528 24 6.20525Z" fill="#325D9C"/>
</g>
</g>
<defs>
<clipPath id="clip0_590_5022">
<rect width="24" height="24" fill="white" transform="translate(24 24) rotate(180)"/>
</clipPath>
</defs>
</svg>
