<svg width="12" height="12" viewBox="0 0 12 12" fill="none" xmlns="http://www.w3.org/2000/svg">
<g clip-path="url(#clip0_1477_17023)">
<path d="M8.90705 3.12825L6.28205 0.12825C6.2108 0.04725 6.10805 0 6.00005 0C5.89205 0 5.7893 0.04725 5.71805 0.12825L3.09305 3.12825C2.9963 3.23925 2.9723 3.396 3.0338 3.53025C3.09455 3.66375 3.22805 3.75 3.37505 3.75H4.87505V8.625C4.87505 8.832 5.04305 9 5.25005 9H6.75005C6.95705 9 7.12505 8.832 7.12505 8.625V3.75H8.62505C8.77205 3.75 8.90555 3.6645 8.9663 3.53025C9.02705 3.396 9.00455 3.2385 8.90705 3.12825Z" fill="#445664"/>
<path d="M10.125 8.25V10.5H1.875V8.25H0.375V11.25C0.375 11.6648 0.711 12 1.125 12H10.875C11.2898 12 11.625 11.6648 11.625 11.25V8.25H10.125Z" fill="#445664"/>
</g>
<defs>
<clipPath id="clip0_1477_17023">
<rect width="12" height="12" fill="white"/>
</clipPath>
</defs>
</svg>
