<svg width="32" height="32" viewBox="0 0 32 32" fill="none" xmlns="http://www.w3.org/2000/svg">
<g id="whatsapp-blue" clip-path="url(#clip0_43_667)">
<path id="Vector" d="M16.2848 0.318359C7.78234 0.318359 0.889546 7.15676 0.889546 15.5952C0.889546 18.4816 1.69594 21.1792 3.09754 23.4832L0.319946 31.6784L8.84474 28.9712C11.0495 30.1808 13.5871 30.872 16.2848 30.872C24.7872 30.872 31.68 24.0304 31.68 15.5952C31.68 7.15676 24.7872 0.318359 16.2848 0.318359ZM23.9392 21.3968C23.5776 22.296 21.9392 23.1152 21.216 23.1504C20.4928 23.1888 20.4736 23.7104 16.5376 22.0016C12.6015 20.2928 10.2335 16.1328 10.0479 15.864C9.86234 15.5984 8.52474 13.6912 8.59514 11.7712C8.66875 9.85116 9.71834 8.94556 10.0927 8.57116C10.4671 8.19356 10.8959 8.12636 11.1583 8.12316C11.4687 8.11676 11.6703 8.11355 11.8975 8.12316C12.1279 8.13276 12.4703 8.07516 12.7679 8.86876C13.0655 9.66236 13.7791 11.608 13.8687 11.8096C13.9583 12.008 14.0159 12.2384 13.8751 12.4944C13.7343 12.7504 13.6607 12.9104 13.4591 13.1312C13.2543 13.352 13.0271 13.624 12.8447 13.7936C12.6399 13.9792 12.4255 14.184 12.6431 14.584C12.8575 14.984 13.5999 16.2896 14.7263 17.3648C16.176 18.7472 17.4272 19.208 17.8144 19.416C18.2016 19.6272 18.432 19.6016 18.6688 19.352C18.9056 19.0992 19.6928 18.2512 19.9712 17.8704C20.2496 17.4896 20.5088 17.5632 20.864 17.7072C21.2192 17.8512 23.1136 18.8656 23.5008 19.0768C23.888 19.2848 24.144 19.3936 24.2368 19.56C24.3296 19.7168 24.3008 20.4976 23.9392 21.3968Z" fill="white"/>
</g>
<defs>
<clipPath id="clip0_43_667">
<rect width="32" height="32" fill="white"/>
</clipPath>
</defs>
</svg>
