<svg width="16" height="16" viewBox="0 0 16 16" fill="none" xmlns="http://www.w3.org/2000/svg">
<g id="whatsapp-blue" clip-path="url(#clip0_2_125)">
<path id="Vector" d="M8.14533 0C3.80734 0 0.290612 3.48897 0.290612 7.7943C0.290612 9.26695 0.702039 10.6433 1.41714 11.8188L0 16L4.34938 14.6188C5.47428 15.2359 6.76897 15.5886 8.14533 15.5886C12.4833 15.5886 16 12.098 16 7.7943C16 3.48897 12.4833 0 8.14533 0ZM12.0506 10.7543C11.8661 11.2131 11.0302 11.631 10.6612 11.649C10.2923 11.6686 10.2825 11.9347 8.27431 11.0629C6.26612 10.191 5.05795 8.06858 4.96326 7.93144C4.86857 7.79593 4.18612 6.82285 4.22204 5.84326C4.25959 4.86366 4.7951 4.40162 4.98612 4.2106C5.17714 4.01795 5.39591 3.98367 5.52979 3.98203C5.68816 3.97877 5.79101 3.97714 5.90693 3.98203C6.02448 3.98693 6.19918 3.95754 6.35101 4.36244C6.50285 4.76734 6.86693 5.75999 6.91265 5.86285C6.95836 5.96407 6.98775 6.08162 6.91591 6.21223C6.84407 6.34285 6.80652 6.42448 6.70367 6.53713C6.59918 6.64979 6.48326 6.78856 6.3902 6.87509C6.28571 6.96979 6.17632 7.07427 6.28734 7.27836C6.39673 7.48244 6.7755 8.14858 7.3502 8.69715C8.08982 9.40246 8.72818 9.63756 8.92573 9.74368C9.12329 9.85144 9.24084 9.83838 9.36165 9.71103C9.48247 9.58205 9.8841 9.1494 10.0261 8.95511C10.1682 8.76083 10.3004 8.79838 10.4817 8.87185C10.6629 8.94532 11.6294 9.46287 11.827 9.57062C12.0245 9.67674 12.1551 9.73225 12.2025 9.81715C12.2498 9.89715 12.2351 10.2955 12.0506 10.7543Z" fill="#04B856"/>
</g>
<defs>
<clipPath id="clip0_2_125">
<rect width="16" height="16" fill="white"/>
</clipPath>
</defs>
</svg>
