<svg width="638" height="478" fill="none" xmlns="http://www.w3.org/2000/svg"><g clip-path="url(#a)"><path d="m596.103 294.185 24.128 14.905-10.914 118.71h-79.719l66.505-133.615Z" fill="#ECF3FE"/><path d="M507.167 416.487 38.441 199.823 143.773 0l443.54 264.441-80.146 152.046Z" fill="#fff"/><path d="M399.353 173.873h-.085l-142.792-27.975a.422.422 0 0 1-.278-.183.421.421 0 0 1-.064-.326.435.435 0 0 1 .512-.346l142.788 27.975a.44.44 0 0 1 .345.469.437.437 0 0 1-.426.395v-.009Zm-62.87 59.004a.415.415 0 0 1-.239-.072l-110.002-72.989a.447.447 0 0 1-.214-.278.45.45 0 0 1 .06-.346.452.452 0 0 1 .295-.19.451.451 0 0 1 .339.088l110.002 72.989a.438.438 0 0 1 .173.488.44.44 0 0 1-.414.31Z" fill="#002E5D"/><path d="m586.742 78.118 7.852-12.626-14.824-18.605-14.046 4.838-16.404-9.065-3.379-14.481-23.631-2.662-6.514 13.361-17.984 5.19-12.62-7.858-18.587 14.836 4.824 14.069-9.061 16.404-14.466 3.382c-1.329 11.81-1.332 11.84-2.664 23.647l13.352 6.519 5.185 18.013-7.852 12.63 14.825 18.604 14.048-4.837 16.392 9.068 3.379 14.478 23.625 2.665 6.517-13.365 18-5.186 12.617 7.858 18.593-14.836-4.837-14.06 9.061-16.404 14.467-3.382c1.331-11.809 1.334-11.841 2.663-23.65l-13.351-6.519-5.18-18.026Zm-52.984 57.04a30.701 30.701 0 0 1-17.835-.251 30.72 30.72 0 0 1-14.69-10.125 30.764 30.764 0 0 1-2.869-34.043 30.741 30.741 0 0 1 12.788-12.444 30.704 30.704 0 0 1 33.923 3.825 30.752 30.752 0 0 1 10.709 26.935 30.743 30.743 0 0 1-22.026 26.103Z" fill="#fff"/><path d="M521.084 176.79h-.032l-23.643-2.656a.442.442 0 0 1-.377-.333l-3.336-14.289-16.052-8.883-13.864 4.777a.433.433 0 0 1-.483-.141l-14.825-18.605a.433.433 0 0 1-.028-.503l7.736-12.462-5.076-17.643-13.191-6.431a.434.434 0 0 1-.242-.443l2.664-23.647a.424.424 0 0 1 .332-.374l14.278-3.338 8.873-16.068-4.771-13.874a.442.442 0 0 1 .142-.484l18.587-14.836a.437.437 0 0 1 .502-.028l12.466 7.732 17.629-5.083 6.429-13.201a.444.444 0 0 1 .44-.242l23.631 2.665a.43.43 0 0 1 .374.334l3.332 14.289 14.856 8.216 1.2.663 13.866-4.774a.434.434 0 0 1 .481.141l14.827 18.605c.056.07.088.157.093.247a.435.435 0 0 1-.064.256l-7.739 12.475 5.078 17.64 13.176 6.434a.44.44 0 0 1 .245.44l-2.664 23.649a.433.433 0 0 1-.336.374l-14.278 3.338-.628 1.119c-3.14 5.658-4.943 8.949-8.26 14.95l4.774 13.874a.433.433 0 0 1-.138.484l-18.593 14.836a.441.441 0 0 1-.5.028l-12.456-7.745-17.626 5.083-6.429 13.201a.442.442 0 0 1-.38.233Zm-23.273-3.502 23.015 2.596 6.379-13.085a.444.444 0 0 1 .273-.226l18-5.189a.43.43 0 0 1 .349.047l12.359 7.685 18.109-14.459-4.736-13.767a.424.424 0 0 1 .031-.352l8.352-15.122.71-1.286a.43.43 0 0 1 .282-.213l14.168-3.304 2.594-23.033-13.075-6.387a.435.435 0 0 1-.229-.27l-5.185-18.014a.428.428 0 0 1 .05-.349l7.679-12.366-14.447-18.127-13.748 4.737a.44.44 0 0 1-.351-.031l-1.373-.758c-5.653-3.143-8.948-4.95-15.022-8.307a.453.453 0 0 1-.214-.283l-3.307-14.18-23.025-2.586-6.379 13.076a.428.428 0 0 1-.27.226l-18 5.19a.43.43 0 0 1-.351-.048l-12.356-7.685-18.11 14.459 4.736 13.767a.438.438 0 0 1-.031.352l-9.061 16.408a.44.44 0 0 1-.283.214l-14.165 3.313-2.594 23.033 13.075 6.384a.42.42 0 0 1 .226.27l5.186 18.014a.427.427 0 0 1-.051.352l-7.676 12.365 14.448 18.124 13.756-4.737a.44.44 0 0 1 .352.032l16.395 9.065a.447.447 0 0 1 .214.282l3.301 14.173Zm20.339-45.834a31.162 31.162 0 0 1-21.265-8.359 31.217 31.217 0 0 1-3.014-42.44 31.155 31.155 0 0 1 42.094-5.976 31.2 31.2 0 0 1 12.637 19.047 31.217 31.217 0 0 1-3.737 22.557 31.173 31.173 0 0 1-26.715 15.171Zm.032-61.51a30.273 30.273 0 0 0-22.892 10.41 30.326 30.326 0 0 0-2.698 36.203 30.283 30.283 0 0 0 33.932 12.836 30.301 30.301 0 0 0 17.015-12.64 30.337 30.337 0 0 0-5.522-39.349 30.282 30.282 0 0 0-19.835-7.46Z" fill="#002E5D"/><path d="m149.061 326.378 7.852-12.626-14.837-18.605-14.045 4.838-16.395-9.065-3.38-14.481-23.628-2.666-6.514 13.362-18 5.183-12.619-7.858-18.6 14.855 4.847 14.063-9.061 16.404-14.467 3.382c-1.328 11.809-1.335 11.841-2.663 23.65l13.351 6.516 5.186 18.013-7.852 12.63 14.824 18.604 14.052-4.84 16.395 9.068 3.392 14.478 23.625 2.665 6.514-13.362 17.999-5.189 12.62 7.858 18.593-14.836-4.837-14.06 9.062-16.404 14.466-3.382c1.332-11.809 1.335-11.841 2.663-23.647l-13.351-6.522-5.192-18.026Zm-52.985 57.027a30.702 30.702 0 0 1-32.525-10.375 30.762 30.762 0 0 1 9.92-46.488 30.71 30.71 0 0 1 33.923 3.828 30.743 30.743 0 0 1 9.7 14.98 30.747 30.747 0 0 1-2.631 23.385 30.713 30.713 0 0 1-18.386 14.67Z" fill="#fff"/><path d="M120.536 414.344a.432.432 0 0 1-.229-.066l-12.456-7.745-9.04 2.606a.438.438 0 0 1-.538-.297.438.438 0 0 1 .297-.54l9.228-2.659a.45.45 0 0 1 .348.047l12.359 7.686 18.11-14.459-4.737-13.767a.44.44 0 0 1 .032-.352l7.676-13.9 1.385-2.514a.447.447 0 0 1 .283-.214l14.168-3.313 2.594-23.033-13.075-6.384a.438.438 0 0 1-.229-.274l-5.186-18.013a.426.426 0 0 1 .05-.349l7.677-12.366-14.448-18.123-13.75 4.746a.44.44 0 0 1-.352-.032l-16.395-9.065a.437.437 0 0 1 .09-.801.424.424 0 0 1 .331.038l16.228 8.973 13.864-4.771a.434.434 0 0 1 .48.142l14.828 18.601a.444.444 0 0 1 .028.503l-7.739 12.463 5.079 17.639 13.175 6.435a.429.429 0 0 1 .242.44l-2.66 23.649a.433.433 0 0 1-.336.374l-14.278 3.338-1.291 2.339c-2.732 4.95-4.513 8.172-7.585 13.729l4.774 13.874a.44.44 0 0 1-.138.484l-18.593 14.836a.43.43 0 0 1-.271.095Zm-94.58-10.668a.438.438 0 0 1-.34-.164l-14.824-18.604a.441.441 0 0 1-.032-.503l7.74-12.463-5.08-17.643-13.175-6.431a.43.43 0 0 1-.242-.443l2.664-23.646a.43.43 0 0 1 .332-.375l14.275-3.338 8.873-16.068-4.768-13.88a.438.438 0 0 1 .142-.484l18.587-14.836a.436.436 0 0 1 .502-.028l12.469 7.751 17.63-5.083 6.428-13.201a.433.433 0 0 1 .425-.273.448.448 0 0 1 .313.153.438.438 0 0 1 .044.503l-6.53 13.375a.44.44 0 0 1-.27.229l-18 5.186a.435.435 0 0 1-.352-.047l-12.355-7.685-18.113 14.44 4.737 13.767a.445.445 0 0 1-.025.377L17.95 320.67a.446.446 0 0 1-.283.214l-14.168 3.313L.908 347.23l13.069 6.381a.421.421 0 0 1 .229.27l5.185 18.014a.432.432 0 0 1-.05.352l-7.676 12.356 14.447 18.123 13.757-4.736a.44.44 0 0 1 .497.103.438.438 0 0 1-.214.72l-14.046 4.841a.453.453 0 0 1-.15.022Zm54.448-27.953a31.239 31.239 0 0 1-21.312-8.385 31.291 31.291 0 0 1-3.015-42.542 31.23 31.23 0 0 1 42.192-5.997 31.293 31.293 0 0 1 8.94 41.699 31.253 31.253 0 0 1-26.805 15.225Zm.034-61.509a30.263 30.263 0 0 0-17.695 5.72 30.307 30.307 0 0 0-11.02 14.989 30.334 30.334 0 0 0-.191 18.609 30.314 30.314 0 0 0 10.71 15.213 30.275 30.275 0 0 0 35.387.741 30.31 30.31 0 0 0 11.337-14.751 30.333 30.333 0 0 0 .587-18.601 30.232 30.232 0 0 0-10.88-15.844 30.19 30.19 0 0 0-18.225-6.076h-.01Z" fill="#002E5D"/><path d="m402.963 431.974-140.339-35.389a12.455 12.455 0 0 1-7.653-5.694 12.474 12.474 0 0 1-1.387-9.441l70.118-278.516a12.468 12.468 0 0 1 5.692-7.657 12.45 12.45 0 0 1 9.434-1.386L479.18 129.28a12.463 12.463 0 0 1 9.039 15.135l-70.118 278.516a12.476 12.476 0 0 1-5.696 7.662 12.453 12.453 0 0 1-9.442 1.381Z" fill="#fff"/><path d="m475.587 147.897-129.965-32.771a4.939 4.939 0 0 0-5.986 3.58l-67.498 268.116a4.932 4.932 0 0 0 3.574 5.991l129.965 32.777a4.935 4.935 0 0 0 5.986-3.58l67.499-268.115a4.936 4.936 0 0 0-3.575-5.998Z" fill="#fff"/><path d="M445.479 359.457a23.396 23.396 0 0 1-13.581 1.163 20.772 20.772 0 0 1-1.008-.232l-174.9-44.1c-17.745-4.482-23.992-26.484-11.25-39.632l62.982-64.948 2.512-2.59 15.434-15.918 2.513-2.59 42.174-43.492c12.742-13.139 34.919-7.544 39.919 10.058l38.603 136.003 7.042 24.81 3.643 12.833c3.543 12.476-3.42 24.36-14.083 28.635Z" fill="#F70431"/><path d="m328.183 190.61-24.536 97.452-13.338.201 19.925-79.145 17.949-18.508Zm127.736 127.379-10.44 41.468a23.395 23.395 0 0 1-13.581 1.163l16.979-67.441 7.042 24.81Z" fill="#325D9C" style="mix-blend-mode:multiply" opacity=".25"/><path d="m483.93 136.704-140.355-35.389a12.445 12.445 0 0 0-13.037 4.649 12.494 12.494 0 0 0-2.083 4.394l-42.72 169.702 13.335-.201 40.57-161.137a4.926 4.926 0 0 1 5.967-3.58l129.962 32.768a4.925 4.925 0 0 1 3.675 4.067 4.93 4.93 0 0 1-.098 1.924l-44.655 177.377-22.843 90.738a4.934 4.934 0 0 1-5.986 3.58l-129.946-32.78a4.942 4.942 0 0 1-3.578-5.991l13.421-53.303-13.339.199-13.885 55.153a12.486 12.486 0 0 0 1.385 9.441 12.461 12.461 0 0 0 7.651 5.694l140.354 35.389a12.451 12.451 0 0 0 15.123-9.043l24.997-99.287 45.121-179.229a12.485 12.485 0 0 0-1.386-9.44 12.463 12.463 0 0 0-7.65-5.695Z" fill="#C9DAF4"/><path d="M406.016 432.791a12.946 12.946 0 0 1-3.141-.393l-140.361-35.389a12.908 12.908 0 0 1-7.913-5.897 12.928 12.928 0 0 1-1.44-9.769l70.118-278.516a12.903 12.903 0 0 1 5.89-7.924 12.885 12.885 0 0 1 9.763-1.437l140.349 35.405a12.918 12.918 0 0 1 7.912 5.898 12.931 12.931 0 0 1 1.441 9.768l-70.118 278.517a12.926 12.926 0 0 1-4.583 7.012 12.905 12.905 0 0 1-7.917 2.725Zm-2.937-1.238c3.092.777 6.366.294 9.102-1.343a12.042 12.042 0 0 0 5.494-7.386l70.117-278.513a12.051 12.051 0 0 0-1.341-9.109 12.036 12.036 0 0 0-7.381-5.498L338.719 94.315a12.008 12.008 0 0 0-12.582 4.485 12.03 12.03 0 0 0-2.01 4.241l-70.121 278.516a12.042 12.042 0 0 0 1.338 9.109 12.024 12.024 0 0 0 7.381 5.497l140.354 35.39Zm234.498 8.729H501.142a.448.448 0 0 1-.437-.26.44.44 0 0 1 .104-.498.446.446 0 0 1 .333-.113h136.435a.435.435 0 0 1 .284.731.442.442 0 0 1-.284.14Z" fill="#002E5D"/><path d="m534.015 217.362 25.547 9.065-3.351 29.798-9.284-.959v8.238l6.316 4.219 16.285 70.332 11.944 93.3-.487.11 2.99 8.383h-23.954l1.444-3.015h10.117l2.726-3.988-.289-1.38-23.474-80.479-15.299 25.576 11.671 54.859-.537.012 3.041 8.415h-23.983l1.382-3.024h10.154l2.726-3.876.405-1.442h-.826l-19.064-53.504 9.381-50.323-7.271-31.671-62.903-11.809 4.491-21.034 1.649.569.927 13.456 51.464-.091-1.09-4.875.406-4.728-46.358-26.601 5.17-20.984 1.501.921-.745 14.563 57.618 24.086 1.58-5.174-6.631-4.215 7.906-20.094-4.265-1.411.97-11.225Z" fill="#fff"/><path d="m533.71 219.911 21.259 9.257-.414 26.878-10.355-1.151 4.054-21.323-15.207-4.986.663-8.675Z" fill="#325D9C"/><path d="m546.304 232.93-8.675 22.408-8.223-5.246 7.906-20.094 8.992 2.932Z" fill="#FDC8AA"/><path d="m526.391 262.942 24.156 11.293 8.801 43.116-22.711 7.952-8.936-51.888-5.217-3.033 3.907-7.44Z" fill="#3B82F4"/><path d="m526.391 262.942-49.546-23.301-.006-4.246.744-14.563-1.501-.921-5.113 20.972 51.515 29.602 3.907-7.543Z" fill="#FDC8AA"/><path d="m510.199 283.568 9.228-.183 2.899 12.623-9.941-1.823-2.186-10.617Z" fill="#3B82F4"/><path d="m510.199 283.568-44.125-2.911.415-3.467-.927-13.456-1.649-.569-4.491 21.034 52.963 9.986-2.186-10.617Z" fill="#FDC8AA"/><path d="m547.391 321.538 11.953-4.187 4.991-1.735 5.192 22.439 11.944 93.3h-3.527l-30.553-109.817Z" fill="#325D9C"/><path d="m534.457 259.481 1.52-5.246 4.25 2.757.059 4.944-5.829-2.455Z" fill="#FDC8AA"/><path d="m545.812 334.946 4.733 16.031-15.299 25.579 11.668 54.859-3.847.031-14.84-53.29a7.791 7.791 0 0 1 .408-5.303l17.177-37.907Z" fill="#325D9C"/><path d="M556.21 256.662h-.044l-12.064-1.258a.433.433 0 0 1-.383-.515l4.046-21.082-14.856-4.768a.436.436 0 0 1-.314-.449l.863-11.316a.426.426 0 0 1 .195-.314.432.432 0 0 1 .383-.047l25.66 9.115a.442.442 0 0 1 .286.459l-3.351 29.797a.435.435 0 0 1-.421.378Zm-11.545-2.062 11.162 1.153 3.263-29.024-24.796-8.801-.792 10.395 14.897 4.78a.438.438 0 0 1 .292.5l-4.026 20.997Z" fill="#002E5D"/><path d="M540.211 257.429a.453.453 0 0 1-.235-.066l-10.817-6.9a.44.44 0 0 1-.173-.528l7.902-20.091a.455.455 0 0 1 .228-.259.442.442 0 0 1 .492.083.435.435 0 0 1 .094.49l-7.761 19.758 10.515 6.708a.43.43 0 0 1 .191.498.43.43 0 0 1-.436.307Zm41.274 174.47h-7.465a.432.432 0 0 1-.418-.315l-27.108-92.888a.44.44 0 0 1 .629-.506.44.44 0 0 1 .21.261l27.01 92.577h6.646l-11.803-92.505-16.332-70.518-6.175-4.12a.434.434 0 0 1-.194-.365v-6.035a.43.43 0 0 1 .113-.332.432.432 0 0 1 .497-.105.439.439 0 0 1 .26.437v5.803l6.124 4.086c.093.06.159.155.182.264l16.373 70.722a.162.162 0 0 1 0 .044l11.872 93.039a.431.431 0 0 1-.103.342.448.448 0 0 1-.318.114Zm-40.116-150.136a.42.42 0 0 1-.216-.059l-70.46-40.431a.435.435 0 0 1-.208-.485l5.17-20.98a.443.443 0 0 1 .259-.3.432.432 0 0 1 .394.032l1.533.943a.437.437 0 0 1 .204.393l-.75 14.145 63.094 26.421a.434.434 0 0 1 .294.408.432.432 0 0 1-.134.32.433.433 0 0 1-.496.077l-63.377-26.507a.44.44 0 0 1-.267-.427l.751-14.21-.801-.503-4.95 20.078 70.18 40.271a.437.437 0 0 1-.22.814Z" fill="#002E5D"/><path d="M522.484 270.922a.437.437 0 0 1-.436-.468.442.442 0 0 1 .046-.163l5.057-10.024a.439.439 0 0 1 .577-.176.438.438 0 0 1 .202.569l-5.057 10.024a.442.442 0 0 1-.389.238Zm24.441 160.977h-7.654a.439.439 0 0 1-.412-.29l-19.061-53.462a.46.46 0 0 1-.019-.227l9.369-50.115-12.714-55.484a.44.44 0 0 1 .335-.488.436.436 0 0 1 .513.293l12.733 55.572a.435.435 0 0 1 0 .176l-9.363 50.09 18.933 53.064h6.812L534.83 376.65a.438.438 0 0 1 .053-.314l15.299-25.576a.431.431 0 0 1 .446-.24.465.465 0 0 1 .169.058.448.448 0 0 1 .203.285.43.43 0 0 1-.071.343l-15.211 25.432 11.643 54.733a.415.415 0 0 1-.002.192.438.438 0 0 1-.434.336Z" fill="#002E5D"/><path d="M529.595 328.232a.434.434 0 0 1-.429-.363.437.437 0 0 1 .285-.485l25.562-9.006a.437.437 0 0 1 .579.434.423.423 0 0 1-.144.3.433.433 0 0 1-.146.087l-25.562 9.008a.425.425 0 0 1-.145.025Zm-7.271-31.736a.375.375 0 0 1-.082 0l-62.903-11.857a.433.433 0 0 1-.345-.518l4.5-21.082a.443.443 0 0 1 .215-.287.43.43 0 0 1 .357-.027l1.627.572a.438.438 0 0 1 .289.383l.857 13.067h51.157a.437.437 0 1 1 0 .874h-51.562a.437.437 0 0 1-.436-.409l-.852-13.183-.888-.314-4.303 20.154 62.466 11.778a.436.436 0 0 1-.081.864l-.016-.015Z" fill="#002E5D"/><path d="M512.384 294.622a.436.436 0 0 1-.427-.346l-2.654-12.305a.447.447 0 0 1 .06-.329.432.432 0 0 1 .276-.19.433.433 0 0 1 .451.177c.032.047.055.1.067.156l2.651 12.309a.442.442 0 0 1-.059.328.425.425 0 0 1-.274.188.35.35 0 0 1-.091.012Zm36.985 145.66h-23.888a.452.452 0 0 1-.21-.054.448.448 0 0 1-.158-.148.446.446 0 0 1-.025-.421l1.388-2.923a.44.44 0 0 1 .393-.248h9.824l2.598-3.772a.435.435 0 0 1 .719.493l-2.73 3.977a.429.429 0 0 1-.358.188h-9.777l-.973 2.049h22.579l-2.234-6.317a.437.437 0 0 1 .434-.579.435.435 0 0 1 .386.289l2.441 6.897a.445.445 0 0 1 .022.205.438.438 0 0 1-.431.376v-.012Z" fill="#002E5D"/><path d="m547.494 434.561-3.225 3.395-7.35-1.031h-10.05l-1.389 2.923h23.886l-1.872-5.287Zm36.483 5.721h-23.87a.438.438 0 0 1-.439-.414.441.441 0 0 1 .046-.215l1.385-2.923a.436.436 0 0 1 .396-.249h9.812l2.6-3.771a.434.434 0 1 1 .716.493l-2.726 3.976a.44.44 0 0 1-.361.189h-9.777l-.974 2.049h22.582l-2.236-6.318a.435.435 0 0 1 .82-.289l2.443 6.896a.441.441 0 0 1-.056.4.432.432 0 0 1-.361.176Z" fill="#002E5D"/><path d="m582.103 434.561-3.225 3.395-7.35-1.031h-10.05l-1.388 2.923h23.885l-1.872-5.287Zm-116.015-153.47h-.044a.431.431 0 0 1-.294-.16.444.444 0 0 1-.095-.321l.361-3.483a.437.437 0 0 1 .867.088l-.377 3.473a.436.436 0 0 1-.418.403Zm10.76-42.836a.434.434 0 0 1-.436-.437v-2.489a.435.435 0 0 1 .756-.333.448.448 0 0 1 .114.333v2.489a.455.455 0 0 1-.032.167.438.438 0 0 1-.402.27ZM466.089 432.82H16.331a.436.436 0 1 1 0-.874H466.09a.437.437 0 1 1 0 .874ZM533.044 478h-391.34a.43.43 0 0 1-.332-.114.436.436 0 0 1 .332-.757h391.34a.437.437 0 0 1 0 .871Z" fill="#002E5D"/><path d="M133.539 432.367H119.18l30.635-105.775h14.362l-30.638 105.775Zm77.235 0h-14.36l30.635-105.775h14.36l-30.635 105.775Z" fill="#454E54"/><path d="M170.655 328.314h-16.944v104.053h16.944V328.314Zm75.688 0h-16.945v104.053h16.945V328.314Z" fill="#fff"/><path d="M230.465 382.066h15.88v11.784l-15.88-11.784Zm-75.688 0h15.88v11.784l-15.88-11.784Zm-.531-46.566h15.88v11.787l-15.88-11.787Zm76.219 0h15.88v11.787l-15.88-11.787Z" fill="#C9DAF4"/><path d="M170.658 432.82h-16.944a.437.437 0 1 1 0-.874h16.517V328.751H154.15v69.779a.437.437 0 1 1-.873 0v-70.216a.45.45 0 0 1 .128-.308.432.432 0 0 1 .309-.125h16.944a.432.432 0 0 1 .437.433v104.04a.438.438 0 0 1-.437.466Zm75.684 0h-16.96a.438.438 0 0 1-.437-.437V328.342a.432.432 0 0 1 .128-.307.42.42 0 0 1 .142-.094.417.417 0 0 1 .167-.032h16.96a.417.417 0 0 1 .167.032.42.42 0 0 1 .236.235.432.432 0 0 1 .034.166v104.041a.438.438 0 0 1-.437.437Zm-16.508-.874h16.087V328.751h-16.087v103.195Z" fill="#002E5D"/><path d="M280.199 317.681h-160.34v17.822h160.34v-17.822Zm0 46.563h-160.34v17.822h160.34v-17.822Z" fill="#fff"/><path d="m142.404 321.129-6.966 14.374h21.928l6.96-14.374h-21.922Zm46.528 0-6.963 14.374h21.925l6.964-14.374h-21.926Zm46.527 0-6.963 14.374h21.929l6.96-14.374h-21.926Zm-91.388 45.702-7.383 15.235h21.928l7.381-15.235h-21.926Zm46.532 0-7.384 15.235h21.925l7.384-15.235h-21.925Zm46.527 0-7.384 15.235h21.929l7.381-15.235H237.13Z" fill="#33DA82"/><path d="M280.196 335.937H119.857a.437.437 0 0 1-.434-.437v-4.957a.448.448 0 0 1 .114-.333.443.443 0 0 1 .321-.141.443.443 0 0 1 .414.296.43.43 0 0 1 .021.178v4.523H279.76v-16.951H175.766a.438.438 0 0 1 0-.871h104.43a.437.437 0 0 1 .437.437V335.5a.437.437 0 0 1-.437.437Zm.003 46.563h-160.34a.433.433 0 0 1-.433-.434v-17.822a.417.417 0 0 1 .032-.167.42.42 0 0 1 .235-.236.429.429 0 0 1 .166-.034h55.981a.437.437 0 1 1 0 .874h-55.547v16.948h159.469v-16.948h-76.277a.434.434 0 0 1-.436-.437.437.437 0 0 1 .436-.437h76.714a.437.437 0 0 1 .436.437v17.822a.436.436 0 0 1-.27.402.45.45 0 0 1-.166.032Z" fill="#002E5D"/><path d="M97.405 432.197H38.898l1.354-5.06 4.347-16.27 2.519-9.432 2.054-7.692 2.293-8.578 2.057-7.694 4.887-18.284h19.488l4.495 16.819L86.1 389.89l4.218 15.788 3.71 13.887 3.376 12.632Z" fill="#fff"/><path d="m86.1 389.89-38.983 11.545 2.054-7.692 2.293-8.578 30.927-9.159 3.71 13.884Zm7.929 29.675-30.752 9.106 2.054-7.692 2.293-8.581 22.695-6.72 3.71 13.887Z" fill="#ECF3FE"/><path d="m78.692 384.999-29.52 8.744 4.35-16.275 21.46-6.353 3.71 13.884Zm7.615 28.496-46.053 13.642 4.347-16.27 37.997-11.252 3.709 13.88Z" fill="#3B82F4"/><path d="M97.406 432.631H38.9a.432.432 0 0 1-.345-.173.435.435 0 0 1-.076-.377l19.508-73.007a.434.434 0 0 1 .42-.315h19.486a.434.434 0 0 1 .42.315l19.508 73.007a.434.434 0 0 1-.075.377.43.43 0 0 1-.34.173Zm-57.937-.874h57.369l-19.26-72.136H58.735L39.47 431.757Z" fill="#002E5D"/><path d="M53.523 377.908a.44.44 0 0 1-.275-.778.433.433 0 0 1 .152-.077l19.755-5.853a.442.442 0 0 1 .35.018.44.44 0 0 1 .238.446.439.439 0 0 1-.343.372l-19.755 5.853a.564.564 0 0 1-.123.019ZM49.17 394.18a.434.434 0 0 1-.427-.375.435.435 0 0 1 .305-.48l16.84-4.988a.442.442 0 0 1 .35.018.426.426 0 0 1 .224.268.437.437 0 0 1-.328.55l-16.825 4.985a.406.406 0 0 1-.139.022Zm-4.57 17.128a.438.438 0 0 1-.126-.855l33.417-9.905a.442.442 0 0 1 .544.296.437.437 0 0 1-.295.54l-33.418 9.905a.462.462 0 0 1-.123.019Zm-4.348 16.266a.438.438 0 0 1-.126-.855l29.42-8.713a.437.437 0 0 1 .248.836l-29.42 8.713a.46.46 0 0 1-.122.019Z" fill="#002E5D"/><path d="M386.225 477.566h-58.506l1.35-5.06 4.347-16.269 2.447-9.147 2.129-7.978 2.218-8.291 2.132-7.981 4.884-18.284h19.492l4.557 17.061 3.709 13.884 3.841 14.364 3.71 13.881 3.69 13.82Z" fill="#fff"/><path d="m374.985 435.501-39.122 11.589 2.13-7.978 2.217-8.291 31.065-9.204 3.71 13.884Zm7.551 28.245-36.122 10.699 4.347-16.269 28.066-8.311 3.709 13.881Z" fill="#ECF3FE"/><path d="m367.512 430.368-29.52 8.744 4.35-16.272 21.461-6.352 3.709 13.88Zm7.615 28.496-46.057 13.642 4.347-16.27 38-11.252 3.71 13.88Z" fill="#325D9C"/><path d="M386.227 478h-58.506a.444.444 0 0 1-.346-.171.445.445 0 0 1-.075-.379l19.504-73.007a.44.44 0 0 1 .424-.315h19.492a.436.436 0 0 1 .421.315l19.507 73.01a.446.446 0 0 1-.075.38.431.431 0 0 1-.346.167Zm-57.938-.861h57.37l-19.275-72.134h-18.823l-19.272 72.134Z" fill="#002E5D"/><path d="M342.345 423.28a.434.434 0 0 1-.367-.671.437.437 0 0 1 .242-.184l19.755-5.853a.435.435 0 0 1 .346.021c.053.026.1.064.139.109a.444.444 0 0 1 .042.501.435.435 0 0 1-.279.205l-19.755 5.853a.427.427 0 0 1-.123.019Zm-4.351 16.269a.434.434 0 0 1-.368-.671.441.441 0 0 1 .242-.184l16.841-4.988a.442.442 0 0 1 .559.465.447.447 0 0 1-.05.164.447.447 0 0 1-.261.21l-16.841 4.985a.389.389 0 0 1-.122.019Zm-4.577 17.128a.437.437 0 0 1-.123-.855l33.424-9.902a.436.436 0 0 1 .489.622.439.439 0 0 1-.241.215l-33.417 9.901a.458.458 0 0 1-.132.019Zm-4.345 16.266a.437.437 0 0 1-.382-.647.44.44 0 0 1 .259-.212l29.42-8.709a.435.435 0 0 1 .529.632.436.436 0 0 1-.284.204l-29.417 8.71a.475.475 0 0 1-.125.022Z" fill="#002E5D"/><path d="m171.173 53.051 32.704 11.81-5.804 5.374-4.306-.67-13.882 20.746-6.388-5.592-2.406 10.586 15.324 13.764 17.663 19.978 36.82 11.03-.126.855 2.977-.544 6.703-3.068 1.498 1.924-2.4 1.961 7.268 2.92-1.14 5.705-14.011-1.471-2.44-.738-.054.261-39.545-7.349-13.191-10.235 5.829 15.43 20.905 8.732-.163.456 1.9-.06 6.909-2.637.98 1.886-1.928 2.166 6.143 2.2-3.389 6.491-11.225-2.119-1.884-1.028-.151.418-25.277-6.515-15.66-25.46-6.837 30.539 20.823 100.312h-1.149l1.005 1.918 2.911 4.086 10.434.657.675 2.885H172.2l3.348-7.628-.789-1.987-18.009-53.469-22.324 53.538h-1.517l.753 1.918 2.874 4.146 10.453.594.628 2.888h-25.095l4.184-9.495-1.163-.051 12.878-53.409s-7.736-12.167-12.589-26.089c0 0-6.385-19.211-6.793-27.584l-1.844-.403s.217-8.776 8.166-22.317a170.967 170.967 0 0 1 16.238-23.071s7.852-9.627 17.997-19.664l3.725-3.677 7.852-31.844Z" fill="#fff"/><path d="M176.748 54.972 165.473 84.96h2.682l12.733-17.715 17.123 3.042 6.024-5.368-27.287-9.948Z" fill="#325D9C"/><path d="m183.409 67.695-8.241 18.463 4.714 4.143 13.882-20.736-10.355-1.87Z" fill="#FDC8AA"/><path d="m162.863 100.29.431 12.073 36.332 28.17 39.439 7.327 1.199-4.838-37.12-8.527-40.281-34.205Zm7.756 24.577 10.484 5.796 8.71 18.969 22.164 8.003-1.627 4.599-25.277-6.516-15.663-25.46 1.209-5.391Z" fill="#3B82F4"/><path d="M163.293 112.363s-27.526 23.043-32.406 43.641l15.509 2.492 5.744.814 17.275-29.052 1.206-5.391v-6.827l-7.328-5.677Z" fill="#3B82F4"/><path d="m146.398 158.496 5.745.814 10.434 1.484L183.4 261.109h-5.851l-31.151-102.613Zm.522 19.617 9.828 29.458-22.322 53.538-5.383-.034 17.353-48.733.524-34.229Z" fill="#325D9C"/><path d="m239.227 147.618 2.44.738 14.023 1.474.87-4.359-16.294-2.449-1.039 4.596ZM210.5 161.815l1.884 1.028 11.226 2.122 2.201-4.225-13.835-3.105-1.476 4.18Z" fill="#FDC8AA"/><path d="M168.32 85.347h-5.025a.437.437 0 0 1-.424-.537l7.755-31.907a.432.432 0 0 1 .571-.305l33.029 11.929a.441.441 0 0 1 .278.328.44.44 0 0 1-.137.407l-6.03 5.319a.447.447 0 0 1-.365.103l-16.96-2.97-12.337 17.467a.43.43 0 0 1-.355.166Zm-4.472-.87h4.246l12.365-17.492a.443.443 0 0 1 .431-.18l17.026 2.974 5.32-4.693-31.879-11.513-7.509 30.904Z" fill="#002E5D"/><path d="M179.882 90.738a.431.431 0 0 1-.286-.107l-9.497-8.307a.43.43 0 0 1-.175-.304.447.447 0 0 1 .105-.334.437.437 0 0 1 .641-.02l9.124 7.981 13.678-20.374a.437.437 0 1 1 .723.487l-13.958 20.786a.444.444 0 0 1-.314.189l-.041.003Zm59.237 57.511h-.079l-39.492-7.289a.408.408 0 0 1-.188-.085l-36.333-28.169a.42.42 0 0 1-.125-.127.45.45 0 0 1-.057-.345.444.444 0 0 1 .385-.327.425.425 0 0 1 .331.111l36.248 28.103 38.983 7.189 1.671-6.916-36.512-10.941a.468.468 0 0 1-.201-.129l-17.644-19.959-19.37-17.228a.436.436 0 0 1 .581-.65l19.385 17.243.038.038 17.588 19.883 36.788 11.03a.439.439 0 0 1 .314.522l-1.865 7.713a.44.44 0 0 1-.446.333Z" fill="#002E5D"/><path d="M171.063 95.84a.38.38 0 0 1-.1 0 .435.435 0 0 1-.314-.525l1.636-6.827a.437.437 0 0 1 .848.204l-1.649 6.811a.435.435 0 0 1-.421.337Zm-24.666 63.093h-.072l-29.209-4.768a.432.432 0 0 1-.364-.465c1.099-13.658 12.619-30.731 22.089-42.647a263.278 263.278 0 0 1 20.455-22.782.437.437 0 0 1 .607.628c-.393.368-39.791 38.715-42.237 64.464l28.8 4.715a.44.44 0 0 1 .225.75.436.436 0 0 1-.294.118v-.013ZM183.4 261.546h-8.615a.434.434 0 0 1-.414-.295l-30.014-89.107a.436.436 0 1 1 .826-.277l29.913 88.805h7.77l-20.729-99.787a.413.413 0 0 1 0-.185l8.056-35.915a.434.434 0 0 1 .189-.285.43.43 0 0 1 .614.138.426.426 0 0 1 .048.339l-8.021 35.833 20.804 100.221a.43.43 0 0 1-.239.483.437.437 0 0 1-.188.042v-.01Z" fill="#002E5D"/><path d="M134.425 261.546h-8.794a.42.42 0 0 1-.343-.166.444.444 0 0 1-.081-.371l12.739-53.19c-16.675-26.934-19.304-53.481-19.329-53.749a.439.439 0 0 1 .396-.443.437.437 0 0 1 .471.362c.025.264 2.654 26.717 19.297 53.522a.433.433 0 0 1 .053.333l-12.66 52.828h7.965l22.208-53.271a.44.44 0 0 1 .56-.21.436.436 0 0 1 .244.547l-22.321 53.541a.435.435 0 0 1-.405.267Zm75.926-98.876a.398.398 0 0 1-.109 0l-25.274-6.516a.442.442 0 0 1-.264-.191l-15.663-25.46a.449.449 0 0 1-.062-.336.447.447 0 0 1 .198-.278.455.455 0 0 1 .338-.05.438.438 0 0 1 .27.208l15.569 25.312 24.721 6.371 2.538-7.009-20.525-8.571a.428.428 0 0 1-.239-.249l-5.879-15.489a.423.423 0 0 1 .007-.335.437.437 0 0 1 .806.023l5.814 15.298 20.729 8.66a.44.44 0 0 1 .242.55l-2.827 7.773a.436.436 0 0 1-.39.289Zm45.33-12.362h-.047l-13.98-1.531a.435.435 0 0 1-.366-.48.436.436 0 0 1 .463-.387l13.594 1.487.998-5.001-6.985-2.741a.439.439 0 0 1-.11-.748l2.149-1.694-1.078-1.352-6.388 2.923a.44.44 0 0 1-.604-.201.433.433 0 0 1 .091-.495.434.434 0 0 1 .149-.096l6.702-3.068a.437.437 0 0 1 .525.129l1.532 1.965a.416.416 0 0 1 .089.32.43.43 0 0 1-.164.289l-1.884 1.494 6.617 2.596a.44.44 0 0 1 .267.493l-1.149 5.749a.438.438 0 0 1-.421.349Zm-32.041 15.106a.493.493 0 0 1-.169-.037c-.283-.066-8.11-1.572-11.1-2.141a.436.436 0 0 1 .164-.858c6.171 1.182 9.818 1.886 10.882 2.103.468-.792 1.944-3.706 2.978-5.784l-5.707-1.992a.44.44 0 0 1-.28-.302.435.435 0 0 1 .098-.399l1.762-1.981-.685-1.304-6.53 2.555a.43.43 0 0 1-.49-.093.449.449 0 0 1-.082-.493.445.445 0 0 1 .258-.228l6.894-2.681a.433.433 0 0 1 .544.204l1.005 1.915a.437.437 0 0 1-.06.493l-1.529 1.716 5.559 1.943a.432.432 0 0 1 .293.426.437.437 0 0 1-.045.177c-2.974 5.982-3.395 6.761-3.76 6.761Zm-75.906 105.845h-25.368a.438.438 0 0 1-.396-.629l3.59-7.808a.44.44 0 0 1 .566-.189.44.44 0 0 1 .225.554l-3.307 7.188h24.14l-.518-2.2-10.208-.65a.448.448 0 0 1-.329-.186l-2.827-4.086a.45.45 0 0 1-.09-.336.43.43 0 0 1 .346-.364.427.427 0 0 1 .34.073.451.451 0 0 1 .12.13l2.704 3.898 10.321.657a.44.44 0 0 1 .396.336l.719 3.068a.44.44 0 0 1-.427.534l.003.01Z" fill="#002E5D"/><path d="m125.247 264.567 1.677 3.369 9.564-.839 10.531.673.716 3.064h-25.368l2.88-6.267Zm72.082 6.692h-25.371a.43.43 0 0 1-.365-.201.442.442 0 0 1-.031-.418l3.59-7.808a.44.44 0 0 1 .807.03.435.435 0 0 1-.013.334l-3.307 7.189h24.14l-.518-2.2-10.208-.651a.447.447 0 0 1-.314-.185l-2.826-4.087a.437.437 0 0 1 .438-.656.436.436 0 0 1 .278.16l2.704 3.897 10.321.657a.445.445 0 0 1 .398.337l.716 3.067a.438.438 0 0 1-.235.491.437.437 0 0 1-.189.044h-.015Z" fill="#002E5D"/><path d="m174.84 264.567 1.677 3.369 9.564-.839 10.531.673.716 3.064h-25.371l2.883-6.267Z" fill="#002E5D"/><path d="m79.093 92.96 33.688.862-12.196 14.619-2.107-.723-10.48 13.83-4.693-3.426v6.767l2.94 2.606 18.97 5.39-.484 1.226 49.197 15.276-.103.544 3.109.167 2.726-2.26 8.618 4.608-.942 7.21-12.99-1.917-2.199-.384-53.232-11.256-.412.899-14.761-2.533s-24.932 14.99-44.37 18.293l.433.77 21.32 28.645s2.035 2.586 2.409 5.142l38.179 63.678-1.2.116 3.829 5.822 10.556.908 1.445 2.829-22.322-.101 1.615-5.098-2.224-4.347h-.581l-34.294-47.287-26.891 47.208-.685.066-.61 1.918 2.94 4.146 10.472.6.675 2.885H19.114l4.441-9.621h-.678l21.307-52.014a5.218 5.218 0 0 0-.823-5.029l-13.487-11.485s-12.582-11.196-15.418-14.773c-2.836-3.577-6.435-7.443-6.91-17.071 0 0-.398-8.531 4.661-17.432l-2.299-.918s3.455-6.082 20.393-12.312c0 0 12.686-4.548 18.958-6.035 0 0 17.472-4.382 19.432-4.551l4.083-1.437 6.32-25.02Z" fill="#fff"/><path d="M218.152 271.259H9.398a.436.436 0 1 1 0-.874h208.754a.437.437 0 1 1 0 .874Z" fill="#002E5D"/><path d="m110.429 96.635-26.74.924-6.775 19.211 2.393.358 8.61-13.292 12.669 4.589 9.843-11.79Z" fill="#325D9C"/><path d="m91.444 104.986-9.624 12.07 6.178 4.47 10.48-13.824-7.034-2.716Z" fill="#FDC8AA"/><path d="m66.84 130.71 10.173-.575 4.859 5.079 20.21 4.203-3.577 7.581-25.73-4.526-5.935-11.762Z" fill="#3B82F4"/><path d="m67.724 132.518-45.13 14.373 8.294 2.983 4.288 7.472 4.296 5.601s12.877-2.785 23.7-7.962c0 0 10.082-4.743 12.859-6.236 2.776-1.493 7.707-4.284 7.707-4.284l-10.961-1.993-5.053-9.954Z" fill="#3B82F4"/><path d="M21.172 146.401s-4.642 14.396 5.553 25.677c6.853 7.581 16.718 18.341 22.453 24.586a10.181 10.181 0 0 1 1.73 11.203l-24.84 53.267 5.59-.091 28.736-50.505 1.91-3.143s2.747-5.145 1.237-10.08c0 0-.55-2.106-1.005-2.901-.456-.796-23.054-31.467-23.054-31.467l-4.306-5.601-4.287-7.472-9.717-3.473Z" fill="#325D9C"/><path d="m102.082 139.417 51.088 13.186-1.027 4.743-53.249-11.171 3.188-6.758Z" fill="#FDC8AA"/><path d="m153.168 152.603 14.887 1.527-.722 5.517-12.991-1.918-2.201-.383 1.027-4.743Z" fill="#FDC8AA"/><path d="m63.53 197.315 38.207 63.807h-4.608l-37.086-49.81s2.406-3.857 3.062-5.822c.657-1.964 1.282-5.582.424-8.175Z" fill="#325D9C"/><path d="M72.773 118.405a.635.635 0 0 1-.107 0 .446.446 0 0 1-.314-.532l6.32-25.007a.425.425 0 0 1 .433-.33l33.794.864a.432.432 0 0 1 .39.258.449.449 0 0 1-.066.459l-12.353 14.638a.435.435 0 0 1-.487.126l-12.308-4.665-8.424 13.202a.44.44 0 0 1-.598.125.438.438 0 0 1-.137-.597l8.615-13.516a.439.439 0 0 1 .522-.176l12.349 4.684 11.568-13.73-32.542-.801-6.234 24.668a.433.433 0 0 1-.421.33Z" fill="#002E5D"/><path d="M87.973 121.997a.435.435 0 0 1-.258-.085l-7.81-5.736a.439.439 0 0 1 .193-.784.433.433 0 0 1 .325.08l7.462 5.482 10.248-13.516a.439.439 0 0 1 .467-.178.43.43 0 0 1 .275.208.441.441 0 0 1-.047.498l-10.51 13.858a.43.43 0 0 1-.345.173Zm-4.665 3.304a.446.446 0 0 1-.403-.267.437.437 0 0 1-.034-.167v-4.121a.437.437 0 1 1 .873 0v4.121a.437.437 0 0 1-.27.402.453.453 0 0 1-.166.032Zm15.172 22.134h-.075L72.7 142.931a.428.428 0 0 1-.314-.233l-5.937-11.783a.445.445 0 0 1-.037-.342.44.44 0 0 1 .39-.308.427.427 0 0 1 .324.114.44.44 0 0 1 .102.143l5.836 11.589 25.167 4.4 6.476-13.321-18.65-5.318a.436.436 0 0 1 .239-.839l19.159 5.463a.438.438 0 0 1 .279.609l-6.847 14.085a.442.442 0 0 1-.408.245Zm-67.59 2.873a.413.413 0 0 1-.147-.025L9.78 142.812a.45.45 0 0 1-.267-.271.432.432 0 0 1 .047-.377c8.618-13.371 57.108-22.791 59.169-23.187a.42.42 0 0 1 .333.062.44.44 0 0 1 .186.456.44.44 0 0 1-.356.34c-.493.094-49.024 9.521-58.29 22.345l20.437 7.283a.438.438 0 0 1-.147.845Z" fill="#002E5D"/><path d="M152.143 157.789a.461.461 0 0 1-.091 0l-53.261-11.19a.434.434 0 1 1 .179-.852l52.843 11.099 1.633-7.138-48.829-15.179a.44.44 0 0 1-.278-.208.443.443 0 0 1-.038-.346.438.438 0 0 1 .573-.279l49.216 15.292a.435.435 0 0 1 .295.512l-1.818 7.953a.44.44 0 0 1-.424.336Zm15.22 2.291h-.062l-13.022-1.917a.44.44 0 0 1-.393-.322.45.45 0 0 1 .052-.347.44.44 0 0 1 .47-.192l12.582 1.851.86-6.45-8.097-4.366-2.512 2.021a.435.435 0 0 1-.717-.205.44.44 0 0 1 .048-.344.458.458 0 0 1 .122-.13l2.73-2.2a.433.433 0 0 1 .48-.044l8.615 4.646a.441.441 0 0 1 .226.443l-.942 7.185a.447.447 0 0 1-.17.29.42.42 0 0 1-.27.081ZM31.609 261.546h-8.76a.434.434 0 0 1-.405-.6l21.304-51.982a4.593 4.593 0 0 0-1.348-5.284c-5.873-4.715-17.312-14.264-27.953-25.322-7.644-7.952-7.94-17.152-6.84-23.467a36.96 36.96 0 0 1 4.246-11.888.44.44 0 0 1 .27-.186.44.44 0 0 1 .517.317.438.438 0 0 1-.042.325A36.791 36.791 0 0 0 8.46 155.07c-1.551 8.873.685 16.505 6.615 22.669 10.597 11.023 22 20.55 27.855 25.246a5.467 5.467 0 0 1 1.627 6.312l-21.062 51.375h7.852l30.337-53.242a13.737 13.737 0 0 0-.918-15l-25.905-34.823a.438.438 0 0 1 .414-.694.438.438 0 0 1 .287.172l25.92 34.827a14.604 14.604 0 0 1 .974 15.951l-30.465 53.463a.445.445 0 0 1-.383.22Z" fill="#002E5D"/><path d="M101.781 261.546h-8.95a.426.426 0 0 1-.352-.179l-34.295-47.274a.43.43 0 0 1-.103-.335.446.446 0 0 1 .177-.304.446.446 0 0 1 .343-.075.433.433 0 0 1 .287.202l34.165 47.091h7.959L63.21 197.789a.427.427 0 0 1 .02-.483.435.435 0 0 1 .723.034l38.202 63.546a.436.436 0 0 1-.153.602.427.427 0 0 1-.221.058Zm-62.416-98.162a.439.439 0 0 1-.24-.802.45.45 0 0 1 .159-.063c18.386-3.545 44.256-18.284 44.514-18.431a.438.438 0 0 1 .33-.043.433.433 0 0 1 .231.685.418.418 0 0 1-.128.112c-.26.151-26.253 14.962-44.784 18.545l-.082-.003Zm5.119 107.875H19.116a.44.44 0 0 1-.44-.414.436.436 0 0 1 .044-.215l3.58-7.786a.438.438 0 0 1 .789.044.436.436 0 0 1 .003.321l-3.304 7.188h24.14l-.518-2.2-10.208-.65a.446.446 0 0 1-.314-.186l-2.827-4.086a.44.44 0 0 1 .72-.503l2.704 3.898 10.32.657a.437.437 0 0 1 .396.336l.72 3.068a.44.44 0 0 1-.428.534l-.01-.006Zm71.948 0H93.934a.44.44 0 0 1-.432-.366.436.436 0 0 1 .014-.203l1.671-5.243-.926-1.855a.436.436 0 0 1 .779-.389l1.005 2.011a.44.44 0 0 1 .025.315l-1.533 4.869h21.207l-1.071-2.201-10.428-.886a.444.444 0 0 1-.329-.198l-2.488-3.832a.43.43 0 0 1-.082-.338.43.43 0 0 1 .191-.291.43.43 0 0 1 .343-.059.431.431 0 0 1 .277.211l2.374 3.655 10.462.893a.427.427 0 0 1 .355.242l1.486 3.068a.438.438 0 0 1-.393.628l-.009-.031Z" fill="#002E5D"/><path d="m95.469 266.006 3.009 2.506 5.794-1.654 10.673.912 1.485 3.064h-22.5l1.539-4.828Zm-73.476-1.439 1.678 3.369 9.563-.839 10.531.673.716 3.064H19.113l2.88-6.267Z" fill="#002E5D"/><path d="M139.795 76.15a7.652 7.652 0 0 0-4.812-9.689 7.643 7.643 0 0 0-9.681 4.816 7.652 7.652 0 0 0 4.812 9.689 7.643 7.643 0 0 0 9.681-4.816Zm-5.37-16.064-8.697 1.7c-1.178.23-2.315-.28-2.512-1.144l-11.279-45.828a2.83 2.83 0 0 1 2.236-3.458l11.96-2.341a2.827 2.827 0 0 1 3.37 2.354l6.806 46.705c.142.88-.719 1.782-1.884 2.012Z" fill="#fff"/><path d="M128.832 79.432a8.08 8.08 0 0 1-7.699-5.643 8.092 8.092 0 0 1 7.835-10.537 8.082 8.082 0 0 1 7.612 5.76 8.09 8.09 0 0 1-.119 5.023 8.076 8.076 0 0 1-7.629 5.397Zm.016-15.304a7.23 7.23 0 0 0-1.238 14.354 7.219 7.219 0 0 0 5.14-1.05 7.23 7.23 0 0 0-1.512-12.893 7.215 7.215 0 0 0-2.39-.418v.007Zm-8.634-3.552c-1.04 0-1.932-.506-2.215-1.342l-15.038-44.728a3.226 3.226 0 0 1 .201-2.543 3.307 3.307 0 0 1 2.036-1.64l11.721-3.33a3.271 3.271 0 0 1 2.591.315 3.209 3.209 0 0 1 1.508 2.056l10.678 45.966c.258 1.106-.628 2.282-2.038 2.681l-8.527 2.423a3.458 3.458 0 0 1-.917.142Zm-2.369-52.84c-.232 0-.464.032-.687.097l-11.722 3.329a2.423 2.423 0 0 0-1.768 2.12c-.025.32.015.64.119.944l15.038 44.731c.208.629 1.159.908 2.08.648l8.527-2.424c.92-.26 1.57-1.015 1.429-1.644L120.182 9.571a2.333 2.333 0 0 0-1.102-1.502 2.367 2.367 0 0 0-1.235-.334Zm146.923 74.616a8.546 8.546 0 0 1-6.086-2.514.442.442 0 0 1 0-.63.443.443 0 0 1 .628 0 7.702 7.702 0 0 0 5.471 2.26.441.441 0 0 1 .44.438.438.438 0 0 1-.453.446Zm5.779-2.401a.44.44 0 0 1-.406-.267.439.439 0 0 1 .092-.478 7.688 7.688 0 0 0 2.268-5.482v-.032a.431.431 0 0 1 .113-.332.442.442 0 0 1 .498-.105c.055.025.105.06.145.105a.429.429 0 0 1 .114.332v.032a8.588 8.588 0 0 1-2.513 6.098.437.437 0 0 1-.323.126l.012.003Zm-13.985-5.771a.43.43 0 0 1-.437-.428v-.019a8.585 8.585 0 0 1 2.513-6.082.443.443 0 0 1 .758.315c0 .118-.047.23-.13.314a7.705 7.705 0 0 0-2.255 5.466.443.443 0 0 1-.449.434Zm13.951-5.822a.432.432 0 0 1-.314-.125 7.699 7.699 0 0 0-5.459-2.254.446.446 0 0 1-.42-.6.421.421 0 0 1 .395-.27h.025a8.547 8.547 0 0 1 6.071 2.514.425.425 0 0 1 .135.314.437.437 0 0 1-.135.315.437.437 0 0 1-.298.094v.013Zm220.372 314.717a8.545 8.545 0 0 1-6.087-2.514.446.446 0 0 1-.133-.315.434.434 0 0 1 .133-.314.437.437 0 0 1 .314-.136.436.436 0 0 1 .314.136 7.707 7.707 0 0 0 5.471 2.26.442.442 0 0 1 .44.437.433.433 0 0 1-.452.446Zm5.779-2.401a.43.43 0 0 1-.244-.072.431.431 0 0 1-.189-.448.433.433 0 0 1 .119-.225 7.7 7.7 0 0 0 2.267-5.482v-.031a.448.448 0 0 1 .26-.437.423.423 0 0 1 .351 0 .443.443 0 0 1 .237.258c.02.058.027.118.022.179v.031a8.571 8.571 0 0 1-2.512 6.098.448.448 0 0 1-.311.129Zm-13.974-5.781a.423.423 0 0 1-.402-.262.424.424 0 0 1-.034-.165v-.019a8.588 8.588 0 0 1 2.513-6.082.438.438 0 0 1 .314-.13.434.434 0 0 1 .314.13.438.438 0 0 1 .13.314.445.445 0 0 1-.13.315 7.683 7.683 0 0 0-2.255 5.466.441.441 0 0 1-.45.433Zm13.952-5.821a.43.43 0 0 1-.314-.125 7.698 7.698 0 0 0-5.459-2.254.445.445 0 0 1-.42-.6.411.411 0 0 1 .23-.237.406.406 0 0 1 .165-.034h.041a8.556 8.556 0 0 1 6.055 2.515.42.42 0 0 1 .135.314.436.436 0 0 1-.135.314.436.436 0 0 1-.298.107Zm-216.448 94.52a8.551 8.551 0 0 1-6.084-2.515.42.42 0 0 1-.1-.143.42.42 0 0 1 0-.343.43.43 0 0 1 .1-.143.444.444 0 0 1 .485-.098.444.444 0 0 1 .144.098 7.694 7.694 0 0 0 5.461 2.263.438.438 0 0 1 0 .871l-.006.01Zm5.782-2.402a.414.414 0 0 1-.17-.031.406.406 0 0 1-.144-.095.436.436 0 0 1 0-.628 7.728 7.728 0 0 0 2.265-5.479v-.034a.437.437 0 1 1 .873 0v.034a8.58 8.58 0 0 1-2.513 6.095.41.41 0 0 1-.301.138h-.01Zm-13.973-5.78a.428.428 0 0 1-.437-.428 8.59 8.59 0 0 1 2.513-6.085.444.444 0 1 1 .628.629 7.707 7.707 0 0 0-2.255 5.469.44.44 0 0 1-.44.415h-.009Zm13.948-5.821a.442.442 0 0 1-.314-.126 7.692 7.692 0 0 0-5.459-2.251.446.446 0 0 1-.327-.747.418.418 0 0 1 .305-.13 8.58 8.58 0 0 1 6.087 2.515.446.446 0 0 1 .134.314.436.436 0 0 1-.134.315.426.426 0 0 1-.282.11h-.01Zm52.044-95.079a.534.534 0 0 1-.113 0l-34.385-9.197a.442.442 0 0 1-.311-.535.439.439 0 0 1 .534-.311l34.385 9.2a.433.433 0 0 1-.11.855v-.012Zm63.08 32.004a.444.444 0 0 1-.103 0l-91.824-22.801a.437.437 0 0 1 .21-.849l91.824 22.804a.44.44 0 0 1-.107.862v-.016Z" fill="#002E5D"/><path d="M342.094 268.614a.76.76 0 0 1 .536.474c.165.21.213.444.145.701l-2.125 7.962c-.068.257-.233.462-.494.613-.196.113-.423.136-.681.067l-2.86-.763c-.257-.069-.42.026-.489.283l-3.32 12.445c-.069.258-.234.462-.495.613-.196.113-.423.136-.68.067l-9.044-2.413a1.174 1.174 0 0 1-.634-.417c-.1-.248-.115-.5-.046-.758l3.32-12.445c.069-.257-.026-.42-.283-.489l-21.566-5.754a1.174 1.174 0 0 1-.634-.417 1.174 1.174 0 0 1-.046-.758l1.67-6.261c.083-.309.263-.675.542-1.098l20.41-28.087c.278-.423.701-.559 1.268-.407l9.662 2.578c.773.206.934.635.484 1.288l-18.864 26.016c-.134.296-.072.478.185.547l9.508 2.536c.257.069.421-.026.489-.283l2.351-8.812c.069-.258.201-.443.397-.556.261-.152.521-.193.778-.124l9.044 2.413a.762.762 0 0 1 .536.474.76.76 0 0 1 .144.701l-2.351 8.812c-.069.257.026.42.283.489l2.86.763Zm16.436 30.55c-5.101-1.361-8.773-3.942-11.016-7.742-2.229-3.851-2.663-8.328-1.302-13.429l5.98-22.416c1.348-5.05 3.94-8.664 7.778-10.842 3.851-2.229 8.328-2.663 13.429-1.302 5.102 1.361 8.767 3.967 10.996 7.819 2.295 3.814 2.768 8.245 1.421 13.296l-5.98 22.415c-1.362 5.102-3.994 8.76-7.897 10.976-3.837 2.177-8.307 2.586-13.409 1.225Zm2.496-9.353c1.803.481 3.404.273 4.803-.623 1.412-.948 2.393-2.453 2.943-4.514l6.29-23.575c.55-2.062.442-3.829-.324-5.303-.766-1.474-2.051-2.452-3.855-2.933-1.803-.481-3.404-.273-4.802.623-1.347.91-2.296 2.396-2.846 4.457l-6.29 23.576c-.549 2.061-.474 3.847.227 5.359.765 1.474 2.05 2.452 3.854 2.933Zm62.592.554a.761.761 0 0 1 .536.474.759.759 0 0 1 .144.701l-2.124 7.961c-.069.258-.234.462-.495.613-.196.114-.423.136-.68.067l-2.86-.763c-.258-.068-.421.026-.49.284l-3.32 12.444c-.069.258-.234.462-.495.614-.196.113-.422.135-.68.066l-9.044-2.412a1.173 1.173 0 0 1-.634-.418 1.17 1.17 0 0 1-.046-.757l3.32-12.445c.069-.258-.025-.421-.283-.49l-21.566-5.753a1.167 1.167 0 0 1-.633-.418 1.17 1.17 0 0 1-.047-.757l1.671-6.261c.082-.31.263-.676.541-1.098l20.41-28.088c.279-.422.701-.558 1.268-.407l9.662 2.578c.773.206.935.636.484 1.288l-18.864 26.017c-.134.295-.072.477.186.546l9.507 2.537c.258.068.421-.026.49-.284l2.351-8.811c.068-.258.201-.444.397-.557.261-.151.52-.192.778-.124l9.043 2.413a.76.76 0 0 1 .536.474.76.76 0 0 1 .144.701l-2.351 8.812c-.068.258.026.421.284.49l2.86.763Z" fill="#fff"/></g><defs><clipPath id="a"><path fill="#fff" d="M0 0h638v478H0z"/></clipPath></defs></svg>