<svg width="474" height="415" fill="none" xmlns="http://www.w3.org/2000/svg"><g clip-path="url(#a)"><path d="M437.327 126.122 59.287 47.56 8.364 291.306l378.04 78.561 50.923-243.745Z" fill="#BBD1DC"/><path d="M300.854 314.75c40.826 0 73.922-33.008 73.922-73.726 0-40.718-33.096-73.727-73.922-73.727s-73.922 33.009-73.922 73.727 33.096 73.726 73.922 73.726Z" fill="#fff"/><path d="M120.009 197.105c-32.432-49.196-16.081-111.672 36.515-139.548 52.596-27.875 121.527-10.596 153.959 38.597S326.565 207.82 273.966 235.7c-52.6 27.879-121.527 10.595-153.957-38.594Zm266.71 171.204-72.608-110.135-6.286 3.331-9.925-15.05c47.199-31.935 64.196-89.447 42.604-140.442-2.972-7-6.577-13.715-10.771-20.062-38.985-59.14-121.848-79.912-185.077-46.398-10.538 5.585-19.868 12.325-27.915 19.954-40.235 38.145-48.47 98.513-15.98 147.795 36.385 55.189 110.982 76.967 172.174 52.385l9.921 15.05-6.288 3.333 52.695 79.936 57.456 10.303Z" fill="#F3F8FF"/><path d="M360.652 73.937C327.305 11.276 249.341-12.556 186.517 20.7c-62.825 33.257-86.723 111.012-53.376 173.673 31.121 58.478 101.102 83.138 161.371 59.132L303 269.45l-6.247 3.308 66.739 125.406a21.066 21.066 0 0 0 5.208 6.368 21.135 21.135 0 0 0 15.452 4.725 21.148 21.148 0 0 0 14.276-7.556 21.037 21.037 0 0 0 4.738-15.411 21.03 21.03 0 0 0-2.369-7.871l-66.738-125.406-6.249 3.307-8.489-15.944c53.709-36.335 72.452-107.958 41.331-166.44ZM152.266 184.25c-27.74-52.121-7.858-116.808 44.403-144.472 52.26-27.663 117.117-7.84 144.856 44.285 27.738 52.126 7.858 116.808-44.404 144.469-52.263 27.661-117.117 7.841-144.855-44.282Z" fill="#325D9C"/><path d="M406.996 8.719c-47.95-19.963-100.076-4.486-116.427 34.58-5.201 12.423-6.152 25.738-3.491 38.759a27.942 27.942 0 0 1-3.877 20.652l-22.018 34.385a3.191 3.191 0 0 0-.086 3.295 3.196 3.196 0 0 0 2.882 1.614l56.337-1.734a28.31 28.31 0 0 1 14.834 3.724c4.081 2.314 8.3 4.378 12.633 6.18 47.949 19.965 100.075 4.483 116.425-34.578 16.35-39.061-9.266-86.913-57.212-106.877Z" fill="#F70431"/><path d="M399.997 170.763c-2.202 0-4.419-.07-6.651-.21-12.284-.771-24.473-3.643-36.227-8.538a116.39 116.39 0 0 1-12.669-6.198 27.98 27.98 0 0 0-14.661-3.681l-56.341 1.736a3.534 3.534 0 0 1-3.179-1.779 3.51 3.51 0 0 1 .095-3.633l22.017-34.385a27.46 27.46 0 0 0 3.834-20.417 69.057 69.057 0 0 1-1.207-19.697 63.808 63.808 0 0 1 4.717-19.256c5.456-13.034 15.157-23.96 28.056-31.596 12.523-7.416 27.639-11.524 43.709-11.878a.322.322 0 0 1 .308.195.327.327 0 0 1-.294.46c-33.087.731-60.359 17.235-71.172 43.072-4.991 11.924-6.193 25.266-3.473 38.57a28.114 28.114 0 0 1-3.923 20.899l-22.018 34.385a2.864 2.864 0 0 0-.077 2.957 2.873 2.873 0 0 0 2.587 1.448l56.341-1.736a28.654 28.654 0 0 1 15.006 3.766 115.768 115.768 0 0 0 12.601 6.163c47.707 19.864 99.742 4.431 115.996-34.402a.33.33 0 0 1 .423-.16.325.325 0 0 1 .183.413c-4.016 9.597-10.22 17.946-18.437 24.814-7.933 6.63-17.398 11.609-28.133 14.798-8.717 2.584-17.909 3.89-27.411 3.89Z" fill="#002E5D"/><path d="M350.436 53.188c.796-3.786 2.817-7.37 6.063-10.75 3.246-3.38 7.475-5.86 12.686-7.438 5.21-1.578 10.932-1.72 17.166-.425 5.794 1.204 10.686 3.334 14.678 6.389 3.991 3.054 6.812 6.667 8.463 10.836 1.651 4.17 2.027 8.407 1.128 12.712-.708 3.387-2.017 6.213-3.929 8.478a27.97 27.97 0 0 1-6.296 5.588c-2.287 1.457-6.346 3.868-12.178 7.231a42.687 42.687 0 0 0-3.946 2.58c-1.016.766-1.804 1.497-2.366 2.19a12.846 12.846 0 0 0-1.416 2.14c-.382.73-.997 2.027-1.845 3.889-1.627 3.988-4.438 5.566-8.433 4.736-2.078-.433-3.685-1.474-4.82-3.123-1.136-1.65-1.425-3.81-.867-6.483.7-3.35 1.825-6.142 3.376-8.374a22.591 22.591 0 0 1 5.486-5.599c2.104-1.499 4.882-3.219 8.333-5.159 3.025-1.701 5.225-3.001 6.602-3.9a17.592 17.592 0 0 0 3.671-3.198 9.37 9.37 0 0 0 2.122-4.3c.667-3.189.041-6.127-1.879-8.814-1.92-2.687-4.76-4.421-8.519-5.203-4.397-.914-7.865-.481-10.404 1.3-2.54 1.78-4.979 4.673-7.318 8.677-2.299 4.223-5.35 5.94-9.152 5.15-2.239-.465-3.963-1.645-5.173-3.538-1.209-1.894-1.62-3.758-1.233-5.592Zm15.562 71.607c-2.438-.507-4.402-1.737-5.892-3.689-1.49-1.953-1.938-4.344-1.346-7.173.524-2.51 1.845-4.44 3.962-5.79 2.117-1.349 4.454-1.757 7.011-1.225 2.519.524 4.458 1.821 5.817 3.892 1.36 2.071 1.777 4.364 1.254 6.879-.584 2.79-1.941 4.795-4.072 6.015-2.131 1.22-4.376 1.583-6.734 1.091Z" fill="#fff"/><path d="m408.079 253.036 28.114-22.026-22.084-28.04-28.114 22.026 22.084 28.04ZM103.205 409.357 87.649 382.23l-.996 22.962-20.036-9.399 4.108 7.538-24.518 6.026h56.998Z" fill="#F3F8FF"/><path d="M107.81 407.92a.328.328 0 0 1-.302-.198l-12.095-28.196.779 26.325a.328.328 0 0 1-.493.294L71.991 392.57l7.235 13.129a.326.326 0 0 1-.11.434.33.33 0 0 1-.155.052l-34.515 1.735a.322.322 0 0 1-.13-.015.318.318 0 0 1-.195-.168.33.33 0 0 1 .163-.444.335.335 0 0 1 .129-.028l33.99-1.709-7.546-13.693a.326.326 0 0 1 .058-.397.327.327 0 0 1 .398-.05l24.215 13.86-.826-27.463a.326.326 0 0 1 .478-.299.328.328 0 0 1 .152.16l12.777 29.79a.326.326 0 0 1-.174.43.353.353 0 0 1-.125.026Zm119.233-78.662a.326.326 0 0 1-.32-.318.328.328 0 0 1 .3-.337l64.992-3.997a.323.323 0 0 1 .238.081.316.316 0 0 1 .077.101.318.318 0 0 1 .016.25.332.332 0 0 1-.064.111.335.335 0 0 1-.226.11l-64.992 3.999h-.021Zm-140.596 8.645a.327.327 0 0 1-.195-.065.326.326 0 0 1-.12-.167L8.975 86.95a.327.327 0 0 1 .222-.399.33.33 0 0 1 .407.207l77.081 250.474 45.923-2.825a.326.326 0 0 1 .342.307.329.329 0 0 1-.302.347l-46.18 2.841-.02.001Z" fill="#002E5D"/><path d="m174.37 127.788-4.888 28.34 3.247-.65 3.889 21.288-16.249 3.113-30.386 35.811a7.122 7.122 0 0 0-.475 8.586l21.962 32.564-1.724 69.595-10.827 71.726h1.99l-8.265 16.512h36.171l-.045-6.356h-17.687l-4.52-10.042 3.076.05 26.394-91.575 9.012 91.45h2.346l-7.958 16.328 35.901.152.2-6.448-17.641.056-4.618-10.018 3.641-.098 3.27-137.233 3.316-54.025 10.709-.873a13.889 13.889 0 0 0 5.529-1.656 13.84 13.84 0 0 0 4.372-3.76 13.792 13.792 0 0 0 2.567-10.966l-7.479-38.702 4.053-14.395-15.784-1.131.571 5.486-3.686.169 5.389 10.432 1.715 1.943 3.377 31.004-11.993 2.928-13.751-8.907 2.714-11.807 8.103 2.441-2.003-37.001 6.445-.952v-11.436l-29.98 8.057Z" fill="#fff"/><path d="m204.211 119.768.138 7.602-25.287 4.387 1.961 22.064-11.519 2.18 4.865-28.209 29.842-8.024Z" fill="#412D47"/><path d="M215.527 411.602h-26.786l-5.308-4.939-4.078 8.01h36.172v-3.071Z" fill="#002E5D"/><path d="m199.919 169.328-1.842-37.229-12.118 1.791 1.23 31.291 12.73 4.147Z" fill="#F4B18F"/><path d="M168.798 411.602h-26.786l-5.309-4.939-4.076 8.01h36.171v-3.071Z" fill="#002E5D"/><path d="m217.125 172.073 3.001 19.03-15.772 4.387-.862 11.653 11.672-1.244c8.497-1.313 13.427-9.701 11.447-18.046l-3.184-15.794-6.302.014Z" fill="#F70431"/><path d="m223.418 172.059-4.077-21.345 3.91-14.147-15.968-1.235.781 5.8 1.353.069.882 4.564 3.372 5.46 3.449 20.848 6.298-.014Z" fill="#F4B18F"/><path d="m188.969 178.428 10.041 6.503-7.305 73.869-29.843-8.441-6.301-13.595-8.237 5.844-11.058-21.083a4.897 4.897 0 0 1 .591-5.424l26.167-31.104 14.404-5.2 8.525 11.554 3.016-12.923Z" fill="#F70431"/><path d="m165.998 251.529 25.707 7.271 2.25 139.525-8.912-.164-8.881-91.942 5.833-20.149-3.975-4.973-31.968 117.228h-7.169l10.826-71.722 1.754-69.763 13.228 19.381 9.875-9.067-8.568-15.625Z" fill="#412D47"/><path d="m147.33 242.609 19.856 31.613 3.934-3.902-15.553-33.556-8.237 5.845Z" fill="#F4B18F"/><path d="M169.483 156.46a.32.32 0 0 1-.252-.116.331.331 0 0 1-.072-.267l4.888-28.341a.33.33 0 0 1 .239-.265l29.976-8.06a.326.326 0 0 1 .379.172.314.314 0 0 1 .034.144v11.442a.332.332 0 0 1-.08.214.332.332 0 0 1-.202.109l-20.807 3.074 1.795 18.41a.333.333 0 0 1-.064.228.33.33 0 0 1-.202.125l-15.575 3.121a.378.378 0 0 1-.057.01Zm5.173-28.407-4.775 27.664 14.817-2.967-1.792-18.426a.33.33 0 0 1 .28-.356l20.835-3.078v-10.73l-29.365 7.893Z" fill="#002E5D"/><path d="M199.918 169.655a.356.356 0 0 1-.102-.016l-19.357-6.305a.327.327 0 0 1 .205-.623l18.902 6.158-1.735-34.04a.333.333 0 0 1 .187-.312.333.333 0 0 1 .25-.013.333.333 0 0 1 .218.292l1.76 34.515a.335.335 0 0 1-.133.277.326.326 0 0 1-.195.067Zm-13.946 22.291a.332.332 0 0 1-.266-.132l-7.039-9.491a.327.327 0 0 1 .071-.459.331.331 0 0 1 .46.071l6.616 8.92 4.792-20.505a.33.33 0 0 1 .266-.248.307.307 0 0 1 .128.004.316.316 0 0 1 .204.145.324.324 0 0 1 .041.247l-4.952 21.191a.322.322 0 0 1-.091.16.32.32 0 0 1-.163.086.254.254 0 0 1-.067.011Zm-21.249 84.727a.328.328 0 0 1-.272-.144l-35.227-51.824a7.628 7.628 0 0 1 .479-9.165l30.209-35.828a.322.322 0 0 1 .19-.111l16.136-3.091-2.581-14.307a.325.325 0 0 1 .265-.38.325.325 0 0 1 .334.145.333.333 0 0 1 .047.119l2.639 14.625a.325.325 0 0 1-.265.38l-16.342 3.131-30.13 35.739a6.97 6.97 0 0 0-.437 8.375L165 276.161a.333.333 0 0 1-.098.463.331.331 0 0 1-.167.049h-.012Z" fill="#002E5D"/><path d="M160.782 280.351a.326.326 0 0 1-.224-.566l13.783-12.87a.334.334 0 0 1 .235-.086.332.332 0 0 1 .316.337.33.33 0 0 1-.101.227l-13.785 12.871a.331.331 0 0 1-.224.087Z" fill="#002E5D"/><path d="M171.136 270.683a.326.326 0 0 1-.298-.19L147.482 220.1a.324.324 0 0 1 .105-.397l24.044-17.457a.33.33 0 0 1 .505.317.33.33 0 0 1-.118.212L148.19 220.07l23.245 50.149a.332.332 0 0 1 .01.25.321.321 0 0 1-.171.184.312.312 0 0 1-.138.03Z" fill="#002E5D"/><path d="M146.998 243.171a.327.327 0 0 1-.191-.594l8.57-6.085a.325.325 0 0 1 .231-.032.326.326 0 0 1 .149.561l-8.569 6.085a.325.325 0 0 1-.19.065Zm55.722-55.446a.33.33 0 0 1-.183-.055l-9.58-6.37a.329.329 0 0 1 .365-.545l9.462 6.291c6.678-1.565 10.611-2.474 11.73-2.709-.15-2.454-2.467-22.837-3.387-30.832a.326.326 0 0 1 .418-.369.322.322 0 0 1 .234.294c.009.078.901 7.824 1.76 15.496.504 4.507.9 8.105 1.174 10.696.531 5.027.511 5.047.375 5.198a.335.335 0 0 1-.217.109c-.398.061-7.428 1.698-12.07 2.788a.371.371 0 0 1-.081.008Zm12.123-3.452a1.118 1.118 0 0 1-.001 0h.001Zm-6.581-35.158a.33.33 0 0 1-.289-.172l-4.266-7.865a.326.326 0 0 1 .139-.446.322.322 0 0 1 .167-.037l12.601.65a.33.33 0 0 1 .314.348.33.33 0 0 1-.349.313l-12.023-.62 3.987 7.352a.334.334 0 0 1 .026.249.316.316 0 0 1-.307.228Z" fill="#002E5D"/><path d="M219.665 149.57a.327.327 0 0 1-.316-.417l3.479-12.291-15.163-1.172.727 5.399a.327.327 0 0 1-.521.293.326.326 0 0 1-.13-.206l-.781-5.801a.32.32 0 0 1 .207-.344.337.337 0 0 1 .144-.022l15.968 1.236a.336.336 0 0 1 .244.138.33.33 0 0 1 .047.277l-3.582 12.675a.329.329 0 0 1-.323.235Zm-12.382 57.456a.326.326 0 0 1-.32-.312.329.329 0 0 1 .288-.341l7.129-.709a13.589 13.589 0 0 0 9.53-5.359 13.524 13.524 0 0 0 2.483-10.626l-6.788-36.155a.324.324 0 0 1 .262-.382.314.314 0 0 1 .245.052.325.325 0 0 1 .137.209l6.789 36.162a14.183 14.183 0 0 1-2.603 11.139 14.238 14.238 0 0 1-4.403 3.856 14.294 14.294 0 0 1-5.587 1.763l-7.134.703h-.028Z" fill="#002E5D"/><path d="M221.252 172.401a1118 1118 0 0 1-5.237-.015.33.33 0 1 1 0-.661c1.927.009 7.01.025 7.377 0a.33.33 0 0 1 .332.305.328.328 0 0 1-.286.348c-.16.019-1.063.023-2.186.023Zm-21.073 89.101a.443.443 0 0 1-.089-.012l-26.589-7.449a.33.33 0 0 1-.227-.404.332.332 0 0 1 .155-.197.33.33 0 0 1 .25-.029l26.205 7.338 4.146-67.814a.328.328 0 0 1 .655.04l-4.17 68.218a.331.331 0 0 1-.329.309h-.007Z" fill="#002E5D"/><path d="M197.05 398.652h-11.992a.334.334 0 0 1-.221-.084.33.33 0 0 1-.106-.211l-9.02-91.576a.328.328 0 0 1 .531-.275.324.324 0 0 1 .123.211l8.996 91.276h11.373l3.121-136.83a.333.333 0 0 1 .339-.324.332.332 0 0 1 .324.338l-3.129 137.152a.308.308 0 0 1-.027.127.325.325 0 0 1-.312.196Z" fill="#002E5D"/><path d="M149.637 398.652h-10.754a.332.332 0 0 1-.136-.029.333.333 0 0 1-.189-.349l10.849-71.871 1.724-69.574a.324.324 0 0 1 .099-.226.326.326 0 0 1 .228-.094h.01a.327.327 0 0 1 .319.336l-1.724 69.595a.267.267 0 0 1 0 .04l-10.795 71.517h10.124l32.29-112.019a.333.333 0 0 1 .402-.208.326.326 0 0 1 .23.389L149.95 398.415a.317.317 0 0 1-.117.17.323.323 0 0 1-.196.067ZM215.534 415h-36.178a.331.331 0 0 1-.28-.155.331.331 0 0 1-.013-.32l6.551-12.87a.328.328 0 0 1 .585.296l-6.307 12.394H215.2v-5.779h-17.464a.336.336 0 0 1-.302-.196l-2.834-6.436a.328.328 0 1 1 .601-.264l2.748 6.24h17.585a.33.33 0 0 1 .329.326v6.436a.322.322 0 0 1-.096.232.322.322 0 0 1-.233.096Zm-46.737 0h-36.171a.332.332 0 0 1-.281-.155.331.331 0 0 1-.013-.32l6.551-12.87a.331.331 0 0 1 .191-.163.324.324 0 0 1 .25.02.324.324 0 0 1 .144.439l-6.303 12.394h35.308v-5.779h-17.468a.33.33 0 0 1-.301-.196l-2.834-6.436a.329.329 0 0 1 .6-.264l2.749 6.24h17.578a.33.33 0 0 1 .329.326v6.436a.322.322 0 0 1-.096.232.322.322 0 0 1-.233.096Z" fill="#002E5D"/><path d="M259.907 415H.328a.33.33 0 0 1-.322-.458.333.333 0 0 1 .19-.178.33.33 0 0 1 .132-.019h259.579a.328.328 0 1 1 0 .655Z" fill="#002E5D"/><path d="m59.313 229.15-19.588 15.347 15.386 19.536L74.7 248.687 59.313 229.15Z" fill="#F3F8FF"/></g><defs><clipPath id="a"><path fill="#fff" d="M0 0h474v415H0z"/></clipPath></defs></svg>