<svg width="230" height="38" fill="none" xmlns="http://www.w3.org/2000/svg"><g clip-path="url(#a)"><path d="M0 37.297h9.067l3.358-13.123h5.709V21.41H13.17l.933-3.453-5.45-2.418-.93 2.34L0 37.298Zm13.432-21.412c1.855 0 3.358-1.546 3.358-3.453 0-1.907-1.503-3.453-3.358-3.453-1.854 0-3.358 1.546-3.358 3.453 0 1.907 1.504 3.453 3.358 3.453Z" fill="#002E5D"/><path d="M36.268 37.297h-9.066l-3.359-13.123h-5.709V21.41h4.963l-.933-3.453 5.45-2.418.93 2.34 7.724 19.417ZM22.836 15.885c-1.854 0-3.358-1.546-3.358-3.453 0-1.907 1.504-3.453 3.358-3.453 1.855 0 3.359 1.546 3.359 3.453 0 1.907-1.504 3.453-3.359 3.453Z" fill="#325D9C"/><path d="M24.176 1.381h-12.09v5.525h12.09V1.381ZM28.208 0H8.059v1.381h20.149V0ZM8.729 1.381h.335v2.072l.336.69H8.393l.336-.69V1.381ZM42 36.67l7.919-24.337h5.77l7.887 24.337h-5.77l-1.38-5.268h-7.405l-1.346 5.268H42Zm8.143-9.57h5.194l-2.565-9.867h-.064l-2.565 9.868Zm22.141-14.767v10.435h.064l7.085-10.435h6.316l-8.336 11.669L86.07 36.67h-6.315l-7.406-11.435h-.064V36.67h-5.45V12.333h5.45Zm15.77 24.337 7.92-24.337h5.77l7.887 24.337h-5.771l-1.379-5.268h-7.405l-1.347 5.268h-5.675Zm8.144-9.57h5.193l-2.565-9.867h-.064l-2.564 9.868Zm35.831-2.932c0 4.091-1.091 7.257-3.271 9.502-2.159 2.222-5.203 3.334-9.137 3.334a43.27 43.27 0 0 1-6.733-.5V12.5c2.116-.333 4.36-.5 6.733-.5 3.934 0 6.978 1.078 9.137 3.234 2.18 2.133 3.271 5.112 3.271 8.934Zm-5.196 0c0-5.156-2.265-7.734-6.796-7.734a7.96 7.96 0 0 0-1.795.2V32.37c.577.133 1.176.2 1.795.2 4.531 0 6.796-2.8 6.796-8.402ZM140.91 16.9v4.968h8.882v4.301h-8.882v5.935h9.522v4.566h-14.971V12.333h14.971V16.9h-9.522Zm32.521 4.867h-.064l-4.102 9.335h-4.938l-4.104-9.335h-.064V36.67h-5.161V12.333h5.578l6.187 14.334h.064l6.187-14.334h5.708V36.67h-5.291V21.767Zm10.632 14.903V12.333h5.995V36.67h-5.995Zm16.965-24.337v19.635h9.873v4.702h-15.485V12.333h5.612Zm13.278 0 4.553 10.435h.063l4.553-10.435h6.09l-7.951 15.003v9.334h-5.61v-9.334l-7.917-15.003h6.219Z" fill="#002E5D"/></g><defs><clipPath id="a"><path fill="#fff" d="M0 0h230v38H0z"/></clipPath></defs></svg>