<svg width="31" height="32" viewBox="0 0 31 32" fill="none" xmlns="http://www.w3.org/2000/svg">
<g id="Akademily_2 2" clip-path="url(#clip0_44_89)">
<g id="Group 2363">
<path id="Vector" d="M0 31.4075H7.59657L10.4101 20.3567H15.1931V18.0302H11.0353L11.8169 15.1221L7.25127 13.0864L6.47114 15.0575L0 31.4075Z" fill="#002E5D"/>
<path id="Vector_2" d="M11.254 13.3773C12.8079 13.3773 14.0676 12.0752 14.0676 10.4691C14.0676 8.86305 12.8079 7.56104 11.254 7.56104C9.70012 7.56104 8.44043 8.86305 8.44043 10.4691C8.44043 12.0752 9.70012 13.3773 11.254 13.3773Z" fill="#002E5D"/>
<path id="Vector_3" d="M30.3869 31.4075H22.7906L19.9768 20.3567H15.1938V18.0302H19.3517L18.5703 15.1221L23.1359 13.0864L23.9161 15.0575L30.3869 31.4075Z" fill="#325D9C"/>
<path id="Vector_4" d="M19.1331 13.3773C17.5792 13.3773 16.3196 12.0752 16.3196 10.4691C16.3196 8.86305 17.5792 7.56104 19.1331 7.56104C20.687 7.56104 21.9467 8.86305 21.9467 10.4691C21.9467 12.0752 20.687 13.3773 19.1331 13.3773Z" fill="#325D9C"/>
<path id="Vector_5" d="M20.2557 1.16309H10.127V5.81611H20.2557V1.16309Z" fill="#002E5D"/>
<path id="Vector_6" d="M23.6335 0H6.7522V1.16325H23.6335V0Z" fill="#002E5D"/>
<path id="Vector_7" d="M7.31306 1.16309H7.59443V2.90796L7.8758 3.48959H7.03174L7.31306 2.90796V1.16309Z" fill="#002E5D"/>
</g>
</g>
<defs>
<clipPath id="clip0_44_89">
<rect width="31" height="32" fill="white"/>
</clipPath>
</defs>
</svg>
