<svg width="18" height="14" viewBox="0 0 18 14" fill="none" xmlns="http://www.w3.org/2000/svg">
<g id="mastercard-logo" clip-path="url(#clip0_1057_8634)">
<g id="Group">
<path id="Vector" d="M17.0364 13.2155V13.2499H17.0685C17.0756 13.2499 17.0817 13.2482 17.0861 13.2455C17.0901 13.2429 17.0924 13.2383 17.0924 13.2326C17.0924 13.2269 17.0901 13.2226 17.0861 13.2199C17.0817 13.2169 17.0756 13.2155 17.0685 13.2155H17.0364ZM17.0688 13.1916C17.0853 13.1916 17.0982 13.1952 17.1073 13.2025C17.1164 13.2099 17.1209 13.2199 17.1209 13.2326C17.1209 13.2433 17.1175 13.2519 17.11 13.259C17.1029 13.2656 17.0928 13.2699 17.0793 13.2715L17.1219 13.3198H17.0887L17.0493 13.2719H17.0364V13.3198H17.0087V13.1916H17.0688ZM17.0604 13.3643C17.0756 13.3643 17.0898 13.3612 17.1025 13.3556C17.1158 13.3499 17.1272 13.3423 17.1371 13.3325C17.1468 13.323 17.1546 13.3116 17.1603 13.2982C17.1658 13.2852 17.1688 13.2713 17.1688 13.2562C17.1688 13.2413 17.1658 13.2272 17.1603 13.2142C17.1546 13.2012 17.1468 13.1896 17.1371 13.1799C17.1272 13.1702 17.1158 13.1626 17.1025 13.1568C17.0898 13.1515 17.0756 13.1489 17.0604 13.1489C17.0452 13.1489 17.0307 13.1515 17.0175 13.1568C17.004 13.1626 16.9921 13.1702 16.9824 13.1799C16.9725 13.1896 16.9648 13.2012 16.9594 13.2142C16.9537 13.2272 16.951 13.2413 16.951 13.2562C16.951 13.2713 16.9537 13.2852 16.9594 13.2982C16.9648 13.3116 16.9725 13.323 16.9824 13.3325C16.9921 13.3423 17.004 13.3499 17.0175 13.3556C17.0307 13.3612 17.0452 13.3643 17.0604 13.3643ZM17.0604 13.1179C17.0803 13.1179 17.0985 13.1215 17.1161 13.1288C17.1333 13.1359 17.1482 13.1459 17.1613 13.1586C17.1742 13.1709 17.1844 13.1856 17.1917 13.2025C17.1992 13.2192 17.2028 13.2373 17.2028 13.2562C17.2028 13.2753 17.1992 13.2932 17.1917 13.3099C17.1844 13.3266 17.1742 13.3413 17.1613 13.354C17.1482 13.3663 17.1333 13.3763 17.1161 13.3836C17.0985 13.391 17.0803 13.3946 17.0604 13.3946C17.0401 13.3946 17.0216 13.391 17.004 13.3836C16.9864 13.3763 16.9713 13.3663 16.9584 13.354C16.9456 13.3413 16.9355 13.3266 16.928 13.3099C16.9205 13.2932 16.9169 13.2753 16.9169 13.2562C16.9169 13.2373 16.9205 13.2192 16.928 13.2025C16.9355 13.1856 16.9456 13.1709 16.9584 13.1586C16.9713 13.1459 16.9864 13.1359 17.004 13.1288C17.0216 13.1215 17.0401 13.1179 17.0604 13.1179ZM3.90353 12.6234C3.90353 12.3787 4.06595 12.1777 4.33138 12.1777C4.58499 12.1777 4.75621 12.37 4.75621 12.6234C4.75621 12.8768 4.58499 13.0692 4.33138 13.0692C4.06595 13.0692 3.90353 12.8682 3.90353 12.6234ZM5.04527 12.6234V11.9273H4.73864V12.0963C4.64138 11.971 4.49382 11.8923 4.29322 11.8923C3.89779 11.8923 3.58778 12.1983 3.58778 12.6234C3.58778 13.0489 3.89779 13.3546 4.29322 13.3546C4.49382 13.3546 4.64138 13.2759 4.73864 13.1505V13.3196H5.04527V12.6234ZM15.4071 12.6234C15.4071 12.3787 15.5695 12.1777 15.8349 12.1777C16.0889 12.1777 16.2597 12.37 16.2597 12.6234C16.2597 12.8768 16.0889 13.0692 15.8349 13.0692C15.5695 13.0692 15.4071 12.8682 15.4071 12.6234ZM16.5491 12.6234V11.3682H16.2421V12.0963C16.1449 11.971 15.9973 11.8923 15.7967 11.8923C15.4012 11.8923 15.0913 12.1983 15.0913 12.6234C15.0913 13.0489 15.4012 13.3546 15.7967 13.3546C15.9973 13.3546 16.1449 13.2759 16.2421 13.1505V13.3196H16.5491V12.6234ZM8.8514 12.1633C9.04895 12.1633 9.17592 12.2857 9.20835 12.5011H8.47656C8.50932 12.3 8.63292 12.1633 8.8514 12.1633ZM8.85748 11.8923C8.44415 11.8923 8.15508 12.1893 8.15508 12.6234C8.15508 13.0662 8.45596 13.3546 8.87808 13.3546C9.09049 13.3546 9.285 13.3023 9.45621 13.1596L9.30593 12.9352C9.18775 13.0282 9.03713 13.0809 8.89564 13.0809C8.69809 13.0809 8.5181 12.9905 8.47386 12.7398H9.52105C9.52408 12.7021 9.52713 12.6641 9.52713 12.6234C9.52408 12.1893 9.25258 11.8923 8.85748 11.8923ZM12.5599 12.6234C12.5599 12.3787 12.7224 12.1777 12.9878 12.1777C13.2414 12.1777 13.4126 12.37 13.4126 12.6234C13.4126 12.8768 13.2414 13.0692 12.9878 13.0692C12.7224 13.0692 12.5599 12.8682 12.5599 12.6234ZM13.7017 12.6234V11.9273H13.395V12.0963C13.2974 11.971 13.1502 11.8923 12.9496 11.8923C12.5542 11.8923 12.2442 12.1983 12.2442 12.6234C12.2442 13.0489 12.5542 13.3546 12.9496 13.3546C13.1502 13.3546 13.2974 13.2759 13.395 13.1505V13.3196H13.7017V12.6234ZM10.8283 12.6234C10.8283 13.0459 11.1261 13.3546 11.5806 13.3546C11.793 13.3546 11.9345 13.3079 12.0878 13.1886L11.9406 12.9438C11.8255 13.0255 11.7046 13.0692 11.5715 13.0692C11.3267 13.0662 11.1467 12.8915 11.1467 12.6234C11.1467 12.3554 11.3267 12.1807 11.5715 12.1777C11.7046 12.1777 11.8255 12.2213 11.9406 12.303L12.0878 12.0583C11.9345 11.939 11.793 11.8923 11.5806 11.8923C11.1261 11.8923 10.8283 12.201 10.8283 12.6234ZM14.7817 11.8923C14.6047 11.8923 14.4895 11.974 14.4098 12.0963V11.9273H14.1059V13.3196H14.4129V12.5391C14.4129 12.3087 14.5132 12.1807 14.7138 12.1807C14.7758 12.1807 14.8407 12.1893 14.9056 12.2157L15.0001 11.9303C14.9323 11.9039 14.8438 11.8923 14.7817 11.8923ZM6.56185 12.038C6.41427 11.942 6.21098 11.8923 5.98675 11.8923C5.62947 11.8923 5.39951 12.0613 5.39951 12.338C5.39951 12.5651 5.57071 12.7051 5.88612 12.7488L6.03099 12.7692C6.19916 12.7925 6.27852 12.8362 6.27852 12.9149C6.27852 13.0225 6.1664 13.0839 5.95704 13.0839C5.74462 13.0839 5.59132 13.0169 5.48798 12.9382L5.34345 13.1739C5.51161 13.2962 5.72403 13.3546 5.954 13.3546C6.36126 13.3546 6.5973 13.1652 6.5973 12.9002C6.5973 12.6555 6.41157 12.5274 6.10461 12.4837L5.96008 12.4631C5.82736 12.4457 5.72099 12.4197 5.72099 12.3264C5.72099 12.2243 5.82129 12.1633 5.98946 12.1633C6.16945 12.1633 6.34369 12.2303 6.42913 12.2827L6.56185 12.038ZM10.5183 11.8923C10.3413 11.8923 10.2261 11.974 10.1468 12.0963V11.9273H9.84286V13.3196H10.1495V12.5391C10.1495 12.3087 10.2498 12.1807 10.4504 12.1807C10.5125 12.1807 10.5774 12.1893 10.6422 12.2157L10.7367 11.9303C10.6689 11.9039 10.5804 11.8923 10.5183 11.8923ZM7.90147 11.9273H7.4V11.5049H7.08999V11.9273H6.80397V12.204H7.08999V12.8392C7.08999 13.1622 7.21697 13.3546 7.57965 13.3546C7.71271 13.3546 7.86602 13.3139 7.96327 13.2469L7.87479 12.9875C7.78328 13.0399 7.68299 13.0662 7.60329 13.0662C7.44998 13.0662 7.4 12.9728 7.4 12.8332V12.204H7.90147V11.9273ZM3.31662 13.3196V12.4457C3.31662 12.1167 3.10421 11.8953 2.76179 11.8923C2.5818 11.8893 2.39606 11.9446 2.26605 12.14C2.16879 11.9856 2.01549 11.8923 1.80004 11.8923C1.64943 11.8923 1.50219 11.936 1.38704 12.099V11.9273H1.08008V13.3196H1.38974V12.5477C1.38974 12.306 1.52549 12.1777 1.7352 12.1777C1.93883 12.1777 2.04183 12.3087 2.04183 12.5447V13.3196H2.35182V12.5477C2.35182 12.306 2.49332 12.1777 2.69695 12.1777C2.90632 12.1777 3.00661 12.3087 3.00661 12.5447V13.3196H3.31662Z" fill="#231F20"/>
<path id="Vector_2" d="M17.2248 8.68873V8.48535H17.1712L17.1089 8.62505L17.0472 8.48535H16.9932V8.68873H17.0313V8.53536L17.0895 8.66772H17.1289L17.187 8.53503V8.68873H17.2248ZM16.8841 8.68873V8.52002H16.953V8.48569H16.7773V8.52002H16.8463V8.68873H16.8841Z" fill="#F79410"/>
<path id="Vector_3" d="M11.1199 9.56411H6.47266V1.31836H11.1199V9.56411Z" fill="#FF5F00"/>
<path id="Vector_4" d="M6.76983 5.4404C6.76983 3.76772 7.56307 2.27774 8.79834 1.31753C7.89501 0.615378 6.75497 0.196289 5.51598 0.196289C2.58277 0.196289 0.205078 2.54413 0.205078 5.4404C0.205078 8.33668 2.58277 10.6845 5.51598 10.6845C6.75497 10.6845 7.89501 10.2654 8.79834 9.56329C7.56307 8.60308 6.76983 7.11309 6.76983 5.4404Z" fill="#EB001B"/>
<path id="Vector_5" d="M17.3866 5.4404C17.3866 8.33668 15.0089 10.6845 12.0757 10.6845C10.8367 10.6845 9.69664 10.2654 8.79297 9.56329C10.0286 8.60308 10.8218 7.11309 10.8218 5.4404C10.8218 3.76772 10.0286 2.27774 8.79297 1.31753C9.69664 0.615378 10.8367 0.196289 12.0757 0.196289C15.0089 0.196289 17.3866 2.54413 17.3866 5.4404Z" fill="#F79E1B"/>
</g>
</g>
<defs>
<clipPath id="clip0_1057_8634">
<rect width="17.2" height="13.2" fill="white" transform="translate(0.199219 0.200195)"/>
</clipPath>
</defs>
</svg>
