<svg width="28" height="10" viewBox="0 0 28 10" fill="none" xmlns="http://www.w3.org/2000/svg">
<g id="visa_Inc._logo" clip-path="url(#clip0_1057_8625)">
<g id="Group">
<path id="Vector" d="M12.1878 9.23728H9.98438L11.3625 0.75293H13.5658L12.1878 9.23728Z" fill="#00579F"/>
<path id="Vector_2" d="M20.174 0.960822C19.7394 0.789154 19.0501 0.599609 18.1978 0.599609C16.0218 0.599609 14.4896 1.75487 14.4801 3.40653C14.4622 4.62513 15.5772 5.30196 16.4113 5.70829C17.2638 6.12348 17.5534 6.39448 17.5534 6.76458C17.5449 7.33296 16.8646 7.59496 16.2303 7.59496C15.3506 7.59496 14.8793 7.45988 14.163 7.14366L13.8728 7.00811L13.5645 8.91265C14.0812 9.14707 15.0334 9.35508 16.0218 9.36419C18.3338 9.36419 19.8389 8.22681 19.8567 6.46671C19.8656 5.50088 19.2767 4.76081 18.0073 4.15607C17.2366 3.76787 16.7646 3.5061 16.7646 3.10891C16.7738 2.7478 17.1638 2.37795 18.0338 2.37795C18.7501 2.35985 19.2764 2.53127 19.675 2.70282L19.8744 2.79292L20.174 0.960822Z" fill="#00579F"/>
<path id="Vector_3" d="M23.1023 6.23158C23.2838 5.74417 23.982 3.85773 23.982 3.85773C23.9729 3.87584 24.1631 3.36131 24.2719 3.04545L24.4259 3.77651C24.4259 3.77651 24.8431 5.80739 24.9338 6.23158C24.5895 6.23158 23.5375 6.23158 23.1023 6.23158ZM25.8222 0.75293H24.1178C23.5922 0.75293 23.1929 0.906243 22.9662 1.45688L19.6934 9.23716H22.0052C22.0052 9.23716 22.3859 8.19 22.4678 7.96447C22.7214 7.96447 24.9704 7.96447 25.2967 7.96447C25.3599 8.26233 25.5596 9.23716 25.5596 9.23716H27.5997L25.8222 0.75293Z" fill="#00579F"/>
<path id="Vector_4" d="M8.14311 0.75293L5.98527 6.53845L5.74946 5.36508C5.35053 4.01116 4.09936 2.54016 2.70312 1.80874L4.67964 9.22829H7.00966L10.473 0.75293H8.14311Z" fill="#00579F"/>
<path id="Vector_5" d="M3.98169 0.75293H0.436658L0.400391 0.924358C3.16575 1.62843 4.99718 3.32556 5.74964 5.36543L4.97899 1.46612C4.85212 0.924237 4.46221 0.770803 3.98169 0.75293Z" fill="#FAA61A"/>
</g>
</g>
<defs>
<clipPath id="clip0_1057_8625">
<rect width="27.2" height="8.80147" fill="white" transform="translate(0.400391 0.599609)"/>
</clipPath>
</defs>
</svg>
