<svg width="60" height="35" viewBox="0 0 60 35" fill="none" xmlns="http://www.w3.org/2000/svg">
<g clip-path="url(#clip0_1395_81343)">
<mask id="mask0_1395_81343" style="mask-type:luminance" maskUnits="userSpaceOnUse" x="0" y="3" width="60" height="16">
<path d="M0.980103 3.5H59.0178V18.6791H0.980103V3.5Z" fill="white"/>
</mask>
<g mask="url(#mask0_1395_81343)">
<path d="M4.38763 10.4431C4.37256 10.3384 4.41728 10.2787 4.43185 10.2493C4.61291 10.279 4.79605 10.2939 4.9795 10.2939C5.40857 10.2939 5.705 10.219 6.01601 10.0702C6.68223 9.71201 6.94852 9.05627 6.94852 8.22142C6.94852 6.83456 6.20844 5.94 4.62377 5.94C4.49063 5.94 4.04648 5.95467 3.95755 6.02956C3.91334 6.05941 3.85405 6.14846 3.83898 6.23852C3.80934 6.58107 3.79476 7.02885 3.79476 9.80207C3.79476 12.128 3.80984 12.7246 3.83898 13.2017C3.88369 13.5594 3.95755 13.7082 4.35749 13.8276C4.6092 13.8873 4.93478 13.9323 5.37943 13.9763C5.45329 14.0664 5.42364 14.499 5.34979 14.5734C4.87599 14.5734 3.72091 14.5283 3.12854 14.5283C2.43268 14.5283 1.39616 14.5734 1.07009 14.5734C0.996229 14.499 0.996229 14.0669 1.05552 13.992C1.39616 13.9475 1.72174 13.9176 1.91417 13.8579C2.29953 13.7532 2.3141 13.4552 2.34375 13.0226C2.35832 12.4857 2.37339 11.0098 2.37339 9.81725C2.37339 7.5505 2.37339 7.19278 2.35832 6.70047C2.32867 6.16364 2.22517 6.04474 1.75138 5.95467C1.50741 5.89843 1.26001 5.85854 1.0108 5.83527C0.951512 5.73104 0.981156 5.32828 1.05501 5.25391C1.24744 5.25391 2.16538 5.29894 2.87632 5.29894C3.88319 5.29894 4.57906 5.28376 5.497 5.28376C6.03058 5.28376 6.93345 5.37331 7.54038 5.86562C8.05839 6.28305 8.48796 6.95397 8.48796 7.95326C8.48796 9.35479 7.61424 10.2195 6.85909 10.5924C6.29636 10.8909 5.68943 10.9653 5.23021 10.9653C4.96342 10.9653 4.78606 10.9506 4.59313 10.8909C4.5057 10.8307 4.4022 10.5479 4.38763 10.4431Z" fill="#405C77"/>
</g>
<path d="M9.27525 13.9759C9.57118 13.9319 9.74904 13.902 9.9264 13.8272C10.1043 13.7528 10.1635 13.5883 10.1781 13.4249C10.2374 13.052 10.252 12.0532 10.252 9.54818C10.252 8.45983 10.252 6.75978 10.2223 6.26747C10.2073 6.14806 10.1927 5.80501 9.98519 5.76048C9.83747 5.71596 9.49682 5.67143 9.08182 5.61173C9.00796 5.5672 9.00796 5.17963 9.11146 5.11942C9.9259 5.03037 11.0066 4.77688 11.5251 4.55273C11.5693 4.56791 11.6588 4.702 11.6588 4.74652C11.5548 5.03037 11.5251 5.1938 11.5251 5.73063C11.5106 6.47643 11.5106 8.23569 11.4955 9.54818C11.4955 11.8296 11.5106 12.799 11.5251 13.2013C11.5402 13.559 11.5693 13.768 11.8809 13.8423C12.0884 13.9026 12.1326 13.9324 12.5174 13.9764C12.5616 14.0812 12.5471 14.4687 12.4436 14.5735C12.1029 14.5735 11.703 14.5284 10.7851 14.5284C10.1927 14.5284 9.45261 14.5735 9.26018 14.5735C9.21546 14.4829 9.18632 14.0953 9.27525 13.9759Z" fill="#405C77"/>
<path d="M16.5605 11.6207C16.146 11.7851 15.1984 12.068 14.8578 12.2628C14.7839 12.2926 14.6799 12.5754 14.6799 12.754C14.6799 13.3061 15.0648 13.7235 15.7164 13.7235C15.8943 13.7235 16.2344 13.6344 16.4274 13.4852C16.5605 13.3956 16.5901 13.2914 16.6198 13.1128C16.6494 12.9185 16.6494 11.9642 16.6494 11.6961C16.6494 11.6804 16.6052 11.606 16.5605 11.6207ZM16.4866 9.74252C16.25 9.36962 15.7908 9.1905 15.3908 9.1905C14.9909 9.1905 14.7688 9.29524 14.7246 9.33976C14.5468 9.48903 14.3101 9.99601 14.1026 10.4134C14.0438 10.4883 13.5107 10.2348 13.5404 10.1007C13.5992 9.84725 13.8363 9.16116 13.9549 9.0716C14.592 8.65417 15.5838 8.2666 15.9686 8.2666C16.6645 8.2666 17.1976 8.59447 17.5232 9.08678C17.8045 9.54924 17.8934 9.99651 17.8934 10.5925C17.8934 11.353 17.8342 12.5162 17.8342 13.1421C17.8342 13.4857 17.9673 13.6941 18.4115 13.6941C18.6335 13.6941 18.7521 13.6648 18.9445 13.6198C18.9591 13.6941 18.9295 14.1414 18.8707 14.2011C18.515 14.5594 17.9522 14.7081 17.5824 14.7081C17.1232 14.7081 16.8569 14.4996 16.768 14.2755C16.7087 14.1865 16.6791 14.0524 16.6499 13.9476C16.6499 13.933 16.5906 13.9178 16.5761 13.933C15.732 14.4546 15.1838 14.7081 14.7251 14.7081C14.4438 14.7081 14.1328 14.529 13.881 14.2902C13.5555 13.9476 13.363 13.47 13.363 12.9483C13.363 12.5309 13.6444 12.0533 13.7037 11.9941C14.2664 11.7107 15.9395 11.353 16.5469 11.0398C16.5766 11.0252 16.6359 10.9356 16.6509 10.8911C16.6806 10.802 16.6806 10.6674 16.6806 10.6376C16.6791 10.3537 16.664 10.0254 16.4866 9.74252Z" fill="#405C77"/>
<path d="M20.8994 10.2936C20.8994 11.1729 21.2843 12.1125 22.3062 12.1125C22.4986 12.1125 22.8096 12.023 22.9579 11.859C23.1799 11.6506 23.3573 11.2033 23.3573 10.6665C23.3573 9.78708 23.0021 8.93655 21.9801 8.93655C21.3586 8.93655 20.8994 9.42886 20.8994 10.2936ZM24.4531 16.0343C24.4531 15.587 24.2461 15.2435 23.7276 15.0497C23.3281 14.9009 22.6614 14.8265 21.8917 14.8265C21.64 14.8265 21.4626 14.9009 21.3586 14.9606C20.811 15.3189 20.5889 15.6614 20.5889 16.0343C20.5889 16.392 20.722 16.69 21.033 16.9587C21.4476 17.3169 21.9806 17.4363 22.573 17.4363C23.8909 17.4363 24.4531 16.7052 24.4531 16.0343ZM23.8758 8.5935C24.1129 8.68255 24.3496 8.72758 24.7048 8.72758C25.2082 8.72758 25.4157 8.56365 25.6082 8.36936C25.6675 8.35468 25.8453 8.47409 25.8599 8.50344C25.8599 8.7124 25.6529 9.23406 25.5042 9.41317C25.3861 9.54726 25.253 9.65149 24.9269 9.65149H24.5862C24.5712 9.65149 24.5415 9.68184 24.5415 9.69652C24.5712 9.81592 24.6154 10.0993 24.6154 10.2035C24.6154 11.2772 24.2159 11.7841 23.712 12.1717C23.2601 12.5166 22.7219 12.7282 22.1575 12.7829C22.1278 12.7829 21.8319 12.8128 21.8018 12.8128C21.6983 12.8426 21.4762 12.962 21.4762 13.1558C21.4762 13.424 21.7279 13.5581 22.1133 13.5879C22.8981 13.6476 24.0823 13.7073 24.6008 13.8865C25.1635 14.0949 25.6077 14.6176 25.6077 15.3624C25.6077 16.3166 24.9565 17.2861 23.7421 17.8826C23.1931 18.1506 22.5903 18.2882 21.9801 18.2849C21.225 18.2849 20.618 18.1361 20.085 17.7182C19.6112 17.3453 19.374 16.7791 19.374 16.3612C19.374 16.2271 19.4333 15.8243 19.4926 15.7494C19.6554 15.541 20.1885 15.1382 20.8698 14.6611C20.8843 14.6611 20.8843 14.6312 20.8698 14.6312C20.2925 14.4076 20.0548 14.0347 19.981 13.7514C19.9664 13.6623 20.0548 13.4832 20.0699 13.4235C20.292 13.2742 20.8105 12.9914 21.0325 12.7976C21.0476 12.7824 21.0476 12.7374 21.018 12.7232C20.2332 12.4546 19.6257 11.8433 19.6257 10.6356C19.6257 10.0092 19.8925 9.35296 20.4844 8.92086C20.8547 8.62234 21.8168 8.24944 22.4243 8.26513C23.0468 8.28031 23.402 8.41439 23.8758 8.5935Z" fill="#405C77"/>
<path d="M31.3942 13.618C31.772 13.9064 32.3076 14.0284 32.8402 14.0147C33.4773 13.999 34.3716 13.6195 34.344 12.4867C34.3214 11.5628 33.7501 11.1737 32.3544 10.4319C30.9149 9.67601 30.01 8.9975 29.9769 7.59647C29.9372 5.94245 31.247 4.98465 32.9196 4.94519C34.044 4.91685 34.6861 5.11115 35.3388 5.16933C35.2468 5.66417 35.1815 6.63513 35.1393 7.36676C35.0976 7.472 34.6389 7.48364 34.5635 7.39611C34.4555 6.60781 34.3249 6.13422 33.9792 5.88882C33.6175 5.64444 33.1427 5.58119 32.7282 5.59081C31.7208 5.6156 31.252 6.41705 31.2676 7.05761C31.2877 7.90714 31.666 8.25676 32.3272 8.6585C32.9442 9.03039 33.7813 9.36888 34.3214 9.66842C35.1619 10.1405 35.7392 10.7532 35.7654 11.8259C35.799 13.2573 34.6188 14.6725 32.4136 14.7256C31.4661 14.7494 30.5406 14.4422 30.1522 14.3031C30.0155 14.1285 29.6648 12.4816 29.6066 11.9306C29.6327 11.7955 30.1336 11.6645 30.2235 11.7221C30.5265 12.6101 30.8521 13.2431 31.3942 13.618Z" fill="#405C77"/>
<path d="M42.2829 14.7071C41.3062 14.7071 40.5505 14.3342 40.0476 13.6335C39.6622 13.0971 39.4547 12.366 39.4547 11.5909C39.4547 10.4428 39.9883 9.50323 41.0097 8.89202C41.7207 8.44474 42.5346 8.26562 42.9345 8.26562C43.5716 8.26562 43.9711 8.39971 44.2519 8.53379C44.5187 8.6532 44.6373 8.78728 44.7111 8.93604C44.7262 8.99574 44.7111 9.14551 44.6815 9.21988C44.5775 9.48805 44.267 9.86095 44.1188 9.92065C44.0891 9.93533 44.0002 9.9505 43.9711 9.93533C43.6013 9.59278 43.023 9.0853 42.2537 9.0853C41.1278 9.0853 40.7133 10.0694 40.7133 11.0383C40.7133 11.6794 40.8912 12.3655 41.2906 12.8274C41.6905 13.3198 42.2382 13.5581 42.9491 13.5581C43.4827 13.5581 44.0595 13.4093 44.6966 12.8274C44.7267 12.8426 44.8001 12.9023 44.8001 12.9767C44.8001 13.1401 44.7413 13.4837 44.6966 13.5434C44.0158 14.4086 42.9345 14.7071 42.2829 14.7071Z" fill="#405C77"/>
<path d="M48.9321 11.6207C48.5181 11.7851 47.57 12.068 47.2294 12.2628C47.1555 12.2926 47.0515 12.5754 47.0515 12.754C47.0515 13.3061 47.4364 13.7235 48.088 13.7235C48.2659 13.7235 48.6055 13.6344 48.7984 13.4852C48.9316 13.3956 48.9612 13.2914 48.9909 13.1128C49.021 12.9185 49.021 11.9642 49.021 11.6961C49.021 11.6804 48.9768 11.606 48.9321 11.6207ZM48.8577 9.74252C48.6211 9.36962 48.1619 9.1905 47.7624 9.1905C47.3625 9.1905 47.1404 9.29524 47.0957 9.33976C46.9183 9.48903 46.6812 9.99601 46.4742 10.4134C46.4154 10.4883 45.8813 10.2348 45.9115 10.1007C45.9708 9.84725 46.2074 9.16116 46.326 9.0716C46.9631 8.65417 47.9549 8.2666 48.3397 8.2666C49.0361 8.2666 49.5687 8.59447 49.8947 9.08678C50.1766 9.54924 50.265 9.99651 50.265 10.5925C50.265 11.353 50.2057 12.5162 50.2057 13.1421C50.2057 13.4857 50.3394 13.6941 50.783 13.6941C51.0046 13.6941 51.1237 13.6648 51.3161 13.6198C51.3307 13.6941 51.3015 14.1414 51.2428 14.2011C50.887 14.5594 50.3248 14.7081 49.9545 14.7081C49.4948 14.7081 49.229 14.4996 49.1401 14.2755C49.0813 14.1865 49.0512 14.0524 49.022 13.9476C49.022 13.933 48.9627 13.9178 48.9482 13.933C48.1036 14.4546 47.5564 14.7081 47.0967 14.7081C46.8153 14.7081 46.5048 14.529 46.2526 14.2902C45.9271 13.9476 45.7346 13.47 45.7346 12.9483C45.7346 12.5309 46.016 12.0533 46.0753 11.9941C46.6375 11.7107 48.3116 11.353 48.918 11.0398C48.9482 11.0252 49.0074 10.9356 49.022 10.8911C49.0517 10.802 49.0517 10.6674 49.0517 10.6376C49.0507 10.3537 49.0361 10.0254 48.8577 9.74252Z" fill="#405C77"/>
<path d="M52.3973 13.8728C52.6048 13.8278 52.7083 13.6644 52.7234 13.4104C52.7525 12.9929 52.7525 11.9339 52.7525 10.9797V9.906C52.6937 9.69754 52.4269 9.48909 51.9089 9.25027C51.8788 9.13086 51.9386 8.84802 52.0124 8.80299C52.6194 8.74329 53.5815 8.44527 53.9367 8.25098C53.9674 8.26666 54.0267 8.32586 54.0267 8.37039C54.0267 8.44527 54.0116 8.96692 54.0116 9.20524C54.0116 9.23559 54.0855 9.23559 54.1005 9.22092C54.7376 8.66891 55.5073 8.26666 56.0846 8.26666C56.7363 8.26666 57.2397 8.56468 57.5949 9.07166C57.8914 9.51894 58.0094 10.1453 58.0094 10.8608C58.0094 11.7407 58.0094 13.0825 58.0391 13.5454C58.0391 13.5895 58.0984 13.7241 58.1431 13.7539C58.4245 13.888 58.6611 13.933 58.9872 13.977C59.0465 14.0818 59.0173 14.4693 58.9279 14.5741C58.7209 14.5741 58.2029 14.5291 57.3884 14.5291C56.7368 14.5291 56.2926 14.5741 55.9078 14.5741C55.849 14.484 55.8189 14.0676 55.9078 13.977C56.1891 13.9477 56.4263 13.9032 56.5147 13.8581C56.7076 13.7984 56.7519 13.6649 56.7519 13.1275C56.7519 12.1439 56.7664 11.01 56.7076 10.4439C56.678 10.1904 56.5735 9.84731 56.2931 9.609C56.0856 9.42989 55.8043 9.2958 55.3898 9.2958C54.9607 9.2958 54.4718 9.47492 54.1754 9.74308C54.0865 9.81746 54.0126 9.95154 54.0126 10.2354C54.0126 11.2494 54.0126 12.7399 54.0428 13.4407C54.0568 13.7089 54.1161 13.8283 54.3533 13.888C54.5311 13.933 54.709 13.9624 54.9607 13.977C55.019 14.0671 54.9903 14.4693 54.9014 14.5741C54.6793 14.5741 54.2352 14.5291 53.3765 14.5291C52.754 14.5291 51.9994 14.5741 51.8512 14.5741C51.7778 14.484 51.7778 14.0524 51.8512 13.977C52.0352 13.9537 52.2176 13.9189 52.3973 13.8728Z" fill="#405C77"/>
<path d="M38.1615 15.1554C38.1392 15.156 38.1174 15.1484 38.1002 15.1342L38.0997 15.1276L38.0163 15.0567L37.3174 14.4212L37.3129 14.3287L37.6977 13.8991L37.7877 13.8945L38.5684 14.6373L38.5674 14.6636H38.573C38.6649 14.6636 38.482 14.9394 38.4745 14.9485L38.3785 15.037C38.3222 15.0998 38.2353 15.1554 38.1615 15.1554Z" fill="#405C77"/>
<path d="M41.6151 18.6795C41.3287 18.6795 40.9971 18.506 40.6304 18.1629L38.2679 15.7439C38.0393 15.5304 37.9806 15.3138 37.971 15.1706C37.96 14.9789 38.0298 14.8276 38.1001 14.7497L38.168 14.6753C38.2413 14.5948 38.388 14.5078 38.5845 14.5078C38.7216 14.5078 38.9332 14.5518 39.1588 14.7623L41.7242 16.9466C42.5738 17.7405 42.3065 18.2247 42.1522 18.3957L42.0844 18.4701C41.9985 18.5662 41.8473 18.6795 41.6151 18.6795Z" fill="#405C77"/>
<path d="M37.8142 15.0532C37.7112 15.0532 37.5786 14.9343 37.553 14.9106L37.5645 14.8058C37.567 14.8043 37.8404 14.6454 37.9579 14.5038C38.0775 14.3601 38.1911 14.1086 38.1921 14.1061L38.2976 14.0889C38.3443 14.14 38.4508 14.2675 38.4508 14.3489C38.4508 14.4471 37.9388 15.0532 37.8142 15.0532Z" fill="#405C77"/>
<mask id="mask1_1395_81343" style="mask-type:luminance" maskUnits="userSpaceOnUse" x="0" y="3" width="60" height="16">
<path d="M0.980103 3.5H59.0178V18.6791H0.980103V3.5Z" fill="white"/>
</mask>
<g mask="url(#mask1_1395_81343)">
<path d="M37.7263 14.9658C37.6381 14.9672 37.5526 14.9348 37.4872 14.8752L37.1716 14.5853C37.0149 14.4411 37.0194 14.1749 37.1822 13.9918L37.3505 13.8025C37.3928 13.753 37.4451 13.713 37.5037 13.6851C37.5624 13.6572 37.6263 13.6421 37.6911 13.6406C37.7831 13.6406 37.8655 13.6725 37.9298 13.7312L38.2453 14.0211C38.4026 14.1653 38.3971 14.4315 38.2348 14.6146L38.0665 14.8044C38.0241 14.8537 37.9719 14.8935 37.9134 14.9213C37.8548 14.9491 37.7911 14.9643 37.7263 14.9658Z" fill="#405C77"/>
</g>
<mask id="mask2_1395_81343" style="mask-type:luminance" maskUnits="userSpaceOnUse" x="0" y="3" width="60" height="16">
<path d="M0.980103 3.5H59.0178V18.6791H0.980103V3.5Z" fill="white"/>
</mask>
<g mask="url(#mask2_1395_81343)">
<path d="M37.129 13.5688C35.065 16.0147 31.4244 16.3137 28.9956 14.2357C26.5664 12.1587 26.2694 8.49194 28.3329 6.04608C30.3964 3.60022 34.0375 3.30068 36.4663 5.3782C38.895 7.45571 39.1914 11.123 37.129 13.5688ZM36.7858 4.99973C34.149 2.74513 30.1964 3.06946 27.9571 5.72428C25.7183 8.38012 26.0398 12.3586 28.6761 14.6157C31.3118 16.8698 35.2649 16.545 37.5043 13.8906C39.7451 11.2353 39.422 7.25433 36.7858 4.99973Z" fill="#405C77"/>
</g>
<path d="M10.7949 26.6084V22.9415H12.2416C12.5197 22.9415 12.7567 22.9946 12.9524 23.1009C13.1482 23.2059 13.2974 23.3521 13.4001 23.5395C13.5039 23.7257 13.5558 23.9406 13.5558 24.1841C13.5558 24.4276 13.5033 24.6425 13.3983 24.8287C13.2932 25.0149 13.141 25.1599 12.9417 25.2638C12.7435 25.3676 12.5036 25.4195 12.2219 25.4195H11.2998V24.7982H12.0966C12.2458 24.7982 12.3687 24.7726 12.4654 24.7212C12.5633 24.6687 12.6361 24.5965 12.6839 24.5046C12.7328 24.4115 12.7573 24.3047 12.7573 24.1841C12.7573 24.0623 12.7328 23.9561 12.6839 23.8654C12.6361 23.7735 12.5633 23.7025 12.4654 23.6523C12.3675 23.601 12.2434 23.5753 12.093 23.5753H11.5702V26.6084H10.7949ZM14.0594 26.6084V22.9415H15.5061C15.783 22.9415 16.0194 22.991 16.2151 23.0901C16.4121 23.188 16.5619 23.3271 16.6645 23.5073C16.7684 23.6863 16.8203 23.897 16.8203 24.1393C16.8203 24.3828 16.7678 24.5923 16.6627 24.7678C16.5577 24.9421 16.4055 25.0758 16.2062 25.1689C16.008 25.262 15.7681 25.3085 15.4864 25.3085H14.5178V24.6854H15.3611C15.5091 24.6854 15.632 24.6651 15.7299 24.6246C15.8278 24.584 15.9006 24.5231 15.9483 24.4419C15.9973 24.3608 16.0218 24.2599 16.0218 24.1393C16.0218 24.0176 15.9973 23.9149 15.9483 23.8314C15.9006 23.7478 15.8272 23.6846 15.7281 23.6416C15.6302 23.5974 15.5067 23.5753 15.3575 23.5753H14.8347V26.6084H14.0594ZM16.0397 24.9397L16.951 26.6084H16.0952L15.2035 24.9397H16.0397ZM20.7379 24.775C20.7379 25.1748 20.6621 25.515 20.5105 25.7955C20.3601 26.076 20.1548 26.2903 19.8945 26.4383C19.6355 26.5851 19.3443 26.6585 19.0208 26.6585C18.6949 26.6585 18.4025 26.5845 18.1435 26.4365C17.8844 26.2885 17.6797 26.0742 17.5293 25.7937C17.3789 25.5132 17.3037 25.1736 17.3037 24.775C17.3037 24.3751 17.3789 24.0349 17.5293 23.7544C17.6797 23.4739 17.8844 23.2602 18.1435 23.1134C18.4025 22.9654 18.6949 22.8914 19.0208 22.8914C19.3443 22.8914 19.6355 22.9654 19.8945 23.1134C20.1548 23.2602 20.3601 23.4739 20.5105 23.7544C20.6621 24.0349 20.7379 24.3751 20.7379 24.775ZM19.9518 24.775C19.9518 24.5159 19.913 24.2975 19.8355 24.1196C19.7591 23.9418 19.651 23.8069 19.5114 23.715C19.3717 23.6231 19.2082 23.5771 19.0208 23.5771C18.8334 23.5771 18.6699 23.6231 18.5302 23.715C18.3905 23.8069 18.2819 23.9418 18.2043 24.1196C18.1279 24.2975 18.0897 24.5159 18.0897 24.775C18.0897 25.034 18.1279 25.2524 18.2043 25.4303C18.2819 25.6081 18.3905 25.743 18.5302 25.8349C18.6699 25.9268 18.8334 25.9728 19.0208 25.9728C19.2082 25.9728 19.3717 25.9268 19.5114 25.8349C19.651 25.743 19.7591 25.6081 19.8355 25.4303C19.913 25.2524 19.9518 25.034 19.9518 24.775ZM21.3121 26.6084V22.9415H23.74V23.5807H22.0874V24.4545H23.5789V25.0937H22.0874V26.6084H21.3121ZM24.2615 26.6084V22.9415H26.7324V23.5807H25.0368V24.4545H26.6052V25.0937H25.0368V25.9692H26.7395V26.6084H24.2615ZM29.3379 23.9961C29.3236 23.8517 29.2621 23.7395 29.1535 23.6595C29.0449 23.5795 28.8975 23.5395 28.7113 23.5395C28.5847 23.5395 28.4779 23.5574 28.3908 23.5932C28.3036 23.6279 28.2368 23.6762 28.1902 23.7383C28.1449 23.8003 28.1222 23.8708 28.1222 23.9495C28.1198 24.0152 28.1335 24.0725 28.1634 24.1214C28.1944 24.1704 28.2368 24.2127 28.2905 24.2486C28.3442 24.2832 28.4063 24.3136 28.4767 24.3399C28.5471 24.3649 28.6223 24.3864 28.7023 24.4043L29.0318 24.4831C29.1917 24.5189 29.3385 24.5667 29.4722 24.6263C29.6059 24.686 29.7217 24.7594 29.8196 24.8466C29.9175 24.9337 29.9933 25.0364 30.047 25.1545C30.1019 25.2727 30.1299 25.4082 30.1311 25.561C30.1299 25.7854 30.0726 25.9799 29.9592 26.1447C29.847 26.3082 29.6847 26.4353 29.4722 26.526C29.2609 26.6156 29.0061 26.6603 28.7077 26.6603C28.4117 26.6603 28.1538 26.615 27.9342 26.5242C27.7158 26.4335 27.5451 26.2992 27.4221 26.1214C27.3004 25.9423 27.2365 25.7209 27.2306 25.4571H27.9808C27.9891 25.5801 28.0243 25.6827 28.0864 25.7651C28.1497 25.8463 28.2338 25.9077 28.3389 25.9495C28.4451 25.9901 28.5651 26.0104 28.6987 26.0104C28.83 26.0104 28.944 25.9913 29.0407 25.9531C29.1386 25.9149 29.2144 25.8618 29.2681 25.7937C29.3218 25.7257 29.3487 25.6475 29.3487 25.5592C29.3487 25.4768 29.3242 25.4076 29.2753 25.3515C29.2275 25.2954 29.1571 25.2476 29.064 25.2082C28.9721 25.1689 28.8593 25.133 28.7256 25.1008L28.3263 25.0006C28.0172 24.9254 27.7731 24.8078 27.594 24.6478C27.415 24.4879 27.326 24.2724 27.3272 24.0015C27.326 23.7795 27.3851 23.5855 27.5045 23.4196C27.6251 23.2537 27.7904 23.1241 28.0005 23.031C28.2105 22.9379 28.4493 22.8914 28.7166 22.8914C28.9888 22.8914 29.2263 22.9379 29.4293 23.031C29.6334 23.1241 29.7921 23.2537 29.9055 23.4196C30.0189 23.5855 30.0774 23.7777 30.081 23.9961H29.3379ZM32.6418 23.9961C32.6275 23.8517 32.566 23.7395 32.4574 23.6595C32.3488 23.5795 32.2013 23.5395 32.0151 23.5395C31.8886 23.5395 31.7818 23.5574 31.6946 23.5932C31.6075 23.6279 31.5407 23.6762 31.4941 23.7383C31.4488 23.8003 31.4261 23.8708 31.4261 23.9495C31.4237 24.0152 31.4374 24.0725 31.4673 24.1214C31.4983 24.1704 31.5407 24.2127 31.5944 24.2486C31.6481 24.2832 31.7102 24.3136 31.7806 24.3399C31.851 24.3649 31.9262 24.3864 32.0062 24.4043L32.3356 24.4831C32.4956 24.5189 32.6424 24.5667 32.7761 24.6263C32.9098 24.686 33.0256 24.7594 33.1234 24.8466C33.2213 24.9337 33.2971 25.0364 33.3508 25.1545C33.4057 25.2727 33.4338 25.4082 33.435 25.561C33.4338 25.7854 33.3765 25.9799 33.2631 26.1447C33.1509 26.3082 32.9886 26.4353 32.7761 26.526C32.5648 26.6156 32.31 26.6603 32.0116 26.6603C31.7155 26.6603 31.4577 26.615 31.2381 26.5242C31.0196 26.4335 30.8489 26.2992 30.726 26.1214C30.6042 25.9423 30.5404 25.7209 30.5344 25.4571H31.2846C31.293 25.5801 31.3282 25.6827 31.3903 25.7651C31.4535 25.8463 31.5377 25.9077 31.6427 25.9495C31.749 25.9901 31.8689 26.0104 32.0026 26.0104C32.1339 26.0104 32.2479 25.9913 32.3446 25.9531C32.4425 25.9149 32.5183 25.8618 32.572 25.7937C32.6257 25.7257 32.6525 25.6475 32.6525 25.5592C32.6525 25.4768 32.6281 25.4076 32.5791 25.3515C32.5314 25.2954 32.461 25.2476 32.3679 25.2082C32.276 25.1689 32.1632 25.133 32.0295 25.1008L31.6302 25.0006C31.321 24.9254 31.0769 24.8078 30.8979 24.6478C30.7188 24.4879 30.6299 24.2724 30.6311 24.0015C30.6299 23.7795 30.689 23.5855 30.8084 23.4196C30.9289 23.2537 31.0942 23.1241 31.3043 23.031C31.5144 22.9379 31.7531 22.8914 32.0205 22.8914C32.2927 22.8914 32.5302 22.9379 32.7331 23.031C32.9372 23.1241 33.096 23.2537 33.2094 23.4196C33.3228 23.5855 33.3813 23.7777 33.3849 23.9961H32.6418ZM34.7317 22.9415V26.6084H33.9565V22.9415H34.7317ZM38.7393 24.775C38.7393 25.1748 38.6635 25.515 38.5119 25.7955C38.3615 26.076 38.1562 26.2903 37.8959 26.4383C37.6369 26.5851 37.3457 26.6585 37.0222 26.6585C36.6963 26.6585 36.4039 26.5845 36.1449 26.4365C35.8858 26.2885 35.6811 26.0742 35.5307 25.7937C35.3803 25.5132 35.3051 25.1736 35.3051 24.775C35.3051 24.3751 35.3803 24.0349 35.5307 23.7544C35.6811 23.4739 35.8858 23.2602 36.1449 23.1134C36.4039 22.9654 36.6963 22.8914 37.0222 22.8914C37.3457 22.8914 37.6369 22.9654 37.8959 23.1134C38.1562 23.2602 38.3615 23.4739 38.5119 23.7544C38.6635 24.0349 38.7393 24.3751 38.7393 24.775ZM37.9532 24.775C37.9532 24.5159 37.9144 24.2975 37.8369 24.1196C37.7605 23.9418 37.6524 23.8069 37.5128 23.715C37.3731 23.6231 37.2096 23.5771 37.0222 23.5771C36.8348 23.5771 36.6713 23.6231 36.5316 23.715C36.3919 23.8069 36.2833 23.9418 36.2057 24.1196C36.1293 24.2975 36.0912 24.5159 36.0912 24.775C36.0912 25.034 36.1293 25.2524 36.2057 25.4303C36.2833 25.6081 36.3919 25.743 36.5316 25.8349C36.6713 25.9268 36.8348 25.9728 37.0222 25.9728C37.2096 25.9728 37.3731 25.9268 37.5128 25.8349C37.6524 25.743 37.7605 25.6081 37.8369 25.4303C37.9144 25.2524 37.9532 25.034 37.9532 24.775ZM42.3806 22.9415V26.6084H41.711L40.1157 24.3005H40.0888V26.6084H39.3136V22.9415H39.9939L41.5767 25.2476H41.6089V22.9415H42.3806ZM43.6532 26.6084H42.8224L44.0883 22.9415H45.0874L46.3515 26.6084H45.5207L44.6022 23.7795H44.5735L43.6532 26.6084ZM43.6013 25.1671H45.5636V25.7722H43.6013V25.1671ZM46.7928 26.6084V22.9415H47.5681V25.9692H49.1401V26.6084H46.7928Z" fill="#405C77"/>
<path d="M-0.371308 30.7822V27.1153H1.07539C1.35351 27.1153 1.59045 27.1685 1.78621 27.2747C1.98197 27.3797 2.13117 27.526 2.23383 27.7134C2.33768 27.8996 2.3896 28.1144 2.3896 28.3579C2.3896 28.6014 2.33708 28.8163 2.23204 29.0025C2.127 29.1887 1.97481 29.3337 1.77547 29.4376C1.57732 29.5414 1.3374 29.5934 1.0557 29.5934H0.133605V28.9721H0.930365C1.07957 28.9721 1.20252 28.9464 1.2992 28.8951C1.39708 28.8425 1.46989 28.7703 1.51764 28.6784C1.56658 28.5853 1.59105 28.4785 1.59105 28.3579C1.59105 28.2362 1.56658 28.1299 1.51764 28.0392C1.46989 27.9473 1.39708 27.8763 1.2992 27.8262C1.20132 27.7748 1.07718 27.7492 0.926784 27.7492H0.403966V30.7822H-0.371308ZM2.89317 30.7822V27.1153H3.66844V30.143H5.24048V30.7822H2.89317ZM6.47949 30.7822H5.64871L6.91457 27.1153H7.91365L9.17773 30.7822H8.34695L7.42844 27.9533H7.39979L6.47949 30.7822ZM6.42756 29.3409H8.38992V29.9461H6.42756V29.3409ZM11.8782 28.3006C11.8531 28.2135 11.8179 28.1365 11.7726 28.0697C11.7272 28.0016 11.6717 27.9443 11.6061 27.8978C11.5416 27.85 11.4676 27.8136 11.384 27.7886C11.3017 27.7635 11.2104 27.751 11.1101 27.751C10.9227 27.751 10.758 27.7975 10.6159 27.8906C10.4751 27.9837 10.3653 28.1192 10.2865 28.2971C10.2077 28.4737 10.1683 28.6898 10.1683 28.9452C10.1683 29.2006 10.2071 29.4179 10.2847 29.5969C10.3623 29.776 10.4721 29.9127 10.6141 30.007C10.7562 30.1001 10.9239 30.1466 11.1173 30.1466C11.2927 30.1466 11.4425 30.1156 11.5667 30.0535C11.692 29.9902 11.7875 29.9013 11.8531 29.7867C11.92 29.6721 11.9534 29.5367 11.9534 29.3803L12.111 29.4036H11.1656V28.8199H12.7V29.2818C12.7 29.6041 12.632 29.881 12.4959 30.1126C12.3598 30.343 12.1724 30.5208 11.9337 30.6462C11.695 30.7703 11.4216 30.8324 11.1137 30.8324C10.7699 30.8324 10.4679 30.7566 10.2077 30.605C9.94748 30.4522 9.74456 30.2355 9.59893 29.955C9.4545 29.6733 9.38229 29.3391 9.38229 28.9524C9.38229 28.6551 9.42526 28.3902 9.5112 28.1574C9.59834 27.9234 9.72009 27.7253 9.87646 27.563C10.0328 27.4006 10.2149 27.2771 10.4226 27.1923C10.6302 27.1076 10.8552 27.0652 11.0976 27.0652C11.3053 27.0652 11.4986 27.0956 11.6777 27.1565C11.8567 27.2162 12.0155 27.301 12.1539 27.4108C12.2936 27.5206 12.4076 27.6513 12.4959 27.8029C12.5842 27.9533 12.6409 28.1192 12.666 28.3006H11.8782ZM14.0577 27.1153V30.7822H13.2824V27.1153H14.0577ZM15.3275 30.7822H14.4968L15.7626 27.1153H16.7617L18.0258 30.7822H17.195L16.2765 27.9533H16.2479L15.3275 30.7822ZM15.2756 29.3409H17.238V29.9461H15.2756V29.3409ZM18.4671 30.7822V27.1153H19.9138C20.1908 27.1153 20.4271 27.1649 20.6229 27.2639C20.8198 27.3618 20.9696 27.5009 21.0723 27.6811C21.1761 27.8602 21.228 28.0709 21.228 28.3132C21.228 28.5567 21.1755 28.7662 21.0705 28.9416C20.9654 29.1159 20.8133 29.2496 20.6139 29.3427C20.4158 29.4358 20.1758 29.4823 19.8941 29.4823H18.9255V28.8593H19.7688C19.9168 28.8593 20.0398 28.839 20.1377 28.7984C20.2355 28.7578 20.3083 28.6969 20.3561 28.6158C20.405 28.5346 20.4295 28.4337 20.4295 28.3132C20.4295 28.1914 20.405 28.0888 20.3561 28.0052C20.3083 27.9216 20.2349 27.8584 20.1359 27.8154C20.038 27.7712 19.9144 27.7492 19.7652 27.7492H19.2424V30.7822H18.4671ZM20.4474 29.1135L21.3588 30.7822H20.5029L19.6113 29.1135H20.4474ZM22.5512 27.1153V30.7822H21.7759V27.1153H22.5512ZM25.1783 28.1699C25.164 28.0255 25.1025 27.9133 24.9939 27.8333C24.8852 27.7533 24.7378 27.7134 24.5516 27.7134C24.4251 27.7134 24.3183 27.7313 24.2311 27.7671C24.144 27.8017 24.0771 27.85 24.0306 27.9121C23.9852 27.9742 23.9625 28.0446 23.9625 28.1234C23.9602 28.189 23.9739 28.2463 24.0037 28.2953C24.0348 28.3442 24.0771 28.3866 24.1309 28.4224C24.1846 28.457 24.2466 28.4874 24.3171 28.5137C24.3875 28.5388 24.4627 28.5603 24.5427 28.5782L24.8721 28.6569C25.0321 28.6927 25.1789 28.7405 25.3126 28.8002C25.4463 28.8599 25.562 28.9333 25.6599 29.0204C25.7578 29.1075 25.8336 29.2102 25.8873 29.3284C25.9422 29.4465 25.9703 29.582 25.9715 29.7348C25.9703 29.9592 25.913 30.1538 25.7996 30.3185C25.6874 30.482 25.525 30.6091 25.3126 30.6999C25.1013 30.7894 24.8464 30.8342 24.548 30.8342C24.252 30.8342 23.9942 30.7888 23.7745 30.6981C23.5561 30.6074 23.3854 30.4731 23.2625 30.2952C23.1407 30.1162 23.0769 29.8947 23.0709 29.631H23.8211C23.8295 29.7539 23.8647 29.8566 23.9267 29.9389C23.99 30.0201 24.0742 30.0816 24.1792 30.1233C24.2854 30.1639 24.4054 30.1842 24.5391 30.1842C24.6704 30.1842 24.7844 30.1651 24.8811 30.1269C24.9789 30.0887 25.0547 30.0356 25.1084 29.9676C25.1622 29.8995 25.189 29.8213 25.189 29.733C25.189 29.6506 25.1646 29.5814 25.1156 29.5253C25.0679 29.4692 24.9974 29.4215 24.9043 29.3821C24.8124 29.3427 24.6996 29.3069 24.5659 29.2746L24.1667 29.1744C23.8575 29.0992 23.6134 28.9816 23.4344 28.8217C23.2553 28.6617 23.1664 28.4463 23.1676 28.1753C23.1664 27.9533 23.2255 27.7593 23.3448 27.5934C23.4654 27.4275 23.6307 27.298 23.8408 27.2049C24.0509 27.1118 24.2896 27.0652 24.557 27.0652C24.8291 27.0652 25.0667 27.1118 25.2696 27.2049C25.4737 27.298 25.6325 27.4275 25.7459 27.5934C25.8593 27.7593 25.9177 27.9515 25.9213 28.1699H25.1783ZM26.4929 27.1153H27.449L28.4589 29.579H28.5018L29.5117 27.1153H30.4678V30.7822H29.7158V28.3955H29.6853L28.7364 30.7643H28.2243L27.2754 28.3866H27.2449V30.7822H26.4929V27.1153ZM33.5734 30.7822H32.2735V27.1153H33.5841C33.9529 27.1153 34.2704 27.1887 34.5366 27.3356C34.8028 27.4812 35.0075 27.6907 35.1508 27.964C35.2952 28.2374 35.3674 28.5644 35.3674 28.9452C35.3674 29.3272 35.2952 29.6554 35.1508 29.93C35.0075 30.2045 34.8016 30.4152 34.533 30.562C34.2657 30.7088 33.9458 30.7822 33.5734 30.7822ZM33.0487 30.118H33.5411C33.7703 30.118 33.9631 30.0774 34.1194 29.9962C34.277 29.9138 34.3952 29.7867 34.474 29.6148C34.5539 29.4418 34.5939 29.2185 34.5939 28.9452C34.5939 28.6742 34.5539 28.4528 34.474 28.2809C34.3952 28.1091 34.2776 27.9825 34.1212 27.9014C33.9649 27.8202 33.7721 27.7796 33.5429 27.7796H33.0487V30.118ZM35.9417 30.7822V27.1153H38.4125V27.7545H36.717V28.6283H38.2854V29.2675H36.717V30.143H38.4197V30.7822H35.9417ZM38.8893 27.7545V27.1153H41.9008V27.7545H40.7782V30.7822H40.0119V27.7545H38.8893ZM42.3968 30.7822V27.1153H44.8676V27.7545H43.1721V28.6283H44.7405V29.2675H43.1721V30.143H44.8748V30.7822H42.3968ZM48.7194 28.3991H47.9352C47.9208 28.2976 47.8916 28.2075 47.8474 28.1287C47.8033 28.0488 47.7466 27.9807 47.6773 27.9246C47.6081 27.8685 47.5281 27.8256 47.4374 27.7957C47.3479 27.7659 47.2506 27.751 47.1456 27.751C46.9558 27.751 46.7905 27.7981 46.6496 27.8924C46.5088 27.9855 46.3995 28.1216 46.322 28.3006C46.2444 28.4785 46.2056 28.6945 46.2056 28.9488C46.2056 29.2102 46.2444 29.4298 46.322 29.6077C46.4007 29.7855 46.5106 29.9198 46.6514 30.0105C46.7923 30.1013 46.9552 30.1466 47.1402 30.1466C47.2441 30.1466 47.3401 30.1329 47.4285 30.1054C47.518 30.078 47.5974 30.038 47.6666 29.9855C47.7358 29.9318 47.7931 29.8667 47.8385 29.7903C47.885 29.7139 47.9173 29.6268 47.9352 29.5289L48.7194 29.5325C48.6991 29.7008 48.6484 29.8631 48.5672 30.0195C48.4872 30.1747 48.3792 30.3137 48.2431 30.4367C48.1083 30.5584 47.9471 30.6551 47.7597 30.7267C47.5735 30.7971 47.3628 30.8324 47.1277 30.8324C46.8006 30.8324 46.5082 30.7584 46.2503 30.6103C45.9937 30.4623 45.7908 30.2481 45.6416 29.9676C45.4936 29.6871 45.4196 29.3475 45.4196 28.9488C45.4196 28.5489 45.4948 28.2087 45.6452 27.9282C45.7956 27.6477 45.9997 27.434 46.2575 27.2872C46.5153 27.1392 46.8054 27.0652 47.1277 27.0652C47.3401 27.0652 47.5371 27.095 47.7185 27.1547C47.9012 27.2144 48.0629 27.3015 48.2037 27.4161C48.3446 27.5295 48.4592 27.6686 48.5475 27.8333C48.637 27.998 48.6943 28.1866 48.7194 28.3991ZM49.1357 27.7545V27.1153H52.1473V27.7545H51.0246V30.7822H50.2583V27.7545H49.1357ZM53.4185 27.1153V30.7822H52.6432V27.1153H53.4185ZM57.426 28.9488C57.426 29.3487 57.3502 29.6888 57.1986 29.9694C57.0482 30.2499 56.8429 30.4641 56.5827 30.6121C56.3237 30.759 56.0324 30.8324 55.709 30.8324C55.3831 30.8324 55.0906 30.7584 54.8316 30.6103C54.5726 30.4623 54.3679 30.2481 54.2175 29.9676C54.0671 29.6871 53.9919 29.3475 53.9919 28.9488C53.9919 28.5489 54.0671 28.2087 54.2175 27.9282C54.3679 27.6477 54.5726 27.434 54.8316 27.2872C55.0906 27.1392 55.3831 27.0652 55.709 27.0652C56.0324 27.0652 56.3237 27.1392 56.5827 27.2872C56.8429 27.434 57.0482 27.6477 57.1986 27.9282C57.3502 28.2087 57.426 28.5489 57.426 28.9488ZM56.64 28.9488C56.64 28.6898 56.6012 28.4713 56.5236 28.2935C56.4472 28.1156 56.3392 27.9807 56.1995 27.8888C56.0599 27.7969 55.8964 27.751 55.709 27.751C55.5216 27.751 55.358 27.7969 55.2184 27.8888C55.0787 27.9807 54.9701 28.1156 54.8925 28.2935C54.8161 28.4713 54.7779 28.6898 54.7779 28.9488C54.7779 29.2078 54.8161 29.4262 54.8925 29.6041C54.9701 29.7819 55.0787 29.9168 55.2184 30.0087C55.358 30.1007 55.5216 30.1466 55.709 30.1466C55.8964 30.1466 56.0599 30.1007 56.1995 30.0087C56.3392 29.9168 56.4472 29.7819 56.5236 29.6041C56.6012 29.4262 56.64 29.2078 56.64 28.9488ZM61.0674 27.1153V30.7822H60.3978L58.8024 28.4743H58.7756V30.7822H58.0003V27.1153H58.6807L60.2635 29.4215H60.2957V27.1153H61.0674Z" fill="#405C77"/>
</g>
<defs>
<clipPath id="clip0_1395_81343">
<rect width="60" height="27.5" fill="white" transform="translate(0 3.5)"/>
</clipPath>
</defs>
</svg>
