<svg width="60" height="19" viewBox="0 0 60 19" fill="none" xmlns="http://www.w3.org/2000/svg">
<g clip-path="url(#clip0_1395_82440)">
<path d="M0.753446 6.83594L0.514548 8.35202H2.93109C1.0291 10.0702 0 12.7441 0 14.4715C0 15.7486 0.404288 16.741 1.22205 17.4209C1.87443 17.9722 2.77489 18.2754 3.89587 18.349L4.00613 18.3581V17.8252L3.92343 17.8068C2.90352 17.5771 1.20368 16.8972 1.1853 14.8298C1.17611 13.2862 2.7657 10.401 4.60337 9.18816L4.11639 11.9906H5.66922L6.54211 6.84513L0.753446 6.83594Z" fill="#0096FF"/>
<path d="M2.26034 0C1.46095 0 0.808581 0.652374 0.799393 1.44257L0.744263 5.50383L1.5804 5.51302H2.40736L2.4533 1.66309H9.28944L9.33538 12.0919H7.14855L6.86371 13.755H9.53753C10.3369 13.755 10.9985 13.0291 11.0077 12.2297L10.9801 0H2.26034Z" fill="#0096FF"/>
<path d="M25.4793 10.7499C25.4793 11.2737 25.3139 11.678 24.9832 11.9628C24.6432 12.2568 24.2573 12.4039 23.7795 12.4039C23.412 12.4039 23.1087 12.3212 22.879 12.1466C22.6493 11.972 22.4747 11.7423 22.3737 11.4575C22.2634 11.1634 22.2083 10.8326 22.2083 10.4743V6.24765H20.5176V10.8694C20.5176 11.8158 20.7657 12.5692 21.2619 13.1022C21.7581 13.6443 22.4104 13.9199 23.2006 13.9199C23.7979 13.9199 24.3124 13.7821 24.7443 13.5065C25.0291 13.3227 25.2772 13.1114 25.4702 12.8908V13.7821H27.1608V6.24765H25.4702V10.7499H25.4793ZM32.1317 6.09145C31.6539 6.09145 31.1945 6.24765 30.7626 6.54168C30.4778 6.73463 30.2389 6.97353 30.0551 7.24918V6.24765H28.3461V13.7821H30.0551V9.63816C30.0551 9.27981 30.147 8.96741 30.3124 8.71013C30.487 8.45286 30.7075 8.24152 30.974 8.1037C31.3691 7.89237 31.8009 7.84643 32.1777 7.93831C32.3063 7.96587 32.4074 8.00263 32.4901 8.04857L32.6371 8.12208L33.0781 6.30278L32.9862 6.25684C32.7749 6.13739 32.4992 6.09145 32.1317 6.09145ZM39.5008 6.51411C39.1149 6.22927 38.5819 6.08226 37.902 6.08226C37.3599 6.08226 36.8637 6.22009 36.4227 6.49574C36.1195 6.6795 35.8622 6.89084 35.66 7.12054V6.22927H33.9694V13.7637H35.6509V9.23387C35.6509 8.94903 35.7244 8.68257 35.8806 8.44367C36.0368 8.20477 36.2481 8.01182 36.5146 7.8648C36.781 7.71779 37.0842 7.64428 37.4426 7.64428C37.8101 7.61672 38.0858 7.67185 38.2879 7.81886C38.4901 7.95669 38.6279 8.14964 38.7106 8.40692C38.8025 8.67338 38.8392 8.96741 38.8392 9.30738V13.7729H40.5207V9.21549C40.5207 8.655 40.4472 8.13126 40.3002 7.66266C40.1532 7.18486 39.8867 6.79895 39.5008 6.51411ZM41.6968 6.24765H43.3875V13.7821H41.6968V6.24765ZM50.5636 6.24765H52.2542V13.7821H50.5636V6.24765ZM59.7795 7.66266C59.6325 7.18486 59.3568 6.79895 58.9801 6.51411C58.5942 6.22927 58.0613 6.08226 57.3813 6.08226C56.8392 6.08226 56.343 6.22009 55.902 6.49574C55.5988 6.6795 55.3415 6.89084 55.1394 7.12054V6.22927H53.4487V13.7637H55.1302V9.23387C55.1302 8.94903 55.2037 8.68257 55.3599 8.44367C55.5161 8.20477 55.7274 8.01182 55.9939 7.8648C56.2604 7.71779 56.5636 7.64428 56.9219 7.64428C57.2803 7.61672 57.5651 7.67185 57.7672 7.81886C57.9694 7.95669 58.1072 8.14964 58.1899 8.40692C58.2818 8.67338 58.3185 8.96741 58.3185 9.30738V13.7729H60V9.21549C60 8.64581 59.9265 8.13126 59.7795 7.66266ZM17.7703 4.3916H16.0796V6.24765H14.5728V7.90156H16.0796V11.7882L16.0888 11.779C16.1715 13.2216 16.8239 13.7821 18.3492 13.7821C18.8453 13.7821 19.121 13.7545 19.1302 13.7545L19.2496 13.7454V12.1925L19.1026 12.2017C19.1026 12.2017 18.781 12.2293 18.6432 12.2293C17.9173 12.2293 17.7703 12.0639 17.7703 11.2369V7.89237H19.461V6.23846H17.7703V4.3916ZM47.6325 4.3916H45.9418V6.24765H44.4349V7.90156H45.9418V11.7882L45.951 11.779C46.0337 13.2216 46.6861 13.7821 48.2113 13.7821C48.7075 13.7821 48.9832 13.7545 48.9924 13.7545L49.1118 13.7454V12.1925L48.9648 12.2017C48.9648 12.2017 48.6432 12.2293 48.5054 12.2293C47.7795 12.2293 47.6325 12.0639 47.6325 11.2369V7.89237H49.3231V6.23846H47.6325V4.3916Z" fill="#003C46"/>
<path d="M42.5422 4.98913C43.0192 4.98913 43.4059 4.60244 43.4059 4.12542C43.4059 3.64841 43.0192 3.26172 42.5422 3.26172C42.0652 3.26172 41.6785 3.64841 41.6785 4.12542C41.6785 4.60244 42.0652 4.98913 42.5422 4.98913Z" fill="#003C46"/>
<path d="M51.4089 4.98913C51.8859 4.98913 52.2726 4.60244 52.2726 4.12542C52.2726 3.64841 51.8859 3.26172 51.4089 3.26172C50.9319 3.26172 50.5452 3.64841 50.5452 4.12542C50.5452 4.60244 50.9319 4.98913 51.4089 4.98913Z" fill="#003C46"/>
</g>
<defs>
<clipPath id="clip0_1395_82440">
<rect width="60" height="18.3767" fill="white"/>
</clipPath>
</defs>
</svg>
