<svg width="60" height="12" viewBox="0 0 60 12" fill="none" xmlns="http://www.w3.org/2000/svg">
<g clip-path="url(#clip0_1395_82724)">
<path d="M4.73934 0V7.18883C4.73934 7.34958 4.67548 7.50376 4.5618 7.61743C4.44813 7.7311 4.29396 7.79496 4.1332 7.79496C3.97244 7.79496 3.81827 7.7311 3.7046 7.61743C3.59092 7.50376 3.52706 7.34958 3.52706 7.18883V0.0548765L2.31479 1.26216V7.18883C2.31479 7.67044 2.50611 8.13232 2.84666 8.47287C3.18721 8.81342 3.6491 9.00474 4.13071 9.00474C4.61232 9.00474 5.0742 8.81342 5.41475 8.47287C5.7553 8.13232 5.94662 7.67044 5.94662 7.18883V1.21227L4.73934 0ZM8.37117 3.63183V7.16388C8.3337 8.24896 7.87631 9.27708 7.09545 10.0314C6.3146 10.7858 5.27131 11.2074 4.18558 11.2074C3.09986 11.2074 2.05657 10.7858 1.27571 10.0314C0.494854 9.27708 0.0374666 8.24896 0 7.16388L0 3.58194L1.21227 2.36967V7.16388C1.21227 7.95245 1.52553 8.70873 2.08313 9.26633C2.64074 9.82393 3.39701 10.1372 4.18558 10.1372C4.97415 10.1372 5.73043 9.82393 6.28803 9.26633C6.84563 8.70873 7.15889 7.95245 7.15889 7.16388V2.41956L8.37117 3.63183Z" fill="url(#paint0_linear_1395_82724)"/>
<path d="M13.6144 8.37119C13.4497 8.27141 13.315 8.1417 13.2103 7.97208C13.1008 7.79397 13.0231 7.59814 12.9808 7.39338C12.9359 7.17388 12.9109 6.94938 12.9109 6.70992V3.52708H11.4742V6.70992C11.4742 7.119 11.5241 7.50813 11.6288 7.88229C11.7286 8.25644 11.8883 8.5857 12.1078 8.87006C12.3373 9.15972 12.631 9.392 12.9658 9.54854C13.315 9.71815 13.7391 9.80296 14.233 9.80296C14.7119 9.80296 15.126 9.72314 15.4752 9.55851C15.8084 9.40856 16.1022 9.18311 16.3333 8.9C16.5577 8.62062 16.7224 8.29136 16.8321 7.91721C16.9419 7.54305 16.9968 7.13896 16.9968 6.70992V3.52708H15.56V6.70992C15.56 6.93442 15.535 7.15891 15.4901 7.37842C15.4542 7.58503 15.3798 7.78304 15.2706 7.96211C15.1628 8.13891 15.0098 8.28385 14.8275 8.38204C14.6451 8.48022 14.44 8.52813 14.233 8.52085C13.9885 8.52085 13.784 8.47096 13.6144 8.37119ZM22.8985 9.74809H24.0509V3.52708H22.6141V7.17887L19.7156 3.52708H18.5932V9.74809H20.0299V6.19109L22.8985 9.74809ZM27.1689 9.74809V3.52708H25.7321V9.74809H27.1689ZM28.7104 7.75757C28.8601 8.14669 29.0696 8.49092 29.344 8.79523C29.6166 9.1003 29.9473 9.34792 30.3168 9.52359C30.6909 9.70818 31.105 9.80296 31.554 9.80296C31.8134 9.80296 32.0728 9.76804 32.3422 9.70319C32.6116 9.63833 32.8661 9.54854 33.1055 9.42382C33.3397 9.30742 33.5536 9.15414 33.7391 8.96984C33.9184 8.79538 34.0609 8.58672 34.1581 8.35622L32.9858 7.66278C32.8738 7.95116 32.6587 8.18763 32.3821 8.32629C32.2574 8.39114 32.1277 8.44103 31.988 8.47595C31.857 8.50539 31.7232 8.52044 31.5889 8.52085C31.3395 8.52085 31.115 8.47096 30.9105 8.3662C30.7109 8.26642 30.5363 8.12673 30.3916 7.95213C30.1034 7.57581 29.9489 7.11409 29.9526 6.64008C29.9526 6.4106 29.9825 6.1861 30.0474 5.96161C30.1122 5.7421 30.212 5.54255 30.3467 5.36794C30.4891 5.17796 30.6747 5.02459 30.8881 4.9205C31.1015 4.81641 31.3366 4.76458 31.574 4.76929C31.8474 4.76455 32.1178 4.82618 32.3622 4.94889C32.642 5.09413 32.8625 5.33225 32.9858 5.62237L34.0883 4.84911C33.8705 4.43727 33.5377 4.09757 33.1305 3.87131C32.6669 3.60966 32.141 3.47863 31.6089 3.49216C31.115 3.49216 30.681 3.58196 30.2918 3.76156C29.5591 4.10094 28.9881 4.7132 28.7004 5.46772C28.5617 5.8241 28.489 6.20278 28.4859 6.5852C28.4859 6.98431 28.5607 7.37343 28.7104 7.75757ZM39.2816 3.52708V5.93666H36.8022V3.52708H35.3654V9.74809H36.8022V7.19882H39.2816V9.74809H40.7184V3.52708H39.2816ZM43.8314 8.48593V7.1639H46.2859V5.99653H43.8314V4.78924H46.6899V3.52708H42.3946V9.74809H46.7698V8.48593H43.8314ZM47.8623 7.75757C48.012 8.14669 48.2215 8.49092 48.4959 8.79523C48.7685 9.1003 49.0992 9.34792 49.4687 9.52359C49.8429 9.70818 50.2569 9.80296 50.7059 9.80296C50.9653 9.80296 51.2247 9.76804 51.4941 9.70319C51.7635 9.63833 52.018 9.54854 52.2574 9.42382C52.4916 9.30742 52.7055 9.15414 52.891 8.96984C53.0703 8.79538 53.2128 8.58672 53.3101 8.35622L52.1377 7.66278C52.0257 7.95116 51.8106 8.18763 51.534 8.32629C51.4093 8.39114 51.2796 8.44103 51.1399 8.47595C51.0089 8.50539 50.8751 8.52044 50.7408 8.52085C50.5122 8.52104 50.2865 8.47006 50.0802 8.37165C49.8739 8.27324 49.6922 8.12989 49.5485 7.95213C49.2585 7.57645 49.1022 7.11468 49.1045 6.64008C49.1045 6.4106 49.1344 6.1861 49.1993 5.96161C49.2642 5.7421 49.3639 5.54255 49.4986 5.36794C49.641 5.17796 49.8266 5.02459 50.04 4.9205C50.2534 4.81641 50.4885 4.76458 50.7259 4.76929C50.9993 4.76455 51.2697 4.82618 51.5141 4.94889C51.6438 5.01873 51.7585 5.10354 51.8683 5.21329C51.9781 5.32304 52.0678 5.45774 52.1377 5.62237L53.2402 4.84911C53.0224 4.43727 52.6896 4.09757 52.2824 3.87131C51.8188 3.60966 51.2929 3.47863 50.7608 3.49216C50.2669 3.49216 49.8329 3.58196 49.4438 3.76156C48.9044 4.00989 48.4478 4.40814 48.1284 4.90879C47.8091 5.40945 47.6405 5.99139 47.6428 6.5852C47.6428 6.98431 47.7127 7.37343 47.8623 7.75757ZM54.5173 9.74809V3.52708H55.9541V6.21105L58.229 3.52708H59.8404L57.5106 6.30583L60 9.74809H58.3637L56.6026 7.24372L55.9541 7.91721V9.74809H54.5173Z" fill="black"/>
</g>
<defs>
<linearGradient id="paint0_linear_1395_82724" x1="4.24046" y1="0.543777" x2="4.24046" y2="11.2547" gradientUnits="userSpaceOnUse">
<stop stop-color="#1FB1FF"/>
<stop offset="1" stop-color="#3082ED"/>
</linearGradient>
<clipPath id="clip0_1395_82724">
<rect width="60" height="11.2075" fill="white"/>
</clipPath>
</defs>
</svg>
