<svg width="129" height="112" viewBox="0 0 129 112" fill="none" xmlns="http://www.w3.org/2000/svg">
<g clip-path="url(#clip0_1054_6384)">
<path d="M68.0941 83.2756H28.8377C28.3465 83.2751 27.8756 83.0806 27.5283 82.7346C27.181 82.3887 26.9857 81.9196 26.9852 81.4303V19.3375C26.9861 18.8485 27.1816 18.3799 27.5289 18.0343C27.8761 17.6887 28.3468 17.4943 28.8377 17.4939H68.0941C68.5849 17.4943 69.0554 17.6887 69.4024 18.0344C69.7494 18.38 69.9446 18.8487 69.945 19.3375V81.4303C69.945 81.9194 69.7501 82.3885 69.403 82.7345C69.0559 83.0805 68.5852 83.2751 68.0941 83.2756ZM28.8377 18.5855C28.6375 18.5855 28.4454 18.6647 28.3038 18.8057C28.1623 18.9468 28.0827 19.1381 28.0827 19.3375V81.4303C28.0827 81.6298 28.1623 81.8211 28.3038 81.9621C28.4454 82.1032 28.6375 82.1824 28.8377 82.1824H68.0941C68.2944 82.1824 68.4864 82.1032 68.628 81.9621C68.7696 81.8211 68.8492 81.6298 68.8492 81.4303V19.3375C68.8487 19.1382 68.769 18.9471 68.6275 18.8062C68.486 18.6653 68.2942 18.5859 68.0941 18.5855H28.8377Z" fill="white"/>
<path d="M84.0295 59.8886V107.028C84.0293 107.681 83.9 108.328 83.6488 108.931C83.3977 109.535 83.0297 110.083 82.5659 110.544C82.1021 111.006 81.5515 111.372 80.9456 111.622C80.3397 111.872 79.6904 112 79.0346 112H4.9998C4.34366 112.001 3.69379 111.873 3.08733 111.623C2.48087 111.374 1.92972 111.008 1.46538 110.546C1.00104 110.084 0.632621 109.536 0.381182 108.932C0.129743 108.329 0.000213724 107.682 0 107.028L0 59.8886H84.0295Z" fill="#F70431"/>
<path d="M49.2462 76.5168H34.7817V111.998H49.2462V76.5168Z" fill="white"/>
<g style="mix-blend-mode:multiply" opacity="0.2">
<path d="M34.7817 76.5168L44.2872 91.5677L49.2462 85.1971L55.5604 88.462L50.6829 80.0221L34.7817 76.5168Z" fill="#003889"/>
</g>
<path d="M34.7817 76.5168L44.8449 87.8562L48.2841 80.7384C48.2841 80.7384 56.2746 86.2123 56.2746 85.9443C56.2746 85.6763 49.2413 76.5233 49.2413 76.5233L34.7817 76.5168Z" fill="white"/>
<g style="mix-blend-mode:multiply" opacity="0.2">
<path d="M107.597 55.2268L107.357 55.092C107.609 54.7616 107.748 54.3597 107.755 53.9449C107.762 53.53 107.636 53.1239 107.395 52.7855L102.747 46.5562C102.495 46.2313 102.142 45.9979 101.744 45.8917C101.346 45.7855 100.924 45.8123 100.542 45.9682C100.523 45.8789 100.501 45.7895 100.48 45.7002C98.2282 36.0128 93.3458 19.7225 86.6909 23.7557C77.4039 29.3855 78.1573 39.7958 78.1654 39.8998L67.675 25.8267C66.4797 24.2235 64.1298 23.9847 62.4306 25.289L44.0491 39.3865L66.8172 69.8928L75.4747 81.4937L98.2413 112L116.613 97.9107C118.314 96.6112 118.725 94.2494 117.529 92.6479L107.031 78.578C107.116 78.6105 116.799 82.1856 124.674 74.6537C130.311 69.2561 116.181 60.0657 107.597 55.2268Z" fill="#003889"/>
</g>
<path d="M98.2429 112L73.2928 81.4937L63.8053 69.8928L38.8552 39.3865L56.2192 25.2955C56.9896 24.6695 57.978 24.3738 58.9672 24.4734C59.9565 24.573 60.8655 25.0597 61.4946 25.8267L84.0752 53.4401L93.5644 65.0393L116.145 92.6527C116.457 93.0333 116.691 93.4715 116.833 93.9422C116.974 94.4129 117.021 94.9068 116.971 95.3957C116.921 95.8846 116.775 96.3588 116.54 96.7912C116.306 97.2236 115.988 97.6057 115.605 97.9155L98.2429 112Z" fill="#F70431"/>
<path d="M73.2912 81.4937L63.8021 69.8928L84.0752 53.4401L93.5644 65.0393L73.2912 81.4937Z" fill="white"/>
<path d="M104.635 78.578L94.0356 65.6225L88.8173 59.2389L83.599 52.8569L72.9993 39.9046C72.9993 39.9046 71.4387 29.4148 80.3669 23.7573C86.7267 19.7241 92.7816 36.0144 95.7283 45.7018C96.7068 48.8887 97.3362 51.3642 97.5368 52.1617C98.2804 52.5191 100.586 53.6382 103.528 55.2301C112.458 60.0657 127.247 69.2561 121.996 74.6537C114.64 82.2197 104.635 78.578 104.635 78.578Z" fill="#C9DAF4"/>
<path d="M94.0422 65.6225L83.6055 52.8553L95.5212 45.8058C95.5886 45.7672 95.6589 45.7341 95.7316 45.7067C96.71 48.8936 97.3395 51.3691 97.5401 52.1666C98.2837 52.524 100.59 53.6431 103.531 55.2349C103.489 55.301 103.441 55.3635 103.388 55.4217L94.0422 65.6225Z" fill="#C9DAF4"/>
<path d="M98.0572 46.5593L103.152 52.7878C103.482 53.1919 103.638 53.7103 103.585 54.2289C103.532 54.7474 103.274 55.2237 102.868 55.553L92.6087 63.8786L85.0248 54.6064L95.2843 46.2808C95.69 45.9515 96.2104 45.7963 96.731 45.8493C97.2516 45.9022 97.7298 46.159 98.0603 46.5631L98.0572 46.5593Z" fill="white"/>
<g style="mix-blend-mode:multiply" opacity="0.2">
<path d="M93.6031 63.0758L86.0187 53.7998L85.0299 54.6019L92.6143 63.878L93.6031 63.0758Z" fill="#003889"/>
</g>
<path d="M84.0295 94.623V107.028C84.0299 107.898 83.801 108.752 83.3657 109.506C82.9305 110.26 82.3041 110.887 81.5492 111.324L51.9614 59.8886H55.6191L84.0295 94.623Z" fill="#D5062C"/>
<path d="M75.9917 18.9136C75.9452 18.9872 75.8789 19.0464 75.8004 19.0845C75.7219 19.1226 75.6343 19.138 75.5474 19.129C75.4605 19.1201 75.3779 19.0871 75.3089 19.0338C75.2398 18.9805 75.1872 18.909 75.1568 18.8275C73.9631 15.6454 70.1472 4.07705 76.3456 0.581516C83.2223 -3.29898 79.5516 13.3194 75.9917 18.9136Z" fill="#002E5D"/>
<path d="M113.206 18.1778C113.117 18.219 113.018 18.2347 112.92 18.223C112.822 18.2113 112.729 18.1727 112.652 18.1115C112.575 18.0504 112.516 17.969 112.483 17.8766C112.449 17.7841 112.443 17.6843 112.463 17.5881C113.268 13.8311 116.699 0.487305 124.75 0.912876C133.674 1.3823 120.021 15.0055 113.206 18.1778Z" fill="#002E5D"/>
<path d="M117.516 42.5685C117.459 42.5689 117.403 42.5536 117.354 42.5244C117.305 42.4952 117.266 42.4531 117.239 42.4028C117.212 42.3526 117.2 42.296 117.204 42.2393C117.207 42.1826 117.226 42.1279 117.259 42.0812C118.591 40.262 123.628 33.9336 127.834 36.0712C132.503 38.446 121.923 42.4905 117.516 42.5685Z" fill="#002E5D"/>
<path d="M40.2642 21.0739C41.9466 21.0739 43.3104 19.7154 43.3104 18.0397C43.3104 16.3639 41.9466 15.0055 40.2642 15.0055C38.5818 15.0055 37.218 16.3639 37.218 18.0397C37.218 19.7154 38.5818 21.0739 40.2642 21.0739Z" fill="white"/>
</g>
<defs>
<clipPath id="clip0_1054_6384">
<rect width="129" height="112" fill="white"/>
</clipPath>
</defs>
</svg>
