<svg width="731" height="535" viewBox="0 0 731 535" fill="none" xmlns="http://www.w3.org/2000/svg">
<g clip-path="url(#clip0_1587_665)">
<path d="M450.631 519.029H417.514L461.911 110.684H495.034L450.631 519.029Z" fill="#325D9C"/>
<path d="M609.523 397.967H284.951L311.313 155.509H635.885L609.523 397.967Z" fill="white"/>
<g clip-path="url(#clip1_1587_665)">
<path d="M463.933 323.657H404.592C403.85 323.657 403.138 323.363 402.613 322.841C402.088 322.319 401.793 321.611 401.792 320.873V227.179C401.793 226.442 402.089 225.734 402.614 225.213C403.139 224.691 403.85 224.398 404.592 224.397H463.933C464.675 224.398 465.386 224.691 465.911 225.213C466.436 225.735 466.731 226.442 466.731 227.179V320.873C466.731 321.611 466.436 322.319 465.912 322.841C465.387 323.363 464.676 323.657 463.933 323.657ZM404.592 226.045C404.29 226.045 403.999 226.164 403.785 226.377C403.571 226.59 403.451 226.878 403.451 227.179V320.873C403.451 321.174 403.571 321.463 403.785 321.675C403.999 321.888 404.29 322.008 404.592 322.008H463.933C464.236 322.008 464.526 321.888 464.74 321.675C464.954 321.463 465.075 321.174 465.075 320.873V227.179C465.074 226.879 464.954 226.59 464.74 226.378C464.526 226.165 464.236 226.045 463.933 226.045H404.592Z" fill="white"/>
<path d="M488.021 288.368V359.498C488.021 360.484 487.826 361.459 487.446 362.37C487.066 363.28 486.51 364.107 485.809 364.804C485.108 365.501 484.276 366.053 483.36 366.43C482.444 366.807 481.462 367.001 480.471 367.001H368.558C367.566 367.002 366.584 366.809 365.667 366.432C364.75 366.056 363.917 365.503 363.215 364.807C362.513 364.11 361.956 363.282 361.576 362.372C361.196 361.461 361 360.484 361 359.498V288.368H488.021Z" fill="#F70431"/>
<path d="M435.442 313.459H413.577V366.998H435.442V313.459Z" fill="white"/>
<g style="mix-blend-mode:multiply" opacity="0.2">
<path d="M413.577 313.459L427.946 336.17L435.442 326.557L444.987 331.483L437.614 318.748L413.577 313.459Z" fill="#003889"/>
</g>
<path d="M413.577 313.459L428.789 330.569L433.988 319.829C433.988 319.829 446.066 328.089 446.066 327.684C446.066 327.28 435.435 313.469 435.435 313.469L413.577 313.459Z" fill="white"/>
<g style="mix-blend-mode:multiply" opacity="0.2">
<path d="M523.646 281.333L523.284 281.13C523.665 280.631 523.876 280.025 523.886 279.399C523.896 278.773 523.705 278.16 523.341 277.649L516.315 268.25C515.934 267.76 515.402 267.407 514.799 267.247C514.197 267.087 513.559 267.127 512.983 267.363C512.953 267.228 512.921 267.093 512.889 266.958C509.485 252.341 502.104 227.76 492.044 233.846C478.006 242.341 479.145 258.049 479.157 258.206L463.3 236.971C461.493 234.551 457.941 234.191 455.372 236.159L427.586 257.431L462.003 303.463L475.09 320.968L509.504 367L537.276 345.74C539.847 343.779 540.468 340.216 538.661 337.799L522.791 316.569C522.919 316.618 537.557 322.012 549.46 310.647C557.982 302.502 536.622 288.635 523.646 281.333Z" fill="#003889"/>
</g>
<path d="M509.506 367L471.791 320.969L457.45 303.464L419.734 257.432L445.982 236.17C447.147 235.225 448.641 234.779 450.136 234.929C451.632 235.079 453.006 235.814 453.957 236.971L488.09 278.638L502.434 296.14L536.568 337.807C537.039 338.381 537.393 339.042 537.607 339.753C537.821 340.463 537.893 341.208 537.817 341.946C537.741 342.683 537.52 343.399 537.165 344.051C536.811 344.704 536.331 345.28 535.752 345.748L509.506 367Z" fill="#F70431"/>
<path d="M471.789 320.969L457.445 303.464L488.091 278.638L502.435 296.14L471.789 320.969Z" fill="white"/>
<path d="M519.17 316.569L503.147 297.02L495.259 287.388L487.371 277.758L471.348 258.214C471.348 258.214 468.989 242.385 482.485 233.848C492.099 227.763 501.251 252.344 505.706 266.961C507.185 271.77 508.136 275.505 508.439 276.709C509.563 277.248 513.049 278.937 517.496 281.339C530.994 288.635 553.35 302.503 545.413 310.647C534.293 322.064 519.17 316.569 519.17 316.569Z" fill="#C9DAF4"/>
<path d="M503.157 297.02L487.381 277.756L505.393 267.118C505.495 267.06 505.601 267.01 505.711 266.969C507.19 271.778 508.141 275.513 508.445 276.716C509.569 277.256 513.054 278.944 517.501 281.346C517.437 281.446 517.364 281.54 517.284 281.628L503.157 297.02Z" fill="#C9DAF4"/>
<path d="M509.226 268.254L516.927 277.653C517.426 278.263 517.662 279.045 517.582 279.827C517.501 280.61 517.112 281.328 516.498 281.825L500.99 294.388L489.526 280.397L505.034 267.834C505.648 267.337 506.434 267.103 507.221 267.183C508.008 267.263 508.731 267.65 509.231 268.26L509.226 268.254Z" fill="white"/>
<g style="mix-blend-mode:multiply" opacity="0.2">
<path d="M502.493 293.178L491.028 279.181L489.534 280.391L500.998 294.388L502.493 293.178Z" fill="#003889"/>
</g>
<path d="M488.021 340.78V359.498C488.022 360.81 487.676 362.1 487.018 363.238C486.36 364.375 485.413 365.321 484.272 365.981L439.546 288.368H445.075L488.021 340.78Z" fill="#D5062C"/>
<path d="M475.871 226.54C475.801 226.651 475.701 226.74 475.582 226.797C475.464 226.855 475.331 226.878 475.2 226.865C475.068 226.851 474.944 226.801 474.839 226.721C474.735 226.641 474.655 226.533 474.609 226.41C472.805 221.608 467.037 204.152 476.406 198.878C486.801 193.022 481.253 218.098 475.871 226.54Z" fill="#002E5D"/>
<path d="M532.126 225.429C531.99 225.491 531.84 225.515 531.692 225.497C531.544 225.479 531.404 225.421 531.287 225.329C531.171 225.237 531.082 225.114 531.032 224.974C530.981 224.835 530.971 224.684 531.002 224.539C532.219 218.87 537.406 198.735 549.576 199.377C563.064 200.086 542.427 220.642 532.126 225.429Z" fill="#002E5D"/>
<path d="M538.641 262.233C538.554 262.233 538.47 262.21 538.396 262.166C538.322 262.122 538.261 262.059 538.221 261.983C538.181 261.907 538.163 261.822 538.168 261.736C538.173 261.65 538.202 261.568 538.251 261.497C540.265 258.752 547.88 249.203 554.237 252.429C561.294 256.012 545.301 262.115 538.641 262.233Z" fill="#002E5D"/>
<path d="M421.864 229.799C424.408 229.799 426.469 227.75 426.469 225.221C426.469 222.692 424.408 220.643 421.864 220.643C419.321 220.643 417.26 222.692 417.26 225.221C417.26 227.75 419.321 229.799 421.864 229.799Z" fill="white"/>
</g>
<path d="M648.219 170.532H295.713L299.458 136.046H651.97L648.219 170.532Z" fill="#DAE3FE"/>
<path d="M622.185 409.949H269.68L271.591 392.391H624.097L622.185 409.949Z" fill="#DAE3FE"/>
<g style="mix-blend-mode:multiply" opacity="0.2">
<path d="M309.674 170.532L308.76 178.988L630.5 205.024L634.251 170.532H309.674Z" fill="#F70431"/>
</g>
<g style="mix-blend-mode:multiply" opacity="0.25">
<path d="M429.374 409.949L428.499 417.982L460.791 425.591L462.491 409.949H429.374Z" fill="#F70431"/>
</g>
<path d="M622.185 410.506H501.242C501.095 410.506 500.953 410.447 500.848 410.343C500.744 410.238 500.685 410.097 500.685 409.949C500.685 409.801 500.744 409.66 500.848 409.555C500.953 409.451 501.095 409.392 501.242 409.392H621.695L623.484 392.948H403.106C402.958 392.948 402.817 392.889 402.712 392.785C402.608 392.68 402.549 392.539 402.549 392.391C402.549 392.243 402.608 392.102 402.712 391.997C402.817 391.893 402.958 391.834 403.106 391.834H624.097C624.174 391.834 624.251 391.851 624.322 391.882C624.393 391.914 624.457 391.96 624.509 392.018C624.562 392.076 624.601 392.145 624.625 392.22C624.649 392.295 624.657 392.374 624.648 392.452L622.742 410.01C622.727 410.147 622.662 410.274 622.559 410.365C622.456 410.457 622.323 410.507 622.185 410.506Z" fill="#002E5D"/>
<path d="M651.034 144.669L343.455 170.532H648.219L651.034 144.669Z" fill="#325D9C"/>
<path d="M501.789 117.535H453.78C453.702 117.535 453.625 117.519 453.554 117.487C453.483 117.455 453.42 117.409 453.367 117.351C453.315 117.293 453.275 117.224 453.251 117.149C453.227 117.074 453.219 116.995 453.228 116.917L454.599 104.294C454.613 104.156 454.678 104.029 454.781 103.936C454.884 103.843 455.018 103.792 455.156 103.793H503.16C503.239 103.793 503.317 103.81 503.389 103.843C503.462 103.875 503.526 103.923 503.578 103.982C503.63 104.04 503.669 104.108 503.693 104.182C503.717 104.256 503.725 104.334 503.717 104.411L502.341 117.039C502.326 117.175 502.261 117.301 502.159 117.392C502.058 117.484 501.926 117.535 501.789 117.535ZM454.415 116.421H501.299L502.553 104.913H455.658L454.415 116.421Z" fill="#002E5D"/>
<path d="M558.749 171.095H295.713C295.634 171.096 295.557 171.079 295.485 171.048C295.413 171.016 295.348 170.969 295.296 170.911C295.243 170.853 295.203 170.784 295.179 170.709C295.155 170.634 295.147 170.555 295.156 170.477L298.907 135.985C298.92 135.847 298.985 135.719 299.088 135.626C299.191 135.534 299.325 135.483 299.464 135.483H475.717C475.865 135.483 476.006 135.542 476.111 135.647C476.215 135.751 476.274 135.893 476.274 136.04C476.274 136.188 476.215 136.33 476.111 136.434C476.006 136.539 475.865 136.597 475.717 136.597H299.96L296.332 169.97H558.749C558.897 169.97 559.039 170.029 559.143 170.133C559.248 170.237 559.307 170.379 559.307 170.527C559.307 170.675 559.248 170.816 559.143 170.921C559.039 171.025 558.897 171.084 558.749 171.084V171.095Z" fill="#002E5D"/>
<path d="M653.118 365.046C652.092 360.088 642.841 315.297 642.841 315.297L630.022 308.885L637.696 272.633C638.185 270.328 638.208 267.948 637.764 265.634C637.319 263.32 636.417 261.118 635.11 259.157C633.803 257.196 632.117 255.516 630.151 254.215C628.185 252.914 625.979 252.019 623.663 251.582L601.029 247.365L600.795 260.322L602.222 260.634L602.935 279.752L609.456 282.036L609.005 290.776L610.983 304.49L578.657 289.45L558.002 253.972V242.753L554.135 236.743L550.885 241.511L542.196 233.322L537.325 238.82L549.743 255.036L566.463 298.051L596.03 320.683L595.372 371.547L604.351 518.812L602.774 524.856L594.748 529.903V534.47L613.775 534.404L611.975 521.592L611.875 518.751L621.768 436.943L622.737 463.91L624.705 518.99H625.335L623.913 524.522L615.949 529.78L615.787 534.326H634.837L633.043 521.463L633.539 518.962L639.92 395.366L643.186 393.344L645.538 388.436L647.55 386.598L653.759 370.55C653.759 370.55 654.143 370.004 653.118 365.046ZM638.544 381.696L633.383 366.483V339.823L643.704 367.508L638.544 381.696Z" fill="white"/>
<path d="M613.53 532.276H608.486L608.135 524.521L600.455 534.442L613.982 534.582L613.53 532.276Z" fill="#002E5D"/>
<path d="M634.564 532.276H629.52L629.168 524.521L621.488 534.442L635.015 534.582L634.564 532.276Z" fill="#002E5D"/>
<path d="M621.768 436.52L624.71 518.99H630.038L625.814 405.298L621.768 436.52Z" fill="#002E5D"/>
<path d="M602.199 260.634L609.74 262.361L609.35 282.035L602.913 279.679L602.199 260.634Z" fill="#FDC8AA"/>
<path d="M633.354 328.577L636.058 321.04L649.824 366.127L645.532 384.103L641.893 380.164L640.16 377.19L643.699 367.475L633.354 338.81V328.577Z" fill="#325D9C"/>
<path d="M600.767 247.326L617.23 250.195C621.735 250.977 625.752 253.497 628.414 257.212C631.077 260.927 632.173 265.539 631.465 270.053L621.767 331.545H614.884L609.138 291.511L619.883 291.561L618.016 259.024L600.767 255.392V247.326Z" fill="#002E5D"/>
<path d="M550.606 241.238L542.007 233.534L537.319 238.882L541.126 243.984L549.742 255.03L553.633 265.024L558.142 262.155L550.606 241.238Z" fill="#FDC8AA"/>
<path d="M595.377 371.569L604.367 518.99H609.349L623.188 367.854L595.377 371.569Z" fill="#002E5D"/>
<path d="M623.189 367.853L620.558 338.185H611.841L606.959 307.481L573.926 291.299L558.158 262.199L558.142 262.154L553.633 265.023L566.429 297.9L596.063 320.761L595.372 371.485L595.378 371.569L623.189 367.853Z" fill="#325D9C"/>
<path d="M625.262 332.108H614.885C614.749 332.109 614.618 332.061 614.516 331.973C614.413 331.885 614.346 331.762 614.327 331.628L608.442 290.825C608.421 290.677 608.46 290.527 608.55 290.408C608.64 290.289 608.773 290.211 608.921 290.19C609.069 290.169 609.219 290.208 609.338 290.298C609.457 290.388 609.536 290.521 609.556 290.669L615.369 330.988H624.811L637.15 272.393C637.623 270.148 637.64 267.832 637.201 265.581C636.762 263.33 635.875 261.189 634.594 259.287C633.312 257.384 631.662 255.758 629.74 254.504C627.818 253.251 625.665 252.395 623.406 251.988L601.324 248.011V259.893L609.685 261.736C609.811 261.764 609.925 261.834 610.005 261.936C610.085 262.037 610.128 262.164 610.125 262.293L609.985 285.595C609.985 285.742 609.927 285.884 609.822 285.988C609.718 286.093 609.576 286.152 609.428 286.152C609.28 286.152 609.139 286.093 609.034 285.988C608.93 285.884 608.871 285.742 608.871 285.595L609.005 262.756L600.644 260.912C600.518 260.885 600.404 260.814 600.324 260.713C600.244 260.611 600.201 260.484 600.204 260.355V247.326C600.204 247.244 600.222 247.163 600.257 247.089C600.291 247.015 600.342 246.949 600.405 246.897C600.467 246.844 600.541 246.806 600.62 246.785C600.699 246.763 600.781 246.76 600.862 246.774L623.601 250.874C626.006 251.307 628.3 252.218 630.346 253.552C632.392 254.887 634.15 256.618 635.514 258.644C636.879 260.67 637.823 262.949 638.291 265.346C638.759 267.743 638.74 270.209 638.237 272.599L625.803 331.645C625.781 331.773 625.715 331.889 625.616 331.974C625.517 332.058 625.392 332.106 625.262 332.108Z" fill="#002E5D"/>
<path d="M609.439 282.593C609.376 282.592 609.314 282.581 609.255 282.56L602.728 280.281C602.622 280.244 602.53 280.176 602.463 280.086C602.397 279.995 602.359 279.887 602.355 279.774L601.642 260.657C601.642 260.509 601.7 260.367 601.805 260.263C601.909 260.158 602.051 260.1 602.199 260.1C602.347 260.1 602.489 260.158 602.593 260.263C602.698 260.367 602.756 260.509 602.756 260.657L603.459 279.396L609.623 281.551C609.75 281.593 609.857 281.679 609.926 281.793C609.995 281.907 610.021 282.042 609.998 282.174C609.976 282.305 609.908 282.424 609.805 282.509C609.702 282.594 609.572 282.64 609.439 282.638V282.593Z" fill="#002E5D"/>
<path d="M601.77 301.298C601.685 301.299 601.602 301.28 601.525 301.243L578.384 289.935C578.284 289.886 578.201 289.809 578.145 289.712L557.49 254.239C557.444 254.154 557.419 254.058 557.417 253.961V242.92L554.118 237.751L551.276 241.929C551.229 241.996 551.169 242.052 551.099 242.094C551.028 242.135 550.95 242.161 550.869 242.168C550.789 242.176 550.708 242.167 550.632 242.141C550.556 242.115 550.487 242.073 550.428 242.018L542.23 234.119L538.044 238.843L548.349 252.373C548.394 252.432 548.427 252.498 548.446 252.569C548.465 252.64 548.47 252.713 548.46 252.786C548.451 252.859 548.427 252.929 548.39 252.992C548.353 253.056 548.305 253.111 548.246 253.156C548.188 253.201 548.122 253.233 548.051 253.252C547.98 253.271 547.906 253.276 547.834 253.267C547.761 253.257 547.691 253.233 547.627 253.197C547.564 253.16 547.508 253.111 547.463 253.053L536.874 239.127C536.792 239.027 536.747 238.902 536.747 238.773C536.747 238.644 536.792 238.519 536.874 238.419L541.756 232.921C541.806 232.866 541.867 232.821 541.935 232.789C542.003 232.758 542.077 232.74 542.152 232.738C542.227 232.735 542.301 232.747 542.371 232.774C542.441 232.801 542.505 232.842 542.559 232.894L550.696 240.731L553.644 236.403C553.698 236.329 553.768 236.268 553.85 236.226C553.931 236.183 554.021 236.16 554.112 236.158C554.205 236.16 554.296 236.184 554.377 236.23C554.458 236.276 554.526 236.341 554.575 236.42L558.415 242.436C558.474 242.523 558.506 242.626 558.504 242.731V253.783L578.998 288.988L602.016 300.246C602.082 300.278 602.141 300.322 602.189 300.377C602.238 300.432 602.275 300.496 602.299 300.566C602.323 300.635 602.333 300.708 602.328 300.781C602.323 300.855 602.304 300.926 602.272 300.992C602.225 301.085 602.154 301.163 602.065 301.217C601.976 301.271 601.874 301.299 601.77 301.298Z" fill="#002E5D"/>
<path d="M612.048 519.548H604.368C604.225 519.548 604.088 519.494 603.985 519.396C603.881 519.299 603.819 519.166 603.81 519.024L594.815 371.547L595.606 321.029L566.145 298.48C566.063 298.42 566.001 298.336 565.967 298.24L550.094 257.17C550.067 257.101 550.054 257.028 550.056 256.954C550.058 256.88 550.074 256.807 550.104 256.74C550.134 256.673 550.177 256.612 550.231 256.561C550.285 256.511 550.348 256.471 550.417 256.445C550.486 256.42 550.558 256.407 550.632 256.409C550.705 256.412 550.777 256.428 550.844 256.458C550.91 256.488 550.971 256.531 551.021 256.584C551.071 256.638 551.11 256.7 551.136 256.769L566.959 297.694L596.498 320.316C596.567 320.369 596.622 320.437 596.66 320.516C596.698 320.594 596.717 320.68 596.715 320.767L595.929 371.547L604.891 518.456H611.579L625.29 402.73C625.308 402.583 625.383 402.448 625.501 402.356C625.618 402.264 625.766 402.222 625.914 402.24C626.062 402.258 626.197 402.334 626.289 402.451C626.381 402.568 626.422 402.716 626.405 402.864L612.599 519.052C612.584 519.188 612.52 519.313 612.418 519.405C612.316 519.496 612.184 519.547 612.048 519.548Z" fill="#002E5D"/>
<path d="M633.527 519.547H624.71C624.562 519.547 624.42 519.488 624.316 519.384C624.211 519.279 624.153 519.138 624.153 518.99L621.21 436.949C621.21 436.801 621.269 436.659 621.373 436.555C621.478 436.45 621.619 436.392 621.767 436.392C621.915 436.392 622.057 436.45 622.161 436.555C622.266 436.659 622.325 436.801 622.325 436.949L625.245 518.455H632.998L639.569 391.193C639.707 388.493 639.329 385.791 638.454 383.233L632.814 366.6C632.792 366.543 632.78 366.483 632.78 366.422V328.097C632.78 327.949 632.839 327.808 632.944 327.703C633.048 327.599 633.19 327.54 633.338 327.54C633.485 327.54 633.627 327.599 633.732 327.703C633.836 327.808 633.895 327.949 633.895 328.097V366.31L639.502 382.854C640.417 385.54 640.811 388.376 640.661 391.21L634.084 519.018C634.077 519.161 634.015 519.295 633.912 519.394C633.808 519.492 633.67 519.547 633.527 519.547Z" fill="#002E5D"/>
<path d="M595.372 372.104C595.224 372.114 595.079 372.064 594.967 371.967C594.856 371.869 594.788 371.731 594.779 371.583C594.769 371.436 594.818 371.29 594.916 371.179C595.014 371.068 595.152 371 595.3 370.99L625.741 366.979C625.815 366.97 625.889 366.975 625.96 366.994C626.032 367.013 626.098 367.046 626.157 367.091C626.215 367.136 626.264 367.192 626.301 367.256C626.338 367.32 626.362 367.391 626.371 367.464C626.381 367.537 626.376 367.611 626.357 367.683C626.337 367.754 626.304 367.821 626.259 367.879C626.214 367.937 626.158 367.986 626.094 368.023C626.03 368.06 625.96 368.084 625.886 368.093L595.445 372.104H595.372Z" fill="#002E5D"/>
<path d="M647.539 387.188C647.459 387.187 647.381 387.17 647.309 387.136C647.237 387.102 647.172 387.054 647.121 386.993L641.62 380.665C641.528 380.553 641.484 380.41 641.497 380.265C641.509 380.121 641.577 379.987 641.687 379.893C641.796 379.798 641.938 379.749 642.083 379.757C642.227 379.765 642.363 379.829 642.461 379.936L647.349 385.562L652.722 371.424C653.208 370.144 653.318 368.753 653.04 367.413L642.344 315.675L629.793 309.381C629.727 309.348 629.669 309.302 629.621 309.246C629.573 309.19 629.537 309.126 629.514 309.056C629.491 308.986 629.482 308.912 629.488 308.839C629.494 308.765 629.514 308.694 629.548 308.629C629.615 308.497 629.731 308.398 629.871 308.352C630.011 308.306 630.163 308.317 630.295 308.383L643.114 314.801C643.189 314.838 643.254 314.892 643.305 314.959C643.356 315.026 643.392 315.103 643.409 315.185L654.16 367.19C654.483 368.737 654.355 370.343 653.792 371.819L648.091 386.826C648.056 386.916 647.999 386.996 647.925 387.058C647.851 387.119 647.762 387.16 647.667 387.177L647.539 387.188Z" fill="#002E5D"/>
<path d="M640.16 377.746C640.093 377.746 640.028 377.735 639.965 377.713C639.827 377.662 639.715 377.558 639.653 377.424C639.592 377.291 639.586 377.138 639.636 377L643.108 367.53L632.831 339.333C632.781 339.193 632.788 339.039 632.851 338.905C632.914 338.771 633.028 338.667 633.168 338.617C633.308 338.567 633.462 338.574 633.596 338.637C633.73 338.7 633.834 338.814 633.884 338.954L644.223 367.363C644.273 367.484 644.273 367.621 644.223 367.742L640.684 377.423C640.638 377.523 640.564 377.606 640.471 377.664C640.377 377.721 640.269 377.75 640.16 377.746Z" fill="#002E5D"/>
<path d="M639.903 396.14C639.812 396.14 639.722 396.117 639.641 396.075C639.561 396.032 639.492 395.97 639.44 395.894C639.399 395.834 639.371 395.766 639.356 395.694C639.341 395.622 639.341 395.548 639.355 395.476C639.369 395.404 639.397 395.336 639.437 395.275C639.478 395.214 639.53 395.161 639.591 395.12L642.745 392.992L645.031 388.218C645.095 388.085 645.21 387.982 645.35 387.933C645.49 387.884 645.644 387.892 645.777 387.957C645.911 388.021 646.014 388.136 646.063 388.276C646.112 388.416 646.104 388.569 646.039 388.703L643.687 393.611C643.644 393.701 643.576 393.778 643.492 393.833L640.215 396.062C640.121 396.118 640.012 396.145 639.903 396.14Z" fill="#002E5D"/>
<path d="M553.706 265.547C553.584 265.548 553.466 265.508 553.369 265.435C553.272 265.363 553.201 265.26 553.168 265.144C553.135 265.027 553.14 264.903 553.184 264.789C553.228 264.676 553.307 264.581 553.41 264.517L558.354 261.419C558.416 261.381 558.485 261.355 558.558 261.343C558.63 261.33 558.704 261.333 558.775 261.349C558.847 261.366 558.914 261.396 558.974 261.439C559.034 261.482 559.084 261.536 559.123 261.598C559.162 261.66 559.188 261.729 559.2 261.801C559.212 261.874 559.21 261.948 559.193 262.019C559.177 262.09 559.146 262.158 559.103 262.217C559.061 262.277 559.007 262.328 558.945 262.366L553.995 265.464C553.908 265.518 553.808 265.546 553.706 265.547Z" fill="#002E5D"/>
<path d="M613.848 534.999H594.748C594.6 534.999 594.458 534.94 594.354 534.836C594.249 534.731 594.19 534.589 594.19 534.442V529.88C594.19 529.785 594.214 529.692 594.26 529.609C594.306 529.526 594.372 529.456 594.452 529.406L602.305 524.465L603.281 521.413C603.303 521.343 603.339 521.278 603.386 521.222C603.434 521.166 603.492 521.12 603.557 521.086C603.622 521.052 603.693 521.032 603.766 521.026C603.839 521.02 603.913 521.028 603.983 521.05C604.053 521.073 604.118 521.109 604.174 521.156C604.23 521.203 604.276 521.261 604.309 521.326C604.343 521.392 604.364 521.463 604.37 521.536C604.376 521.609 604.367 521.682 604.345 521.752L603.308 525C603.268 525.125 603.185 525.231 603.074 525.301L595.305 530.186V533.885H613.201L611.401 521.663C611.38 521.515 611.418 521.365 611.507 521.246C611.596 521.126 611.73 521.047 611.878 521.025C612.025 521.004 612.176 521.042 612.295 521.131C612.415 521.221 612.494 521.354 612.516 521.502L614.388 534.364C614.4 534.443 614.393 534.524 614.37 534.601C614.347 534.678 614.308 534.749 614.255 534.809C614.204 534.867 614.141 534.914 614.071 534.947C614.001 534.979 613.925 534.997 613.848 534.999Z" fill="#002E5D"/>
<path d="M634.882 534.999H615.782C615.634 534.999 615.492 534.94 615.388 534.836C615.283 534.731 615.225 534.589 615.225 534.442V529.88C615.224 529.785 615.248 529.692 615.294 529.609C615.34 529.526 615.406 529.456 615.487 529.406L623.339 524.465L624.315 521.413C624.337 521.343 624.373 521.278 624.42 521.222C624.468 521.166 624.526 521.12 624.591 521.086C624.656 521.052 624.727 521.032 624.8 521.026C624.874 521.02 624.947 521.028 625.017 521.05C625.087 521.073 625.152 521.109 625.208 521.156C625.264 521.203 625.31 521.261 625.344 521.326C625.377 521.392 625.398 521.463 625.404 521.536C625.41 521.609 625.402 521.682 625.379 521.752L624.343 525C624.302 525.125 624.22 525.231 624.109 525.301L616.339 530.186V533.885H634.252L632.474 521.663C632.453 521.515 632.491 521.365 632.58 521.246C632.67 521.126 632.803 521.047 632.951 521.025C633.099 521.004 633.249 521.042 633.369 521.131C633.488 521.221 633.568 521.354 633.589 521.502L635.456 534.364C635.467 534.443 635.461 534.524 635.438 534.601C635.415 534.678 635.375 534.749 635.322 534.809C635.268 534.872 635.2 534.921 635.124 534.954C635.047 534.987 634.965 535.002 634.882 534.999Z" fill="#002E5D"/>
<path d="M154.6 157.292C151.404 157.292 148.279 156.344 145.621 154.569C142.963 152.794 140.891 150.271 139.668 147.32C138.445 144.368 138.124 141.12 138.748 137.986C139.372 134.852 140.911 131.974 143.171 129.715C145.432 127.456 148.312 125.917 151.447 125.294C154.582 124.67 157.832 124.99 160.786 126.213C163.739 127.436 166.263 129.506 168.039 132.163C169.815 134.819 170.763 137.943 170.763 141.138C170.763 145.422 169.06 149.531 166.029 152.56C162.998 155.59 158.887 157.292 154.6 157.292ZM154.6 128.576C152.112 128.58 149.68 129.32 147.613 130.705C145.545 132.089 143.935 134.055 142.985 136.354C142.035 138.653 141.789 141.182 142.277 143.62C142.765 146.059 143.965 148.299 145.726 150.056C147.487 151.813 149.73 153.009 152.171 153.493C154.613 153.976 157.142 153.725 159.441 152.772C161.739 151.818 163.703 150.205 165.085 148.137C166.466 146.068 167.203 143.636 167.202 141.149C167.197 137.812 165.868 134.613 163.505 132.256C161.142 129.898 157.939 128.575 154.6 128.576Z" fill="#DAE3FE"/>
<path d="M363.925 98.3955L354.272 73.2617L338.778 88.7475L363.925 98.3955Z" fill="#DCE5FE"/>
<path d="M16.1628 344.162C12.9661 344.162 9.84122 343.215 7.18325 341.44C4.52529 339.664 2.45366 337.141 1.23033 334.19C0.00700304 331.238 -0.313075 327.99 0.310572 324.856C0.934218 321.723 2.47358 318.844 4.73399 316.585C6.9944 314.326 9.87435 312.787 13.0096 312.164C16.1449 311.541 19.3947 311.861 22.3481 313.083C25.3015 314.306 27.8257 316.376 29.6017 319.033C31.3777 321.689 32.3257 324.813 32.3257 328.008C32.3257 332.292 30.6228 336.401 27.5917 339.43C24.5606 342.46 20.4495 344.162 16.1628 344.162ZM16.1628 315.441C13.6736 315.441 11.2402 316.179 9.17057 317.561C7.1009 318.943 5.48789 320.908 4.53555 323.207C3.5832 325.505 3.33431 328.035 3.82035 330.475C4.30638 332.915 5.50551 335.156 7.26607 336.915C9.02664 338.674 11.2695 339.871 13.7111 340.356C16.1527 340.841 18.6832 340.591 20.9827 339.638C23.2821 338.685 25.2472 337.072 26.6294 335.003C28.0115 332.934 28.7487 330.501 28.7476 328.013C28.7431 324.679 27.4156 321.483 25.0564 319.126C22.6971 316.769 19.4986 315.444 16.1628 315.441Z" fill="#DAE3FE"/>
</g>
<defs>
<clipPath id="clip0_1587_665">
<rect width="783" height="535" fill="white"/>
</clipPath>
<clipPath id="clip1_1587_665">
<rect width="195" height="169" fill="white" transform="translate(361 198)"/>
</clipPath>
</defs>
</svg>
