<svg width="129" height="22" fill="none" xmlns="http://www.w3.org/2000/svg"><g clip-path="url(#a)"><path d="M0 21.593h5.085l1.884-7.598h3.202v-1.6H7.387l.524-1.998-3.057-1.4-.522 1.355L0 21.592ZM7.534 9.197c1.04 0 1.883-.895 1.883-2 0-1.104-.843-1.999-1.883-1.999s-1.884.895-1.884 2c0 1.104.843 1.999 1.884 1.999Z" fill="#002E5D"/><path d="M20.342 21.593h-5.085l-1.884-7.598h-3.202v-1.6h2.784l-.524-1.998 3.057-1.4.522 1.355 4.332 11.24ZM12.808 9.197c-1.04 0-1.883-.895-1.883-2 0-1.104.843-1.999 1.883-1.999s1.884.895 1.884 2c0 1.104-.844 1.999-1.884 1.999Z" fill="#325D9C"/><path d="M13.56.8H6.78v3.199h6.78v-3.2Z" fill="#002E5D"/><path d="M15.82 0H4.52v.8h11.3V0ZM4.896.8h.188V2l.188.399h-.565l.189-.4V.8Zm18.66 20.43 4.442-14.09h3.236l4.424 14.09h-3.237l-.773-3.05h-4.154l-.755 3.05h-3.183Zm4.568-5.54h2.913l-1.439-5.713h-.036l-1.438 5.713Zm12.418-8.55v6.041h.036l3.974-6.04h3.542l-4.675 6.755 4.855 7.334H44.73l-4.153-6.62h-.036v6.62h-3.057V7.14h3.057Zm8.845 14.09 4.441-14.09h3.237l4.424 14.09h-3.237l-.774-3.05h-4.153l-.755 3.05h-3.183Zm4.567-5.54h2.913L55.43 9.977h-.036l-1.439 5.713Zm20.097-1.698c0 2.368-.612 4.202-1.835 5.501-1.21 1.287-2.918 1.93-5.124 1.93-1.331 0-2.59-.097-3.776-.29V7.237a23.527 23.527 0 0 1 3.776-.29c2.206 0 3.914.625 5.124 1.873 1.223 1.235 1.835 2.96 1.835 5.172Zm-2.914 0c0-2.985-1.27-4.478-3.812-4.478-.347 0-.683.04-1.007.116v9.11c.324.077.66.117 1.007.117 2.541 0 3.812-1.622 3.812-4.865Zm7.895-4.208v2.876h4.982v2.49h-4.982v3.436h5.341v2.644h-8.397V7.14h8.397v2.644h-5.34Zm18.24 2.818h-.035l-2.301 5.404h-2.77l-2.302-5.404h-.035v8.628h-2.895V7.14h3.128l3.47 8.3h.036l3.47-8.3h3.202v14.09h-2.968v-8.628Zm5.964 8.628V7.14h3.362v14.09h-3.362Zm9.515-14.09v11.368h5.537v2.722h-8.685V7.14h3.148Zm7.447 0 2.553 6.041h.036l2.553-6.04h3.416l-4.459 8.685v5.404h-3.147v-5.404l-4.44-8.686h3.488Z" fill="#002E5D"/></g><defs><clipPath id="a"><path fill="#fff" d="M0 0h129v22H0z"/></clipPath></defs></svg>