<svg width="16" height="16" viewBox="0 0 16 16" fill="none" xmlns="http://www.w3.org/2000/svg">
<g id="user (1) 1" clip-path="url(#clip0_631_13035)">
<g id="Group">
<g id="Group_2">
<path id="Vector" d="M8.00186 0C5.71613 0 3.84766 1.86847 3.84766 4.1542C3.84766 6.43993 5.71613 8.3084 8.00186 8.3084C10.2876 8.3084 12.1561 6.43993 12.1561 4.1542C12.1561 1.86847 10.2876 0 8.00186 0Z" fill="#325D9C"/>
</g>
</g>
<g id="Group_3">
<g id="Group_4">
<path id="Vector_2" d="M15.1312 11.6281C15.0223 11.356 14.8772 11.1021 14.714 10.8662C13.8795 9.63266 12.5915 8.81634 11.1403 8.61679C10.9589 8.59866 10.7593 8.63491 10.6142 8.74377C9.85228 9.30613 8.94527 9.59637 8.00194 9.59637C7.0586 9.59637 6.15159 9.30613 5.38968 8.74377C5.24454 8.63491 5.04499 8.5805 4.8636 8.61679C3.41235 8.81634 2.10624 9.63266 1.28992 10.8662C1.12666 11.1021 0.98152 11.3742 0.872701 11.6281C0.818291 11.737 0.836416 11.864 0.890826 11.9728C1.03596 12.2268 1.21735 12.4808 1.38062 12.6985C1.63458 13.0431 1.90669 13.3515 2.2151 13.6418C2.46905 13.8957 2.7593 14.1315 3.04958 14.3674C4.48267 15.4377 6.20603 16 7.98381 16C9.76159 16 11.485 15.4377 12.918 14.3674C13.2083 14.1497 13.4985 13.8957 13.7525 13.6418C14.0428 13.3515 14.333 13.0431 14.587 12.6985C14.7684 12.4626 14.9317 12.2268 15.0768 11.9728C15.1675 11.864 15.1856 11.737 15.1312 11.6281Z" fill="#325D9C"/>
</g>
</g>
</g>
<defs>
<clipPath id="clip0_631_13035">
<rect width="16" height="16" fill="white"/>
</clipPath>
</defs>
</svg>
