<svg width="16" height="16" viewBox="0 0 16 16" fill="none" xmlns="http://www.w3.org/2000/svg">
<g id="documents-folder (1) 1" clip-path="url(#clip0_631_13012)">
<g id="Group">
<g id="Group_2">
<path id="Vector" d="M13.4012 7.70409C13.3498 7.36166 13.0562 7.11487 12.7107 7.11487H7.11362L6.09713 5.91174C5.8817 5.65878 5.5655 5.49939 5.23284 5.49939H1.59622C1.33708 5.49939 1.0908 5.62073 0.923189 5.81919C0.756088 6.01817 0.684621 6.29067 0.728324 6.54621L0.824985 7.11487H0.76123C0.557624 7.11487 0.364816 7.19764 0.233192 7.35189C0.099512 7.50665 0.0414124 7.7082 0.0727759 7.90924L1.20186 15.2349C1.27024 15.6756 1.64969 16 2.09546 16H13.8167C14.0203 16 14.2131 15.9105 14.3447 15.7578C14.4768 15.6036 14.5365 15.4036 14.5061 15.2025L13.4012 7.70409Z" fill="#325D9C"/>
<path id="Vector_2" d="M10.614 2.23706H6.236C5.93419 2.23706 5.68945 2.50956 5.68945 2.81189C5.68945 3.11421 5.93471 3.38671 6.236 3.38671H10.614C10.9169 3.38671 11.1611 3.11421 11.1611 2.81189C11.1611 2.50956 10.9158 2.23706 10.614 2.23706Z" fill="#325D9C"/>
<path id="Vector_3" d="M15.772 6.26555C15.646 6.11901 15.4614 6.02698 15.2676 6.02698H14.0254L14.3082 8.6466L14.9833 13.2231L15.9283 6.80027C15.9545 6.609 15.899 6.41259 15.772 6.26555Z" fill="#325D9C"/>
<path id="Vector_4" d="M4.63937 1.05659H12.2818V6.24493H13.3389V0.672001C13.3384 0.303866 13.0309 0 12.6628 0H4.21108C3.80695 0 3.49023 0.332658 3.49023 0.736785V4.75337H4.63937V1.05659Z" fill="#325D9C"/>
<path id="Vector_5" d="M10.6139 4.34973H6.23589C5.97316 4.34973 5.75413 4.55745 5.70117 4.81196C6.07599 4.90759 6.41688 5.11171 6.67344 5.41249L6.75313 5.49887H10.6139C10.9168 5.49887 11.161 5.22637 11.161 4.92404C11.161 4.62172 10.9157 4.34973 10.6139 4.34973Z" fill="#325D9C"/>
</g>
</g>
</g>
<defs>
<clipPath id="clip0_631_13012">
<rect width="16" height="16" fill="white"/>
</clipPath>
</defs>
</svg>
