<svg width="16" height="16" viewBox="0 0 16 16" fill="none" xmlns="http://www.w3.org/2000/svg">
<g id="Frame 2733" clip-path="url(#clip0_631_13008)">
<path id="&#239;&#128;&#151;" d="M2.32258 2.35484C3.89247 0.784946 5.78495 0 8 0C10.2151 0 12.0968 0.784946 13.6452 2.35484C15.2151 3.90323 16 5.78495 16 8C16 10.2151 15.2151 12.1075 13.6452 13.6774C12.0968 15.2258 10.2151 16 8 16C5.78495 16 3.89247 15.2258 2.32258 13.6774C0.774194 12.1075 0 10.2151 0 8C0 5.78495 0.774194 3.90323 2.32258 2.35484ZM10.9677 10.0968C11.0538 10.0108 11.0968 9.90323 11.0968 9.77419C11.0968 9.60215 11.0323 9.46237 10.9032 9.35484L9.03226 8V3.35484C9.03226 3.2043 8.97849 3.08602 8.87097 3C8.78495 2.89247 8.66667 2.83871 8.51613 2.83871H7.48387C7.33333 2.83871 7.2043 2.89247 7.09677 3C7.01075 3.08602 6.96774 3.2043 6.96774 3.35484V8.3871C6.96774 8.7957 7.12903 9.12903 7.45161 9.3871L9.6129 10.9677C9.69893 11.0538 9.80645 11.0968 9.93548 11.0968C10.1075 11.0968 10.2366 11.0323 10.3226 10.9032L10.9677 10.0968Z" fill="#325D9C"/>
</g>
<defs>
<clipPath id="clip0_631_13008">
<rect width="16" height="16" fill="white"/>
</clipPath>
</defs>
</svg>
