<svg width="16" height="16" viewBox="0 0 16 16" fill="none" xmlns="http://www.w3.org/2000/svg">
<g clip-path="url(#clip0_1389_71169)">
<path d="M3.80954 8.37981C5.91348 8.37981 7.61907 6.67423 7.61907 4.57028C7.61907 2.46633 5.91348 0.760742 3.80954 0.760742C1.70559 0.760742 0 2.46633 0 4.57028C0 6.67423 1.70559 8.37981 3.80954 8.37981Z" fill="#002E5D"/>
<path d="M12.1905 8.37981C14.2945 8.37981 16.0001 6.67423 16.0001 4.57028C16.0001 2.46633 14.2945 0.760742 12.1905 0.760742C10.0866 0.760742 8.38098 2.46633 8.38098 4.57028C8.38098 6.67423 10.0866 8.37981 12.1905 8.37981Z" fill="#002E5D"/>
<path d="M1.14281 15.2374C0.932412 15.2374 0.761841 15.0669 0.761841 14.8565V11.8089C0.761841 11.1777 1.27352 10.666 1.9047 10.666H2.28566C2.49606 10.666 2.66663 10.8366 2.66663 11.047C2.66663 11.2574 2.49606 11.4279 2.28566 11.4279H1.9047C1.69431 11.4279 1.52373 11.5985 1.52373 11.8089V14.8565C1.52377 15.0669 1.3532 15.2374 1.14281 15.2374Z" fill="#002E5D"/>
<path d="M2.28571 12.9514H0.380964C0.170571 12.9514 0 12.7808 0 12.5704C0 12.36 0.170571 12.1895 0.380964 12.1895H2.28571C2.49611 12.1895 2.66668 12.36 2.66668 12.5704C2.66668 12.7808 2.49611 12.9514 2.28571 12.9514Z" fill="#002E5D"/>
<path d="M3.42857 15.2374C3.21818 15.2374 3.04761 15.0669 3.04761 14.8565V11.047C3.04761 10.8366 3.21818 10.666 3.42857 10.666C3.63896 10.666 3.80954 10.8366 3.80954 11.047V14.8565C3.80954 15.0669 3.63896 15.2374 3.42857 15.2374Z" fill="#002E5D"/>
<path d="M4.95238 15.2371C4.74198 15.2371 4.57141 15.0665 4.57141 14.8561V12.5704C4.57141 12.36 4.74198 12.1895 4.95238 12.1895C5.16277 12.1895 5.33334 12.36 5.33334 12.5704V14.8561C5.3333 15.0665 5.16277 15.2371 4.95238 15.2371Z" fill="#002E5D"/>
<path d="M7.61904 15.2378C6.77746 15.2378 6.09521 14.5555 6.09521 13.7139C6.09521 12.8723 6.77746 12.1901 7.61904 12.1901C8.15418 12.1411 8.68321 12.3339 9.06132 12.7158C9.19175 12.881 9.16361 13.1206 8.99846 13.2511C8.83332 13.3815 8.59368 13.3534 8.46321 13.1882C8.22229 13.0046 7.92025 12.9201 7.61904 12.952C7.19825 12.952 6.85714 13.2932 6.85714 13.7139C6.85714 14.1347 7.19825 14.4758 7.61904 14.4758C7.93496 14.4929 8.2465 14.3959 8.49675 14.2023C8.64796 14.0602 8.88507 14.0653 9.03007 14.2137C9.17529 14.3619 9.17529 14.5989 9.03007 14.747C8.63954 15.0846 8.13475 15.2602 7.61904 15.2378Z" fill="#002E5D"/>
<path d="M10.2857 15.2374C10.0754 15.2374 9.90479 15.0669 9.90479 14.8565V11.047C9.90479 10.8366 10.0754 10.666 10.2857 10.666C10.4961 10.666 10.6667 10.8366 10.6667 11.047V14.8565C10.6667 15.0669 10.4961 15.2374 10.2857 15.2374Z" fill="#002E5D"/>
<path d="M11.8095 15.2372C11.7084 15.2374 11.6114 15.1974 11.5398 15.1259L10.016 13.6021C9.86709 13.4535 9.86687 13.2123 10.0155 13.0634C10.0333 13.0455 10.0529 13.0294 10.0739 13.0154L11.2168 12.2536C11.3918 12.1368 11.6284 12.184 11.7452 12.3591C11.862 12.5342 11.8147 12.7707 11.6397 12.8875L10.8838 13.3919L12.0785 14.5873C12.2271 14.7363 12.2267 14.9775 12.0777 15.1261C12.0064 15.197 11.9101 15.237 11.8095 15.2372Z" fill="#002E5D"/>
<path d="M13.3334 15.2371C13.123 15.2371 12.9524 15.0665 12.9524 14.8561V12.5704C12.9524 12.36 13.123 12.1895 13.3334 12.1895C13.5438 12.1895 13.7143 12.36 13.7143 12.5704V14.8561C13.7143 15.0665 13.5438 15.2371 13.3334 15.2371Z" fill="#002E5D"/>
<path d="M13.3334 14.4752C13.123 14.4752 12.9524 14.3046 12.9524 14.0942C12.9524 13.0422 13.8052 12.1895 14.8571 12.1895C15.0675 12.1895 15.2381 12.36 15.2381 12.5704C15.2381 12.7808 15.0676 12.9513 14.8572 12.9513C14.226 12.9513 13.7143 13.463 13.7143 14.0942C13.7143 14.3046 13.5438 14.4752 13.3334 14.4752Z" fill="#002E5D"/>
<path d="M4.96763 11.4279C4.75724 11.4279 4.58667 11.2574 4.58667 11.047C4.58667 10.8366 4.75724 10.666 4.96763 10.666H4.97524C5.18563 10.666 5.35621 10.8366 5.35621 11.047C5.35621 11.2574 5.18563 11.4279 4.97524 11.4279H4.96763Z" fill="#002E5D"/>
</g>
<defs>
<clipPath id="clip0_1389_71169">
<rect width="16" height="16" fill="white"/>
</clipPath>
</defs>
</svg>
