<svg width="16" height="16" viewBox="0 0 16 16" fill="none" xmlns="http://www.w3.org/2000/svg">
<g id="002-instagram" clip-path="url(#clip0_44_309)">
<path id="Vector" d="M8.00255 3.8916C5.73388 3.8916 3.89722 5.73027 3.89722 7.99694C3.89722 10.2656 5.73588 12.1023 8.00255 12.1023C10.2712 12.1023 12.1079 10.2636 12.1079 7.99694C12.1079 5.72827 10.2692 3.8916 8.00255 3.8916ZM8.00255 10.6616C6.52988 10.6616 5.33788 9.46894 5.33788 7.99694C5.33788 6.52494 6.53055 5.33227 8.00255 5.33227C9.47455 5.33227 10.6672 6.52494 10.6672 7.99694C10.6679 9.46894 9.47522 10.6616 8.00255 10.6616Z" fill="#002E5D"/>
<path id="Vector_2" d="M11.2986 0.0502578C9.82657 -0.0184089 6.18057 -0.0150756 4.70724 0.0502578C3.41257 0.110924 2.27057 0.423591 1.34991 1.34426C-0.188759 2.88292 0.00790737 4.95626 0.00790737 7.99692C0.00790737 11.1089 -0.165426 13.1343 1.34991 14.6496C2.89457 16.1936 4.99791 15.9916 8.00257 15.9916C11.0852 15.9916 12.1492 15.9936 13.2392 15.5716C14.7212 14.9963 15.8399 13.6716 15.9492 11.2923C16.0186 9.81959 16.0146 6.17426 15.9492 4.70092C15.8172 1.89226 14.3099 0.188924 11.2986 0.0502578ZM13.6286 13.6316C12.6199 14.6403 11.2206 14.5503 7.98324 14.5503C4.64991 14.5503 3.31324 14.5996 2.33791 13.6216C1.21457 12.5036 1.41791 10.7083 1.41791 7.98626C1.41791 4.30292 1.03991 1.65026 4.73657 1.46092C5.58591 1.43092 5.83591 1.42092 7.97391 1.42092L8.00391 1.44092C11.5566 1.44092 14.3439 1.06892 14.5112 4.76492C14.5492 5.60826 14.5579 5.86159 14.5579 7.99626C14.5572 11.2909 14.6199 12.6356 13.6286 13.6316Z" fill="#002E5D"/>
<path id="Vector_3" d="M12.2706 4.68917C12.8004 4.68917 13.2299 4.25967 13.2299 3.72984C13.2299 3.20002 12.8004 2.77051 12.2706 2.77051C11.7408 2.77051 11.3113 3.20002 11.3113 3.72984C11.3113 4.25967 11.7408 4.68917 12.2706 4.68917Z" fill="#002E5D"/>
</g>
<defs>
<clipPath id="clip0_44_309">
<rect width="16" height="16" fill="white"/>
</clipPath>
</defs>
</svg>
