<svg width="16" height="16" viewBox="0 0 16 16" fill="none" xmlns="http://www.w3.org/2000/svg">
<g clip-path="url(#clip0_1389_71165)">
<path d="M0.34805 11.9157C0.674716 13.0744 1.67405 13.2864 1.74072 13.3271C3.38538 13.7751 12.6041 13.7764 14.2734 13.3271C15.4167 12.9964 15.6267 11.9824 15.6661 11.9157C16.1014 9.59974 16.1301 6.58041 15.6461 3.95241L15.6661 4.08307C15.3394 2.92441 14.3401 2.71241 14.2734 2.67174C12.6507 2.23107 3.40805 2.21441 1.74072 2.67174C0.597383 3.00307 0.387383 4.01641 0.34805 4.08307C-0.11795 6.51707 -0.141284 9.30974 0.34805 11.9157ZM6.40538 10.4337V5.57174L10.5827 8.00641L6.40538 10.4337Z" fill="#002E5D"/>
</g>
<defs>
<clipPath id="clip0_1389_71165">
<rect width="16" height="16" fill="white"/>
</clipPath>
</defs>
</svg>
