<svg width="418" height="400" viewBox="0 0 418 400" fill="none" xmlns="http://www.w3.org/2000/svg">
<g clip-path="url(#clip0_43_114)">
<path d="M452.149 82.6189L-21.9509 45.0825L-43.9997 323.184L430.101 360.721L452.149 82.6189Z" fill="#F3F8FF"/>
<path d="M76.4192 167.104L59.1477 176.008L67.9561 193.07L85.2276 184.165L76.4192 167.104Z" fill="#BBD1DC"/>
<path d="M72.3451 159.237L55.0727 168.14L13.0967 99.1589L40.4316 85.0693L72.3451 159.237Z" fill="#BBD1DC"/>
<path d="M93.2868 247.016L78.7087 259.86L91.4136 274.261L105.992 261.417L93.2868 247.016Z" fill="#BBD1DC"/>
<path d="M87.4133 240.382L72.8343 253.224L15.2954 196.551L38.368 176.228L87.4133 240.382Z" fill="#BBD1DC"/>
<path d="M320.211 373.861H120.186C154.52 295.759 164.648 212.811 149.377 134.709H349.411C364.679 212.811 354.551 295.759 320.211 373.861Z" fill="#F4B18F"/>
<path d="M287.49 385.8H87.4617C132.139 307.698 153.245 224.751 148.313 146.648H348.344C353.275 224.751 332.171 307.698 287.49 385.8Z" fill="#BBD1DC"/>
<path d="M164.242 330.556C160.647 338.929 156.844 347.247 152.833 355.509H146.98C150.999 347.226 154.802 338.908 158.389 330.556H164.242Z" fill="white"/>
<path d="M173.711 355.509H168.243C170.271 351.386 171.258 349.318 173.176 345.175C173.757 343.92 174.1 343.062 174.214 342.598C174.327 342.135 174.267 341.742 174.034 341.418C173.802 341.094 173.398 340.933 172.818 340.933C170.898 340.933 169.304 342.35 167.999 345.175C166.081 349.318 165.093 351.387 163.066 355.509H157.598C160.597 349.394 163.481 343.248 166.195 337.069H171.276C170.723 338.323 170.445 338.949 169.883 340.201C171.395 338.713 172.654 337.755 173.659 337.326C174.586 336.916 175.587 336.698 176.601 336.685C178.363 336.685 179.573 337.158 180.23 338.105C180.886 339.051 180.599 340.91 179.33 343.677C177.525 347.632 175.652 351.576 173.711 355.509Z" fill="white"/>
<path d="M201.148 337.069C196.249 343.273 191.268 349.42 186.202 355.509H181.946C182.85 349.344 183.567 343.196 184.174 337.069H189.85C189.327 340.961 188.736 344.861 188.077 348.771C191.109 344.885 194.109 340.985 197.079 337.069H201.148Z" fill="white"/>
<path d="M210.904 336.684C213.727 336.684 215.525 337.608 216.284 339.452C217.042 341.295 216.789 343.599 215.5 346.362C214.229 349.089 212.32 351.359 209.795 353.171C207.271 354.983 204.638 355.891 201.914 355.891C199.275 355.891 197.61 354.994 196.899 353.199C196.188 351.405 196.504 349.095 197.821 346.27C198.734 344.312 199.848 342.644 201.188 341.273C202.476 339.935 203.972 338.813 205.617 337.95C207.249 337.104 209.064 336.669 210.904 336.684ZM209.463 340.257C208.427 340.257 207.466 340.656 206.58 341.454C205.694 342.254 204.713 343.842 203.607 346.216C202.591 348.396 202.096 349.957 202.142 350.904C202.188 351.85 202.74 352.324 203.801 352.324C204.728 352.324 205.674 351.919 206.639 351.109C207.598 350.299 208.624 348.76 209.686 346.485C210.816 344.062 211.308 342.416 211.195 341.55C211.083 340.685 210.499 340.257 209.463 340.257Z" fill="white"/>
<path d="M231.661 330.047C230.738 332.236 230.268 333.33 229.314 335.516H223.847C224.801 333.33 225.27 332.236 226.195 330.047H231.661ZM228.631 337.069C225.918 343.248 223.032 349.394 220.035 355.509H214.569C217.566 349.394 220.45 343.248 223.164 337.069H228.631Z" fill="white"/>
<path d="M244.149 348.607C242.919 350.773 241.154 352.589 239.022 353.882C236.846 355.223 234.552 355.893 232.14 355.891C229.522 355.891 227.815 355.034 227.004 353.317C226.193 351.601 226.476 349.302 227.815 346.418C229.154 343.533 231.058 341.187 233.549 339.387C236.04 337.587 238.676 336.686 241.489 336.686C243.753 336.686 245.327 337.364 246.212 338.72C247.094 340.07 247.158 341.772 246.379 343.806L241.145 344.099C241.994 341.881 241.524 340.77 239.761 340.77C237.599 340.77 235.729 342.542 234.086 346.072C232.992 348.422 232.583 349.91 232.885 350.541C233.188 351.171 233.773 351.486 234.642 351.486C236.33 351.486 237.855 350.424 239.188 348.296L244.149 348.607Z" fill="white"/>
<path d="M264.381 347.22H252.457C252.289 347.549 252.15 347.835 252.035 348.077C251.416 349.391 251.297 350.381 251.677 351.048C252.057 351.715 252.738 352.049 253.719 352.05C255.54 352.05 257.097 351.086 258.388 349.152L263.168 349.517C260.272 353.274 255.961 355.913 251.663 355.89C249.828 355.88 248.429 355.524 247.498 354.79C246.567 354.057 246.025 352.986 245.864 351.576C245.704 350.166 246.09 348.478 247.009 346.506C248.378 343.573 250.293 341.202 252.782 339.395C255.271 337.588 257.828 336.683 260.47 336.683C262.854 336.683 264.534 337.524 265.491 339.202C266.448 340.879 266.094 343.558 264.381 347.22ZM253.905 344.061H260.491C261.485 341.526 261.004 340.256 259.084 340.256C257.024 340.256 255.311 341.526 253.901 344.061H253.905Z" fill="white"/>
<path d="M291.665 207.289H172.921C173.275 203.748 173.431 201.98 173.7 198.451H292.445C292.176 201.981 292.019 203.749 291.665 207.289Z" fill="#325D9C"/>
<path d="M211.812 229.697H170.007C170.575 226.139 170.838 224.36 171.322 220.807H213.128C212.644 224.36 212.382 226.139 211.812 229.697Z" fill="white"/>
<path d="M236.407 252.2H165.756C166.534 248.631 166.903 246.847 167.599 243.279H238.253C237.557 246.847 237.19 248.631 236.407 252.2Z" fill="#325D9C"/>
<path d="M213.922 274.739H160.188C161.176 271.169 161.649 269.382 162.553 265.81H216.294C215.383 269.382 214.91 271.166 213.922 274.739Z" fill="white"/>
<path d="M279.722 274.74H225.981C226.967 271.169 227.44 269.382 228.346 265.812H282.085C281.183 269.382 280.709 271.166 279.722 274.74Z" fill="#325D9C"/>
<path d="M260.781 297.256H153.296C154.489 293.693 155.066 291.911 156.178 288.343H263.661C262.552 291.911 261.975 293.693 260.781 297.256Z" fill="white"/>
<path d="M395.743 22.8898L144.589 10L137.053 156.632L388.207 169.522L395.743 22.8898Z" fill="#BBD1DC"/>
<path d="M380.198 30.9653H128.714V177.79H380.198V30.9653Z" fill="#F70431"/>
<path d="M195.8 112.177V134.709H181.348V74.0479H205.268C210.604 74.0479 214.688 74.6182 217.52 75.7589C220.352 76.8996 222.879 78.9366 225.101 81.8698C227.326 84.803 228.438 88.4043 228.437 92.6736C228.433 95.6812 227.829 98.6579 226.658 101.429C225.472 104.273 223.797 106.509 221.634 108.138C219.47 109.767 217.373 110.847 215.341 111.379C213.31 111.913 210.13 112.179 205.802 112.179L195.8 112.177ZM195.311 101.156H204.561C208.088 101.156 210.566 100.341 211.994 98.7116C213.422 97.082 214.134 95.2157 214.129 93.1125C214.129 90.6546 213.336 88.6992 211.749 87.246C210.163 85.7929 207.751 85.0677 204.514 85.0704H195.311V101.156Z" fill="white"/>
<path d="M262.489 74.0479L281.49 134.709H266.211L262.472 122.221H242.847L239.041 134.709H226.573L246.033 74.0479H262.489ZM246.258 111.021H259.119L252.744 89.735L246.258 111.021Z" fill="white"/>
<path d="M327.565 74.0479L308.487 109.16V134.709H294.298V109.155L275.22 74.0425H291.72L303.294 97.0114L314.813 74.0425L327.565 74.0479Z" fill="white"/>
<path d="M364.469 126.884L356.877 164.861L342.221 132.719L327.565 100.577L362.748 103.964L397.932 107.351L364.469 126.884Z" fill="#325D9C"/>
<path d="M287.49 386.197C287.421 386.197 287.353 386.179 287.293 386.144C287.248 386.118 287.208 386.084 287.176 386.043C287.144 386.002 287.121 385.955 287.107 385.905C287.094 385.854 287.09 385.802 287.096 385.75C287.103 385.699 287.12 385.649 287.146 385.604C315.12 336.701 333.829 286.151 342.753 235.358C342.76 235.305 342.778 235.254 342.805 235.208C342.833 235.162 342.869 235.122 342.912 235.091C342.955 235.059 343.004 235.036 343.056 235.024C343.108 235.012 343.162 235.01 343.215 235.019C343.267 235.029 343.318 235.048 343.363 235.077C343.408 235.106 343.446 235.144 343.476 235.188C343.506 235.232 343.527 235.282 343.537 235.335C343.547 235.387 343.547 235.441 343.536 235.493C339.111 260.675 332.162 286.175 322.881 311.282C313.556 336.503 301.768 361.64 287.835 385.996C287.8 386.057 287.75 386.107 287.69 386.143C287.629 386.178 287.56 386.197 287.49 386.197Z" fill="#002E5D"/>
<path d="M327.096 165.258H142.036C141.983 165.258 141.932 165.248 141.883 165.228C141.835 165.208 141.791 165.179 141.754 165.142C141.717 165.105 141.688 165.061 141.668 165.013C141.648 164.965 141.638 164.913 141.638 164.861V21.543C141.638 21.4377 141.68 21.3367 141.755 21.2623C141.829 21.1878 141.93 21.146 142.036 21.146C142.141 21.146 142.242 21.1878 142.316 21.2623C142.391 21.3367 142.433 21.4377 142.433 21.543V164.464H327.096C327.201 164.464 327.302 164.506 327.377 164.58C327.451 164.655 327.493 164.756 327.493 164.861C327.493 164.966 327.451 165.067 327.377 165.142C327.302 165.216 327.201 165.258 327.096 165.258Z" fill="#002E5D"/>
<path d="M118.497 212.087C144.597 212.087 165.755 190.943 165.755 164.861C165.755 138.779 144.597 117.635 118.497 117.635C92.3965 117.635 71.238 138.779 71.238 164.861C71.238 190.943 92.3965 212.087 118.497 212.087Z" fill="#3B82F4"/>
<path d="M150.008 161.964H123.465C122.964 161.109 122.252 160.397 121.396 159.897V133.022C121.379 132.264 121.067 131.543 120.525 131.013C119.983 130.483 119.255 130.187 118.496 130.187C117.738 130.187 117.01 130.483 116.468 131.013C115.926 131.543 115.613 132.264 115.597 133.022V159.897C114.836 160.339 114.186 160.951 113.699 161.684C113.211 162.418 112.899 163.253 112.785 164.126C112.672 164.999 112.76 165.886 113.044 166.719C113.328 167.553 113.8 168.31 114.423 168.932C115.046 169.555 115.803 170.026 116.637 170.31C117.471 170.594 118.359 170.682 119.233 170.569C120.106 170.455 120.942 170.143 121.676 169.656C122.41 169.169 123.022 168.52 123.465 167.759H150.008C150.766 167.743 151.487 167.43 152.018 166.889C152.548 166.347 152.845 165.619 152.845 164.862C152.845 164.104 152.548 163.376 152.018 162.835C151.487 162.293 150.766 161.98 150.008 161.964Z" fill="white"/>
<path d="M374.329 386.197H95.773C95.6677 386.197 95.5666 386.155 95.4921 386.081C95.4176 386.006 95.3757 385.905 95.3757 385.8C95.3757 385.695 95.4176 385.594 95.4921 385.519C95.5666 385.445 95.6677 385.403 95.773 385.403H374.329C374.435 385.403 374.536 385.445 374.61 385.519C374.685 385.594 374.727 385.695 374.727 385.8C374.727 385.905 374.685 386.006 374.61 386.081C374.536 386.155 374.435 386.197 374.329 386.197Z" fill="#002E5D"/>
<path d="M36.4354 246.993L75.8965 235.433L70.6395 264.385L66.6245 262.859L64.3136 278.985L50.8509 274.78L51.7306 289.793L58.758 290.546L78.2926 305.806L112.152 307.562V309.377L124.188 304.453L126.709 306.537L123.938 309.636L132.816 311.671L128.955 319.724L112.268 317.44L72.4747 317.829L59.6688 313.088L50.6144 333.115L91.5364 321.912C91.5364 321.912 98.0231 319.357 102.277 323.127C106.532 326.898 106.796 330.267 106.796 330.267L108.41 372.772L107.117 373.107L108.41 379.492L118.443 382.317L118.428 385.207H100.791L99.807 373.765L99.2421 373.842L87.6889 341.222L57.6363 357.327L81.0927 371.65C81.0927 371.65 85.7861 375.653 83.3603 380.505C80.9346 385.357 77.0222 385.326 77.0222 385.326H20.9996V384.622L8.10316 385.318L-5.34605 389.603L-6.9353 386.427L8.75859 375.083L18.4171 376.426L21.2132 375.509L53.4888 372.464L29.9649 362.876C29.9649 362.876 18.4441 357.813 15.8575 354.107C13.2709 350.401 15.0467 343.66 15.0467 343.66C15.0467 343.66 15.9305 341.04 17.336 338.78L31.8704 294.051L30.7892 293.333L36.4354 246.993Z" fill="white"/>
<path d="M36.2815 247.032L75.8912 235.426L70.6343 264.379L49.7442 255.973L52.5416 303.718L40.1452 297.803L36.2815 247.032Z" fill="#325D9C"/>
<path d="M54.4507 257.629L55.8088 276.324L64.0781 278.979L66.8282 262.807L54.4507 257.629Z" fill="#F4B18F"/>
<path d="M42.21 306.466L72.3464 312.087L112.262 312.514L112.145 307.56L78.4277 305.917L58.7512 290.539L51.7253 289.787L52.4104 303.512L31.9893 293.911L17.1738 338.99L43.6249 335.546L52.0956 310.179L42.21 306.466Z" fill="#F70431"/>
<path d="M112.262 312.514H118.803L130.879 315.952L133.045 311.72L124.188 309.693L126.583 306.437L124.273 304.452L112.504 309.23L112.262 312.514Z" fill="#F4B18F"/>
<path d="M26.3781 337.745C26.3781 337.745 18.7994 344.891 26.3781 353.199C33.9568 361.507 64.7175 374.846 64.7175 374.846L20.9995 378.06V385.33H77.0221C77.0221 385.33 82.4277 384.718 83.4981 380.213C84.5684 375.708 82.0034 372.288 82.0034 372.288L45.8168 350.417L91.0322 334.625C91.5819 334.433 92.1676 334.365 92.7467 334.427C93.3258 334.489 93.8838 334.679 94.3803 334.983C94.8768 335.288 95.2994 335.698 95.6174 336.186C95.9354 336.674 96.1409 337.226 96.2189 337.803L101.07 373.673L108.41 372.988L106.821 330.883C106.821 330.883 106.199 324.93 101.758 322.707C97.3176 320.484 94.8404 321.109 94.8404 321.109L50.7372 332.946L49.9426 334.718L26.3781 337.745Z" fill="#325D9C"/>
<path d="M52.5415 304.118C52.4822 304.118 52.4236 304.104 52.3699 304.079L30.6122 293.695C30.5374 293.659 30.4756 293.601 30.4357 293.528C30.3957 293.455 30.3794 293.372 30.3893 293.29L35.8908 246.987C35.9009 246.91 35.9328 246.838 35.9829 246.778C36.0329 246.719 36.099 246.675 36.1733 246.652L75.783 235.046C75.8483 235.028 75.9172 235.026 75.9833 235.041C76.0494 235.057 76.1106 235.088 76.1614 235.133C76.212 235.178 76.25 235.235 76.2717 235.299C76.2935 235.364 76.2984 235.432 76.2858 235.499L71.0301 264.453C71.0194 264.511 70.996 264.566 70.9614 264.614C70.9268 264.662 70.882 264.701 70.8302 264.729C70.7784 264.758 70.721 264.774 70.6621 264.777C70.6032 264.781 70.5442 264.771 70.4896 264.749L50.1631 256.311L52.9375 303.691C52.9408 303.745 52.933 303.799 52.9146 303.85C52.8962 303.901 52.8676 303.947 52.8305 303.987C52.7934 304.026 52.7486 304.057 52.6989 304.079C52.6492 304.1 52.5956 304.111 52.5415 304.111V304.118ZM31.2082 293.098L52.105 303.07L49.3319 255.729C49.3282 255.662 49.3416 255.595 49.3709 255.534C49.4001 255.473 49.4443 255.421 49.4992 255.382C49.5541 255.343 49.618 255.319 49.685 255.311C49.7519 255.304 49.8197 255.313 49.882 255.339L70.3315 263.824L75.3857 235.988L36.6449 247.332L31.2082 293.098Z" fill="#002E5D"/>
<path d="M64.3082 279.376C64.2679 279.376 64.2278 279.37 64.1892 279.358L50.7238 275.153C50.6231 275.121 50.539 275.051 50.4899 274.958C50.4409 274.865 50.431 274.756 50.4623 274.655C50.4937 274.554 50.5638 274.47 50.6572 274.421C50.7506 274.372 50.8596 274.362 50.9603 274.394L63.9798 278.459L66.2258 262.658C66.2405 262.554 66.2961 262.459 66.3804 262.396C66.4646 262.332 66.5707 262.305 66.6752 262.32C66.7796 262.334 66.874 262.39 66.9375 262.474C67.001 262.558 67.0284 262.664 67.0137 262.769L64.7014 279.034C64.6883 279.129 64.6413 279.216 64.569 279.279C64.4967 279.341 64.404 279.376 64.3082 279.376Z" fill="#002E5D"/>
<path d="M112.261 318.225H72.4679C72.4218 318.225 72.3761 318.216 72.3327 318.201L42.0747 306.838C42.0242 306.821 41.9777 306.794 41.9378 306.758C41.898 306.723 41.8657 306.68 41.8429 306.632C41.8201 306.583 41.8072 306.531 41.805 306.478C41.8028 306.425 41.8114 306.372 41.8301 306.322C41.8489 306.272 41.8775 306.226 41.9143 306.188C41.9511 306.149 41.9952 306.118 42.0442 306.097C42.0931 306.076 42.1458 306.065 42.1991 306.065C42.2524 306.064 42.3052 306.074 42.3544 306.095L72.5449 317.431H111.871V307.944L78.4154 306.314C78.3334 306.309 78.2547 306.28 78.1897 306.23L58.5781 290.906L51.6859 290.181C51.634 290.175 51.5837 290.16 51.5378 290.135C51.492 290.11 51.4515 290.076 51.4187 290.036C51.3859 289.995 51.3614 289.948 51.3466 289.898C51.3318 289.848 51.327 289.796 51.3325 289.744C51.338 289.692 51.3537 289.642 51.3786 289.596C51.4036 289.55 51.4373 289.51 51.4779 289.477C51.5185 289.444 51.5652 289.42 51.6152 289.405C51.6653 289.39 51.7178 289.385 51.7697 289.391L58.7767 290.128C58.8507 290.136 58.921 290.165 58.9795 290.211L78.5749 305.526L112.282 307.17C112.383 307.175 112.48 307.219 112.55 307.292C112.62 307.366 112.66 307.464 112.66 307.566V317.829C112.66 317.881 112.649 317.933 112.629 317.981C112.609 318.029 112.58 318.073 112.543 318.11C112.506 318.146 112.462 318.175 112.414 318.195C112.365 318.215 112.314 318.225 112.261 318.225Z" fill="#002E5D"/>
<path d="M20.4522 338.909C20.3505 338.91 20.2523 338.872 20.1778 338.803C20.1033 338.733 20.0582 338.638 20.0518 338.537C20.0454 338.435 20.0782 338.335 20.1434 338.257C20.2086 338.179 20.3012 338.129 20.4022 338.117L49.5859 334.383L59.4836 312.92C59.5049 312.872 59.5356 312.829 59.5739 312.793C59.6122 312.756 59.6573 312.728 59.7065 312.71C59.7558 312.691 59.8083 312.682 59.8609 312.684C59.9135 312.686 59.9652 312.698 60.0131 312.72C60.0609 312.743 60.1039 312.774 60.1395 312.813C60.1751 312.851 60.2026 312.897 60.2205 312.946C60.2384 312.996 60.2463 313.048 60.2436 313.101C60.241 313.153 60.228 313.205 60.2052 313.252L50.2156 334.915C50.1875 334.976 50.1444 335.029 50.0903 335.069C50.0361 335.109 49.9728 335.134 49.9062 335.142L20.4995 338.906L20.4522 338.909Z" fill="#002E5D"/>
<path d="M17.3317 339.178C17.2904 339.178 17.2494 339.171 17.21 339.159C17.1106 339.125 17.0283 339.054 16.9804 338.96C16.9325 338.867 16.9227 338.758 16.9533 338.658L31.4877 293.73C31.5037 293.681 31.5294 293.635 31.5633 293.595C31.5971 293.555 31.6385 293.522 31.685 293.499C31.7315 293.475 31.7822 293.461 31.8342 293.456C31.8863 293.452 31.9387 293.458 31.9884 293.474C32.038 293.49 32.0841 293.516 32.1238 293.55C32.1636 293.584 32.1963 293.625 32.2201 293.672C32.2439 293.718 32.2583 293.769 32.2624 293.821C32.2666 293.873 32.2605 293.925 32.2444 293.975L17.7101 338.902C17.6843 338.982 17.6338 339.052 17.5658 339.102C17.4978 339.151 17.4158 339.178 17.3317 339.178Z" fill="#002E5D"/>
<path d="M99.2395 374.24C99.1568 374.239 99.0764 374.212 99.0093 374.164C98.9421 374.116 98.8913 374.048 98.8638 373.97L87.4052 341.667L57.6877 357.745C57.6418 357.771 57.5913 357.787 57.539 357.793C57.4867 357.799 57.4338 357.795 57.3833 357.78C57.3328 357.765 57.2857 357.741 57.2447 357.708C57.2038 357.675 57.1698 357.634 57.1448 357.588C57.1197 357.542 57.1041 357.491 57.0988 357.438C57.0936 357.386 57.0987 357.333 57.114 357.283C57.1293 357.233 57.1545 357.186 57.188 357.146C57.2215 357.105 57.2628 357.072 57.3093 357.047L87.4363 340.747C87.4866 340.719 87.5423 340.703 87.5994 340.7C87.6566 340.696 87.7139 340.705 87.7674 340.725C87.8207 340.746 87.869 340.778 87.9091 340.819C87.9492 340.86 87.9801 340.909 87.9998 340.963L99.5098 373.419L107.998 372.628L106.548 331.758C106.491 330.157 106.072 328.589 105.323 327.172C104.574 325.755 103.514 324.526 102.222 323.577C100.93 322.628 99.4399 321.983 97.8632 321.691C96.2866 321.399 94.6642 321.467 93.1176 321.89L50.7104 333.496C50.6098 333.521 50.5035 333.505 50.4142 333.453C50.3249 333.4 50.2596 333.315 50.2323 333.215C50.205 333.115 50.2178 333.009 50.268 332.918C50.3182 332.828 50.4018 332.76 50.501 332.731L92.9108 321.123C94.5733 320.668 96.3173 320.594 98.0123 320.908C99.7073 321.222 101.309 321.915 102.698 322.935C104.087 323.955 105.227 325.277 106.032 326.8C106.837 328.323 107.287 330.008 107.348 331.73L108.81 372.973C108.813 373.074 108.777 373.172 108.711 373.247C108.644 373.322 108.551 373.369 108.451 373.378L99.2814 374.235L99.2395 374.24Z" fill="#002E5D"/>
<path d="M76.2101 385.724H20.9997C20.8943 385.724 20.7933 385.683 20.7188 385.608C20.6442 385.534 20.6024 385.433 20.6024 385.327V375.431C20.6023 375.332 20.6395 375.236 20.7065 375.163C20.7736 375.09 20.8656 375.044 20.9646 375.035L52.3632 372.267C49.136 371.137 41.9492 368.546 34.7489 365.45C21.6768 359.829 14.7792 355.275 14.2494 351.914C12.9426 343.619 16.8576 338.732 17.0252 338.528C17.0575 338.485 17.0981 338.45 17.1445 338.423C17.191 338.397 17.2422 338.38 17.2953 338.374C17.3484 338.368 17.4022 338.372 17.4535 338.387C17.5048 338.402 17.5525 338.427 17.5938 338.461C17.6351 338.495 17.6691 338.537 17.6938 338.585C17.7185 338.632 17.7334 338.684 17.7376 338.737C17.7418 338.79 17.7352 338.844 17.7183 338.894C17.7013 338.945 17.6742 338.992 17.6387 339.032C17.6009 339.079 13.7859 343.865 15.0346 351.791C15.3684 353.903 19.1131 357.868 35.0624 364.72C44.6858 368.858 54.2835 372.09 54.3795 372.122C54.4663 372.151 54.5406 372.209 54.5897 372.286C54.6387 372.363 54.6597 372.455 54.6488 372.546C54.638 372.637 54.5962 372.721 54.5304 372.785C54.4645 372.848 54.3788 372.887 54.2876 372.895L21.3984 375.794V384.929H76.2115C79.59 384.929 82.355 382.828 83.2577 379.576C84.1604 376.324 82.8726 373.093 79.9765 371.359L45.6129 350.727C45.5611 350.704 45.5147 350.671 45.4768 350.629C45.439 350.587 45.4105 350.538 45.3933 350.484C45.376 350.43 45.3705 350.373 45.377 350.317C45.3835 350.261 45.4019 350.207 45.431 350.159C45.4601 350.11 45.4991 350.068 45.5456 350.036C45.592 350.004 45.6448 349.982 45.7004 349.972C45.756 349.962 45.8131 349.964 45.8679 349.978C45.9227 349.991 45.974 350.016 46.0183 350.052L80.3806 370.684C83.5915 372.611 85.0186 376.187 84.0172 379.793C83.0158 383.399 79.9549 385.724 76.2101 385.724Z" fill="#002E5D"/>
<path d="M10.9748 375.616L-1.07297 388.226L-5.55964 389.603L-7.09619 386.456L8.83556 374.844L10.9748 375.616Z" fill="#002E5D"/>
<path d="M-5.34601 390C-5.41987 390 -5.49226 389.979 -5.55504 389.94C-5.61782 389.902 -5.66852 389.846 -5.70143 389.78L-7.29068 386.604C-7.33266 386.52 -7.34347 386.423 -7.3212 386.332C-7.29894 386.241 -7.24503 386.16 -7.16906 386.105L8.47889 374.748C8.56203 374.687 8.66586 374.66 8.7681 374.675L18.4726 376.035C18.5744 376.052 18.6655 376.109 18.7265 376.192C18.7874 376.275 18.8135 376.379 18.7991 376.481C18.7846 376.584 18.7309 376.676 18.6492 376.74C18.5676 376.803 18.4645 376.832 18.3617 376.821L8.81674 375.484L-6.42849 386.558L-5.1433 389.124L7.79643 384.953C7.83054 384.942 7.86601 384.936 7.90184 384.934L18.0793 384.506C18.1847 384.502 18.2875 384.539 18.3652 384.611C18.4429 384.682 18.489 384.781 18.4935 384.886C18.498 384.992 18.4604 385.094 18.3891 385.172C18.3177 385.25 18.2185 385.296 18.1131 385.3L7.98968 385.726L-5.22438 389.981C-5.26378 389.993 -5.30476 390 -5.34601 390Z" fill="#002E5D"/>
<path d="M118.497 385.724H100.793C100.693 385.724 100.597 385.686 100.523 385.618C100.45 385.55 100.405 385.457 100.398 385.357L99.6637 375.674C99.6558 375.569 99.6901 375.465 99.7589 375.385C99.8277 375.305 99.9254 375.256 100.031 375.248C100.136 375.24 100.24 375.274 100.32 375.343C100.4 375.412 100.449 375.51 100.457 375.615L101.162 384.933H118.093V382.73L108.297 379.971C108.225 379.95 108.161 379.911 108.111 379.856C108.061 379.801 108.027 379.733 108.013 379.661L107.096 374.713C107.08 374.61 107.104 374.506 107.164 374.421C107.224 374.336 107.315 374.278 107.416 374.26C107.518 374.241 107.624 374.262 107.71 374.32C107.796 374.378 107.856 374.467 107.878 374.568L108.749 379.273L118.605 382.04C118.688 382.065 118.76 382.115 118.812 382.184C118.864 382.253 118.893 382.336 118.894 382.422V385.325C118.895 385.377 118.885 385.429 118.865 385.477C118.845 385.526 118.816 385.57 118.779 385.607C118.742 385.644 118.698 385.674 118.65 385.694C118.601 385.714 118.549 385.724 118.497 385.724Z" fill="#002E5D"/>
<path d="M118.497 382.425L100.704 384.057L101.053 385.327H118.635L118.497 382.425Z" fill="#002E5D"/>
<path d="M128.949 320.12H128.898L114.593 318.229C114.488 318.215 114.394 318.16 114.33 318.076C114.266 317.993 114.238 317.887 114.252 317.783C114.266 317.678 114.321 317.584 114.404 317.52C114.488 317.456 114.594 317.428 114.698 317.442L128.723 319.298L132.454 312.006L123.732 310.158C123.664 310.144 123.601 310.112 123.549 310.066C123.497 310.019 123.458 309.96 123.437 309.894C123.415 309.828 123.411 309.757 123.426 309.689C123.44 309.621 123.472 309.558 123.519 309.506L126.131 306.584L124.114 304.915L114.34 308.992C114.292 309.012 114.24 309.022 114.188 309.022C114.136 309.022 114.084 309.012 114.036 308.992C113.988 308.972 113.944 308.943 113.907 308.906C113.87 308.869 113.841 308.826 113.821 308.778C113.801 308.729 113.79 308.678 113.79 308.626C113.79 308.573 113.8 308.522 113.82 308.474C113.84 308.425 113.869 308.382 113.906 308.345C113.943 308.308 113.987 308.278 114.035 308.258L124.035 304.089C124.102 304.062 124.175 304.053 124.246 304.063C124.318 304.074 124.385 304.104 124.441 304.15L126.962 306.235C127.003 306.269 127.037 306.311 127.061 306.359C127.086 306.406 127.1 306.458 127.104 306.511C127.108 306.565 127.101 306.618 127.084 306.668C127.067 306.719 127.04 306.765 127.004 306.805L124.572 309.524L133.132 311.336C133.19 311.35 133.245 311.377 133.292 311.415C133.339 311.454 133.377 311.502 133.403 311.556C133.429 311.611 133.442 311.671 133.442 311.731C133.442 311.792 133.428 311.851 133.402 311.906L129.306 319.907C129.272 319.972 129.22 320.027 129.157 320.064C129.094 320.101 129.022 320.121 128.949 320.12Z" fill="#002E5D"/>
<path d="M351.08 381.28L344.754 355.046L353.589 364.076L361.322 337.986L363.229 361.706L384.517 365.393L364.636 381.28" fill="#BBD1DC"/>
<path d="M348.782 381.678C348.702 381.678 348.624 381.654 348.558 381.609C348.492 381.564 348.441 381.5 348.412 381.426L340.045 360.192C340.014 360.111 340.01 360.022 340.034 359.939C340.058 359.855 340.109 359.782 340.179 359.73C340.248 359.678 340.333 359.65 340.42 359.65C340.507 359.651 340.591 359.68 340.66 359.733L349.388 366.518L355.053 342.042C355.073 341.951 355.125 341.87 355.199 341.814C355.272 341.757 355.364 341.728 355.457 341.732C355.55 341.736 355.638 341.772 355.707 341.835C355.776 341.897 355.821 341.982 355.834 342.074L359.512 367.139L377.297 358.834C377.379 358.795 377.473 358.786 377.561 358.808C377.65 358.83 377.728 358.881 377.783 358.954C377.838 359.027 377.866 359.117 377.863 359.208C377.859 359.299 377.825 359.386 377.764 359.455L358.472 381.542C358.437 381.581 358.396 381.613 358.349 381.637C358.302 381.66 358.251 381.674 358.199 381.677C358.147 381.681 358.094 381.674 358.045 381.657C357.995 381.641 357.95 381.615 357.91 381.58C357.871 381.546 357.839 381.504 357.815 381.457C357.792 381.411 357.778 381.36 357.775 381.308C357.771 381.256 357.778 381.203 357.794 381.154C357.811 381.104 357.837 381.059 357.872 381.019L375.926 360.35L359.365 368.084C359.309 368.109 359.247 368.12 359.186 368.118C359.124 368.115 359.064 368.099 359.01 368.07C358.956 368.041 358.909 368 358.873 367.95C358.837 367.9 358.813 367.842 358.803 367.782L355.353 344.273L350.023 367.302C350.007 367.367 349.975 367.426 349.931 367.476C349.887 367.525 349.831 367.563 349.769 367.586C349.706 367.609 349.638 367.615 349.572 367.604C349.506 367.594 349.444 367.566 349.392 367.525L341.317 361.251L349.155 381.135C349.176 381.195 349.183 381.26 349.175 381.323C349.167 381.386 349.144 381.446 349.108 381.499C349.072 381.552 349.024 381.595 348.968 381.626C348.912 381.656 348.85 381.673 348.786 381.676L348.782 381.678Z" fill="#002E5D"/>
<path d="M409.678 208.226H372.087V220.645H409.678V208.226Z" fill="#BBD1DC"/>
<path d="M423.774 226.71H386.184V239.129H423.774V226.71Z" fill="#BBD1DC"/>
<path d="M409.678 327.966H447.269V315.547H409.678V327.966Z" fill="#BBD1DC"/>
</g>
<defs>
<clipPath id="clip0_43_114">
<rect width="418" height="400" fill="white"/>
</clipPath>
</defs>
</svg>
