<svg width="418" height="400" viewBox="0 0 418 400" fill="none" xmlns="http://www.w3.org/2000/svg">
<path d="M379.889 105.825L392.458 273.593L25.0005 315.638V181.608L379.889 105.825Z" fill="#F3F8FF"/>
<path d="M238.051 53.711L169.372 59.0317L171.557 87.227L240.236 81.9063L238.051 53.711Z" fill="#C9DAF4"/>
<path d="M228.359 76.2338L216.945 59.678C218.948 57.0238 220.143 53.8476 220.386 50.5308C220.628 47.214 219.908 43.8978 218.311 40.9804C216.715 38.0631 214.31 35.6686 211.386 34.0847C208.462 32.5008 205.143 31.7948 201.827 32.0515C198.511 32.3082 195.34 33.5167 192.695 35.5318C190.049 37.5469 188.041 40.283 186.913 43.4113C185.785 46.5396 185.583 49.9272 186.333 53.1671C187.083 56.407 188.753 59.3615 191.141 61.6757L182.412 79.7922C182.377 79.8638 182.357 79.9415 182.353 80.0209C182.348 80.1002 182.359 80.1797 182.386 80.2547C182.412 80.3298 182.453 80.3989 182.506 80.458C182.559 80.5172 182.623 80.5653 182.695 80.5996C182.779 80.6414 182.872 80.6621 182.965 80.66C183.078 80.6587 183.188 80.6261 183.282 80.5658C183.377 80.5055 183.453 80.4199 183.502 80.3187L192.421 61.7985C192.421 61.7985 192.421 61.7818 192.421 61.7714C192.429 61.7511 192.436 61.7302 192.442 61.709C192.448 61.6913 192.453 61.6732 192.456 61.6549C192.457 61.6355 192.457 61.616 192.456 61.5966C192.462 61.558 192.462 61.5187 192.456 61.4801C192.457 61.4614 192.457 61.4426 192.456 61.4239C192.456 61.4031 192.456 61.3844 192.442 61.3656L192.423 61.3136C192.423 61.2949 192.407 61.2762 192.398 61.2574C192.39 61.2387 192.379 61.2241 192.369 61.2075C192.359 61.1909 192.348 61.1763 192.336 61.1617C192.322 61.1448 192.308 61.1288 192.292 61.1139L192.273 61.091C189.975 58.9724 188.345 56.229 187.583 53.1974C186.822 50.1658 186.962 46.9778 187.986 44.0245C189.01 41.0713 190.874 38.4811 193.349 36.5719C195.824 34.6626 198.802 33.5173 201.918 33.2764C205.035 33.0355 208.154 33.7096 210.893 35.2158C213.632 36.7221 215.872 38.9951 217.337 41.7559C218.803 44.5167 219.431 47.6454 219.145 50.758C218.858 53.8706 217.669 56.8319 215.723 59.2785C215.718 59.2863 215.713 59.2947 215.709 59.3035C215.696 59.3222 215.684 59.3388 215.673 59.3576C215.663 59.3742 215.654 59.3916 215.646 59.4096C215.646 59.4262 215.632 59.445 215.625 59.4637C215.619 59.4821 215.613 59.5009 215.609 59.5199C215.608 59.5386 215.608 59.5573 215.609 59.5761C215.607 59.5954 215.607 59.615 215.609 59.6343C215.608 59.6537 215.608 59.6732 215.609 59.6926C215.607 59.7113 215.607 59.7301 215.609 59.7488C215.608 59.7682 215.608 59.7876 215.609 59.807L215.628 59.8632C215.628 59.8819 215.642 59.8986 215.648 59.9152C215.658 59.9354 215.669 59.9548 215.682 59.9735L215.694 59.9985L227.358 76.9143C227.449 77.0439 227.586 77.1329 227.742 77.162C227.898 77.1912 228.058 77.1583 228.19 77.0704C228.323 76.9814 228.415 76.8436 228.447 76.6868C228.478 76.5301 228.447 76.3673 228.359 76.2338Z" fill="#C9DAF4"/>
<path d="M301.919 329.846L108.2 323.298C127.149 241.599 132.399 157.706 123.738 75.0645L317.458 81.6131C326.11 164.244 320.866 248.149 301.919 329.846Z" fill="#C9DAF4"/>
<path d="M285.638 317.895H91.8083C103.042 280.819 111.418 242.937 116.863 204.581C121.076 174.861 123.423 144.906 123.89 114.893C124.09 101.675 123.914 88.4958 123.363 75.3555H317.191C320.56 155.625 309.895 237.613 285.638 317.895Z" fill="white"/>
<path d="M69.8026 253.845H51.9816C50.9677 253.845 49.967 254.075 49.0551 254.518C48.1432 254.961 47.3438 255.606 46.7174 256.403C46.0909 257.2 45.6537 258.129 45.4388 259.12C45.2238 260.111 45.2368 261.138 45.4766 262.123L58.5032 315.648L110.566 332.283L164.353 315.34V293.59L92.3827 289.012L69.8026 253.845Z" fill="#454E54"/>
<path d="M99.3768 218.351L77.011 222.234L68.8954 240.13L76.2702 242.851L74.1102 251.052L72.6327 251.93L60.657 257.611C60.657 257.611 56.6929 259.276 58.5761 263.95L75.0841 296.801L76.9215 294.227H85.7176H104.793C107.029 294.301 109.152 295.221 110.734 296.801C113.369 299.448 112.77 305.995 112.77 305.995V315.648H132.94C132.94 315.648 136.126 313.686 138.477 313.151C138.477 313.151 141.653 312.032 144.048 312.816C146.443 313.601 146.913 316.012 146.913 316.012L148.865 325.47L150.89 333.646L152.447 339.421H154.709L156.671 347.051H157.16L154.455 357.904H178.548L177.923 354.67L169.131 352.364L162.658 347.888L162.108 346.791L161.9 339.421L163.981 339.392L161.509 307.092L181.559 329.276L183.812 327.447L190.935 333.299L191.351 332.974L195.944 343.171L214.843 328.13L212.308 325.993L204.083 329.69L196.113 330.252L195.051 329.755L189.499 322.723L190.288 322.045L159.563 281.467C159.563 281.467 156.908 278.633 152.979 279.496L136.059 284.74L140.04 257.01L101.264 261.856L100.538 265.831L97.9264 258.6L83.5139 251.633L83.5576 246.383L90.5433 248.179L94.6427 231.683L98.636 232.122L99.3768 218.351Z" fill="white"/>
<path d="M99.1915 221.609L78.1804 225.191L71.9834 241.26L76.3409 242.843L80.6671 238.442L79.5226 236.205L80.4299 233.97L82.9291 236.19L85.0079 230.647L98.6359 232.122L99.1915 221.609Z" fill="#325D9C"/>
<path d="M87.0974 230.874L81.8389 245.892L90.5975 248.233L94.6428 231.683L87.0974 230.874Z" fill="#FDC8AA"/>
<path d="M139.538 260.514L104.213 264.745L98.6357 294.196L135.697 286.742L139.538 260.514Z" fill="#454E54"/>
<path d="M79.8183 243.016L81.019 245.754L83.5577 246.383L83.514 251.633L78.6509 261.523L73.3362 255.041L74.1144 251.052L75.4088 246.139L79.8183 243.016Z" fill="#FDC8AA"/>
<path d="M72.6661 254.199L81.8867 265.404L86.2566 252.96L97.9243 258.6L100.538 265.831L95.3107 294.227H76.9174L61.3105 262.978C61.0118 262.381 60.9594 261.69 61.1645 261.055C61.3695 260.419 61.8157 259.89 62.4072 259.58L72.6661 254.199Z" fill="#3B82F4"/>
<path d="M110.735 296.801L153.672 283.76C154.495 283.51 155.375 283.52 156.192 283.788C157.01 284.057 157.724 284.571 158.238 285.261L187.419 324.447L181.553 329.276L161.399 307.01L156.39 301.448L161.89 339.41H152.517L149.384 327.695L147.812 320.572L146.926 315.867C146.926 315.867 146.187 312.077 141.426 312.517C136.665 312.956 132.948 315.638 132.948 315.638H112.778V301.904C112.778 301.904 112.345 298.221 110.735 296.801Z" fill="#325D9C"/>
<path d="M187.427 324.446L193.158 331.494L190.937 333.299L183.814 327.447L187.427 324.446Z" fill="#FDC8AA"/>
<path d="M154.717 339.42L159.486 339.404L160.523 346.906L156.679 347.051L154.717 339.42Z" fill="#FDC8AA"/>
<path d="M76.3639 243.122C76.3321 243.122 76.3004 243.117 76.2702 243.107L68.7789 240.427C68.7424 240.413 68.709 240.393 68.6808 240.366C68.6525 240.339 68.63 240.307 68.6145 240.271C68.599 240.235 68.5911 240.197 68.5911 240.159C68.5911 240.12 68.599 240.082 68.6145 240.046L76.7468 222.117C76.7656 222.075 76.7945 222.039 76.8308 222.011C76.8671 221.983 76.9097 221.964 76.9549 221.957L99.3206 218.076C99.362 218.068 99.4045 218.07 99.445 218.082C99.4854 218.093 99.5226 218.114 99.5537 218.142C99.5853 218.17 99.6101 218.205 99.6263 218.244C99.6425 218.283 99.6497 218.325 99.6473 218.367L98.9086 232.137C98.9065 232.175 98.8968 232.212 98.8799 232.246C98.863 232.28 98.8393 232.311 98.8103 232.335C98.7813 232.36 98.7476 232.379 98.7112 232.39C98.6748 232.401 98.6364 232.405 98.5985 232.401L85.1391 230.955L83.181 236.292C83.1649 236.335 83.1387 236.374 83.1047 236.404C83.0706 236.435 83.0297 236.457 82.9854 236.469C82.9412 236.48 82.895 236.48 82.8507 236.469C82.8065 236.458 82.7656 236.437 82.7315 236.407L80.5299 234.449L79.8078 236.18L80.9461 238.282C80.9744 238.334 80.9852 238.394 80.9769 238.453C80.9687 238.513 80.9419 238.568 80.9003 238.61L76.5553 243.047C76.5033 243.095 76.4349 243.122 76.3639 243.122ZM69.2596 240L76.289 242.518L80.3613 238.356L79.2584 236.319C79.2389 236.282 79.2278 236.241 79.226 236.2C79.2242 236.158 79.2317 236.116 79.248 236.078L80.172 233.868C80.1888 233.827 80.2154 233.79 80.2495 233.762C80.2836 233.733 80.3241 233.713 80.3676 233.704C80.4112 233.693 80.4566 233.694 80.5 233.704C80.5434 233.715 80.5836 233.736 80.6173 233.766L82.8043 235.712L84.6959 230.538C84.717 230.479 84.7575 230.429 84.8108 230.396C84.864 230.363 84.9269 230.348 84.9893 230.355L98.3717 231.812L99.0813 218.688L77.2046 222.483L69.2596 240Z" fill="#002E5D"/>
<path d="M90.5954 248.513C90.5719 248.516 90.5481 248.516 90.5246 248.513L80.9128 245.987C80.8728 245.976 80.8356 245.956 80.804 245.929C80.7724 245.902 80.747 245.869 80.7297 245.831L79.1274 242.321C79.1091 242.287 79.0979 242.249 79.0946 242.211C79.0912 242.173 79.0958 242.134 79.108 242.098C79.1202 242.061 79.1398 242.028 79.1656 241.999C79.1913 241.97 79.2226 241.947 79.2576 241.931C79.2926 241.915 79.3306 241.907 79.369 241.906C79.4075 241.905 79.4457 241.912 79.4813 241.927C79.5169 241.942 79.5491 241.963 79.5759 241.991C79.6027 242.019 79.6236 242.052 79.6372 242.088L81.1854 245.477L90.3914 247.897L94.393 231.633C94.4122 231.562 94.4584 231.501 94.5218 231.464C94.5851 231.427 94.6605 231.416 94.7319 231.434C94.8032 231.451 94.8648 231.496 94.9034 231.559C94.9419 231.621 94.9545 231.697 94.9382 231.768L90.868 248.309C90.8594 248.346 90.8436 248.38 90.8214 248.409C90.7992 248.439 90.7711 248.464 90.7389 248.482C90.695 248.506 90.6452 248.517 90.5954 248.513Z" fill="#002E5D"/>
<path d="M74.1102 251.416C74.0867 251.419 74.0629 251.419 74.0395 251.416C74.0032 251.407 73.969 251.392 73.9389 251.37C73.9088 251.348 73.8833 251.32 73.864 251.288C73.8446 251.256 73.8318 251.221 73.8262 251.184C73.8206 251.147 73.8224 251.109 73.8314 251.073L75.1278 246.079C75.1356 246.042 75.151 246.006 75.1728 245.975C75.1947 245.944 75.2226 245.918 75.2549 245.898C75.2872 245.878 75.3232 245.865 75.3608 245.859C75.3984 245.853 75.4367 245.855 75.4734 245.865C75.5102 245.875 75.5446 245.892 75.5746 245.915C75.6047 245.938 75.6297 245.967 75.6481 246C75.6666 246.034 75.6781 246.07 75.682 246.108C75.6859 246.146 75.6822 246.184 75.6709 246.22L74.3745 251.214C74.3582 251.272 74.3237 251.323 74.276 251.359C74.2284 251.396 74.1702 251.416 74.1102 251.416Z" fill="#002E5D"/>
<path d="M83.5575 251.841C83.5206 251.841 83.4839 251.834 83.4497 251.82C83.4155 251.806 83.3844 251.785 83.3583 251.759C83.3321 251.733 83.3115 251.702 83.2974 251.668C83.2834 251.634 83.2763 251.597 83.2766 251.56V246.383C83.2827 246.313 83.3148 246.247 83.3666 246.2C83.4184 246.152 83.4862 246.126 83.5565 246.126C83.6268 246.126 83.6946 246.152 83.7464 246.2C83.7982 246.247 83.8303 246.313 83.8364 246.383V251.556C83.8372 251.593 83.8306 251.63 83.817 251.665C83.8033 251.699 83.7829 251.731 83.757 251.757C83.731 251.784 83.7 251.805 83.6657 251.819C83.6315 251.834 83.5947 251.841 83.5575 251.841Z" fill="#002E5D"/>
<path d="M75.0799 297.082C75.0278 297.083 74.9766 297.068 74.9322 297.041C74.8877 297.014 74.8517 296.975 74.8281 296.928L58.2681 263.971C57.9754 263.389 57.8019 262.754 57.758 262.104C57.714 261.454 57.8004 260.802 58.0121 260.186C58.2238 259.57 58.5566 259.002 58.9908 258.516C59.425 258.031 59.9519 257.637 60.5405 257.358L72.5162 251.677C72.583 251.649 72.658 251.648 72.7255 251.673C72.7931 251.699 72.848 251.75 72.8789 251.816C72.9097 251.881 72.9141 251.956 72.8912 252.025C72.8682 252.094 72.8196 252.151 72.7555 252.184L60.7923 257.865C60.2711 258.112 59.8046 258.461 59.4202 258.891C59.0357 259.321 58.7411 259.823 58.5536 260.368C58.3661 260.914 58.2896 261.491 58.3285 262.067C58.3674 262.642 58.5209 263.204 58.78 263.719L75.34 296.677C75.3568 296.709 75.3669 296.745 75.3697 296.782C75.3725 296.819 75.3679 296.856 75.3563 296.891C75.3447 296.926 75.3262 296.958 75.302 296.986C75.2778 297.014 75.2483 297.037 75.2152 297.053C75.173 297.073 75.1267 297.083 75.0799 297.082Z" fill="#002E5D"/>
<path d="M81.9095 265.764C81.8678 265.765 81.8266 265.756 81.7888 265.738C81.751 265.72 81.7176 265.695 81.691 265.662L71.1116 252.727C71.0882 252.699 71.0707 252.666 71.0601 252.631C71.0494 252.595 71.0458 252.558 71.0495 252.522C71.0532 252.485 71.064 252.449 71.0815 252.417C71.0989 252.384 71.1226 252.355 71.1511 252.332C71.1797 252.309 71.2126 252.291 71.2479 252.281C71.2832 252.27 71.3203 252.266 71.357 252.27C71.3937 252.274 71.4294 252.284 71.4619 252.302C71.4944 252.319 71.5232 252.343 71.5465 252.372L81.8075 264.92L85.0642 255.51C85.0762 255.475 85.095 255.443 85.1193 255.415C85.1437 255.388 85.1733 255.366 85.2063 255.35C85.2394 255.334 85.2753 255.324 85.3119 255.322C85.3486 255.32 85.3853 255.325 85.42 255.337C85.4547 255.349 85.4867 255.368 85.5142 255.392C85.5417 255.416 85.564 255.446 85.5801 255.479C85.5961 255.512 85.6055 255.548 85.6077 255.585C85.6098 255.621 85.6048 255.658 85.5927 255.693L82.1738 265.581C82.1581 265.627 82.1306 265.668 82.0941 265.701C82.0576 265.733 82.0133 265.755 81.9657 265.764C81.9471 265.767 81.9281 265.767 81.9095 265.764Z" fill="#002E5D"/>
<path d="M103.104 293.553C103.035 293.552 102.969 293.525 102.918 293.478C102.867 293.432 102.835 293.368 102.829 293.299C102.822 293.23 102.841 293.162 102.882 293.106C102.922 293.05 102.982 293.012 103.05 292.997L135.512 286.505L139.713 257.399L101.493 262.168L95.9245 292.219C95.9199 292.257 95.9075 292.294 95.8881 292.327C95.8688 292.36 95.8428 292.389 95.8119 292.411C95.781 292.434 95.7458 292.45 95.7084 292.459C95.671 292.467 95.6323 292.468 95.5946 292.461C95.5569 292.454 95.521 292.44 95.4892 292.418C95.4573 292.397 95.4302 292.369 95.4094 292.337C95.3887 292.305 95.3748 292.269 95.3685 292.231C95.3623 292.193 95.3638 292.154 95.3731 292.117L100.979 261.865C100.99 261.806 101.019 261.753 101.063 261.712C101.106 261.671 101.161 261.645 101.22 261.638L140.007 256.8C140.049 256.795 140.093 256.8 140.133 256.814C140.173 256.829 140.21 256.852 140.24 256.883C140.27 256.913 140.293 256.95 140.307 256.991C140.321 257.032 140.325 257.075 140.319 257.118L136.036 286.786C136.028 286.843 136.002 286.896 135.962 286.939C135.922 286.981 135.871 287.009 135.814 287.021L103.158 293.551C103.14 293.554 103.122 293.554 103.104 293.553Z" fill="#002E5D"/>
<path d="M100.538 266.066C100.48 266.066 100.424 266.048 100.377 266.015C100.329 265.982 100.293 265.935 100.274 265.881L97.7037 258.818L85.2077 252.804C85.1461 252.769 85.1002 252.712 85.079 252.644C85.0578 252.576 85.063 252.503 85.0936 252.439C85.1241 252.375 85.1778 252.325 85.2437 252.299C85.3097 252.273 85.383 252.273 85.4491 252.298L98.0408 258.362C98.1073 258.393 98.1589 258.449 98.1844 258.518L100.792 265.689C100.805 265.724 100.811 265.761 100.809 265.797C100.808 265.834 100.799 265.871 100.784 265.904C100.768 265.937 100.746 265.968 100.719 265.992C100.692 266.017 100.66 266.037 100.625 266.049C100.597 266.059 100.568 266.065 100.538 266.066Z" fill="#002E5D"/>
<path d="M82.4174 284.388C82.363 284.388 82.3099 284.372 82.2644 284.342C82.219 284.312 82.1832 284.27 82.1615 284.22L75.2757 268.555C75.2507 268.487 75.2523 268.413 75.2804 268.347C75.3084 268.281 75.3607 268.228 75.4264 268.199C75.4922 268.171 75.5665 268.168 75.6341 268.192C75.7016 268.217 75.7573 268.266 75.7897 268.33L82.5693 283.756L98.0868 278.233C98.1218 278.219 98.1594 278.212 98.1972 278.213C98.2349 278.214 98.2722 278.222 98.3066 278.238C98.3411 278.253 98.372 278.275 98.3977 278.303C98.4233 278.331 98.4431 278.363 98.4559 278.399C98.4686 278.435 98.474 278.472 98.4719 278.51C98.4697 278.548 98.4599 278.585 98.4431 278.619C98.4263 278.652 98.4029 278.683 98.3742 278.707C98.3455 278.732 98.3122 278.75 98.2761 278.762L82.5111 284.38C82.4805 284.388 82.4489 284.391 82.4174 284.388Z" fill="#002E5D"/>
<path d="M138.654 315.919H112.778C112.703 315.919 112.632 315.889 112.579 315.836C112.526 315.784 112.497 315.712 112.497 315.638V303.129C112.497 300.28 111.681 298.085 110.075 296.605C107.484 294.219 103.657 294.504 103.624 294.506H77.0629L66.2421 309.659C65.9522 310.065 65.5518 310.378 65.0886 310.563C64.6255 310.747 64.1191 310.795 63.6297 310.7C63.1403 310.604 62.6886 310.371 62.3283 310.026C61.9681 309.681 61.7144 309.241 61.5975 308.756L49.8486 259.91C49.8373 259.874 49.8337 259.835 49.8379 259.797C49.8421 259.759 49.854 259.722 49.873 259.689C49.892 259.655 49.9177 259.626 49.9484 259.603C49.979 259.58 50.0141 259.564 50.0514 259.555C50.0887 259.546 50.1275 259.544 50.1653 259.551C50.2031 259.558 50.2392 259.572 50.2713 259.593C50.3033 259.614 50.3308 259.641 50.3518 259.673C50.3729 259.706 50.3872 259.742 50.3938 259.779L62.1427 308.625C62.2341 309.005 62.4329 309.352 62.7156 309.622C62.9983 309.893 63.3528 310.076 63.737 310.151C64.1211 310.225 64.5186 310.188 64.882 310.043C65.2453 309.898 65.5593 309.651 65.7864 309.332L76.6946 294.063C76.7201 294.026 76.754 293.996 76.7935 293.975C76.833 293.955 76.8769 293.944 76.9214 293.944H103.584C103.878 293.921 107.723 293.678 110.451 296.187C112.181 297.777 113.057 300.112 113.057 303.127V315.355H138.652C138.727 315.355 138.798 315.384 138.851 315.437C138.903 315.49 138.933 315.561 138.933 315.636C138.933 315.71 138.903 315.781 138.851 315.834C138.798 315.887 138.727 315.916 138.652 315.916L138.654 315.919Z" fill="#002E5D"/>
<path d="M85.5824 294.508C85.522 294.507 85.4634 294.488 85.4152 294.451C85.3669 294.415 85.3317 294.364 85.3147 294.306C85.2976 294.248 85.2997 294.187 85.3205 294.13C85.3414 294.073 85.3799 294.025 85.4304 293.992L96.4344 286.865C96.4652 286.842 96.5003 286.826 96.5375 286.818C96.5747 286.809 96.6133 286.808 96.6508 286.815C96.6884 286.822 96.7241 286.837 96.7559 286.858C96.7877 286.879 96.8148 286.906 96.8356 286.938C96.8564 286.97 96.8705 287.006 96.877 287.044C96.8834 287.081 96.8822 287.12 96.8732 287.157C96.8643 287.194 96.8479 287.229 96.8251 287.26C96.8022 287.29 96.7733 287.316 96.7403 287.335L85.7343 294.462C85.6893 294.492 85.6364 294.508 85.5824 294.508Z" fill="#002E5D"/>
<path d="M181.584 329.59C181.545 329.59 181.506 329.582 181.47 329.567C181.434 329.551 181.402 329.528 181.376 329.499L153.768 299.026C153.277 298.481 152.616 298.118 151.893 297.995C151.17 297.872 150.426 297.997 149.783 298.349L128.314 310.03C128.249 310.062 128.174 310.068 128.104 310.046C128.035 310.024 127.977 309.977 127.942 309.913C127.907 309.849 127.898 309.774 127.918 309.704C127.937 309.633 127.983 309.573 128.046 309.536L149.515 297.854C150.269 297.442 151.14 297.296 151.987 297.44C152.834 297.583 153.608 298.009 154.184 298.647L181.611 328.91L189.882 322.043L159.886 282.353C159.02 281.234 157.832 280.406 156.483 279.98C155.133 279.555 153.686 279.551 152.334 279.971L136.122 285.042C136.052 285.059 135.979 285.049 135.917 285.014C135.855 284.979 135.808 284.922 135.787 284.854C135.765 284.785 135.77 284.712 135.801 284.647C135.832 284.583 135.887 284.533 135.953 284.507L152.162 279.428C153.623 278.973 155.189 278.977 156.648 279.438C158.108 279.898 159.391 280.795 160.327 282.006L190.488 321.916C190.531 321.974 190.551 322.046 190.542 322.117C190.534 322.189 190.498 322.255 190.442 322.301L181.759 329.515C181.711 329.56 181.649 329.587 181.584 329.59Z" fill="#002E5D"/>
<path d="M163.977 339.702H152.455C152.394 339.701 152.334 339.681 152.285 339.643C152.237 339.606 152.202 339.553 152.187 339.494C152.147 339.356 148.283 325.639 146.818 316.853C146.52 315.061 145.717 313.852 144.431 313.259C140.45 311.428 133.082 315.831 133.009 315.875C132.977 315.898 132.942 315.913 132.904 315.921C132.866 315.929 132.827 315.93 132.789 315.922C132.751 315.914 132.715 315.899 132.684 315.876C132.652 315.854 132.626 315.826 132.605 315.793C132.585 315.76 132.572 315.723 132.567 315.685C132.562 315.646 132.565 315.607 132.575 315.57C132.586 315.533 132.604 315.498 132.628 315.468C132.653 315.439 132.683 315.414 132.717 315.397C133.03 315.207 140.417 310.798 144.664 312.75C146.131 313.424 147.04 314.774 147.369 316.76C148.732 324.929 152.178 337.394 152.667 339.138H163.673L161.135 307.065C161.13 307.027 161.134 306.989 161.144 306.953C161.155 306.917 161.173 306.883 161.197 306.854C161.221 306.825 161.25 306.801 161.284 306.783C161.317 306.766 161.354 306.755 161.392 306.752C161.429 306.749 161.467 306.754 161.503 306.766C161.539 306.778 161.572 306.797 161.6 306.822C161.628 306.847 161.651 306.878 161.667 306.912C161.684 306.946 161.693 306.983 161.694 307.021L164.256 339.396C164.259 339.434 164.254 339.472 164.242 339.508C164.229 339.543 164.209 339.576 164.183 339.604C164.158 339.634 164.126 339.658 164.091 339.675C164.055 339.692 164.016 339.701 163.977 339.702Z" fill="#002E5D"/>
<path d="M190.964 333.601C190.899 333.601 190.836 333.579 190.786 333.538L183.608 327.689C183.556 327.64 183.524 327.573 183.519 327.502C183.515 327.431 183.537 327.361 183.582 327.306C183.627 327.25 183.691 327.214 183.762 327.205C183.832 327.195 183.904 327.212 183.962 327.254L190.958 332.955L194.689 329.726L189.269 322.909C189.244 322.88 189.225 322.847 189.213 322.811C189.201 322.775 189.197 322.736 189.2 322.699C189.204 322.661 189.215 322.624 189.233 322.591C189.251 322.557 189.275 322.528 189.305 322.504C189.335 322.48 189.369 322.463 189.406 322.453C189.442 322.443 189.48 322.44 189.518 322.445C189.556 322.451 189.592 322.463 189.625 322.483C189.657 322.502 189.685 322.528 189.708 322.559L195.295 329.591C195.34 329.647 195.362 329.719 195.355 329.791C195.348 329.863 195.314 329.93 195.26 329.978L191.148 333.534C191.096 333.577 191.031 333.601 190.964 333.601Z" fill="#002E5D"/>
<path d="M195.955 343.443C195.932 343.445 195.91 343.445 195.888 343.443C195.846 343.433 195.808 343.413 195.775 343.386C195.742 343.358 195.716 343.324 195.699 343.285L191.537 334.089C191.509 334.022 191.508 333.946 191.535 333.878C191.562 333.81 191.614 333.755 191.681 333.725C191.747 333.695 191.823 333.692 191.892 333.717C191.96 333.742 192.017 333.793 192.049 333.858L196.052 342.719L214.4 328.117L212.259 326.346L204.053 329.973C204.023 329.986 203.991 329.994 203.958 329.996L196.196 330.504C196.158 330.508 196.12 330.505 196.083 330.495C196.046 330.484 196.012 330.466 195.983 330.441C195.953 330.417 195.929 330.387 195.912 330.353C195.894 330.319 195.884 330.282 195.882 330.244C195.879 330.206 195.884 330.167 195.897 330.131C195.91 330.095 195.93 330.062 195.956 330.034C195.981 330.006 196.013 329.984 196.048 329.968C196.083 329.953 196.12 329.945 196.158 329.944L203.872 329.44L212.196 325.763C212.244 325.742 212.297 325.735 212.348 325.742C212.4 325.749 212.449 325.77 212.49 325.803L215.03 327.907C215.061 327.932 215.086 327.964 215.104 328C215.121 328.036 215.131 328.075 215.132 328.115C215.131 328.155 215.121 328.195 215.102 328.231C215.084 328.267 215.058 328.298 215.026 328.323L196.127 343.364C196.08 343.409 196.019 343.437 195.955 343.443Z" fill="#002E5D"/>
<path d="M156.692 347.376C156.63 347.376 156.569 347.356 156.52 347.318C156.471 347.281 156.435 347.228 156.419 347.168L154.446 339.493C154.435 339.457 154.43 339.418 154.434 339.38C154.437 339.342 154.449 339.305 154.467 339.271C154.486 339.237 154.511 339.208 154.541 339.184C154.572 339.161 154.607 339.144 154.644 339.134C154.681 339.125 154.72 339.123 154.758 339.129C154.795 339.135 154.832 339.149 154.864 339.169C154.897 339.19 154.924 339.217 154.946 339.249C154.967 339.28 154.982 339.316 154.99 339.354L156.906 346.81L161.836 346.602L161.617 339.427C161.616 339.39 161.622 339.353 161.635 339.319C161.649 339.284 161.668 339.252 161.694 339.226C161.719 339.199 161.749 339.177 161.783 339.162C161.817 339.147 161.853 339.139 161.89 339.137C161.964 339.137 162.035 339.165 162.089 339.216C162.142 339.267 162.175 339.336 162.179 339.41L162.406 346.862C162.408 346.936 162.38 347.007 162.33 347.061C162.279 347.115 162.209 347.146 162.135 347.149L156.702 347.374L156.692 347.376Z" fill="#002E5D"/>
<path d="M178.62 358.184H154.467C154.424 358.184 154.382 358.174 154.343 358.156C154.305 358.137 154.271 358.11 154.244 358.076C154.219 358.042 154.201 358.003 154.192 357.961C154.183 357.919 154.184 357.876 154.194 357.835L156.667 348.054C156.673 348.016 156.688 347.98 156.709 347.947C156.73 347.915 156.758 347.888 156.79 347.867C156.823 347.845 156.859 347.831 156.897 347.825C156.936 347.819 156.975 347.82 157.012 347.83C157.05 347.839 157.085 347.856 157.115 347.88C157.146 347.904 157.171 347.934 157.19 347.968C157.208 348.002 157.22 348.039 157.223 348.078C157.227 348.116 157.222 348.155 157.21 348.192L154.827 357.629H178.275L177.703 354.909L169.025 352.636C168.993 352.628 168.963 352.614 168.936 352.595L162.549 348.154C162.519 348.133 162.493 348.107 162.473 348.076C162.454 348.045 162.44 348.01 162.433 347.974C162.427 347.938 162.427 347.901 162.435 347.865C162.443 347.829 162.458 347.795 162.479 347.765C162.499 347.735 162.526 347.709 162.557 347.689C162.588 347.669 162.622 347.656 162.658 347.649C162.695 347.642 162.732 347.643 162.768 347.651C162.803 347.659 162.838 347.673 162.868 347.694L169.208 352.102L178.006 354.405C178.057 354.418 178.103 354.444 178.139 354.48C178.176 354.517 178.202 354.563 178.215 354.613L178.893 357.841C178.902 357.881 178.902 357.924 178.892 357.964C178.882 358.004 178.863 358.042 178.837 358.074C178.811 358.107 178.779 358.135 178.741 358.154C178.704 358.173 178.662 358.183 178.62 358.184Z" fill="#002E5D"/>
<path d="M203.949 329.717L202.607 334.591L194.754 340.509L195.954 343.162L214.853 328.121L212.312 326.02L203.949 329.717Z" fill="#002E5D"/>
<path d="M110.56 332.554C110.531 332.554 110.502 332.55 110.474 332.541L65.4827 318.164C65.4477 318.153 65.4153 318.135 65.3873 318.111C65.3592 318.088 65.3362 318.059 65.3193 318.026C65.3025 317.993 65.2923 317.958 65.2893 317.921C65.2863 317.884 65.2905 317.848 65.3017 317.813C65.3129 317.778 65.3308 317.745 65.3546 317.717C65.3783 317.689 65.4073 317.666 65.44 317.649C65.4727 317.632 65.5083 317.622 65.5449 317.619C65.5815 317.616 65.6184 317.62 65.6533 317.631L110.56 331.99L128.784 326.249C128.854 326.231 128.927 326.241 128.989 326.276C129.052 326.311 129.098 326.369 129.12 326.437C129.141 326.505 129.136 326.579 129.105 326.643C129.074 326.708 129.02 326.758 128.953 326.783L110.641 332.552C110.614 332.556 110.587 332.557 110.56 332.554Z" fill="#002E5D"/>
<path d="M104.461 358.184C104.438 358.187 104.416 358.187 104.394 358.184C104.322 358.167 104.259 358.122 104.22 358.059C104.181 357.996 104.169 357.92 104.186 357.847L110.287 332.216C110.299 332.166 110.324 332.119 110.361 332.082C110.398 332.046 110.444 332.02 110.495 332.008C110.545 331.996 110.598 331.998 110.647 332.014C110.696 332.03 110.74 332.059 110.774 332.098L133.077 357.729C133.114 357.785 133.129 357.853 133.12 357.92C133.111 357.986 133.079 358.048 133.028 358.092C132.978 358.137 132.913 358.162 132.846 358.163C132.778 358.164 132.713 358.14 132.661 358.097L110.716 332.876L104.744 357.978C104.726 358.039 104.689 358.093 104.638 358.13C104.586 358.168 104.524 358.187 104.461 358.184Z" fill="#002E5D"/>
<path d="M155.114 355.336L169.096 352.36L177.942 354.676L178.62 357.903H154.467L155.114 355.336Z" fill="#002E5D"/>
<path d="M65.5783 358.184C65.5288 358.185 65.4802 358.172 65.4374 358.147C65.3946 358.122 65.3592 358.086 65.3348 358.043C65.2979 357.978 65.2882 357.902 65.3077 357.83C65.3272 357.758 65.3744 357.697 65.4389 357.66L110.43 332.029C110.463 332.008 110.499 331.993 110.537 331.986C110.575 331.979 110.614 331.979 110.652 331.988C110.69 331.997 110.725 332.014 110.756 332.037C110.787 332.06 110.813 332.089 110.832 332.123C110.852 332.157 110.864 332.194 110.868 332.233C110.872 332.271 110.868 332.31 110.856 332.347C110.844 332.384 110.825 332.418 110.799 332.447C110.774 332.476 110.742 332.5 110.707 332.516L65.7177 358.147C65.6753 358.171 65.6272 358.184 65.5783 358.184Z" fill="#002E5D"/>
<path d="M108.393 253.239C108.374 253.241 108.355 253.241 108.335 253.239C108.264 253.222 108.202 253.177 108.163 253.115C108.124 253.053 108.111 252.978 108.127 252.906C110.576 241.151 112.774 229.209 114.651 217.429C114.657 217.392 114.67 217.357 114.689 217.326C114.708 217.294 114.734 217.267 114.764 217.245C114.794 217.224 114.828 217.208 114.864 217.199C114.9 217.191 114.937 217.19 114.973 217.195C115.01 217.201 115.045 217.214 115.076 217.234C115.108 217.253 115.135 217.279 115.157 217.308C115.178 217.338 115.194 217.372 115.202 217.408C115.211 217.444 115.212 217.482 115.206 217.518C113.334 229.313 111.128 241.257 108.666 253.023C108.652 253.085 108.618 253.14 108.568 253.179C108.518 253.219 108.457 253.24 108.393 253.239Z" fill="#002E5D"/>
<path d="M285.638 318.179H204.805C204.73 318.179 204.659 318.149 204.606 318.096C204.553 318.044 204.524 317.972 204.524 317.898C204.524 317.823 204.553 317.752 204.606 317.699C204.659 317.646 204.73 317.617 204.805 317.617H285.43C309.671 237.324 320.26 155.906 316.923 75.6179H246.991C246.952 75.6213 246.913 75.6165 246.876 75.604C246.84 75.5914 246.806 75.5714 246.777 75.5451C246.748 75.5187 246.725 75.4868 246.71 75.4511C246.694 75.4155 246.686 75.377 246.686 75.3381C246.686 75.2991 246.694 75.2606 246.71 75.225C246.725 75.1894 246.748 75.1574 246.777 75.131C246.806 75.1047 246.84 75.0847 246.876 75.0721C246.913 75.0596 246.952 75.0548 246.991 75.0582H317.191C317.263 75.0581 317.333 75.086 317.385 75.136C317.438 75.186 317.469 75.2543 317.472 75.3266C319.149 115.297 317.326 156.118 312.062 196.655C306.797 237.191 297.99 278.008 285.915 317.973C285.898 318.033 285.862 318.086 285.812 318.123C285.762 318.16 285.701 318.18 285.638 318.179Z" fill="#002E5D"/>
<path d="M123.749 87.1505C123.675 87.1505 123.605 87.1217 123.553 87.0703C123.501 87.0189 123.471 86.949 123.47 86.8758C123.372 83.0469 123.243 79.1764 123.083 75.3496C123.081 75.3115 123.086 75.2734 123.1 75.2376C123.113 75.2018 123.133 75.1691 123.16 75.1415C123.187 75.114 123.219 75.0923 123.255 75.0776C123.291 75.063 123.329 75.0557 123.368 75.0562H154.85C154.92 75.0622 154.985 75.0943 155.033 75.1461C155.08 75.198 155.107 75.2657 155.107 75.3361C155.107 75.4064 155.08 75.4742 155.033 75.526C154.985 75.5778 154.92 75.6099 154.85 75.6159H123.655C123.809 79.3429 123.936 83.1239 124.029 86.8529C124.031 86.9271 124.003 86.9989 123.952 87.0527C123.901 87.1065 123.831 87.1379 123.757 87.1401L123.749 87.1505Z" fill="#002E5D"/>
<path d="M189.483 197.427L117.882 211.288C117.522 209.053 117.182 206.817 116.863 204.581C121.076 174.861 123.423 144.906 123.89 114.893C141.067 115.047 158.247 115.2 175.43 115.351C176.344 143.223 181.072 170.838 189.483 197.427Z" fill="#C9DAF4"/>
<path d="M182.11 194.817L109.546 202.101C107.3 169.859 109.497 137.462 116.074 105.818L175.588 111.789C173.959 139.633 176.153 167.569 182.11 194.817Z" fill="white"/>
<path d="M173.046 114.313C172.722 120.066 172.55 125.823 172.527 131.584C152.558 135.072 132.672 139.028 112.872 143.452C113.97 131.937 115.615 120.508 117.805 109.165L173.046 114.313Z" fill="#F3F8FF"/>
<path d="M112.713 145.183C132.56 140.702 152.501 136.674 172.538 133.099C172.538 134.348 172.538 134.984 172.567 136.241C152.424 139.947 132.377 144.124 112.428 148.773C112.528 147.337 112.588 146.619 112.713 145.183Z" fill="#F3F8FF"/>
<path d="M172.642 140.239C172.736 143.302 172.867 146.362 173.035 149.42C152.44 153.751 131.956 158.562 111.585 163.853C111.71 160.345 111.88 156.84 112.095 153.338C132.176 148.515 152.358 144.148 172.642 140.239Z" fill="#F3F8FF"/>
<path d="M111.446 181.248C132.268 175.207 153.216 169.642 174.29 164.55C175.336 173.901 176.793 183.184 178.66 192.401L112.191 198.663C111.807 192.861 111.558 187.056 111.446 181.248Z" fill="#F3F8FF"/>
<path d="M109.255 156.851H109.238C109.164 156.846 109.095 156.812 109.045 156.756C108.996 156.701 108.971 156.628 108.976 156.554C110.041 139.484 112.319 122.512 115.795 105.766C115.809 105.699 115.848 105.639 115.904 105.598C115.959 105.557 116.028 105.539 116.097 105.546L175.611 111.514C175.683 111.521 175.749 111.556 175.796 111.611C175.843 111.666 175.867 111.737 175.863 111.809C175.359 120.412 175.205 129.142 175.401 137.759C175.402 137.833 175.374 137.905 175.323 137.959C175.271 138.012 175.201 138.044 175.126 138.046C175.088 138.049 175.05 138.044 175.014 138.032C174.978 138.019 174.945 138 174.916 137.974C174.888 137.948 174.866 137.917 174.85 137.882C174.835 137.847 174.827 137.809 174.827 137.771C174.633 129.229 174.783 120.576 175.274 112.047L116.292 106.129C112.852 122.768 110.594 139.63 109.536 156.589C109.531 156.66 109.499 156.727 109.447 156.776C109.395 156.824 109.326 156.851 109.255 156.851Z" fill="#002E5D"/>
<path d="M109.54 202.387C109.474 202.388 109.411 202.364 109.361 202.321C109.332 202.297 109.309 202.267 109.292 202.234C109.275 202.201 109.264 202.165 109.261 202.127C108.814 195.699 108.527 189.178 108.406 182.739C108.406 182.665 108.436 182.593 108.488 182.541C108.541 182.488 108.612 182.458 108.687 182.458C108.761 182.458 108.833 182.488 108.886 182.541C108.938 182.593 108.968 182.665 108.968 182.739C109.084 189.072 109.365 195.485 109.8 201.809L167.363 196.016C167.437 196.009 167.51 196.031 167.568 196.078C167.625 196.126 167.661 196.194 167.669 196.267C167.673 196.304 167.669 196.341 167.659 196.376C167.648 196.412 167.631 196.444 167.608 196.473C167.585 196.501 167.556 196.525 167.524 196.542C167.491 196.559 167.456 196.57 167.419 196.573L109.569 202.385L109.54 202.387Z" fill="#002E5D"/>
<path d="M148.607 130.49H148.593L121.957 129.154C121.92 129.152 121.884 129.143 121.851 129.127C121.818 129.112 121.788 129.089 121.764 129.062C121.739 129.035 121.72 129.003 121.708 128.968C121.696 128.934 121.691 128.897 121.693 128.861C121.693 128.823 121.701 128.787 121.716 128.753C121.732 128.719 121.754 128.688 121.781 128.663C121.809 128.638 121.841 128.619 121.876 128.608C121.912 128.596 121.949 128.591 121.986 128.594L148.622 129.93C148.696 129.932 148.767 129.964 148.818 130.018C148.87 130.072 148.897 130.144 148.895 130.218C148.893 130.293 148.862 130.364 148.808 130.415C148.754 130.466 148.682 130.494 148.607 130.492V130.49Z" fill="#002E5D"/>
<path d="M165.721 145.939L120.392 145.25C120.355 145.249 120.319 145.241 120.285 145.227C120.251 145.212 120.22 145.191 120.195 145.165C120.169 145.138 120.149 145.107 120.135 145.073C120.121 145.038 120.115 145.002 120.115 144.965C120.119 144.891 120.15 144.822 120.203 144.77C120.256 144.719 120.327 144.689 120.4 144.688L165.729 145.379C165.799 145.385 165.864 145.417 165.912 145.469C165.959 145.521 165.986 145.588 165.986 145.659C165.986 145.729 165.959 145.797 165.912 145.849C165.864 145.9 165.799 145.933 165.729 145.939H165.721Z" fill="#002E5D"/>
<path d="M119.593 161.398C119.518 161.398 119.447 161.368 119.394 161.315C119.342 161.263 119.312 161.191 119.312 161.117C119.312 161.042 119.342 160.971 119.394 160.918C119.447 160.865 119.518 160.836 119.593 160.836L166.478 159.949C166.553 159.949 166.624 159.978 166.678 160.03C166.731 160.081 166.763 160.152 166.765 160.226C166.766 160.3 166.737 160.372 166.685 160.425C166.634 160.479 166.563 160.509 166.489 160.511L119.603 161.398H119.593Z" fill="#002E5D"/>
<path d="M119.564 177.566C119.493 177.562 119.427 177.532 119.378 177.482C119.329 177.431 119.301 177.364 119.299 177.293C119.297 177.223 119.322 177.154 119.368 177.101C119.414 177.048 119.479 177.014 119.549 177.007L167.916 174.474C167.953 174.472 167.99 174.477 168.025 174.489C168.06 174.502 168.092 174.521 168.119 174.545C168.146 174.57 168.168 174.6 168.184 174.634C168.199 174.667 168.208 174.704 168.21 174.74C168.213 174.815 168.188 174.887 168.138 174.943C168.089 174.998 168.019 175.032 167.945 175.036L119.578 177.566H119.564Z" fill="#002E5D"/>
<path d="M148.684 106.26L142.136 117.717L139.822 103.925L148.684 106.26Z" fill="#454E54"/>
<path d="M150.753 106.166C151.341 103.884 148.778 101.251 145.028 100.284C141.278 99.3177 137.761 100.384 137.173 102.666C136.584 104.948 139.148 107.581 142.898 108.548C146.648 109.514 150.165 108.448 150.753 106.166Z" fill="#454E54"/>
<path d="M194.804 281.44L266.406 295.301C271.573 263.397 272.332 230.934 268.662 198.823L208.856 199.354C207.945 227.23 203.217 254.849 194.804 281.44Z" fill="#C9DAF4"/>
<path d="M202.177 278.831L274.742 286.114C276.986 253.872 274.79 221.475 268.215 189.832L208.7 195.8C210.33 223.645 208.135 251.582 202.177 278.831Z" fill="white"/>
<path d="M211.243 198.326C211.565 204.079 211.738 209.836 211.761 215.597C231.738 219.085 251.624 223.042 271.419 227.469C270.321 215.955 268.676 204.525 266.485 193.182L211.243 198.326Z" fill="#F3F8FF"/>
<path d="M271.569 229.196C251.723 224.717 231.785 220.689 211.755 217.112C211.755 218.361 211.742 218.998 211.726 220.255C231.869 223.96 251.915 228.137 271.864 232.786C271.754 231.35 271.696 230.632 271.569 229.196Z" fill="#F3F8FF"/>
<path d="M211.643 224.252C211.55 227.315 211.419 230.375 211.249 233.433C231.842 237.764 252.325 242.574 272.699 247.864C272.574 244.357 272.403 240.853 272.187 237.351C252.106 232.532 231.925 228.165 211.643 224.252Z" fill="#F3F8FF"/>
<path d="M272.838 265.261C252.014 259.221 231.066 253.655 209.994 248.563C208.947 257.912 207.49 267.196 205.625 276.415L272.1 282.676C272.478 276.874 272.725 271.069 272.838 265.261Z" fill="#F3F8FF"/>
<path d="M275.028 240.864C274.956 240.864 274.888 240.837 274.836 240.788C274.784 240.74 274.753 240.673 274.749 240.602C273.689 223.643 271.431 206.781 267.992 190.141L209 196.06C209.491 204.591 209.643 213.242 209.447 221.784C209.447 221.821 209.44 221.858 209.425 221.892C209.411 221.926 209.39 221.956 209.363 221.982C209.337 222.008 209.305 222.028 209.27 222.041C209.236 222.054 209.199 222.06 209.162 222.059C209.125 222.058 209.089 222.05 209.055 222.035C209.021 222.02 208.991 221.999 208.965 221.972C208.94 221.945 208.92 221.914 208.906 221.88C208.893 221.845 208.887 221.808 208.887 221.772C209.083 213.154 208.927 204.425 208.426 195.822C208.421 195.75 208.445 195.679 208.492 195.624C208.539 195.569 208.605 195.534 208.677 195.527L268.192 189.559C268.261 189.551 268.33 189.57 268.386 189.61C268.442 189.651 268.481 189.711 268.495 189.779C271.97 206.525 274.249 223.497 275.315 240.566C275.319 240.64 275.293 240.713 275.244 240.769C275.195 240.824 275.126 240.859 275.052 240.864H275.028Z" fill="#002E5D"/>
<path d="M274.742 286.401H274.711L216.861 280.589C216.823 280.588 216.785 280.579 216.75 280.562C216.715 280.546 216.684 280.522 216.659 280.493C216.634 280.464 216.614 280.43 216.603 280.394C216.591 280.357 216.587 280.318 216.591 280.28C216.595 280.242 216.606 280.205 216.625 280.171C216.644 280.137 216.67 280.108 216.7 280.085C216.731 280.061 216.766 280.044 216.803 280.035C216.841 280.026 216.88 280.025 216.918 280.031L274.478 285.814C274.915 279.49 275.194 273.077 275.31 266.745C275.307 266.706 275.312 266.667 275.324 266.63C275.337 266.593 275.357 266.559 275.383 266.53C275.41 266.502 275.442 266.479 275.477 266.463C275.513 266.448 275.551 266.439 275.59 266.439C275.629 266.439 275.668 266.448 275.703 266.463C275.739 266.479 275.771 266.502 275.797 266.53C275.824 266.559 275.844 266.593 275.856 266.63C275.869 266.667 275.874 266.706 275.87 266.745C275.752 273.183 275.464 279.705 275.015 286.13C275.013 286.168 275.004 286.205 274.987 286.239C274.97 286.272 274.946 286.302 274.917 286.326C274.869 286.371 274.808 286.397 274.742 286.401Z" fill="#002E5D"/>
<path d="M235.677 214.503C235.603 214.505 235.53 214.477 235.476 214.426C235.422 214.374 235.391 214.304 235.389 214.229C235.387 214.155 235.415 214.082 235.466 214.028C235.517 213.974 235.588 213.943 235.663 213.941L262.298 212.605C262.369 212.607 262.437 212.635 262.488 212.685C262.539 212.734 262.569 212.801 262.573 212.872C262.576 212.943 262.552 213.013 262.507 213.067C262.461 213.121 262.396 213.156 262.326 213.165L235.69 214.501L235.677 214.503Z" fill="#002E5D"/>
<path d="M218.561 229.952C218.491 229.946 218.426 229.914 218.379 229.862C218.331 229.81 218.305 229.742 218.305 229.672C218.305 229.602 218.331 229.534 218.379 229.482C218.426 229.43 218.491 229.398 218.561 229.392L263.89 228.701C263.965 228.701 264.036 228.731 264.089 228.783C264.142 228.836 264.171 228.908 264.171 228.982C264.171 229.057 264.142 229.128 264.089 229.181C264.036 229.233 263.965 229.263 263.89 229.263L218.561 229.952Z" fill="#002E5D"/>
<path d="M264.692 245.411L217.806 244.524C217.769 244.524 217.733 244.515 217.699 244.501C217.665 244.486 217.635 244.464 217.609 244.438C217.584 244.411 217.564 244.38 217.551 244.345C217.537 244.311 217.531 244.274 217.532 244.237C217.532 244.2 217.539 244.164 217.554 244.13C217.569 244.096 217.59 244.065 217.616 244.04C217.643 244.014 217.674 243.994 217.709 243.981C217.743 243.968 217.78 243.961 217.817 243.963L264.702 244.849C264.776 244.849 264.848 244.879 264.901 244.931C264.953 244.984 264.983 245.055 264.983 245.13C264.983 245.204 264.953 245.276 264.901 245.329C264.848 245.381 264.776 245.411 264.702 245.411H264.692Z" fill="#002E5D"/>
<path d="M264.723 261.58H264.706L216.339 259.047C216.301 259.048 216.262 259.041 216.227 259.026C216.191 259.011 216.159 258.989 216.132 258.961C216.106 258.934 216.085 258.901 216.071 258.865C216.058 258.829 216.052 258.79 216.054 258.752C216.056 258.713 216.066 258.676 216.083 258.641C216.1 258.607 216.124 258.576 216.154 258.551C216.183 258.526 216.217 258.508 216.254 258.497C216.291 258.486 216.33 258.483 216.368 258.487L264.735 261.02C264.805 261.027 264.87 261.061 264.916 261.114C264.963 261.167 264.987 261.236 264.986 261.306C264.984 261.377 264.955 261.444 264.906 261.495C264.857 261.545 264.791 261.576 264.721 261.58H264.723Z" fill="#002E5D"/>
<path d="M235.598 190.272L242.149 201.73L244.463 187.938L235.598 190.272Z" fill="#454E54"/>
<path d="M240.969 194.697C244.719 193.73 247.282 191.097 246.694 188.815C246.106 186.533 242.589 185.467 238.839 186.433C235.089 187.4 232.525 190.033 233.113 192.315C233.702 194.597 237.218 195.663 240.969 194.697Z" fill="#454E54"/>
<path d="M264.356 98.2608L194.801 109.9L197.546 126.307L267.102 114.668L264.356 98.2608Z" fill="#F3F8FF"/>
<path d="M279.724 137.34H209.202V153.975H279.724V137.34Z" fill="#F3F8FF"/>
<path d="M195.557 219.433L132.094 223.326L133.112 239.929L196.576 236.037L195.557 219.433Z" fill="#F3F8FF"/>
<path d="M198.533 127.495L196.575 125.113L195.033 127.818C194.87 128.112 194.675 128.386 194.45 128.636C194.274 128.809 194.041 128.912 193.795 128.925C193.511 128.959 193.226 128.885 192.995 128.717C192.891 128.647 192.802 128.555 192.737 128.447C192.672 128.339 192.632 128.218 192.619 128.093C192.597 127.842 192.727 127.468 193.01 126.973L194.883 123.689L192.737 121.286C192.367 120.893 192.167 120.537 192.14 120.223C192.129 120.101 192.145 119.979 192.186 119.864C192.227 119.749 192.293 119.645 192.38 119.559C192.578 119.348 192.85 119.222 193.139 119.209C193.391 119.178 193.645 119.239 193.855 119.382C194.116 119.583 194.354 119.813 194.564 120.067L196.3 122.039L197.611 119.79C197.772 119.498 197.967 119.226 198.192 118.98C198.372 118.808 198.608 118.706 198.857 118.691C199.141 118.656 199.427 118.725 199.663 118.887C199.766 118.955 199.853 119.046 199.916 119.152C199.98 119.258 200.019 119.377 200.031 119.5C200.048 119.681 200.02 119.864 199.95 120.031C199.858 120.249 199.746 120.458 199.615 120.655L197.925 123.404L200.36 126.299C200.743 126.753 200.943 127.1 200.965 127.339C200.976 127.464 200.959 127.59 200.915 127.707C200.87 127.824 200.8 127.929 200.709 128.016C200.509 128.217 200.242 128.338 199.958 128.357C199.706 128.386 199.452 128.324 199.242 128.182C198.978 127.983 198.74 127.753 198.533 127.495Z" fill="#454E54"/>
<path d="M207.847 126.653L205.889 124.268L204.345 126.973C204.183 127.267 203.989 127.541 203.764 127.791C203.588 127.964 203.355 128.067 203.109 128.08C202.826 128.115 202.54 128.04 202.31 127.872C202.205 127.802 202.116 127.71 202.051 127.602C201.986 127.494 201.946 127.373 201.933 127.248C201.911 126.998 202.041 126.625 202.324 126.13L204.197 122.844L202.052 120.443C201.681 120.048 201.482 119.693 201.454 119.38C201.443 119.258 201.458 119.136 201.499 119.021C201.54 118.907 201.606 118.802 201.692 118.716C201.89 118.51 202.159 118.388 202.445 118.375C202.697 118.343 202.951 118.404 203.161 118.547C203.421 118.748 203.659 118.978 203.868 119.232L205.606 121.205L206.915 118.955C207.076 118.663 207.271 118.391 207.497 118.146C207.677 117.972 207.914 117.87 208.163 117.856C208.447 117.82 208.733 117.89 208.969 118.052C209.073 118.122 209.16 118.214 209.224 118.322C209.288 118.43 209.327 118.551 209.337 118.676C209.353 118.857 209.325 119.039 209.256 119.207C209.163 119.425 209.051 119.634 208.921 119.831L207.243 122.58L209.682 125.452C210.063 125.903 210.265 126.253 210.288 126.492C210.298 126.617 210.281 126.742 210.237 126.859C210.192 126.975 210.122 127.081 210.032 127.167C209.833 127.37 209.565 127.491 209.281 127.508C209.029 127.538 208.775 127.477 208.565 127.335C208.298 127.138 208.057 126.909 207.847 126.653Z" fill="#454E54"/>
<path d="M217.161 125.808L215.197 123.425L213.655 126.13C213.493 126.424 213.298 126.698 213.074 126.948C212.898 127.121 212.665 127.223 212.419 127.237C212.136 127.271 211.85 127.196 211.62 127.029C211.515 126.959 211.426 126.867 211.361 126.759C211.296 126.651 211.256 126.53 211.243 126.405C211.221 126.155 211.351 125.783 211.634 125.287L213.507 122.002L211.362 119.6C210.991 119.205 210.792 118.85 210.764 118.537C210.753 118.415 210.768 118.293 210.809 118.178C210.85 118.062 210.916 117.958 211.002 117.871C211.2 117.666 211.47 117.545 211.755 117.532C212.007 117.498 212.262 117.56 212.471 117.705C212.731 117.905 212.969 118.134 213.178 118.387L214.916 120.36L216.225 118.112C216.386 117.82 216.581 117.548 216.807 117.303C216.987 117.13 217.224 117.027 217.473 117.014C217.757 116.978 218.043 117.047 218.279 117.209C218.382 117.277 218.469 117.368 218.533 117.474C218.597 117.58 218.636 117.7 218.647 117.823C218.662 118.004 218.634 118.186 218.566 118.354C218.473 118.571 218.361 118.78 218.231 118.978L216.553 121.727L218.996 124.619C219.378 125.07 219.58 125.417 219.602 125.66C219.613 125.784 219.595 125.909 219.551 126.026C219.507 126.143 219.437 126.248 219.346 126.334C219.147 126.537 218.879 126.659 218.595 126.675C218.343 126.706 218.089 126.645 217.879 126.503C217.611 126.302 217.37 126.069 217.161 125.808Z" fill="#454E54"/>
<path d="M226.473 124.965L224.515 122.582L222.973 125.288C222.81 125.58 222.615 125.855 222.393 126.105C222.216 126.277 221.983 126.379 221.737 126.392C221.454 126.426 221.169 126.352 220.938 126.184C220.833 126.115 220.745 126.022 220.68 125.914C220.615 125.806 220.574 125.685 220.561 125.56C220.538 125.31 220.667 124.936 220.953 124.443L222.825 121.157L220.682 118.755C220.312 118.36 220.112 118.006 220.083 117.69C220.073 117.569 220.089 117.447 220.13 117.332C220.171 117.218 220.237 117.113 220.322 117.026C220.52 116.82 220.79 116.698 221.075 116.685C221.327 116.654 221.582 116.716 221.791 116.86C222.052 117.06 222.289 117.289 222.499 117.542L224.236 119.515L225.545 117.268C225.706 116.975 225.901 116.703 226.128 116.458C226.307 116.285 226.543 116.183 226.792 116.169C227.075 116.132 227.362 116.202 227.597 116.365C227.701 116.432 227.787 116.522 227.851 116.628C227.915 116.734 227.954 116.853 227.965 116.976C227.981 117.158 227.954 117.34 227.886 117.509C227.793 117.727 227.681 117.936 227.551 118.133L225.874 120.874L228.307 123.768C228.687 124.222 228.889 124.57 228.912 124.809C228.923 124.933 228.905 125.058 228.861 125.175C228.817 125.292 228.747 125.397 228.656 125.483C228.456 125.686 228.187 125.807 227.903 125.824C227.652 125.855 227.398 125.793 227.189 125.652C226.924 125.453 226.683 125.222 226.473 124.965Z" fill="#454E54"/>
<path d="M222.584 154.468L221.155 151.736L219.092 154.065C218.873 154.319 218.626 154.548 218.356 154.747C218.149 154.881 217.9 154.933 217.656 154.895C217.372 154.87 217.107 154.736 216.918 154.522C216.83 154.433 216.762 154.325 216.72 154.207C216.678 154.089 216.662 153.963 216.674 153.838C216.703 153.588 216.907 153.25 217.286 152.822L219.794 149.99L218.185 147.2C217.908 146.738 217.785 146.35 217.817 146.036C217.831 145.915 217.872 145.799 217.936 145.695C218 145.591 218.086 145.503 218.187 145.435C218.423 145.274 218.711 145.21 218.992 145.256C219.246 145.275 219.483 145.388 219.658 145.572C219.873 145.822 220.059 146.095 220.212 146.386L221.508 148.675L223.25 146.742C223.467 146.488 223.715 146.262 223.987 146.068C224.198 145.935 224.45 145.883 224.696 145.92C224.98 145.944 225.246 146.07 225.443 146.276C225.531 146.363 225.598 146.47 225.639 146.587C225.68 146.704 225.693 146.829 225.678 146.952C225.657 147.132 225.594 147.305 225.493 147.456C225.358 147.65 225.205 147.831 225.037 147.999L222.834 150.342L224.625 153.671C224.903 154.192 225.03 154.574 225.006 154.818C224.991 154.942 224.948 155.061 224.881 155.166C224.814 155.271 224.723 155.36 224.617 155.426C224.38 155.583 224.093 155.648 223.812 155.607C223.559 155.586 223.322 155.473 223.146 155.29C222.926 155.04 222.737 154.764 222.584 154.468Z" fill="#3B82F4"/>
<path d="M231.873 155.546L230.444 152.812L228.384 155.14C228.164 155.394 227.917 155.623 227.647 155.823C227.439 155.956 227.19 156.009 226.946 155.971C226.661 155.945 226.397 155.811 226.207 155.598C226.119 155.509 226.051 155.401 226.01 155.283C225.968 155.164 225.953 155.038 225.966 154.914C225.995 154.664 226.199 154.327 226.577 153.898L229.074 151.066L227.474 148.277C227.193 147.815 227.071 147.426 227.106 147.114C227.12 146.993 227.16 146.876 227.224 146.772C227.288 146.668 227.374 146.58 227.476 146.513C227.711 146.351 228 146.286 228.282 146.332C228.535 146.352 228.772 146.465 228.948 146.648C229.162 146.898 229.348 147.171 229.501 147.462L230.8 149.751L232.541 147.818C232.758 147.564 233.005 147.338 233.276 147.143C233.487 147.011 233.739 146.958 233.985 146.996C234.271 147.019 234.537 147.146 234.735 147.354C234.822 147.441 234.889 147.547 234.93 147.664C234.97 147.78 234.984 147.905 234.97 148.028C234.949 148.208 234.885 148.381 234.782 148.531C234.647 148.725 234.494 148.907 234.327 149.074L232.123 151.422L233.917 154.751C234.194 155.271 234.32 155.654 234.296 155.898C234.28 156.022 234.238 156.141 234.17 156.246C234.103 156.351 234.013 156.44 233.906 156.505C233.67 156.663 233.383 156.728 233.101 156.686C232.848 156.665 232.612 156.552 232.435 156.37C232.216 156.119 232.027 155.842 231.873 155.546Z" fill="#3B82F4"/>
<path d="M250.454 157.706L249.024 154.972L246.962 157.29C246.744 157.545 246.496 157.774 246.225 157.972C246.019 158.106 245.77 158.16 245.526 158.122C245.242 158.096 244.978 157.963 244.788 157.75C244.699 157.66 244.632 157.552 244.59 157.433C244.548 157.315 244.532 157.188 244.544 157.063C244.573 156.813 244.777 156.475 245.156 156.049L247.653 153.215L246.044 150.427C245.767 149.965 245.644 149.577 245.676 149.264C245.69 149.142 245.73 149.026 245.794 148.922C245.858 148.818 245.944 148.729 246.046 148.662C246.282 148.501 246.57 148.436 246.852 148.481C247.105 148.502 247.342 148.614 247.518 148.797C247.732 149.047 247.918 149.32 248.071 149.611L249.368 151.9L251.109 149.967C251.327 149.714 251.574 149.488 251.846 149.295C252.057 149.162 252.309 149.11 252.556 149.147C252.84 149.169 253.106 149.296 253.303 149.503C253.391 149.59 253.458 149.697 253.498 149.814C253.539 149.931 253.553 150.056 253.538 150.179C253.517 150.359 253.453 150.531 253.353 150.681C253.217 150.875 253.064 151.057 252.897 151.224L250.693 153.573L252.487 156.903C252.766 157.425 252.903 157.806 252.866 158.049C252.851 158.174 252.808 158.293 252.741 158.399C252.673 158.504 252.583 158.593 252.477 158.659C252.239 158.815 251.953 158.879 251.671 158.838C251.419 158.816 251.183 158.704 251.005 158.524C250.789 158.274 250.604 158 250.454 157.706Z" fill="#3B82F4"/>
<path d="M145.844 241.503L143.788 239.204L142.365 241.967C142.214 242.268 142.031 242.55 141.817 242.81C141.649 242.99 141.42 243.103 141.174 243.126C140.893 243.17 140.605 243.105 140.369 242.945C140.261 242.88 140.169 242.792 140.1 242.687C140.03 242.583 139.984 242.464 139.965 242.339C139.932 242.092 140.046 241.715 140.309 241.207L142.044 237.845L139.797 235.533C139.41 235.154 139.195 234.807 139.154 234.492C139.138 234.372 139.148 234.249 139.184 234.132C139.22 234.016 139.281 233.909 139.362 233.818C139.551 233.604 139.814 233.471 140.098 233.446C140.349 233.404 140.605 233.455 140.82 233.589C141.09 233.778 141.337 233.997 141.557 234.243L143.376 236.14L144.589 233.839C144.737 233.541 144.921 233.261 145.136 233.007C145.309 232.826 145.541 232.714 145.79 232.69C146.071 232.643 146.359 232.7 146.601 232.85C146.707 232.915 146.798 233.002 146.866 233.106C146.934 233.209 146.978 233.327 146.995 233.45C147.019 233.629 147 233.812 146.938 233.982C146.855 234.204 146.752 234.418 146.63 234.621L145.07 237.441L147.625 240.231C148.025 240.666 148.241 241.005 148.274 241.249C148.29 241.373 148.278 241.499 148.238 241.617C148.198 241.736 148.133 241.844 148.045 241.934C147.855 242.146 147.592 242.279 147.309 242.306C147.059 242.349 146.802 242.298 146.587 242.165C146.313 241.975 146.064 241.753 145.844 241.503Z" fill="#F70431"/>
<path d="M155.114 240.267L153.056 237.978L151.631 240.735C151.48 241.032 151.296 241.311 151.084 241.567C150.915 241.748 150.686 241.86 150.44 241.884C150.159 241.928 149.871 241.863 149.635 241.703C149.527 241.638 149.435 241.551 149.365 241.447C149.295 241.342 149.25 241.223 149.231 241.099C149.198 240.849 149.313 240.471 149.575 239.965L151.312 236.611L149.069 234.301C148.682 233.922 148.468 233.575 148.426 233.26C148.41 233.14 148.42 233.017 148.456 232.901C148.492 232.785 148.553 232.678 148.634 232.588C148.824 232.374 149.088 232.24 149.373 232.216C149.623 232.173 149.88 232.224 150.095 232.357C150.364 232.547 150.611 232.766 150.832 233.011L152.65 234.908L153.864 232.619C154.011 232.321 154.195 232.041 154.411 231.787C154.583 231.607 154.814 231.495 155.062 231.471C155.344 231.422 155.634 231.48 155.876 231.633C155.982 231.696 156.073 231.783 156.141 231.886C156.209 231.99 156.253 232.107 156.269 232.23C156.294 232.41 156.275 232.593 156.213 232.763C156.129 232.985 156.026 233.198 155.905 233.402L154.342 236.217L156.9 239.008C157.299 239.443 157.515 239.783 157.547 240.025C157.563 240.149 157.551 240.275 157.511 240.393C157.472 240.512 157.407 240.62 157.32 240.71C157.13 240.922 156.867 241.055 156.583 241.082C156.333 241.125 156.077 241.074 155.861 240.941C155.585 240.748 155.335 240.521 155.114 240.267Z" fill="#F70431"/>
<path d="M173.655 237.797L171.597 235.508L170.17 238.271C170.019 238.568 169.836 238.847 169.624 239.103C169.456 239.283 169.227 239.395 168.981 239.418C168.699 239.463 168.41 239.399 168.174 239.239C168.066 239.173 167.974 239.085 167.905 238.981C167.835 238.876 167.789 238.757 167.77 238.633C167.737 238.383 167.851 238.009 168.116 237.499L169.851 234.138L167.606 231.828C167.222 231.45 167.008 231.103 166.965 230.788C166.948 230.667 166.958 230.544 166.994 230.428C167.03 230.311 167.091 230.204 167.173 230.114C167.361 229.899 167.625 229.766 167.91 229.741C168.16 229.698 168.417 229.749 168.632 229.885C168.901 230.074 169.148 230.292 169.368 230.536L171.187 232.434L172.402 230.133C172.55 229.834 172.734 229.554 172.95 229.3C173.122 229.119 173.353 229.006 173.601 228.982C173.883 228.934 174.173 228.992 174.415 229.144C174.521 229.208 174.611 229.295 174.679 229.398C174.747 229.502 174.791 229.619 174.808 229.741C174.831 229.922 174.811 230.105 174.75 230.276C174.667 230.497 174.564 230.711 174.442 230.913L172.881 233.73L175.436 236.519C175.836 236.956 176.052 237.296 176.086 237.539C176.105 237.664 176.095 237.792 176.057 237.913C176.02 238.035 175.955 238.146 175.867 238.238C175.675 238.448 175.413 238.58 175.131 238.61C174.88 238.65 174.624 238.599 174.408 238.467C174.13 238.276 173.877 238.051 173.655 237.797Z" fill="#F70431"/>
<path d="M230.453 57.8755L161.698 62.0928L163.429 90.3195L232.185 86.1021L230.453 57.8755Z" fill="#3B82F4"/>
<path d="M184.166 65.5588C184.011 65.5596 183.862 65.4999 183.75 65.3923C181.31 63.0762 179.6 60.0979 178.829 56.8233C178.058 53.5487 178.26 50.1202 179.411 46.959C180.561 43.7977 182.61 41.0413 185.305 39.0281C188.001 37.015 191.225 35.8328 194.583 35.6267C197.941 35.4206 201.286 36.1996 204.207 37.868C207.128 39.5365 209.499 42.0217 211.027 45.0185C212.556 48.0153 213.176 51.3933 212.811 54.7376C212.446 58.0819 211.113 61.247 208.975 63.8441C208.926 63.9106 208.864 63.9664 208.793 64.0082C208.722 64.0499 208.643 64.0767 208.561 64.0869C208.479 64.0971 208.396 64.0904 208.317 64.0674C208.238 64.0443 208.164 64.0054 208.101 63.9529C208.037 63.9004 207.985 63.8354 207.948 63.762C207.91 63.6886 207.888 63.6084 207.882 63.5261C207.877 63.4438 207.888 63.3613 207.916 63.2836C207.943 63.2059 207.986 63.1346 208.043 63.0741C210.029 60.6591 211.266 57.7168 211.604 54.6083C211.941 51.4998 211.364 48.3604 209.942 45.5755C208.521 42.7906 206.317 40.4813 203.601 38.9312C200.886 37.381 197.777 36.6574 194.656 36.8493C191.535 37.0411 188.538 38.14 186.033 40.0111C183.528 41.8821 181.624 44.4439 180.554 47.382C179.484 50.32 179.295 53.5065 180.011 56.5503C180.727 59.594 182.315 62.3626 184.582 64.5162C184.67 64.5994 184.73 64.7068 184.756 64.8247C184.781 64.9425 184.771 65.0654 184.726 65.1773C184.682 65.2893 184.604 65.3853 184.504 65.4529C184.405 65.5205 184.287 65.5567 184.166 65.5567V65.5588Z" fill="#002E5D"/>
<path d="M219.9 81.1658C219.8 81.1657 219.702 81.1409 219.614 81.0937C219.526 81.0465 219.451 80.9783 219.396 80.8953L208.005 63.7943C207.925 63.6607 207.9 63.5016 207.934 63.3499C207.968 63.1982 208.06 63.0655 208.189 62.9793C208.319 62.8931 208.477 62.8601 208.63 62.8871C208.783 62.9141 208.92 62.999 209.012 63.1242L220.399 80.2252C220.486 80.3582 220.517 80.5202 220.486 80.6761C220.454 80.8319 220.363 80.969 220.23 81.0576C220.133 81.1257 220.018 81.1634 219.9 81.1658Z" fill="#002E5D"/>
<path d="M174.952 83.925C174.849 83.9245 174.748 83.8978 174.658 83.8473C174.568 83.7969 174.493 83.7244 174.439 83.6367C174.385 83.549 174.354 83.449 174.35 83.3462C174.345 83.2433 174.367 83.141 174.413 83.0489L183.625 64.6889C183.699 64.5494 183.825 64.4446 183.976 64.3967C184.127 64.3488 184.29 64.3616 184.431 64.4325C184.572 64.5034 184.68 64.6267 184.732 64.7761C184.784 64.9255 184.775 65.0891 184.707 65.232L175.495 83.5962C175.444 83.6959 175.366 83.7794 175.27 83.8374C175.174 83.8955 175.064 83.9258 174.952 83.925Z" fill="#002E5D"/>
<path d="M232.87 358.184H33.3241C33.2853 358.188 33.2463 358.183 33.2094 358.17C33.1726 358.158 33.1387 358.138 33.1101 358.111C33.0814 358.085 33.0585 358.053 33.0428 358.018C33.0271 357.982 33.019 357.943 33.019 357.904C33.019 357.866 33.0271 357.827 33.0428 357.791C33.0585 357.756 33.0814 357.724 33.1101 357.697C33.1387 357.671 33.1726 357.651 33.2094 357.639C33.2463 357.626 33.2853 357.621 33.3241 357.625H232.885C232.923 357.621 232.962 357.626 232.999 357.639C233.036 357.651 233.07 357.671 233.099 357.697C233.127 357.724 233.15 357.756 233.166 357.791C233.182 357.827 233.19 357.866 233.19 357.904C233.19 357.943 233.182 357.982 233.166 358.018C233.15 358.053 233.127 358.085 233.099 358.111C233.07 358.138 233.036 358.158 232.999 358.17C232.962 358.183 232.923 358.188 232.885 358.184H232.87Z" fill="#002E5D"/>
<path d="M362.526 368H208.705C208.63 368 208.559 367.97 208.506 367.918C208.453 367.865 208.424 367.793 208.424 367.719C208.424 367.644 208.453 367.573 208.506 367.52C208.559 367.468 208.63 367.438 208.705 367.438H362.526C362.601 367.438 362.672 367.468 362.725 367.52C362.778 367.573 362.807 367.644 362.807 367.719C362.807 367.793 362.778 367.865 362.725 367.918C362.672 367.97 362.601 368 362.526 368Z" fill="#002E5D"/>
<path d="M357.469 250.738C356.764 247.317 350.382 216.425 350.382 216.425L341.559 211.999L346.848 186.997C347.184 185.405 347.198 183.762 346.889 182.164C346.581 180.566 345.955 179.046 345.051 177.694C344.146 176.341 342.98 175.183 341.621 174.288C340.263 173.393 338.739 172.778 337.139 172.48L321.532 169.567L321.37 178.515L322.356 178.723L322.847 191.908L327.344 193.483L327.044 199.491L328.407 208.953L306.106 198.584L291.868 174.116V166.388L289.219 162.238L286.989 165.526L281 159.878L277.639 163.67L286.2 174.853L297.747 204.527L318.14 220.134L317.668 255.203L323.86 356.779L322.772 360.941L317.241 364.423V367.573L330.351 367.527L329.113 358.702L329.04 356.746L335.859 300.324L336.529 318.921L337.888 356.913H338.319L337.336 360.729L331.847 364.356L331.737 367.49L344.865 367.513L343.631 358.638L343.97 356.913L348.376 271.668L350.631 270.276L352.25 266.888L353.636 265.623L357.915 254.533C357.915 254.533 358.177 254.155 357.469 250.738ZM347.423 262.222L343.864 251.726V233.341L350.979 252.436L347.423 262.222Z" fill="white"/>
<path d="M330.178 366.081H326.699L326.462 360.733L321.166 367.578L330.492 367.673L330.178 366.081Z" fill="#002E5D"/>
<path d="M344.678 366.081H341.199L340.961 360.733L335.666 367.578L344.992 367.673L344.678 366.081Z" fill="#002E5D"/>
<path d="M335.857 300.037L337.884 356.917H341.557L338.647 278.501L335.857 300.037Z" fill="#325D9C"/>
<path d="M322.366 178.721L327.565 179.911L327.296 193.481L322.858 191.858L322.366 178.721Z" fill="#FDC8AA"/>
<path d="M343.846 225.582L345.706 220.381L355.199 251.481L352.242 263.883L349.731 261.163L348.536 259.114L350.977 252.411L343.846 232.64V225.582Z" fill="#F70431"/>
<path d="M321.382 169.536L332.729 171.515C335.834 172.056 338.603 173.795 340.437 176.358C342.271 178.921 343.025 182.102 342.535 185.216L335.857 227.625H331.104L327.15 200.009L334.556 200.045L333.268 177.614L321.38 175.117L321.382 169.536Z" fill="#325D9C"/>
<path d="M286.801 165.341L280.873 160.026L277.643 163.718L280.265 167.235L286.204 174.855L288.886 181.747L291.995 179.77L286.801 165.341Z" fill="#FDC8AA"/>
<path d="M317.664 255.235L323.861 356.917H327.296L336.839 252.675L317.664 255.235Z" fill="#325D9C"/>
<path d="M336.839 252.673L335.023 232.211H329.013L325.65 211.034L302.874 199.872L292.006 179.801L291.995 179.77L288.886 181.747L297.71 204.423L318.138 220.192L317.661 255.176L317.664 255.235L336.839 252.675V252.673Z" fill="#F70431"/>
<path d="M338.267 227.912H331.104C331.037 227.912 330.972 227.888 330.921 227.844C330.87 227.8 330.836 227.74 330.825 227.673L326.78 199.533C326.773 199.495 326.773 199.457 326.781 199.42C326.79 199.383 326.805 199.348 326.827 199.317C326.849 199.286 326.878 199.26 326.91 199.24C326.943 199.22 326.979 199.207 327.016 199.202C327.054 199.196 327.092 199.199 327.129 199.209C327.166 199.219 327.2 199.236 327.23 199.259C327.26 199.283 327.285 199.312 327.303 199.346C327.321 199.379 327.332 199.416 327.336 199.454L331.354 227.355H338.038L346.57 186.839C346.899 185.277 346.911 183.666 346.606 182.099C346.301 180.533 345.684 179.043 344.793 177.719C343.902 176.395 342.754 175.264 341.417 174.391C340.081 173.519 338.583 172.924 337.012 172.641L321.667 169.873V178.28L327.506 179.568C327.567 179.584 327.621 179.619 327.659 179.669C327.697 179.719 327.716 179.78 327.714 179.843L327.619 195.916C327.619 195.953 327.612 195.989 327.598 196.023C327.584 196.057 327.564 196.088 327.538 196.114C327.512 196.14 327.481 196.16 327.447 196.174C327.413 196.188 327.376 196.195 327.34 196.195C327.303 196.195 327.267 196.188 327.233 196.174C327.199 196.159 327.168 196.139 327.142 196.113C327.116 196.086 327.095 196.055 327.082 196.021C327.068 195.987 327.061 195.951 327.061 195.914L327.155 180.066L321.328 178.78C321.265 178.766 321.209 178.731 321.169 178.681C321.129 178.631 321.107 178.569 321.107 178.505V169.536C321.108 169.496 321.117 169.457 321.134 169.421C321.152 169.385 321.176 169.353 321.207 169.328C321.238 169.301 321.275 169.282 321.315 169.272C321.354 169.261 321.396 169.26 321.436 169.268L337.112 172.092C338.757 172.387 340.325 173.01 341.725 173.924C343.125 174.837 344.327 176.022 345.26 177.408C346.193 178.794 346.839 180.354 347.158 181.994C347.477 183.635 347.464 185.323 347.119 186.958L338.548 227.696C338.532 227.759 338.496 227.814 338.445 227.854C338.394 227.893 338.331 227.914 338.267 227.912Z" fill="#002E5D"/>
<path d="M327.359 193.762C327.327 193.762 327.295 193.756 327.265 193.745L322.768 192.172C322.715 192.154 322.668 192.119 322.634 192.073C322.6 192.028 322.581 191.973 322.579 191.916L322.086 178.723C322.083 178.649 322.11 178.577 322.161 178.522C322.212 178.468 322.282 178.435 322.356 178.432C322.393 178.43 322.43 178.436 322.465 178.449C322.499 178.461 322.531 178.481 322.558 178.506C322.586 178.531 322.607 178.562 322.623 178.595C322.638 178.629 322.646 178.665 322.647 178.702L323.132 191.696L327.45 193.209C327.512 193.231 327.564 193.274 327.597 193.331C327.631 193.388 327.643 193.454 327.632 193.519C327.621 193.584 327.588 193.643 327.538 193.686C327.488 193.729 327.424 193.753 327.359 193.754V193.762Z" fill="#002E5D"/>
<path d="M322.073 206.664C322.031 206.664 321.989 206.654 321.95 206.635L305.994 198.836C305.945 198.811 305.903 198.773 305.875 198.725L291.638 174.256C291.613 174.213 291.6 174.165 291.6 174.116V166.471L289.226 162.748L287.176 165.759C287.152 165.794 287.122 165.822 287.086 165.843C287.05 165.864 287.009 165.877 286.968 165.88C286.927 165.885 286.886 165.881 286.848 165.867C286.809 165.854 286.774 165.832 286.745 165.803L281.017 160.282L278.001 163.683L285.16 173.086C285.205 173.146 285.225 173.22 285.215 173.294C285.205 173.368 285.166 173.435 285.107 173.481C285.047 173.526 284.972 173.546 284.898 173.536C284.824 173.526 284.758 173.487 284.712 173.428L277.417 163.839C277.377 163.787 277.357 163.723 277.36 163.658C277.362 163.593 277.388 163.531 277.431 163.483L280.794 159.691C280.819 159.663 280.849 159.64 280.883 159.624C280.918 159.608 280.955 159.599 280.992 159.597C281.03 159.596 281.067 159.602 281.103 159.615C281.138 159.628 281.17 159.649 281.198 159.675L286.897 165.168L288.999 162.08C289.024 162.041 289.059 162.009 289.101 161.987C289.143 161.965 289.189 161.955 289.236 161.957C289.282 161.959 289.328 161.971 289.368 161.994C289.408 162.017 289.442 162.05 289.467 162.089L292.116 166.238C292.145 166.283 292.16 166.335 292.16 166.388V174.039L306.31 198.369L322.188 206.131C322.244 206.159 322.29 206.206 322.317 206.263C322.344 206.32 322.351 206.385 322.337 206.446C322.323 206.508 322.288 206.563 322.239 206.602C322.189 206.642 322.128 206.664 322.065 206.664H322.073Z" fill="#002E5D"/>
<path d="M329.156 357.198H323.86C323.789 357.198 323.72 357.17 323.669 357.121C323.617 357.072 323.586 357.005 323.582 356.934L317.38 255.218V255.197L317.926 220.327L297.576 204.745C297.535 204.715 297.503 204.673 297.485 204.625L286.539 176.291C286.511 176.222 286.512 176.144 286.542 176.076C286.571 176.007 286.627 175.953 286.696 175.926C286.765 175.898 286.843 175.899 286.911 175.929C286.98 175.958 287.034 176.014 287.061 176.083L297.98 204.342L318.373 219.963C318.408 219.99 318.436 220.024 318.455 220.063C318.475 220.103 318.484 220.146 318.483 220.19L317.936 255.189L324.125 356.642H328.911L338.373 276.735C338.382 276.661 338.42 276.594 338.478 276.548C338.537 276.502 338.611 276.481 338.685 276.489C338.722 276.493 338.757 276.504 338.789 276.522C338.822 276.54 338.85 276.564 338.873 276.593C338.896 276.622 338.913 276.655 338.922 276.69C338.932 276.726 338.935 276.763 338.93 276.8L329.439 356.95C329.431 357.019 329.398 357.083 329.345 357.129C329.293 357.174 329.226 357.199 329.156 357.198Z" fill="#002E5D"/>
<path d="M343.966 357.198H337.884C337.811 357.197 337.742 357.169 337.69 357.119C337.638 357.068 337.608 357 337.605 356.927L335.576 300.339C335.574 300.264 335.601 300.192 335.652 300.137C335.703 300.083 335.773 300.051 335.848 300.048C335.922 300.046 335.995 300.073 336.049 300.124C336.103 300.175 336.135 300.245 336.138 300.32L338.154 356.636H343.7L348.234 268.763C348.333 266.888 348.073 265.011 347.469 263.234L343.59 251.764C343.58 251.735 343.575 251.705 343.575 251.674V225.247C343.581 225.176 343.613 225.111 343.665 225.064C343.717 225.016 343.785 224.99 343.855 224.99C343.925 224.99 343.993 225.016 344.045 225.064C344.097 225.111 344.129 225.176 344.135 225.247V251.626L348.01 263.055C348.635 264.899 348.905 266.845 348.805 268.79L344.254 356.931C344.252 356.968 344.244 357.004 344.229 357.037C344.213 357.07 344.192 357.099 344.165 357.124C344.139 357.149 344.107 357.168 344.073 357.181C344.039 357.193 344.003 357.199 343.966 357.198Z" fill="#002E5D"/>
<path d="M317.661 255.482C317.59 255.483 317.52 255.457 317.467 255.408C317.414 255.359 317.382 255.292 317.378 255.22C317.373 255.148 317.396 255.078 317.441 255.022C317.487 254.967 317.553 254.931 317.624 254.923L338.61 252.157C338.648 252.149 338.687 252.15 338.724 252.157C338.762 252.165 338.797 252.181 338.829 252.203C338.86 252.226 338.886 252.254 338.906 252.287C338.926 252.32 338.939 252.357 338.944 252.395C338.949 252.433 338.947 252.472 338.936 252.509C338.926 252.546 338.908 252.58 338.883 252.61C338.859 252.64 338.829 252.664 338.795 252.682C338.761 252.699 338.723 252.71 338.685 252.713L317.697 255.48L317.661 255.482Z" fill="#002E5D"/>
<path d="M353.624 265.914C353.585 265.913 353.546 265.904 353.51 265.888C353.474 265.871 353.442 265.848 353.416 265.818L349.622 261.448C349.591 261.423 349.565 261.39 349.548 261.353C349.53 261.317 349.52 261.277 349.52 261.236C349.519 261.195 349.527 261.155 349.543 261.118C349.56 261.08 349.584 261.047 349.615 261.02C349.645 260.993 349.681 260.973 349.721 260.962C349.76 260.95 349.801 260.947 349.841 260.953C349.881 260.959 349.92 260.973 349.954 260.996C349.988 261.018 350.017 261.048 350.039 261.082L353.522 265.092L357.286 255.181C357.629 254.28 357.708 253.3 357.513 252.357L350.128 216.619L341.424 212.249C341.361 212.214 341.314 212.155 341.293 212.086C341.272 212.017 341.279 211.943 341.311 211.879C341.343 211.814 341.399 211.765 341.467 211.74C341.535 211.716 341.609 211.718 341.675 211.748L350.507 216.18C350.545 216.199 350.578 216.227 350.604 216.261C350.63 216.295 350.648 216.334 350.657 216.376L358.069 252.244C358.286 253.293 358.198 254.382 357.817 255.382L353.886 265.731C353.87 265.776 353.843 265.816 353.806 265.847C353.769 265.878 353.725 265.899 353.678 265.908L353.624 265.914Z" fill="#002E5D"/>
<path d="M348.536 259.392C348.503 259.393 348.47 259.387 348.438 259.376C348.404 259.363 348.372 259.344 348.344 259.319C348.317 259.294 348.295 259.264 348.28 259.231C348.264 259.197 348.256 259.161 348.254 259.124C348.253 259.087 348.259 259.05 348.272 259.016L350.679 252.434L343.59 232.95C343.571 232.882 343.578 232.809 343.61 232.746C343.643 232.683 343.698 232.635 343.764 232.611C343.831 232.586 343.904 232.588 343.969 232.616C344.034 232.643 344.087 232.694 344.116 232.759L351.247 252.338C351.27 252.401 351.27 252.469 351.247 252.532L348.792 259.209C348.773 259.262 348.738 259.308 348.692 259.34C348.647 259.373 348.592 259.391 348.536 259.392Z" fill="#002E5D"/>
<path d="M348.359 272.08C348.299 272.08 348.241 272.06 348.192 272.024C348.144 271.988 348.109 271.938 348.091 271.881C348.074 271.823 348.075 271.761 348.095 271.705C348.116 271.648 348.153 271.599 348.203 271.566L350.401 270.084L351.988 266.767C352.002 266.731 352.024 266.699 352.051 266.671C352.078 266.644 352.111 266.622 352.147 266.608C352.183 266.594 352.221 266.587 352.26 266.589C352.298 266.59 352.336 266.599 352.371 266.616C352.406 266.632 352.437 266.656 352.462 266.685C352.488 266.714 352.507 266.749 352.518 266.785C352.53 266.822 352.534 266.861 352.529 266.9C352.525 266.938 352.513 266.975 352.494 267.009L350.873 270.394C350.852 270.44 350.819 270.479 350.777 270.507L348.515 272.032C348.469 272.064 348.415 272.08 348.359 272.08Z" fill="#002E5D"/>
<path d="M288.938 182.005C288.891 182.005 288.844 181.993 288.803 181.97C288.761 181.947 288.726 181.914 288.701 181.874C288.662 181.811 288.648 181.735 288.665 181.662C288.681 181.59 288.726 181.527 288.789 181.487L292.191 179.348C292.222 179.328 292.256 179.314 292.293 179.308C292.329 179.302 292.366 179.302 292.402 179.311C292.438 179.319 292.471 179.334 292.501 179.355C292.531 179.377 292.557 179.404 292.576 179.435C292.616 179.498 292.629 179.574 292.612 179.647C292.596 179.719 292.551 179.782 292.488 179.822L289.082 181.957C289.039 181.986 288.99 182.002 288.938 182.005Z" fill="#002E5D"/>
<path d="M330.396 367.858H317.23C317.156 367.858 317.085 367.828 317.033 367.775C316.981 367.723 316.952 367.652 316.952 367.577V364.429C316.952 364.382 316.964 364.335 316.986 364.293C317.009 364.252 317.043 364.217 317.083 364.192L322.529 360.764L323.213 358.619C323.236 358.548 323.286 358.49 323.352 358.456C323.417 358.422 323.494 358.415 323.565 358.438C323.635 358.461 323.694 358.51 323.728 358.576C323.762 358.642 323.769 358.719 323.746 358.79L323.032 361.033C323.011 361.096 322.969 361.149 322.914 361.185L317.503 364.583V367.288H330.064L328.815 358.738C328.805 358.664 328.824 358.589 328.868 358.53C328.913 358.47 328.979 358.431 329.052 358.419C329.089 358.414 329.126 358.415 329.162 358.424C329.198 358.433 329.231 358.449 329.261 358.471C329.291 358.493 329.316 358.521 329.334 358.553C329.353 358.585 329.366 358.62 329.371 358.656L330.659 367.529C330.664 367.569 330.661 367.61 330.65 367.648C330.639 367.687 330.619 367.722 330.593 367.753C330.567 367.783 330.535 367.807 330.498 367.824C330.462 367.841 330.422 367.85 330.382 367.85L330.396 367.858Z" fill="#002E5D"/>
<path d="M344.897 367.859H331.728C331.654 367.859 331.582 367.829 331.53 367.776C331.477 367.724 331.448 367.652 331.448 367.578V364.429C331.448 364.382 331.46 364.335 331.483 364.294C331.506 364.252 331.539 364.217 331.579 364.192L337.024 360.765L337.709 358.619C337.734 358.551 337.784 358.495 337.849 358.464C337.914 358.432 337.989 358.426 338.058 358.448C338.127 358.47 338.185 358.518 338.22 358.582C338.254 358.645 338.263 358.72 338.244 358.79L337.528 361.033C337.507 361.096 337.465 361.15 337.409 361.185L331.999 364.583V367.288H344.559L343.311 358.738C343.3 358.664 343.319 358.589 343.364 358.53C343.408 358.47 343.474 358.43 343.548 358.42C343.585 358.414 343.622 358.415 343.658 358.424C343.693 358.433 343.727 358.449 343.757 358.471C343.786 358.493 343.811 358.521 343.829 358.553C343.848 358.585 343.86 358.62 343.864 358.657L345.152 367.53C345.158 367.57 345.155 367.61 345.144 367.648C345.133 367.687 345.113 367.723 345.087 367.753C345.061 367.783 345.028 367.808 344.992 367.824C344.955 367.841 344.916 367.85 344.876 367.85L344.897 367.859Z" fill="#002E5D"/>
<path d="M55.2217 208.144L50.2982 216.242L45.0127 208.144L50.2982 200.042L55.2217 208.144Z" fill="#C9DAF4"/>
<path d="M347.3 91.4204L342.378 99.5214L337.091 91.4204L342.378 83.3193L347.3 91.4204Z" fill="#C9DAF4"/>
</svg>
