<svg width="418" height="400" viewBox="0 0 418 400" fill="none" xmlns="http://www.w3.org/2000/svg">
<g clip-path="url(#clip0_43_224)">
<path d="M418 193.218C418 299.929 331.591 386.434 224.998 386.434C179.334 386.504 135.136 370.297 100.321 340.716C95.7138 336.808 91.2971 332.693 87.0705 328.373C56.4947 297.158 37.4241 256.467 32.9873 212.974C32.4016 207.184 32.0738 201.32 32.0042 195.382C32.0042 194.666 32.0042 193.948 32.0042 193.232C31.9929 86.5077 118.405 0 224.998 0C331.591 0 418 86.5077 418 193.218Z" fill="#F3F8FF"/>
<path d="M197.523 174.981C197.512 174.929 197.488 174.882 197.452 174.843C197.416 174.805 197.37 174.777 197.319 174.763L180.023 169.633C179.977 169.62 179.928 169.62 179.882 169.633L81.5501 186.747L81.3353 170.877C81.3353 170.83 81.3233 170.783 81.3006 170.742C81.2779 170.7 81.2452 170.665 81.2054 170.64C81.1633 170.614 81.1158 170.599 81.0668 170.595C81.0177 170.591 80.9685 170.598 80.9229 170.617L52.6141 181.763C52.5526 181.785 52.5005 181.827 52.4665 181.883C52.4325 181.938 52.4188 182.004 52.4277 182.069L53.6792 191.598L32.0042 195.368C32.0682 201.302 32.3959 207.166 32.9873 212.96L55.9677 209L56.9085 216.148L44.5877 232.012C44.0704 232.669 43.6918 233.425 43.4749 234.233C43.2581 235.042 43.2074 235.886 43.326 236.714C43.4446 237.543 43.73 238.339 44.165 239.053C44.5999 239.768 45.1753 240.387 45.8562 240.873L65.2796 254.933C65.3383 254.976 65.4106 254.996 65.483 254.989C65.5237 254.986 65.5634 254.975 65.5998 254.957C65.6362 254.938 65.6686 254.913 65.6949 254.882L66.0791 254.426L66.4436 254.709L66.4097 254.737C66.3861 254.767 66.3688 254.802 66.3588 254.839C66.3489 254.876 66.3465 254.914 66.3518 254.952C66.357 254.99 66.3699 255.026 66.3896 255.059C66.4092 255.091 66.4353 255.12 66.4662 255.142L68.5343 256.649C67.6641 258.426 61.7311 270.969 60.2083 286.121C60.0416 287.778 59.7987 290.001 59.4907 292.663C63.8176 299.861 68.607 306.77 73.8287 313.346L81.0076 289.023L87.0705 328.371C91.2952 332.687 95.712 336.801 100.321 340.713C100.1 320.796 99.8405 295.797 99.7558 282.894C99.5976 260.176 95.5603 248.133 95.275 247.319L94.6167 223.094L108.407 224.474C108.628 224.493 108.85 224.493 109.071 224.474C109.951 224.408 110.777 224.019 111.39 223.382C111.767 223 112.045 222.533 112.203 222.02C112.36 221.507 112.391 220.963 112.294 220.435L108.949 202.509C108.937 202.437 108.898 202.372 108.839 202.329C108.781 202.285 108.708 202.266 108.635 202.275H108.48L108.424 201.522C108.498 201.522 108.57 201.492 108.623 201.439C108.676 201.386 108.706 201.314 108.706 201.239V201.22L108.613 199.961L182.634 187.233C182.686 187.226 182.736 187.204 182.778 187.171L197.432 175.275C197.474 175.24 197.505 175.194 197.521 175.141C197.537 175.089 197.537 175.034 197.523 174.981ZM69.9299 250.498C69.8736 250.494 69.8175 250.507 69.7677 250.533C69.7179 250.56 69.6763 250.599 69.6474 250.648L69.4044 250.467C69.4492 250.409 69.4698 250.336 69.4619 250.263C69.454 250.19 69.4182 250.123 69.3621 250.076L54.0155 237.196L64.384 226.731L70.4469 246.312C70.4728 246.386 70.5262 246.448 70.5962 246.483C70.6663 246.519 70.7474 246.527 70.8227 246.504L71.7155 249.813C71.6461 249.828 71.5846 249.868 71.5433 249.925C71.5019 249.983 71.4837 250.054 71.4923 250.124C71.4957 250.162 71.5069 250.199 71.525 250.233C71.5431 250.267 71.5678 250.296 71.5976 250.32C71.6274 250.344 71.6618 250.361 71.6985 250.371C71.7353 250.382 71.7737 250.384 71.8115 250.379L71.8285 250.591L69.9299 250.498ZM86.0337 207.159C85.9962 207.143 85.9557 207.135 85.915 207.136L76.6201 207.549L75.8601 205.589L102.327 201.036L102.55 201.927C102.565 201.996 102.606 202.057 102.664 202.098C102.722 202.139 102.793 202.157 102.864 202.147H102.912L103.061 202.727C102.992 202.739 102.929 202.776 102.886 202.832C102.843 202.887 102.822 202.957 102.827 203.027L103.629 213.775L86.0337 207.159Z" fill="#BBD1DC"/>
<path d="M318.165 98.4263C317.688 98.4263 317.23 98.2365 316.893 97.8986C316.555 97.5608 316.366 97.1025 316.366 96.6247C316.366 86.9602 310.681 79.089 303.694 79.089C303.452 79.0986 303.211 79.0591 302.984 78.973C302.758 78.8868 302.551 78.7558 302.376 78.5877C302.201 78.4195 302.062 78.2178 301.967 77.9946C301.872 77.7714 301.823 77.5313 301.823 77.2887C301.823 77.0461 301.872 76.806 301.967 76.5828C302.062 76.3596 302.201 76.1579 302.376 75.9898C302.551 75.8217 302.758 75.6906 302.984 75.6045C303.211 75.5183 303.452 75.4789 303.694 75.4885C312.665 75.4885 319.965 84.9691 319.965 96.619C319.966 96.8561 319.92 97.091 319.83 97.3102C319.739 97.5295 319.607 97.7287 319.44 97.8966C319.273 98.0645 319.074 98.1978 318.855 98.2887C318.637 98.3796 318.402 98.4263 318.165 98.4263Z" fill="#445664"/>
<path d="M271.58 98.4263C271.103 98.4256 270.646 98.2354 270.309 97.8976C269.973 97.5599 269.783 97.102 269.783 96.6247C269.783 86.9602 264.099 79.089 257.112 79.089C256.87 79.0986 256.628 79.0591 256.402 78.973C256.175 78.8868 255.968 78.7558 255.794 78.5877C255.619 78.4195 255.48 78.2178 255.385 77.9946C255.29 77.7714 255.241 77.5313 255.241 77.2887C255.241 77.0461 255.29 76.806 255.385 76.5828C255.48 76.3596 255.619 76.1579 255.794 75.9898C255.968 75.8217 256.175 75.6906 256.402 75.6045C256.628 75.5183 256.87 75.4789 257.112 75.4885C266.082 75.4885 273.38 84.9691 273.38 96.619C273.381 96.8561 273.335 97.091 273.244 97.3102C273.154 97.5295 273.022 97.7287 272.855 97.8966C272.687 98.0645 272.489 98.1978 272.27 98.2887C272.051 98.3796 271.817 98.4263 271.58 98.4263Z" fill="#445664"/>
<path d="M224.998 98.4263C224.521 98.4263 224.063 98.2365 223.725 97.8986C223.388 97.5608 223.198 97.1025 223.198 96.6247C223.198 86.9602 217.514 79.089 210.527 79.089C210.285 79.0986 210.043 79.0591 209.817 78.973C209.59 78.8868 209.384 78.7558 209.209 78.5877C209.034 78.4195 208.895 78.2178 208.8 77.9946C208.705 77.7714 208.656 77.5313 208.656 77.2887C208.656 77.0461 208.705 76.806 208.8 76.5828C208.895 76.3596 209.034 76.1579 209.209 75.9898C209.384 75.8217 209.59 75.6906 209.817 75.6045C210.043 75.5183 210.285 75.4789 210.527 75.4885C219.497 75.4885 226.795 84.9691 226.795 96.619C226.796 96.8559 226.75 97.0905 226.66 97.3096C226.57 97.5286 226.438 97.7278 226.271 97.8956C226.104 98.0635 225.906 98.1968 225.687 98.2878C225.469 98.3789 225.235 98.426 224.998 98.4263Z" fill="#445664"/>
<path d="M178.413 98.4264C177.936 98.4256 177.479 98.2355 177.142 97.8977C176.805 97.5599 176.616 97.1021 176.616 96.6247C176.616 86.9603 170.932 79.089 163.942 79.089C163.477 79.0706 163.038 78.8728 162.716 78.5372C162.394 78.2016 162.214 77.7542 162.214 77.2888C162.214 76.8233 162.394 76.3759 162.716 76.0403C163.038 75.7047 163.477 75.507 163.942 75.4885C172.915 75.4885 180.212 84.9691 180.212 96.6191C180.213 96.8561 180.167 97.091 180.077 97.3103C179.987 97.5295 179.855 97.7288 179.687 97.8967C179.52 98.0646 179.322 98.1978 179.103 98.2887C178.884 98.3796 178.65 98.4264 178.413 98.4264Z" fill="#445664"/>
<path d="M333.147 96.6106H126.827V388.549H333.147V96.6106Z" fill="white"/>
<path d="M355.317 96.6106H333.147V388.549H355.317V96.6106Z" fill="#BBD1DC"/>
<path d="M326.785 102.072H133.189V147.113H326.785V102.072Z" fill="#BBD1DC"/>
<path d="M286.045 153.443L133.189 232.02V153.443H286.045Z" fill="#F3F8FF"/>
<path d="M326.785 153.443V163.699L133.189 263.22V246.086L313.402 153.443H326.785Z" fill="#F3F8FF"/>
<path d="M326.785 214.23V242.488L133.189 342.006V313.751L326.785 214.23Z" fill="#F3F8FF"/>
<path d="M326.785 256.338V321.752L210.42 381.572H133.189V355.859L326.785 256.338Z" fill="#F3F8FF"/>
<path d="M259.983 381.572L326.785 347.23V381.572H259.983Z" fill="#F3F8FF"/>
<path d="M333.147 299.869C333.108 299.87 333.069 299.862 333.032 299.847C332.996 299.832 332.963 299.81 332.935 299.782C332.907 299.754 332.885 299.721 332.87 299.685C332.855 299.648 332.848 299.609 332.848 299.57V183.356C332.848 183.276 332.879 183.2 332.936 183.144C332.992 183.088 333.068 183.056 333.147 183.056C333.227 183.056 333.303 183.088 333.359 183.144C333.415 183.2 333.447 183.276 333.447 183.356V299.57C333.447 299.609 333.44 299.648 333.425 299.685C333.41 299.721 333.388 299.754 333.36 299.782C333.332 299.81 333.299 299.832 333.262 299.847C333.226 299.862 333.187 299.87 333.147 299.869Z" fill="#002E5D"/>
<path d="M333.147 155.559C333.108 155.559 333.069 155.552 333.032 155.537C332.996 155.522 332.963 155.5 332.935 155.472C332.907 155.444 332.885 155.411 332.87 155.374C332.855 155.338 332.848 155.298 332.848 155.259V96.9103H127.135V115.012C127.135 115.091 127.104 115.167 127.047 115.224C126.991 115.28 126.915 115.311 126.836 115.311C126.756 115.311 126.68 115.28 126.624 115.224C126.568 115.167 126.536 115.091 126.536 115.012V96.6274C126.536 96.5479 126.568 96.4717 126.624 96.4155C126.68 96.3592 126.756 96.3276 126.836 96.3276H333.156C333.235 96.3276 333.311 96.3592 333.368 96.4155C333.424 96.4717 333.455 96.5479 333.455 96.6274V155.256C333.456 155.297 333.449 155.337 333.433 155.374C333.418 155.412 333.395 155.446 333.367 155.474C333.338 155.502 333.303 155.524 333.266 155.539C333.228 155.554 333.188 155.56 333.147 155.559Z" fill="#002E5D"/>
<path d="M126.827 182.264C126.748 182.264 126.671 182.233 126.615 182.176C126.559 182.12 126.528 182.044 126.528 181.964V143.782C126.528 143.702 126.559 143.626 126.615 143.57C126.671 143.514 126.748 143.482 126.827 143.482C126.906 143.482 126.983 143.514 127.039 143.57C127.095 143.626 127.127 143.702 127.127 143.782V181.964C127.126 182.044 127.094 182.119 127.038 182.176C126.982 182.232 126.906 182.263 126.827 182.264Z" fill="#002E5D"/>
<path d="M126.827 366.884C126.748 366.884 126.671 366.852 126.615 366.796C126.559 366.74 126.528 366.664 126.528 366.584V204.961C126.528 204.882 126.559 204.806 126.615 204.749C126.671 204.693 126.748 204.662 126.827 204.662C126.906 204.662 126.983 204.693 127.039 204.749C127.095 204.806 127.127 204.882 127.127 204.961V366.584C127.126 366.664 127.094 366.739 127.038 366.795C126.982 366.852 126.906 366.883 126.827 366.884Z" fill="#002E5D"/>
<path d="M333.147 388.852H153.268C153.193 388.845 153.124 388.81 153.074 388.754C153.023 388.699 152.995 388.626 152.995 388.551C152.995 388.476 153.023 388.403 153.074 388.348C153.124 388.292 153.193 388.257 153.268 388.25H332.848V368.497C332.848 368.417 332.879 368.341 332.935 368.285C332.992 368.228 333.068 368.197 333.147 368.197C333.227 368.197 333.303 368.228 333.359 368.285C333.415 368.341 333.447 368.417 333.447 368.497V388.552C333.447 388.632 333.415 388.708 333.359 388.764C333.303 388.821 333.227 388.852 333.147 388.852Z" fill="#002E5D"/>
<path d="M363.606 359.42C363.53 359.42 363.456 359.39 363.401 359.338C363.345 359.285 363.312 359.214 363.307 359.137L344.677 96.9104H333.142C333.062 96.9104 332.986 96.8788 332.93 96.8226C332.874 96.7664 332.842 96.6901 332.842 96.6106C332.842 96.5311 332.874 96.4548 332.93 96.3986C332.986 96.3424 333.062 96.3108 333.142 96.3108H344.96C345.036 96.3107 345.11 96.3399 345.166 96.3925C345.221 96.4451 345.255 96.5171 345.259 96.5936L363.906 359.101C363.909 359.141 363.904 359.181 363.891 359.218C363.879 359.256 363.858 359.291 363.832 359.321C363.806 359.351 363.774 359.376 363.738 359.393C363.702 359.411 363.663 359.421 363.623 359.423L363.606 359.42Z" fill="#002E5D"/>
<path d="M163.546 120.216C165.567 120.216 167.205 118.303 167.205 115.942C167.205 113.582 165.567 111.669 163.546 111.669C161.526 111.669 159.888 113.582 159.888 115.942C159.888 118.303 161.526 120.216 163.546 120.216Z" fill="#445664"/>
<path d="M163.942 117.744C154.972 117.744 147.674 108.263 147.674 96.6105C147.674 84.9577 154.972 75.4799 163.942 75.4799C164.184 75.4703 164.426 75.5098 164.652 75.5959C164.879 75.6821 165.086 75.8131 165.26 75.9812C165.435 76.1493 165.574 76.351 165.669 76.5743C165.764 76.7975 165.813 77.0376 165.813 77.2802C165.813 77.5228 165.764 77.7629 165.669 77.9861C165.574 78.2093 165.435 78.411 165.26 78.5791C165.086 78.7472 164.879 78.8783 164.652 78.9644C164.426 79.0506 164.184 79.09 163.942 79.0804C156.955 79.0804 151.271 86.946 151.271 96.6161C151.271 106.286 156.955 114.152 163.942 114.152C164.419 114.152 164.877 114.342 165.214 114.68C165.552 115.017 165.742 115.476 165.742 115.954C165.742 116.431 165.552 116.89 165.214 117.227C164.877 117.565 164.419 117.755 163.942 117.755V117.744Z" fill="#445664"/>
<path d="M210.129 120.216C212.149 120.216 213.787 118.303 213.787 115.942C213.787 113.582 212.149 111.669 210.129 111.669C208.108 111.669 206.47 113.582 206.47 115.942C206.47 118.303 208.108 120.216 210.129 120.216Z" fill="#445664"/>
<path d="M210.527 117.744C201.557 117.744 194.257 108.263 194.257 96.6105C194.257 84.9577 201.557 75.4799 210.527 75.4799C210.769 75.4703 211.011 75.5098 211.237 75.5959C211.464 75.6821 211.671 75.8131 211.845 75.9812C212.02 76.1493 212.159 76.351 212.254 76.5743C212.349 76.7975 212.398 77.0376 212.398 77.2802C212.398 77.5228 212.349 77.7629 212.254 77.9861C212.159 78.2093 212.02 78.411 211.845 78.5791C211.671 78.7472 211.464 78.8783 211.237 78.9644C211.011 79.0506 210.769 79.09 210.527 79.0804C203.54 79.0804 197.856 86.946 197.856 96.6161C197.856 106.286 203.54 114.152 210.527 114.152C211.004 114.152 211.462 114.342 211.8 114.68C212.137 115.017 212.327 115.476 212.327 115.954C212.327 116.431 212.137 116.89 211.8 117.227C211.462 117.565 211.004 117.755 210.527 117.755V117.744Z" fill="#445664"/>
<path d="M256.714 120.216C258.734 120.216 260.372 118.303 260.372 115.942C260.372 113.582 258.734 111.669 256.714 111.669C254.693 111.669 253.055 113.582 253.055 115.942C253.055 118.303 254.693 120.216 256.714 120.216Z" fill="#445664"/>
<path d="M257.112 117.744C248.139 117.744 240.842 108.263 240.842 96.6105C240.842 84.9578 248.139 75.48 257.112 75.48C257.577 75.4984 258.016 75.6962 258.338 76.0318C258.661 76.3673 258.841 76.8147 258.841 77.2802C258.841 77.7457 258.661 78.1931 258.338 78.5287C258.016 78.8643 257.577 79.062 257.112 79.0805C250.123 79.0805 244.438 86.9461 244.438 96.6162C244.438 106.286 250.123 114.152 257.112 114.152C257.59 114.152 258.047 114.342 258.385 114.68C258.722 115.017 258.912 115.476 258.912 115.954C258.912 116.431 258.722 116.89 258.385 117.228C258.047 117.565 257.59 117.755 257.112 117.755V117.744Z" fill="#445664"/>
<path d="M303.296 120.216C305.317 120.216 306.955 118.303 306.955 115.942C306.955 113.582 305.317 111.669 303.296 111.669C301.276 111.669 299.637 113.582 299.637 115.942C299.637 118.303 301.276 120.216 303.296 120.216Z" fill="#445664"/>
<path d="M303.694 117.744C294.724 117.744 287.424 108.263 287.424 96.6105C287.424 84.9577 294.724 75.4799 303.694 75.4799C303.937 75.4703 304.178 75.5098 304.405 75.5959C304.631 75.6821 304.838 75.8131 305.013 75.9812C305.188 76.1493 305.327 76.351 305.421 76.5743C305.516 76.7975 305.565 77.0376 305.565 77.2802C305.565 77.5228 305.516 77.7629 305.421 77.9861C305.327 78.2093 305.188 78.411 305.013 78.5791C304.838 78.7472 304.631 78.8783 304.405 78.9644C304.178 79.0506 303.937 79.09 303.694 79.0804C296.708 79.0804 291.023 86.946 291.023 96.6161C291.023 106.286 296.708 114.152 303.694 114.152C304.172 114.152 304.629 114.342 304.967 114.68C305.304 115.017 305.494 115.476 305.494 115.954C305.494 116.431 305.304 116.89 304.967 117.227C304.629 117.565 304.172 117.755 303.694 117.755V117.744Z" fill="#445664"/>
<path d="M139.863 134.53H82.4966L95.6508 123.101L82.4966 111.669H139.863V134.53Z" fill="#F70431"/>
<path d="M136.967 138.167H120.614C120.535 138.167 120.459 138.136 120.403 138.08C120.347 138.023 120.315 137.947 120.315 137.868C120.315 137.788 120.347 137.712 120.403 137.656C120.459 137.599 120.535 137.568 120.614 137.568H136.667V115.306H80.4059L92.9499 126.209C92.9796 126.235 93.004 126.267 93.0215 126.302C93.0391 126.337 93.0495 126.376 93.0521 126.415C93.0547 126.455 93.0495 126.494 93.0368 126.532C93.0241 126.569 93.0042 126.604 92.9781 126.633C92.9537 126.665 92.9228 126.691 92.8876 126.71C92.8525 126.728 92.8137 126.739 92.774 126.742C92.7342 126.745 92.6943 126.739 92.657 126.725C92.6196 126.711 92.5856 126.69 92.5571 126.662L79.4029 115.232C79.3547 115.194 79.3203 115.141 79.305 115.081C79.2897 115.021 79.2943 114.958 79.3182 114.901C79.3396 114.844 79.3782 114.794 79.4287 114.759C79.4793 114.724 79.5393 114.706 79.6007 114.706H136.967C137.006 114.706 137.046 114.713 137.082 114.728C137.119 114.743 137.152 114.765 137.18 114.793C137.209 114.821 137.231 114.854 137.246 114.891C137.261 114.927 137.269 114.967 137.269 115.006V137.868C137.268 137.947 137.236 138.024 137.18 138.08C137.123 138.136 137.046 138.167 136.967 138.167Z" fill="#002E5D"/>
<path d="M321.798 152.572H371.096L359.792 164.002L371.096 175.434H321.798V152.572Z" fill="#F70431"/>
<path d="M342.086 178.417H324.256C324.217 178.418 324.178 178.41 324.141 178.395C324.104 178.381 324.071 178.359 324.043 178.331C324.015 178.303 323.992 178.27 323.977 178.233C323.962 178.196 323.954 178.157 323.954 178.118V155.256C323.955 155.176 323.987 155.1 324.044 155.044C324.1 154.988 324.177 154.956 324.256 154.956H373.551C373.611 154.955 373.67 154.972 373.72 155.005C373.771 155.038 373.81 155.085 373.833 155.14C373.859 155.195 373.866 155.256 373.855 155.315C373.843 155.374 373.813 155.428 373.768 155.468L362.468 166.898C362.44 166.926 362.407 166.948 362.371 166.963C362.334 166.979 362.296 166.987 362.256 166.987C362.217 166.987 362.178 166.98 362.141 166.965C362.105 166.95 362.072 166.928 362.044 166.9C362.016 166.873 361.993 166.84 361.978 166.804C361.963 166.767 361.955 166.728 361.955 166.689C361.954 166.65 361.962 166.61 361.977 166.574C361.991 166.537 362.013 166.504 362.041 166.476L372.833 155.559H324.556V177.818H342.072C342.152 177.818 342.228 177.849 342.284 177.906C342.34 177.962 342.372 178.038 342.372 178.118C342.372 178.197 342.34 178.273 342.284 178.33C342.228 178.386 342.152 178.417 342.072 178.417H342.086Z" fill="#002E5D"/>
<path d="M310.715 187.856H149.259C149.18 187.856 149.104 187.824 149.048 187.768C148.992 187.712 148.96 187.635 148.96 187.556C148.96 187.476 148.992 187.4 149.048 187.344C149.104 187.288 149.18 187.256 149.259 187.256H310.715C310.795 187.256 310.871 187.288 310.927 187.344C310.983 187.4 311.015 187.476 311.015 187.556C311.015 187.635 310.983 187.712 310.927 187.768C310.871 187.824 310.795 187.856 310.715 187.856Z" fill="#002E5D"/>
<path d="M310.715 226.508H149.259C149.18 226.508 149.104 226.476 149.048 226.42C148.992 226.364 148.96 226.288 148.96 226.208C148.96 226.128 148.992 226.052 149.048 225.996C149.104 225.94 149.18 225.908 149.259 225.908H310.715C310.795 225.908 310.871 225.94 310.927 225.996C310.983 226.052 311.015 226.128 311.015 226.208C311.015 226.288 310.983 226.364 310.927 226.42C310.871 226.476 310.795 226.508 310.715 226.508Z" fill="#002E5D"/>
<path d="M310.715 265.163H149.259C149.185 265.155 149.115 265.121 149.065 265.065C149.014 265.009 148.986 264.937 148.986 264.862C148.986 264.786 149.014 264.714 149.065 264.658C149.115 264.602 149.185 264.568 149.259 264.56H310.715C310.79 264.568 310.859 264.602 310.91 264.658C310.96 264.714 310.988 264.786 310.988 264.862C310.988 264.937 310.96 265.009 310.91 265.065C310.859 265.121 310.79 265.155 310.715 265.163Z" fill="#002E5D"/>
<path d="M310.715 303.815H149.259C149.185 303.808 149.115 303.773 149.065 303.717C149.014 303.661 148.986 303.589 148.986 303.514C148.986 303.438 149.014 303.366 149.065 303.31C149.115 303.255 149.185 303.22 149.259 303.212H310.715C310.79 303.22 310.859 303.255 310.91 303.31C310.96 303.366 310.988 303.438 310.988 303.514C310.988 303.589 310.96 303.661 310.91 303.717C310.859 303.773 310.79 303.808 310.715 303.815Z" fill="#002E5D"/>
<path d="M215.33 342.467H149.259C149.185 342.46 149.115 342.425 149.065 342.369C149.014 342.314 148.986 342.241 148.986 342.166C148.986 342.091 149.014 342.018 149.065 341.963C149.115 341.907 149.185 341.872 149.259 341.865H215.33C215.405 341.872 215.474 341.907 215.525 341.963C215.575 342.018 215.603 342.091 215.603 342.166C215.603 342.241 215.575 342.314 215.525 342.369C215.474 342.425 215.405 342.46 215.33 342.467Z" fill="#002E5D"/>
<path d="M261.799 248.34H151.822V258.12H261.799V248.34Z" fill="#BBD1DC"/>
<path d="M227.035 287.238H151.822V297.018H227.035V287.238Z" fill="#BBD1DC"/>
<path d="M292.247 287.238H237.485V297.018H292.247V287.238Z" fill="#BBD1DC"/>
<path d="M336.049 354.906C348.694 342.247 348.694 321.722 336.049 309.063C323.404 296.404 302.902 296.404 290.257 309.063C277.612 321.722 277.612 342.247 290.257 354.906C302.902 367.565 323.404 367.565 336.049 354.906Z" fill="#F70431"/>
<path d="M315.993 368.796C315.953 368.796 315.914 368.788 315.878 368.773C315.842 368.758 315.809 368.736 315.781 368.708C315.753 368.68 315.731 368.647 315.716 368.611C315.701 368.575 315.693 368.536 315.693 368.496C315.693 368.457 315.701 368.418 315.716 368.382C315.731 368.345 315.753 368.312 315.781 368.284C315.809 368.257 315.842 368.234 315.878 368.219C315.914 368.204 315.953 368.197 315.993 368.197C321.501 368.198 326.917 366.779 331.718 364.077C336.52 361.374 340.545 357.48 343.408 352.769C346.27 348.057 347.872 342.688 348.06 337.176C348.248 331.665 347.015 326.199 344.481 321.303C341.946 316.407 338.195 312.247 333.589 309.223C328.982 306.2 323.676 304.414 318.18 304.039C312.685 303.664 307.186 304.712 302.212 307.082C297.238 309.451 292.958 313.063 289.783 317.569C289.761 317.604 289.733 317.633 289.7 317.657C289.666 317.68 289.628 317.696 289.588 317.704C289.548 317.712 289.507 317.712 289.467 317.703C289.428 317.695 289.39 317.678 289.357 317.655C289.324 317.631 289.295 317.601 289.274 317.567C289.253 317.532 289.239 317.493 289.233 317.453C289.227 317.413 289.23 317.372 289.24 317.332C289.251 317.293 289.269 317.256 289.294 317.224C292.53 312.636 296.891 308.96 301.958 306.549C307.024 304.137 312.626 303.072 318.223 303.456C323.819 303.84 329.223 305.659 333.914 308.74C338.605 311.82 342.424 316.058 345.005 321.044C347.586 326.031 348.841 331.599 348.65 337.212C348.458 342.825 346.826 348.294 343.912 353.092C340.997 357.891 336.897 361.858 332.008 364.61C327.118 367.363 321.603 368.81 315.993 368.81V368.796Z" fill="#002E5D"/>
<path d="M297.259 336.081C299.518 336.081 301.349 334.247 301.349 331.985C301.349 329.723 299.518 327.89 297.259 327.89C294.999 327.89 293.168 329.723 293.168 331.985C293.168 334.247 294.999 336.081 297.259 336.081Z" fill="white"/>
<path d="M313.153 336.081C315.413 336.081 317.244 334.247 317.244 331.985C317.244 329.723 315.413 327.89 313.153 327.89C310.894 327.89 309.062 329.723 309.062 331.985C309.062 334.247 310.894 336.081 313.153 336.081Z" fill="white"/>
<path d="M329.045 336.081C331.305 336.081 333.136 334.247 333.136 331.985C333.136 329.723 331.305 327.89 329.045 327.89C326.786 327.89 324.954 329.723 324.954 331.985C324.954 334.247 326.786 336.081 329.045 336.081Z" fill="white"/>
<path d="M118.741 388.852H22.455C22.3802 388.845 22.3108 388.81 22.2603 388.754C22.2099 388.698 22.1819 388.626 22.1819 388.551C22.1819 388.476 22.2099 388.403 22.2603 388.347C22.3108 388.292 22.3802 388.257 22.455 388.25H118.741C118.816 388.257 118.886 388.292 118.936 388.347C118.986 388.403 119.014 388.476 119.014 388.551C119.014 388.626 118.986 388.698 118.936 388.754C118.886 388.81 118.816 388.845 118.741 388.852Z" fill="#002E5D"/>
<path d="M301.352 399H66.2035C66.1241 399 66.0479 398.968 65.9918 398.912C65.9356 398.856 65.9041 398.78 65.9041 398.7C65.9041 398.621 65.9356 398.544 65.9918 398.488C66.0479 398.432 66.1241 398.4 66.2035 398.4H301.352C301.432 398.4 301.508 398.432 301.564 398.488C301.62 398.544 301.652 398.621 301.652 398.7C301.652 398.78 301.62 398.856 301.564 398.912C301.508 398.968 301.432 399 301.352 399Z" fill="#002E5D"/>
<path d="M189.572 193.77L204.987 182.663L188.216 175.962L88.839 185.678L89.8279 168.911L60.8552 178.123L61.4203 188.322L0.302246 194.366L2.34488 211.676L62.3328 205.903L62.8159 213.789C62.8159 213.789 49.851 228.53 48.9271 229.718C48.0033 230.906 47.6897 232.077 47.7349 233.926C47.7801 235.776 49.2944 237.603 49.2944 237.603L68.1499 254.254L68.5398 253.841L71.3651 256.483C70.5683 257.586 67.8222 263.624 67.8222 263.624C66.1553 267.058 64.076 273.54 64.076 273.54C62.7283 276.533 61.005 285.634 61.005 285.634L59.0273 296.535L43.4603 376.235L42.7795 378.497L40.0362 382.788L34.527 384.655L36.2786 388.433L48.9723 388.487L49.3481 376.263H49.673L81.2279 289.453L87.8022 376.243L88.1497 388.481L100.838 388.552L102.75 384.51L97.1 382.757L94.3624 378.531L94.2013 376.269L99.2867 294.62L100.163 279.22C100.163 279.22 100.247 274.086 100.205 269.807C100.163 265.528 99.6907 260.304 99.6907 260.304C99.4223 255.125 97.9956 249.106 97.9956 249.106L99.1652 223.62L113.483 226.205C117.103 226.265 116.936 222.944 116.936 222.944L114.958 204.085H114.783V200.923L189.572 193.77ZM74.7723 250.829L72.7692 250.574L72.1166 249.972L57.6345 235.228L69.2942 224.709L74.0208 245.842L74.7864 250.008L74.7723 250.829ZM109.395 215.497L91.9863 207.049L82.5275 206.729L81.7308 204.085L109.014 201.474L109.446 203.977L109.395 215.497Z" fill="white"/>
<path d="M85.1043 185.87L76.4026 184.795L76.476 201.186L84.2878 201.638L85.1043 185.87Z" fill="#FDC8AA"/>
<path d="M89.6275 172.325L65.1724 181.271L67.6501 215.565L79.2335 219.742L71.6478 184.23L88.7969 186.283L89.6275 172.325Z" fill="#325D9C"/>
<path d="M75.3403 201.152L80.9625 201.474L82.5277 206.729L76.2501 205.776L75.3403 201.152Z" fill="#FDC8AA"/>
<path d="M76.7979 208.347L80.9623 209.761L82.5275 206.718L85.5335 206.82L91.91 222.888L90.7376 249.369L74.7722 249.997L74.0207 245.842L69.3054 224.709L57.6345 235.228L72.1194 249.972L69.6077 252.718L52.4361 235.808C51.9558 235.334 51.6749 234.694 51.6513 234.02C51.6276 233.345 51.863 232.688 52.3089 232.182L67.1244 215.353L79.2728 219.751L76.7979 208.347Z" fill="#325D9C"/>
<path d="M96.4927 217.327L111.031 220.828C111.265 220.885 111.508 220.886 111.742 220.833C111.976 220.78 112.194 220.673 112.381 220.522C112.567 220.37 112.716 220.178 112.815 219.959C112.915 219.74 112.963 219.502 112.955 219.262L112.492 203.858L114.95 203.887L116.956 222.944C116.956 222.944 117.097 226.318 113.503 226.205L99.1653 223.62L99.2501 221.592L96.4927 217.327Z" fill="#325D9C"/>
<path d="M69.3762 254.65L71.7805 252.034L80.2448 258.972L77.575 261.865L69.3762 254.65Z" fill="#FDC8AA"/>
<path d="M87.127 249.522C87.127 249.522 76.798 279.539 70.7407 299.866C64.6834 320.194 47.3366 376.263 47.3366 376.263L43.4717 376.232L58.1996 301.19L59.9229 291.594L61.1067 284.896L62.3668 279.239C62.3668 279.239 63.6748 274.377 64.5139 272.103C65.353 269.829 66.9295 265.72 66.9295 265.72C66.9295 265.72 69.5965 259.438 71.3594 256.463L77.4845 261.805L81.2279 257.945L77.1285 253.513L78.6061 253.315L78.5864 251.335L74.7695 250.84V250.02L87.127 249.522Z" fill="#325D9C"/>
<path d="M86.1354 276.108L91.5118 376.257H87.8023L81.228 289.453L86.1354 276.108Z" fill="#325D9C"/>
<path d="M61.4204 188.373L62.1126 201.271L14.7647 205.765L13.4199 193.071L61.4204 188.373Z" fill="#3B82F4"/>
<path d="M188.974 189.23L84.4375 199.152L85.1043 185.87L88.7968 186.283L88.8392 185.678L188.216 175.963L188.974 189.23Z" fill="#3B82F4"/>
<path d="M79.2616 220.045C79.2267 220.045 79.1921 220.039 79.1599 220.025L62.686 214.111C62.6293 214.093 62.5796 214.058 62.5441 214.01C62.5086 213.963 62.4891 213.905 62.4882 213.845L60.5558 178.132C60.5526 178.065 60.5713 178 60.6091 177.945C60.6469 177.89 60.7016 177.85 60.7648 177.829L89.7375 168.626C89.7848 168.61 89.8355 168.605 89.8849 168.614C89.9342 168.622 89.9807 168.643 90.02 168.674C90.058 168.704 90.0883 168.743 90.1084 168.787C90.1286 168.832 90.138 168.88 90.1358 168.928L89.1131 186.331C89.1111 186.372 89.1006 186.413 89.0823 186.45C89.064 186.487 89.0382 186.52 89.0067 186.546C88.9751 186.573 88.9384 186.592 88.8989 186.604C88.8593 186.616 88.8178 186.619 88.7769 186.614L72.0431 184.614L79.5667 219.686C79.579 219.737 79.5767 219.791 79.5603 219.841C79.5438 219.891 79.5137 219.935 79.4735 219.969C79.4148 220.02 79.3392 220.047 79.2616 220.045ZM63.0759 213.613L78.8547 219.27L71.3566 184.312C71.3448 184.265 71.3451 184.216 71.3574 184.17C71.3698 184.123 71.3938 184.081 71.4272 184.046C71.4595 184.011 71.4996 183.984 71.5442 183.967C71.5889 183.95 71.6369 183.944 71.6843 183.95L88.5226 185.961L89.503 169.313L61.1688 178.338L63.0759 213.613Z" fill="#002E5D"/>
<path d="M84.316 201.969H84.2991L75.2584 201.449C75.219 201.446 75.1805 201.437 75.145 201.419C75.1095 201.402 75.0777 201.378 75.0514 201.349C75.0252 201.32 75.005 201.285 74.992 201.248C74.9791 201.211 74.9736 201.171 74.9758 201.132C74.9816 201.053 75.0179 200.979 75.0769 200.926C75.136 200.874 75.2132 200.846 75.2923 200.849L84.0505 201.352L84.8217 185.859C84.8282 185.781 84.8643 185.708 84.9225 185.655C84.9808 185.603 85.0569 185.574 85.1353 185.576C85.1747 185.578 85.2132 185.588 85.2487 185.605C85.2842 185.622 85.316 185.646 85.3423 185.676C85.3685 185.705 85.3887 185.739 85.4017 185.777C85.4147 185.814 85.4202 185.853 85.4179 185.893L84.6296 201.689C84.624 201.765 84.5901 201.836 84.5347 201.889C84.4793 201.941 84.4063 201.971 84.3302 201.972L84.316 201.969Z" fill="#002E5D"/>
<path d="M2.34497 211.976C2.27183 211.976 2.20109 211.95 2.14634 211.901C2.09159 211.853 2.05668 211.786 2.04832 211.713L3.73686e-05 194.367C-0.00478763 194.327 -0.00178134 194.287 0.00888411 194.249C0.0195496 194.21 0.0376647 194.174 0.0621922 194.143C0.0884474 194.109 0.121664 194.081 0.15965 194.06C0.197635 194.04 0.239527 194.027 0.282559 194.024L61.3921 188.051C61.4317 188.046 61.4719 188.05 61.5102 188.061C61.5485 188.072 61.5843 188.09 61.6153 188.115C61.6463 188.141 61.672 188.172 61.6909 188.207C61.7098 188.242 61.7215 188.281 61.7252 188.32C61.729 188.36 61.7248 188.4 61.7128 188.438C61.7009 188.476 61.6815 188.512 61.6557 188.542C61.6299 188.573 61.5984 188.598 61.5628 188.616C61.5272 188.634 61.4884 188.645 61.4486 188.648L0.632887 194.59L2.61054 211.339L62.3329 205.626C62.4119 205.618 62.4909 205.642 62.5523 205.693C62.6138 205.743 62.6528 205.816 62.6606 205.895C62.6685 205.974 62.6446 206.053 62.5943 206.115C62.544 206.176 62.4713 206.215 62.3922 206.223L2.37322 211.976H2.34497Z" fill="#002E5D"/>
<path d="M81.7253 204.384C81.6459 204.388 81.5682 204.36 81.5094 204.307C81.4506 204.253 81.4155 204.178 81.4117 204.099C81.408 204.019 81.4359 203.942 81.4894 203.883C81.5429 203.824 81.6176 203.789 81.6971 203.785L189.471 193.478L204.411 182.75L188.16 176.268L88.8703 185.975C88.8312 185.979 88.7916 185.975 88.754 185.963C88.7163 185.952 88.6813 185.933 88.6508 185.908C88.6204 185.883 88.5952 185.853 88.5766 185.818C88.558 185.783 88.5465 185.745 88.5426 185.706C88.5391 185.666 88.5437 185.625 88.5561 185.587C88.5685 185.549 88.5885 185.513 88.6148 185.482C88.6411 185.452 88.6733 185.427 88.7094 185.409C88.7455 185.391 88.7848 185.38 88.8251 185.378L188.197 175.663C188.245 175.659 188.293 175.666 188.338 175.685L205.154 182.394C205.204 182.414 205.247 182.447 205.28 182.49C205.313 182.533 205.334 182.584 205.34 182.637C205.346 182.691 205.338 182.746 205.316 182.796C205.294 182.845 205.26 182.888 205.216 182.92L189.753 194.024C189.71 194.056 189.659 194.075 189.606 194.081L81.7536 204.384H81.7253Z" fill="#002E5D"/>
<path d="M14.7675 206.062C14.6932 206.062 14.6213 206.035 14.566 205.985C14.5106 205.936 14.4757 205.867 14.468 205.793L13.1232 193.065C13.115 192.986 13.1385 192.907 13.1885 192.845C13.2386 192.784 13.3111 192.744 13.3902 192.736C13.4692 192.728 13.5483 192.751 13.61 192.801C13.6718 192.852 13.7111 192.924 13.7193 193.003L15.0641 205.717C15.0721 205.796 15.0487 205.875 14.999 205.937C14.9493 205.998 14.8773 206.038 14.7986 206.048L14.7675 206.062Z" fill="#002E5D"/>
<path d="M84.6267 195.744C84.5473 195.748 84.4696 195.72 84.4108 195.666C84.352 195.613 84.3168 195.538 84.3131 195.458C84.3093 195.379 84.3373 195.301 84.3908 195.242C84.4443 195.183 84.519 195.148 84.5984 195.144L183.199 185.573C183.278 185.565 183.357 185.589 183.418 185.64C183.48 185.69 183.519 185.763 183.526 185.842C183.534 185.921 183.51 186 183.46 186.062C183.41 186.123 183.337 186.162 183.258 186.17L84.6578 195.741L84.6267 195.744Z" fill="#002E5D"/>
<path d="M20.5224 201.969C20.443 201.973 20.3653 201.945 20.3065 201.891C20.2477 201.838 20.2126 201.763 20.2088 201.683C20.2051 201.604 20.233 201.526 20.2866 201.467C20.3401 201.408 20.4148 201.373 20.4942 201.369L61.8724 197.35C61.9504 197.345 62.0276 197.37 62.0873 197.421C62.1471 197.471 62.1846 197.543 62.192 197.621C62.1994 197.699 62.176 197.777 62.1268 197.838C62.0776 197.899 62.0066 197.938 61.9289 197.947L20.5507 201.966L20.5224 201.969Z" fill="#002E5D"/>
<path d="M113.718 226.59C113.496 226.589 113.275 226.568 113.057 226.528L99.1145 223.914C99.0362 223.9 98.9669 223.854 98.9219 223.789C98.8768 223.723 98.8597 223.642 98.8743 223.564C98.889 223.485 98.9341 223.416 98.9998 223.371C99.0655 223.326 99.1464 223.309 99.2247 223.323L113.167 225.937C113.616 226.021 114.079 225.998 114.518 225.872C114.957 225.745 115.361 225.517 115.696 225.207C116.032 224.897 116.291 224.512 116.451 224.084C116.612 223.655 116.671 223.195 116.622 222.74L114.665 204.187H109.726V215.545C109.725 215.596 109.712 215.646 109.687 215.69C109.662 215.734 109.626 215.771 109.583 215.798C109.54 215.825 109.491 215.84 109.441 215.843C109.39 215.846 109.339 215.836 109.294 215.814L91.913 207.368L82.4965 207.035C82.4327 207.034 82.3709 207.012 82.32 206.974C82.2692 206.935 82.2321 206.881 82.214 206.82L80.6771 201.565C80.6575 201.526 80.6467 201.483 80.6454 201.439C80.6441 201.395 80.6524 201.352 80.6697 201.311C80.687 201.271 80.7129 201.235 80.7456 201.206C80.7782 201.177 80.8168 201.156 80.8587 201.143C80.9005 201.13 80.9447 201.127 80.9879 201.134C81.0312 201.14 81.0725 201.156 81.1091 201.18C81.1456 201.204 81.1765 201.235 81.1994 201.273C81.2224 201.31 81.237 201.352 81.2421 201.395L82.7169 206.444L91.9893 206.777C92.0304 206.778 92.0709 206.788 92.1079 206.806L109.116 215.07V203.887C109.116 203.807 109.147 203.731 109.203 203.675C109.26 203.619 109.336 203.587 109.415 203.587H114.927C115.002 203.583 115.075 203.609 115.13 203.659C115.186 203.708 115.22 203.778 115.224 203.853L117.202 222.678C117.252 223.17 117.2 223.668 117.047 224.138C116.895 224.609 116.645 225.042 116.315 225.411C115.985 225.779 115.582 226.074 115.131 226.278C114.681 226.481 114.193 226.587 113.698 226.59H113.718Z" fill="#325D9C"/>
<path d="M80.9625 210.146C80.9166 210.145 80.8713 210.134 80.8297 210.115C80.7586 210.079 80.7043 210.017 80.6789 209.942C80.6534 209.867 80.6589 209.784 80.6941 209.713L82.231 206.585C82.2669 206.515 82.3289 206.462 82.4037 206.437C82.4784 206.412 82.5599 206.418 82.6305 206.453C82.701 206.488 82.755 206.549 82.7807 206.624C82.8064 206.698 82.8018 206.78 82.7678 206.851L81.2309 209.979C81.2062 210.029 81.1679 210.071 81.1205 210.101C81.0731 210.13 81.0184 210.146 80.9625 210.146Z" fill="#002E5D"/>
<path d="M74.7723 250.308C74.6957 250.309 74.622 250.279 74.5663 250.227C74.5106 250.174 74.4771 250.102 74.4728 250.026C74.4704 249.947 74.4986 249.871 74.5513 249.813C74.604 249.755 74.6771 249.72 74.7553 249.715L97.7131 248.815L98.9477 221.72L93.3198 213.042C93.2972 213.009 93.2814 212.972 93.2734 212.933C93.2653 212.893 93.2653 212.853 93.2731 212.814C93.281 212.774 93.2966 212.737 93.3192 212.704C93.3417 212.671 93.3706 212.642 93.4042 212.621C93.4379 212.599 93.4755 212.584 93.5149 212.577C93.5544 212.57 93.5948 212.571 93.6338 212.58C93.6728 212.589 93.7096 212.606 93.7421 212.63C93.7745 212.653 93.802 212.683 93.8227 212.717L99.5014 221.485C99.5352 221.538 99.552 221.6 99.5495 221.663L98.3177 249.109C98.3124 249.183 98.281 249.251 98.2291 249.303C98.1772 249.355 98.1083 249.387 98.0351 249.392L74.7836 250.308H74.7723Z" fill="#002E5D"/>
<path d="M68.1274 254.571C68.0545 254.573 67.9836 254.546 67.9296 254.497L49.6618 238.376C48.3608 237.224 47.5672 235.604 47.454 233.869C47.3407 232.134 47.917 230.424 49.0572 229.113L62.5617 213.631C62.5877 213.601 62.6193 213.576 62.6546 213.559C62.69 213.541 62.7284 213.531 62.7678 213.528C62.8071 213.526 62.8466 213.531 62.884 213.544C62.9213 213.556 62.9558 213.576 62.9855 213.602C63.0152 213.628 63.0395 213.66 63.0569 213.695C63.0744 213.731 63.0848 213.769 63.0874 213.808C63.09 213.848 63.0849 213.887 63.0722 213.925C63.0596 213.962 63.0397 213.997 63.0138 214.026L49.5092 229.509C48.4738 230.701 47.9507 232.254 48.0539 233.831C48.1571 235.407 48.8782 236.879 50.0601 237.926L68.1076 253.847L71.7239 250.026L57.4029 235.431C57.3748 235.402 57.3529 235.367 57.3383 235.33C57.3238 235.292 57.3169 235.251 57.3181 235.211C57.3195 235.171 57.329 235.131 57.346 235.095C57.363 235.058 57.3871 235.026 57.417 234.999L69.1191 224.477C69.1583 224.443 69.2058 224.419 69.257 224.408C69.3082 224.397 69.3613 224.4 69.4112 224.416C69.461 224.432 69.5058 224.461 69.5413 224.499C69.5768 224.538 69.6016 224.585 69.6135 224.636L74.3033 245.865C74.3121 245.904 74.3132 245.943 74.3066 245.982C74.3 246.021 74.2858 246.058 74.2648 246.092C74.2438 246.125 74.2164 246.154 74.1843 246.177C74.1521 246.199 74.1158 246.216 74.0773 246.224C73.9995 246.24 73.9185 246.226 73.8514 246.183C73.7844 246.14 73.7367 246.073 73.7185 245.995L69.1445 225.266L58.0498 235.233L72.3539 249.797C72.4076 249.852 72.4376 249.927 72.4376 250.004C72.4376 250.082 72.4076 250.156 72.3539 250.212L68.3393 254.477C68.3119 254.506 68.2791 254.529 68.2427 254.545C68.2064 254.561 68.1672 254.57 68.1274 254.571Z" fill="#002E5D"/>
<path d="M77.4988 262.165C77.4255 262.166 77.3546 262.139 77.301 262.088L69.0938 254.808C69.0376 254.755 69.0043 254.682 69.0008 254.604C68.9973 254.527 69.024 254.451 69.0752 254.393C69.1264 254.334 69.1982 254.298 69.2754 254.292C69.3526 254.286 69.4293 254.309 69.4893 254.358L77.4819 261.446L80.8015 257.965L76.8829 253.702C76.8447 253.662 76.8187 253.611 76.8076 253.556C76.7965 253.502 76.801 253.445 76.8203 253.393C76.8397 253.34 76.8733 253.295 76.9173 253.26C76.9613 253.226 77.014 253.205 77.0694 253.199L78.3351 253.06V251.601L72.8033 250.874C72.7242 250.863 72.6527 250.821 72.6041 250.757C72.5555 250.694 72.5337 250.614 72.5434 250.535C72.5486 250.495 72.5615 250.457 72.5814 250.423C72.6013 250.389 72.6278 250.359 72.6593 250.335C72.6908 250.311 72.7268 250.294 72.7651 250.284C72.8034 250.274 72.8432 250.272 72.8824 250.277L78.6741 251.046C78.744 251.056 78.8084 251.089 78.8564 251.14C78.9044 251.192 78.9328 251.259 78.9368 251.329V253.309C78.9332 253.381 78.9041 253.448 78.8549 253.5C78.8057 253.552 78.7395 253.585 78.6685 253.592L77.7248 253.697L81.44 257.724C81.4922 257.78 81.5213 257.854 81.5213 257.931C81.5213 258.007 81.4922 258.081 81.44 258.137L77.7192 262.032C77.6946 262.069 77.6621 262.1 77.624 262.123C77.5859 262.146 77.5431 262.16 77.4988 262.165Z" fill="#002E5D"/>
<path d="M94.2578 376.557H87.7824C87.7058 376.557 87.6321 376.528 87.5764 376.475C87.5207 376.423 87.4873 376.351 87.4829 376.274L80.9313 289.622C80.9257 289.582 80.9285 289.541 80.9394 289.501C80.9504 289.462 80.9693 289.425 80.9949 289.393C81.0206 289.361 81.0525 289.335 81.0887 289.316C81.1249 289.297 81.1645 289.286 81.2053 289.282C81.246 289.279 81.287 289.285 81.3256 289.298C81.3643 289.311 81.3998 289.332 81.4299 289.36C81.4601 289.388 81.4843 289.421 81.5011 289.458C81.5178 289.496 81.5268 289.536 81.5274 289.577L88.0593 375.972H93.9753C94.2578 371.245 98.0069 309.531 99.5269 286.169C101.095 262.06 97.7526 249.316 97.7187 249.188C97.6983 249.149 97.6869 249.105 97.6855 249.06C97.6841 249.016 97.6927 248.971 97.7105 248.93C97.7284 248.89 97.7552 248.853 97.7889 248.824C97.8226 248.795 97.8625 248.774 97.9054 248.762C97.9484 248.75 97.9935 248.748 98.0374 248.756C98.0813 248.763 98.1229 248.781 98.1591 248.807C98.1954 248.833 98.2254 248.867 98.2469 248.906C98.2685 248.945 98.2811 248.988 98.2838 249.033C98.3205 249.16 101.688 261.987 100.112 286.208C98.5409 310.382 94.5856 375.632 94.546 376.288C94.538 376.36 94.5045 376.427 94.4516 376.476C94.3988 376.525 94.33 376.554 94.2578 376.557Z" fill="#325D9C"/>
<path d="M49.6844 376.557H43.4689C43.4245 376.557 43.3807 376.547 43.3407 376.528C43.3006 376.509 43.2653 376.481 43.2372 376.447C43.2095 376.412 43.1895 376.372 43.1788 376.329C43.1681 376.286 43.1668 376.242 43.1751 376.198C43.322 375.468 57.7504 302.944 60.5728 286.316C63.398 269.629 71.0826 256.452 71.1589 256.319C71.1994 256.25 71.2654 256.2 71.3425 256.18C71.4196 256.161 71.5014 256.172 71.57 256.213C71.6385 256.253 71.6882 256.319 71.7081 256.396C71.7279 256.474 71.7164 256.555 71.6759 256.624C71.5996 256.754 63.9772 269.835 61.1633 286.415C58.4426 302.455 44.9437 370.383 43.8362 375.958H49.4697L85.8529 276.007C85.8802 275.932 85.9362 275.871 86.0085 275.837C86.0809 275.803 86.1636 275.8 86.2385 275.827C86.3134 275.855 86.3744 275.911 86.4081 275.983C86.4417 276.055 86.4453 276.138 86.4179 276.213L49.9726 376.359C49.9513 376.418 49.912 376.469 49.8603 376.505C49.8086 376.54 49.7471 376.559 49.6844 376.557Z" fill="#325D9C"/>
<path d="M100.86 388.784H88.1809C88.1043 388.784 88.0306 388.755 87.9749 388.702C87.9192 388.65 87.8857 388.578 87.8814 388.501L87.5989 378.036C87.5958 377.958 87.6238 377.882 87.6767 377.824C87.7296 377.766 87.8032 377.732 87.8814 377.728C87.958 377.728 88.0317 377.757 88.0874 377.81C88.1431 377.862 88.1765 377.934 88.1809 378.011L88.4634 388.193H100.649L102.242 384.751L96.9419 383.037C96.8746 383.017 96.8172 382.972 96.7808 382.912L94.111 378.704C94.0895 378.671 94.0748 378.633 94.0677 378.595C94.0607 378.556 94.0614 378.516 94.0698 378.477C94.0782 378.438 94.0941 378.402 94.1167 378.369C94.1393 378.337 94.1681 378.309 94.2014 378.288C94.2691 378.246 94.3504 378.233 94.428 378.25C94.5056 378.268 94.5733 378.315 94.6167 378.381L97.2272 382.499L102.748 384.284C102.788 384.298 102.826 384.319 102.857 384.348C102.889 384.377 102.914 384.412 102.931 384.451C102.949 384.49 102.958 384.532 102.958 384.574C102.958 384.616 102.949 384.658 102.931 384.697L101.12 388.614C101.096 388.663 101.06 388.705 101.014 388.735C100.968 388.765 100.915 388.782 100.86 388.784Z" fill="#002E5D"/>
<path d="M87.9915 381.575C87.9915 381.575 96.3033 385.503 96.34 385.413C96.3767 385.322 97.0491 382.74 97.0491 382.74L102.674 384.559L100.86 388.484H88.1807L87.9915 381.575Z" fill="#002E5D"/>
<path d="M48.9837 388.784H36.3154C36.2562 388.786 36.1976 388.771 36.1473 388.74C36.0969 388.708 36.057 388.663 36.0328 388.609L34.2134 384.686C34.196 384.647 34.187 384.605 34.187 384.563C34.187 384.52 34.196 384.478 34.2134 384.44C34.2306 384.4 34.2559 384.365 34.2875 384.337C34.3191 384.308 34.3565 384.286 34.397 384.273L39.9175 382.488L42.5308 378.37C42.5733 378.303 42.6405 378.255 42.7178 378.238C42.7951 378.22 42.8762 378.234 42.9433 378.277C43.0099 378.32 43.0569 378.388 43.0743 378.466C43.0917 378.543 43.0782 378.625 43.0366 378.692L40.3667 382.901C40.3282 382.959 40.2716 383.003 40.2057 383.025L34.9027 384.739L36.499 388.181H48.6813L48.9639 377.999C48.965 377.96 48.9738 377.921 48.9899 377.885C49.006 377.849 49.029 377.817 49.0576 377.79C49.0862 377.763 49.1198 377.742 49.1566 377.728C49.1933 377.714 49.2325 377.707 49.2718 377.708C49.3111 377.709 49.3499 377.718 49.3858 377.734C49.4217 377.75 49.4541 377.773 49.4811 377.802C49.5081 377.831 49.5292 377.864 49.5433 377.901C49.5573 377.938 49.5639 377.977 49.5628 378.016L49.2803 388.481C49.2803 388.561 49.2492 388.637 49.1938 388.693C49.1383 388.75 49.0628 388.782 48.9837 388.784Z" fill="#002E5D"/>
<path d="M49.1588 381.575C49.1588 381.575 40.847 385.498 40.8188 385.413C40.7905 385.328 40.1096 382.74 40.1096 382.74L34.4846 384.559L36.3041 388.484H48.9724L49.1588 381.575Z" fill="#002E5D"/>
<path d="M114.783 202.792C114.704 202.792 114.628 202.76 114.571 202.704C114.515 202.648 114.484 202.572 114.484 202.492V200.914C114.484 200.835 114.515 200.758 114.571 200.702C114.628 200.646 114.704 200.614 114.783 200.614C114.863 200.614 114.939 200.646 114.995 200.702C115.051 200.758 115.083 200.835 115.083 200.914V202.509C115.079 202.586 115.046 202.658 114.99 202.711C114.934 202.764 114.86 202.793 114.783 202.792Z" fill="#002E5D"/>
<path d="M109.217 202.99C109.147 202.991 109.078 202.966 109.024 202.92C108.969 202.875 108.933 202.811 108.921 202.741L108.72 201.522C108.712 201.483 108.711 201.442 108.719 201.402C108.727 201.362 108.743 201.324 108.766 201.291C108.789 201.257 108.818 201.228 108.852 201.207C108.887 201.185 108.925 201.17 108.965 201.164C109.005 201.157 109.046 201.159 109.085 201.169C109.125 201.179 109.162 201.196 109.194 201.221C109.226 201.245 109.253 201.276 109.273 201.311C109.293 201.347 109.306 201.386 109.311 201.426L109.511 202.642C109.518 202.681 109.517 202.721 109.509 202.759C109.5 202.798 109.484 202.834 109.461 202.866C109.438 202.899 109.409 202.926 109.375 202.947C109.342 202.967 109.304 202.981 109.265 202.987L109.217 202.99Z" fill="#002E5D"/>
<path d="M106.878 62.7632C112.614 57.0207 112.614 47.7103 106.878 41.9678C101.142 36.2253 91.8416 36.2253 86.1055 41.9678C80.3693 47.7103 80.3693 57.0207 86.1055 62.7632C91.8416 68.5057 101.142 68.5057 106.878 62.7632Z" fill="#BBD1DC"/>
<path d="M389.633 230.145C391.76 228.016 391.76 224.563 389.633 222.434C387.506 220.304 384.057 220.304 381.93 222.434C379.803 224.563 379.803 228.016 381.93 230.145C384.057 232.275 387.506 232.275 389.633 230.145Z" fill="#BBD1DC"/>
</g>
<defs>
<clipPath id="clip0_43_224">
<rect width="418" height="400" fill="white"/>
</clipPath>
</defs>
</svg>
