<svg width="418" height="400" viewBox="0 0 418 400" fill="none" xmlns="http://www.w3.org/2000/svg">
<path d="M372.912 176.821C372.912 177.025 372.912 177.228 372.912 177.429C372.585 264.349 302.007 334.71 214.993 334.71C127.788 334.71 57.072 264.019 57.072 176.821C57.072 175.118 57.0993 173.422 57.1538 171.733C57.9328 146.32 64.8719 121.476 77.3748 99.3358C104.455 51.3353 155.93 18.9307 214.991 18.9307C273.949 18.9307 325.361 51.2325 352.488 99.1067C365.917 122.804 372.955 149.585 372.912 176.821Z" fill="#F3F8FF"/>
<path d="M352.488 99.1044L294.612 106.942V111.033H282.546L232.348 95.0933L188.194 98.9829L165.593 111.703L165.527 111.692H111.21L111.053 102.858L77.3634 99.3522C64.8663 121.488 57.9306 146.326 57.1519 171.733L112.131 163.809L112.021 157.591C113.459 158.785 115.722 160.333 118.448 162.053C120.111 163.144 121.926 164.278 123.893 165.454C123.063 166.564 122.582 167.254 122.582 167.254C122.582 167.254 119.888 175.435 126.133 178.133C132.378 180.83 136.259 177.163 136.259 177.163C136.259 177.163 137.493 175.856 139.151 173.785C139.787 174.103 140.437 174.421 141.093 174.741C139.866 176.496 139.125 177.665 139.125 177.665C139.125 177.665 136.787 186.005 143.13 188.453C149.473 190.9 153.202 187.05 153.202 187.05C153.202 187.05 154.958 185.017 157.045 181.99C158.102 182.457 159.135 182.904 160.143 183.341C158.247 185.877 156.87 187.983 156.433 188.633C156.334 188.78 156.25 188.937 156.18 189.1C155.617 190.44 153.443 196.508 158.6 199.645C163.851 202.835 169.224 197.504 169.224 197.504C171.281 195.293 173.157 192.922 174.835 190.412C175.361 190.692 175.877 190.975 176.389 191.253C174.617 193.757 173.196 196.11 172.469 197.347C172.106 197.97 171.943 198.69 172.001 199.409C172.49 205.72 177.06 206.356 179.644 206.082C180.871 205.954 184.051 202.015 186.658 197.335C199.266 205.463 204.48 211.444 209.081 213.067C211.763 214.107 214.175 213.146 215.178 212.627C215.466 212.496 215.756 212.349 216.057 212.185C216.529 211.934 216.968 211.627 217.367 211.271C217.374 211.267 217.381 211.261 217.388 211.255C223.649 205.598 210.809 192.41 205.354 187.305C211.232 192.312 220.13 199.154 227.347 201.536C227.516 201.594 227.602 201.618 227.602 201.618C228.686 202.013 229.82 202.257 230.971 202.342C231.273 202.37 231.57 202.387 231.86 202.391H231.948C232.061 202.391 232.182 202.391 232.287 202.391C233.786 202.361 235.119 201.975 236.215 201.134C236.777 200.713 237.253 200.188 237.618 199.589C238.23 198.553 238.465 197.339 238.284 196.15C237.569 189.292 227.221 179.647 222.403 175.494L222.601 175.393C226.279 177.964 230.7 180.865 235.165 183.415C235.99 183.883 236.797 184.329 237.588 184.755C240.772 186.464 243.916 187.92 246.766 188.867L246.813 188.885C248.564 189.558 250.412 189.941 252.286 190.019C252.443 190.019 252.597 190.019 252.754 190.019H252.88C252.964 190.019 253.046 190.019 253.128 190.019C254.503 189.981 255.686 189.666 256.609 188.997C256.949 188.748 257.262 188.464 257.544 188.151C258.088 187.579 258.492 186.89 258.726 186.137C258.961 185.384 259.019 184.587 258.896 183.808C258.372 177.247 249.724 168.285 246.505 165.16C248.913 167.147 251.522 169.229 254.182 171.237C254.182 171.237 254.533 171.508 255.155 171.966C260.317 175.805 265.608 179.285 269.956 181.176C272.545 182.345 274.866 183.023 276.33 182.632C276.875 182.587 277.405 182.432 277.889 182.177C278.56 181.793 279.181 181.328 279.736 180.79C280.609 180.017 281.346 179.103 281.917 178.086C282.444 177.252 282.824 176.334 283.042 175.372C283.1 175.093 283.13 174.809 283.133 174.524V174.493C283.103 171.078 280.634 167.14 278.2 164.744L270.927 157.579L294.622 156.041V165.087L372.92 177.417C372.92 177.216 372.92 177.013 372.92 176.81C372.958 149.576 365.918 122.799 352.488 99.1044Z" fill="white"/>
<path d="M96.5461 72.707C96.4693 72.7073 96.3951 72.679 96.338 72.6275C96.2757 72.5726 96.2378 72.4953 96.2326 72.4124C96.2273 72.3296 96.2551 72.2481 96.31 72.1857C110.276 56.3105 127.292 43.4044 146.347 34.2345C165.401 25.0646 186.104 19.8181 207.227 18.8067C207.268 18.8048 207.309 18.8111 207.348 18.8251C207.387 18.8391 207.422 18.8607 207.453 18.8885C207.483 18.9162 207.508 18.9498 207.525 18.9871C207.542 19.0244 207.552 19.0648 207.554 19.1059C207.556 19.147 207.55 19.188 207.537 19.2267C207.523 19.2654 207.502 19.301 207.474 19.3315C207.446 19.3619 207.413 19.3865 207.376 19.404C207.339 19.4215 207.298 19.4314 207.257 19.4332C164.4 21.5393 125.167 40.4215 96.7799 72.6018C96.7505 72.6347 96.7144 72.6611 96.6742 72.6792C96.6339 72.6973 96.5903 72.7068 96.5461 72.707Z" fill="#002E5D"/>
<path d="M365.96 223.613C365.928 223.613 365.896 223.608 365.866 223.599C365.826 223.587 365.79 223.567 365.758 223.541C365.726 223.515 365.7 223.483 365.68 223.446C365.661 223.41 365.649 223.37 365.645 223.328C365.641 223.287 365.646 223.246 365.658 223.206C370.707 206.798 373.032 189.672 372.538 172.511C372.537 172.428 372.568 172.347 372.625 172.286C372.683 172.226 372.761 172.191 372.845 172.188C372.886 172.186 372.928 172.193 372.967 172.207C373.006 172.222 373.041 172.244 373.071 172.273C373.101 172.301 373.125 172.336 373.142 172.374C373.158 172.412 373.167 172.453 373.167 172.495C373.663 189.724 371.329 206.917 366.259 223.391C366.239 223.455 366.2 223.511 366.146 223.551C366.092 223.591 366.027 223.613 365.96 223.613Z" fill="#002E5D"/>
<path d="M290.339 334.864C331.398 334.864 364.683 301.585 364.683 260.534C364.683 219.483 331.398 186.204 290.339 186.204C249.279 186.204 215.994 219.483 215.994 260.534C215.994 301.585 249.279 334.864 290.339 334.864Z" fill="#BBD1DC"/>
<path d="M400.287 81.1709L292.134 95.82V153.977L409.768 172.501L400.287 81.1709Z" fill="white"/>
<path d="M108.575 91.727L109.653 152.687L17.0114 166.041L7.31592 81.1709L108.575 91.727Z" fill="white"/>
<path d="M275.633 153.633L234.63 113.267L188.126 105.701L163.04 100.558H108.731L109.543 146.469C117.786 152.602 131.583 161.052 154.448 170.779C201.702 190.881 202.142 207.244 213.479 201.08C223.564 195.591 205.452 178.565 201.302 174.848C209.623 182.125 226.578 195.446 233.634 190.021C241.312 184.121 226.064 169.764 219.84 164.411L220.1 164.283C230.854 171.763 247.977 182.265 254 177.887C263.048 171.319 242.679 152.955 242.679 152.955C253.668 162.139 269.723 174.14 275.294 171.066C277.88 169.64 280.559 165.924 280.535 163.383C280.524 159.97 278.057 156.029 275.633 153.633Z" fill="white"/>
<path d="M160.068 102.281C160.068 102.281 160.606 107.559 173.425 110.252L188.215 105.701L234.719 113.267L268.437 146.459L292.134 144.921V99.9176H280.075L229.872 83.9712L185.706 87.8491L160.068 102.281Z" fill="white"/>
<path d="M162.584 105.822L193.246 94.7754L232.241 93.2046L271.892 117.933H292.143V144.931L268.446 146.469L234.639 113.277L188.215 105.701L173.425 110.252C173.425 110.252 167.386 109.31 162.584 105.822Z" fill="#F4B18F"/>
<path d="M292.134 117.933L403.376 110.97L409.768 172.502L292.134 153.977V117.933Z" fill="#F70431"/>
<path d="M109.003 115.85L109.652 152.687L17.0113 166.041L10.575 109.551L109.003 115.85Z" fill="#325D9C"/>
<path d="M109.003 115.85L160.068 118.435L234.429 128.991C234.429 128.991 272.853 172.284 280.554 164.262C280.554 164.262 279.247 169.977 273.896 171.508C268.544 173.039 251.685 160.127 251.685 160.127L242.689 152.953L231.827 143.369L211.019 139.76C211.019 139.76 253.324 182.892 256.141 171.55C256.141 171.55 257.663 175.512 254.019 177.88C250.374 180.248 244.321 177.766 244.321 177.766C239.084 175.836 234.08 173.324 229.405 170.276L220.111 164.283L211.019 157.532L189.44 150.174C189.44 150.174 234.312 195.732 235.394 183.471C235.394 183.471 237.183 187.548 233.634 190.016C230.085 192.485 225.112 190.507 225.112 190.507C225.112 190.507 216.307 187.906 201.302 174.846L196.627 170.489L190.934 169.835C190.934 169.835 213.109 202.616 216.394 195.026C216.394 195.026 217.647 199.233 213.186 201.234C213.186 201.234 210.121 203.321 206.596 201.956C203.07 200.591 194.866 193.359 193.646 192.784C193.646 192.784 188.152 188.619 182.98 185.426C177.808 182.233 171.683 178.413 163.068 174.594C154.452 170.774 141.346 165.293 132.441 160.468C123.535 155.644 113.468 149.73 109.529 146.467L109.003 115.85Z" fill="#F4B18F"/>
<path d="M120.101 156.132C120.101 156.132 117.41 164.318 123.666 167.004C129.923 169.69 133.792 166.034 133.792 166.034C133.792 166.034 150.274 148.587 143.918 139.854C137.561 131.121 120.101 156.132 120.101 156.132Z" fill="#F4B18F"/>
<path d="M136.647 166.536C136.647 166.536 134.309 174.877 140.652 177.326C146.994 179.776 150.723 175.924 150.723 175.924C150.723 175.924 166.46 157.691 159.748 149.192C153.036 140.693 136.647 166.536 136.647 166.536Z" fill="#F4B18F"/>
<path d="M153.954 177.523C153.854 177.669 153.77 177.826 153.702 177.99C153.141 179.332 150.966 185.4 156.122 188.534C161.37 191.725 166.745 186.393 166.745 186.393C166.745 186.393 181.926 170.66 175.629 161.838C169.675 153.486 155.537 175.148 153.954 177.523Z" fill="#F4B18F"/>
<path d="M169.518 188.301C169.461 187.583 169.625 186.864 169.986 186.241C172.244 182.38 181.287 167.714 186.414 171.347C192.301 175.519 179.882 194.689 177.151 194.976C174.58 195.248 170.009 194.621 169.518 188.301Z" fill="#F4B18F"/>
<path d="M143.204 138.982C146.377 141.32 146.148 148.166 141.979 153.828C137.811 159.489 131.288 161.817 128.115 159.484C124.943 157.151 125.749 150.667 129.916 145.006C134.082 139.344 140.032 136.649 143.204 138.982Z" fill="white"/>
<path d="M158.82 148.278C162.139 150.396 162.446 157.64 158.665 163.566C154.885 169.491 148.448 171.854 145.124 169.734C141.799 167.614 142.178 161.086 145.961 155.169C149.744 149.253 155.5 146.158 158.82 148.278Z" fill="white"/>
<path d="M174.633 160.73C177.953 162.85 178.213 169.451 174.432 175.377C170.652 181.302 164.255 184.301 160.935 182.198C157.615 180.094 157.973 173.879 161.756 167.955C165.539 162.032 171.311 158.612 174.633 160.73Z" fill="white"/>
<path d="M186.239 171.211C188.184 172.56 188.825 176.721 186.414 180.19C184.004 183.659 179.457 185.124 177.514 183.775C175.571 182.427 175.931 178.71 178.339 175.241C180.747 171.772 184.296 169.86 186.239 171.211Z" fill="white"/>
<path d="M409.768 172.817H409.719L292.085 154.288C292.011 154.276 291.944 154.238 291.895 154.181C291.847 154.124 291.82 154.052 291.821 153.977V95.8202C291.821 95.7441 291.848 95.6704 291.898 95.6129C291.948 95.5553 292.017 95.5177 292.092 95.507L400.245 80.8602C400.287 80.8552 400.329 80.8584 400.369 80.8696C400.409 80.8808 400.447 80.8999 400.479 80.9257C400.513 80.9512 400.54 80.9832 400.561 81.0198C400.581 81.0564 400.594 81.0967 400.598 81.1384L410.077 172.471C410.081 172.515 410.076 172.559 410.063 172.601C410.049 172.642 410.027 172.681 409.998 172.713C409.969 172.746 409.933 172.772 409.893 172.79C409.853 172.808 409.809 172.817 409.766 172.817H409.768ZM292.45 153.711L409.413 172.13L400.012 81.5264L292.452 96.0937L292.45 153.711Z" fill="#002E5D"/>
<path d="M173.425 110.565C173.402 110.567 173.38 110.567 173.357 110.565C160.353 107.76 159.774 102.536 159.755 102.314C159.75 102.254 159.762 102.194 159.79 102.14C159.818 102.087 159.861 102.044 159.914 102.014L185.552 87.5757C185.591 87.5541 185.634 87.5406 185.678 87.536L229.844 83.6604C229.885 83.656 229.926 83.66 229.966 83.6721L280.119 99.5974H292.134C292.178 99.5937 292.222 99.599 292.263 99.6131C292.304 99.6272 292.342 99.6497 292.375 99.6793C292.407 99.7089 292.433 99.7448 292.45 99.7848C292.468 99.8249 292.477 99.8681 292.477 99.9118C292.477 99.9556 292.468 99.9988 292.45 100.039C292.433 100.079 292.407 100.115 292.375 100.144C292.342 100.174 292.304 100.196 292.263 100.211C292.222 100.225 292.178 100.23 292.134 100.226H280.075C280.042 100.227 280.01 100.221 279.979 100.21L229.835 84.2892L185.8 88.1554L160.421 102.442C160.671 103.377 162.394 107.522 173.411 109.922L192.937 103.915C192.971 103.905 193.005 103.901 193.04 103.901L230.527 104.978C230.606 104.987 230.678 105.025 230.73 105.085C230.782 105.145 230.81 105.222 230.808 105.301C230.805 105.381 230.773 105.456 230.718 105.513C230.662 105.569 230.587 105.603 230.508 105.607L193.073 104.53L173.516 110.546C173.487 110.557 173.456 110.564 173.425 110.565Z" fill="#002E5D"/>
<path d="M168.183 104.174C168.118 104.175 168.054 104.155 168.001 104.118C167.948 104.081 167.908 104.028 167.886 103.966C167.858 103.888 167.863 103.801 167.899 103.726C167.935 103.65 167.999 103.592 168.078 103.564C170.315 102.774 173.67 101.577 174.266 101.327C174.5 100.61 175.368 96.0072 175.877 93.1461C175.884 93.1055 175.899 93.0666 175.921 93.0318C175.944 92.997 175.973 92.967 176.007 92.9435C176.041 92.92 176.079 92.9035 176.119 92.8949C176.16 92.8864 176.201 92.886 176.242 92.8937C176.324 92.9085 176.397 92.9552 176.445 93.0235C176.492 93.0918 176.511 93.1762 176.497 93.2583C175.003 101.603 174.813 101.727 174.675 101.821C174.46 101.963 170.579 103.342 168.286 104.158C168.253 104.169 168.218 104.175 168.183 104.174Z" fill="#002E5D"/>
<path d="M17.0116 166.354C16.9423 166.354 16.8751 166.331 16.8199 166.289C16.7866 166.263 16.7589 166.231 16.7384 166.195C16.7179 166.158 16.705 166.118 16.7007 166.076L7.00285 81.2181C6.99702 81.1713 7.002 81.1238 7.0174 81.0792C7.0328 81.0347 7.05822 80.9942 7.0917 80.961C7.12466 80.9277 7.16466 80.9022 7.20876 80.8865C7.25286 80.8707 7.29994 80.865 7.34653 80.8698L108.605 91.4236C108.682 91.4315 108.753 91.467 108.805 91.5234C108.857 91.5797 108.886 91.6531 108.888 91.7298L109.964 152.689C109.966 152.766 109.939 152.841 109.89 152.899C109.84 152.958 109.771 152.996 109.695 153.007L17.056 166.352L17.0116 166.354ZM7.67384 81.5243L17.2898 165.683L109.335 152.413L108.266 92.0103L7.67384 81.5243Z" fill="#002E5D"/>
<path d="M163.128 100.871H108.731C108.653 100.865 108.579 100.829 108.526 100.77C108.473 100.712 108.443 100.636 108.443 100.557C108.443 100.478 108.473 100.402 108.526 100.344C108.579 100.286 108.653 100.249 108.731 100.243H163.128C163.207 100.249 163.28 100.286 163.334 100.344C163.387 100.402 163.417 100.478 163.417 100.557C163.417 100.636 163.387 100.712 163.334 100.77C163.28 100.829 163.207 100.865 163.128 100.871Z" fill="#002E5D"/>
<path d="M273.26 171.861C261.977 171.861 232.921 144.786 231.595 143.545C231.565 143.516 231.54 143.482 231.522 143.445C231.505 143.407 231.495 143.366 231.493 143.324C231.491 143.282 231.498 143.241 231.512 143.202C231.526 143.162 231.548 143.127 231.577 143.096C231.605 143.065 231.639 143.04 231.677 143.023C231.715 143.005 231.756 142.995 231.797 142.994C231.839 142.992 231.88 142.998 231.92 143.013C231.959 143.027 231.995 143.049 232.026 143.077C232.112 143.159 240.833 151.305 250.509 158.752C263.223 168.537 271.785 172.698 275.249 170.783C277.833 169.355 280.351 165.688 280.33 163.378C280.302 160.057 277.88 156.2 275.493 153.848L234.579 113.552L188.175 106.002C188.097 105.984 188.028 105.937 187.983 105.871C187.939 105.804 187.921 105.723 187.933 105.644C187.946 105.565 187.989 105.494 188.052 105.445C188.116 105.396 188.196 105.373 188.276 105.38L234.777 112.947C234.841 112.958 234.901 112.988 234.948 113.033L275.944 153.402C278.422 155.842 280.938 159.872 280.968 163.371C280.991 166.162 278.083 169.942 275.563 171.333C274.852 171.701 274.06 171.883 273.26 171.861Z" fill="#002E5D"/>
<path d="M250.353 179.227C238.102 179.227 212.064 158.76 210.825 157.778C210.76 157.726 210.718 157.651 210.709 157.568C210.699 157.485 210.723 157.403 210.775 157.337C210.826 157.272 210.902 157.23 210.985 157.221C211.067 157.212 211.15 157.235 211.215 157.287C211.517 157.521 238.336 178.617 250.32 178.619C251.76 178.619 252.985 178.315 253.925 177.635C254.573 177.188 255.108 176.597 255.487 175.907C255.865 175.217 256.078 174.448 256.106 173.661C256.527 165.838 242.747 153.276 242.609 153.15C242.579 153.122 242.554 153.089 242.536 153.051C242.518 153.014 242.508 152.974 242.506 152.933C242.504 152.891 242.509 152.85 242.523 152.811C242.537 152.772 242.558 152.736 242.586 152.706C242.614 152.675 242.647 152.65 242.684 152.632C242.722 152.614 242.762 152.604 242.803 152.602C242.844 152.6 242.886 152.606 242.925 152.62C242.964 152.633 242.999 152.655 243.03 152.682C243.608 153.204 257.17 165.571 256.733 173.692C256.7 174.571 256.462 175.43 256.038 176.201C255.614 176.972 255.016 177.633 254.292 178.133C253.259 178.893 251.917 179.227 250.353 179.227Z" fill="#002E5D"/>
<path d="M229.575 191.613C225.252 191.613 219.174 188.82 211.419 183.259C203.407 177.513 196.472 170.783 196.404 170.718C196.355 170.658 196.33 170.582 196.334 170.504C196.338 170.427 196.37 170.354 196.425 170.299C196.48 170.244 196.553 170.211 196.63 170.207C196.707 170.203 196.784 170.227 196.844 170.276C197.078 170.51 218.264 190.989 229.575 190.991C231.095 190.991 232.437 190.622 233.529 189.783C234.156 189.332 234.665 188.737 235.011 188.046C235.358 187.356 235.532 186.593 235.518 185.821C235.574 177.155 217.455 162.752 217.282 162.609C217.217 162.558 217.175 162.482 217.165 162.4C217.155 162.317 217.178 162.234 217.23 162.169C217.281 162.103 217.356 162.061 217.439 162.051C217.522 162.041 217.605 162.065 217.67 162.116C218.428 162.712 236.213 176.854 236.154 185.825C236.166 186.692 235.968 187.55 235.579 188.325C235.191 189.1 234.621 189.771 233.919 190.28C232.755 191.17 231.307 191.614 229.575 191.613Z" fill="#002E5D"/>
<path d="M121.426 154.634C121.37 154.634 121.314 154.618 121.265 154.589C117.165 152.169 113.19 149.543 109.356 146.721C109.323 146.697 109.295 146.666 109.274 146.63C109.253 146.595 109.239 146.556 109.233 146.515C109.227 146.474 109.229 146.432 109.24 146.392C109.25 146.353 109.268 146.315 109.292 146.282C109.317 146.249 109.348 146.221 109.384 146.2C109.419 146.179 109.458 146.165 109.499 146.159C109.54 146.154 109.581 146.156 109.621 146.166C109.661 146.176 109.699 146.194 109.732 146.219C113.55 149.027 117.507 151.64 121.588 154.05C121.623 154.071 121.654 154.099 121.678 154.132C121.703 154.165 121.721 154.202 121.731 154.242C121.741 154.282 121.743 154.324 121.737 154.364C121.73 154.405 121.716 154.444 121.695 154.48C121.668 154.527 121.629 154.566 121.582 154.593C121.534 154.62 121.481 154.634 121.426 154.634Z" fill="#002E5D"/>
<path d="M157.718 172.471C157.675 172.471 157.632 172.461 157.592 172.443C156.498 171.962 155.488 171.522 154.501 171.102C154.433 171.075 154.377 171.026 154.341 170.963C154.305 170.899 154.293 170.825 154.306 170.753C154.319 170.682 154.357 170.617 154.412 170.57C154.468 170.523 154.538 170.497 154.611 170.496C154.653 170.495 154.695 170.504 154.733 170.522C155.724 170.943 156.741 171.384 157.84 171.871C157.906 171.899 157.961 171.95 157.994 172.014C158.027 172.078 158.037 172.152 158.022 172.223C158.007 172.293 157.969 172.357 157.912 172.402C157.856 172.447 157.786 172.472 157.714 172.471H157.718Z" fill="#002E5D"/>
<path d="M209.134 202.707C205.817 202.707 202.822 200.353 197.982 196.547C194.501 193.813 190.169 190.409 184.023 186.449C183.984 186.429 183.95 186.401 183.923 186.366C183.896 186.332 183.877 186.292 183.866 186.25C183.855 186.208 183.853 186.164 183.859 186.121C183.866 186.078 183.882 186.036 183.906 186C183.93 185.963 183.961 185.932 183.997 185.908C184.034 185.884 184.075 185.867 184.118 185.86C184.161 185.853 184.205 185.854 184.247 185.865C184.29 185.875 184.329 185.895 184.364 185.921C190.534 189.895 194.885 193.31 198.371 196.054C203.191 199.843 206.032 202.076 209.125 202.076C210.448 202.076 211.818 201.669 213.411 200.802C215.108 199.881 216.027 198.616 216.216 196.935C217.06 189.741 203.881 177.513 201.23 175.136L201.12 175.038C200.863 174.804 200.666 174.633 200.533 174.521L200.454 174.451C200.384 174.393 200.346 174.358 200.346 174.358C200.284 174.302 200.247 174.223 200.243 174.14C200.239 174.056 200.268 173.974 200.324 173.912C200.38 173.85 200.458 173.813 200.542 173.809C200.625 173.805 200.707 173.834 200.769 173.89L200.863 173.97L200.947 174.044C201.076 174.154 201.277 174.332 201.541 174.566L201.653 174.666C205.429 178.056 217.696 189.689 216.85 197.003C216.63 198.873 215.575 200.337 213.714 201.349C212.022 202.279 210.549 202.707 209.134 202.707Z" fill="#002E5D"/>
<path d="M173.932 180.421C173.88 180.421 173.828 180.407 173.783 180.381C173.273 180.102 172.756 179.823 172.233 179.544C172.159 179.505 172.104 179.438 172.08 179.358C172.056 179.279 172.065 179.192 172.104 179.119C172.143 179.045 172.21 178.991 172.29 178.967C172.37 178.942 172.456 178.951 172.529 178.99C173.055 179.273 173.574 179.551 174.084 179.83C174.145 179.863 174.193 179.917 174.221 179.981C174.248 180.045 174.254 180.116 174.237 180.184C174.219 180.251 174.18 180.311 174.125 180.354C174.07 180.397 174.002 180.421 173.932 180.421Z" fill="#002E5D"/>
<path d="M138.655 163.876C138.608 163.876 138.562 163.866 138.519 163.846C137.863 163.525 137.216 163.206 136.579 162.888C136.542 162.869 136.509 162.843 136.482 162.812C136.455 162.781 136.435 162.745 136.422 162.705C136.409 162.666 136.404 162.625 136.407 162.584C136.41 162.543 136.421 162.503 136.44 162.466C136.458 162.429 136.484 162.396 136.515 162.369C136.546 162.342 136.583 162.322 136.622 162.309C136.661 162.296 136.702 162.291 136.744 162.294C136.785 162.297 136.825 162.308 136.862 162.327C137.485 162.638 138.129 162.956 138.793 163.28C138.857 163.311 138.909 163.363 138.94 163.427C138.971 163.491 138.98 163.564 138.963 163.634C138.947 163.703 138.908 163.765 138.852 163.809C138.796 163.853 138.726 163.877 138.655 163.876Z" fill="#002E5D"/>
<path d="M128.123 168.304C126.54 168.287 124.978 167.945 123.533 167.299C117.094 164.524 119.776 156.118 119.804 156.034C119.814 156.005 119.827 155.978 119.844 155.952C120.363 155.211 132.621 137.785 140.38 137.706C141.921 137.689 143.186 138.356 144.163 139.683C146.88 143.423 145.984 149.033 141.498 156.389C139.31 159.899 136.806 163.202 134.017 166.256C133.972 166.303 131.786 168.304 128.123 168.304ZM120.393 156.273C120.174 156.974 118.044 164.246 123.788 166.721C129.759 169.292 133.423 165.954 133.575 165.812C133.727 165.669 149.791 148.468 143.663 140.055C142.819 138.886 141.764 138.335 140.441 138.335H140.394C133.116 138.407 121.043 155.345 120.393 156.273Z" fill="#002E5D"/>
<path d="M139.885 150.129C139.865 150.131 139.846 150.131 139.826 150.129C139.459 150.055 135.637 147.458 133.39 145.922C133.356 145.899 133.327 145.869 133.304 145.834C133.282 145.8 133.267 145.761 133.259 145.721C133.252 145.68 133.252 145.639 133.261 145.598C133.269 145.558 133.286 145.52 133.309 145.486C133.332 145.452 133.362 145.423 133.397 145.401C133.431 145.378 133.47 145.363 133.51 145.355C133.551 145.348 133.592 145.348 133.633 145.357C133.673 145.366 133.711 145.382 133.745 145.405C135.835 146.838 139.204 149.115 139.885 149.482C140.469 149.061 142.957 146.42 145.119 144.017C145.177 143.963 145.253 143.932 145.332 143.931C145.411 143.93 145.488 143.959 145.547 144.012C145.606 144.065 145.642 144.138 145.65 144.217C145.657 144.296 145.635 144.375 145.587 144.438C140.815 149.723 140.121 150.129 139.885 150.129Z" fill="#002E5D"/>
<path d="M144.747 178.458C143.305 178.443 141.879 178.162 140.539 177.628C133.993 175.106 136.331 166.548 136.345 166.461C136.353 166.432 136.366 166.404 136.382 166.377C136.869 165.611 148.388 147.582 156.136 147.184C157.674 147.107 158.974 147.722 159.996 149.014C162.864 152.652 162.205 158.339 158.029 165.917C155.991 169.535 153.626 172.959 150.964 176.146C150.924 176.183 148.666 178.458 144.747 178.458ZM136.936 166.674C136.747 167.375 134.919 174.79 140.764 177.041C146.842 179.378 150.349 175.872 150.499 175.723C150.648 175.573 165.976 157.612 159.5 149.405C158.6 148.264 157.506 147.743 156.166 147.811C148.916 148.182 137.549 165.716 136.936 166.672V166.674Z" fill="#002E5D"/>
<path d="M156.145 159.687H156.096C155.724 159.627 151.799 157.175 149.491 155.714C149.421 155.669 149.371 155.599 149.353 155.518C149.334 155.437 149.349 155.352 149.393 155.281C149.437 155.211 149.508 155.161 149.589 155.143C149.67 155.124 149.755 155.139 149.826 155.183C151.972 156.539 155.437 158.689 156.138 159.028C156.706 158.579 159.081 155.821 161.141 153.318C161.167 153.284 161.199 153.257 161.235 153.236C161.272 153.215 161.312 153.202 161.354 153.197C161.396 153.193 161.438 153.196 161.478 153.208C161.518 153.22 161.556 153.24 161.588 153.266C161.621 153.293 161.648 153.326 161.667 153.363C161.687 153.4 161.698 153.441 161.702 153.483C161.705 153.525 161.7 153.567 161.687 153.607C161.674 153.647 161.653 153.683 161.625 153.715C157.012 159.309 156.374 159.687 156.145 159.687Z" fill="#002E5D"/>
<path d="M159.671 189.86C158.357 189.863 157.069 189.497 155.953 188.804C150.548 185.531 152.884 179.122 153.407 177.871C153.484 177.688 153.578 177.513 153.688 177.347L153.807 177.17C158.132 170.658 166.268 159.718 172.139 159.62C173.638 159.604 174.902 160.281 175.88 161.658C178.531 165.375 177.816 170.882 173.811 177.588C171.837 180.819 169.543 183.843 166.963 186.613C166.918 186.66 163.645 189.86 159.671 189.86ZM154.212 177.705C154.12 177.836 154.041 177.976 153.978 178.124C153.489 179.292 151.303 185.258 156.271 188.278C161.24 191.298 166.458 186.235 166.512 186.174C166.657 186.022 181.432 170.531 175.363 162.023C174.496 160.807 173.441 160.23 172.141 160.249C168.062 160.316 161.567 166.611 154.322 177.516L154.212 177.705Z" fill="#002E5D"/>
<path d="M172.466 171.663C172.445 171.665 172.424 171.665 172.403 171.663C172.036 171.586 168.232 168.947 165.997 167.378C165.929 167.33 165.883 167.257 165.868 167.175C165.854 167.094 165.872 167.009 165.92 166.941C165.968 166.873 166.041 166.826 166.123 166.812C166.205 166.797 166.289 166.816 166.357 166.864C168.436 168.32 171.786 170.632 172.466 171.008C172.992 170.613 175.078 168.292 176.908 166.139C176.933 166.101 176.965 166.069 177.003 166.045C177.04 166.02 177.083 166.004 177.128 165.998C177.172 165.991 177.218 165.995 177.261 166.007C177.304 166.02 177.344 166.042 177.378 166.072C177.412 166.101 177.439 166.138 177.458 166.179C177.476 166.22 177.486 166.264 177.486 166.309C177.485 166.354 177.476 166.399 177.457 166.44C177.438 166.48 177.41 166.517 177.376 166.546C173.364 171.272 172.705 171.663 172.466 171.663Z" fill="#002E5D"/>
<path d="M176.195 195.341C174.884 195.341 173.109 195.066 171.657 193.857C170.205 192.649 169.396 190.802 169.205 188.327C169.144 187.543 169.325 186.76 169.724 186.083C171.688 182.726 178.496 171.691 183.751 170.557C184.238 170.435 184.744 170.419 185.237 170.511C185.73 170.603 186.197 170.801 186.606 171.09C188.357 172.329 188.762 174.804 187.81 178.441C186.973 181.641 185.079 185.641 182.615 189.428C180.822 192.179 178.454 195.166 177.196 195.297C176.863 195.33 176.529 195.344 176.195 195.341ZM169.831 188.275C170.009 190.578 170.766 192.291 172.057 193.373C173.75 194.776 175.959 194.776 177.128 194.661C178.809 194.486 185.323 185.454 187.2 178.28C187.803 175.971 188.135 172.937 186.241 171.6C185.903 171.36 185.517 171.198 185.109 171.124C184.702 171.05 184.283 171.065 183.882 171.169C178.879 172.249 172.193 183.091 170.266 186.396C169.935 186.961 169.783 187.613 169.831 188.266V188.275Z" fill="#002E5D"/>
<path d="M183.873 181.003C183.817 181.003 183.762 180.987 183.714 180.959L179.543 178.518C179.471 178.476 179.419 178.407 179.398 178.326C179.377 178.246 179.389 178.16 179.431 178.088C179.473 178.016 179.542 177.964 179.623 177.943C179.704 177.922 179.789 177.934 179.861 177.976L183.808 180.288L187.672 176.066C187.728 176.004 187.807 175.967 187.89 175.963C187.974 175.959 188.056 175.988 188.118 176.044C188.18 176.1 188.217 176.178 188.221 176.262C188.225 176.345 188.196 176.427 188.14 176.489L184.102 180.9C184.073 180.932 184.038 180.958 183.999 180.976C183.959 180.994 183.916 181.003 183.873 181.003Z" fill="#002E5D"/>
<path d="M268.437 146.785C268.358 146.781 268.283 146.747 268.227 146.69C268.172 146.634 268.14 146.558 268.137 146.479C268.135 146.4 268.163 146.322 268.215 146.263C268.267 146.203 268.339 146.165 268.418 146.156L292.115 144.618C292.199 144.613 292.28 144.641 292.343 144.696C292.405 144.751 292.443 144.828 292.449 144.911C292.454 144.994 292.426 145.076 292.371 145.138C292.316 145.201 292.238 145.239 292.155 145.244L268.458 146.785H268.437Z" fill="#002E5D"/>
<path d="M148.818 246.97C148.818 276.852 124.59 301.076 94.7039 301.076C64.8179 301.076 40.5874 276.852 40.5874 246.97C40.5874 217.087 64.8155 192.864 94.7039 192.864C101.812 192.857 108.853 194.251 115.421 196.968C121.99 199.685 127.959 203.67 132.985 208.695C138.011 213.721 141.997 219.688 144.714 226.256C147.431 232.824 148.825 239.863 148.818 246.97Z" fill="#3B82F4"/>
<path d="M146.284 230.558L94.1894 282.64L67.303 255.758L77.964 245.102L94.187 261.322L139.263 216.262C142.299 220.653 144.665 225.471 146.284 230.558Z" fill="#325D9C"/>
<path d="M92.2325 274.547L65.3508 247.671L76.0095 237.012L92.2325 253.232L146.05 199.427L156.708 210.084L92.2325 274.547Z" fill="white"/>
<path d="M94.1893 282.955C94.1481 282.955 94.1073 282.947 94.0692 282.932C94.0311 282.916 93.9964 282.893 93.9672 282.864L67.0808 255.983C67.0518 255.954 67.0288 255.919 67.0131 255.881C66.9975 255.843 66.9895 255.802 66.9897 255.761C66.9883 255.718 66.9957 255.675 67.0114 255.634C67.0271 255.594 67.0507 255.558 67.0808 255.527L77.7419 244.87C77.801 244.812 77.8808 244.779 77.964 244.779C78.0472 244.779 78.127 244.812 78.1861 244.87L94.187 260.868L147.782 207.297C147.841 207.239 147.921 207.206 148.004 207.206C148.087 207.206 148.167 207.239 148.226 207.297L158.887 217.956C158.946 218.015 158.979 218.095 158.979 218.178C158.979 218.262 158.946 218.341 158.887 218.401L152.64 224.646C152.581 224.705 152.501 224.738 152.418 224.738C152.335 224.738 152.255 224.705 152.196 224.646C152.167 224.617 152.143 224.583 152.127 224.545C152.111 224.507 152.103 224.466 152.103 224.424C152.103 224.383 152.111 224.342 152.127 224.304C152.143 224.266 152.167 224.231 152.196 224.202L158.221 218.178L148.004 207.964L94.4114 261.548C94.3523 261.607 94.2725 261.64 94.1893 261.64C94.1061 261.64 94.0263 261.607 93.9672 261.548L77.9663 245.543L67.7495 255.756L94.1893 282.191L127.758 248.636C127.816 248.577 127.896 248.544 127.98 248.544C128.063 248.544 128.143 248.577 128.202 248.636C128.261 248.695 128.294 248.775 128.294 248.858C128.294 248.941 128.261 249.021 128.202 249.08L94.4114 282.864C94.3822 282.893 94.3476 282.916 94.3095 282.932C94.2714 282.947 94.2305 282.955 94.1893 282.955Z" fill="#002E5D"/>
<path d="M94.7015 301.389C80.2658 301.389 66.4214 295.655 56.2138 285.45C46.0063 275.244 40.2717 261.403 40.2717 246.97C40.2717 232.537 46.0063 218.695 56.2138 208.489C66.4214 198.284 80.2658 192.55 94.7015 192.55C94.745 192.547 94.7889 192.552 94.8303 192.566C94.8717 192.58 94.9097 192.603 94.942 192.632C94.9742 192.662 94.9999 192.698 95.0175 192.738C95.0351 192.778 95.0442 192.821 95.0442 192.865C95.0442 192.909 95.0351 192.952 95.0175 192.992C94.9999 193.032 94.9742 193.068 94.942 193.097C94.9097 193.127 94.8717 193.15 94.8303 193.164C94.7889 193.178 94.745 193.183 94.7015 193.179C65.0353 193.184 40.903 217.309 40.903 246.97C40.903 276.63 65.0376 300.762 94.7038 300.762C108.004 300.771 120.834 295.844 130.708 286.936C130.738 286.904 130.774 286.879 130.814 286.862C130.855 286.845 130.898 286.836 130.942 286.837C130.985 286.837 131.028 286.847 131.068 286.865C131.108 286.883 131.143 286.909 131.173 286.941C131.202 286.974 131.224 287.012 131.238 287.053C131.251 287.095 131.256 287.139 131.252 287.182C131.248 287.225 131.235 287.268 131.214 287.306C131.193 287.344 131.164 287.377 131.129 287.404C121.138 296.415 108.157 301.398 94.7015 301.389Z" fill="#002E5D"/>
<path d="M362.218 383H89.9832C89.9001 383 89.8204 382.967 89.7617 382.908C89.7029 382.849 89.6699 382.77 89.6699 382.687C89.6699 382.604 89.7029 382.524 89.7617 382.465C89.8204 382.407 89.9001 382.374 89.9832 382.374H362.218C362.302 382.374 362.381 382.407 362.44 382.465C362.499 382.524 362.532 382.604 362.532 382.687C362.532 382.77 362.499 382.849 362.44 382.908C362.381 382.967 362.302 383 362.218 383Z" fill="#002E5D"/>
<path d="M249.448 322.936C249.386 322.936 249.326 322.918 249.275 322.884C235.66 313.881 225.345 300.693 219.889 285.312C219.862 285.233 219.866 285.147 219.902 285.072C219.938 284.997 220.002 284.939 220.081 284.912C220.159 284.884 220.245 284.889 220.32 284.925C220.395 284.961 220.453 285.025 220.481 285.103C225.893 300.355 236.121 313.432 249.621 322.361C249.677 322.398 249.72 322.452 249.743 322.516C249.766 322.579 249.768 322.648 249.749 322.713C249.729 322.777 249.69 322.834 249.635 322.874C249.581 322.914 249.515 322.936 249.448 322.936Z" fill="#002E5D"/>
<path d="M308.43 332.966C308.351 332.968 308.275 332.941 308.216 332.89C308.156 332.839 308.118 332.768 308.109 332.69C308.1 332.613 308.12 332.534 308.165 332.471C308.211 332.407 308.278 332.363 308.355 332.346C323.807 328.465 337.596 319.705 347.674 307.367C357.751 295.028 363.58 279.769 364.295 263.856C365.009 247.942 360.572 232.222 351.641 219.031C342.71 205.839 329.761 195.879 314.719 190.629C314.679 190.616 314.641 190.596 314.609 190.569C314.577 190.541 314.551 190.508 314.532 190.471C314.513 190.433 314.502 190.392 314.5 190.35C314.497 190.309 314.503 190.267 314.516 190.227C314.53 190.187 314.552 190.151 314.58 190.12C314.608 190.089 314.642 190.063 314.68 190.046C314.718 190.028 314.759 190.018 314.801 190.017C314.843 190.015 314.885 190.022 314.924 190.037C330.094 195.332 343.151 205.377 352.158 218.681C361.164 231.984 365.639 247.837 364.918 263.885C364.198 279.933 358.32 295.321 348.157 307.764C337.995 320.207 324.09 329.042 308.507 332.956C308.481 332.962 308.456 332.965 308.43 332.966Z" fill="#002E5D"/>
<path d="M158.937 47.3515C164.525 41.764 164.525 32.7048 158.937 27.1172C153.348 21.5297 144.287 21.5297 138.698 27.1172C133.11 32.7048 133.11 41.764 138.698 47.3515C144.287 52.9391 153.348 52.9391 158.937 47.3515Z" fill="#BBD1DC"/>
<path d="M128.624 330.275C129.099 326.663 126.555 323.35 122.942 322.875C119.33 322.4 116.016 324.943 115.541 328.555C115.066 332.167 117.61 335.48 121.222 335.955C124.835 336.43 128.149 333.887 128.624 330.275Z" fill="#BBD1DC"/>
<path d="M334.037 222.299C334.621 218.703 332.178 215.315 328.582 214.731C324.985 214.148 321.596 216.59 321.012 220.186C320.428 223.782 322.871 227.17 326.468 227.754C330.064 228.337 333.453 225.895 334.037 222.299Z" fill="#F3F8FF"/>
<path d="M303.454 379.966L313.278 362.794L313.905 377.331L326.558 371.38L323.965 376.151L339.447 379.966H303.454Z" fill="#3B82F4"/>
<path d="M300.546 379.164C300.503 379.163 300.461 379.155 300.422 379.138C300.384 379.122 300.35 379.099 300.321 379.069C300.292 379.04 300.269 379.005 300.254 378.967C300.239 378.929 300.231 378.888 300.232 378.846C300.233 378.805 300.242 378.765 300.258 378.727L308.327 359.868C308.356 359.801 308.407 359.746 308.472 359.713C308.537 359.68 308.611 359.67 308.682 359.686C308.753 359.702 308.817 359.742 308.862 359.8C308.906 359.857 308.93 359.928 308.928 360.001L308.42 377.198L323.547 368.519C323.606 368.485 323.675 368.472 323.743 368.481C323.811 368.49 323.874 368.521 323.923 368.569C323.972 368.617 324.004 368.68 324.014 368.747C324.024 368.815 324.012 368.884 323.979 368.944L319.303 377.462L340.597 378.535C340.639 378.537 340.679 378.547 340.716 378.565C340.753 378.583 340.787 378.608 340.814 378.638C340.842 378.669 340.863 378.705 340.877 378.744C340.891 378.782 340.897 378.824 340.894 378.865C340.889 378.948 340.852 379.026 340.791 379.082C340.729 379.138 340.648 379.167 340.565 379.164L318.77 378.065C318.717 378.062 318.666 378.045 318.62 378.017C318.575 377.989 318.538 377.95 318.511 377.904C318.485 377.857 318.472 377.805 318.472 377.752C318.472 377.699 318.485 377.647 318.511 377.6L322.897 369.622L308.254 378.023C308.206 378.051 308.151 378.066 308.095 378.066C308.039 378.066 307.985 378.051 307.936 378.023C307.888 377.995 307.848 377.953 307.822 377.904C307.795 377.855 307.782 377.799 307.784 377.743L308.252 361.64L300.836 378.975C300.811 379.031 300.77 379.079 300.719 379.112C300.668 379.146 300.607 379.164 300.546 379.164Z" fill="#002E5D"/>
<path d="M212.906 224.424L215.821 233.585H217.025L218.842 249.714L221.584 248.947L222.486 253.222L208.805 262.282L205.027 305.898L206.254 306.232L202.932 309.972L203.944 311.575L204.092 316.634L207.299 317.672L209.85 308.761L213.649 309.726L211.989 375.176H212.903L210.988 378.697L206.897 379.482V381.118H218.694L218.818 380.672L217.205 376.249L217.362 375.165L217.939 375.101L226.054 324.556L234.055 375.165H235.654L233.617 378.594L229.367 379.505L229.449 381.118L241.314 381.219L241.412 380.91L239.387 375.181L240.704 375.165L238.501 309.172L244.325 307.302L242.862 291.174C242.862 291.174 244.732 290.473 244.985 287.845C245.237 285.218 247.344 262.317 247.344 262.317L231.018 252.416L230.784 243.279L231.35 243.367L231.546 234.485L234.312 227.559L212.906 224.424Z" fill="white"/>
<path d="M213.64 226.654L233.468 229.712L231.544 234.483L231.413 243.279L228.83 242.972L228.418 234.548L215.896 233.496L213.64 226.654Z" fill="#325D9C"/>
<path d="M217.025 233.585L224.058 234.181L224.462 248.143L218.842 249.716L217.025 233.585Z" fill="#F4B18F"/>
<path d="M229.124 243.007L228.682 249.716L222.321 252.441L223.333 257.236L231.018 253.977L230.782 243.278L229.124 243.007Z" fill="#F4B18F"/>
<path d="M233.837 254.089L233.033 279.379L237.592 281.045L238.553 270.611L240.529 274.755L240.026 282.17C240.008 282.437 239.928 282.696 239.792 282.927C239.656 283.158 239.469 283.354 239.244 283.499C239.02 283.645 238.764 283.737 238.498 283.767C238.232 283.797 237.963 283.765 237.711 283.673L223.242 278.376L221.71 282.658L232.933 288.114L232.979 310.982L244.311 307.279L242.848 291.178C242.848 291.178 244.735 290.536 245.02 287.438C245.305 284.341 247.339 262.306 247.339 262.306L233.837 254.089Z" fill="#3B82F4"/>
<path d="M223.331 278.425L216.389 274.578L211.8 274.194L212.761 278.308L221.71 282.658L223.331 278.425Z" fill="#F4B18F"/>
<path d="M225.423 256.495L217.79 271.333L219.894 274.578L230.677 278.519L231.018 261.034L230.847 254.165L225.423 256.495Z" fill="#325D9C"/>
<path d="M215.699 279.592L217.205 304.689L214.453 375.24L217.97 375.174L226.045 324.542L224.399 314.159L226.805 317.67L236.645 375.174L240.692 375.125L238.478 309.243L230.227 311.821L230.176 286.716L215.699 279.592Z" fill="#325D9C"/>
<path d="M222.669 254.089L210.844 263.668L206.462 306.286L209.857 307.204V308.866L215.255 310.093L215.835 281.854L215.716 279.79L212.901 278.376L211.206 271.63L215.033 272.649L221.409 259.685L223.333 257.236L222.669 254.089Z" fill="#3B82F4"/>
<path d="M206.107 306.262L205.186 316.982L207.306 317.669L209.939 308.71L209.857 307.034L206.107 306.262Z" fill="#F4B18F"/>
<path d="M231.348 243.685H231.298L228.78 243.29C228.708 243.279 228.641 243.243 228.592 243.188C228.543 243.133 228.515 243.062 228.512 242.989L228.173 234.791L215.866 233.826C215.803 233.82 215.744 233.797 215.695 233.758C215.646 233.72 215.61 233.667 215.59 233.608L212.578 224.476C212.562 224.424 212.558 224.369 212.568 224.316C212.578 224.263 212.602 224.213 212.637 224.172C212.672 224.13 212.718 224.098 212.769 224.079C212.82 224.06 212.875 224.054 212.929 224.062L234.356 227.311C234.405 227.318 234.451 227.335 234.491 227.362C234.532 227.39 234.566 227.426 234.59 227.468C234.613 227.51 234.627 227.556 234.63 227.604C234.633 227.651 234.626 227.699 234.609 227.744L231.862 234.557L231.665 243.384C231.663 243.467 231.629 243.545 231.569 243.603C231.51 243.661 231.43 243.694 231.348 243.695V243.685ZM229.136 242.699L231.037 242.996L231.226 234.476C231.227 234.437 231.235 234.399 231.249 234.363L233.863 227.877L213.35 224.759L216.132 233.195L228.509 234.165C228.587 234.171 228.659 234.206 228.713 234.263C228.767 234.319 228.798 234.393 228.801 234.471L229.136 242.699Z" fill="#002E5D"/>
<path d="M218.842 250.036C218.778 250.037 218.716 250.017 218.664 249.98C218.625 249.954 218.592 249.92 218.568 249.879C218.545 249.839 218.53 249.793 218.526 249.747L216.716 233.623C216.71 233.58 216.711 233.537 216.722 233.495C216.732 233.453 216.751 233.414 216.777 233.379C216.803 233.345 216.836 233.317 216.874 233.295C216.911 233.274 216.952 233.261 216.995 233.256C217.038 233.251 217.081 233.255 217.123 233.268C217.164 233.28 217.202 233.301 217.235 233.329C217.268 233.356 217.295 233.39 217.314 233.429C217.334 233.467 217.345 233.51 217.348 233.553L219.122 249.312L226.164 247.339V242.61C226.171 242.53 226.208 242.456 226.267 242.402C226.326 242.347 226.403 242.317 226.483 242.317C226.563 242.317 226.641 242.347 226.7 242.402C226.759 242.456 226.796 242.53 226.802 242.61V247.577C226.802 247.647 226.779 247.715 226.737 247.77C226.695 247.825 226.636 247.865 226.569 247.884L218.935 250.022C218.905 250.032 218.873 250.037 218.842 250.036Z" fill="#002E5D"/>
<path d="M223.349 257.636C223.277 257.635 223.206 257.609 223.15 257.564C223.093 257.518 223.054 257.454 223.038 257.383L221.788 251.46C221.77 251.377 221.786 251.291 221.833 251.22C221.879 251.149 221.951 251.1 222.034 251.083C222.117 251.065 222.203 251.081 222.274 251.128C222.345 251.174 222.394 251.246 222.412 251.329L223.581 256.874L230.695 253.884L230.461 243.286C230.46 243.244 230.468 243.202 230.483 243.163C230.498 243.124 230.521 243.088 230.55 243.058C230.579 243.028 230.614 243.004 230.653 242.987C230.691 242.97 230.733 242.962 230.775 242.961C230.858 242.961 230.938 242.993 230.997 243.052C231.056 243.11 231.091 243.189 231.093 243.272L231.326 254.085C231.327 254.149 231.31 254.212 231.275 254.265C231.241 254.319 231.191 254.361 231.132 254.387L223.464 257.61C223.428 257.625 223.389 257.634 223.349 257.636Z" fill="#002E5D"/>
<path d="M206.025 296.246H205.997C205.913 296.239 205.835 296.199 205.781 296.135C205.727 296.07 205.7 295.987 205.707 295.903L208.487 262.259C208.492 262.212 208.508 262.167 208.532 262.126C208.557 262.086 208.59 262.052 208.63 262.025L222.311 252.965C222.382 252.919 222.468 252.902 222.55 252.919C222.633 252.936 222.705 252.985 222.752 253.055C222.799 253.126 222.815 253.212 222.798 253.294C222.781 253.377 222.732 253.449 222.662 253.496L209.102 262.47L206.334 295.959C206.326 296.036 206.291 296.108 206.234 296.161C206.177 296.214 206.103 296.244 206.025 296.246Z" fill="#002E5D"/>
<path d="M215.255 310.411C215.231 310.415 215.207 310.415 215.183 310.411L209.754 309.177C209.683 309.162 209.619 309.121 209.574 309.064C209.529 309.006 209.505 308.935 209.506 308.862L210 283.741C210.002 283.658 210.036 283.578 210.095 283.52C210.155 283.462 210.235 283.43 210.318 283.43C210.359 283.43 210.4 283.439 210.439 283.456C210.477 283.472 210.511 283.496 210.54 283.526C210.569 283.556 210.592 283.592 210.607 283.63C210.622 283.669 210.63 283.711 210.629 283.752L210.14 308.614L214.935 309.705L215.372 281.966C215.375 281.882 215.411 281.802 215.471 281.743C215.532 281.685 215.613 281.651 215.697 281.651C215.782 281.653 215.862 281.689 215.92 281.749C215.979 281.81 216.011 281.891 216.011 281.976L215.566 310.108C215.565 310.191 215.531 310.271 215.472 310.329C215.412 310.388 215.332 310.421 215.248 310.421L215.255 310.411Z" fill="#002E5D"/>
<path d="M209.904 307.515C209.568 307.466 209.237 307.387 208.915 307.281L204.279 306.026C204.197 306.004 204.128 305.951 204.086 305.877C204.043 305.804 204.032 305.717 204.054 305.636C204.076 305.554 204.13 305.485 204.203 305.443C204.276 305.401 204.363 305.389 204.445 305.411L209.934 306.898L209.855 307.204L210.051 307.459C210.032 307.478 210.008 307.492 209.983 307.502C209.958 307.512 209.931 307.516 209.904 307.515Z" fill="#002E5D"/>
<path d="M202.939 310.293C202.877 310.293 202.816 310.275 202.764 310.241C202.712 310.207 202.671 310.159 202.646 310.102C202.621 310.045 202.613 309.982 202.624 309.921C202.635 309.859 202.663 309.803 202.705 309.757L206.137 306.05C206.195 305.988 206.274 305.951 206.359 305.948C206.443 305.945 206.526 305.975 206.588 306.032C206.65 306.09 206.686 306.169 206.689 306.254C206.693 306.338 206.662 306.42 206.605 306.482L203.173 310.19C203.143 310.222 203.107 310.248 203.067 310.265C203.027 310.283 202.983 310.292 202.939 310.293Z" fill="#002E5D"/>
<path d="M207.306 317.988C207.273 317.987 207.24 317.981 207.208 317.971L204 316.936C203.938 316.915 203.883 316.876 203.844 316.823C203.805 316.77 203.783 316.707 203.781 316.641L203.631 311.583C203.63 311.541 203.637 311.499 203.652 311.46C203.667 311.421 203.689 311.385 203.718 311.355C203.747 311.324 203.782 311.3 203.82 311.283C203.859 311.266 203.9 311.257 203.942 311.256C204.025 311.256 204.104 311.288 204.164 311.345C204.223 311.403 204.257 311.481 204.26 311.564L204.4 316.398L207.082 317.265L209.509 308.771C209.52 308.731 209.539 308.693 209.565 308.66C209.591 308.628 209.624 308.6 209.66 308.58C209.697 308.56 209.737 308.547 209.779 308.542C209.82 308.537 209.862 308.541 209.903 308.552C209.943 308.564 209.98 308.583 210.013 308.609C210.046 308.635 210.073 308.667 210.093 308.704C210.114 308.741 210.127 308.781 210.131 308.822C210.136 308.864 210.133 308.906 210.121 308.946L207.603 317.756C207.591 317.797 207.571 317.836 207.544 317.869C207.517 317.902 207.484 317.93 207.447 317.95C207.403 317.973 207.355 317.986 207.306 317.988Z" fill="#002E5D"/>
<path d="M241.052 291.943C240.404 291.942 239.764 291.793 239.182 291.508L212.623 278.596C212.58 278.575 212.543 278.545 212.513 278.508C212.484 278.47 212.463 278.427 212.452 278.381L210.897 271.735C210.885 271.682 210.886 271.626 210.901 271.574C210.917 271.521 210.945 271.474 210.984 271.435C211.023 271.397 211.071 271.37 211.124 271.355C211.177 271.341 211.233 271.341 211.286 271.354L216.195 272.621C216.277 272.642 216.347 272.695 216.39 272.768C216.433 272.84 216.445 272.927 216.424 273.009C216.403 273.091 216.351 273.161 216.278 273.204C216.205 273.247 216.118 273.259 216.036 273.238L211.634 272.102L213.037 278.089L239.455 290.945C239.982 291.2 240.562 291.324 241.146 291.306C241.731 291.288 242.302 291.129 242.812 290.842C243.321 290.555 243.753 290.149 244.072 289.658C244.39 289.168 244.584 288.607 244.639 288.025L246.993 262.495L233.342 254.176C233.306 254.154 233.275 254.126 233.251 254.092C233.226 254.058 233.208 254.02 233.199 253.979C233.189 253.939 233.187 253.897 233.194 253.855C233.2 253.814 233.215 253.774 233.236 253.739C233.258 253.703 233.287 253.672 233.321 253.648C233.354 253.623 233.393 253.606 233.433 253.596C233.474 253.586 233.516 253.584 233.557 253.591C233.599 253.597 233.638 253.612 233.674 253.634L247.496 262.049C247.546 262.08 247.587 262.125 247.614 262.178C247.64 262.231 247.651 262.291 247.645 262.35L245.284 288.086C245.224 288.771 244.998 289.432 244.623 290.009C244.249 290.587 243.739 291.064 243.138 291.398C242.501 291.756 241.783 291.944 241.052 291.943Z" fill="#002E5D"/>
<path d="M237.665 281.392C237.628 281.391 237.592 281.385 237.557 281.373L219.789 274.875C219.723 274.851 219.667 274.807 219.63 274.749L217.014 270.684C216.968 270.613 216.952 270.526 216.97 270.444C216.988 270.362 217.038 270.29 217.109 270.244C217.18 270.199 217.267 270.183 217.349 270.201C217.431 270.219 217.503 270.269 217.549 270.34L220.107 274.314L237.386 280.625L238.24 270.478C238.243 270.436 238.254 270.395 238.273 270.358C238.292 270.321 238.318 270.287 238.35 270.26C238.382 270.233 238.419 270.213 238.46 270.201C238.5 270.188 238.542 270.184 238.583 270.188C238.667 270.195 238.745 270.235 238.8 270.3C238.854 270.364 238.88 270.448 238.873 270.532L237.985 281.092C237.979 281.14 237.964 281.185 237.939 281.226C237.914 281.266 237.88 281.3 237.84 281.326C237.79 281.366 237.728 281.388 237.665 281.392Z" fill="#002E5D"/>
<path d="M222.486 280.997C222.452 280.997 222.418 280.991 222.386 280.98C222.306 280.953 222.24 280.896 222.201 280.821C222.163 280.746 222.157 280.658 222.182 280.578L223.693 275.976C223.719 275.895 223.776 275.829 223.852 275.791C223.927 275.753 224.015 275.746 224.095 275.772C224.175 275.799 224.242 275.856 224.28 275.931C224.318 276.007 224.325 276.094 224.298 276.174L222.795 280.777C222.774 280.842 222.733 280.898 222.677 280.938C222.621 280.977 222.555 280.998 222.486 280.997Z" fill="#002E5D"/>
<path d="M230.676 278.837C230.635 278.836 230.593 278.827 230.555 278.81C230.517 278.793 230.482 278.769 230.453 278.739C230.425 278.708 230.402 278.673 230.387 278.634C230.372 278.595 230.364 278.554 230.365 278.512L230.707 260.864C230.709 260.779 230.744 260.699 230.805 260.641C230.866 260.583 230.947 260.551 231.032 260.553C231.116 260.555 231.196 260.59 231.254 260.651C231.313 260.712 231.344 260.793 231.343 260.878L231.001 278.523C231.001 278.565 230.992 278.607 230.975 278.645C230.958 278.684 230.934 278.719 230.904 278.748C230.874 278.777 230.838 278.8 230.799 278.815C230.76 278.83 230.718 278.838 230.676 278.837Z" fill="#002E5D"/>
<path d="M230.176 312.188C230.109 312.188 230.043 312.167 229.989 312.127C229.949 312.098 229.916 312.059 229.893 312.014C229.871 311.97 229.859 311.92 229.858 311.87V286.772C229.858 286.688 229.892 286.607 229.951 286.548C230.011 286.488 230.092 286.455 230.176 286.455C230.26 286.455 230.341 286.488 230.401 286.548C230.461 286.607 230.494 286.688 230.494 286.772V311.435L243.972 307.169L242.532 291.207C242.532 291.126 242.562 291.049 242.616 290.989C242.67 290.93 242.744 290.893 242.824 290.886C242.904 290.879 242.984 290.902 243.048 290.951C243.111 291 243.154 291.071 243.168 291.151L244.629 307.366C244.636 307.438 244.618 307.51 244.578 307.571C244.538 307.631 244.479 307.676 244.41 307.698L230.277 312.162C230.245 312.177 230.211 312.186 230.176 312.188Z" fill="#002E5D"/>
<path d="M230.176 304.883H218.561C218.477 304.883 218.396 304.85 218.337 304.79C218.277 304.731 218.243 304.65 218.243 304.565C218.243 304.481 218.277 304.4 218.337 304.341C218.396 304.281 218.477 304.248 218.561 304.248H230.176C230.261 304.248 230.341 304.281 230.401 304.341C230.461 304.4 230.494 304.481 230.494 304.565C230.494 304.65 230.461 304.731 230.401 304.79C230.341 304.85 230.261 304.883 230.176 304.883Z" fill="#002E5D"/>
<path d="M240.692 375.492H234.046C233.97 375.492 233.896 375.465 233.838 375.416C233.781 375.366 233.742 375.298 233.73 375.223L224.056 314.032C224.042 313.949 224.063 313.864 224.112 313.795C224.162 313.727 224.236 313.681 224.32 313.668C224.403 313.654 224.488 313.675 224.557 313.724C224.625 313.774 224.671 313.848 224.684 313.932L234.317 374.861H240.363L238.16 309.259C238.159 309.217 238.166 309.176 238.181 309.137C238.195 309.098 238.217 309.062 238.246 309.031C238.275 309.001 238.309 308.976 238.347 308.959C238.385 308.942 238.426 308.932 238.468 308.931C238.51 308.929 238.551 308.936 238.59 308.951C238.629 308.966 238.665 308.988 238.696 309.016C238.726 309.045 238.751 309.079 238.768 309.117C238.785 309.155 238.795 309.196 238.796 309.238L241.01 375.17C241.013 375.213 241.006 375.256 240.991 375.296C240.976 375.336 240.952 375.373 240.921 375.403C240.891 375.433 240.855 375.456 240.816 375.471C240.777 375.486 240.735 375.493 240.692 375.492Z" fill="#002E5D"/>
<path d="M217.921 375.492H211.996C211.953 375.493 211.91 375.485 211.869 375.468C211.829 375.452 211.793 375.427 211.763 375.396C211.732 375.365 211.709 375.329 211.693 375.289C211.677 375.248 211.67 375.205 211.671 375.162L213.252 312.847C213.254 312.764 213.288 312.685 213.347 312.627C213.407 312.569 213.487 312.536 213.57 312.536C213.611 312.537 213.653 312.546 213.691 312.563C213.729 312.58 213.764 312.604 213.793 312.634C213.821 312.664 213.844 312.7 213.859 312.739C213.874 312.778 213.882 312.819 213.881 312.861L212.31 374.851H217.652L225.732 324.511C225.745 324.428 225.791 324.353 225.859 324.304C225.928 324.254 226.013 324.234 226.096 324.247C226.18 324.26 226.255 324.306 226.304 324.375C226.354 324.443 226.374 324.528 226.361 324.612L218.236 375.221C218.225 375.296 218.187 375.365 218.129 375.415C218.071 375.465 217.997 375.492 217.921 375.492Z" fill="#002E5D"/>
<path d="M218.821 381.448H206.731C206.689 381.448 206.648 381.439 206.609 381.423C206.57 381.407 206.535 381.383 206.506 381.354C206.476 381.324 206.453 381.289 206.437 381.25C206.421 381.211 206.413 381.169 206.413 381.127V379.517C206.413 379.443 206.439 379.371 206.486 379.313C206.534 379.256 206.6 379.217 206.673 379.204L210.774 378.439L212.116 376.102C212.136 376.066 212.164 376.034 212.197 376.008C212.231 375.983 212.268 375.964 212.309 375.953C212.349 375.942 212.391 375.94 212.433 375.945C212.474 375.95 212.514 375.964 212.55 375.985C212.587 376.006 212.618 376.034 212.644 376.067C212.669 376.1 212.688 376.138 212.699 376.178C212.71 376.218 212.713 376.261 212.707 376.302C212.702 376.343 212.688 376.383 212.667 376.42L211.265 378.888C211.241 378.927 211.21 378.962 211.172 378.988C211.135 379.015 211.092 379.033 211.047 379.042L207.061 379.783V380.812H218.379L216.906 376.371C216.892 376.331 216.886 376.289 216.888 376.246C216.891 376.204 216.902 376.163 216.92 376.125C216.939 376.087 216.965 376.053 216.996 376.025C217.028 375.998 217.065 375.976 217.105 375.963C217.145 375.95 217.188 375.944 217.23 375.948C217.272 375.951 217.313 375.962 217.351 375.982C217.388 376.001 217.422 376.027 217.449 376.06C217.476 376.092 217.497 376.129 217.509 376.17L219.122 381.041C219.139 381.088 219.143 381.139 219.135 381.189C219.128 381.239 219.108 381.286 219.078 381.326C219.048 381.365 219.008 381.396 218.964 381.417C218.919 381.438 218.87 381.449 218.821 381.448Z" fill="#002E5D"/>
<path d="M209.906 378.926L208.59 381.128H206.617V379.55L209.906 378.926Z" fill="#002E5D"/>
<path d="M217.453 377.035L216.027 381.128H218.917L217.453 377.035Z" fill="#002E5D"/>
<path d="M241.368 381.448H229.29C229.248 381.448 229.206 381.439 229.168 381.423C229.129 381.407 229.094 381.383 229.064 381.354C229.035 381.324 229.011 381.289 228.995 381.25C228.98 381.211 228.972 381.169 228.972 381.127V379.517C228.972 379.443 228.998 379.371 229.045 379.313C229.092 379.256 229.158 379.217 229.231 379.204L233.332 378.439L234.674 376.102C234.695 376.066 234.723 376.034 234.756 376.008C234.789 375.983 234.827 375.964 234.867 375.953C234.908 375.942 234.95 375.94 234.991 375.945C235.033 375.95 235.073 375.964 235.109 375.985C235.145 376.006 235.177 376.034 235.203 376.067C235.228 376.1 235.247 376.138 235.258 376.178C235.268 376.218 235.271 376.261 235.266 376.302C235.26 376.343 235.247 376.383 235.226 376.42L233.823 378.888C233.8 378.927 233.768 378.962 233.731 378.988C233.693 379.015 233.651 379.033 233.606 379.042L229.62 379.783V380.812H240.938L239.465 376.371C239.451 376.331 239.445 376.289 239.447 376.246C239.449 376.204 239.46 376.163 239.479 376.125C239.497 376.087 239.523 376.053 239.555 376.025C239.587 375.998 239.624 375.976 239.664 375.963C239.704 375.95 239.746 375.944 239.788 375.948C239.831 375.951 239.872 375.962 239.909 375.982C239.947 376.001 239.98 376.027 240.007 376.06C240.035 376.092 240.055 376.129 240.068 376.17L241.681 381.041C241.697 381.088 241.702 381.139 241.694 381.189C241.686 381.239 241.667 381.286 241.637 381.326C241.605 381.367 241.564 381.399 241.517 381.42C241.47 381.441 241.419 381.451 241.368 381.448Z" fill="#002E5D"/>
<path d="M232.465 378.926L231.149 381.128H229.175V379.55L232.465 378.926Z" fill="#002E5D"/>
<path d="M240.012 377.035L238.586 381.128H241.475L240.012 377.035Z" fill="#002E5D"/>
<path d="M217.025 268.559C216.975 268.559 216.925 268.547 216.88 268.524C216.843 268.505 216.81 268.479 216.782 268.447C216.755 268.415 216.735 268.378 216.722 268.339C216.709 268.299 216.704 268.257 216.708 268.215C216.711 268.174 216.723 268.133 216.742 268.096L221.126 259.541C221.144 259.503 221.17 259.468 221.202 259.44C221.234 259.412 221.271 259.391 221.311 259.377C221.351 259.364 221.394 259.359 221.436 259.362C221.478 259.365 221.52 259.376 221.557 259.396C221.595 259.415 221.629 259.442 221.656 259.474C221.683 259.507 221.704 259.544 221.716 259.585C221.729 259.625 221.733 259.668 221.729 259.71C221.725 259.752 221.712 259.793 221.692 259.831L217.308 268.386C217.281 268.438 217.241 268.482 217.191 268.512C217.141 268.543 217.084 268.559 217.025 268.559Z" fill="#002E5D"/>
<path d="M170.512 230.598L149.491 242.117L154.401 261.532L141.776 272.285L149.851 277.165L144.006 300.942C144.006 300.942 143.123 304.434 143.688 309.205C144.254 313.976 145.961 320.096 145.961 320.096L147.198 326.002L148.238 332.157L148.626 334.936L151.051 374.045H151.2L150.749 381.955H153.01L153.033 376.726H153.456L153.91 381.955H158.361L158.378 376.813H158.82L159.32 381.955H163.544L163.605 379.618L160.706 374.709V374.008L164.996 334.053L168.197 303.951L167.028 288.271L189.755 288.972H190.595L197.742 288.948L197.718 287.705L192.825 285.856L193.484 284.596L192.678 283.97L190.632 285.863H188.638L168.742 283.411L168.122 281.735L180.244 269.543L185.423 265.751L183.866 262.049L180.09 264.711L179.688 262.633L178.613 262.834L178.482 267.25L165.92 275.819L162.081 265.482L161.546 265.249L163.29 257.687L167.264 258.664L169.569 243.358L173.378 241.472L170.512 230.598Z" fill="white"/>
<path d="M170.512 230.598L172.167 236.878L156.18 246.71L157.422 263.182L147.925 275.999L141.769 272.28L154.401 261.532L149.491 242.117L170.512 230.598Z" fill="#325D9C"/>
<path d="M169.569 243.365L167.264 258.671L162.364 257.5L161.263 247.465L169.569 243.365Z" fill="#F4B18F"/>
<path d="M159.226 264.316L162.081 265.489L166.179 276.534L160.194 279.842L155.642 270.669L159.226 264.316Z" fill="#F70431"/>
<path d="M160.194 279.842L164.087 285.573L197.728 288.483V287.705L192.834 285.856L193.494 284.596L192.687 283.97L190.641 285.861H188.645L168.742 283.399L166.179 276.534L160.194 279.842Z" fill="#F4B18F"/>
<path d="M166.642 277.897L179.576 268.353L184.411 263.349L185.421 265.752L180.242 269.543L168.153 281.805L166.642 277.897Z" fill="#F4B18F"/>
<path d="M154.651 276.053L148.654 303.729C148.418 304.977 148.347 306.251 148.444 307.518L151.2 334.034H157.693L159.182 308.976L160.629 312.716L161.331 334.046H165.003L168.204 303.932L167.035 288.252L162.093 288.074L154.651 276.053Z" fill="#F70431"/>
<path d="M151.752 334.034L153.054 374.038H155.294L157.69 334.034H151.752Z" fill="#F4B18F"/>
<path d="M160.419 334.053L158.17 374.068L160.706 373.996L164.996 334.053H160.419Z" fill="#F4B18F"/>
<path d="M151.443 278.365C151.4 278.364 151.358 278.352 151.322 278.329L141.631 272.472C141.598 272.452 141.571 272.426 141.551 272.393C141.531 272.361 141.519 272.325 141.516 272.287C141.513 272.249 141.518 272.211 141.533 272.176C141.547 272.141 141.569 272.11 141.598 272.086L154.141 261.481L149.26 242.175C149.246 242.124 149.25 242.07 149.272 242.022C149.293 241.973 149.33 241.934 149.377 241.909L170.397 230.387C170.43 230.372 170.466 230.364 170.502 230.364C170.539 230.364 170.575 230.372 170.608 230.387C170.641 230.402 170.671 230.423 170.694 230.451C170.718 230.479 170.734 230.511 170.743 230.546L173.588 241.439C173.604 241.493 173.599 241.55 173.576 241.6C173.553 241.651 173.513 241.691 173.462 241.715L159.283 248.727L159.951 263.514C159.953 263.559 159.942 263.604 159.921 263.643L151.651 278.248C151.636 278.275 151.615 278.3 151.589 278.319C151.564 278.338 151.535 278.352 151.504 278.36C151.484 278.365 151.464 278.367 151.443 278.365ZM142.162 272.236L151.357 277.801L159.472 263.47L158.799 248.583C158.794 248.535 158.804 248.486 158.828 248.445C158.852 248.403 158.888 248.369 158.932 248.349L173.076 241.35L170.36 230.939L149.767 242.225L154.639 261.495C154.65 261.537 154.648 261.581 154.634 261.623C154.62 261.664 154.596 261.701 154.562 261.729L142.162 272.236Z" fill="#002E5D"/>
<path d="M167.283 258.914H167.227L161.333 257.512C161.271 257.497 161.217 257.459 161.184 257.405C161.15 257.35 161.14 257.285 161.154 257.223C161.169 257.161 161.207 257.107 161.261 257.074C161.316 257.04 161.381 257.03 161.443 257.044L167.084 258.395L169.333 243.342C169.338 243.311 169.349 243.282 169.365 243.255C169.381 243.229 169.402 243.205 169.427 243.187C169.452 243.168 169.48 243.155 169.51 243.148C169.54 243.14 169.572 243.139 169.602 243.143C169.633 243.148 169.662 243.158 169.689 243.174C169.716 243.19 169.739 243.212 169.757 243.237C169.776 243.261 169.789 243.29 169.797 243.32C169.804 243.35 169.806 243.381 169.801 243.412L167.512 258.723C167.508 258.755 167.496 258.786 167.479 258.814C167.462 258.842 167.439 258.866 167.412 258.884C167.373 258.906 167.328 258.917 167.283 258.914Z" fill="#002E5D"/>
<path d="M189.725 286.102H188.586L168.7 283.645C168.656 283.64 168.615 283.623 168.581 283.596C168.546 283.569 168.52 283.532 168.506 283.491L161.887 265.646L160.251 264.962C160.222 264.95 160.195 264.932 160.173 264.91C160.151 264.888 160.134 264.862 160.122 264.833C160.11 264.804 160.104 264.773 160.104 264.742C160.104 264.71 160.11 264.679 160.122 264.651C160.134 264.622 160.151 264.596 160.174 264.573C160.196 264.551 160.222 264.534 160.251 264.522C160.28 264.51 160.311 264.504 160.342 264.504C160.373 264.504 160.404 264.51 160.433 264.522L162.17 265.244C162.2 265.257 162.228 265.276 162.25 265.299C162.273 265.323 162.29 265.351 162.301 265.382L168.901 283.178L188.631 285.616H189.725C189.787 285.616 189.846 285.64 189.89 285.684C189.934 285.728 189.959 285.787 189.959 285.849C189.959 285.911 189.934 285.971 189.89 286.015C189.846 286.058 189.787 286.083 189.725 286.083V286.102Z" fill="#002E5D"/>
<path d="M189.725 289.21L162.074 288.341C162.035 288.34 161.997 288.329 161.963 288.309C161.929 288.29 161.9 288.262 161.88 288.229L154.455 276.176C154.438 276.15 154.426 276.121 154.421 276.09C154.416 276.059 154.417 276.027 154.424 275.997C154.431 275.966 154.444 275.937 154.463 275.912C154.481 275.887 154.505 275.865 154.532 275.849C154.558 275.832 154.588 275.82 154.619 275.815C154.65 275.809 154.682 275.81 154.713 275.817C154.744 275.824 154.773 275.838 154.798 275.857C154.824 275.875 154.845 275.899 154.861 275.926L162.217 287.869L189.739 288.734C189.801 288.734 189.86 288.758 189.904 288.802C189.948 288.846 189.973 288.905 189.973 288.967C189.973 289.029 189.948 289.089 189.904 289.133C189.86 289.176 189.801 289.201 189.739 289.201L189.725 289.21Z" fill="#002E5D"/>
<path d="M197.751 289.21H190.641C190.579 289.21 190.52 289.186 190.476 289.142C190.432 289.098 190.408 289.039 190.408 288.977C190.408 288.915 190.432 288.855 190.476 288.811C190.52 288.768 190.579 288.743 190.641 288.743H197.513V287.915L192.725 286.095C192.693 286.082 192.664 286.063 192.64 286.039C192.616 286.014 192.598 285.984 192.587 285.952C192.575 285.92 192.57 285.886 192.573 285.852C192.576 285.818 192.586 285.785 192.603 285.756L193.202 284.678L192.701 284.281L190.803 286.045C190.757 286.089 190.695 286.111 190.632 286.109C190.569 286.107 190.509 286.08 190.466 286.034C190.423 285.988 190.4 285.926 190.402 285.863C190.404 285.8 190.432 285.74 190.478 285.697L192.528 283.792C192.571 283.754 192.626 283.733 192.684 283.733C192.741 283.733 192.796 283.754 192.839 283.792L193.657 284.442C193.703 284.476 193.734 284.526 193.745 284.582C193.757 284.638 193.747 284.696 193.718 284.746L193.152 285.758L197.828 287.539C197.876 287.556 197.917 287.588 197.944 287.63C197.972 287.672 197.986 287.722 197.983 287.773V289.002C197.976 289.059 197.949 289.112 197.907 289.15C197.864 289.189 197.809 289.21 197.751 289.21Z" fill="#002E5D"/>
<path d="M168.134 282.044C168.086 282.046 168.038 282.033 167.997 282.008C167.957 281.982 167.925 281.944 167.907 281.9C167.888 281.855 167.884 281.806 167.894 281.759C167.905 281.712 167.93 281.669 167.966 281.637L180.093 269.353L180.123 269.328L185.107 265.679L183.773 262.406L180.221 264.945C180.189 264.97 180.151 264.986 180.111 264.991C180.07 264.997 180.029 264.992 179.991 264.977C179.954 264.962 179.92 264.937 179.895 264.905C179.87 264.873 179.853 264.836 179.847 264.795L179.494 262.9L178.839 263.031V267.21C178.84 267.249 178.83 267.287 178.812 267.321C178.793 267.356 178.767 267.385 178.734 267.406L166.836 275.506C166.81 275.523 166.781 275.535 166.751 275.542C166.72 275.548 166.688 275.548 166.658 275.542C166.627 275.536 166.598 275.524 166.572 275.507C166.546 275.49 166.523 275.467 166.506 275.441C166.488 275.416 166.476 275.386 166.47 275.356C166.463 275.325 166.463 275.293 166.469 275.263C166.475 275.232 166.487 275.203 166.504 275.177C166.522 275.151 166.544 275.128 166.57 275.111L178.36 267.084V262.841C178.359 262.786 178.378 262.732 178.413 262.689C178.448 262.646 178.497 262.617 178.552 262.607L179.637 262.392C179.668 262.385 179.7 262.385 179.731 262.39C179.763 262.396 179.793 262.408 179.819 262.426C179.846 262.444 179.868 262.467 179.885 262.493C179.903 262.52 179.914 262.55 179.92 262.582L180.249 264.347L183.751 261.843C183.781 261.823 183.815 261.809 183.85 261.803C183.886 261.797 183.922 261.799 183.957 261.808C183.992 261.818 184.024 261.836 184.051 261.86C184.078 261.884 184.098 261.915 184.111 261.948L185.631 265.672C185.652 265.721 185.655 265.776 185.64 265.828C185.625 265.879 185.593 265.924 185.549 265.955L180.432 269.695L168.316 281.967C168.293 281.992 168.265 282.012 168.234 282.025C168.202 282.039 168.168 282.045 168.134 282.044Z" fill="#002E5D"/>
<path d="M161.585 265.506H161.532C161.501 265.499 161.471 265.487 161.446 265.469C161.42 265.451 161.398 265.428 161.381 265.401C161.364 265.375 161.353 265.345 161.348 265.314C161.343 265.283 161.344 265.251 161.352 265.221L162.493 260.111C162.499 260.08 162.512 260.051 162.53 260.025C162.548 259.999 162.571 259.977 162.597 259.961C162.624 259.944 162.653 259.932 162.684 259.927C162.715 259.921 162.747 259.922 162.778 259.928C162.808 259.935 162.838 259.948 162.863 259.966C162.889 259.984 162.911 260.007 162.928 260.033C162.945 260.06 162.956 260.089 162.962 260.12C162.967 260.151 162.967 260.183 162.96 260.214L161.819 265.323C161.807 265.376 161.778 265.423 161.735 265.456C161.692 265.49 161.639 265.507 161.585 265.506Z" fill="#002E5D"/>
<path d="M155.313 374.276H151.046C150.984 374.276 150.924 374.252 150.881 374.208C150.837 374.164 150.812 374.105 150.812 374.043L148.39 334.962C148.39 334.88 147.207 325.343 144.783 316.356C142.337 307.291 143.614 301.545 143.614 301.489L149.617 277.1C149.625 277.069 149.638 277.04 149.657 277.015C149.675 276.989 149.699 276.967 149.726 276.951C149.752 276.934 149.782 276.923 149.814 276.918C149.845 276.914 149.877 276.915 149.907 276.922C149.938 276.93 149.967 276.943 149.992 276.961C150.018 276.98 150.04 277.003 150.056 277.03C150.073 277.057 150.084 277.087 150.089 277.118C150.094 277.149 150.092 277.181 150.085 277.212L144.079 301.599C144.067 301.653 142.823 307.293 145.236 316.232C147.67 325.252 148.846 334.824 148.858 334.918L151.268 373.79H155.088L158.943 308.953C158.947 308.891 158.975 308.833 159.022 308.792C159.045 308.771 159.072 308.756 159.101 308.746C159.13 308.736 159.161 308.731 159.191 308.733C159.222 308.735 159.252 308.743 159.28 308.756C159.307 308.77 159.332 308.788 159.352 308.811C159.373 308.835 159.389 308.861 159.399 308.89C159.409 308.919 159.413 308.95 159.411 308.981L155.542 374.043C155.542 374.104 155.518 374.163 155.475 374.206C155.432 374.25 155.374 374.275 155.313 374.276Z" fill="#002E5D"/>
<path d="M160.737 374.276H156.977C156.915 374.276 156.856 374.252 156.812 374.208C156.768 374.164 156.744 374.105 156.744 374.043C156.744 373.981 156.768 373.921 156.812 373.877C156.856 373.834 156.915 373.809 156.977 373.809H160.522L167.959 303.967L166.79 288.287C166.788 288.256 166.791 288.226 166.801 288.196C166.811 288.167 166.826 288.14 166.846 288.117C166.866 288.093 166.89 288.074 166.918 288.06C166.945 288.046 166.975 288.038 167.006 288.036C167.037 288.034 167.068 288.037 167.097 288.047C167.126 288.057 167.153 288.072 167.177 288.092C167.2 288.112 167.219 288.136 167.233 288.164C167.247 288.191 167.255 288.221 167.257 288.252L168.426 303.953C168.428 303.968 168.428 303.983 168.426 303.997L160.966 374.073C160.959 374.129 160.931 374.18 160.889 374.218C160.847 374.255 160.793 374.276 160.737 374.276Z" fill="#002E5D"/>
<path d="M157.693 334.28H149.926C149.864 334.28 149.804 334.255 149.761 334.211C149.717 334.167 149.692 334.108 149.692 334.046C149.692 333.984 149.717 333.924 149.761 333.88C149.804 333.837 149.864 333.812 149.926 333.812H157.693C157.755 333.812 157.814 333.837 157.858 333.88C157.902 333.924 157.926 333.984 157.926 334.046C157.926 334.108 157.902 334.167 157.858 334.211C157.814 334.255 157.755 334.28 157.693 334.28Z" fill="#002E5D"/>
<path d="M164.997 334.28H159.652C159.59 334.28 159.531 334.255 159.487 334.211C159.443 334.167 159.418 334.108 159.418 334.046C159.418 333.984 159.443 333.924 159.487 333.88C159.531 333.837 159.59 333.812 159.652 333.812H164.997C165.059 333.812 165.118 333.837 165.162 333.88C165.206 333.924 165.23 333.984 165.23 334.046C165.23 334.108 165.206 334.167 165.162 334.211C165.118 334.255 165.059 334.28 164.997 334.28Z" fill="#002E5D"/>
<path d="M153.975 382.156C153.916 382.157 153.86 382.135 153.816 382.095C153.773 382.055 153.746 382 153.742 381.941L153.253 377.033V381.916C153.253 381.978 153.228 382.037 153.184 382.081C153.141 382.125 153.081 382.149 153.019 382.149H150.751C150.719 382.15 150.687 382.144 150.657 382.131C150.627 382.119 150.601 382.1 150.578 382.077C150.534 382.029 150.511 381.965 150.513 381.899L150.924 374.705C150.924 374.672 150.931 374.641 150.944 374.611C150.956 374.582 150.975 374.555 150.998 374.533C151.022 374.511 151.05 374.494 151.08 374.484C151.11 374.473 151.142 374.469 151.174 374.471C151.207 374.471 151.238 374.477 151.268 374.49C151.297 374.503 151.324 374.521 151.346 374.545C151.368 374.568 151.385 374.596 151.395 374.626C151.406 374.657 151.411 374.689 151.408 374.721L151.013 381.663H152.788V376.78C152.788 376.718 152.812 376.659 152.856 376.615C152.9 376.571 152.959 376.546 153.021 376.546H153.489C153.548 376.546 153.605 376.568 153.648 376.608C153.691 376.648 153.718 376.703 153.723 376.762L154.209 381.67H157.971V379.716L155.182 374.854C155.166 374.827 155.155 374.797 155.151 374.766C155.147 374.735 155.149 374.703 155.157 374.673C155.165 374.642 155.18 374.614 155.199 374.589C155.219 374.565 155.243 374.544 155.271 374.529C155.298 374.513 155.328 374.502 155.359 374.497C155.391 374.493 155.423 374.495 155.453 374.503C155.484 374.512 155.513 374.526 155.537 374.546C155.562 374.566 155.583 374.59 155.598 374.618L158.417 379.527C158.438 379.563 158.449 379.604 158.448 379.646V381.911C158.448 381.973 158.423 382.032 158.379 382.076C158.336 382.12 158.276 382.145 158.214 382.145H154.006L153.975 382.156Z" fill="#002E5D"/>
<path d="M159.327 382.156C159.268 382.156 159.211 382.134 159.168 382.095C159.124 382.055 159.098 382 159.093 381.941L158.602 377.033V381.916C158.602 381.978 158.577 382.037 158.534 382.081C158.49 382.125 158.43 382.149 158.368 382.149C158.306 382.149 158.247 382.125 158.203 382.081C158.159 382.037 158.135 381.978 158.135 381.916V376.794C158.135 376.732 158.159 376.673 158.203 376.629C158.247 376.585 158.306 376.56 158.368 376.56H158.836C158.895 376.56 158.952 376.582 158.995 376.622C159.038 376.662 159.065 376.717 159.07 376.775L159.556 381.684H163.318V379.716L160.529 374.854C160.498 374.799 160.49 374.734 160.507 374.673C160.523 374.613 160.564 374.561 160.619 374.53C160.673 374.499 160.738 374.491 160.799 374.508C160.86 374.525 160.911 374.565 160.942 374.62L163.764 379.529C163.785 379.565 163.795 379.606 163.795 379.648V381.913C163.795 381.975 163.77 382.035 163.726 382.078C163.682 382.122 163.623 382.147 163.561 382.147H159.353L159.327 382.156Z" fill="#002E5D"/>
<path d="M156.746 377.119L156.416 379.713L153.739 379.515L153.975 381.918L158.193 381.906V379.641L156.746 377.119Z" fill="#002E5D"/>
<path d="M162.097 377.119L161.768 379.713L159.088 379.515L159.327 381.918L163.545 381.906V379.641L162.097 377.119Z" fill="#002E5D"/>
</svg>
