<svg width="418" height="400" viewBox="0 0 418 400" fill="none" xmlns="http://www.w3.org/2000/svg">
<g clip-path="url(#clip0_43_172)">
<path d="M198.853 0C89.0284 0 0 89.0898 0 198.991C0 272.132 39.4348 336.054 98.1861 370.639H299.516C358.268 336.059 397.703 272.137 397.703 198.991C397.708 89.0898 308.679 0 198.853 0Z" fill="#F3F8FF"/>
<path d="M197.54 312.912L56.7063 198.974L197.54 77.1704L338.377 198.974L197.54 312.912Z" fill="#325D9C"/>
<path d="M313.109 119.806H81.9739V331.631H313.109V119.806Z" fill="white"/>
<path d="M241.325 132.635H185.602V185.314H241.325V132.635Z" fill="#F3F8FF"/>
<path d="M241.325 226.934H153.76C153.72 226.936 153.68 226.931 153.643 226.917C153.605 226.904 153.571 226.883 153.542 226.856C153.513 226.828 153.49 226.795 153.474 226.759C153.458 226.722 153.45 226.683 153.45 226.643C153.45 226.604 153.458 226.564 153.474 226.528C153.49 226.491 153.513 226.458 153.542 226.431C153.571 226.404 153.605 226.383 153.643 226.37C153.68 226.356 153.72 226.351 153.76 226.353H241.325C241.399 226.358 241.468 226.391 241.518 226.445C241.569 226.498 241.597 226.57 241.597 226.643C241.597 226.717 241.569 226.788 241.518 226.842C241.468 226.896 241.399 226.929 241.325 226.934Z" fill="#002E5D"/>
<path d="M250.862 249.335H102.106C102.066 249.338 102.026 249.332 101.989 249.319C101.952 249.306 101.917 249.285 101.888 249.257C101.859 249.23 101.836 249.197 101.82 249.161C101.805 249.124 101.796 249.085 101.796 249.045C101.796 249.005 101.805 248.966 101.82 248.93C101.836 248.893 101.859 248.86 101.888 248.833C101.917 248.806 101.952 248.785 101.989 248.771C102.026 248.758 102.066 248.752 102.106 248.755H250.862C250.902 248.752 250.942 248.758 250.979 248.771C251.016 248.785 251.051 248.806 251.08 248.833C251.109 248.86 251.132 248.893 251.148 248.93C251.163 248.966 251.172 249.005 251.172 249.045C251.172 249.085 251.163 249.124 251.148 249.161C251.132 249.197 251.109 249.23 251.08 249.257C251.051 249.285 251.016 249.306 250.979 249.319C250.942 249.332 250.902 249.338 250.862 249.335Z" fill="#002E5D"/>
<path d="M214.341 271.737H102.106C102.068 271.737 102.03 271.73 101.995 271.715C101.959 271.701 101.927 271.679 101.9 271.652C101.873 271.625 101.852 271.593 101.837 271.558C101.823 271.523 101.815 271.485 101.815 271.447C101.815 271.408 101.823 271.371 101.837 271.335C101.852 271.3 101.873 271.268 101.9 271.241C101.927 271.214 101.959 271.193 101.995 271.178C102.03 271.163 102.068 271.156 102.106 271.156H214.341C214.418 271.156 214.492 271.186 214.546 271.241C214.601 271.295 214.631 271.369 214.631 271.447C214.631 271.524 214.601 271.598 214.546 271.652C214.492 271.707 214.418 271.737 214.341 271.737Z" fill="#002E5D"/>
<path d="M338.377 198.975V388.457H56.7063V198.975L197.542 293.715L338.377 198.975Z" fill="#BBD1DC"/>
<path d="M81.974 162.591C81.9358 162.591 81.898 162.583 81.8627 162.569C81.8275 162.554 81.7955 162.533 81.7685 162.506C81.7415 162.479 81.7201 162.446 81.7055 162.411C81.6909 162.376 81.6833 162.338 81.6833 162.3V119.805C81.6833 119.767 81.6909 119.729 81.7055 119.694C81.7201 119.659 81.7415 119.627 81.7685 119.6C81.7955 119.573 81.8275 119.551 81.8627 119.537C81.898 119.522 81.9358 119.515 81.974 119.515H162.295C162.372 119.515 162.446 119.545 162.501 119.6C162.555 119.654 162.586 119.728 162.586 119.805C162.586 119.883 162.555 119.957 162.501 120.011C162.446 120.066 162.372 120.096 162.295 120.096H82.2646V162.3C82.2646 162.377 82.2339 162.451 82.1794 162.506C82.1249 162.56 82.051 162.591 81.974 162.591Z" fill="#002E5D"/>
<path d="M313.109 170.076C313.032 170.076 312.959 170.045 312.905 169.991C312.85 169.936 312.82 169.863 312.82 169.786V120.096H273.947C273.87 120.096 273.796 120.066 273.741 120.011C273.687 119.957 273.656 119.883 273.656 119.805C273.656 119.728 273.687 119.654 273.741 119.6C273.796 119.545 273.87 119.515 273.947 119.515H313.104C313.181 119.515 313.255 119.545 313.31 119.6C313.364 119.654 313.395 119.728 313.395 119.805V169.786C313.395 169.862 313.365 169.935 313.312 169.99C313.258 170.044 313.185 170.075 313.109 170.076Z" fill="#002E5D"/>
<path d="M318.922 329.838L223.472 312.411L216.482 350.747L311.932 368.174L318.922 329.838Z" fill="white"/>
<path d="M255.757 329.796C255.74 329.798 255.722 329.798 255.705 329.796L231.175 325.307C231.101 325.291 231.037 325.247 230.995 325.184C230.953 325.121 230.938 325.044 230.951 324.97C230.965 324.896 231.007 324.83 231.068 324.786C231.129 324.742 231.205 324.724 231.28 324.735L255.809 329.215C255.88 329.229 255.943 329.268 255.987 329.326C256.031 329.383 256.051 329.455 256.045 329.527C256.038 329.599 256.005 329.666 255.952 329.715C255.899 329.764 255.829 329.792 255.757 329.792V329.796Z" fill="#002E5D"/>
<path d="M305.314 347.478C305.296 347.479 305.278 347.479 305.261 347.478L236.866 334.984C236.793 334.968 236.728 334.924 236.687 334.861C236.645 334.798 236.629 334.722 236.643 334.648C236.656 334.573 236.698 334.507 236.759 334.464C236.821 334.42 236.897 334.401 236.971 334.412L305.365 346.906C305.436 346.919 305.5 346.958 305.544 347.016C305.587 347.074 305.608 347.146 305.601 347.218C305.595 347.29 305.562 347.357 305.509 347.406C305.455 347.455 305.386 347.482 305.314 347.483V347.478Z" fill="#002E5D"/>
<path d="M303.79 355.826C303.773 355.827 303.755 355.827 303.737 355.826L235.343 343.333C235.269 343.317 235.205 343.272 235.163 343.21C235.121 343.147 235.106 343.07 235.119 342.996C235.133 342.922 235.175 342.856 235.236 342.812C235.297 342.768 235.373 342.75 235.448 342.761L303.842 355.25C303.914 355.261 303.98 355.3 304.025 355.358C304.07 355.416 304.091 355.488 304.084 355.561C304.078 355.634 304.044 355.702 303.989 355.751C303.935 355.8 303.863 355.827 303.79 355.825V355.826Z" fill="#002E5D"/>
<path d="M246.092 303.501L204.208 327.699L207.508 333.419L249.392 309.221L246.092 303.501Z" fill="#F3F8FF"/>
<path d="M319.74 352.171L290.701 368.949L294.001 374.669L323.04 357.891L319.74 352.171Z" fill="#F3F8FF"/>
<path d="M149.886 326.066C149.823 326.066 149.763 326.046 149.712 326.009C149.662 325.972 149.625 325.92 149.607 325.86C149.589 325.8 149.59 325.737 149.611 325.678C149.632 325.619 149.671 325.568 149.723 325.534L297.084 226.403C297.116 226.38 297.152 226.364 297.19 226.355C297.228 226.346 297.267 226.345 297.305 226.352C297.343 226.359 297.38 226.373 297.413 226.395C297.445 226.416 297.473 226.443 297.495 226.476C297.517 226.508 297.532 226.544 297.539 226.583C297.547 226.621 297.547 226.66 297.539 226.698C297.531 226.736 297.515 226.772 297.493 226.804C297.471 226.836 297.442 226.864 297.409 226.884L150.047 326.015C150 326.048 149.943 326.066 149.886 326.066Z" fill="#002E5D"/>
<path d="M204.21 327.989C204.147 327.989 204.084 327.968 204.034 327.93C203.983 327.891 203.946 327.836 203.93 327.774C203.913 327.713 203.917 327.647 203.941 327.588C203.966 327.529 204.009 327.479 204.064 327.447L245.949 303.25C246.016 303.212 246.095 303.201 246.17 303.221C246.244 303.242 246.307 303.29 246.346 303.357L249.646 309.077C249.684 309.144 249.694 309.223 249.674 309.297C249.654 309.372 249.606 309.435 249.54 309.474L245.62 311.738C245.587 311.759 245.55 311.774 245.511 311.78C245.472 311.787 245.433 311.786 245.394 311.777C245.356 311.768 245.32 311.751 245.288 311.727C245.256 311.703 245.23 311.674 245.21 311.639C245.19 311.605 245.178 311.567 245.173 311.528C245.169 311.489 245.172 311.449 245.183 311.411C245.194 311.374 245.213 311.338 245.238 311.308C245.263 311.278 245.295 311.253 245.33 311.235L248.998 309.115L245.987 303.898L204.355 327.952C204.311 327.977 204.261 327.99 204.21 327.989Z" fill="#002E5D"/>
<path d="M294.001 374.958C293.951 374.958 293.902 374.944 293.858 374.918C293.815 374.893 293.78 374.857 293.755 374.813L290.453 369.093C290.415 369.026 290.405 368.947 290.425 368.872C290.445 368.798 290.494 368.735 290.56 368.696L309.612 357.689C309.645 357.667 309.682 357.653 309.721 357.646C309.76 357.639 309.8 357.64 309.838 357.65C309.877 357.659 309.913 357.676 309.945 357.699C309.976 357.723 310.003 357.753 310.022 357.787C310.042 357.821 310.055 357.859 310.059 357.898C310.064 357.937 310.061 357.977 310.05 358.015C310.038 358.053 310.02 358.088 309.994 358.118C309.969 358.149 309.938 358.174 309.903 358.191L291.097 369.051L294.252 374.518C294.291 374.585 294.301 374.664 294.281 374.739C294.261 374.813 294.213 374.877 294.146 374.915C294.103 374.943 294.052 374.957 294.001 374.958Z" fill="#002E5D"/>
<path d="M308.075 264.951L312.16 269.454L319.137 266.73L320.679 266.222L356.512 242.742L354.39 277.398L355.668 390.806L356.653 390.894L353.869 396.044L344.65 396.529L344.173 399.707H365.673L363.517 392.25L364.002 390.814L372.053 314.944L387.119 390.796L387.68 390.894L387.743 392.727L384.442 396.074L374.89 397.033L374.818 399.61L396.145 399.569L394.456 392.566L394.421 390.783L389.792 294.829L411.086 261.724L399.027 219.904L385.208 212.681L382.343 212.053L378.649 205.628L377.465 203.248L383.412 174.993L350.953 166.323L354.464 182.201H356.434L361.374 202.98L368.217 202.192L369.313 209.172L368.952 213.145L361.129 213.439L318.019 259.677L316.701 260.275L310.352 259.459V261.317L312.7 262.249L308.075 264.951ZM388.705 277.238L393.578 250.275L399.655 259.352L389.096 284.52L388.705 277.238Z" fill="white"/>
<path d="M352.106 171.515L377.808 179.221L376.063 203.209L368.219 202.323L364.956 182.29L354.469 182.206L352.106 171.515Z" fill="#325D9C"/>
<path d="M362.346 182.14L364.499 202.718L361.378 202.986L356.312 182.192L362.346 182.14Z" fill="#F4B18F"/>
<path d="M357.662 217.288L318.022 259.682L319.298 262.943L353.724 241.305L356.509 242.742L354.389 277.398H384.598L394.179 229.957L387.599 220.498L357.662 217.288Z" fill="#F70431"/>
<path d="M397.144 230.409L406.62 260.408L389.357 289.128L389.097 284.523L399.655 259.352L393.578 250.276L397.144 230.409Z" fill="#F70431"/>
<path d="M368.003 277.513L360.954 390.995L355.848 390.868L354.389 277.398L368.003 277.513Z" fill="#325D9C"/>
<path d="M373.146 304.008L375.557 284.523L391.932 390.911L387.119 390.796L371.948 314.298L373.146 304.008Z" fill="#325D9C"/>
<path d="M316.704 260.28L310.356 259.464V261.323L312.704 262.254L308.075 264.951L309.948 267.017L319.298 262.943L318.022 259.682L316.704 260.28Z" fill="#F4B18F"/>
<path d="M369.314 209.469C369.245 209.469 369.178 209.444 369.126 209.399C369.073 209.354 369.039 209.291 369.028 209.223L364.757 182.492H354.469C354.403 182.492 354.339 182.47 354.287 182.429C354.236 182.387 354.2 182.33 354.185 182.265L350.673 166.384C350.663 166.336 350.664 166.285 350.679 166.237C350.693 166.19 350.72 166.146 350.756 166.112C350.792 166.077 350.836 166.053 350.885 166.041C350.933 166.028 350.984 166.029 351.032 166.042L383.491 174.713C383.562 174.733 383.624 174.779 383.663 174.842C383.702 174.905 383.715 174.98 383.7 175.053L377.79 203.378C377.775 203.448 377.736 203.51 377.679 203.552C377.622 203.595 377.551 203.615 377.48 203.609C377.458 203.609 375.264 203.415 373.035 203.201C372.958 203.193 372.888 203.156 372.839 203.096C372.79 203.037 372.766 202.96 372.774 202.884C372.781 202.807 372.818 202.736 372.878 202.687C372.937 202.638 373.014 202.614 373.091 202.622C374.871 202.794 376.631 202.951 377.277 203.007L383.081 175.207L351.348 166.729L354.707 181.915H365.009C365.079 181.915 365.146 181.94 365.198 181.985C365.251 182.03 365.286 182.093 365.296 182.162L369.606 209.135C369.612 209.173 369.61 209.212 369.601 209.25C369.592 209.287 369.576 209.322 369.553 209.353C369.53 209.384 369.501 209.41 369.468 209.43C369.434 209.45 369.398 209.463 369.36 209.468C369.344 209.469 369.329 209.47 369.314 209.469Z" fill="#002E5D"/>
<path d="M361.44 203.275C361.375 203.275 361.311 203.253 361.26 203.213C361.209 203.173 361.173 203.116 361.158 203.053L356.156 182.274C356.144 182.236 356.141 182.196 356.145 182.157C356.15 182.118 356.162 182.08 356.182 182.045C356.201 182.011 356.228 181.981 356.259 181.957C356.291 181.933 356.327 181.916 356.365 181.907C356.404 181.898 356.444 181.896 356.483 181.903C356.522 181.91 356.559 181.924 356.592 181.946C356.625 181.967 356.654 181.995 356.676 182.028C356.698 182.061 356.713 182.098 356.72 182.137L361.662 202.671L368.189 202.035C368.228 202.029 368.268 202.031 368.306 202.041C368.344 202.051 368.38 202.068 368.411 202.093C368.443 202.117 368.469 202.147 368.488 202.182C368.507 202.217 368.519 202.255 368.523 202.294C368.526 202.333 368.522 202.373 368.51 202.411C368.498 202.449 368.479 202.483 368.453 202.513C368.427 202.543 368.395 202.567 368.359 202.585C368.324 202.602 368.285 202.611 368.245 202.613L361.465 203.274L361.44 203.275Z" fill="#002E5D"/>
<path d="M376.498 213.439C376.426 213.438 376.357 213.41 376.304 213.361C376.252 213.312 376.219 213.245 376.213 213.173C376.207 213.101 376.228 213.03 376.272 212.972C376.316 212.915 376.379 212.876 376.45 212.863L381.946 211.92L378.402 205.781C378.367 205.715 378.359 205.637 378.379 205.564C378.4 205.492 378.449 205.431 378.514 205.393C378.579 205.356 378.656 205.345 378.729 205.363C378.802 205.382 378.866 205.428 378.905 205.492L382.656 211.995C382.679 212.036 382.692 212.081 382.694 212.128C382.696 212.175 382.687 212.221 382.667 212.263C382.647 212.306 382.618 212.343 382.581 212.371C382.544 212.399 382.5 212.419 382.454 212.427L376.544 213.441C376.528 213.441 376.513 213.441 376.498 213.439Z" fill="#002E5D"/>
<path d="M320.68 266.513C320.623 266.513 320.567 266.497 320.519 266.465C320.472 266.434 320.435 266.388 320.413 266.336L317.704 259.86C317.682 259.809 317.676 259.752 317.686 259.697C317.696 259.642 317.721 259.591 317.759 259.55L360.916 213.247C360.969 213.191 361.042 213.158 361.118 213.155L368.94 212.86C368.979 212.856 369.019 212.86 369.056 212.873C369.094 212.885 369.129 212.905 369.158 212.931C369.188 212.957 369.212 212.989 369.229 213.024C369.246 213.06 369.255 213.099 369.257 213.138C369.258 213.178 369.252 213.217 369.238 213.254C369.223 213.291 369.202 213.324 369.174 213.352C369.147 213.381 369.114 213.403 369.077 213.418C369.041 213.433 369.002 213.441 368.962 213.44L361.26 213.731L318.311 259.809L320.817 265.789L365.807 236.304C365.873 236.262 365.952 236.247 366.028 236.264C366.104 236.28 366.17 236.326 366.212 236.391C366.255 236.457 366.269 236.536 366.253 236.612C366.236 236.688 366.19 236.755 366.125 236.797L320.842 266.472C320.793 266.502 320.737 266.516 320.68 266.513Z" fill="#002E5D"/>
<path d="M394.378 391.186H387.144C387.077 391.187 387.012 391.164 386.96 391.121C386.908 391.078 386.873 391.018 386.86 390.952L371.766 314.463C371.756 314.425 371.753 314.385 371.759 314.346C371.765 314.306 371.779 314.269 371.8 314.235C371.821 314.201 371.849 314.172 371.881 314.15C371.914 314.127 371.951 314.111 371.99 314.104C372.029 314.096 372.069 314.096 372.108 314.104C372.147 314.113 372.183 314.129 372.216 314.152C372.248 314.175 372.275 314.205 372.296 314.239C372.316 314.273 372.329 314.311 372.335 314.35L387.38 390.604H394.072L388.447 277.271C388.445 277.249 388.445 277.227 388.447 277.206L396.855 230.354C396.86 230.315 396.873 230.278 396.894 230.244C396.914 230.21 396.94 230.181 396.972 230.158C397.004 230.135 397.04 230.119 397.078 230.11C397.117 230.101 397.156 230.1 397.195 230.107C397.233 230.114 397.27 230.129 397.303 230.151C397.336 230.172 397.364 230.2 397.385 230.233C397.407 230.266 397.422 230.302 397.429 230.341C397.436 230.38 397.435 230.419 397.426 230.458L389.025 277.282L394.663 390.886C394.665 390.925 394.66 390.964 394.646 391.001C394.632 391.038 394.611 391.072 394.584 391.101C394.557 391.129 394.525 391.152 394.488 391.167C394.452 391.183 394.413 391.19 394.374 391.19L394.378 391.186Z" fill="#002E5D"/>
<path d="M363.995 391.187H355.744C355.668 391.187 355.595 391.157 355.541 391.103C355.487 391.049 355.456 390.976 355.455 390.9L354.101 277.517V277.497L356.222 242.725C356.229 242.649 356.264 242.579 356.322 242.53C356.379 242.48 356.453 242.455 356.529 242.459C356.605 242.464 356.675 242.498 356.727 242.554C356.778 242.61 356.805 242.684 356.802 242.759L354.681 277.522L356.035 390.608H363.735L372.859 303.982C372.868 303.906 372.907 303.836 372.967 303.788C373.027 303.739 373.103 303.716 373.18 303.724C373.256 303.732 373.326 303.77 373.374 303.83C373.423 303.891 373.445 303.967 373.437 304.044L364.285 390.932C364.277 391.002 364.242 391.068 364.189 391.115C364.135 391.162 364.066 391.187 363.995 391.187Z" fill="#002E5D"/>
<path d="M389.634 295.633C389.582 295.633 389.531 295.619 389.486 295.593C389.441 295.566 389.404 295.528 389.378 295.482C389.353 295.437 389.341 295.385 389.342 295.333C389.344 295.28 389.36 295.23 389.388 295.185L410.77 261.669L398.761 220.02L385.145 213.038C385.111 213.021 385.081 212.997 385.056 212.968C385.031 212.939 385.013 212.905 385.001 212.869C384.989 212.832 384.985 212.794 384.988 212.756C384.991 212.718 385.002 212.681 385.019 212.647C385.036 212.614 385.06 212.583 385.089 212.559C385.118 212.534 385.152 212.515 385.188 212.504C385.224 212.492 385.263 212.488 385.301 212.491C385.339 212.494 385.376 212.504 385.409 212.522L399.138 219.56C399.173 219.578 399.204 219.603 399.229 219.634C399.255 219.664 399.273 219.7 399.285 219.738L411.363 261.633C411.375 261.673 411.378 261.715 411.372 261.756C411.366 261.797 411.351 261.836 411.329 261.871L389.878 295.495C389.852 295.537 389.817 295.571 389.774 295.595C389.731 295.62 389.683 295.632 389.634 295.633Z" fill="#002E5D"/>
<path d="M389.097 284.814C389.058 284.813 389.02 284.805 388.984 284.79C388.949 284.775 388.917 284.754 388.89 284.727C388.863 284.7 388.842 284.667 388.828 284.632C388.814 284.597 388.807 284.559 388.807 284.521C388.807 284.482 388.815 284.445 388.83 284.41L399.42 259.386L393.337 250.44C393.316 250.408 393.301 250.373 393.293 250.335C393.285 250.298 393.285 250.26 393.292 250.222C393.299 250.185 393.313 250.149 393.334 250.117C393.355 250.086 393.382 250.058 393.413 250.037C393.445 250.015 393.48 250 393.517 249.992C393.555 249.985 393.593 249.984 393.63 249.991C393.668 249.998 393.704 250.013 393.735 250.034C393.767 250.055 393.795 250.082 393.816 250.113L399.989 259.19C400.016 259.23 400.033 259.276 400.038 259.324C400.043 259.372 400.035 259.421 400.016 259.466L389.361 284.636C389.339 284.688 389.302 284.733 389.256 284.764C389.209 284.796 389.154 284.813 389.097 284.814Z" fill="#002E5D"/>
<path d="M312.246 269.836C312.207 269.836 312.169 269.828 312.133 269.813C312.097 269.798 312.064 269.776 312.037 269.748L307.7 265.242C307.669 265.21 307.646 265.171 307.633 265.128C307.619 265.086 307.616 265.04 307.623 264.996C307.63 264.952 307.647 264.91 307.672 264.873C307.698 264.837 307.732 264.807 307.771 264.785L312.225 262.378L310.255 261.594C310.201 261.573 310.155 261.535 310.122 261.487C310.089 261.439 310.072 261.382 310.072 261.324V259.466C310.072 259.424 310.081 259.383 310.098 259.345C310.115 259.308 310.14 259.274 310.171 259.247C310.202 259.219 310.239 259.199 310.279 259.187C310.319 259.175 310.361 259.172 310.402 259.177L316.628 260.023C316.667 260.026 316.705 260.037 316.74 260.056C316.775 260.075 316.805 260.1 316.83 260.131C316.855 260.162 316.873 260.197 316.883 260.235C316.894 260.273 316.896 260.313 316.891 260.352C316.886 260.391 316.872 260.429 316.852 260.463C316.832 260.496 316.805 260.526 316.773 260.549C316.741 260.572 316.704 260.588 316.666 260.597C316.627 260.605 316.587 260.606 316.549 260.598L310.653 259.799V261.127L313.023 262.067C313.075 262.087 313.119 262.122 313.152 262.167C313.184 262.212 313.203 262.265 313.206 262.32C313.209 262.376 313.197 262.431 313.17 262.479C313.143 262.527 313.103 262.567 313.054 262.593L308.388 265.114L312.329 269.202L319.037 266.461C319.109 266.432 319.188 266.432 319.259 266.462C319.33 266.492 319.386 266.549 319.415 266.62C319.444 266.691 319.444 266.771 319.414 266.842C319.384 266.913 319.328 266.969 319.257 266.998L312.361 269.814C312.325 269.829 312.286 269.837 312.246 269.836Z" fill="#002E5D"/>
<path d="M365.564 399.856H344.17C344.128 399.856 344.086 399.847 344.048 399.83C344.009 399.812 343.975 399.787 343.948 399.755C343.921 399.723 343.901 399.685 343.89 399.644C343.878 399.604 343.876 399.561 343.883 399.52L344.362 396.48C344.372 396.414 344.404 396.353 344.454 396.308C344.504 396.263 344.568 396.236 344.635 396.234L353.651 395.818L355.647 392.161C355.686 392.096 355.748 392.049 355.82 392.029C355.893 392.009 355.97 392.018 356.036 392.055C356.102 392.091 356.152 392.151 356.174 392.223C356.197 392.294 356.191 392.372 356.157 392.439L354.082 396.241C354.058 396.285 354.022 396.322 353.979 396.349C353.936 396.375 353.886 396.39 353.836 396.391L344.894 396.803L344.503 399.273H365.171L363.201 392.38C363.19 392.344 363.187 392.305 363.191 392.267C363.196 392.229 363.207 392.192 363.226 392.159C363.244 392.126 363.269 392.096 363.299 392.072C363.329 392.049 363.363 392.031 363.4 392.021C363.437 392.01 363.475 392.007 363.513 392.011C363.551 392.015 363.588 392.027 363.621 392.046C363.654 392.064 363.684 392.089 363.708 392.119C363.731 392.149 363.749 392.183 363.76 392.22L365.834 399.49C365.846 399.533 365.848 399.579 365.84 399.623C365.831 399.667 365.813 399.708 365.786 399.744C365.759 399.78 365.724 399.809 365.684 399.829C365.644 399.849 365.6 399.86 365.555 399.86L365.564 399.856Z" fill="#002E5D"/>
<path d="M380.01 277.804H354.39C354.316 277.799 354.247 277.766 354.197 277.712C354.146 277.658 354.118 277.587 354.118 277.513C354.118 277.44 354.146 277.369 354.197 277.315C354.247 277.261 354.316 277.228 354.39 277.223H380.011C380.051 277.221 380.091 277.226 380.128 277.24C380.165 277.253 380.2 277.274 380.229 277.301C380.258 277.328 380.281 277.361 380.297 277.398C380.312 277.434 380.321 277.474 380.321 277.513C380.321 277.553 380.312 277.593 380.297 277.629C380.281 277.666 380.258 277.698 380.229 277.726C380.2 277.753 380.165 277.774 380.128 277.787C380.091 277.801 380.051 277.806 380.011 277.804H380.01Z" fill="#002E5D"/>
<path d="M396.118 399.857H374.762C374.685 399.857 374.611 399.826 374.556 399.771C374.502 399.717 374.471 399.643 374.471 399.566V396.947C374.471 396.875 374.498 396.806 374.546 396.753C374.594 396.699 374.661 396.666 374.732 396.659L384.46 395.656L387.466 392.522C387.52 392.47 387.592 392.44 387.668 392.44C387.743 392.44 387.816 392.469 387.87 392.521C387.924 392.574 387.956 392.645 387.959 392.72C387.962 392.796 387.935 392.869 387.885 392.925L384.806 396.135C384.758 396.184 384.695 396.215 384.626 396.223L375.05 397.209V399.274H395.749L394.23 392.79C394.219 392.752 394.216 392.712 394.221 392.674C394.226 392.635 394.239 392.597 394.259 392.563C394.279 392.529 394.306 392.5 394.337 392.477C394.369 392.453 394.405 392.437 394.443 392.428C394.481 392.419 394.521 392.418 394.559 392.424C394.598 392.431 394.635 392.446 394.668 392.467C394.701 392.488 394.729 392.516 394.751 392.549C394.773 392.581 394.788 392.618 394.795 392.657L396.396 399.498C396.406 399.541 396.406 399.585 396.397 399.628C396.387 399.67 396.368 399.71 396.341 399.745C396.314 399.779 396.279 399.807 396.24 399.826C396.201 399.845 396.158 399.855 396.114 399.855L396.118 399.857Z" fill="#002E5D"/>
<path d="M364.694 396.526L353.831 396.105L344.796 396.526L344.346 399.708L365.673 399.568L364.694 396.526Z" fill="#002E5D"/>
<path d="M395.52 397.021L384.167 395.981L374.987 397.021L374.888 399.442L395.917 399.305L395.52 397.021Z" fill="#002E5D"/>
<path d="M417.285 399.999H181.874C181.835 400.002 181.795 399.996 181.758 399.983C181.72 399.97 181.686 399.949 181.657 399.921C181.628 399.894 181.605 399.861 181.589 399.825C181.573 399.788 181.565 399.749 181.565 399.709C181.565 399.669 181.573 399.63 181.589 399.594C181.605 399.557 181.628 399.524 181.657 399.497C181.686 399.47 181.72 399.449 181.758 399.435C181.795 399.422 181.835 399.416 181.874 399.419H417.285C417.325 399.416 417.364 399.422 417.402 399.435C417.439 399.449 417.474 399.47 417.503 399.497C417.532 399.524 417.555 399.557 417.57 399.594C417.586 399.63 417.594 399.669 417.594 399.709C417.594 399.749 417.586 399.788 417.57 399.825C417.555 399.861 417.532 399.894 417.503 399.921C417.474 399.949 417.439 399.97 417.402 399.983C417.364 399.996 417.325 400.002 417.285 399.999Z" fill="#002E5D"/>
<path d="M263.728 388.44H11.7046C11.6309 388.435 11.5619 388.402 11.5114 388.349C11.4609 388.295 11.4329 388.224 11.4329 388.15C11.4329 388.076 11.4609 388.005 11.5114 387.951C11.5619 387.897 11.6309 387.864 11.7046 387.86H263.728C263.767 387.857 263.807 387.863 263.844 387.876C263.882 387.889 263.916 387.91 263.945 387.937C263.974 387.965 263.997 387.998 264.013 388.034C264.029 388.071 264.037 388.11 264.037 388.15C264.037 388.19 264.029 388.229 264.013 388.265C263.997 388.302 263.974 388.335 263.945 388.362C263.916 388.389 263.882 388.41 263.844 388.423C263.807 388.437 263.767 388.442 263.728 388.44Z" fill="#002E5D"/>
<path d="M127.809 73.9412C132.111 69.6357 132.111 62.6553 127.809 58.3499C123.507 54.0445 116.531 54.0445 112.229 58.3499C107.926 62.6553 107.926 69.6357 112.229 73.9411C116.531 78.2466 123.507 78.2466 127.809 73.9412Z" fill="#BBD1DC"/>
<path d="M349.825 142.513C352.867 139.468 352.867 134.532 349.825 131.487C346.782 128.443 341.849 128.443 338.807 131.487C335.764 134.532 335.764 139.468 338.807 142.513C341.849 145.557 346.782 145.557 349.825 142.513Z" fill="#BBD1DC"/>
<path d="M82.9001 386.491C82.8301 386.491 82.7624 386.465 82.7096 386.419C82.6569 386.373 82.6225 386.309 82.6129 386.24C82.6033 386.17 82.6191 386.1 82.6574 386.041C82.6957 385.982 82.7539 385.939 82.8213 385.92C90.4558 383.773 102.031 379.816 102.609 377.716C102.631 377.642 102.631 377.564 102.609 377.49C102.587 377.416 102.544 377.35 102.486 377.3C100.425 375.124 88.1729 378.629 83.6254 380.165C83.5561 380.187 83.4811 380.182 83.4151 380.151C83.3491 380.121 83.2969 380.067 83.2689 379.999C83.241 379.932 83.2391 379.857 83.2639 379.789C83.2886 379.72 83.3381 379.664 83.4025 379.63C86.8651 377.891 95.8603 372.877 95.8911 370.578C95.8911 370.396 95.8419 370.122 95.3727 369.871C93.7879 369.022 90.0335 370.281 84.5132 373.514C80.2847 375.991 76.5093 378.773 76.4686 378.802C76.413 378.843 76.3446 378.862 76.2757 378.857C76.2068 378.852 76.1419 378.823 76.0927 378.775C76.0435 378.726 76.0132 378.662 76.0072 378.593C76.0011 378.524 76.0198 378.455 76.0598 378.399C76.0783 378.373 77.8749 375.874 79.4707 373.203C82.3029 368.466 82.0566 367.319 81.8288 367.041C81.7057 366.897 81.2353 366.657 79.5052 367.522C71.7894 371.392 67.157 384.405 67.1102 384.535C67.0824 384.605 67.0288 384.661 66.9606 384.692C66.8924 384.723 66.8149 384.726 66.7443 384.702C66.6736 384.677 66.6152 384.626 66.5813 384.559C66.5474 384.492 66.5406 384.415 66.5622 384.343C67.48 381.877 68.5917 379.487 69.8869 377.196C71.8645 373.695 75.0944 369.087 79.2516 367.007C80.8363 366.213 81.798 366.106 82.2758 366.668C82.724 367.195 82.9715 368.477 79.9719 373.503C79.1013 374.962 78.1704 376.369 77.4981 377.356C78.9843 376.315 81.5111 374.604 84.2214 373.015C90.0088 369.624 93.8532 368.394 95.6522 369.358C96.3418 369.728 96.4809 370.23 96.476 370.59C96.4575 371.946 94.3396 373.917 89.999 376.603C88.7516 377.376 87.4968 378.094 86.4379 378.679C87.9943 378.215 89.999 377.653 92.064 377.17C98.0977 375.757 101.741 375.667 102.912 376.904C103.039 377.028 103.13 377.183 103.175 377.354C103.221 377.525 103.219 377.705 103.17 377.875C102.954 378.658 101.767 379.565 99.5421 380.646C97.8404 381.473 95.5316 382.402 92.6797 383.407C87.8342 385.114 83.0269 386.47 82.9802 386.487C82.9538 386.492 82.9268 386.493 82.9001 386.491Z" fill="#002E5D"/>
<path d="M45.0575 382.968C45.0031 382.968 44.9498 382.953 44.9036 382.924C44.8574 382.895 44.8203 382.854 44.7965 382.805C44.7214 382.65 37.1176 367.202 31.1984 360.412C31.1708 360.383 31.1493 360.35 31.1352 360.313C31.1211 360.276 31.1146 360.237 31.1162 360.197C31.1178 360.158 31.1274 360.119 31.1445 360.083C31.1615 360.048 31.1857 360.016 31.2154 359.99C31.2452 359.964 31.2799 359.944 31.3175 359.932C31.3551 359.92 31.3948 359.916 31.4341 359.919C31.4734 359.923 31.5115 359.935 31.5462 359.954C31.5808 359.973 31.6112 359.999 31.6355 360.03C37.6052 366.877 45.2422 382.393 45.3186 382.55C45.3354 382.584 45.3453 382.621 45.3477 382.659C45.3501 382.697 45.345 382.735 45.3326 382.772C45.3203 382.808 45.3009 382.841 45.2757 382.869C45.2505 382.898 45.2198 382.921 45.1856 382.938C45.1458 382.958 45.1019 382.968 45.0575 382.968Z" fill="#002E5D"/>
<path d="M43.1512 384.583C43.1074 384.583 43.0642 384.573 43.0248 384.554C42.9853 384.535 42.9507 384.508 42.9233 384.474C42.8655 384.401 37.0066 377.162 28.6776 374.144C28.6394 374.133 28.6039 374.114 28.5732 374.089C28.5426 374.063 28.5175 374.032 28.4994 373.997C28.4814 373.961 28.4708 373.922 28.4683 373.883C28.4659 373.843 28.4716 373.803 28.4851 373.766C28.4986 373.728 28.5196 373.694 28.5468 373.665C28.5741 373.636 28.607 373.613 28.6435 373.597C28.68 373.582 28.7194 373.574 28.7591 373.574C28.7989 373.574 28.8382 373.582 28.8746 373.598C37.3612 376.672 43.3174 384.037 43.3777 384.111C43.4117 384.154 43.433 384.206 43.4392 384.26C43.4453 384.314 43.436 384.369 43.4123 384.418C43.3887 384.468 43.3516 384.509 43.3054 384.538C43.2592 384.568 43.2058 384.583 43.1512 384.583Z" fill="#002E5D"/>
<path d="M40.1433 361.098H40.1138C40.0727 361.093 40.0331 361.08 39.9977 361.058C39.9622 361.037 39.9317 361.008 39.9081 360.974L38.7346 359.36C38.6928 359.298 38.6767 359.222 38.6897 359.148C38.7028 359.074 38.7439 359.008 38.8046 358.963C38.8653 358.919 38.9408 358.9 39.0152 358.91C39.0896 358.92 39.1572 358.959 39.2038 359.018L40.1889 360.373L41.7097 358.978C41.7374 358.95 41.7705 358.928 41.807 358.913C41.8435 358.899 41.8826 358.891 41.922 358.892C41.9614 358.893 42.0002 358.902 42.036 358.918C42.0719 358.934 42.1041 358.958 42.1307 358.987C42.1573 359.016 42.1776 359.05 42.1906 359.087C42.2035 359.124 42.2088 359.164 42.206 359.203C42.2033 359.243 42.1926 359.281 42.1746 359.316C42.1565 359.351 42.1316 359.382 42.1012 359.407L40.3416 361.021C40.2874 361.071 40.2167 361.098 40.1433 361.098Z" fill="#002E5D"/>
</g>
<defs>
<clipPath id="clip0_43_172">
<rect width="418" height="400" fill="white"/>
</clipPath>
</defs>
</svg>
