<svg width="418" height="400" fill="none" xmlns="http://www.w3.org/2000/svg"><path d="m379.889 105.825 12.569 167.768L25 315.638v-134.03l354.889-75.783Z" fill="#F3F8FF"/><path d="m238.051 53.711-68.679 5.32 2.185 28.196 68.679-5.32-2.185-28.196Z" fill="#C9DAF4"/><path d="m228.359 76.234-11.414-16.556a17.271 17.271 0 1 0-25.804 1.998l-8.729 18.116a.588.588 0 0 0-.059.229.598.598 0 0 0 .342.579.6.6 0 0 0 .807-.28l8.919-18.521v-.028a.662.662 0 0 0 .035-.116.567.567 0 0 0 0-.058.38.38 0 0 0 0-.117.527.527 0 0 0 0-.056c0-.02 0-.04-.014-.058l-.019-.052c0-.02-.016-.038-.025-.057-.008-.018-.019-.033-.029-.05a.498.498 0 0 0-.077-.094l-.019-.022a16.062 16.062 0 0 1-4.287-17.066 16.056 16.056 0 1 1 27.737 15.254.201.201 0 0 0-.014.024c-.013.02-.025.036-.036.055a.473.473 0 0 0-.027.052c0 .016-.014.035-.021.054a.546.546 0 0 0-.016.056.527.527 0 0 0 0 .056.283.283 0 0 0 0 .058.567.567 0 0 0 0 .059.264.264 0 0 0 0 .056.565.565 0 0 0 0 .058l.019.056c0 .019.014.036.02.052a.5.5 0 0 0 .034.059l.012.025 11.664 16.915a.604.604 0 0 0 1.089-.227.608.608 0 0 0-.088-.453Z" fill="#C9DAF4"/><path d="M301.919 329.846 108.2 323.298c18.949-81.699 24.199-165.592 15.538-248.233l193.72 6.548c8.652 82.631 3.408 166.536-15.539 248.233Z" fill="#C9DAF4"/><path d="M285.638 317.895H91.808a758.343 758.343 0 0 0 25.055-113.314 718.686 718.686 0 0 0 7.027-89.688c.2-13.218.024-26.397-.527-39.537h193.828c3.369 80.269-7.296 162.257-31.553 242.539Z" fill="#fff"/><path d="M69.803 253.845H51.982a6.697 6.697 0 0 0-6.543 5.275 6.695 6.695 0 0 0 .038 3.003l13.026 53.525 52.063 16.635 53.787-16.943v-21.75l-71.97-4.578-22.58-35.167Z" fill="#454E54"/><path d="m99.377 218.351-22.366 3.883-8.116 17.896 7.375 2.721-2.16 8.201-1.477.878-11.976 5.681s-3.964 1.665-2.08 6.339l16.507 32.851 1.837-2.574h27.872a8.819 8.819 0 0 1 5.941 2.574c2.635 2.647 2.036 9.194 2.036 9.194v9.653h20.17s3.186-1.962 5.537-2.497c0 0 3.176-1.119 5.571-.335 2.395.785 2.865 3.196 2.865 3.196l1.952 9.458 2.025 8.176 1.557 5.775h2.262l1.962 7.63h.489l-2.705 10.853h24.093l-.625-3.234-8.792-2.306-6.473-4.476-.55-1.097-.208-7.37 2.081-.029-2.472-32.3 20.05 22.184 2.253-1.829 7.123 5.852.416-.325 4.593 10.197 18.899-15.041-2.535-2.137-8.225 3.697-7.97.562-1.062-.497-5.552-7.032.789-.678-30.725-40.578s-2.655-2.834-6.584-1.971l-16.92 5.244 3.981-27.73-38.776 4.846-.726 3.975-2.612-7.231-14.412-6.967.044-5.25 6.985 1.796 4.1-16.496 3.993.439.74-13.771Z" fill="#fff"/><path d="m99.192 221.609-21.012 3.582-6.197 16.069 4.358 1.583 4.326-4.401-1.144-2.237.907-2.235 2.5 2.22 2.078-5.543 13.628 1.475.556-10.513Z" fill="#325D9C"/><path d="m87.097 230.874-5.258 15.018 8.758 2.341 4.046-16.55-7.546-.809Z" fill="#FDC8AA"/><path d="m139.538 260.514-35.325 4.231-5.577 29.451 37.061-7.454 3.841-26.228Z" fill="#454E54"/><path d="m79.818 243.016 1.201 2.738 2.539.629-.044 5.25-4.863 9.89-5.315-6.482.778-3.989 1.295-4.913 4.41-3.123Z" fill="#FDC8AA"/><path d="m72.666 254.199 9.22 11.205 4.37-12.444 11.668 5.64 2.614 7.231-5.227 28.396H76.917L61.31 262.978a2.549 2.549 0 0 1 1.097-3.398l10.26-5.381Z" fill="#3B82F4"/><path d="m110.735 296.801 42.937-13.041a4.184 4.184 0 0 1 4.566 1.501l29.181 39.186-5.866 4.829-20.154-22.266-5.009-5.562 5.5 37.962h-9.373l-3.133-11.715-1.572-7.123-.886-4.705s-.739-3.79-5.5-3.35c-4.761.439-8.478 3.121-8.478 3.121h-20.17v-13.734s-.433-3.683-2.043-5.103Z" fill="#325D9C"/><path d="m187.427 324.446 5.731 7.048-2.221 1.805-7.123-5.852 3.613-3.001Zm-32.71 14.974 4.769-.016 1.037 7.502-3.844.145-1.962-7.631Z" fill="#FDC8AA"/><path d="M76.364 243.122a.298.298 0 0 1-.094-.015l-7.491-2.68a.291.291 0 0 1-.164-.156.283.283 0 0 1 0-.225l8.132-17.929a.276.276 0 0 1 .208-.16l22.366-3.881a.269.269 0 0 1 .233.066.28.28 0 0 1 .093.225l-.738 13.77a.28.28 0 0 1-.198.253.286.286 0 0 1-.112.011l-13.46-1.446-1.958 5.337a.29.29 0 0 1-.196.177.279.279 0 0 1-.254-.062l-2.201-1.958-.722 1.731 1.138 2.102a.277.277 0 0 1-.046.328l-4.345 4.437a.283.283 0 0 1-.191.075ZM69.26 240l7.029 2.518 4.072-4.162-1.103-2.037a.283.283 0 0 1-.01-.241l.924-2.21a.27.27 0 0 1 .196-.164.28.28 0 0 1 .25.062l2.186 1.946 1.892-5.174a.28.28 0 0 1 .293-.183l13.383 1.457.71-13.124-21.877 3.795L69.26 240Z" fill="#002E5D"/><path d="M90.595 248.513a.28.28 0 0 1-.07 0l-9.612-2.526a.284.284 0 0 1-.183-.156l-1.603-3.51a.286.286 0 0 1-.019-.223.28.28 0 0 1 .53-.01l1.547 3.389 9.206 2.42 4.002-16.264a.28.28 0 0 1 .545.135l-4.07 16.541a.261.261 0 0 1-.047.1.256.256 0 0 1-.226.104Zm-16.485 2.903a.279.279 0 0 1-.07 0 .286.286 0 0 1-.176-.128.28.28 0 0 1-.033-.215l1.297-4.994a.284.284 0 0 1 .127-.181.286.286 0 0 1 .218-.033.292.292 0 0 1 .175.135.285.285 0 0 1 .023.22l-1.297 4.994a.274.274 0 0 1-.264.202Z" fill="#002E5D"/><path d="M83.558 251.841a.285.285 0 0 1-.2-.082.278.278 0 0 1-.081-.199v-5.177a.28.28 0 0 1 .56 0v5.173a.284.284 0 0 1-.08.201.266.266 0 0 1-.091.062.269.269 0 0 1-.108.022Zm-8.478 45.241a.277.277 0 0 1-.252-.154l-16.56-32.957a4.89 4.89 0 0 1 2.273-6.613l11.975-5.681a.28.28 0 0 1 .375.348.277.277 0 0 1-.136.159l-11.963 5.681a4.325 4.325 0 0 0-2.012 5.854l16.56 32.958a.27.27 0 0 1 .016.214.28.28 0 0 1-.276.191Z" fill="#002E5D"/><path d="M81.91 265.764a.277.277 0 0 1-.218-.102l-10.58-12.935a.274.274 0 0 1-.063-.205.277.277 0 0 1 .102-.19.276.276 0 0 1 .097-.051.277.277 0 0 1 .299.091l10.26 12.548 3.257-9.41a.287.287 0 0 1 .055-.095.284.284 0 0 1 .301-.078.286.286 0 0 1 .16.142.281.281 0 0 1 .013.214l-3.42 9.888a.272.272 0 0 1-.208.183.177.177 0 0 1-.055 0Zm21.194 27.789a.28.28 0 0 1-.054-.556l32.462-6.492 4.201-29.106-38.22 4.769-5.569 30.051a.28.28 0 0 1-.515.118.279.279 0 0 1-.036-.22l5.606-30.252a.277.277 0 0 1 .084-.153.274.274 0 0 1 .157-.074l38.787-4.838a.284.284 0 0 1 .3.191.274.274 0 0 1 .012.127l-4.283 29.668a.282.282 0 0 1-.222.235l-32.656 6.53a.244.244 0 0 1-.054.002Z" fill="#002E5D"/><path d="M100.538 266.066a.28.28 0 0 1-.264-.185l-2.57-7.063-12.496-6.014a.28.28 0 0 1-.114-.365.28.28 0 0 1 .355-.141l12.592 6.064a.279.279 0 0 1 .143.156l2.608 7.171a.28.28 0 0 1-.073.303.286.286 0 0 1-.181.074Zm-18.121 18.322a.278.278 0 0 1-.255-.168l-6.886-15.665a.282.282 0 0 1 .514-.225l6.78 15.426 15.517-5.523a.278.278 0 0 1 .22.005.281.281 0 0 1-.03.524L82.51 284.38a.269.269 0 0 1-.094.008Z" fill="#002E5D"/><path d="M138.654 315.919h-25.876a.28.28 0 0 1-.281-.281v-12.509c0-2.849-.816-5.044-2.422-6.524-2.591-2.386-6.418-2.101-6.451-2.099H77.063l-10.82 15.153a2.602 2.602 0 0 1-4.645-.903l-11.75-48.846a.278.278 0 0 1 .025-.221.275.275 0 0 1 .178-.134.273.273 0 0 1 .22.038.279.279 0 0 1 .123.186l11.749 48.846a2.039 2.039 0 0 0 3.643.707l10.909-15.269a.279.279 0 0 1 .099-.088.284.284 0 0 1 .127-.031h26.663c.294-.023 4.139-.266 6.867 2.243 1.73 1.59 2.606 3.925 2.606 6.94v12.228h25.595a.28.28 0 1 1 0 .561l.002.003Z" fill="#002E5D"/><path d="M85.582 294.508a.28.28 0 0 1-.152-.516l11.004-7.127a.266.266 0 0 1 .103-.047.27.27 0 0 1 .219.04.276.276 0 0 1 .117.299.287.287 0 0 1-.133.178l-11.006 7.127a.274.274 0 0 1-.152.046Zm96.002 35.082a.277.277 0 0 1-.208-.091l-27.608-30.473a3.26 3.26 0 0 0-3.985-.677l-21.469 11.681a.283.283 0 0 1-.372-.117.277.277 0 0 1-.024-.209.278.278 0 0 1 .128-.168l21.469-11.682a3.82 3.82 0 0 1 4.669.793l27.427 30.263 8.271-6.867-29.996-39.69a6.95 6.95 0 0 0-7.552-2.382l-16.212 5.071a.281.281 0 0 1-.169-.535l16.209-5.079a7.499 7.499 0 0 1 8.165 2.578l30.161 39.91a.28.28 0 0 1-.046.385l-8.683 7.214a.275.275 0 0 1-.175.075Z" fill="#002E5D"/><path d="M163.977 339.702h-11.522a.285.285 0 0 1-.17-.059.275.275 0 0 1-.098-.149c-.04-.138-3.904-13.855-5.369-22.641-.298-1.792-1.101-3.001-2.387-3.594-3.981-1.831-11.349 2.572-11.422 2.616a.279.279 0 0 1-.442-.19.296.296 0 0 1 .008-.115.301.301 0 0 1 .053-.102.291.291 0 0 1 .089-.071c.313-.19 7.7-4.599 11.947-2.647 1.467.674 2.376 2.024 2.705 4.01 1.363 8.169 4.809 20.634 5.298 22.378h11.006l-2.538-32.073a.281.281 0 0 1 .257-.313.28.28 0 0 1 .302.269l2.562 32.375a.283.283 0 0 1-.014.112.29.29 0 0 1-.059.096.278.278 0 0 1-.206.098Zm26.987-6.101a.28.28 0 0 1-.178-.063l-7.178-5.849a.285.285 0 0 1-.089-.187.284.284 0 0 1 .243-.297c.07-.01.142.007.2.049l6.996 5.701 3.731-3.229-5.42-6.817a.29.29 0 0 1-.069-.21.289.289 0 0 1 .105-.195.281.281 0 0 1 .403.055l5.587 7.032a.277.277 0 0 1 .06.2.288.288 0 0 1-.095.187l-4.112 3.556a.29.29 0 0 1-.184.067Zm4.991 9.842a.375.375 0 0 1-.067 0 .281.281 0 0 1-.189-.158l-4.162-9.196a.28.28 0 0 1 .355-.372.286.286 0 0 1 .157.141l4.003 8.861 18.348-14.602-2.141-1.771-8.206 3.627a.282.282 0 0 1-.095.023l-7.762.508a.27.27 0 0 1-.213-.063.263.263 0 0 1-.071-.088.261.261 0 0 1-.03-.109.272.272 0 0 1 .074-.21.277.277 0 0 1 .202-.09l7.714-.504 8.324-3.677c.048-.021.101-.028.152-.021a.287.287 0 0 1 .142.061l2.54 2.104a.28.28 0 0 1 .102.208.27.27 0 0 1-.106.208l-18.899 15.041a.289.289 0 0 1-.172.079Z" fill="#002E5D"/><path d="M156.692 347.376a.281.281 0 0 1-.273-.208l-1.973-7.675a.287.287 0 0 1 .021-.222.295.295 0 0 1 .074-.087.308.308 0 0 1 .103-.05.292.292 0 0 1 .22.035.284.284 0 0 1 .126.185l1.916 7.456 4.93-.208-.219-7.175a.282.282 0 0 1 .273-.29.29.29 0 0 1 .289.273l.227 7.452a.282.282 0 0 1-.271.287l-5.433.225-.01.002Zm21.928 10.808h-24.153a.296.296 0 0 1-.124-.028.294.294 0 0 1-.099-.08.282.282 0 0 1-.05-.241l2.473-9.781a.282.282 0 0 1 .123-.187.278.278 0 0 1 .325.013.288.288 0 0 1 .108.198.277.277 0 0 1-.013.114l-2.383 9.437h23.448l-.572-2.72-8.678-2.273a.267.267 0 0 1-.089-.041l-6.387-4.441a.282.282 0 0 1-.116-.18.286.286 0 0 1 .046-.209.27.27 0 0 1 .179-.116.286.286 0 0 1 .21.045l6.34 4.408 8.798 2.303a.289.289 0 0 1 .209.208l.678 3.228a.269.269 0 0 1-.056.233.286.286 0 0 1-.217.11Zm25.329-28.467-1.342 4.874-7.853 5.918 1.2 2.653 18.899-15.041-2.541-2.101-8.363 3.697Zm-93.389 2.837a.28.28 0 0 1-.086-.013l-44.991-14.377a.272.272 0 0 1-.096-.053.28.28 0 0 1 .266-.48l44.907 14.359 18.224-5.741a.283.283 0 0 1 .321.394.275.275 0 0 1-.152.14l-18.312 5.769a.314.314 0 0 1-.081.002Z" fill="#002E5D"/><path d="M104.461 358.184a.25.25 0 0 1-.067 0 .28.28 0 0 1-.208-.337l6.101-25.631a.283.283 0 0 1 .074-.134.286.286 0 0 1 .286-.068.287.287 0 0 1 .127.084l22.303 25.631a.279.279 0 0 1-.049.363.279.279 0 0 1-.367.005l-21.945-25.221-5.972 25.102a.288.288 0 0 1-.106.152.277.277 0 0 1-.177.054Zm50.653-2.848 13.982-2.976 8.846 2.316.678 3.227h-24.153l.647-2.567Z" fill="#002E5D"/><path d="M65.578 358.184a.269.269 0 0 1-.14-.037.281.281 0 0 1 0-.487l44.992-25.631a.301.301 0 0 1 .107-.043.279.279 0 0 1 .331.247.276.276 0 0 1-.069.214.272.272 0 0 1-.092.069l-44.99 25.631a.284.284 0 0 1-.139.037Zm42.815-104.945a.281.281 0 0 1-.058 0 .282.282 0 0 1-.208-.333 764.935 764.935 0 0 0 6.524-35.477.284.284 0 0 1 .213-.23.269.269 0 0 1 .212.035.287.287 0 0 1 .081.074.283.283 0 0 1 .049.21 742.149 742.149 0 0 1-6.54 35.505.273.273 0 0 1-.098.156.271.271 0 0 1-.175.06Zm177.245 64.94h-80.833a.28.28 0 0 1 0-.562h80.625c24.241-80.293 34.83-161.711 31.493-242h-69.932a.282.282 0 0 1-.281-.166.275.275 0 0 1 0-.226.268.268 0 0 1 .067-.094.282.282 0 0 1 .214-.073h70.2a.28.28 0 0 1 .281.269c1.677 39.97-.146 80.791-5.41 121.328-5.265 40.536-14.072 81.353-26.147 121.318a.282.282 0 0 1-.277.206ZM123.749 87.15a.278.278 0 0 1-.279-.274c-.098-3.83-.227-7.7-.387-11.526a.268.268 0 0 1 .017-.112.267.267 0 0 1 .155-.16.29.29 0 0 1 .113-.022h31.482a.282.282 0 0 1 .257.28.284.284 0 0 1-.257.28h-31.195c.154 3.727.281 7.508.374 11.237a.28.28 0 0 1-.272.287l-.008.01Z" fill="#002E5D"/><path d="m189.483 197.427-71.601 13.861c-.36-2.235-.7-4.471-1.019-6.707a718.686 718.686 0 0 0 7.027-89.688c17.177.154 34.357.307 51.54.458a305.307 305.307 0 0 0 14.053 82.076Z" fill="#C9DAF4"/><path d="m182.11 194.817-72.564 7.284a352.7 352.7 0 0 1 6.528-96.283l59.514 5.971a305.27 305.27 0 0 0 6.522 83.028Z" fill="#fff"/><path d="M173.046 114.313a330.57 330.57 0 0 0-.519 17.271 1296.928 1296.928 0 0 0-59.655 11.868 362.059 362.059 0 0 1 4.933-34.287l55.241 5.148Zm-60.333 30.87a1341.545 1341.545 0 0 1 59.825-12.084c0 1.249 0 1.885.029 3.142a1306.774 1306.774 0 0 0-60.139 12.532c.1-1.436.16-2.154.285-3.59Zm59.929-4.944c.094 3.063.225 6.123.393 9.181a1347.473 1347.473 0 0 0-61.45 14.433c.125-3.508.295-7.013.51-10.515a1366.439 1366.439 0 0 1 60.547-13.099Zm-61.196 41.009a1435.578 1435.578 0 0 1 62.844-16.698 318.634 318.634 0 0 0 4.37 27.851l-66.469 6.262a372.39 372.39 0 0 1-.745-17.415Z" fill="#F3F8FF"/><path d="M109.255 156.851h-.017a.284.284 0 0 1-.193-.095.276.276 0 0 1-.069-.202 360.269 360.269 0 0 1 6.819-50.788.28.28 0 0 1 .302-.22l59.514 5.968a.279.279 0 0 1 .252.295 320.837 320.837 0 0 0-.462 25.95.286.286 0 0 1-.078.2.287.287 0 0 1-.197.087.283.283 0 0 1-.21-.072.288.288 0 0 1-.066-.092.283.283 0 0 1-.023-.111 322.175 322.175 0 0 1 .447-25.724l-58.982-5.918a359.922 359.922 0 0 0-6.756 50.46.285.285 0 0 1-.089.187.284.284 0 0 1-.192.075Zm.285 45.536a.268.268 0 0 1-.179-.066.282.282 0 0 1-.1-.194 384.96 384.96 0 0 1-.855-19.388.282.282 0 0 1 .48-.198.282.282 0 0 1 .082.198c.116 6.333.397 12.746.832 19.07l57.563-5.793a.282.282 0 0 1 .205.062.289.289 0 0 1 .091.298.28.28 0 0 1-.24.197l-57.85 5.812-.029.002Z" fill="#002E5D"/><path d="M148.607 130.49h-.014l-26.636-1.336a.277.277 0 0 1-.249-.186.278.278 0 0 1-.015-.107.265.265 0 0 1 .183-.253.276.276 0 0 1 .11-.014l26.636 1.336a.281.281 0 0 1-.015.562v-.002Zm17.114 15.449-45.329-.689a.284.284 0 0 1-.277-.285.292.292 0 0 1 .285-.277l45.329.691a.281.281 0 0 1 0 .56h-.008Zm-46.128 15.459a.28.28 0 0 1 0-.562l46.885-.887a.287.287 0 0 1 .287.277.28.28 0 0 1-.08.199.28.28 0 0 1-.196.086l-46.886.887h-.01Zm-.029 16.168a.282.282 0 0 1-.186-.084.283.283 0 0 1-.01-.381.277.277 0 0 1 .181-.094l48.367-2.533a.288.288 0 0 1 .109.015.297.297 0 0 1 .094.056.288.288 0 0 1 .091.195.28.28 0 0 1-.265.296l-48.367 2.53h-.014Z" fill="#002E5D"/><path d="m148.684 106.26-6.548 11.457-2.314-13.792 8.862 2.335Z" fill="#454E54"/><path d="M150.753 106.166c.588-2.282-1.975-4.915-5.725-5.882-3.75-.966-7.267.1-7.855 2.382-.589 2.282 1.975 4.915 5.725 5.882 3.75.966 7.267-.1 7.855-2.382Z" fill="#454E54"/><path d="m194.804 281.44 71.602 13.861a352.853 352.853 0 0 0 2.256-96.478l-59.806.531a305.169 305.169 0 0 1-14.052 82.086Z" fill="#C9DAF4"/><path d="m202.177 278.831 72.565 7.283a352.847 352.847 0 0 0-6.527-96.282L208.7 195.8a305.214 305.214 0 0 1-6.523 83.031Z" fill="#fff"/><path d="M211.243 198.326c.322 5.753.495 11.51.518 17.271a1289.66 1289.66 0 0 1 59.658 11.872 361.784 361.784 0 0 0-4.934-34.287l-55.242 5.144Zm60.326 30.87a1348.511 1348.511 0 0 0-59.814-12.084c0 1.249-.013 1.886-.029 3.143a1305.396 1305.396 0 0 1 60.138 12.531c-.11-1.436-.168-2.154-.295-3.59Zm-59.926-4.944a364.901 364.901 0 0 1-.394 9.181 1350.352 1350.352 0 0 1 61.45 14.431 405.22 405.22 0 0 0-.512-10.513 1378.44 1378.44 0 0 0-60.544-13.099Zm61.195 41.009a1438.498 1438.498 0 0 0-62.844-16.698 320.03 320.03 0 0 1-4.369 27.852l66.475 6.261c.378-5.802.625-11.607.738-17.415Z" fill="#F3F8FF"/><path d="M275.028 240.864a.278.278 0 0 1-.279-.262 360.402 360.402 0 0 0-6.757-50.461L209 196.06c.491 8.531.643 17.182.447 25.724a.268.268 0 0 1-.084.198.282.282 0 0 1-.398-.01.308.308 0 0 1-.059-.092.311.311 0 0 1-.019-.108c.196-8.618.04-17.347-.461-25.95a.279.279 0 0 1 .251-.295l59.515-5.968a.279.279 0 0 1 .303.22 360.57 360.57 0 0 1 6.82 50.787.286.286 0 0 1-.263.298h-.024Zm-.286 45.537h-.031l-57.85-5.812a.27.27 0 0 1-.111-.027.279.279 0 0 1-.125-.391.283.283 0 0 1 .293-.14l57.56 5.783c.437-6.324.716-12.737.832-19.069a.298.298 0 0 1 .014-.115.297.297 0 0 1 .059-.1.31.31 0 0 1 .094-.067.294.294 0 0 1 .113-.024.29.29 0 0 1 .207.091.268.268 0 0 1 .059.1.265.265 0 0 1 .014.115 378.938 378.938 0 0 1-.855 19.385.275.275 0 0 1-.028.109.28.28 0 0 1-.07.087.278.278 0 0 1-.175.075Z" fill="#002E5D"/><path d="M235.677 214.503a.283.283 0 0 1-.201-.077.283.283 0 0 1-.01-.398.28.28 0 0 1 .197-.087l26.635-1.336a.282.282 0 0 1 .209.462.286.286 0 0 1-.181.098l-26.636 1.336-.013.002Zm-17.116 15.449a.28.28 0 0 1-.182-.47.277.277 0 0 1 .182-.09l45.329-.691a.282.282 0 0 1 0 .562l-45.329.689Zm46.131 15.459-46.886-.887a.282.282 0 0 1-.197-.086.28.28 0 0 1-.077-.201.284.284 0 0 1 .177-.256.264.264 0 0 1 .108-.018l46.885.886c.074 0 .146.03.199.082a.284.284 0 0 1 0 .398.286.286 0 0 1-.199.082h-.01Zm.031 16.169h-.017l-48.367-2.533a.282.282 0 0 1-.185-.496.27.27 0 0 1 .1-.054.293.293 0 0 1 .114-.01l48.367 2.533a.283.283 0 0 1 .251.286.284.284 0 0 1-.265.274h.002Z" fill="#002E5D"/><path d="m235.598 190.272 6.551 11.458 2.314-13.792-8.865 2.334Z" fill="#454E54"/><path d="M240.969 194.697c3.75-.967 6.313-3.6 5.725-5.882-.588-2.282-4.105-3.348-7.855-2.382-3.75.967-6.314 3.6-5.726 5.882.589 2.282 4.105 3.348 7.856 2.382Z" fill="#454E54"/><path d="m264.356 98.26-69.555 11.64 2.745 16.407 69.556-11.639-2.746-16.407Zm15.368 39.08h-70.522v16.635h70.522V137.34Zm-84.167 82.093-63.463 3.893 1.018 16.603 63.464-3.892-1.019-16.604Z" fill="#F3F8FF"/><path d="m198.533 127.495-1.958-2.382-1.542 2.705a4.438 4.438 0 0 1-.583.818 1.011 1.011 0 0 1-.655.289 1.13 1.13 0 0 1-.8-.208.864.864 0 0 1-.376-.624c-.022-.251.108-.625.391-1.12l1.873-3.284-2.146-2.403c-.37-.393-.57-.749-.597-1.063a.842.842 0 0 1 .24-.664 1.11 1.11 0 0 1 .759-.35c.252-.031.506.03.716.173.261.201.499.431.709.685l1.736 1.972 1.311-2.249c.161-.292.356-.564.581-.81.18-.172.416-.274.665-.289.284-.035.57.034.806.196a.821.821 0 0 1 .368.613c.017.181-.011.364-.081.531a3.783 3.783 0 0 1-.335.624l-1.69 2.749 2.435 2.895c.383.454.583.801.605 1.04a.838.838 0 0 1-.256.677c-.2.201-.467.322-.751.341a1.061 1.061 0 0 1-.716-.175 3.976 3.976 0 0 1-.709-.687Zm9.314-.842-1.958-2.385-1.544 2.705a4.381 4.381 0 0 1-.581.818 1.011 1.011 0 0 1-.655.289 1.122 1.122 0 0 1-.799-.208.856.856 0 0 1-.377-.624c-.022-.25.108-.623.391-1.118l1.873-3.286-2.145-2.401c-.371-.395-.57-.75-.598-1.063a.842.842 0 0 1 .238-.664c.198-.206.467-.328.753-.341.252-.032.506.029.716.172.26.201.498.431.707.685l1.738 1.973 1.309-2.25c.161-.292.356-.564.582-.809.18-.174.417-.276.666-.29.284-.036.57.034.806.196a.844.844 0 0 1 .368.624c.016.181-.012.363-.081.531a3.94 3.94 0 0 1-.335.624l-1.678 2.749 2.439 2.872c.381.451.583.801.606 1.04a.849.849 0 0 1-.051.367.854.854 0 0 1-.205.308 1.147 1.147 0 0 1-.751.341 1.055 1.055 0 0 1-.716-.173 4 4 0 0 1-.718-.682Zm9.314-.845-1.964-2.383-1.542 2.705a4.428 4.428 0 0 1-.581.818 1.016 1.016 0 0 1-.655.289 1.132 1.132 0 0 1-.799-.208.856.856 0 0 1-.377-.624c-.022-.25.108-.622.391-1.118l1.873-3.285-2.145-2.402c-.371-.395-.57-.75-.598-1.063a.842.842 0 0 1 .238-.666c.198-.205.468-.326.753-.339.252-.034.507.028.716.173.26.2.498.429.707.682l1.738 1.973 1.309-2.248c.161-.292.356-.564.582-.809.18-.173.417-.276.666-.289.284-.036.57.033.806.195a.835.835 0 0 1 .368.614 1.16 1.16 0 0 1-.081.531 4.028 4.028 0 0 1-.335.624l-1.678 2.749 2.443 2.892c.382.451.584.798.606 1.041a.831.831 0 0 1-.256.674 1.142 1.142 0 0 1-.751.341 1.049 1.049 0 0 1-.716-.172 3.971 3.971 0 0 1-.718-.695Zm9.312-.843-1.958-2.383-1.542 2.706a4.634 4.634 0 0 1-.58.817c-.177.172-.41.274-.656.287a1.128 1.128 0 0 1-.799-.208.86.86 0 0 1-.377-.624c-.023-.25.106-.624.392-1.117l1.872-3.286-2.143-2.402c-.37-.395-.57-.749-.599-1.065a.856.856 0 0 1 .239-.664c.198-.206.468-.328.753-.341.252-.031.507.031.716.175.261.2.498.429.708.682l1.737 1.973 1.309-2.247c.161-.293.356-.565.583-.81.179-.173.415-.275.664-.289.283-.037.57.033.805.196a.808.808 0 0 1 .368.611c.016.182-.011.364-.079.533a3.94 3.94 0 0 1-.335.624l-1.677 2.741 2.433 2.894c.38.454.582.802.605 1.041a.831.831 0 0 1-.256.674c-.2.203-.469.324-.753.341a1.049 1.049 0 0 1-.714-.172 4.121 4.121 0 0 1-.716-.687Z" fill="#454E54"/><path d="m222.584 154.468-1.429-2.732-2.063 2.329a4.488 4.488 0 0 1-.736.682 1.003 1.003 0 0 1-.7.148 1.117 1.117 0 0 1-.738-.373.859.859 0 0 1-.244-.684c.029-.25.233-.588.612-1.016l2.508-2.832-1.609-2.79c-.277-.462-.4-.85-.368-1.164a.833.833 0 0 1 .37-.601 1.11 1.11 0 0 1 .805-.179c.254.019.491.132.666.316.215.25.401.523.554.814l1.296 2.289 1.742-1.933a4.1 4.1 0 0 1 .737-.674 1.04 1.04 0 0 1 .709-.148c.284.024.55.15.747.356a.818.818 0 0 1 .235.676c-.021.18-.084.353-.185.504a3.999 3.999 0 0 1-.456.543l-2.203 2.343 1.791 3.329c.278.521.405.903.381 1.147a.834.834 0 0 1-.389.608 1.157 1.157 0 0 1-.805.181 1.045 1.045 0 0 1-.666-.317 4.082 4.082 0 0 1-.562-.822Zm9.289 1.078-1.429-2.734-2.06 2.328c-.22.254-.467.483-.737.683a1.012 1.012 0 0 1-.701.148 1.128 1.128 0 0 1-.739-.373.844.844 0 0 1-.241-.684c.029-.25.233-.587.611-1.016l2.497-2.832-1.6-2.789c-.281-.462-.403-.851-.368-1.163a.836.836 0 0 1 .37-.601c.235-.162.524-.227.806-.181.253.02.49.133.666.316.214.25.4.523.553.814l1.299 2.289 1.741-1.933c.217-.254.464-.48.735-.675a1.04 1.04 0 0 1 .709-.147c.286.023.552.15.75.358a.824.824 0 0 1 .195.31c.04.116.054.241.04.364-.021.18-.085.353-.188.503a4.003 4.003 0 0 1-.455.543l-2.204 2.348 1.794 3.329c.277.52.403.903.379 1.147a.835.835 0 0 1-.39.607 1.144 1.144 0 0 1-.805.181 1.05 1.05 0 0 1-.666-.316 4.21 4.21 0 0 1-.562-.824Zm18.581 2.16-1.43-2.734-2.062 2.318a4.333 4.333 0 0 1-.737.682 1 1 0 0 1-.699.15 1.127 1.127 0 0 1-.738-.372.854.854 0 0 1-.244-.687c.029-.25.233-.588.612-1.014l2.497-2.834-1.609-2.788c-.277-.462-.4-.85-.368-1.163a.831.831 0 0 1 .37-.602c.236-.161.524-.226.806-.181.253.021.49.133.666.316.214.25.4.523.553.814l1.297 2.289 1.741-1.933c.218-.253.465-.479.737-.672.211-.133.463-.185.71-.148.284.022.55.149.747.356a.804.804 0 0 1 .195.311.809.809 0 0 1 .04.365c-.021.18-.085.352-.185.502a4.085 4.085 0 0 1-.456.543l-2.204 2.349 1.794 3.33c.279.522.416.903.379 1.146a.842.842 0 0 1-.389.61c-.238.156-.524.22-.806.179a1.069 1.069 0 0 1-.666-.314 4.103 4.103 0 0 1-.551-.818Z" fill="#3B82F4"/><path d="m145.844 241.503-2.056-2.299-1.423 2.763a4.497 4.497 0 0 1-.548.843c-.168.18-.397.293-.643.316a1.125 1.125 0 0 1-.805-.181.853.853 0 0 1-.404-.606c-.033-.247.081-.624.344-1.132l1.735-3.362-2.247-2.312c-.387-.379-.602-.726-.643-1.041a.845.845 0 0 1 .208-.674c.189-.214.452-.347.736-.372.251-.042.507.009.722.143.27.189.517.408.737.654l1.819 1.897 1.213-2.301c.148-.298.332-.578.547-.832.173-.181.405-.293.654-.317.281-.047.569.01.811.16a.841.841 0 0 1 .394.6 1.12 1.12 0 0 1-.057.532 3.874 3.874 0 0 1-.308.639l-1.56 2.82 2.555 2.79c.4.435.616.774.649 1.018a.82.82 0 0 1-.229.685c-.19.212-.453.345-.736.372a1.039 1.039 0 0 1-.722-.141 4.105 4.105 0 0 1-.743-.662Zm9.27-1.236-2.058-2.289-1.425 2.757a4.51 4.51 0 0 1-.547.832 1.015 1.015 0 0 1-.644.317 1.125 1.125 0 0 1-.805-.181.858.858 0 0 1-.404-.604c-.033-.25.082-.628.344-1.134l1.737-3.354-2.243-2.31c-.387-.379-.601-.726-.643-1.041a.84.84 0 0 1 .208-.672c.19-.214.454-.348.739-.372.25-.043.507.008.722.141.269.19.516.409.737.654l1.818 1.897 1.214-2.289c.147-.298.331-.578.547-.832.172-.18.403-.292.651-.316.282-.049.572.009.814.162a.821.821 0 0 1 .393.597c.025.18.006.363-.056.533a4.084 4.084 0 0 1-.308.639l-1.563 2.815 2.558 2.791c.399.435.615.775.647 1.017a.82.82 0 0 1-.036.368.825.825 0 0 1-.191.317c-.19.212-.453.345-.737.372a1.04 1.04 0 0 1-.722-.141 4.124 4.124 0 0 1-.747-.674Zm18.541-2.47-2.058-2.289-1.427 2.763a4.505 4.505 0 0 1-.546.832c-.168.18-.397.292-.643.315a1.123 1.123 0 0 1-.807-.179.861.861 0 0 1-.404-.606c-.033-.25.081-.624.346-1.134l1.735-3.361-2.245-2.31c-.384-.378-.598-.725-.641-1.04a.827.827 0 0 1 .208-.674c.188-.215.452-.348.737-.373.25-.043.507.008.722.144.269.189.516.407.736.651l1.819 1.898 1.215-2.301a4.08 4.08 0 0 1 .548-.833c.172-.181.403-.294.651-.318.282-.048.572.01.814.162a.832.832 0 0 1 .393.597c.023.181.003.364-.058.535a3.855 3.855 0 0 1-.308.637l-1.561 2.817 2.555 2.789c.4.437.616.777.65 1.02a.832.832 0 0 1-.219.699c-.192.21-.454.342-.736.372a1.064 1.064 0 0 1-.723-.143 4.033 4.033 0 0 1-.753-.67Z" fill="#F70431"/><path d="m230.453 57.876-68.755 4.217 1.731 28.227 68.756-4.218-1.732-28.227Z" fill="#3B82F4"/><path d="M184.166 65.559a.596.596 0 0 1-.416-.167 17.272 17.272 0 1 1 25.225-1.548.611.611 0 0 1-.658.223.602.602 0 0 1-.435-.54.606.606 0 0 1 .161-.453 16.06 16.06 0 0 0 1.899-17.498 16.05 16.05 0 0 0-15.286-8.727 16.055 16.055 0 0 0-10.074 27.667.602.602 0 0 1-.416 1.04v.003Z" fill="#002E5D"/><path d="M219.9 81.166a.606.606 0 0 1-.504-.27l-11.391-17.102a.607.607 0 0 1 1.007-.67l11.387 17.101a.603.603 0 0 1-.169.832.596.596 0 0 1-.33.109Zm-44.948 2.759a.606.606 0 0 1-.539-.876l9.212-18.36a.603.603 0 0 1 .806-.256.608.608 0 0 1 .276.799l-9.212 18.364a.603.603 0 0 1-.543.329Zm57.918 274.259H33.324a.263.263 0 0 1-.115-.014.28.28 0 0 1-.1-.473.275.275 0 0 1 .1-.058.263.263 0 0 1 .115-.014h199.561a.262.262 0 0 1 .114.014.28.28 0 0 1 0 .531.262.262 0 0 1-.114.014h-.015ZM362.526 368H208.705a.282.282 0 0 1 0-.562h153.821a.28.28 0 0 1 .281.281.282.282 0 0 1-.281.281Z" fill="#002E5D"/><path d="M357.469 250.738c-.705-3.421-7.087-34.313-7.087-34.313l-8.823-4.426 5.289-25.002a12.193 12.193 0 0 0-1.797-9.303 12.198 12.198 0 0 0-7.912-5.214l-15.607-2.913-.162 8.948.986.208.491 13.185 4.497 1.575-.3 6.008 1.363 9.462-22.301-10.369-14.238-24.468v-7.728l-2.649-4.15-2.23 3.288-5.989-5.648-3.361 3.792 8.561 11.183 11.547 29.674 20.393 15.607-.472 35.069 6.192 101.576-1.088 4.162-5.531 3.482v3.15l13.11-.046-1.238-8.825-.073-1.956 6.819-56.422.67 18.597 1.359 37.992h.431l-.983 3.816-5.489 3.627-.11 3.134 13.128.023-1.234-8.875.339-1.725 4.406-85.245 2.255-1.392 1.619-3.388 1.386-1.265 4.279-11.09s.262-.378-.446-3.795Zm-10.046 11.484-3.559-10.496v-18.385l7.115 19.095-3.556 9.786Z" fill="#fff"/><path d="M330.178 366.081h-3.479l-.237-5.348-5.296 6.845 9.326.095-.314-1.592Zm14.5 0h-3.479l-.238-5.348-5.295 6.845 9.326.095-.314-1.592Z" fill="#002E5D"/><path d="m335.857 300.037 2.027 56.88h3.673l-2.91-78.416-2.79 21.536Z" fill="#325D9C"/><path d="m322.366 178.721 5.199 1.19-.269 13.57-4.438-1.623-.492-13.137Z" fill="#FDC8AA"/><path d="m343.846 225.582 1.86-5.201 9.493 31.1-2.957 12.402-2.511-2.72-1.195-2.049 2.441-6.703-7.131-19.771v-7.058Z" fill="#F70431"/><path d="m321.382 169.536 11.347 1.979a12.014 12.014 0 0 1 9.806 13.701l-6.678 42.409h-4.753l-3.954-27.616 7.406.036-1.288-22.431-11.888-2.497.002-5.581Z" fill="#325D9C"/><path d="m286.801 165.341-5.928-5.315-3.23 3.692 2.622 3.517 5.939 7.62 2.682 6.892 3.109-1.977-5.194-14.429Z" fill="#FDC8AA"/><path d="m317.664 255.235 6.197 101.682h3.435l9.543-104.242-19.175 2.56Z" fill="#325D9C"/><path d="m336.839 252.673-1.816-20.462h-6.01l-3.363-21.177-22.776-11.162-10.868-20.071-.011-.031-3.109 1.977 8.824 22.676 20.428 15.769-.477 34.984.003.059 19.175-2.56v-.002Z" fill="#F70431"/><path d="M338.267 227.912h-7.163a.286.286 0 0 1-.279-.239l-4.045-28.14a.286.286 0 0 1 .001-.113.29.29 0 0 1 .235-.218.29.29 0 0 1 .214.057.278.278 0 0 1 .106.195l4.018 27.901h6.684l8.532-40.516a11.932 11.932 0 0 0-5.153-12.448 11.928 11.928 0 0 0-4.405-1.75l-15.345-2.768v8.407l5.839 1.288a.272.272 0 0 1 .208.275l-.095 16.073a.28.28 0 0 1-.386.258.276.276 0 0 1-.151-.153.28.28 0 0 1-.021-.107l.094-15.848-5.827-1.286a.282.282 0 0 1-.221-.275v-8.969a.277.277 0 0 1 .208-.264.26.26 0 0 1 .121-.004l15.676 2.824a12.478 12.478 0 0 1 10.007 14.866l-8.571 40.738a.28.28 0 0 1-.281.216Z" fill="#002E5D"/><path d="M327.359 193.762a.274.274 0 0 1-.094-.017l-4.497-1.573a.28.28 0 0 1-.189-.256l-.493-13.193a.279.279 0 0 1 .075-.201.285.285 0 0 1 .304-.073.284.284 0 0 1 .158.146c.015.034.023.07.024.107l.485 12.994 4.318 1.513a.276.276 0 0 1 .147.122.282.282 0 0 1-.238.423v.008Zm-5.286 12.902a.281.281 0 0 1-.123-.029l-15.956-7.799a.29.29 0 0 1-.119-.111l-14.237-24.469a.278.278 0 0 1-.038-.14v-7.645l-2.374-3.723-2.05 3.011a.278.278 0 0 1-.208.121.256.256 0 0 1-.12-.013.263.263 0 0 1-.103-.064l-5.728-5.521-3.016 3.401 7.159 9.403a.283.283 0 0 1-.262.45.284.284 0 0 1-.186-.108l-7.295-9.589a.276.276 0 0 1-.057-.181.276.276 0 0 1 .071-.175l3.363-3.792a.279.279 0 0 1 .404-.016l5.699 5.493 2.102-3.088a.269.269 0 0 1 .237-.123.29.29 0 0 1 .132.037.29.29 0 0 1 .099.095l2.649 4.149a.276.276 0 0 1 .044.15v7.651l14.15 24.33 15.878 7.762a.285.285 0 0 1 .149.315.278.278 0 0 1-.272.218h.008Z" fill="#002E5D"/><path d="M329.156 357.198h-5.296a.278.278 0 0 1-.278-.264l-6.202-101.716v-.021l.546-34.87-20.35-15.582a.264.264 0 0 1-.091-.12l-10.946-28.334a.277.277 0 0 1 .003-.215.276.276 0 0 1 .154-.15.277.277 0 0 1 .215.003.276.276 0 0 1 .15.154l10.919 28.259 20.393 15.621a.283.283 0 0 1 .11.227l-.547 34.999 6.189 101.453h4.786l9.462-79.907a.282.282 0 0 1 .5-.142.273.273 0 0 1 .057.207l-9.491 80.15a.28.28 0 0 1-.283.248Z" fill="#002E5D"/><path d="M343.966 357.198h-6.082a.284.284 0 0 1-.194-.079.284.284 0 0 1-.085-.192l-2.029-56.588a.285.285 0 0 1 .076-.202.282.282 0 0 1 .486.183l2.016 56.316h5.546l4.534-87.873a14.764 14.764 0 0 0-.765-5.529l-3.879-11.47a.274.274 0 0 1-.015-.09v-26.427a.28.28 0 0 1 .56 0v26.379l3.875 11.429c.625 1.844.895 3.79.795 5.735l-4.551 88.141a.294.294 0 0 1-.025.106.288.288 0 0 1-.156.144.296.296 0 0 1-.107.017Zm-26.305-101.716a.28.28 0 0 1-.037-.559l20.986-2.766a.292.292 0 0 1 .114 0 .29.29 0 0 1 .105.046.294.294 0 0 1 .115.192.275.275 0 0 1-.061.215.279.279 0 0 1-.198.103l-20.988 2.767-.036.002Z" fill="#002E5D"/><path d="M353.624 265.914a.282.282 0 0 1-.208-.096l-3.794-4.37a.266.266 0 0 1-.074-.095.28.28 0 0 1 .406-.357.29.29 0 0 1 .085.086l3.483 4.01 3.764-9.911a5.06 5.06 0 0 0 .227-2.824l-7.385-35.738-8.704-4.37a.28.28 0 0 1 .043-.509.277.277 0 0 1 .208.008l8.832 4.432a.28.28 0 0 1 .15.196l7.412 35.868a5.618 5.618 0 0 1-.252 3.138l-3.931 10.349a.267.267 0 0 1-.08.116.282.282 0 0 1-.128.061l-.054.006Z" fill="#002E5D"/><path d="M348.536 259.392a.276.276 0 0 1-.282-.268.282.282 0 0 1 .018-.108l2.407-6.582-7.089-19.484a.283.283 0 0 1 .02-.204.283.283 0 0 1 .359-.13.278.278 0 0 1 .147.143l7.131 19.579a.281.281 0 0 1 0 .194l-2.455 6.677a.271.271 0 0 1-.1.131.273.273 0 0 1-.156.052Zm-.177 12.688a.282.282 0 0 1-.156-.514l2.198-1.482 1.587-3.317a.29.29 0 0 1 .159-.159.272.272 0 0 1 .113-.019.27.27 0 0 1 .111.027c.035.016.066.04.091.069a.268.268 0 0 1 .056.1.285.285 0 0 1-.024.224l-1.621 3.385a.27.27 0 0 1-.096.113l-2.262 1.525a.271.271 0 0 1-.156.048Zm-59.421-90.075a.277.277 0 0 1-.237-.131.282.282 0 0 1 .088-.387l3.402-2.139a.267.267 0 0 1 .211-.037.276.276 0 0 1 .174.124.28.28 0 0 1-.088.387l-3.406 2.135a.284.284 0 0 1-.144.048Zm41.458 185.853H317.23a.279.279 0 0 1-.278-.281v-3.148c0-.047.012-.094.034-.136a.284.284 0 0 1 .097-.101l5.446-3.428.684-2.145a.28.28 0 0 1 .533.171l-.714 2.243a.292.292 0 0 1-.118.152l-5.411 3.398v2.705h12.561l-1.249-8.55a.285.285 0 0 1 .237-.319.282.282 0 0 1 .319.237l1.288 8.873a.283.283 0 0 1-.161.295.273.273 0 0 1-.116.026l.014.008Zm14.501.001h-13.169a.279.279 0 0 1-.198-.083.278.278 0 0 1-.082-.198v-3.149a.277.277 0 0 1 .131-.237l5.445-3.427.685-2.146a.28.28 0 0 1 .535.171l-.716 2.243a.286.286 0 0 1-.119.152l-5.41 3.398v2.705h12.56l-1.248-8.55a.276.276 0 0 1 .053-.208c.044-.06.11-.1.184-.11a.272.272 0 0 1 .316.237l1.288 8.873a.276.276 0 0 1-.16.294.276.276 0 0 1-.116.026l.021.009Z" fill="#002E5D"/><path d="m55.222 208.144-4.924 8.098-5.285-8.098 5.285-8.102 4.924 8.102ZM347.3 91.42l-4.922 8.101-5.287-8.1 5.287-8.102 4.922 8.101Z" fill="#C9DAF4"/></svg>