<svg width="418" height="400" fill="none" xmlns="http://www.w3.org/2000/svg"><g clip-path="url(#a)"><path d="m452.149 82.619-474.1-37.536L-44 323.183l474.101 37.537 22.048-278.102Z" fill="#F3F8FF"/><path d="m76.42 167.104-17.272 8.904 8.808 17.062 17.272-8.905-8.809-17.061Zm-4.075-7.867-17.272 8.903-41.976-68.981 27.335-14.09 31.913 74.168Zm20.942 87.779L78.709 259.86l12.705 14.401 14.578-12.844-12.705-14.401Zm-5.874-6.634-14.579 12.842-57.539-56.673 23.073-20.323 49.045 64.154Z" fill="#BBD1DC"/><path d="M320.211 373.861H120.186c34.334-78.102 44.462-161.05 29.191-239.152h200.034c15.268 78.102 5.14 161.05-29.2 239.152Z" fill="#F4B18F"/><path d="M287.49 385.8H87.462c44.677-78.102 65.783-161.049 60.851-239.152h200.031c4.931 78.103-16.173 161.05-60.854 239.152Z" fill="#BBD1DC"/><path d="M164.242 330.556a591.237 591.237 0 0 1-11.409 24.953h-5.853a595.318 595.318 0 0 0 11.409-24.953h5.853Zm9.469 24.953h-5.468a405.158 405.158 0 0 0 4.933-10.334c.581-1.255.924-2.113 1.038-2.577.113-.463.053-.856-.18-1.18-.232-.324-.636-.485-1.216-.485-1.92 0-3.514 1.417-4.819 4.242a406.937 406.937 0 0 1-4.933 10.334h-5.468c2.999-6.115 5.883-12.261 8.597-18.44h5.081c-.553 1.254-.831 1.88-1.393 3.132 1.512-1.488 2.771-2.446 3.776-2.875a7.512 7.512 0 0 1 2.942-.641c1.762 0 2.972.473 3.629 1.42.656.946.369 2.805-.9 5.572a432.335 432.335 0 0 1-5.619 11.832Zm27.437-18.44a929.086 929.086 0 0 1-14.946 18.44h-4.256c.904-6.165 1.621-12.313 2.228-18.44h5.676a354.381 354.381 0 0 1-1.773 11.702 1077.48 1077.48 0 0 0 9.002-11.702h4.069Zm9.756-.385c2.823 0 4.621.924 5.38 2.768.758 1.843.505 4.147-.784 6.91-1.271 2.727-3.18 4.997-5.705 6.809-2.524 1.812-5.157 2.72-7.881 2.72-2.639 0-4.304-.897-5.015-2.692-.711-1.794-.395-4.104.922-6.929.913-1.958 2.027-3.626 3.367-4.997a17.31 17.31 0 0 1 4.429-3.323 11.288 11.288 0 0 1 5.287-1.266Zm-1.441 3.573c-1.036 0-1.997.399-2.883 1.197-.886.8-1.867 2.388-2.973 4.762-1.016 2.18-1.511 3.741-1.465 4.688.046.946.598 1.42 1.659 1.42.927 0 1.873-.405 2.838-1.215.959-.81 1.985-2.349 3.047-4.624 1.13-2.423 1.622-4.069 1.509-4.935-.112-.865-.696-1.293-1.732-1.293Zm22.198-10.21a397.91 397.91 0 0 1-2.347 5.469h-5.467c.954-2.186 1.423-3.28 2.348-5.469h5.466Zm-3.03 7.022c-2.713 6.179-5.599 12.325-8.596 18.44h-5.466c2.997-6.115 5.881-12.261 8.595-18.44h5.467Zm15.518 11.538a14.604 14.604 0 0 1-5.127 5.275c-2.176 1.341-4.47 2.011-6.882 2.009-2.618 0-4.325-.857-5.136-2.574-.811-1.716-.528-4.015.811-6.899 1.339-2.885 3.243-5.231 5.734-7.031 2.491-1.8 5.127-2.701 7.94-2.701 2.264 0 3.838.678 4.723 2.034.882 1.35.946 3.052.167 5.086l-5.234.293c.849-2.218.379-3.329-1.384-3.329-2.162 0-4.032 1.772-5.675 5.302-1.094 2.35-1.503 3.838-1.201 4.469.303.63.888.945 1.757.945 1.688 0 3.213-1.062 4.546-3.19l4.961.311Zm20.232-1.387h-11.924c-.168.329-.307.615-.422.857-.619 1.314-.738 2.304-.358 2.971.38.667 1.061 1.001 2.042 1.002 1.821 0 3.378-.964 4.669-2.898l4.78.365c-2.896 3.757-7.207 6.396-11.505 6.373-1.835-.01-3.234-.366-4.165-1.1-.931-.733-1.473-1.804-1.634-3.214-.16-1.41.226-3.098 1.145-5.07 1.369-2.933 3.284-5.304 5.773-7.111 2.489-1.807 5.046-2.712 7.688-2.712 2.384 0 4.064.841 5.021 2.519.957 1.677.603 4.356-1.11 8.018Zm-10.476-3.159h6.586c.994-2.535.513-3.805-1.407-3.805-2.06 0-3.773 1.27-5.183 3.805h.004Z" fill="#fff"/><path d="M291.665 207.289H172.921c.354-3.541.51-5.309.779-8.838h118.745c-.269 3.53-.426 5.298-.78 8.838Z" fill="#325D9C"/><path d="M211.812 229.697h-41.805c.568-3.558.831-5.337 1.315-8.89h41.806a319.212 319.212 0 0 1-1.316 8.89Z" fill="#fff"/><path d="M236.407 252.2h-70.651a345.328 345.328 0 0 0 1.843-8.921h70.654a325.503 325.503 0 0 1-1.846 8.921Z" fill="#325D9C"/><path d="M213.922 274.739h-53.734c.988-3.57 1.461-5.357 2.365-8.929h53.741a383.647 383.647 0 0 1-2.372 8.929Z" fill="#fff"/><path d="M279.722 274.74h-53.741a368.92 368.92 0 0 0 2.365-8.928h53.739a350.377 350.377 0 0 1-2.363 8.928Z" fill="#325D9C"/><path d="M260.781 297.256H153.296a372.096 372.096 0 0 0 2.882-8.913h107.483a354.848 354.848 0 0 1-2.88 8.913Z" fill="#fff"/><path d="M395.743 22.89 144.589 10l-7.536 146.632 251.154 12.89 7.536-146.632Z" fill="#BBD1DC"/><path d="M380.198 30.965H128.714V177.79h251.484V30.965Z" fill="#F70431"/><path d="M195.8 112.177v22.532h-14.452V74.048h23.92c5.336 0 9.42.57 12.252 1.71 2.832 1.142 5.359 3.179 7.581 6.112 2.225 2.933 3.337 6.534 3.336 10.804a22.569 22.569 0 0 1-1.779 8.755c-1.186 2.844-2.861 5.08-5.024 6.709-2.164 1.629-4.261 2.709-6.293 3.241-2.031.534-5.211.8-9.539.8l-10.002-.002Zm-.489-11.021h9.25c3.527 0 6.005-.815 7.433-2.444 1.428-1.63 2.14-3.496 2.135-5.6 0-2.457-.793-4.413-2.38-5.866-1.586-1.453-3.998-2.178-7.235-2.176h-9.203v16.086Zm67.178-27.108 19.001 60.661h-15.279l-3.739-12.488h-19.625l-3.806 12.488h-12.468l19.46-60.661h16.456Zm-16.231 36.973h12.861l-6.375-21.286-6.486 21.286Zm81.307-36.973-19.078 35.112v25.549h-14.189v-25.554L275.22 74.043h16.5l11.574 22.968 11.519-22.968 12.752.005Z" fill="#fff"/><path d="m364.469 126.884-7.592 37.977-14.656-32.142-14.656-32.142 35.183 3.387 35.184 3.387-33.463 19.533Z" fill="#325D9C"/><path d="M287.49 386.197a.405.405 0 0 1-.383-.292.427.427 0 0 1-.011-.155.402.402 0 0 1 .05-.146c27.974-48.903 46.683-99.453 55.607-150.246a.4.4 0 0 1 .303-.334.405.405 0 0 1 .307.053.398.398 0 0 1 .173.416c-4.425 25.182-11.374 50.682-20.655 75.789-9.325 25.221-21.113 50.358-35.046 74.714a.403.403 0 0 1-.345.201Zm39.606-220.939h-185.06a.401.401 0 0 1-.282-.116.4.4 0 0 1-.116-.281V21.543a.395.395 0 0 1 .398-.397.395.395 0 0 1 .397.397v142.921h184.663a.4.4 0 0 1 .281.116.4.4 0 0 1 0 .562.4.4 0 0 1-.281.116Z" fill="#002E5D"/><path d="M118.497 212.087c26.1 0 47.258-21.144 47.258-47.226s-21.158-47.226-47.258-47.226-47.259 21.144-47.259 47.226 21.159 47.226 47.259 47.226Z" fill="#3B82F4"/><path d="M150.008 161.964h-26.543a5.773 5.773 0 0 0-2.069-2.067v-26.875a2.9 2.9 0 0 0-5.799 0v26.875a5.742 5.742 0 0 0-2.812 4.229 5.748 5.748 0 0 0 3.852 6.184 5.76 5.76 0 0 0 5.039-.654 5.745 5.745 0 0 0 1.789-1.897h26.543a2.9 2.9 0 0 0 2.01-4.924 2.9 2.9 0 0 0-2.01-.871Z" fill="#fff"/><path d="M374.329 386.197H95.773a.4.4 0 0 1-.397-.397.399.399 0 0 1 .397-.397h278.556a.397.397 0 1 1 0 .794Z" fill="#002E5D"/><path d="m36.435 246.993 39.462-11.56-5.258 28.952-4.014-1.526-2.311 16.126-13.463-4.205.88 15.013 7.027.753 19.535 15.26 33.859 1.756v1.815l12.036-4.924 2.521 2.084-2.771 3.099 8.878 2.035-3.861 8.053-16.687-2.284-39.793.389-12.806-4.741-9.055 20.027 40.922-11.203s6.487-2.555 10.741 1.215c4.255 3.771 4.519 7.14 4.519 7.14l1.614 42.505-1.293.335 1.293 6.385 10.033 2.825-.015 2.89h-17.637l-.984-11.442-.565.077-11.553-32.62-30.053 16.105 23.457 14.323s4.693 4.003 2.267 8.855c-2.425 4.852-6.338 4.821-6.338 4.821H21v-.704l-12.897.696-13.45 4.285-1.588-3.176 15.694-11.344 9.658 1.343 2.796-.917 32.276-3.045-23.524-9.588s-11.52-5.063-14.107-8.769c-2.587-3.706-.811-10.447-.811-10.447s.883-2.62 2.289-4.88l14.534-44.729-1.08-.718 5.645-46.34Z" fill="#fff"/><path d="m36.282 247.032 39.61-11.606-5.258 28.953-20.89-8.406 2.798 47.745-12.397-5.915-3.864-50.771Z" fill="#325D9C"/><path d="m54.45 257.629 1.359 18.695 8.27 2.655 2.75-16.172-12.378-5.178Z" fill="#F4B18F"/><path d="m42.21 306.466 30.136 5.621 39.916.427-.117-4.954-33.717-1.643-19.677-15.378-7.026-.752.685 13.725-20.42-9.601-14.816 45.079 26.45-3.444 8.472-25.367-9.886-3.713Z" fill="#F70431"/><path d="M112.262 312.514h6.541l12.076 3.438 2.166-4.232-8.857-2.027 2.395-3.256-2.31-1.985-11.769 4.778-.242 3.284Z" fill="#F4B18F"/><path d="M26.378 337.745s-7.579 7.146 0 15.454 38.34 21.647 38.34 21.647l-43.719 3.214v7.27h56.023s5.406-.612 6.476-5.117c1.07-4.505-1.495-7.925-1.495-7.925l-36.186-21.871 45.215-15.792a3.931 3.931 0 0 1 3.348.358 3.93 3.93 0 0 1 1.839 2.82l4.851 35.87 7.34-.685-1.589-42.105s-.622-5.953-5.063-8.176c-4.44-2.223-6.918-1.598-6.918-1.598l-44.103 11.837-.794 1.772-23.565 3.027Z" fill="#325D9C"/><path d="M52.541 304.118a.408.408 0 0 1-.171-.039l-21.758-10.384a.396.396 0 0 1-.223-.405l5.502-46.303a.408.408 0 0 1 .282-.335l39.61-11.606a.412.412 0 0 1 .378.087.39.39 0 0 1 .125.366l-5.256 28.954a.4.4 0 0 1-.2.276.383.383 0 0 1-.168.048.391.391 0 0 1-.172-.028l-20.327-8.438 2.775 47.38a.397.397 0 0 1-.397.42v.007Zm-21.333-11.02 20.897 9.972-2.773-47.341a.4.4 0 0 1 .55-.39l20.45 8.485 5.054-27.836-38.741 11.344-5.437 45.766Z" fill="#002E5D"/><path d="M64.308 279.376a.4.4 0 0 1-.119-.018l-13.465-4.205a.398.398 0 1 1 .236-.759l13.02 4.065 2.246-15.801a.397.397 0 1 1 .788.111L64.7 279.034a.397.397 0 0 1-.393.342Zm47.953 38.849H72.468a.415.415 0 0 1-.135-.024l-30.258-11.363a.392.392 0 0 1-.245-.516.39.39 0 0 1 .214-.225.393.393 0 0 1 .31-.002l30.19 11.336h39.327v-9.487l-33.456-1.63a.41.41 0 0 1-.225-.084l-19.612-15.324-6.892-.725a.406.406 0 0 1-.267-.145.405.405 0 0 1-.086-.292.398.398 0 0 1 .437-.353l7.007.737a.398.398 0 0 1 .203.083l19.595 15.315 33.707 1.644a.4.4 0 0 1 .378.396v10.263a.397.397 0 0 1-.399.396Z" fill="#002E5D"/><path d="M20.452 338.909a.398.398 0 0 1-.05-.792l29.184-3.734 9.898-21.463a.393.393 0 0 1 .222-.21.388.388 0 0 1 .307.01.412.412 0 0 1 .208.226.397.397 0 0 1-.016.306l-9.99 21.663a.4.4 0 0 1-.309.227L20.5 338.906l-.048.003Zm-3.12.269a.419.419 0 0 1-.122-.019.404.404 0 0 1-.257-.501l14.535-44.928a.402.402 0 0 1 .346-.274.403.403 0 0 1 .29.094.395.395 0 0 1 .12.425L17.71 338.902a.401.401 0 0 1-.378.276Z" fill="#002E5D"/><path d="M99.24 374.24a.405.405 0 0 1-.376-.27l-11.459-32.303-29.717 16.078a.392.392 0 0 1-.305.035.403.403 0 0 1-.238-.192.395.395 0 0 1 .043-.442.4.4 0 0 1 .121-.099l30.127-16.3a.4.4 0 0 1 .473.072c.04.041.071.09.09.144l11.51 32.456 8.489-.791-1.45-40.87a10.623 10.623 0 0 0-8.685-10.067 10.643 10.643 0 0 0-4.745.199L50.71 333.496a.398.398 0 0 1-.442-.578.395.395 0 0 1 .233-.187l42.41-11.608a11.435 11.435 0 0 1 9.787 1.812 11.412 11.412 0 0 1 4.65 8.795l1.462 41.243a.397.397 0 0 1-.359.405l-9.17.857-.041.005Zm-23.03 11.484H21a.395.395 0 0 1-.398-.397v-9.896a.396.396 0 0 1 .363-.396l31.398-2.768c-3.227-1.13-10.414-3.721-17.614-6.817-13.072-5.621-19.97-10.175-20.5-13.536-1.306-8.295 2.609-13.182 2.776-13.386a.399.399 0 0 1 .569-.067.394.394 0 0 1 .144.276.395.395 0 0 1-.1.295c-.037.047-3.852 4.833-2.603 12.759.333 2.112 4.078 6.077 20.027 12.929 9.624 4.138 19.221 7.37 19.318 7.402a.4.4 0 0 1 .269.424.399.399 0 0 1-.361.349l-32.89 2.899v9.135h54.814c3.378 0 6.143-2.101 7.046-5.353.902-3.252-.385-6.483-3.281-8.217l-34.364-20.632a.403.403 0 0 1-.22-.243.397.397 0 0 1 .625-.432l34.363 20.632c3.21 1.927 4.638 5.503 3.636 9.109-1.001 3.606-4.062 5.931-7.807 5.931Zm-65.235-10.108-12.048 12.61-4.487 1.377-1.536-3.147 15.932-11.612 2.139.772Z" fill="#002E5D"/><path d="M-5.346 390a.396.396 0 0 1-.355-.22l-1.59-3.176a.399.399 0 0 1 .122-.499l15.648-11.357a.393.393 0 0 1 .29-.073l9.704 1.36a.397.397 0 0 1-.111.786l-9.545-1.337-15.245 11.074 1.285 2.566 12.94-4.171a.42.42 0 0 1 .105-.019l10.177-.428a.397.397 0 0 1 .034.794l-10.123.426-13.214 4.255a.418.418 0 0 1-.122.019Zm123.843-4.276h-17.704a.399.399 0 0 1-.395-.367l-.734-9.683a.398.398 0 1 1 .793-.059l.705 9.318h16.931v-2.203l-9.796-2.759a.401.401 0 0 1-.284-.31l-.917-4.948a.398.398 0 0 1 .782-.145l.871 4.705 9.856 2.767a.404.404 0 0 1 .289.382v2.903a.393.393 0 0 1-.397.399Z" fill="#002E5D"/><path d="m118.497 382.425-17.793 1.632.349 1.27h17.582l-.138-2.902Zm10.452-62.305h-.051l-14.305-1.891a.396.396 0 0 1-.341-.446.398.398 0 0 1 .446-.341l14.025 1.856 3.731-7.292-8.722-1.848a.398.398 0 0 1-.295-.264.39.39 0 0 1 .082-.388l2.612-2.922-2.017-1.669-9.774 4.077a.396.396 0 0 1-.519-.214.401.401 0 0 1-.001-.304.39.39 0 0 1 .215-.216l10-4.169a.402.402 0 0 1 .406.061l2.521 2.085a.385.385 0 0 1 .099.124.385.385 0 0 1 .023.309.386.386 0 0 1-.08.137l-2.432 2.719 8.56 1.812a.407.407 0 0 1 .27.57l-4.096 8.001a.395.395 0 0 1-.357.213Z" fill="#002E5D"/><path d="m351.08 381.28-6.326-26.234 8.835 9.03 7.733-26.09 1.907 23.72 21.288 3.687-19.881 15.887" fill="#BBD1DC"/><path d="M348.782 381.678a.397.397 0 0 1-.37-.252l-8.367-21.234a.399.399 0 0 1 .615-.459l8.728 6.785 5.665-24.476a.392.392 0 0 1 .146-.228.393.393 0 0 1 .508.021.396.396 0 0 1 .127.239l3.678 25.065 17.785-8.305a.394.394 0 0 1 .486.12.398.398 0 0 1-.019.501l-19.292 22.087a.394.394 0 0 1-.427.115.41.41 0 0 1-.23-.2.4.4 0 0 1 .057-.438l18.054-20.669-16.561 7.734a.408.408 0 0 1-.492-.134.402.402 0 0 1-.07-.168l-3.45-23.509-5.33 23.029a.412.412 0 0 1-.254.284.389.389 0 0 1-.377-.061l-8.075-6.274 7.838 19.884a.414.414 0 0 1-.047.364.406.406 0 0 1-.322.177l-.004.002Z" fill="#002E5D"/><path d="M409.678 208.226h-37.591v12.419h37.591v-12.419Zm14.096 18.484h-37.59v12.419h37.59V226.71Zm-14.096 101.256h37.591v-12.419h-37.591v12.419Z" fill="#BBD1DC"/></g><defs><clipPath id="a"><path fill="#fff" d="M0 0h418v400H0z"/></clipPath></defs></svg>