<svg width="418" height="400" fill="none" xmlns="http://www.w3.org/2000/svg"><g clip-path="url(#a)"><path d="M418 193.218c0 106.711-86.409 193.216-193.002 193.216a192.094 192.094 0 0 1-124.677-45.718 194.99 194.99 0 0 1-13.25-12.343 192.886 192.886 0 0 1-54.084-115.399 197.745 197.745 0 0 1-.983-17.592v-2.15C31.993 86.508 118.405 0 224.998 0S418 86.508 418 193.218Z" fill="#F3F8FF"/><path d="M197.523 174.981a.29.29 0 0 0-.071-.138.29.29 0 0 0-.133-.08l-17.296-5.13a.26.26 0 0 0-.141 0L81.55 186.747l-.215-15.87a.28.28 0 0 0-.13-.237.311.311 0 0 0-.282-.023l-28.309 11.146a.284.284 0 0 0-.186.306l1.251 9.529-21.675 3.77a193.74 193.74 0 0 0 .983 17.592l22.98-3.96.941 7.148-12.32 15.864a6.181 6.181 0 0 0-.423 7.041 6.185 6.185 0 0 0 1.691 1.82l19.424 14.06a.316.316 0 0 0 .32.024.315.315 0 0 0 .095-.075l.384-.456.365.283-.034.028a.286.286 0 0 0-.02.322c.02.032.045.061.076.083l2.068 1.507c-.87 1.777-6.803 14.32-8.326 29.472-.166 1.657-.41 3.88-.717 6.542a193.939 193.939 0 0 0 14.338 20.683l7.179-24.323 6.063 39.348a196.14 196.14 0 0 0 13.25 12.342c-.221-19.917-.48-44.916-.565-57.819-.158-22.718-4.196-34.761-4.481-35.575l-.658-24.225 13.79 1.38c.221.019.443.019.664 0a3.593 3.593 0 0 0 2.319-1.092 3.334 3.334 0 0 0 .904-2.947l-3.345-17.926a.279.279 0 0 0-.11-.18.28.28 0 0 0-.204-.054h-.155l-.056-.753a.283.283 0 0 0 .282-.283v-.019l-.093-1.259 74.021-12.728a.3.3 0 0 0 .144-.062l14.654-11.896a.279.279 0 0 0 .089-.134.29.29 0 0 0 .002-.16ZM69.93 250.498a.305.305 0 0 0-.283.15l-.243-.181a.284.284 0 0 0-.042-.391l-15.346-12.88 10.368-10.465 6.063 19.581a.304.304 0 0 0 .376.192l.893 3.309a.283.283 0 0 0-.223.311.286.286 0 0 0 .105.196.28.28 0 0 0 .1.051.27.27 0 0 0 .114.008l.017.212-1.9-.093Zm16.104-43.339a.285.285 0 0 0-.119-.023l-9.295.413-.76-1.96 26.467-4.553.223.891a.284.284 0 0 0 .314.22h.048l.149.58a.281.281 0 0 0-.234.3l.802 10.748-17.595-6.616Z" fill="#BBD1DC"/><path d="M318.165 98.426a1.797 1.797 0 0 1-1.799-1.801c0-9.665-5.685-17.536-12.672-17.536a1.8 1.8 0 0 1-1.727-2.506 1.799 1.799 0 0 1 1.727-1.094c8.971 0 16.271 9.48 16.271 21.13a1.8 1.8 0 0 1-1.8 1.807Zm-46.585 0a1.799 1.799 0 0 1-1.797-1.801c0-9.665-5.684-17.536-12.671-17.536a1.796 1.796 0 0 1-1.727-1.094 1.803 1.803 0 0 1 1.727-2.507c8.97 0 16.268 9.481 16.268 21.131a1.8 1.8 0 0 1-1.8 1.807Zm-46.582 0a1.801 1.801 0 0 1-1.8-1.801c0-9.665-5.684-17.536-12.671-17.536a1.796 1.796 0 0 1-1.727-1.094 1.803 1.803 0 0 1 1.727-2.507c8.97 0 16.268 9.481 16.268 21.131a1.797 1.797 0 0 1-1.108 1.669 1.792 1.792 0 0 1-.689.138Zm-46.585 0a1.8 1.8 0 0 1-1.797-1.801c0-9.665-5.684-17.536-12.674-17.536a1.797 1.797 0 0 1-1.728-1.8 1.803 1.803 0 0 1 1.728-1.8c8.973 0 16.27 9.48 16.27 21.13a1.8 1.8 0 0 1-1.799 1.807Z" fill="#445664"/><path d="M333.147 96.61h-206.32v291.94h206.32V96.611Z" fill="#fff"/><path d="M355.317 96.61h-22.17v291.94h22.17V96.611Zm-28.532 5.462H133.189v45.041h193.596v-45.041Z" fill="#BBD1DC"/><path d="M286.045 153.443 133.189 232.02v-78.577h152.856Zm40.74 0v10.256L133.189 263.22v-17.134l180.213-92.643h13.383Zm0 60.787v28.258l-193.596 99.518v-28.255l193.596-99.521Zm0 42.108v65.414l-116.365 59.82h-77.231v-25.713l193.596-99.521Zm-66.802 125.234 66.802-34.342v34.342h-66.802Z" fill="#F3F8FF"/><path d="M333.147 299.869a.287.287 0 0 1-.212-.087.3.3 0 0 1-.087-.212V183.356a.3.3 0 1 1 .599 0V299.57a.3.3 0 0 1-.3.299Zm0-144.31a.3.3 0 0 1-.299-.3V96.91H127.135v18.102a.299.299 0 1 1-.599 0V96.627a.3.3 0 0 1 .3-.3h206.32a.3.3 0 0 1 .299.3v58.629a.296.296 0 0 1-.308.303Zm-206.32 26.705a.297.297 0 0 1-.299-.3v-38.182a.299.299 0 1 1 .599 0v38.182a.303.303 0 0 1-.3.3Zm0 184.62a.299.299 0 0 1-.299-.3V204.961c0-.079.031-.155.087-.212a.3.3 0 0 1 .512.212v161.623a.303.303 0 0 1-.3.3Zm206.32 21.968H153.268a.297.297 0 0 1-.194-.098.299.299 0 0 1 0-.406.297.297 0 0 1 .194-.098h179.58v-19.753a.299.299 0 1 1 .599 0v20.055a.3.3 0 0 1-.3.3Z" fill="#002E5D"/><path d="M363.606 359.42a.3.3 0 0 1-.299-.283L344.677 96.91h-11.535a.299.299 0 0 1-.3-.3.3.3 0 0 1 .3-.3h11.818a.301.301 0 0 1 .299.284L363.906 359.1a.294.294 0 0 1-.168.292.289.289 0 0 1-.115.03l-.017-.003Z" fill="#002E5D"/><path d="M163.546 120.216c2.021 0 3.659-1.913 3.659-4.274 0-2.36-1.638-4.273-3.659-4.273-2.02 0-3.658 1.913-3.658 4.273 0 2.361 1.638 4.274 3.658 4.274Z" fill="#445664"/><path d="M163.942 117.744c-8.97 0-16.268-9.481-16.268-21.133 0-11.653 7.298-21.131 16.268-21.131a1.796 1.796 0 0 1 1.727 1.094 1.803 1.803 0 0 1-1.727 2.506c-6.987 0-12.671 7.866-12.671 17.536 0 9.67 5.684 17.536 12.671 17.536a1.8 1.8 0 1 1 0 3.603v-.011Zm46.187 2.472c2.02 0 3.658-1.913 3.658-4.274 0-2.36-1.638-4.273-3.658-4.273-2.021 0-3.659 1.913-3.659 4.273 0 2.361 1.638 4.274 3.659 4.274Z" fill="#445664"/><path d="M210.527 117.744c-8.97 0-16.27-9.481-16.27-21.133 0-11.653 7.3-21.131 16.27-21.131a1.796 1.796 0 0 1 1.727 1.094 1.803 1.803 0 0 1-1.727 2.506c-6.987 0-12.671 7.866-12.671 17.536 0 9.67 5.684 17.536 12.671 17.536a1.8 1.8 0 0 1 0 3.603v-.011Zm46.187 2.472c2.02 0 3.658-1.913 3.658-4.274 0-2.36-1.638-4.273-3.658-4.273-2.021 0-3.659 1.913-3.659 4.273 0 2.361 1.638 4.274 3.659 4.274Z" fill="#445664"/><path d="M257.112 117.744c-8.973 0-16.27-9.481-16.27-21.133 0-11.653 7.297-21.131 16.27-21.131a1.8 1.8 0 0 1 1.226 3.049 1.797 1.797 0 0 1-1.226.552c-6.989 0-12.674 7.865-12.674 17.535s5.685 17.536 12.674 17.536a1.8 1.8 0 0 1 1.8 1.802 1.802 1.802 0 0 1-1.8 1.801v-.011Zm46.184 2.472c2.021 0 3.659-1.913 3.659-4.274 0-2.36-1.638-4.273-3.659-4.273-2.02 0-3.659 1.913-3.659 4.273 0 2.361 1.639 4.274 3.659 4.274Z" fill="#445664"/><path d="M303.694 117.744c-8.97 0-16.27-9.481-16.27-21.133 0-11.653 7.3-21.131 16.27-21.131a1.801 1.801 0 1 1 0 3.6c-6.986 0-12.671 7.866-12.671 17.536 0 9.67 5.685 17.536 12.671 17.536a1.8 1.8 0 0 1 1.8 1.802 1.802 1.802 0 0 1-1.8 1.801v-.011Z" fill="#445664"/><path d="M139.863 134.53H82.497l13.154-11.429-13.154-11.432h57.366v22.861Z" fill="#F70431"/><path d="M136.967 138.167h-16.353a.298.298 0 0 1-.211-.511.295.295 0 0 1 .211-.088h16.053v-22.262H80.406l12.544 10.903a.306.306 0 0 1 .102.206.304.304 0 0 1-.074.218.282.282 0 0 1-.42.029l-13.155-11.43a.28.28 0 0 1-.085-.331.303.303 0 0 1 .283-.195h57.366a.302.302 0 0 1 .279.185.303.303 0 0 1 .023.115v22.862a.307.307 0 0 1-.089.212.305.305 0 0 1-.213.087Z" fill="#002E5D"/><path d="M321.798 152.572h49.298l-11.304 11.43 11.304 11.432h-49.298v-22.862Z" fill="#F70431"/><path d="M342.086 178.417h-17.83a.287.287 0 0 1-.115-.022.297.297 0 0 1-.187-.277v-22.862a.302.302 0 0 1 .302-.3h49.295a.298.298 0 0 1 .282.184.278.278 0 0 1-.065.328l-11.3 11.43a.3.3 0 0 1-.427-.422l10.792-10.917h-48.277v22.259h17.516a.3.3 0 1 1 0 .599h.014Zm-31.371 9.439H149.259a.3.3 0 0 1-.211-.512.3.3 0 0 1 .211-.088h161.456a.3.3 0 0 1 0 .6Zm0 38.652H149.259a.3.3 0 0 1-.211-.512.3.3 0 0 1 .211-.088h161.456a.3.3 0 0 1 0 .6Zm0 38.655H149.259a.303.303 0 0 1 0-.603h161.456a.306.306 0 0 1 .195.098.305.305 0 0 1 0 .407.306.306 0 0 1-.195.098Zm0 38.652H149.259a.299.299 0 0 1-.194-.098.3.3 0 0 1 0-.407c.05-.055.12-.09.194-.098h161.456a.31.31 0 0 1 .195.098.305.305 0 0 1 0 .407.301.301 0 0 1-.195.098Zm-95.385 38.652h-66.071a.299.299 0 0 1-.194-.098.299.299 0 0 1 0-.406.299.299 0 0 1 .194-.098h66.071a.301.301 0 0 1 .273.301.303.303 0 0 1-.273.301Z" fill="#002E5D"/><path d="M261.799 248.34H151.822v9.78h109.977v-9.78Zm-34.764 38.898h-75.213v9.78h75.213v-9.78Zm65.212 0h-54.762v9.78h54.762v-9.78Z" fill="#BBD1DC"/><path d="M336.049 354.906c12.645-12.659 12.645-33.184 0-45.843-12.645-12.659-33.147-12.659-45.792 0-12.645 12.659-12.645 33.184 0 45.843 12.645 12.659 33.147 12.659 45.792 0Z" fill="#F70431"/><path d="M315.993 368.796a.299.299 0 0 1-.277-.414.295.295 0 0 1 .277-.185 32.05 32.05 0 0 0 15.725-4.12 32.112 32.112 0 0 0 16.342-26.901 32.149 32.149 0 0 0-3.579-15.873 32.113 32.113 0 0 0-10.892-12.08 32.048 32.048 0 0 0-31.377-2.141 32.081 32.081 0 0 0-12.429 10.487.317.317 0 0 1-.083.088.307.307 0 0 1-.233.046.3.3 0 0 1-.173-.479 32.68 32.68 0 0 1 28.929-13.768c5.596.384 11 2.203 15.691 5.284a32.701 32.701 0 0 1 11.091 12.304 32.753 32.753 0 0 1-1.093 32.048 32.694 32.694 0 0 1-11.904 11.518 32.644 32.644 0 0 1-16.015 4.2v-.014Z" fill="#002E5D"/><path d="M297.259 336.081a4.093 4.093 0 0 0 4.09-4.096 4.092 4.092 0 0 0-4.09-4.095 4.092 4.092 0 0 0-4.091 4.095 4.093 4.093 0 0 0 4.091 4.096Zm15.894 0a4.093 4.093 0 0 0 4.091-4.096 4.092 4.092 0 0 0-4.091-4.095 4.093 4.093 0 0 0-4.091 4.095 4.094 4.094 0 0 0 4.091 4.096Zm15.892 0a4.093 4.093 0 0 0 4.091-4.096 4.092 4.092 0 0 0-4.091-4.095 4.093 4.093 0 0 0-4.091 4.095 4.094 4.094 0 0 0 4.091 4.096Z" fill="#fff"/><path d="M118.741 388.852H22.455a.303.303 0 0 1 0-.602h96.286a.302.302 0 0 1 0 .602ZM301.352 399H66.204a.3.3 0 0 1 0-.6h235.148a.3.3 0 0 1 0 .6Z" fill="#002E5D"/><path d="m189.572 193.77 15.415-11.107-16.771-6.701-99.377 9.716.989-16.767-28.973 9.212.565 10.199-61.118 6.044 2.043 17.31 59.988-5.773.483 7.886S49.85 228.53 48.927 229.718c-.924 1.188-1.237 2.359-1.192 4.208.045 1.85 1.56 3.677 1.56 3.677l18.855 16.651.39-.413 2.825 2.642c-.797 1.103-3.543 7.141-3.543 7.141-1.667 3.434-3.746 9.916-3.746 9.916-1.348 2.993-3.071 12.094-3.071 12.094l-1.978 10.901-15.567 79.7-.68 2.262-2.744 4.291-5.509 1.867 1.752 3.778 12.693.054.376-12.224h.325l31.555-86.81 6.574 86.79.348 12.238 12.688.071 1.912-4.042-5.65-1.753-2.738-4.226-.16-2.262 5.085-81.649.876-15.4s.084-5.134.042-9.413-.514-9.503-.514-9.503c-.269-5.179-1.695-11.198-1.695-11.198l1.17-25.486 14.317 2.585c3.62.06 3.453-3.261 3.453-3.261l-1.978-18.859h-.175v-3.162l74.789-7.153Zm-114.8 57.059-2.003-.255-.652-.602-14.483-14.744 11.66-10.519 4.727 21.133.765 4.166-.014.821Zm34.623-35.332-17.409-8.448-9.459-.32-.796-2.644 27.283-2.611.432 2.503-.051 11.52Z" fill="#fff"/><path d="m85.104 185.87-8.701-1.075.073 16.391 7.812.452.816-15.768Z" fill="#FDC8AA"/><path d="m89.627 172.325-24.455 8.946 2.478 34.294 11.584 4.177-7.586-35.512 17.149 2.053.83-13.958Z" fill="#325D9C"/><path d="m75.34 201.152 5.623.322 1.565 5.255-6.278-.953-.91-4.624Z" fill="#FDC8AA"/><path d="m76.798 208.347 4.164 1.414 1.566-3.043 3.005.102 6.377 16.068-1.172 26.481-15.966.628-.751-4.155-4.716-21.133-11.67 10.519 14.484 14.744-2.511 2.746-17.172-16.91a2.643 2.643 0 0 1-.127-3.626l14.815-16.829 12.149 4.398-2.475-11.404Zm19.695 8.98 14.538 3.501a1.553 1.553 0 0 0 1.35-.306 1.555 1.555 0 0 0 .574-1.26l-.463-15.404 2.458.029 2.006 19.057s.141 3.374-3.453 3.261l-14.338-2.585.085-2.028-2.757-4.265Z" fill="#325D9C"/><path d="m69.376 254.65 2.404-2.616 8.465 6.938-2.67 2.893-8.199-7.215Z" fill="#FDC8AA"/><path d="M87.127 249.522s-10.329 30.017-16.386 50.344c-6.058 20.328-23.404 76.397-23.404 76.397l-3.865-.031L58.2 301.19l1.723-9.596 1.184-6.698 1.26-5.657s1.308-4.862 2.147-7.136c.839-2.274 2.416-6.383 2.416-6.383s2.666-6.282 4.43-9.257l6.124 5.342 3.744-3.86-4.1-4.432 1.478-.198-.02-1.98-3.817-.495v-.82l12.358-.498Zm-.992 26.586 5.377 100.149h-3.71l-6.574-86.804 4.907-13.345Z" fill="#325D9C"/><path d="m61.42 188.373.693 12.898-47.348 4.494-1.345-12.694 48-4.698Zm127.554.857-104.536 9.922.666-13.282 3.693.413.042-.605 99.377-9.715.758 13.267Z" fill="#3B82F4"/><path d="M79.262 220.045a.254.254 0 0 1-.102-.02l-16.474-5.914a.282.282 0 0 1-.198-.266l-1.932-35.713a.303.303 0 0 1 .209-.303l28.972-9.203a.295.295 0 0 1 .283.048.306.306 0 0 1 .116.254l-1.023 17.403a.303.303 0 0 1-.106.215.298.298 0 0 1-.23.068l-16.734-2 7.524 35.072a.285.285 0 0 1-.093.283.31.31 0 0 1-.212.076Zm-16.186-6.432 15.779 5.657-7.498-34.958a.283.283 0 0 1 .07-.266.309.309 0 0 1 .117-.079.292.292 0 0 1 .14-.017l16.839 2.011.98-16.648-28.334 9.025 1.907 35.275Z" fill="#002E5D"/><path d="M84.316 201.969h-.017l-9.04-.52a.299.299 0 0 1-.208-.1.3.3 0 0 1 .026-.423.309.309 0 0 1 .215-.077l8.758.503.772-15.493a.309.309 0 0 1 .314-.283.298.298 0 0 1 .282.317l-.788 15.796a.305.305 0 0 1-.3.283l-.014-.003ZM2.345 211.976a.297.297 0 0 1-.297-.263L0 194.367a.302.302 0 0 1 .062-.224.315.315 0 0 1 .22-.119l61.11-5.973a.298.298 0 0 1 .264.491.292.292 0 0 1-.207.106L.633 194.59l1.978 16.749 59.722-5.713a.298.298 0 0 1 .261.489.301.301 0 0 1-.202.108l-60.019 5.753h-.028Z" fill="#002E5D"/><path d="M81.725 204.384a.3.3 0 1 1-.028-.599l107.774-10.307 14.94-10.728-16.251-6.482-99.29 9.707a.287.287 0 0 1-.116-.012.293.293 0 0 1-.177-.145.301.301 0 0 1 .249-.44l99.371-9.715a.297.297 0 0 1 .141.022l16.816 6.709a.298.298 0 0 1 .186.243.31.31 0 0 1-.124.283l-15.463 11.104a.303.303 0 0 1-.147.057L81.754 204.384h-.029Zm-66.957 1.678a.3.3 0 0 1-.3-.269l-1.345-12.728a.3.3 0 0 1 .267-.329.3.3 0 0 1 .33.267l1.344 12.714a.303.303 0 0 1-.265.331l-.031.014Z" fill="#002E5D"/><path d="M84.627 195.744a.298.298 0 0 1-.236-.502.3.3 0 0 1 .207-.098l98.601-9.571a.295.295 0 0 1 .219.067.302.302 0 0 1 .042.422.3.3 0 0 1-.202.108l-98.6 9.571-.031.003Zm-64.105 6.225a.299.299 0 0 1-.236-.502.3.3 0 0 1 .208-.098l41.378-4.019a.3.3 0 0 1 .255.488.3.3 0 0 1-.198.109l-41.378 4.019-.029.003Z" fill="#002E5D"/><path d="M113.718 226.59a3.755 3.755 0 0 1-.661-.062l-13.942-2.614a.3.3 0 1 1 .11-.591l13.942 2.614a2.94 2.94 0 0 0 2.529-.73 2.931 2.931 0 0 0 .926-2.467l-1.957-18.553h-4.939v11.358a.305.305 0 0 1-.143.253.3.3 0 0 1-.289.016l-17.381-8.446-9.416-.333a.303.303 0 0 1-.282-.215l-1.538-5.255a.3.3 0 0 1 .522-.292.299.299 0 0 1 .043.122l1.475 5.049 9.272.333a.287.287 0 0 1 .119.029l17.008 8.264v-11.183a.299.299 0 0 1 .299-.3h5.512a.28.28 0 0 1 .203.072c.056.049.09.119.094.194l1.978 18.825a3.557 3.557 0 0 1-.887 2.733 3.536 3.536 0 0 1-2.617 1.179h.02Z" fill="#325D9C"/><path d="M80.963 210.146a.338.338 0 0 1-.133-.031.3.3 0 0 1-.136-.402l1.537-3.128a.301.301 0 0 1 .4-.132.299.299 0 0 1 .137.398l-1.537 3.128a.303.303 0 0 1-.268.167Zm-6.191 40.162a.297.297 0 0 1-.3-.282.302.302 0 0 1 .283-.311l22.958-.9 1.235-27.095-5.628-8.678a.3.3 0 1 1 .503-.325l5.678 8.768a.303.303 0 0 1 .048.178l-1.231 27.446a.304.304 0 0 1-.283.283l-23.251.916h-.012Zm-6.645 4.263a.284.284 0 0 1-.197-.074l-18.268-16.121a6.593 6.593 0 0 1-.605-9.263l13.505-15.482a.299.299 0 0 1 .526.177.304.304 0 0 1-.074.218l-13.505 15.483a5.993 5.993 0 0 0 .551 8.417l18.048 15.921 3.616-3.821-14.321-14.595a.308.308 0 0 1-.085-.22.298.298 0 0 1 .099-.212l11.702-10.522a.3.3 0 0 1 .422.022c.036.039.06.086.072.137l4.69 21.229a.3.3 0 0 1-.226.359.304.304 0 0 1-.358-.229l-4.575-20.729-11.094 9.967 14.304 14.564a.297.297 0 0 1 0 .415l-4.015 4.265a.297.297 0 0 1-.212.094Zm9.372 7.594a.28.28 0 0 1-.198-.077l-8.207-7.28a.298.298 0 0 1-.019-.415.3.3 0 0 1 .414-.035l7.993 7.088 3.32-3.481-3.92-4.263a.296.296 0 0 1-.062-.309.302.302 0 0 1 .25-.194l1.265-.139v-1.459l-5.532-.727a.303.303 0 0 1-.222-.451.304.304 0 0 1 .184-.139.31.31 0 0 1 .117-.007l5.792.769a.305.305 0 0 1 .263.283v1.98a.298.298 0 0 1-.269.283l-.943.105 3.715 4.027a.304.304 0 0 1 0 .413l-3.72 3.895a.3.3 0 0 1-.221.133Z" fill="#002E5D"/><path d="M94.258 376.557h-6.476a.298.298 0 0 1-.3-.283l-6.55-86.652a.3.3 0 0 1 .273-.34.307.307 0 0 1 .225.078.306.306 0 0 1 .097.217l6.532 86.395h5.916c.283-4.727 4.032-66.441 5.552-89.803 1.568-24.109-1.774-36.853-1.808-36.981a.297.297 0 0 1-.008-.258.305.305 0 0 1 .194-.168.294.294 0 0 1 .254.045.3.3 0 0 1 .125.226c.036.127 3.404 12.954 1.828 37.175-1.571 24.174-5.526 89.424-5.566 90.08a.302.302 0 0 1-.288.269Z" fill="#325D9C"/><path d="M49.684 376.557H43.47a.299.299 0 0 1-.294-.359c.147-.73 14.575-73.254 17.398-89.882 2.825-16.687 10.51-29.864 10.586-29.997a.3.3 0 1 1 .517.305c-.076.13-7.699 13.211-10.513 29.791-2.72 16.04-16.22 83.968-17.327 89.543h5.634l36.383-99.951a.302.302 0 0 1 .386-.18.3.3 0 0 1 .18.386L49.972 376.359a.298.298 0 0 1-.288.198Z" fill="#325D9C"/><path d="M100.86 388.784H88.18a.298.298 0 0 1-.299-.283l-.282-10.465a.297.297 0 0 1 .282-.308.298.298 0 0 1 .3.283l.282 10.182h12.186l1.593-3.442-5.3-1.714a.284.284 0 0 1-.161-.125l-2.67-4.208a.304.304 0 0 1-.041-.227.303.303 0 0 1 .131-.189.305.305 0 0 1 .416.093l2.61 4.118 5.521 1.785a.308.308 0 0 1 .21.29.293.293 0 0 1-.027.123l-1.811 3.917a.302.302 0 0 1-.26.17Z" fill="#002E5D"/><path d="M87.992 381.575s8.311 3.928 8.348 3.838c.037-.091.71-2.673.71-2.673l5.624 1.819-1.814 3.925H88.18l-.189-6.909Zm-39.008 7.209H36.315a.3.3 0 0 1-.168-.044.301.301 0 0 1-.114-.131l-1.82-3.923a.302.302 0 0 1 .184-.413l5.52-1.785 2.614-4.118a.298.298 0 0 1 .543.096.304.304 0 0 1-.037.226l-2.67 4.209a.313.313 0 0 1-.161.124l-5.303 1.714 1.596 3.442h12.182l.283-10.182a.3.3 0 0 1 .308-.291.3.3 0 0 1 .29.308l-.282 10.465a.3.3 0 0 1-.296.303Z" fill="#002E5D"/><path d="M49.159 381.575s-8.312 3.923-8.34 3.838c-.029-.085-.71-2.673-.71-2.673l-5.624 1.819 1.82 3.925h12.667l.187-6.909Zm65.624-178.783a.299.299 0 0 1-.299-.3v-1.578a.3.3 0 0 1 .299-.3.3.3 0 0 1 .3.3v1.595a.299.299 0 0 1-.3.283Zm-5.566.198a.292.292 0 0 1-.193-.07.295.295 0 0 1-.103-.179l-.201-1.219a.303.303 0 0 1 .046-.231.294.294 0 0 1 .319-.122.297.297 0 0 1 .226.257l.2 1.216a.296.296 0 0 1-.246.345l-.048.003Z" fill="#002E5D"/><path d="M106.878 62.763c5.736-5.742 5.736-15.053 0-20.795-5.736-5.743-15.036-5.743-20.772 0-5.737 5.742-5.737 15.053 0 20.795 5.736 5.743 15.036 5.743 20.772 0Zm282.755 167.382a5.457 5.457 0 0 0 0-7.711 5.442 5.442 0 0 0-7.703 0 5.457 5.457 0 0 0 0 7.711 5.442 5.442 0 0 0 7.703 0Z" fill="#BBD1DC"/></g><defs><clipPath id="a"><path fill="#fff" d="M0 0h418v400H0z"/></clipPath></defs></svg>