<svg width="418" height="400" fill="none" xmlns="http://www.w3.org/2000/svg"><path d="M372.912 176.821v.608c-.327 86.92-70.905 157.281-157.919 157.281-87.205 0-157.921-70.691-157.921-157.889 0-1.703.027-3.399.082-5.088a157.014 157.014 0 0 1 20.22-72.397c27.081-48 78.556-80.405 137.617-80.405 58.958 0 110.37 32.302 137.497 80.176a157.125 157.125 0 0 1 20.424 77.714Z" fill="#F3F8FF"/><path d="m352.488 99.104-57.876 7.838v4.091h-12.066l-50.198-15.94-44.154 3.89-22.601 12.72-.066-.011H111.21l-.157-8.834-33.69-3.506a157.01 157.01 0 0 0-20.211 72.381l54.979-7.924-.11-6.218c1.438 1.194 3.701 2.742 6.427 4.462a154.264 154.264 0 0 0 5.445 3.401c-.83 1.11-1.311 1.8-1.311 1.8s-2.694 8.181 3.551 10.879c6.245 2.697 10.126-.97 10.126-.97s1.234-1.307 2.892-3.378c.636.318 1.286.636 1.942.956a86.381 86.381 0 0 0-1.968 2.924s-2.338 8.34 4.005 10.788c6.343 2.447 10.072-1.403 10.072-1.403s1.756-2.033 3.843-5.06c1.057.467 2.09.914 3.098 1.351-1.896 2.536-3.273 4.642-3.71 5.292a2.845 2.845 0 0 0-.253.467c-.563 1.34-2.737 7.408 2.42 10.545 5.251 3.19 10.624-2.141 10.624-2.141a56.56 56.56 0 0 0 5.611-7.092c.526.28 1.042.563 1.554.841a87.937 87.937 0 0 0-3.92 6.094 3.532 3.532 0 0 0-.468 2.062c.489 6.311 5.059 6.947 7.643 6.673 1.227-.128 4.407-4.067 7.014-8.747 12.608 8.128 17.822 14.109 22.423 15.732 2.682 1.04 5.094.079 6.097-.44.288-.131.578-.278.879-.442a6.675 6.675 0 0 0 1.31-.914.146.146 0 0 0 .021-.016c6.261-5.657-6.579-18.845-12.034-23.95 5.878 5.007 14.776 11.849 21.993 14.231.169.058.255.082.255.082a12.54 12.54 0 0 0 3.369.724c.302.028.599.045.889.049h.427c1.499-.03 2.832-.416 3.928-1.257a5.518 5.518 0 0 0 1.403-1.545 5.216 5.216 0 0 0 .666-3.439c-.715-6.858-11.063-16.503-15.881-20.656l.198-.101c3.678 2.571 8.099 5.472 12.564 8.022.825.468 1.632.914 2.423 1.34 3.184 1.709 6.328 3.165 9.178 4.112l.047.018a17.253 17.253 0 0 0 5.473 1.134h.842c1.375-.038 2.558-.353 3.481-1.022.34-.249.653-.533.935-.846a5.131 5.131 0 0 0 1.182-2.014c.235-.753.293-1.55.17-2.329-.524-6.561-9.172-15.523-12.391-18.648a228.315 228.315 0 0 0 7.677 6.077s.351.271.973.729c5.162 3.839 10.453 7.319 14.801 9.21 2.589 1.169 4.91 1.847 6.374 1.456a4.061 4.061 0 0 0 1.559-.455 9.26 9.26 0 0 0 1.847-1.387 10.434 10.434 0 0 0 2.181-2.704 8.665 8.665 0 0 0 1.125-2.714c.058-.279.088-.563.091-.848v-.031c-.03-3.415-2.499-7.353-4.933-9.749l-7.273-7.165 23.695-1.538v9.046l78.298 12.33v-.607a157.14 157.14 0 0 0-20.432-77.706Z" fill="#fff"/><path d="M96.546 72.707a.313.313 0 0 1-.236-.521 157.79 157.79 0 0 1 110.917-53.379.315.315 0 0 1 .149.597.312.312 0 0 1-.119.03C164.4 21.538 125.167 40.421 96.78 72.601a.316.316 0 0 1-.234.105ZM365.96 223.613a.33.33 0 0 1-.202-.072.313.313 0 0 1-.1-.335 157.011 157.011 0 0 0 6.88-50.695.324.324 0 0 1 .087-.225.32.32 0 0 1 .446-.013.313.313 0 0 1 .096.222 157.61 157.61 0 0 1-6.908 50.896.315.315 0 0 1-.299.222Z" fill="#002E5D"/><path d="M290.339 334.864c41.059 0 74.344-33.279 74.344-74.33 0-41.051-33.285-74.33-74.344-74.33-41.06 0-74.345 33.279-74.345 74.33 0 41.051 33.285 74.33 74.345 74.33Z" fill="#BBD1DC"/><path d="M400.287 81.17 292.134 95.82v58.157l117.634 18.524-9.481-91.33ZM108.575 91.727l1.078 60.96-92.642 13.354-9.695-84.87 101.259 10.556Z" fill="#fff"/><path d="m275.633 153.633-41.003-40.366-46.504-7.566-25.086-5.143h-54.309l.812 45.911c8.243 6.133 22.04 14.583 44.905 24.31 47.254 20.102 47.694 36.465 59.031 30.301 10.085-5.489-8.027-22.515-12.177-26.232 8.321 7.277 25.276 20.598 32.332 15.173 7.678-5.9-7.57-20.257-13.794-25.61l.26-.128c10.754 7.48 27.877 17.982 33.9 13.604 9.048-6.568-11.321-24.932-11.321-24.932 10.989 9.184 27.044 21.185 32.615 18.111 2.586-1.426 5.265-5.142 5.241-7.683-.011-3.413-2.478-7.354-4.902-9.75Z" fill="#fff"/><path d="M160.068 102.281s.538 5.278 13.357 7.971l14.79-4.551 46.504 7.566 33.718 33.192 23.697-1.538V99.918h-12.059L229.872 83.97l-44.166 3.878-25.638 14.432Z" fill="#fff"/><path d="m162.584 105.822 30.662-11.047 38.995-1.57 39.651 24.728h20.251v26.998l-23.697 1.538-33.807-33.192-46.424-7.576-14.79 4.551s-6.039-.942-10.841-4.43Z" fill="#F4B18F"/><path d="m292.134 117.933 111.242-6.963 6.392 61.532-117.634-18.525v-36.044Z" fill="#F70431"/><path d="m109.003 115.85.649 36.837-92.64 13.354-6.437-56.49 98.428 6.299Z" fill="#325D9C"/><path d="m109.003 115.85 51.065 2.585 74.361 10.556s38.424 43.293 46.125 35.271c0 0-1.307 5.715-6.658 7.246-5.352 1.531-22.211-11.381-22.211-11.381l-8.996-7.174-10.862-9.584-20.808-3.609s42.305 43.132 45.122 31.79c0 0 1.522 3.962-2.122 6.33-3.645 2.368-9.698-.114-9.698-.114a74.447 74.447 0 0 1-14.916-7.49l-9.294-5.993-9.092-6.751-21.579-7.358s44.872 45.558 45.954 33.297c0 0 1.789 4.077-1.76 6.545-3.549 2.469-8.522.491-8.522.491s-8.805-2.601-23.81-15.661l-4.675-4.357-5.693-.654s22.175 32.781 25.46 25.191c0 0 1.253 4.207-3.208 6.208 0 0-3.065 2.087-6.59.722-3.526-1.365-11.73-8.597-12.95-9.172 0 0-5.494-4.165-10.666-7.358-5.172-3.193-11.297-7.013-19.912-10.832-8.616-3.82-21.722-9.301-30.627-14.126-8.906-4.824-18.973-10.738-22.912-14.001l-.526-30.617Z" fill="#F4B18F"/><path d="M120.101 156.132s-2.691 8.186 3.565 10.872c6.257 2.686 10.126-.97 10.126-.97s16.482-17.447 10.126-26.18c-6.357-8.733-23.817 16.278-23.817 16.278Zm16.546 10.404s-2.338 8.341 4.005 10.79c6.342 2.45 10.071-1.402 10.071-1.402s15.737-18.233 9.025-26.732c-6.712-8.499-23.101 17.344-23.101 17.344Zm17.307 10.987c-.1.146-.184.303-.252.467-.561 1.342-2.736 7.41 2.42 10.544 5.248 3.191 10.623-2.141 10.623-2.141s15.181-15.733 8.884-24.555c-5.954-8.352-20.092 13.31-21.675 15.685Zm15.564 10.778a3.55 3.55 0 0 1 .468-2.06c2.258-3.861 11.301-18.527 16.428-14.894 5.887 4.172-6.532 23.342-9.263 23.629-2.571.272-7.142-.355-7.633-6.675Z" fill="#F4B18F"/><path d="M143.204 138.982c3.173 2.338 2.944 9.184-1.225 14.846-4.168 5.661-10.691 7.989-13.864 5.656-3.172-2.333-2.366-8.817 1.801-14.478 4.166-5.662 10.116-8.357 13.288-6.024Zm15.616 9.296c3.319 2.118 3.626 9.362-.155 15.288-3.78 5.925-10.217 8.288-13.541 6.168-3.325-2.12-2.946-8.648.837-14.565 3.783-5.916 9.539-9.011 12.859-6.891Zm15.813 12.452c3.32 2.12 3.58 8.721-.201 14.647-3.78 5.925-10.177 8.924-13.497 6.821-3.32-2.104-2.962-8.319.821-14.243 3.783-5.923 9.555-9.343 12.877-7.225Zm11.606 10.481c1.945 1.349 2.586 5.51.175 8.979-2.41 3.469-6.957 4.934-8.9 3.585-1.943-1.348-1.583-5.065.825-8.534 2.408-3.469 5.957-5.381 7.9-4.03Z" fill="#fff"/><path d="M409.768 172.817h-.049l-117.634-18.529a.31.31 0 0 1-.264-.311V95.82a.316.316 0 0 1 .271-.313L400.245 80.86a.32.32 0 0 1 .316.16.31.31 0 0 1 .037.118l9.479 91.333a.336.336 0 0 1-.014.13.323.323 0 0 1-.17.189.312.312 0 0 1-.127.027h.002ZM292.45 153.711l116.963 18.419-9.401-90.604-107.56 14.568-.002 57.617Z" fill="#002E5D"/><path d="M173.425 110.565a.386.386 0 0 1-.068 0c-13.004-2.805-13.583-8.029-13.602-8.251a.313.313 0 0 1 .159-.3l25.638-14.438a.332.332 0 0 1 .126-.04l44.166-3.876a.306.306 0 0 1 .122.012l50.153 15.925h12.015a.316.316 0 1 1 0 .629h-12.059a.262.262 0 0 1-.096-.016l-50.144-15.92-44.035 3.865-25.379 14.287c.25.935 1.973 5.08 12.99 7.48l19.526-6.007a.36.36 0 0 1 .103-.014l37.487 1.077a.315.315 0 0 1 .281.323.322.322 0 0 1-.09.212.321.321 0 0 1-.21.094l-37.435-1.077-19.557 6.016a.284.284 0 0 1-.091.019Z" fill="#002E5D"/><path d="M168.183 104.174a.31.31 0 0 1-.284-.448.314.314 0 0 1 .179-.162c2.237-.79 5.592-1.987 6.188-2.237.234-.717 1.102-5.32 1.611-8.18a.314.314 0 0 1 .13-.204.312.312 0 0 1 .235-.05.317.317 0 0 1 .255.365c-1.494 8.345-1.684 8.469-1.822 8.563-.215.142-4.096 1.521-6.389 2.337a.3.3 0 0 1-.103.016Zm-151.171 62.18a.317.317 0 0 1-.274-.159.31.31 0 0 1-.037-.119L7.003 81.218a.309.309 0 0 1 .206-.332.313.313 0 0 1 .138-.016l101.258 10.554a.315.315 0 0 1 .283.306l1.076 60.959a.314.314 0 0 1-.269.318l-92.639 13.345-.044.002Zm-9.338-84.83 9.616 84.159 92.045-13.27-1.069-60.403L7.674 81.524Z" fill="#002E5D"/><path d="M163.128 100.871h-54.397a.316.316 0 0 1 0-.628h54.397a.315.315 0 0 1 0 .628Zm110.132 70.99c-11.283 0-40.339-27.075-41.665-28.316a.357.357 0 0 1-.073-.1.315.315 0 0 1 .275-.451.32.32 0 0 1 .229.083c.086.082 8.807 8.228 18.483 15.675 12.714 9.785 21.276 13.946 24.74 12.031 2.584-1.428 5.102-5.095 5.081-7.405-.028-3.321-2.45-7.178-4.837-9.53l-40.914-40.296-46.404-7.55a.32.32 0 0 1-.192-.131.325.325 0 0 1-.05-.227.318.318 0 0 1 .343-.264l46.501 7.567a.328.328 0 0 1 .171.086l40.996 40.369c2.478 2.44 4.994 6.47 5.024 9.969.023 2.791-2.885 6.571-5.405 7.962a4.727 4.727 0 0 1-2.303.528Z" fill="#002E5D"/><path d="M250.353 179.227c-12.251 0-38.289-20.467-39.528-21.449a.312.312 0 0 1-.116-.21.311.311 0 0 1 .276-.347.313.313 0 0 1 .23.066c.302.234 27.121 21.33 39.105 21.332 1.44 0 2.665-.304 3.605-.984a5.05 5.05 0 0 0 2.181-3.974c.421-7.823-13.359-20.385-13.497-20.511a.326.326 0 0 1-.103-.217.314.314 0 0 1 .524-.251c.578.522 14.14 12.889 13.703 21.01a5.646 5.646 0 0 1-2.441 4.441c-1.033.76-2.375 1.094-3.939 1.094Z" fill="#002E5D"/><path d="M229.575 191.613c-4.323 0-10.401-2.793-18.156-8.354-8.012-5.746-14.947-12.476-15.015-12.541a.312.312 0 0 1 .226-.511.313.313 0 0 1 .214.069c.234.234 21.42 20.713 32.731 20.715 1.52 0 2.862-.369 3.954-1.208a4.772 4.772 0 0 0 1.989-3.962c.056-8.666-18.063-23.069-18.236-23.212a.315.315 0 0 1 .157-.558.314.314 0 0 1 .231.065c.758.596 18.543 14.738 18.484 23.709a5.409 5.409 0 0 1-2.235 4.455c-1.164.89-2.612 1.334-4.344 1.333Zm-108.149-36.979a.318.318 0 0 1-.161-.045c-4.1-2.42-8.075-5.046-11.909-7.868a.31.31 0 0 1 .028-.521.31.31 0 0 1 .348.019 141.158 141.158 0 0 0 11.856 7.831.307.307 0 0 1 .09.082.303.303 0 0 1 .059.232.344.344 0 0 1-.042.116.306.306 0 0 1-.269.154Zm36.292 17.837a.308.308 0 0 1-.126-.028 282.73 282.73 0 0 0-3.091-1.341.314.314 0 0 1 .11-.606.27.27 0 0 1 .122.026c.991.421 2.008.862 3.107 1.349a.31.31 0 0 1 .182.352.31.31 0 0 1-.308.248h.004Z" fill="#002E5D"/><path d="M209.134 202.707c-3.317 0-6.312-2.354-11.152-6.16-3.481-2.734-7.813-6.138-13.959-10.098a.315.315 0 0 1-.117-.449.32.32 0 0 1 .212-.14.312.312 0 0 1 .246.061c6.17 3.974 10.521 7.389 14.007 10.133 4.82 3.789 7.661 6.022 10.754 6.022 1.323 0 2.693-.407 4.286-1.274 1.697-.921 2.616-2.186 2.805-3.867.844-7.194-12.335-19.422-14.986-21.799l-.11-.098a20.667 20.667 0 0 0-.587-.517l-.079-.07a3.026 3.026 0 0 1-.108-.093.315.315 0 0 1 .423-.468l.094.08.084.074c.129.11.33.288.594.522l.112.1c3.776 3.39 16.043 15.023 15.197 22.337-.22 1.87-1.275 3.334-3.136 4.346-1.692.93-3.165 1.358-4.58 1.358Zm-35.202-22.286a.3.3 0 0 1-.149-.04c-.51-.279-1.027-.558-1.55-.837a.311.311 0 0 1-.129-.425.31.31 0 0 1 .186-.152.31.31 0 0 1 .239.023c.526.283 1.045.561 1.555.84a.315.315 0 0 1-.152.591Zm-35.277-16.545a.32.32 0 0 1-.136-.03c-.656-.321-1.303-.64-1.94-.958a.305.305 0 0 1-.157-.183.31.31 0 0 1 .093-.336.314.314 0 0 1 .347-.042 238.2 238.2 0 0 0 1.931.953.317.317 0 0 1 .17.354.312.312 0 0 1-.308.242Z" fill="#002E5D"/><path d="M128.123 168.304a11.549 11.549 0 0 1-4.59-1.005c-6.439-2.775-3.757-11.181-3.729-11.265a.366.366 0 0 1 .04-.082c.519-.741 12.777-18.167 20.536-18.246 1.541-.017 2.806.65 3.783 1.977 2.717 3.74 1.821 9.35-2.665 16.706a67.887 67.887 0 0 1-7.481 9.867c-.045.047-2.231 2.048-5.894 2.048Zm-7.73-12.031c-.219.701-2.349 7.973 3.395 10.448 5.971 2.571 9.635-.767 9.787-.909.152-.143 16.216-17.344 10.088-25.757-.844-1.169-1.899-1.72-3.222-1.72h-.047c-7.278.072-19.351 17.01-20.001 17.938Z" fill="#002E5D"/><path d="M139.885 150.129a.29.29 0 0 1-.059 0c-.367-.074-4.189-2.671-6.436-4.207a.314.314 0 1 1 .355-.517c2.09 1.433 5.459 3.71 6.14 4.077.584-.421 3.072-3.062 5.234-5.465a.316.316 0 0 1 .468.421c-4.772 5.285-5.466 5.691-5.702 5.691Zm4.862 28.329a11.693 11.693 0 0 1-4.208-.83c-6.546-2.522-4.208-11.08-4.194-11.167a.347.347 0 0 1 .037-.084c.487-.766 12.006-18.795 19.754-19.193 1.538-.077 2.838.538 3.86 1.83 2.868 3.638 2.209 9.325-1.967 16.903a68.07 68.07 0 0 1-7.065 10.229c-.04.037-2.298 2.312-6.217 2.312Zm-7.811-11.784c-.189.701-2.017 8.116 3.828 10.367 6.078 2.337 9.585-1.169 9.735-1.318.149-.15 15.477-18.111 9.001-26.318-.9-1.141-1.994-1.662-3.334-1.594-7.25.371-18.617 17.905-19.23 18.861v.002Z" fill="#002E5D"/><path d="M156.145 159.687h-.049c-.372-.06-4.297-2.512-6.605-3.973a.315.315 0 0 1 .098-.571.314.314 0 0 1 .237.04c2.146 1.356 5.611 3.506 6.312 3.845.568-.449 2.943-3.207 5.003-5.71a.32.32 0 0 1 .213-.121.324.324 0 0 1 .234.069.307.307 0 0 1 .114.217.307.307 0 0 1-.077.232c-4.613 5.594-5.251 5.972-5.48 5.972Zm3.526 30.173a7.017 7.017 0 0 1-3.718-1.056c-5.405-3.273-3.069-9.682-2.546-10.933.077-.183.171-.358.281-.524l.119-.177c4.325-6.512 12.461-17.452 18.332-17.55 1.499-.016 2.763.661 3.741 2.038 2.651 3.717 1.936 9.224-2.069 15.93a56.33 56.33 0 0 1-6.848 9.025c-.045.047-3.318 3.247-7.292 3.247Zm-5.459-12.155a2.29 2.29 0 0 0-.234.419c-.489 1.168-2.675 7.134 2.293 10.154 4.969 3.02 10.187-2.043 10.241-2.104.145-.152 14.92-15.643 8.851-24.151-.867-1.216-1.922-1.793-3.222-1.774-4.079.067-10.574 6.362-17.819 17.267l-.11.189Z" fill="#002E5D"/><path d="M172.466 171.663a.332.332 0 0 1-.063 0c-.367-.077-4.171-2.716-6.406-4.285a.314.314 0 0 1 .36-.514c2.079 1.456 5.429 3.768 6.109 4.144.526-.395 2.612-2.716 4.442-4.869a.315.315 0 0 1 .55.04.323.323 0 0 1 .028.13.329.329 0 0 1-.029.131.322.322 0 0 1-.081.106c-4.012 4.726-4.671 5.117-4.91 5.117Zm3.729 23.678c-1.311 0-3.086-.275-4.538-1.484-1.452-1.208-2.261-3.055-2.452-5.53a3.833 3.833 0 0 1 .519-2.244c1.964-3.357 8.772-14.392 14.027-15.526a3.482 3.482 0 0 1 2.855.533c1.751 1.239 2.156 3.714 1.204 7.351-.837 3.2-2.731 7.2-5.195 10.987-1.793 2.751-4.161 5.738-5.419 5.869a9.3 9.3 0 0 1-1.001.044Zm-6.364-7.066c.178 2.303.935 4.016 2.226 5.098 1.693 1.403 3.902 1.403 5.071 1.288 1.681-.175 8.195-9.207 10.072-16.381.603-2.309.935-5.343-.959-6.68a2.855 2.855 0 0 0-2.359-.431c-5.003 1.08-11.689 11.922-13.616 15.227a3.23 3.23 0 0 0-.435 1.87v.009Z" fill="#002E5D"/><path d="M183.873 181.003a.317.317 0 0 1-.159-.044l-4.171-2.441a.313.313 0 0 1-.112-.43.313.313 0 0 1 .43-.112l3.947 2.312 3.864-4.222a.315.315 0 0 1 .468.423l-4.038 4.411a.307.307 0 0 1-.229.103Zm84.564-34.218a.317.317 0 0 1-.3-.306.316.316 0 0 1 .281-.323l23.697-1.538a.316.316 0 0 1 .334.293.314.314 0 0 1-.294.333l-23.697 1.541h-.021Z" fill="#002E5D"/><path d="M148.818 246.97c0 29.882-24.228 54.106-54.114 54.106-29.886 0-54.117-24.224-54.117-54.106 0-29.883 24.228-54.106 54.117-54.106a54.06 54.06 0 0 1 54.114 54.106Z" fill="#3B82F4"/><path d="M146.284 230.558 94.189 282.64l-26.886-26.882 10.661-10.656 16.223 16.22 45.076-45.06a53.857 53.857 0 0 1 7.021 14.296Z" fill="#325D9C"/><path d="M92.233 274.547 65.35 247.671l10.659-10.659 16.222 16.22 53.818-53.805 10.658 10.657-64.475 64.463Z" fill="#fff"/><path d="M94.19 282.955a.328.328 0 0 1-.12-.023.32.32 0 0 1-.103-.068l-26.886-26.881a.314.314 0 0 1-.091-.222.325.325 0 0 1 .09-.234l10.662-10.657a.318.318 0 0 1 .444 0l16.001 15.998 53.595-53.571a.317.317 0 0 1 .444 0l10.661 10.659a.314.314 0 0 1 0 .445l-6.247 6.245a.314.314 0 0 1-.444-.444l6.025-6.024-10.217-10.214-53.593 53.584a.314.314 0 0 1-.444 0l-16-16.005-10.218 10.213 26.44 26.435 33.569-33.555a.314.314 0 0 1 .444.444l-33.79 33.784a.32.32 0 0 1-.103.068.329.329 0 0 1-.12.023Z" fill="#002E5D"/><path d="M94.701 301.389a54.438 54.438 0 0 1-38.487-15.939 54.414 54.414 0 0 1 0-76.961A54.438 54.438 0 0 1 94.7 192.55a.323.323 0 0 1 .24.082.322.322 0 0 1 .103.233.314.314 0 0 1-.343.314c-29.666.005-53.798 24.13-53.798 53.791 0 29.66 24.135 53.792 53.8 53.792a53.695 53.695 0 0 0 36.005-13.826.312.312 0 0 1 .36-.071c.04.018.075.044.105.076a.332.332 0 0 1 .065.112.32.32 0 0 1-.109.351A54.336 54.336 0 0 1 94.7 301.389ZM362.218 383H89.983a.312.312 0 0 1-.313-.313c0-.083.033-.163.092-.222a.316.316 0 0 1 .221-.091h272.235a.314.314 0 0 1 0 .626Zm-112.77-60.064a.311.311 0 0 1-.173-.052 75.174 75.174 0 0 1-29.386-37.572.317.317 0 0 1 .013-.24.31.31 0 0 1 .179-.16.316.316 0 0 1 .4.191 74.567 74.567 0 0 0 29.14 37.258.312.312 0 0 1 .014.513.315.315 0 0 1-.187.062Zm58.982 10.03a.314.314 0 0 1-.075-.62 74.043 74.043 0 0 0 55.94-68.49 74.034 74.034 0 0 0-12.654-44.825 74.058 74.058 0 0 0-36.922-28.402.328.328 0 0 1-.11-.06.302.302 0 0 1-.109-.219.315.315 0 0 1 .424-.313 74.687 74.687 0 0 1 37.234 28.644 74.658 74.658 0 0 1-4.001 89.083 74.682 74.682 0 0 1-39.65 25.192.406.406 0 0 1-.077.01Z" fill="#002E5D"/><path d="M158.937 47.352c5.588-5.588 5.588-14.647 0-20.235-5.589-5.587-14.65-5.587-20.239 0-5.588 5.588-5.588 14.647 0 20.235 5.589 5.587 14.65 5.587 20.239 0Zm-30.313 282.923a6.597 6.597 0 0 0-5.682-7.4 6.597 6.597 0 1 0 5.682 7.4Z" fill="#BBD1DC"/><path d="M334.037 222.299a6.597 6.597 0 0 0-5.455-7.568 6.597 6.597 0 1 0-2.114 13.023 6.599 6.599 0 0 0 7.569-5.455Z" fill="#F3F8FF"/><path d="m303.454 379.966 9.824-17.172.627 14.537 12.653-5.951-2.593 4.771 15.482 3.815h-35.993Z" fill="#3B82F4"/><path d="M300.546 379.164a.328.328 0 0 1-.225-.095.301.301 0 0 1-.089-.223.326.326 0 0 1 .026-.119l8.069-18.859a.313.313 0 0 1 .601.133l-.508 17.197 15.127-8.679a.317.317 0 0 1 .432.425l-4.676 8.518 21.294 1.073a.322.322 0 0 1 .28.209.321.321 0 0 1-.086.338.32.32 0 0 1-.226.082l-21.795-1.099a.324.324 0 0 1-.259-.161.313.313 0 0 1 0-.304l4.386-7.978-14.643 8.401a.316.316 0 0 1-.318 0 .311.311 0 0 1-.152-.28l.468-16.103-7.416 17.335a.318.318 0 0 1-.29.189Z" fill="#002E5D"/><path d="m212.906 224.424 2.915 9.161h1.204l1.817 16.129 2.742-.767.902 4.275-13.681 9.06-3.778 43.616 1.227.334-3.322 3.74 1.012 1.603.148 5.059 3.207 1.038 2.551-8.911 3.799.965-1.66 65.45h.914l-1.915 3.521-4.091.785v1.636h11.797l.124-.446-1.613-4.423.157-1.084.577-.064 8.115-50.545 8.001 50.609h1.599l-2.037 3.429-4.25.911.082 1.613 11.865.101.098-.309-2.025-5.729 1.317-.016-2.203-65.993 5.824-1.87-1.463-16.128s1.87-.701 2.123-3.329c.252-2.627 2.359-25.528 2.359-25.528l-16.326-9.901-.234-9.137.566.088.196-8.882 2.766-6.926-21.406-3.135Z" fill="#fff"/><path d="m213.64 226.654 19.828 3.058-1.924 4.771-.131 8.796-2.583-.307-.412-8.424-12.522-1.052-2.256-6.842Z" fill="#325D9C"/><path d="m217.025 233.585 7.033.596.404 13.962-5.62 1.573-1.817-16.131Zm12.099 9.422-.442 6.709-6.361 2.725 1.012 4.795 7.685-3.259-.236-10.699-1.658-.271Z" fill="#F4B18F"/><path d="m233.837 254.089-.804 25.29 4.559 1.666.961-10.434 1.976 4.144-.503 7.415a1.72 1.72 0 0 1-.782 1.329 1.72 1.72 0 0 1-1.533.174l-14.469-5.297-1.532 4.282 11.223 5.456.046 22.868 11.332-3.703-1.463-16.101s1.887-.642 2.172-3.74l2.319-25.132-13.502-8.217Z" fill="#3B82F4"/><path d="m223.331 278.425-6.942-3.847-4.589-.384.961 4.114 8.949 4.35 1.621-4.233Z" fill="#F4B18F"/><path d="m225.423 256.495-7.633 14.838 2.104 3.245 10.783 3.941.341-17.485-.171-6.869-5.424 2.33Zm-9.724 23.097 1.506 25.097-2.752 70.551 3.517-.066 8.075-50.632-1.646-10.383 2.406 3.511 9.84 57.504 4.047-.049-2.214-65.882-8.251 2.578-.051-25.105-14.477-7.124Z" fill="#325D9C"/><path d="m222.669 254.089-11.825 9.579-4.382 42.618 3.395.918v1.662l5.398 1.227.58-28.239-.119-2.064-2.815-1.414-1.695-6.746 3.827 1.019 6.376-12.964 1.924-2.449-.664-3.147Z" fill="#3B82F4"/><path d="m206.107 306.262-.921 10.72 2.12.687 2.633-8.959-.082-1.676-3.75-.772Z" fill="#F4B18F"/><path d="M231.348 243.685h-.05l-2.518-.395a.316.316 0 0 1-.268-.301l-.339-8.198-12.307-.965a.322.322 0 0 1-.276-.218l-3.012-9.132a.312.312 0 0 1 .059-.304.315.315 0 0 1 .292-.11l21.427 3.249a.321.321 0 0 1 .234.157.325.325 0 0 1 .019.276l-2.747 6.813-.197 8.827a.322.322 0 0 1-.317.311v-.01Zm-2.212-.986 1.901.297.189-8.52a.335.335 0 0 1 .023-.113l2.614-6.486-20.513-3.118 2.782 8.436 12.377.97c.078.006.15.041.204.098.054.056.085.13.088.208l.335 8.228Z" fill="#002E5D"/><path d="M218.842 250.036a.299.299 0 0 1-.178-.056.31.31 0 0 1-.138-.233l-1.81-16.124a.325.325 0 0 1 .061-.244.327.327 0 0 1 .218-.123.31.31 0 0 1 .24.073.314.314 0 0 1 .113.224l1.774 15.759 7.042-1.973v-4.729a.32.32 0 0 1 .536-.208.314.314 0 0 1 .102.208v4.967a.318.318 0 0 1-.233.307l-7.634 2.138a.27.27 0 0 1-.093.014Z" fill="#002E5D"/><path d="M223.349 257.636a.323.323 0 0 1-.311-.253l-1.25-5.923a.313.313 0 0 1 .045-.24.314.314 0 0 1 .201-.137.319.319 0 0 1 .378.246l1.169 5.545 7.114-2.99-.234-10.598a.323.323 0 0 1 .089-.228.322.322 0 0 1 .225-.097.32.32 0 0 1 .318.311l.233 10.813a.32.32 0 0 1-.194.302l-7.668 3.223a.344.344 0 0 1-.115.026Z" fill="#002E5D"/><path d="M206.025 296.246h-.028a.317.317 0 0 1-.29-.343l2.78-33.644a.334.334 0 0 1 .045-.133.337.337 0 0 1 .098-.101l13.681-9.06a.32.32 0 0 1 .441.09.32.32 0 0 1-.09.441l-13.56 8.974-2.768 33.489a.32.32 0 0 1-.309.287Z" fill="#002E5D"/><path d="M215.255 310.411a.217.217 0 0 1-.072 0l-5.429-1.234a.314.314 0 0 1-.248-.315l.494-25.121a.322.322 0 0 1 .095-.221.32.32 0 0 1 .223-.09.306.306 0 0 1 .222.096.32.32 0 0 1 .089.226l-.489 24.862 4.795 1.091.437-27.739a.33.33 0 0 1 .099-.223.33.33 0 0 1 .226-.092.321.321 0 0 1 .314.325l-.445 28.132a.316.316 0 0 1-.318.313l.007-.01Z" fill="#002E5D"/><path d="M209.904 307.515a5.877 5.877 0 0 1-.989-.234l-4.636-1.255a.314.314 0 0 1-.193-.149.318.318 0 0 1 .359-.466l5.489 1.487-.079.306.196.255a.202.202 0 0 1-.147.056Z" fill="#002E5D"/><path d="M202.939 310.293a.32.32 0 0 1-.315-.372.326.326 0 0 1 .081-.164l3.432-3.707a.319.319 0 0 1 .468.432l-3.432 3.708a.331.331 0 0 1-.234.103Zm4.367 7.695a.367.367 0 0 1-.098-.017L204 316.936a.321.321 0 0 1-.219-.295l-.15-5.058a.322.322 0 0 1 .189-.3.323.323 0 0 1 .122-.027c.083 0 .162.032.222.089a.322.322 0 0 1 .096.219l.14 4.834 2.682.867 2.427-8.494a.315.315 0 0 1 .394-.219.33.33 0 0 1 .11.057c.033.026.06.058.08.095a.298.298 0 0 1 .038.118.305.305 0 0 1-.01.124l-2.518 8.81a.322.322 0 0 1-.297.232Zm33.746-26.045a4.269 4.269 0 0 1-1.87-.435l-26.559-12.912a.325.325 0 0 1-.171-.215l-1.555-6.646a.325.325 0 0 1 .004-.161.33.33 0 0 1 .083-.139.327.327 0 0 1 .14-.08.33.33 0 0 1 .162-.001l4.909 1.267a.318.318 0 1 1-.159.617l-4.402-1.136 1.403 5.987 26.418 12.856a3.626 3.626 0 0 0 3.357-.103 3.627 3.627 0 0 0 1.827-2.817l2.354-25.53-13.651-8.319a.305.305 0 0 1-.091-.084.299.299 0 0 1-.052-.113.317.317 0 0 1 .475-.345l13.822 8.415a.319.319 0 0 1 .149.301l-2.361 25.736a4.201 4.201 0 0 1-2.146 3.312 4.245 4.245 0 0 1-2.086.545Z" fill="#002E5D"/><path d="M237.665 281.392a.36.36 0 0 1-.108-.019l-17.768-6.498a.316.316 0 0 1-.159-.126l-2.616-4.065a.318.318 0 1 1 .535-.344l2.558 3.974 17.279 6.311.854-10.147a.311.311 0 0 1 .343-.29.319.319 0 0 1 .29.344l-.888 10.56a.334.334 0 0 1-.046.134.326.326 0 0 1-.099.1.312.312 0 0 1-.175.066Zm-15.179-.395a.326.326 0 0 1-.285-.176.325.325 0 0 1-.019-.243l1.511-4.602a.32.32 0 0 1 .402-.204.316.316 0 0 1 .203.402l-1.503 4.603a.317.317 0 0 1-.309.22Z" fill="#002E5D"/><path d="M230.676 278.837a.318.318 0 0 1-.311-.325l.342-17.648a.317.317 0 0 1 .547-.213c.059.061.09.142.089.227l-.342 17.645a.322.322 0 0 1-.202.292.323.323 0 0 1-.123.022Zm-.5 33.351a.315.315 0 0 1-.283-.174.34.34 0 0 1-.035-.144v-25.098a.318.318 0 0 1 .636 0v24.663l13.478-4.266-1.44-15.962a.32.32 0 0 1 .636-.056l1.461 16.215a.317.317 0 0 1-.219.332l-14.133 4.464a.274.274 0 0 1-.101.026Z" fill="#002E5D"/><path d="M230.176 304.883h-11.615a.314.314 0 0 1-.224-.093.315.315 0 0 1 0-.449.314.314 0 0 1 .224-.093h11.615a.316.316 0 0 1 .318.317.316.316 0 0 1-.318.318Zm10.516 70.609h-6.646a.323.323 0 0 1-.208-.076.326.326 0 0 1-.108-.193l-9.674-61.191a.318.318 0 1 1 .628-.1l9.633 60.929h6.046l-2.203-65.602a.317.317 0 0 1 .021-.122.307.307 0 0 1 .166-.178.315.315 0 0 1 .243-.008.34.34 0 0 1 .106.065.327.327 0 0 1 .1.222l2.214 65.932a.3.3 0 0 1-.194.301.324.324 0 0 1-.124.021Z" fill="#002E5D"/><path d="M217.921 375.492h-5.925a.312.312 0 0 1-.233-.096.315.315 0 0 1-.092-.234l1.581-62.315a.32.32 0 0 1 .318-.311.318.318 0 0 1 .311.325l-1.571 61.99h5.342l8.08-50.34a.316.316 0 0 1 .364-.264.313.313 0 0 1 .208.128c.05.068.07.153.057.237l-8.125 50.609a.317.317 0 0 1-.315.271Zm.9 5.956h-12.09a.32.32 0 0 1-.318-.321v-1.61a.318.318 0 0 1 .26-.313l4.101-.765 1.342-2.337a.316.316 0 0 1 .583.076.318.318 0 0 1-.032.242l-1.402 2.468a.329.329 0 0 1-.218.154l-3.986.741v1.029h11.318l-1.473-4.441a.33.33 0 0 1-.018-.125.34.34 0 0 1 .032-.121.34.34 0 0 1 .076-.1.328.328 0 0 1 .234-.077.308.308 0 0 1 .279.222l1.613 4.871a.297.297 0 0 1 .013.148.297.297 0 0 1-.171.228.324.324 0 0 1-.143.031Z" fill="#002E5D"/><path d="m209.906 378.926-1.316 2.202h-1.973v-1.578l3.289-.624Zm7.547-1.891-1.426 4.093h2.89l-1.464-4.093Zm23.915 4.413H229.29a.317.317 0 0 1-.226-.094.331.331 0 0 1-.069-.104.344.344 0 0 1-.023-.123v-1.61c0-.074.026-.146.073-.204a.313.313 0 0 1 .186-.109l4.101-.765 1.342-2.337a.335.335 0 0 1 .082-.094.325.325 0 0 1 .353-.023.335.335 0 0 1 .094.082.33.33 0 0 1 .055.111c.01.04.013.083.008.124a.337.337 0 0 1-.04.118l-1.403 2.468a.326.326 0 0 1-.217.154l-3.986.741v1.029h11.318l-1.473-4.441a.33.33 0 0 1-.018-.125.302.302 0 0 1 .032-.121.309.309 0 0 1 .185-.162.307.307 0 0 1 .124-.015.296.296 0 0 1 .121.034.297.297 0 0 1 .098.078.305.305 0 0 1 .061.11l1.613 4.871a.309.309 0 0 1-.044.285.315.315 0 0 1-.269.122Z" fill="#002E5D"/><path d="m232.465 378.926-1.316 2.202h-1.974v-1.578l3.29-.624Zm7.547-1.891-1.426 4.093h2.889l-1.463-4.093Zm-22.987-108.476a.32.32 0 0 1-.317-.344.313.313 0 0 1 .034-.119l4.384-8.555a.313.313 0 0 1 .31-.179.314.314 0 0 1 .293.348.327.327 0 0 1-.037.121l-4.384 8.555a.316.316 0 0 1-.283.173Z" fill="#002E5D"/><path d="m170.512 230.598-21.021 11.519 4.91 19.415-12.625 10.753 8.075 4.88-5.845 23.777s-.883 3.492-.318 8.263c.566 4.771 2.273 10.891 2.273 10.891l1.237 5.906 1.04 6.155.388 2.779 2.425 39.109h.149l-.451 7.91h2.261l.023-5.229h.423l.454 5.229h4.451l.017-5.142h.442l.5 5.142h4.224l.061-2.337-2.899-4.909v-.701l4.29-39.955 3.201-30.102-1.169-15.68 22.727.701h.84l7.147-.024-.024-1.243-4.893-1.849.659-1.26-.806-.626-2.046 1.893h-1.994l-19.896-2.452-.62-1.676 12.122-12.192 5.179-3.792-1.557-3.702-3.776 2.662-.402-2.078-1.075.201-.131 4.416-12.562 8.569-3.839-10.337-.535-.233 1.744-7.562 3.974.977 2.305-15.306 3.809-1.886-2.866-10.874Z" fill="#fff"/><path d="m170.512 230.598 1.655 6.28-15.987 9.832 1.242 16.472-9.497 12.817-6.156-3.719 12.632-10.748-4.91-19.415 21.021-11.519Z" fill="#325D9C"/><path d="m169.569 243.365-2.305 15.306-4.9-1.171-1.101-10.035 8.306-4.1Z" fill="#F4B18F"/><path d="m159.226 264.316 2.855 1.173 4.098 11.045-5.985 3.308-4.552-9.173 3.584-6.353Z" fill="#F70431"/><path d="m160.194 279.842 3.893 5.731 33.641 2.91v-.778l-4.894-1.849.66-1.26-.807-.626-2.046 1.891h-1.996l-19.903-2.462-2.563-6.865-5.985 3.308Z" fill="#F4B18F"/><path d="m166.642 277.897 12.934-9.544 4.835-5.004 1.01 2.403-5.179 3.791-12.089 12.262-1.511-3.908Z" fill="#F4B18F"/><path d="m154.651 276.053-5.997 27.676a14.454 14.454 0 0 0-.21 3.789l2.756 26.516h6.493l1.489-25.058 1.447 3.74.702 21.33h3.672l3.201-30.114-1.169-15.68-4.942-.178-7.442-12.021Z" fill="#F70431"/><path d="m151.752 334.034 1.302 40.004h2.24l2.396-40.004h-5.938Zm8.667.019-2.249 40.015 2.536-.072 4.29-39.943h-4.577Z" fill="#F4B18F"/><path d="M151.443 278.365a.234.234 0 0 1-.121-.036l-9.691-5.857a.233.233 0 0 1-.08-.079.234.234 0 0 1-.035-.106.234.234 0 0 1 .082-.201l12.543-10.605-4.881-19.306a.224.224 0 0 1 .012-.153.23.23 0 0 1 .105-.113l21.02-11.522a.255.255 0 0 1 .297.064c.024.028.04.06.049.095l2.845 10.893a.232.232 0 0 1-.126.276l-14.179 7.012.668 14.787a.25.25 0 0 1-.03.129l-8.27 14.605a.24.24 0 0 1-.147.112.178.178 0 0 1-.061.005Zm-9.281-6.129 9.195 5.565 8.115-14.331-.673-14.887a.23.23 0 0 1 .133-.234l14.144-6.999-2.716-10.411-20.593 11.286 4.872 19.27a.234.234 0 0 1-.077.234l-12.4 10.507Z" fill="#002E5D"/><path d="M167.283 258.914h-.056l-5.894-1.402a.24.24 0 1 1 .11-.468l5.641 1.351 2.249-15.053a.247.247 0 0 1 .094-.155.238.238 0 0 1 .262-.013c.027.016.05.038.068.063a.228.228 0 0 1 .044.175l-2.289 15.311a.232.232 0 0 1-.1.161.232.232 0 0 1-.129.03Zm22.442 27.188h-1.139l-19.886-2.457a.233.233 0 0 1-.194-.154l-6.619-17.845-1.636-.684a.242.242 0 0 1-.129-.129.238.238 0 0 1 .311-.311l1.737.722a.23.23 0 0 1 .131.138l6.6 17.796 19.73 2.438h1.094a.232.232 0 0 1 .234.233.236.236 0 0 1-.234.234v.019Z" fill="#002E5D"/><path d="m189.725 289.21-27.651-.869a.23.23 0 0 1-.111-.032.227.227 0 0 1-.083-.08l-7.425-12.053a.222.222 0 0 1-.034-.086.242.242 0 0 1 .042-.178.231.231 0 0 1 .069-.063.226.226 0 0 1 .087-.034.23.23 0 0 1 .242.111l7.356 11.943 27.522.865a.232.232 0 0 1 .234.233.236.236 0 0 1-.234.234l-.014.009Zm8.026 0h-7.11a.232.232 0 0 1-.233-.233c0-.062.024-.122.068-.166a.236.236 0 0 1 .165-.068h6.872v-.828l-4.788-1.82a.237.237 0 0 1-.138-.143.227.227 0 0 1 .016-.196l.599-1.078-.501-.397-1.898 1.764a.238.238 0 1 1-.325-.348l2.05-1.905a.235.235 0 0 1 .311 0l.818.65a.228.228 0 0 1 .088.14.23.23 0 0 1-.027.164l-.566 1.012 4.676 1.781a.233.233 0 0 1 .155.234v1.229a.24.24 0 0 1-.076.148.23.23 0 0 1-.156.06Z" fill="#002E5D"/><path d="M168.134 282.044a.245.245 0 0 1-.137-.036.237.237 0 0 1-.103-.249.235.235 0 0 1 .072-.122l12.127-12.284.03-.025 4.984-3.649-1.334-3.273-3.552 2.539a.233.233 0 0 1-.374-.15l-.353-1.895-.655.131v4.179a.228.228 0 0 1-.105.196l-11.898 8.1a.266.266 0 0 1-.085.036.242.242 0 0 1-.179-.035.23.23 0 0 1-.066-.066.22.22 0 0 1-.036-.085.24.24 0 0 1 .1-.245l11.79-8.027v-4.243a.235.235 0 0 1 .192-.234l1.085-.215a.228.228 0 0 1 .182.034.234.234 0 0 1 .101.156l.329 1.765 3.502-2.504a.257.257 0 0 1 .206-.035.23.23 0 0 1 .154.14l1.52 3.724a.232.232 0 0 1-.082.283l-5.117 3.74-12.116 12.272a.236.236 0 0 1-.182.077Zm-6.549-16.538h-.053a.237.237 0 0 1-.184-.192.224.224 0 0 1 .004-.093l1.141-5.11a.227.227 0 0 1 .104-.15.248.248 0 0 1 .181-.033.241.241 0 0 1 .182.286l-1.141 5.109a.234.234 0 0 1-.234.183Zm-6.272 108.77h-4.267a.233.233 0 0 1-.234-.233l-2.422-39.081c0-.082-1.183-9.619-3.607-18.606-2.446-9.065-1.169-14.811-1.169-14.867l6.003-24.389a.238.238 0 0 1 .04-.085.222.222 0 0 1 .069-.064.223.223 0 0 1 .088-.033.264.264 0 0 1 .093.004.234.234 0 0 1 .149.108.235.235 0 0 1 .029.182l-6.006 24.387c-.012.054-1.256 5.694 1.157 14.633 2.434 9.02 3.61 18.592 3.622 18.686l2.41 38.872h3.82l3.855-64.837a.233.233 0 0 1 .158-.207.232.232 0 0 1 .298.144c.01.029.014.06.012.091l-3.869 65.062a.23.23 0 0 1-.067.163.231.231 0 0 1-.162.07Zm5.424 0h-3.76a.232.232 0 0 1-.233-.233c0-.062.024-.122.068-.166a.236.236 0 0 1 .165-.068h3.545l7.437-69.842-1.169-15.68a.235.235 0 0 1 .216-.251.233.233 0 0 1 .251.216l1.169 15.701a.162.162 0 0 1 0 .044l-7.46 70.076a.23.23 0 0 1-.229.203Z" fill="#002E5D"/><path d="M157.693 334.28h-7.767a.231.231 0 0 1-.165-.069.233.233 0 0 1 .165-.399h7.767c.062 0 .121.025.165.068a.235.235 0 0 1-.165.4Zm7.304 0h-5.345a.233.233 0 0 1-.165-.069.233.233 0 0 1 .165-.399h5.345c.062 0 .121.025.165.068a.235.235 0 0 1-.165.4Zm-11.022 47.876a.23.23 0 0 1-.233-.215l-.489-4.908v4.883a.233.233 0 0 1-.234.233h-2.268a.237.237 0 0 1-.173-.072.252.252 0 0 1-.065-.178l.411-7.194c0-.033.007-.064.02-.094a.23.23 0 0 1 .136-.127.23.23 0 0 1 .094-.013.232.232 0 0 1 .234.25l-.395 6.942h1.775v-4.883a.232.232 0 0 1 .233-.234h.468a.233.233 0 0 1 .234.216l.486 4.908h3.762v-1.954l-2.789-4.862a.232.232 0 0 1 .017-.265.246.246 0 0 1 .072-.06.252.252 0 0 1 .088-.032.231.231 0 0 1 .178.049c.025.02.046.044.061.072l2.819 4.909a.225.225 0 0 1 .031.119v2.265a.233.233 0 0 1-.069.165.231.231 0 0 1-.165.069h-4.208l-.031.011Z" fill="#002E5D"/><path d="M159.327 382.156a.234.234 0 0 1-.234-.215l-.491-4.908v4.883a.236.236 0 0 1-.068.165.235.235 0 0 1-.399-.165v-5.122a.232.232 0 0 1 .233-.234h.468a.233.233 0 0 1 .234.215l.486 4.909h3.762v-1.968l-2.789-4.862a.238.238 0 0 1 .27-.346.236.236 0 0 1 .143.112l2.822 4.909a.235.235 0 0 1 .031.119v2.265a.231.231 0 0 1-.069.165.233.233 0 0 1-.165.069h-4.208l-.026.009Z" fill="#002E5D"/><path d="m156.746 377.119-.33 2.594-2.677-.198.236 2.403 4.218-.012v-2.265l-1.447-2.522Zm5.351 0-.329 2.594-2.68-.198.239 2.403 4.218-.012v-2.265l-1.448-2.522Z" fill="#002E5D"/></svg>