<svg width="16" height="16" fill="none" xmlns="http://www.w3.org/2000/svg"><g clip-path="url(#a)" fill="#002E5D"><path d="M8.003 3.892a4.105 4.105 0 1 0-.001 8.21 4.105 4.105 0 0 0 0-8.21Zm0 6.77a2.664 2.664 0 1 1 0-5.33 2.664 2.664 0 1 1 0 5.33Z"/><path d="M11.299.05C9.827-.018 6.18-.015 4.707.05 3.413.11 2.271.424 1.35 1.344-.19 2.883.008 4.956.008 7.997c0 3.112-.173 5.137 1.342 6.653 1.545 1.544 3.648 1.342 6.653 1.342 3.082 0 4.146.002 5.236-.42 1.482-.576 2.6-1.9 2.71-4.28.07-1.472.066-5.118 0-6.591C15.817 1.892 14.31.189 11.3.05Zm2.33 13.582c-1.01 1.008-2.408.918-5.646.918-3.333 0-4.67.05-5.645-.928-1.123-1.118-.92-2.914-.92-5.636 0-3.683-.378-6.336 3.319-6.525.849-.03 1.099-.04 3.237-.04l.03.02c3.553 0 6.34-.372 6.507 3.324.038.843.047 1.097.047 3.231 0 3.295.062 4.64-.93 5.636Z"/><path d="M12.27 4.69a.96.96 0 1 0 0-1.92.96.96 0 0 0 0 1.92Z"/></g><defs><clipPath id="a"><path fill="#fff" d="M0 0h16v16H0z"/></clipPath></defs></svg>