<svg width="16" height="16" fill="none" xmlns="http://www.w3.org/2000/svg"><g clip-path="url(#a)" fill="#002E5D"><path d="M15.996 16H16v-5.868c0-2.87-.618-5.082-3.974-5.082-1.613 0-2.696.885-3.138 1.724h-.047V5.318H5.66V16h3.314v-5.29c0-1.392.264-2.739 1.988-2.739 1.7 0 1.725 1.59 1.725 2.829V16h3.31ZM.264 5.318H3.58V16H.264V5.318ZM1.921 0C.861 0 0 .86 0 1.921s.86 1.94 1.921 1.94 1.922-.879 1.922-1.94A1.925 1.925 0 0 0 1.92 0Z"/></g><defs><clipPath id="a"><path fill="#fff" d="M0 0h16v16H0z"/></clipPath></defs></svg>