<svg width="1920" height="283" viewBox="0 0 1920 283" fill="none" xmlns="http://www.w3.org/2000/svg">
<rect x="-1" width="1920" height="283" fill="#F3F8FF"/>
<g opacity="0.2" clip-path="url(#clip0_1489_17656)">
<path d="M1520.3 -239.174C1520.3 -222.563 1506.64 -222.563 1506.64 -205.949C1506.64 -189.335 1520.3 -189.338 1520.3 -172.728C1520.3 -156.117 1506.64 -156.114 1506.64 -139.503C1506.64 -122.892 1520.3 -122.892 1520.3 -106.278C1520.3 -89.6636 1506.64 -89.6673 1506.64 -73.053C1506.64 -56.4387 1520.3 -56.4423 1520.3 -39.828C1520.3 -23.2137 1506.64 -23.2174 1506.64 -6.60673C1506.64 10.0039 1520.3 10.0076 1520.3 26.6182C1520.3 43.2289 1506.64 43.2325 1506.64 59.8432C1506.64 76.4538 1520.3 76.4575 1520.3 93.0681C1520.3 109.679 1506.64 109.679 1506.64 126.275C1506.64 142.871 1520.3 142.885 1520.3 159.5C1520.3 176.114 1506.64 176.11 1506.64 192.721C1506.64 209.332 1520.3 209.335 1520.3 225.946C1520.3 242.557 1506.64 242.56 1506.64 259.175C1506.64 275.789 1520.3 275.785 1520.3 292.399C1520.3 309.014 1506.64 309.01 1506.64 325.624C1506.64 342.239 1520.3 342.239 1520.3 358.849C1520.3 375.46 1506.64 375.464 1506.64 392.074C1506.64 408.685 1520.3 408.689 1520.3 425.303C1520.3 441.917 1506.64 441.914 1506.64 458.528C1506.64 475.142 1520.3 475.142 1520.3 491.757C1520.3 508.371 1506.64 508.371 1506.64 524.985" stroke="#BBD1DC" stroke-width="4" stroke-miterlimit="10"/>
<path d="M1485.39 -239.174C1485.39 -222.563 1471.72 -222.563 1471.72 -205.949C1471.72 -189.335 1485.39 -189.338 1485.39 -172.728C1485.39 -156.117 1471.72 -156.114 1471.72 -139.503C1471.72 -122.892 1485.39 -122.892 1485.39 -106.278C1485.39 -89.6636 1471.72 -89.6673 1471.72 -73.053C1471.72 -56.4387 1485.39 -56.4423 1485.39 -39.828C1485.39 -23.2137 1471.72 -23.2174 1471.72 -6.60673C1471.72 10.0039 1485.39 10.0076 1485.39 26.6182C1485.39 43.2289 1471.72 43.2325 1471.72 59.8432C1471.72 76.4538 1485.39 76.4575 1485.39 93.0681C1485.39 109.679 1471.72 109.679 1471.72 126.289C1471.72 142.9 1485.39 142.9 1485.39 159.514C1485.39 176.129 1471.72 176.125 1471.72 192.736C1471.72 209.346 1485.39 209.35 1485.39 225.961C1485.39 242.571 1471.72 242.575 1471.72 259.189C1471.72 275.804 1485.39 275.8 1485.39 292.414C1485.39 309.029 1471.72 309.025 1471.72 325.639C1471.72 342.253 1485.39 342.253 1485.39 358.864C1485.39 375.475 1471.72 375.478 1471.72 392.089C1471.72 408.7 1485.39 408.703 1485.39 425.318C1485.39 441.932 1471.72 441.928 1471.72 458.543C1471.72 475.157 1485.39 475.157 1485.39 491.771C1485.39 508.386 1471.72 508.386 1471.72 525" stroke="#BBD1DC" stroke-width="4" stroke-miterlimit="10"/>
<path d="M1450.47 -239.174C1450.47 -222.563 1436.81 -222.563 1436.81 -205.949C1436.81 -189.335 1450.47 -189.338 1450.47 -172.728C1450.47 -156.117 1436.81 -156.114 1436.81 -139.503C1436.81 -122.892 1450.47 -122.892 1450.47 -106.278C1450.47 -89.6636 1436.81 -89.6673 1436.81 -73.053C1436.81 -56.4387 1450.47 -56.4423 1450.47 -39.828C1450.47 -23.2137 1436.81 -23.2174 1436.81 -6.60673C1436.81 10.0039 1450.47 10.0076 1450.47 26.6182C1450.47 43.2289 1436.81 43.2325 1436.81 59.8432C1436.81 76.4538 1450.47 76.4575 1450.47 93.0681C1450.47 109.679 1436.81 109.679 1436.81 126.289C1436.81 142.9 1450.47 142.9 1450.47 159.514C1450.47 176.129 1436.81 176.125 1436.81 192.736C1436.81 209.346 1450.47 209.35 1450.47 225.961C1450.47 242.571 1436.81 242.575 1436.81 259.189C1436.81 275.804 1450.47 275.8 1450.47 292.414C1450.47 309.029 1436.81 309.025 1436.81 325.639C1436.81 342.253 1450.47 342.253 1450.47 358.864C1450.47 375.475 1436.81 375.478 1436.81 392.089C1436.81 408.7 1450.47 408.703 1450.47 425.318C1450.47 441.932 1436.81 441.928 1436.81 458.543C1436.81 475.157 1450.47 475.157 1450.47 491.771C1450.47 508.386 1436.81 508.386 1436.81 525" stroke="#BBD1DC" stroke-width="4" stroke-miterlimit="10"/>
<path d="M1415.57 -239.174C1415.57 -222.563 1401.9 -222.563 1401.9 -205.949C1401.9 -189.335 1415.57 -189.338 1415.57 -172.728C1415.57 -156.117 1401.9 -156.114 1401.9 -139.503C1401.9 -122.892 1415.57 -122.892 1415.57 -106.278C1415.57 -89.6636 1401.9 -89.6673 1401.9 -73.053C1401.9 -56.4387 1415.57 -56.4423 1415.57 -39.828C1415.57 -23.2137 1401.9 -23.2174 1401.9 -6.60673C1401.9 10.0039 1415.57 10.0076 1415.57 26.6182C1415.57 43.2289 1401.9 43.2325 1401.9 59.8432C1401.9 76.4538 1415.57 76.4575 1415.57 93.0681C1415.57 109.679 1401.9 109.679 1401.9 126.289C1401.9 142.9 1415.57 142.9 1415.57 159.514C1415.57 176.129 1401.9 176.125 1401.9 192.736C1401.9 209.346 1415.57 209.35 1415.57 225.961C1415.57 242.571 1401.9 242.575 1401.9 259.189C1401.9 275.804 1415.57 275.8 1415.57 292.414C1415.57 309.029 1401.9 309.025 1401.9 325.639C1401.9 342.253 1415.57 342.253 1415.57 358.864C1415.57 375.475 1401.9 375.478 1401.9 392.089C1401.9 408.7 1415.57 408.703 1415.57 425.318C1415.57 441.932 1401.9 441.928 1401.9 458.543C1401.9 475.157 1415.57 475.157 1415.57 491.771C1415.57 508.386 1401.9 508.386 1401.9 525" stroke="#BBD1DC" stroke-width="4" stroke-miterlimit="10"/>
<path d="M1380.65 -239.174C1380.65 -222.563 1366.99 -222.563 1366.99 -205.949C1366.99 -189.335 1380.65 -189.338 1380.65 -172.728C1380.65 -156.117 1366.99 -156.114 1366.99 -139.503C1366.99 -122.892 1380.65 -122.892 1380.65 -106.278C1380.65 -89.6636 1366.99 -89.6673 1366.99 -73.053C1366.99 -56.4387 1380.65 -56.4423 1380.65 -39.828C1380.65 -23.2137 1366.99 -23.2174 1366.99 -6.60673C1366.99 10.0039 1380.65 10.0076 1380.65 26.6182C1380.65 43.2289 1366.99 43.2325 1366.99 59.8432C1366.99 76.4538 1380.65 76.4575 1380.65 93.0681C1380.65 109.679 1366.99 109.679 1366.99 126.289C1366.99 142.9 1380.65 142.9 1380.65 159.514C1380.65 176.129 1366.99 176.125 1366.99 192.736C1366.99 209.346 1380.65 209.35 1380.65 225.961C1380.65 242.571 1366.99 242.575 1366.99 259.189C1366.99 275.804 1380.65 275.8 1380.65 292.414C1380.65 309.029 1366.99 309.025 1366.99 325.639C1366.99 342.253 1380.65 342.253 1380.65 358.864C1380.65 375.475 1366.99 375.478 1366.99 392.089C1366.99 408.7 1380.65 408.703 1380.65 425.318C1380.65 441.932 1366.99 441.928 1366.99 458.543C1366.99 475.157 1380.65 475.157 1380.65 491.771C1380.65 508.386 1366.99 508.386 1366.99 525" stroke="#BBD1DC" stroke-width="4" stroke-miterlimit="10"/>
<path d="M1345.74 -239.174C1345.74 -222.563 1332.08 -222.563 1332.08 -205.949C1332.08 -189.335 1345.74 -189.338 1345.74 -172.728C1345.74 -156.117 1332.08 -156.114 1332.08 -139.503C1332.08 -122.892 1345.74 -122.892 1345.74 -106.278C1345.74 -89.6636 1332.08 -89.6673 1332.08 -73.053C1332.08 -56.4387 1345.74 -56.4423 1345.74 -39.828C1345.74 -23.2137 1332.08 -23.2174 1332.08 -6.60673C1332.08 10.0039 1345.74 10.0076 1345.74 26.6182C1345.74 43.2289 1332.08 43.2325 1332.08 59.8432C1332.08 76.4538 1345.74 76.4575 1345.74 93.0681C1345.74 109.679 1332.08 109.679 1332.08 126.289C1332.08 142.9 1345.74 142.9 1345.74 159.514C1345.74 176.129 1332.08 176.125 1332.08 192.736C1332.08 209.346 1345.74 209.35 1345.74 225.961C1345.74 242.571 1332.08 242.575 1332.08 259.189C1332.08 275.804 1345.74 275.8 1345.74 292.414C1345.74 309.029 1332.08 309.025 1332.08 325.639C1332.08 342.253 1345.74 342.253 1345.74 358.864C1345.74 375.475 1332.08 375.478 1332.08 392.089C1332.08 408.7 1345.74 408.703 1345.74 425.318C1345.74 441.932 1332.08 441.928 1332.08 458.543C1332.08 475.157 1345.74 475.157 1345.74 491.771C1345.74 508.386 1332.08 508.386 1332.08 525" stroke="#BBD1DC" stroke-width="4" stroke-miterlimit="10"/>
<path d="M1310.85 -239.174C1310.85 -222.563 1297.18 -222.563 1297.18 -205.949C1297.18 -189.335 1310.85 -189.338 1310.85 -172.728C1310.85 -156.117 1297.18 -156.114 1297.18 -139.503C1297.18 -122.892 1310.85 -122.892 1310.85 -106.278C1310.85 -89.6636 1297.18 -89.6673 1297.18 -73.053C1297.18 -56.4387 1310.85 -56.4497 1310.85 -39.828C1310.85 -23.2063 1297.18 -23.2174 1297.18 -6.60673C1297.18 10.0039 1310.85 10.0076 1310.85 26.6182C1310.85 43.2289 1297.18 43.2325 1297.18 59.8432C1297.18 76.4538 1310.85 76.4575 1310.85 93.0681C1310.85 109.679 1297.16 109.679 1297.16 126.275C1297.16 142.871 1310.85 142.9 1310.85 159.514C1310.85 176.129 1297.18 176.125 1297.18 192.736C1297.18 209.346 1310.85 209.365 1310.85 225.961C1310.85 242.557 1297.18 242.575 1297.18 259.189C1297.18 275.804 1310.85 275.8 1310.85 292.414C1310.85 309.029 1297.18 309.025 1297.18 325.639C1297.18 342.253 1310.85 342.253 1310.85 358.864C1310.85 375.475 1297.18 375.478 1297.18 392.089C1297.18 408.7 1310.85 408.703 1310.85 425.318C1310.85 441.932 1297.18 441.928 1297.18 458.543C1297.18 475.157 1310.85 475.157 1310.85 491.771C1310.85 508.386 1297.18 508.386 1297.18 525" stroke="#BBD1DC" stroke-width="4" stroke-miterlimit="10"/>
<path d="M1275.92 -239.174C1275.92 -222.563 1262.25 -222.563 1262.25 -205.949C1262.25 -189.335 1275.92 -189.338 1275.92 -172.728C1275.92 -156.117 1262.25 -156.114 1262.25 -139.503C1262.25 -122.892 1275.92 -122.892 1275.92 -106.278C1275.92 -89.6636 1262.25 -89.6673 1262.25 -73.053C1262.25 -56.4387 1275.92 -56.4423 1275.92 -39.828C1275.92 -23.2137 1262.25 -23.2174 1262.25 -6.60673C1262.25 10.0039 1275.92 10.0076 1275.92 26.6182C1275.92 43.2289 1262.25 43.2325 1262.25 59.8432C1262.25 76.4538 1275.92 76.4575 1275.92 93.0681C1275.92 109.679 1262.25 109.679 1262.25 126.275C1262.25 142.871 1275.92 142.885 1275.92 159.5C1275.92 176.114 1262.25 176.11 1262.25 192.721C1262.25 209.332 1275.92 209.335 1275.92 225.946C1275.92 242.557 1262.25 242.56 1262.25 259.175C1262.25 275.789 1275.92 275.785 1275.92 292.399C1275.92 309.014 1262.25 309.01 1262.25 325.624C1262.25 342.239 1275.92 342.239 1275.92 358.849C1275.92 375.46 1262.25 375.464 1262.25 392.074C1262.25 408.685 1275.92 408.689 1275.92 425.303C1275.92 441.917 1262.25 441.914 1262.25 458.528C1262.25 475.142 1275.92 475.142 1275.92 491.757C1275.92 508.371 1262.25 508.371 1262.25 524.985" stroke="#BBD1DC" stroke-width="4" stroke-miterlimit="10"/>
<path d="M1241.01 -239.174C1241.01 -222.563 1227.34 -222.563 1227.34 -205.949C1227.34 -189.335 1241.01 -189.338 1241.01 -172.728C1241.01 -156.117 1227.34 -156.114 1227.34 -139.503C1227.34 -122.892 1241.01 -122.892 1241.01 -106.278C1241.01 -89.6636 1227.34 -89.6673 1227.34 -73.053C1227.34 -56.4387 1241.01 -56.4423 1241.01 -39.828C1241.01 -23.2137 1227.34 -23.2174 1227.34 -6.60673C1227.34 10.0039 1241.01 10.0076 1241.01 26.6182C1241.01 43.2289 1227.34 43.2325 1227.34 59.8432C1227.34 76.4538 1241.01 76.4575 1241.01 93.0681C1241.01 109.679 1227.34 109.679 1227.34 126.275C1227.34 142.871 1241.01 142.885 1241.01 159.5C1241.01 176.114 1227.34 176.11 1227.34 192.721C1227.34 209.332 1241.01 209.335 1241.01 225.946C1241.01 242.557 1227.34 242.56 1227.34 259.175C1227.34 275.789 1241.01 275.785 1241.01 292.399C1241.01 309.014 1227.34 309.01 1227.34 325.624C1227.34 342.239 1241.01 342.239 1241.01 358.849C1241.01 375.46 1227.34 375.478 1227.34 392.089C1227.34 408.7 1241.01 408.703 1241.01 425.318C1241.01 441.932 1227.34 441.928 1227.34 458.543C1227.34 475.157 1241.01 475.157 1241.01 491.771C1241.01 508.386 1227.34 508.386 1227.34 525" stroke="#BBD1DC" stroke-width="4" stroke-miterlimit="10"/>
<path d="M1206.09 -239.174C1206.09 -222.563 1192.43 -222.563 1192.43 -205.949C1192.43 -189.335 1206.09 -189.338 1206.09 -172.728C1206.09 -156.117 1192.43 -156.114 1192.43 -139.503C1192.43 -122.892 1206.09 -122.892 1206.09 -106.278C1206.09 -89.6636 1192.43 -89.6673 1192.43 -73.053C1192.43 -56.4387 1206.09 -56.4423 1206.09 -39.828C1206.09 -23.2137 1192.43 -23.2174 1192.43 -6.60673C1192.43 10.0039 1206.09 10.0076 1206.09 26.6182C1206.09 43.2289 1192.43 43.2325 1192.43 59.8432C1192.43 76.4538 1206.09 76.4575 1206.09 93.0681C1206.09 109.679 1192.43 109.679 1192.43 126.275C1192.43 142.871 1206.09 142.885 1206.09 159.5C1206.09 176.114 1192.43 176.11 1192.43 192.721C1192.43 209.332 1206.09 209.335 1206.09 225.946C1206.09 242.557 1192.43 242.56 1192.43 259.175C1192.43 275.789 1206.09 275.785 1206.09 292.399C1206.09 309.014 1192.43 309.01 1192.43 325.624C1192.43 342.239 1206.09 342.239 1206.09 358.849C1206.09 375.46 1192.43 375.464 1192.43 392.074C1192.43 408.685 1206.09 408.689 1206.09 425.303C1206.09 441.917 1192.43 441.914 1192.43 458.528C1192.43 475.142 1206.09 475.142 1206.09 491.757C1206.09 508.371 1192.43 508.371 1192.43 524.985" stroke="#BBD1DC" stroke-width="4" stroke-miterlimit="10"/>
<path d="M1171.18 -239.174C1171.18 -222.563 1157.51 -222.563 1157.51 -205.949C1157.51 -189.335 1171.18 -189.338 1171.18 -172.728C1171.18 -156.117 1157.51 -156.114 1157.51 -139.503C1157.51 -122.892 1171.18 -122.892 1171.18 -106.278C1171.18 -89.6636 1157.51 -89.6673 1157.51 -73.053C1157.51 -56.4387 1171.18 -56.4497 1171.18 -39.828C1171.18 -23.2063 1157.51 -23.2174 1157.51 -6.60673C1157.51 10.0039 1171.18 10.0076 1171.18 26.6182C1171.18 43.2289 1157.51 43.2325 1157.51 59.8432C1157.51 76.4538 1171.18 76.4575 1171.18 93.0681C1171.18 109.679 1157.52 109.679 1157.52 126.275C1157.52 142.871 1171.18 142.9 1171.18 159.514C1171.18 176.129 1157.51 176.125 1157.51 192.736C1157.51 209.346 1171.18 209.365 1171.18 225.961C1171.18 242.557 1157.51 242.575 1157.51 259.189C1157.51 275.804 1171.18 275.8 1171.18 292.414C1171.18 309.029 1157.51 309.025 1157.51 325.639C1157.51 342.253 1171.18 342.253 1171.18 358.864C1171.18 375.475 1157.51 375.478 1157.51 392.089C1157.51 408.7 1171.18 408.703 1171.18 425.318C1171.18 441.932 1157.51 441.928 1157.51 458.543C1157.51 475.157 1171.18 475.157 1171.18 491.771C1171.18 508.386 1157.51 508.386 1157.51 525" stroke="#BBD1DC" stroke-width="4" stroke-miterlimit="10"/>
<path d="M1136.27 -239.174C1136.27 -222.563 1122.61 -222.563 1122.61 -205.949C1122.61 -189.335 1136.27 -189.338 1136.27 -172.728C1136.27 -156.117 1122.61 -156.114 1122.61 -139.503C1122.61 -122.892 1136.27 -122.892 1136.27 -106.278C1136.27 -89.6636 1122.61 -89.6673 1122.61 -73.053C1122.61 -56.4387 1136.27 -56.4423 1136.27 -39.828C1136.27 -23.2137 1122.61 -23.2174 1122.61 -6.60673C1122.61 10.0039 1136.27 10.0076 1136.27 26.6182C1136.27 43.2289 1122.61 43.2325 1122.61 59.8432C1122.61 76.4538 1136.27 76.4575 1136.27 93.0681C1136.27 109.679 1122.61 109.679 1122.61 126.275C1122.61 142.871 1136.27 142.885 1136.27 159.5C1136.27 176.114 1122.61 176.11 1122.61 192.721C1122.61 209.332 1136.27 209.335 1136.27 225.946C1136.27 242.557 1122.61 242.56 1122.61 259.175C1122.61 275.789 1136.27 275.785 1136.27 292.399C1136.27 309.014 1122.61 309.01 1122.61 325.624C1122.61 342.239 1136.27 342.239 1136.27 358.849C1136.27 375.46 1122.61 375.464 1122.61 392.074C1122.61 408.685 1136.27 408.689 1136.27 425.303C1136.27 441.917 1122.61 441.914 1122.61 458.528C1122.61 475.142 1136.27 475.142 1136.27 491.757C1136.27 508.371 1122.61 508.371 1122.61 524.985" stroke="#BBD1DC" stroke-width="4" stroke-miterlimit="10"/>
<path d="M1101.36 -239.174C1101.36 -222.563 1087.69 -222.563 1087.69 -205.949C1087.69 -189.335 1101.36 -189.338 1101.36 -172.728C1101.36 -156.117 1087.69 -156.114 1087.69 -139.503C1087.69 -122.892 1101.36 -122.892 1101.36 -106.278C1101.36 -89.6636 1087.69 -89.6673 1087.69 -73.053C1087.69 -56.4387 1101.36 -56.4423 1101.36 -39.828C1101.36 -23.2137 1087.69 -23.2174 1087.69 -6.60673C1087.69 10.0039 1101.36 10.0076 1101.36 26.6182C1101.36 43.2289 1087.69 43.2325 1087.69 59.8432C1087.69 76.4538 1101.36 76.4575 1101.36 93.0681C1101.36 109.679 1087.69 109.679 1087.69 126.275C1087.69 142.871 1101.36 142.885 1101.36 159.5C1101.36 176.114 1087.69 176.11 1087.69 192.721C1087.69 209.332 1101.36 209.335 1101.36 225.946C1101.36 242.557 1087.69 242.56 1087.69 259.175C1087.69 275.789 1101.36 275.785 1101.36 292.399C1101.36 309.014 1087.69 309.01 1087.69 325.624C1087.69 342.239 1101.36 342.239 1101.36 358.849C1101.36 375.46 1087.69 375.464 1087.69 392.074C1087.69 408.685 1101.36 408.689 1101.36 425.303C1101.36 441.917 1087.69 441.914 1087.69 458.528C1087.69 475.142 1101.36 475.142 1101.36 491.757C1101.36 508.371 1087.69 508.371 1087.69 524.985" stroke="#BBD1DC" stroke-width="4" stroke-miterlimit="10"/>
<path d="M1066.45 -239.174C1066.45 -222.563 1052.78 -222.563 1052.78 -205.949C1052.78 -189.335 1066.45 -189.338 1066.45 -172.728C1066.45 -156.117 1052.78 -156.114 1052.78 -139.503C1052.78 -122.892 1066.45 -122.892 1066.45 -106.278C1066.45 -89.6636 1052.78 -89.6673 1052.78 -73.053C1052.78 -56.4387 1066.45 -56.4497 1066.45 -39.828C1066.45 -23.2063 1052.78 -23.2174 1052.78 -6.60673C1052.78 10.0039 1066.45 10.0076 1066.45 26.6182C1066.45 43.2289 1052.78 43.2325 1052.78 59.8432C1052.78 76.4538 1066.45 76.4575 1066.45 93.0681C1066.45 109.679 1052.78 109.679 1052.78 126.275C1052.78 142.871 1066.45 142.885 1066.45 159.5C1066.45 176.114 1052.78 176.11 1052.78 192.721C1052.78 209.332 1066.45 209.335 1066.45 225.946C1066.45 242.557 1052.78 242.56 1052.78 259.175C1052.78 275.789 1066.45 275.785 1066.45 292.399C1066.45 309.014 1052.78 309.01 1052.78 325.624C1052.78 342.239 1066.45 342.239 1066.45 358.849C1066.45 375.46 1052.78 375.464 1052.78 392.074C1052.78 408.685 1066.45 408.689 1066.45 425.303C1066.45 441.917 1052.78 441.914 1052.78 458.528C1052.78 475.142 1066.45 475.142 1066.45 491.757C1066.45 508.371 1052.78 508.371 1052.78 524.985" stroke="#BBD1DC" stroke-width="4" stroke-miterlimit="10"/>
<path d="M1031.54 -239.174C1031.54 -222.563 1017.87 -222.563 1017.87 -205.949C1017.87 -189.335 1031.54 -189.338 1031.54 -172.728C1031.54 -156.117 1017.88 -156.114 1017.88 -139.503C1017.88 -122.892 1031.55 -122.892 1031.55 -106.278C1031.55 -89.6636 1017.88 -89.6673 1017.88 -73.053C1017.88 -56.4387 1031.55 -56.4423 1031.55 -39.828C1031.55 -23.2137 1017.88 -23.2174 1017.88 -6.60673C1017.88 10.0039 1031.55 10.0076 1031.55 26.6182C1031.55 43.2289 1017.88 43.2325 1017.88 59.8432C1017.88 76.4538 1031.55 76.4575 1031.55 93.0681C1031.55 109.679 1017.88 109.679 1017.88 126.275C1017.88 142.871 1031.55 142.885 1031.55 159.5C1031.55 176.114 1017.88 176.125 1017.88 192.736C1017.88 209.346 1031.55 209.35 1031.55 225.961C1031.55 242.571 1017.88 242.575 1017.88 259.189C1017.88 275.804 1031.55 275.8 1031.55 292.414C1031.55 309.029 1017.88 309.025 1017.88 325.639C1017.88 342.253 1031.55 342.253 1031.55 358.864C1031.55 375.475 1017.88 375.478 1017.88 392.089C1017.88 408.7 1031.55 408.703 1031.55 425.318C1031.55 441.932 1017.88 441.928 1017.88 458.543C1017.88 475.157 1031.55 475.157 1031.55 491.771C1031.55 508.386 1017.88 508.386 1017.88 525" stroke="#BBD1DC" stroke-width="4" stroke-miterlimit="10"/>
<path d="M996.624 -239.174C996.624 -222.563 982.96 -222.563 982.96 -205.949C982.96 -189.335 996.624 -189.338 996.624 -172.728C996.624 -156.117 982.96 -156.114 982.96 -139.503C982.96 -122.892 996.624 -122.892 996.624 -106.278C996.624 -89.6636 982.96 -89.6673 982.96 -73.053C982.96 -56.4387 996.624 -56.4423 996.624 -39.828C996.624 -23.2137 982.96 -23.2174 982.96 -6.60673C982.96 10.0039 996.624 10.0076 996.624 26.6182C996.624 43.2289 982.96 43.2325 982.96 59.8432C982.96 76.4538 996.624 76.4575 996.624 93.0681C996.624 109.679 982.96 109.679 982.96 126.275C982.96 142.871 996.624 142.885 996.624 159.5C996.624 176.114 982.96 176.11 982.96 192.721C982.96 209.332 996.624 209.335 996.624 225.946C996.624 242.557 982.96 242.56 982.96 259.175C982.96 275.789 996.624 275.785 996.624 292.399C996.624 309.014 982.96 309.01 982.96 325.624C982.96 342.239 996.624 342.239 996.624 358.849C996.624 375.46 982.96 375.464 982.96 392.074C982.96 408.685 996.624 408.689 996.624 425.303C996.624 441.917 982.96 441.914 982.96 458.528C982.96 475.142 996.624 475.142 996.624 491.757C996.624 508.371 982.96 508.371 982.96 524.985" stroke="#BBD1DC" stroke-width="4" stroke-miterlimit="10"/>
<path d="M961.712 -239.174C961.712 -222.563 948.047 -222.563 948.047 -205.949C948.047 -189.335 961.712 -189.338 961.712 -172.728C961.712 -156.117 948.047 -156.114 948.047 -139.503C948.047 -122.892 961.712 -122.892 961.712 -106.278C961.712 -89.6636 948.047 -89.6673 948.047 -73.053C948.047 -56.4387 961.712 -56.4497 961.712 -39.828C961.712 -23.2063 948.047 -23.2174 948.047 -6.60673C948.047 10.0039 961.712 10.0076 961.712 26.6182C961.712 43.2289 948.047 43.2325 948.047 59.8432C948.047 76.4538 961.712 76.4575 961.712 93.0681C961.712 109.679 948.047 109.679 948.047 126.275C948.047 142.871 961.712 142.885 961.712 159.5C961.712 176.114 948.047 176.125 948.047 192.736C948.047 209.346 961.712 209.35 961.712 225.961C961.712 242.571 948.047 242.575 948.047 259.189C948.047 275.804 961.712 275.8 961.712 292.414C961.712 309.029 948.047 309.025 948.047 325.639C948.047 342.253 961.712 342.253 961.712 358.864C961.712 375.475 948.047 375.478 948.047 392.089C948.047 408.7 961.712 408.703 961.712 425.318C961.712 441.932 948.047 441.928 948.047 458.543C948.047 475.157 961.712 475.157 961.712 491.771C961.712 508.386 948.047 508.386 948.047 525" stroke="#BBD1DC" stroke-width="4" stroke-miterlimit="10"/>
<path d="M1901.93 -241C1901.93 -224.389 1888.26 -224.389 1888.26 -207.775C1888.26 -191.161 1901.93 -191.164 1901.93 -174.554C1901.93 -157.943 1888.26 -157.939 1888.26 -141.329C1888.26 -124.718 1901.93 -124.718 1901.93 -108.104C1901.93 -91.4895 1888.26 -91.4932 1888.26 -74.8789C1888.26 -58.2646 1901.93 -58.2756 1901.93 -41.6539C1901.93 -25.0323 1888.26 -25.0433 1888.26 -8.43266C1888.26 8.17798 1901.93 8.18166 1901.93 24.7923C1901.93 41.4029 1888.26 41.4066 1888.26 58.0173C1888.26 74.6279 1901.93 74.6316 1901.93 91.2422C1901.93 107.853 1888.25 107.853 1888.25 124.449C1888.25 141.045 1901.93 141.074 1901.93 157.688C1901.93 174.303 1888.26 174.299 1888.26 190.91C1888.26 207.52 1901.93 207.539 1901.93 224.135C1901.93 240.731 1888.26 240.749 1888.26 257.363C1888.26 273.978 1901.93 273.974 1901.93 290.588C1901.93 307.203 1888.26 307.199 1888.26 323.813C1888.26 340.428 1901.93 340.428 1901.93 357.038C1901.93 373.649 1888.26 373.652 1888.26 390.263C1888.26 406.874 1901.93 406.877 1901.93 423.492C1901.93 440.106 1888.26 440.102 1888.26 456.717C1888.26 473.331 1901.93 473.331 1901.93 489.945C1901.93 506.56 1888.26 506.56 1888.26 523.174" stroke="#BBD1DC" stroke-width="4" stroke-miterlimit="10"/>
<path d="M1867 -241C1867 -224.389 1853.34 -224.389 1853.34 -207.775C1853.34 -191.161 1867 -191.164 1867 -174.554C1867 -157.943 1853.34 -157.939 1853.34 -141.329C1853.34 -124.718 1867 -124.718 1867 -108.104C1867 -91.4895 1853.34 -91.4932 1853.34 -74.8789C1853.34 -58.2646 1867 -58.2682 1867 -41.6539C1867 -25.0396 1853.34 -25.0433 1853.34 -8.43266C1853.34 8.17798 1867 8.18166 1867 24.7923C1867 41.4029 1853.34 41.4066 1853.34 58.0173C1853.34 74.6279 1867 74.6316 1867 91.2422C1867 107.853 1853.34 107.853 1853.34 124.449C1853.34 141.045 1867 141.059 1867 157.674C1867 174.288 1853.34 174.284 1853.34 190.895C1853.34 207.506 1867 207.509 1867 224.12C1867 240.731 1853.34 240.734 1853.34 257.349C1853.34 273.963 1867 273.959 1867 290.574C1867 307.188 1853.34 307.184 1853.34 323.799C1853.34 340.413 1867 340.413 1867 357.023C1867 373.634 1853.34 373.638 1853.34 390.248C1853.34 406.859 1867 406.863 1867 423.477C1867 440.091 1853.34 440.088 1853.34 456.702C1853.34 473.316 1867 473.316 1867 489.931C1867 506.545 1853.34 506.545 1853.34 523.159" stroke="#BBD1DC" stroke-width="4" stroke-miterlimit="10"/>
<path d="M1832.09 -241C1832.09 -224.389 1818.42 -224.389 1818.42 -207.775C1818.42 -191.161 1832.09 -191.164 1832.09 -174.554C1832.09 -157.943 1818.42 -157.939 1818.42 -141.329C1818.42 -124.718 1832.09 -124.718 1832.09 -108.104C1832.09 -91.4895 1818.42 -91.4932 1818.42 -74.8789C1818.42 -58.2646 1832.09 -58.2682 1832.09 -41.6539C1832.09 -25.0396 1818.42 -25.0433 1818.42 -8.43266C1818.42 8.17798 1832.09 8.18166 1832.09 24.7923C1832.09 41.4029 1818.42 41.4066 1818.42 58.0173C1818.42 74.6279 1832.09 74.6316 1832.09 91.2422C1832.09 107.853 1818.42 107.853 1818.42 124.449C1818.42 141.045 1832.09 141.059 1832.09 157.674C1832.09 174.288 1818.42 174.284 1818.42 190.895C1818.42 207.506 1832.09 207.509 1832.09 224.12C1832.09 240.731 1818.42 240.734 1818.42 257.349C1818.42 273.963 1832.09 273.959 1832.09 290.574C1832.09 307.188 1818.42 307.184 1818.42 323.799C1818.42 340.413 1832.09 340.413 1832.09 357.023C1832.09 373.634 1818.42 373.652 1818.42 390.263C1818.42 406.874 1832.09 406.877 1832.09 423.492C1832.09 440.106 1818.42 440.102 1818.42 456.717C1818.42 473.331 1832.09 473.331 1832.09 489.945C1832.09 506.56 1818.42 506.56 1818.42 523.174" stroke="#BBD1DC" stroke-width="4" stroke-miterlimit="10"/>
<path d="M1797.18 -241C1797.18 -224.389 1783.51 -224.389 1783.51 -207.775C1783.51 -191.161 1797.18 -191.164 1797.18 -174.554C1797.18 -157.943 1783.51 -157.939 1783.51 -141.329C1783.51 -124.718 1797.18 -124.718 1797.18 -108.104C1797.18 -91.4895 1783.51 -91.4932 1783.51 -74.8789C1783.51 -58.2646 1797.18 -58.2682 1797.18 -41.6539C1797.18 -25.0396 1783.51 -25.0433 1783.51 -8.43266C1783.51 8.17798 1797.18 8.18166 1797.18 24.7923C1797.18 41.4029 1783.51 41.4066 1783.51 58.0173C1783.51 74.6279 1797.18 74.6316 1797.18 91.2422C1797.18 107.853 1783.51 107.853 1783.51 124.449C1783.51 141.045 1797.18 141.059 1797.18 157.674C1797.18 174.288 1783.51 174.284 1783.51 190.895C1783.51 207.506 1797.18 207.509 1797.18 224.12C1797.18 240.731 1783.51 240.734 1783.51 257.349C1783.51 273.963 1797.18 273.959 1797.18 290.574C1797.18 307.188 1783.51 307.184 1783.51 323.799C1783.51 340.413 1797.18 340.413 1797.18 357.023C1797.18 373.634 1783.51 373.638 1783.51 390.248C1783.51 406.859 1797.18 406.863 1797.18 423.477C1797.18 440.091 1783.51 440.088 1783.51 456.702C1783.51 473.316 1797.18 473.316 1797.18 489.931C1797.18 506.545 1783.51 506.545 1783.51 523.159" stroke="#BBD1DC" stroke-width="4" stroke-miterlimit="10"/>
<path d="M1762.26 -241C1762.26 -224.389 1748.6 -224.389 1748.6 -207.775C1748.6 -191.161 1762.26 -191.164 1762.26 -174.554C1762.26 -157.943 1748.6 -157.939 1748.6 -141.329C1748.6 -124.718 1762.26 -124.718 1762.26 -108.104C1762.26 -91.4895 1748.6 -91.4932 1748.6 -74.8789C1748.6 -58.2646 1762.26 -58.2756 1762.26 -41.6539C1762.26 -25.0323 1748.6 -25.0433 1748.6 -8.43266C1748.6 8.17798 1762.26 8.18166 1762.26 24.7923C1762.26 41.4029 1748.6 41.4066 1748.6 58.0173C1748.6 74.6279 1762.26 74.6316 1762.26 91.2422C1762.26 107.853 1748.6 107.853 1748.6 124.449C1748.6 141.045 1762.26 141.074 1762.26 157.688C1762.26 174.303 1748.6 174.299 1748.6 190.91C1748.6 207.52 1762.26 207.539 1762.26 224.135C1762.26 240.731 1748.6 240.749 1748.6 257.363C1748.6 273.978 1762.26 273.974 1762.26 290.588C1762.26 307.203 1748.6 307.199 1748.6 323.813C1748.6 340.428 1762.26 340.428 1762.26 357.038C1762.26 373.649 1748.6 373.652 1748.6 390.263C1748.6 406.874 1762.26 406.877 1762.26 423.492C1762.26 440.106 1748.6 440.102 1748.6 456.717C1748.6 473.331 1762.26 473.331 1762.26 489.945C1762.26 506.56 1748.6 506.56 1748.6 523.174" stroke="#BBD1DC" stroke-width="4" stroke-miterlimit="10"/>
<path d="M1727.35 -241C1727.35 -224.389 1713.69 -224.389 1713.69 -207.775C1713.69 -191.161 1727.35 -191.164 1727.35 -174.554C1727.35 -157.943 1713.69 -157.939 1713.69 -141.329C1713.69 -124.718 1727.35 -124.718 1727.35 -108.104C1727.35 -91.4895 1713.69 -91.4932 1713.69 -74.8789C1713.69 -58.2646 1727.35 -58.2682 1727.35 -41.6539C1727.35 -25.0396 1713.69 -25.0433 1713.69 -8.43266C1713.69 8.17798 1727.35 8.18166 1727.35 24.7923C1727.35 41.4029 1713.69 41.4066 1713.69 58.0173C1713.69 74.6279 1727.35 74.6316 1727.35 91.2422C1727.35 107.853 1713.69 107.853 1713.69 124.449C1713.69 141.045 1727.35 141.059 1727.35 157.674C1727.35 174.288 1713.69 174.284 1713.69 190.895C1713.69 207.506 1727.35 207.509 1727.35 224.12C1727.35 240.731 1713.69 240.734 1713.69 257.349C1713.69 273.963 1727.35 273.959 1727.35 290.574C1727.35 307.188 1713.69 307.184 1713.69 323.799C1713.69 340.413 1727.35 340.413 1727.35 357.023C1727.35 373.634 1713.69 373.638 1713.69 390.248C1713.69 406.859 1727.35 406.863 1727.35 423.477C1727.35 440.091 1713.69 440.088 1713.69 456.702C1713.69 473.316 1727.35 473.316 1727.35 489.931C1727.35 506.545 1713.69 506.545 1713.69 523.159" stroke="#BBD1DC" stroke-width="4" stroke-miterlimit="10"/>
<path d="M1692.44 -241C1692.44 -224.389 1678.78 -224.389 1678.78 -207.775C1678.78 -191.161 1692.44 -191.164 1692.44 -174.554C1692.44 -157.943 1678.78 -157.939 1678.78 -141.329C1678.78 -124.718 1692.44 -124.718 1692.44 -108.104C1692.44 -91.4895 1678.78 -91.4932 1678.78 -74.8789C1678.78 -58.2646 1692.44 -58.2682 1692.44 -41.6539C1692.44 -25.0396 1678.78 -25.0433 1678.78 -8.43266C1678.78 8.17798 1692.44 8.18166 1692.44 24.7923C1692.44 41.4029 1678.78 41.4066 1678.78 58.0173C1678.78 74.6279 1692.44 74.6316 1692.44 91.2422C1692.44 107.853 1678.78 107.853 1678.78 124.449C1678.78 141.045 1692.44 141.059 1692.44 157.674C1692.44 174.288 1678.78 174.284 1678.78 190.895C1678.78 207.506 1692.44 207.509 1692.44 224.12C1692.44 240.731 1678.78 240.734 1678.78 257.349C1678.78 273.963 1692.44 273.959 1692.44 290.574C1692.44 307.188 1678.78 307.184 1678.78 323.799C1678.78 340.413 1692.44 340.413 1692.44 357.023C1692.44 373.634 1678.78 373.638 1678.78 390.248C1678.78 406.859 1692.44 406.863 1692.44 423.477C1692.44 440.091 1678.78 440.088 1678.78 456.702C1678.78 473.316 1692.44 473.316 1692.44 489.931C1692.44 506.545 1678.78 506.545 1678.78 523.159" stroke="#BBD1DC" stroke-width="4" stroke-miterlimit="10"/>
<path d="M1657.53 -241C1657.53 -224.389 1643.86 -224.389 1643.86 -207.775C1643.86 -191.161 1657.53 -191.164 1657.53 -174.554C1657.53 -157.943 1643.86 -157.939 1643.86 -141.329C1643.86 -124.718 1657.53 -124.718 1657.53 -108.104C1657.53 -91.4895 1643.86 -91.4932 1643.86 -74.8789C1643.86 -58.2646 1657.53 -58.2756 1657.53 -41.6539C1657.53 -25.0323 1643.86 -25.0433 1643.86 -8.43266C1643.86 8.17798 1657.53 8.18166 1657.53 24.7923C1657.53 41.4029 1643.86 41.4066 1643.86 58.0173C1643.86 74.6279 1657.53 74.6316 1657.53 91.2422C1657.53 107.853 1643.86 107.853 1643.86 124.449C1643.86 141.045 1657.53 141.059 1657.53 157.674C1657.53 174.288 1643.86 174.284 1643.86 190.895C1643.86 207.506 1657.53 207.509 1657.53 224.12C1657.53 240.731 1643.86 240.734 1643.86 257.349C1643.86 273.963 1657.53 273.959 1657.53 290.574C1657.53 307.188 1643.86 307.184 1643.86 323.799C1643.86 340.413 1657.53 340.413 1657.53 357.023C1657.53 373.634 1643.86 373.638 1643.86 390.248C1643.86 406.859 1657.53 406.863 1657.53 423.477C1657.53 440.091 1643.86 440.088 1643.86 456.702C1643.86 473.316 1657.53 473.316 1657.53 489.931C1657.53 506.545 1643.86 506.545 1643.86 523.159" stroke="#BBD1DC" stroke-width="4" stroke-miterlimit="10"/>
<path d="M1622.62 -241C1622.62 -224.389 1608.95 -224.389 1608.95 -207.775C1608.95 -191.161 1622.62 -191.164 1622.62 -174.554C1622.62 -157.943 1608.96 -157.939 1608.96 -141.329C1608.96 -124.718 1622.63 -124.718 1622.63 -108.104C1622.63 -91.4895 1608.96 -91.4932 1608.96 -74.8789C1608.96 -58.2646 1622.63 -58.2682 1622.63 -41.6539C1622.63 -25.0396 1608.96 -25.0433 1608.96 -8.43266C1608.96 8.17798 1622.63 8.18166 1622.63 24.7923C1622.63 41.4029 1608.96 41.4066 1608.96 58.0173C1608.96 74.6279 1622.63 74.6316 1622.63 91.2422C1622.63 107.853 1608.96 107.853 1608.96 124.449C1608.96 141.045 1622.63 141.059 1622.63 157.674C1622.63 174.288 1608.96 174.299 1608.96 190.91C1608.96 207.52 1622.63 207.524 1622.63 224.135C1622.63 240.745 1608.96 240.749 1608.96 257.363C1608.96 273.978 1622.63 273.974 1622.63 290.588C1622.63 307.203 1608.96 307.199 1608.96 323.813C1608.96 340.428 1622.63 340.428 1622.63 357.038C1622.63 373.649 1608.96 373.652 1608.96 390.263C1608.96 406.874 1622.63 406.877 1622.63 423.492C1622.63 440.106 1608.96 440.102 1608.96 456.717C1608.96 473.331 1622.63 473.331 1622.63 489.945C1622.63 506.56 1608.96 506.56 1608.96 523.174" stroke="#BBD1DC" stroke-width="4" stroke-miterlimit="10"/>
<path d="M1587.71 -241C1587.71 -224.389 1574.04 -224.389 1574.04 -207.775C1574.04 -191.161 1587.71 -191.164 1587.71 -174.554C1587.71 -157.943 1574.04 -157.939 1574.04 -141.329C1574.04 -124.718 1587.71 -124.718 1587.71 -108.104C1587.71 -91.4895 1574.04 -91.4932 1574.04 -74.8789C1574.04 -58.2646 1587.71 -58.2682 1587.71 -41.6539C1587.71 -25.0396 1574.04 -25.0433 1574.04 -8.43266C1574.04 8.17798 1587.71 8.18166 1587.71 24.7923C1587.71 41.4029 1574.04 41.4066 1574.04 58.0173C1574.04 74.6279 1587.71 74.6316 1587.71 91.2422C1587.71 107.853 1574.04 107.853 1574.04 124.449C1574.04 141.045 1587.71 141.059 1587.71 157.674C1587.71 174.288 1574.04 174.284 1574.04 190.895C1574.04 207.506 1587.71 207.509 1587.71 224.12C1587.71 240.731 1574.04 240.734 1574.04 257.349C1574.04 273.963 1587.71 273.959 1587.71 290.574C1587.71 307.188 1574.04 307.184 1574.04 323.799C1574.04 340.413 1587.71 340.413 1587.71 357.023C1587.71 373.634 1574.04 373.638 1574.04 390.248C1574.04 406.859 1587.71 406.863 1587.71 423.477C1587.71 440.091 1574.04 440.088 1574.04 456.702C1574.04 473.316 1587.71 473.316 1587.71 489.931C1587.71 506.545 1574.04 506.545 1574.04 523.159" stroke="#BBD1DC" stroke-width="4" stroke-miterlimit="10"/>
<path d="M1552.79 -241C1552.79 -224.389 1539.13 -224.389 1539.13 -207.775C1539.13 -191.161 1552.79 -191.164 1552.79 -174.554C1552.79 -157.943 1539.13 -157.939 1539.13 -141.329C1539.13 -124.718 1552.79 -124.718 1552.79 -108.104C1552.79 -91.4895 1539.13 -91.4932 1539.13 -74.8789C1539.13 -58.2646 1552.79 -58.2756 1552.79 -41.6539C1552.79 -25.0323 1539.13 -25.0433 1539.13 -8.43266C1539.13 8.17798 1552.79 8.18166 1552.79 24.7923C1552.79 41.4029 1539.13 41.4066 1539.13 58.0173C1539.13 74.6279 1552.79 74.6316 1552.79 91.2422C1552.79 107.853 1539.13 107.853 1539.13 124.449C1539.13 141.045 1552.79 141.059 1552.79 157.674C1552.79 174.288 1539.13 174.299 1539.13 190.91C1539.13 207.52 1552.79 207.524 1552.79 224.135C1552.79 240.745 1539.13 240.749 1539.13 257.363C1539.13 273.978 1552.79 273.974 1552.79 290.588C1552.79 307.203 1539.13 307.199 1539.13 323.813C1539.13 340.428 1552.79 340.428 1552.79 357.038C1552.79 373.649 1539.13 373.652 1539.13 390.263C1539.13 406.874 1552.79 406.877 1552.79 423.492C1552.79 440.106 1539.13 440.102 1539.13 456.717C1539.13 473.331 1552.79 473.331 1552.79 489.945C1552.79 506.56 1539.13 506.56 1539.13 523.174" stroke="#BBD1DC" stroke-width="4" stroke-miterlimit="10"/>
</g>
<g clip-path="url(#clip1_1489_17656)">
<path d="M1534.3 98.144C1534.3 98.5698 1534.18 98.9865 1533.94 99.3413C1533.7 99.696 1533.37 99.9729 1532.98 100.137C1532.58 100.301 1532.15 100.345 1531.73 100.262C1531.31 100.18 1530.93 99.9759 1530.63 99.6753C1530.32 99.3747 1530.12 98.9914 1530.03 98.5739C1529.95 98.1563 1529.99 97.7234 1530.16 97.3298C1530.32 96.9363 1530.59 96.5998 1530.95 96.3631C1531.3 96.1264 1531.72 96 1532.15 96C1532.72 96 1533.26 96.2256 1533.67 96.6275C1534.07 97.0294 1534.3 97.5747 1534.3 98.144Z" fill="#325D9C"/>
<path d="M1554.76 98.144C1554.76 98.568 1554.63 98.9826 1554.4 99.3351C1554.16 99.6877 1553.82 99.9625 1553.43 100.125C1553.04 100.287 1552.61 100.33 1552.19 100.247C1551.78 100.164 1551.39 99.9599 1551.09 99.66C1550.79 99.3602 1550.59 98.9782 1550.51 98.5623C1550.42 98.1464 1550.47 97.7153 1550.63 97.3235C1550.79 96.9318 1551.07 96.5969 1551.42 96.3613C1551.77 96.1257 1552.19 96 1552.61 96C1553.18 96 1553.73 96.2259 1554.13 96.628C1554.53 97.03 1554.76 97.5754 1554.76 98.144Z" fill="#325D9C"/>
<path d="M1575.22 98.144C1575.22 98.5698 1575.1 98.9865 1574.86 99.3413C1574.63 99.696 1574.29 99.9729 1573.9 100.137C1573.51 100.301 1573.07 100.345 1572.65 100.262C1572.24 100.18 1571.85 99.9759 1571.55 99.6753C1571.25 99.3747 1571.04 98.9914 1570.96 98.5739C1570.87 98.1563 1570.92 97.7234 1571.08 97.3298C1571.24 96.9363 1571.52 96.5998 1571.87 96.3631C1572.23 96.1264 1572.64 96 1573.07 96C1573.64 96 1574.19 96.2256 1574.59 96.6275C1574.99 97.0294 1575.22 97.5747 1575.22 98.144Z" fill="#325D9C"/>
<path d="M1593.53 100.288C1594.72 100.288 1595.68 99.3281 1595.68 98.144C1595.68 96.9599 1594.72 96 1593.53 96C1592.35 96 1591.39 96.9599 1591.39 98.144C1591.39 99.3281 1592.35 100.288 1593.53 100.288Z" fill="#325D9C"/>
<path d="M1616.14 98.144C1616.14 98.5684 1616.01 98.9832 1615.78 99.3359C1615.54 99.6886 1615.2 99.9634 1614.81 100.125C1614.42 100.288 1613.99 100.33 1613.57 100.246C1613.15 100.163 1612.77 99.958 1612.47 99.6574C1612.17 99.3568 1611.97 98.9741 1611.89 98.5577C1611.81 98.1413 1611.85 97.71 1612.01 97.3184C1612.18 96.9267 1612.45 96.5924 1612.81 96.3577C1613.16 96.123 1613.58 95.9985 1614 96C1614.57 96.002 1615.11 96.2287 1615.51 96.6306C1615.91 97.0325 1616.14 97.5767 1616.14 98.144Z" fill="#325D9C"/>
<path d="M1636.61 98.144C1636.61 98.5701 1636.49 98.9871 1636.25 99.342C1636.02 99.697 1635.68 99.9739 1635.29 100.138C1634.89 100.301 1634.46 100.345 1634.04 100.262C1633.62 100.179 1633.24 99.974 1632.94 99.6727C1632.63 99.3714 1632.43 98.9873 1632.35 98.5693C1632.26 98.1513 1632.31 97.7181 1632.47 97.3247C1632.63 96.9313 1632.91 96.5953 1633.27 96.3595C1633.62 96.1237 1634.04 95.9985 1634.47 96C1635.03 96.002 1635.58 96.2285 1635.98 96.6301C1636.38 97.0318 1636.61 97.576 1636.61 98.144Z" fill="#325D9C"/>
<path d="M1654.92 100.288C1656.11 100.288 1657.07 99.3281 1657.07 98.144C1657.07 96.9599 1656.11 96 1654.92 96C1653.74 96 1652.78 96.9599 1652.78 98.144C1652.78 99.3281 1653.74 100.288 1654.92 100.288Z" fill="#325D9C"/>
<path d="M1675.39 100.288C1676.57 100.288 1677.53 99.3281 1677.53 98.144C1677.53 96.9599 1676.57 96 1675.39 96C1674.2 96 1673.24 96.9599 1673.24 98.144C1673.24 99.3281 1674.2 100.288 1675.39 100.288Z" fill="#325D9C"/>
<path d="M1698 98.144C1698 98.5698 1697.88 98.9865 1697.64 99.3413C1697.4 99.696 1697.07 99.9729 1696.68 100.137C1696.28 100.301 1695.85 100.345 1695.43 100.262C1695.01 100.18 1694.63 99.9759 1694.33 99.6753C1694.02 99.3747 1693.82 98.9914 1693.74 98.5739C1693.65 98.1563 1693.69 97.7234 1693.86 97.3298C1694.02 96.9363 1694.3 96.5998 1694.65 96.3631C1695 96.1264 1695.42 96 1695.85 96C1696.42 96 1696.96 96.2256 1697.37 96.6275C1697.77 97.0294 1698 97.5747 1698 98.144Z" fill="#325D9C"/>
<path d="M1534.3 116.668C1534.31 117.095 1534.18 117.514 1533.95 117.872C1533.72 118.229 1533.38 118.51 1532.99 118.677C1532.6 118.844 1532.16 118.891 1531.74 118.812C1531.32 118.732 1530.94 118.53 1530.63 118.23C1530.33 117.93 1530.12 117.547 1530.04 117.129C1529.95 116.711 1529.99 116.277 1530.15 115.882C1530.32 115.487 1530.59 115.149 1530.95 114.911C1531.3 114.674 1531.72 114.547 1532.15 114.547C1532.71 114.545 1533.26 114.767 1533.66 115.164C1534.06 115.562 1534.29 116.102 1534.3 116.668Z" fill="#325D9C"/>
<path d="M1554.76 116.668C1554.76 117.093 1554.64 117.51 1554.41 117.866C1554.17 118.221 1553.84 118.499 1553.45 118.665C1553.06 118.831 1552.62 118.876 1552.21 118.796C1551.79 118.716 1551.4 118.513 1551.1 118.215C1550.8 117.916 1550.59 117.534 1550.51 117.117C1550.42 116.701 1550.47 116.268 1550.63 115.875C1550.79 115.482 1551.06 115.146 1551.42 114.91C1551.77 114.673 1552.19 114.547 1552.61 114.547C1553.18 114.547 1553.72 114.769 1554.12 115.167C1554.52 115.564 1554.75 116.104 1554.76 116.668Z" fill="#325D9C"/>
<path d="M1575.22 116.668C1575.23 117.095 1575.11 117.514 1574.87 117.872C1574.64 118.229 1574.31 118.51 1573.91 118.677C1573.52 118.844 1573.09 118.891 1572.67 118.812C1572.25 118.732 1571.86 118.53 1571.56 118.23C1571.25 117.93 1571.05 117.547 1570.96 117.129C1570.87 116.711 1570.91 116.277 1571.08 115.882C1571.24 115.487 1571.52 115.149 1571.87 114.911C1572.22 114.674 1572.64 114.547 1573.07 114.547C1573.64 114.545 1574.18 114.767 1574.58 115.164C1574.99 115.562 1575.22 116.102 1575.22 116.668Z" fill="#325D9C"/>
<path d="M1593.53 118.812C1594.72 118.812 1595.68 117.852 1595.68 116.668C1595.68 115.484 1594.72 114.524 1593.53 114.524C1592.35 114.524 1591.39 115.484 1591.39 116.668C1591.39 117.852 1592.35 118.812 1593.53 118.812Z" fill="#325D9C"/>
<path d="M1616.14 116.668C1616.14 117.094 1616.02 117.511 1615.79 117.866C1615.55 118.222 1615.22 118.5 1614.83 118.666C1614.44 118.831 1614 118.876 1613.59 118.796C1613.17 118.715 1612.78 118.512 1612.48 118.212C1612.18 117.912 1611.97 117.53 1611.89 117.113C1611.8 116.696 1611.85 116.263 1612.01 115.87C1612.17 115.477 1612.45 115.142 1612.8 114.906C1613.16 114.67 1613.57 114.545 1614 114.547C1614.56 114.549 1615.1 114.772 1615.5 115.169C1615.91 115.566 1616.13 116.105 1616.14 116.668Z" fill="#325D9C"/>
<path d="M1636.61 116.668C1636.62 117.095 1636.5 117.515 1636.26 117.872C1636.03 118.23 1635.69 118.511 1635.3 118.678C1634.91 118.845 1634.47 118.891 1634.05 118.811C1633.63 118.731 1633.25 118.528 1632.94 118.227C1632.64 117.927 1632.43 117.543 1632.35 117.124C1632.26 116.706 1632.3 116.271 1632.47 115.877C1632.63 115.482 1632.91 115.145 1633.26 114.908C1633.62 114.671 1634.04 114.545 1634.47 114.547C1635.03 114.547 1635.57 114.769 1635.98 115.167C1636.38 115.564 1636.61 116.104 1636.61 116.668Z" fill="#325D9C"/>
<path d="M1654.92 118.812C1656.11 118.812 1657.07 117.852 1657.07 116.668C1657.07 115.484 1656.11 114.524 1654.92 114.524C1653.74 114.524 1652.78 115.484 1652.78 116.668C1652.78 117.852 1653.74 118.812 1654.92 118.812Z" fill="#325D9C"/>
<path d="M1675.39 118.812C1676.57 118.812 1677.53 117.852 1677.53 116.668C1677.53 115.484 1676.57 114.524 1675.39 114.524C1674.2 114.524 1673.24 115.484 1673.24 116.668C1673.24 117.852 1674.2 118.812 1675.39 118.812Z" fill="#325D9C"/>
<path d="M1698 116.668C1698 117.094 1697.88 117.511 1697.64 117.866C1697.4 118.22 1697.07 118.497 1696.68 118.661C1696.28 118.825 1695.85 118.869 1695.43 118.787C1695.01 118.705 1694.63 118.5 1694.33 118.2C1694.02 117.899 1693.82 117.516 1693.74 117.098C1693.65 116.681 1693.69 116.248 1693.86 115.854C1694.02 115.461 1694.3 115.124 1694.65 114.888C1695 114.651 1695.42 114.524 1695.85 114.524C1696.13 114.523 1696.41 114.578 1696.67 114.685C1696.93 114.793 1697.17 114.951 1697.37 115.15C1697.57 115.349 1697.73 115.586 1697.84 115.846C1697.94 116.107 1698 116.386 1698 116.668Z" fill="#325D9C"/>
<path d="M1534.3 135.193C1534.3 135.619 1534.18 136.035 1533.94 136.39C1533.7 136.745 1533.37 137.022 1532.98 137.186C1532.58 137.35 1532.15 137.393 1531.73 137.311C1531.31 137.229 1530.93 137.025 1530.63 136.724C1530.32 136.423 1530.12 136.04 1530.03 135.623C1529.95 135.205 1529.99 134.772 1530.16 134.379C1530.32 133.985 1530.59 133.649 1530.95 133.412C1531.3 133.175 1531.72 133.049 1532.15 133.049C1532.43 133.048 1532.71 133.102 1532.97 133.21C1533.23 133.317 1533.47 133.475 1533.67 133.674C1533.87 133.873 1534.03 134.11 1534.14 134.371C1534.24 134.631 1534.3 134.911 1534.3 135.193Z" fill="#325D9C"/>
<path d="M1554.76 135.193C1554.76 135.617 1554.63 136.031 1554.4 136.384C1554.16 136.737 1553.82 137.011 1553.43 137.174C1553.04 137.336 1552.61 137.378 1552.19 137.296C1551.78 137.213 1551.39 137.009 1551.09 136.709C1550.79 136.409 1550.59 136.027 1550.51 135.611C1550.42 135.195 1550.47 134.764 1550.63 134.372C1550.79 133.981 1551.07 133.646 1551.42 133.41C1551.77 133.175 1552.19 133.049 1552.61 133.049C1553.18 133.049 1553.73 133.275 1554.13 133.677C1554.53 134.079 1554.76 134.624 1554.76 135.193Z" fill="#325D9C"/>
<path d="M1575.22 135.193C1575.22 135.619 1575.1 136.035 1574.86 136.39C1574.63 136.745 1574.29 137.022 1573.9 137.186C1573.51 137.35 1573.07 137.393 1572.65 137.311C1572.24 137.229 1571.85 137.025 1571.55 136.724C1571.25 136.423 1571.04 136.04 1570.96 135.623C1570.87 135.205 1570.92 134.772 1571.08 134.379C1571.24 133.985 1571.52 133.649 1571.87 133.412C1572.23 133.175 1572.64 133.049 1573.07 133.049C1573.35 133.048 1573.63 133.102 1573.89 133.21C1574.15 133.317 1574.39 133.475 1574.59 133.674C1574.79 133.873 1574.95 134.11 1575.06 134.371C1575.17 134.631 1575.22 134.911 1575.22 135.193Z" fill="#325D9C"/>
<path d="M1593.53 137.337C1594.72 137.337 1595.68 136.377 1595.68 135.193C1595.68 134.009 1594.72 133.049 1593.53 133.049C1592.35 133.049 1591.39 134.009 1591.39 135.193C1591.39 136.377 1592.35 137.337 1593.53 137.337Z" fill="#325D9C"/>
<path d="M1616.14 135.193C1616.14 135.617 1616.01 136.031 1615.78 136.384C1615.54 136.737 1615.21 137.011 1614.81 137.174C1614.42 137.336 1613.99 137.378 1613.57 137.296C1613.16 137.213 1612.78 137.009 1612.48 136.709C1612.18 136.409 1611.97 136.027 1611.89 135.611C1611.81 135.195 1611.85 134.764 1612.01 134.372C1612.17 133.981 1612.45 133.646 1612.8 133.41C1613.15 133.175 1613.57 133.049 1613.99 133.049C1614.27 133.049 1614.55 133.104 1614.81 133.212C1615.07 133.32 1615.31 133.478 1615.51 133.677C1615.71 133.876 1615.87 134.112 1615.98 134.372C1616.08 134.632 1616.14 134.911 1616.14 135.193Z" fill="#325D9C"/>
<path d="M1636.61 135.193C1636.61 135.619 1636.49 136.036 1636.25 136.391C1636.02 136.746 1635.68 137.023 1635.29 137.186C1634.89 137.35 1634.46 137.393 1634.04 137.311C1633.62 137.228 1633.24 137.023 1632.94 136.721C1632.63 136.42 1632.43 136.036 1632.35 135.618C1632.26 135.2 1632.31 134.767 1632.47 134.373C1632.63 133.98 1632.91 133.644 1633.27 133.408C1633.62 133.172 1634.04 133.047 1634.47 133.049C1635.03 133.049 1635.58 133.275 1635.98 133.677C1636.39 134.079 1636.61 134.624 1636.61 135.193Z" fill="#325D9C"/>
<path d="M1654.92 137.337C1656.11 137.337 1657.07 136.377 1657.07 135.193C1657.07 134.009 1656.11 133.049 1654.92 133.049C1653.74 133.049 1652.78 134.009 1652.78 135.193C1652.78 136.377 1653.74 137.337 1654.92 137.337Z" fill="#325D9C"/>
<path d="M1675.39 137.337C1676.57 137.337 1677.53 136.377 1677.53 135.193C1677.53 134.009 1676.57 133.049 1675.39 133.049C1674.2 133.049 1673.24 134.009 1673.24 135.193C1673.24 136.377 1674.2 137.337 1675.39 137.337Z" fill="#325D9C"/>
<path d="M1698 135.193C1698 135.619 1697.88 136.035 1697.64 136.39C1697.4 136.745 1697.07 137.022 1696.68 137.186C1696.28 137.35 1695.85 137.393 1695.43 137.311C1695.01 137.229 1694.63 137.025 1694.33 136.724C1694.02 136.423 1693.82 136.04 1693.74 135.623C1693.65 135.205 1693.69 134.772 1693.86 134.379C1694.02 133.985 1694.3 133.649 1694.65 133.412C1695 133.175 1695.42 133.049 1695.85 133.049C1696.13 133.048 1696.41 133.102 1696.67 133.21C1696.93 133.317 1697.17 133.475 1697.37 133.674C1697.57 133.873 1697.73 134.11 1697.84 134.371C1697.94 134.631 1698 134.911 1698 135.193Z" fill="#325D9C"/>
<path d="M1534.3 153.717C1534.3 154.143 1534.17 154.559 1533.94 154.912C1533.7 155.266 1533.36 155.542 1532.97 155.705C1532.58 155.868 1532.14 155.91 1531.73 155.827C1531.31 155.744 1530.92 155.539 1530.62 155.238C1530.32 154.937 1530.12 154.554 1530.03 154.137C1529.95 153.719 1529.99 153.287 1530.16 152.894C1530.32 152.501 1530.6 152.165 1530.95 151.928C1531.3 151.692 1531.72 151.566 1532.15 151.566C1532.43 151.565 1532.71 151.62 1532.97 151.727C1533.23 151.835 1533.47 151.994 1533.67 152.194C1533.87 152.394 1534.03 152.631 1534.14 152.893C1534.25 153.154 1534.3 153.434 1534.3 153.717Z" fill="#325D9C"/>
<path d="M1554.76 153.717C1554.76 154.141 1554.63 154.555 1554.39 154.906C1554.16 155.258 1553.82 155.532 1553.43 155.693C1553.04 155.854 1552.6 155.895 1552.19 155.812C1551.77 155.728 1551.39 155.523 1551.09 155.223C1550.79 154.923 1550.59 154.541 1550.51 154.125C1550.42 153.71 1550.47 153.279 1550.63 152.888C1550.79 152.496 1551.07 152.162 1551.42 151.927C1551.77 151.691 1552.19 151.566 1552.61 151.566C1552.89 151.566 1553.17 151.621 1553.43 151.73C1553.7 151.838 1553.93 151.997 1554.13 152.196C1554.33 152.396 1554.49 152.633 1554.6 152.894C1554.7 153.155 1554.76 153.435 1554.76 153.717Z" fill="#325D9C"/>
<path d="M1575.22 153.717C1575.22 154.143 1575.1 154.559 1574.86 154.912C1574.62 155.266 1574.29 155.542 1573.89 155.705C1573.5 155.868 1573.07 155.91 1572.65 155.827C1572.23 155.744 1571.85 155.539 1571.55 155.238C1571.25 154.937 1571.04 154.554 1570.96 154.137C1570.87 153.719 1570.92 153.287 1571.08 152.894C1571.24 152.501 1571.52 152.165 1571.87 151.928C1572.23 151.692 1572.64 151.566 1573.07 151.566C1573.35 151.565 1573.63 151.62 1573.89 151.727C1574.16 151.835 1574.39 151.994 1574.59 152.194C1574.79 152.394 1574.95 152.631 1575.06 152.893C1575.17 153.154 1575.22 153.434 1575.22 153.717Z" fill="#325D9C"/>
<path d="M1593.53 155.861C1594.72 155.861 1595.68 154.901 1595.68 153.717C1595.68 152.533 1594.72 151.573 1593.53 151.573C1592.35 151.573 1591.39 152.533 1591.39 153.717C1591.39 154.901 1592.35 155.861 1593.53 155.861Z" fill="#325D9C"/>
<path d="M1616.14 153.717C1616.14 154.141 1616.01 154.555 1615.77 154.906C1615.54 155.258 1615.2 155.532 1614.81 155.693C1614.42 155.854 1613.99 155.895 1613.57 155.812C1613.15 155.728 1612.77 155.523 1612.47 155.223C1612.17 154.923 1611.97 154.541 1611.89 154.125C1611.81 153.71 1611.85 153.279 1612.01 152.888C1612.17 152.496 1612.45 152.162 1612.8 151.927C1613.15 151.691 1613.57 151.566 1613.99 151.566C1614.28 151.566 1614.55 151.621 1614.82 151.73C1615.08 151.838 1615.31 151.997 1615.51 152.196C1615.71 152.396 1615.87 152.633 1615.98 152.894C1616.08 153.155 1616.14 153.435 1616.14 153.717Z" fill="#325D9C"/>
<path d="M1636.61 153.717C1636.61 154.143 1636.48 154.559 1636.25 154.913C1636.01 155.267 1635.67 155.543 1635.28 155.705C1634.89 155.868 1634.45 155.91 1634.04 155.827C1633.62 155.743 1633.23 155.537 1632.93 155.236C1632.63 154.934 1632.43 154.55 1632.34 154.132C1632.26 153.714 1632.31 153.282 1632.47 152.889C1632.63 152.496 1632.91 152.16 1633.27 151.925C1633.62 151.689 1634.04 151.564 1634.47 151.566C1634.75 151.566 1635.03 151.621 1635.29 151.73C1635.55 151.838 1635.79 151.996 1635.99 152.196C1636.18 152.396 1636.34 152.633 1636.45 152.894C1636.56 153.155 1636.61 153.435 1636.61 153.717Z" fill="#325D9C"/>
<path d="M1654.92 155.861C1656.11 155.861 1657.07 154.901 1657.07 153.717C1657.07 152.533 1656.11 151.573 1654.92 151.573C1653.74 151.573 1652.78 152.533 1652.78 153.717C1652.78 154.901 1653.74 155.861 1654.92 155.861Z" fill="#325D9C"/>
<path d="M1675.39 155.861C1676.57 155.861 1677.53 154.901 1677.53 153.717C1677.53 152.533 1676.57 151.573 1675.39 151.573C1674.2 151.573 1673.24 152.533 1673.24 153.717C1673.24 154.901 1674.2 155.861 1675.39 155.861Z" fill="#325D9C"/>
<path d="M1698 153.717C1698 154.143 1697.87 154.559 1697.64 154.912C1697.4 155.266 1697.06 155.542 1696.67 155.705C1696.28 155.868 1695.84 155.91 1695.43 155.827C1695.01 155.744 1694.63 155.539 1694.32 155.238C1694.02 154.937 1693.82 154.554 1693.73 154.137C1693.65 153.719 1693.69 153.287 1693.86 152.894C1694.02 152.501 1694.3 152.165 1694.65 151.928C1695 151.692 1695.42 151.566 1695.85 151.566C1696.13 151.565 1696.41 151.62 1696.67 151.727C1696.93 151.835 1697.17 151.994 1697.37 152.194C1697.57 152.394 1697.73 152.631 1697.84 152.893C1697.95 153.154 1698 153.434 1698 153.717Z" fill="#325D9C"/>
<path d="M1534.3 172.241C1534.3 172.667 1534.17 173.083 1533.94 173.437C1533.7 173.791 1533.36 174.066 1532.97 174.229C1532.58 174.392 1532.14 174.435 1531.73 174.352C1531.31 174.269 1530.92 174.064 1530.62 173.763C1530.32 173.462 1530.12 173.079 1530.03 172.661C1529.95 172.244 1529.99 171.811 1530.16 171.418C1530.32 171.025 1530.6 170.689 1530.95 170.453C1531.3 170.216 1531.72 170.09 1532.15 170.09C1532.72 170.09 1533.27 170.317 1533.67 170.72C1534.07 171.124 1534.3 171.671 1534.3 172.241Z" fill="#325D9C"/>
<path d="M1554.76 172.241C1554.76 172.665 1554.63 173.079 1554.39 173.431C1554.16 173.782 1553.82 174.056 1553.43 174.217C1553.04 174.378 1552.6 174.42 1552.19 174.336C1551.77 174.252 1551.39 174.048 1551.09 173.747C1550.79 173.447 1550.59 173.065 1550.51 172.65C1550.42 172.234 1550.47 171.803 1550.63 171.412C1550.79 171.021 1551.07 170.686 1551.42 170.451C1551.77 170.216 1552.19 170.09 1552.61 170.09C1552.89 170.09 1553.17 170.146 1553.43 170.254C1553.7 170.362 1553.93 170.521 1554.13 170.721C1554.33 170.921 1554.49 171.158 1554.6 171.419C1554.7 171.68 1554.76 171.959 1554.76 172.241Z" fill="#325D9C"/>
<path d="M1575.22 172.241C1575.22 172.667 1575.1 173.083 1574.86 173.437C1574.62 173.791 1574.29 174.066 1573.89 174.229C1573.5 174.392 1573.07 174.435 1572.65 174.352C1572.23 174.269 1571.85 174.064 1571.55 173.763C1571.25 173.462 1571.04 173.079 1570.96 172.661C1570.87 172.244 1570.92 171.811 1571.08 171.418C1571.24 171.025 1571.52 170.689 1571.87 170.453C1572.23 170.216 1572.64 170.09 1573.07 170.09C1573.64 170.09 1574.19 170.317 1574.59 170.72C1575 171.124 1575.22 171.671 1575.22 172.241Z" fill="#325D9C"/>
<path d="M1593.53 174.386C1594.72 174.386 1595.68 173.426 1595.68 172.242C1595.68 171.057 1594.72 170.098 1593.53 170.098C1592.35 170.098 1591.39 171.057 1591.39 172.242C1591.39 173.426 1592.35 174.386 1593.53 174.386Z" fill="#325D9C"/>
<path d="M1616.14 172.241C1616.14 172.665 1616.01 173.079 1615.77 173.431C1615.54 173.782 1615.2 174.056 1614.81 174.217C1614.42 174.378 1613.99 174.42 1613.57 174.336C1613.15 174.252 1612.77 174.048 1612.47 173.747C1612.17 173.447 1611.97 173.065 1611.89 172.65C1611.81 172.234 1611.85 171.803 1612.01 171.412C1612.17 171.021 1612.45 170.686 1612.8 170.451C1613.15 170.216 1613.57 170.09 1613.99 170.09C1614.28 170.09 1614.55 170.146 1614.82 170.254C1615.08 170.362 1615.31 170.521 1615.51 170.721C1615.71 170.921 1615.87 171.158 1615.98 171.419C1616.08 171.68 1616.14 171.959 1616.14 172.241Z" fill="#325D9C"/>
<path d="M1636.61 172.242C1636.61 172.667 1636.48 173.084 1636.25 173.438C1636.01 173.791 1635.67 174.067 1635.28 174.23C1634.89 174.392 1634.45 174.435 1634.04 174.351C1633.62 174.267 1633.23 174.062 1632.93 173.76C1632.63 173.459 1632.43 173.074 1632.34 172.657C1632.26 172.239 1632.31 171.806 1632.47 171.413C1632.63 171.02 1632.91 170.685 1633.27 170.449C1633.62 170.214 1634.04 170.089 1634.47 170.09C1635.04 170.092 1635.58 170.32 1635.98 170.723C1636.39 171.126 1636.61 171.672 1636.61 172.242Z" fill="#325D9C"/>
<path d="M1654.92 174.386C1656.11 174.386 1657.07 173.426 1657.07 172.242C1657.07 171.057 1656.11 170.098 1654.92 170.098C1653.74 170.098 1652.78 171.057 1652.78 172.242C1652.78 173.426 1653.74 174.386 1654.92 174.386Z" fill="#325D9C"/>
<path d="M1675.39 174.386C1676.57 174.386 1677.53 173.426 1677.53 172.242C1677.53 171.057 1676.57 170.098 1675.39 170.098C1674.2 170.098 1673.24 171.057 1673.24 172.242C1673.24 173.426 1674.2 174.386 1675.39 174.386Z" fill="#325D9C"/>
<path d="M1698 172.241C1698 172.667 1697.87 173.083 1697.64 173.437C1697.4 173.791 1697.06 174.066 1696.67 174.229C1696.28 174.392 1695.84 174.435 1695.43 174.352C1695.01 174.269 1694.63 174.064 1694.32 173.763C1694.02 173.462 1693.82 173.079 1693.73 172.661C1693.65 172.244 1693.69 171.811 1693.86 171.418C1694.02 171.025 1694.3 170.689 1694.65 170.453C1695 170.216 1695.42 170.09 1695.85 170.09C1696.42 170.09 1696.97 170.317 1697.37 170.72C1697.77 171.124 1698 171.671 1698 172.241Z" fill="#325D9C"/>
<path d="M1534.3 190.758C1534.3 191.184 1534.18 191.601 1533.94 191.956C1533.7 192.311 1533.37 192.587 1532.98 192.751C1532.58 192.915 1532.15 192.959 1531.73 192.877C1531.31 192.795 1530.93 192.59 1530.63 192.29C1530.32 191.989 1530.12 191.606 1530.03 191.188C1529.95 190.771 1529.99 190.338 1530.16 189.944C1530.32 189.551 1530.59 189.214 1530.95 188.978C1531.3 188.741 1531.72 188.615 1532.15 188.615C1532.72 188.614 1533.26 188.84 1533.67 189.242C1534.07 189.644 1534.3 190.189 1534.3 190.758Z" fill="#325D9C"/>
<path d="M1554.76 190.758C1554.76 191.183 1554.63 191.597 1554.4 191.95C1554.16 192.302 1553.82 192.577 1553.43 192.739C1553.04 192.902 1552.61 192.944 1552.19 192.861C1551.78 192.779 1551.39 192.574 1551.09 192.275C1550.79 191.975 1550.59 191.593 1550.51 191.177C1550.42 190.761 1550.47 190.33 1550.63 189.938C1550.79 189.546 1551.07 189.211 1551.42 188.976C1551.77 188.74 1552.19 188.615 1552.61 188.615C1553.18 188.615 1553.73 188.84 1554.13 189.242C1554.53 189.645 1554.76 190.19 1554.76 190.758Z" fill="#325D9C"/>
<path d="M1575.22 190.758C1575.22 191.184 1575.1 191.601 1574.86 191.956C1574.63 192.311 1574.29 192.587 1573.9 192.751C1573.51 192.915 1573.07 192.959 1572.65 192.877C1572.24 192.795 1571.85 192.59 1571.55 192.29C1571.25 191.989 1571.04 191.606 1570.96 191.188C1570.87 190.771 1570.92 190.338 1571.08 189.944C1571.24 189.551 1571.52 189.214 1571.87 188.978C1572.23 188.741 1572.64 188.615 1573.07 188.615C1573.64 188.614 1574.19 188.84 1574.59 189.242C1574.99 189.644 1575.22 190.189 1575.22 190.758Z" fill="#325D9C"/>
<path d="M1593.53 192.902C1594.72 192.902 1595.68 191.943 1595.68 190.758C1595.68 189.574 1594.72 188.615 1593.53 188.615C1592.35 188.615 1591.39 189.574 1591.39 190.758C1591.39 191.943 1592.35 192.902 1593.53 192.902Z" fill="#325D9C"/>
<path d="M1616.14 190.758C1616.14 191.183 1616.01 191.597 1615.78 191.95C1615.54 192.302 1615.21 192.577 1614.81 192.739C1614.42 192.902 1613.99 192.944 1613.57 192.861C1613.16 192.779 1612.78 192.574 1612.48 192.275C1612.18 191.975 1611.97 191.593 1611.89 191.177C1611.81 190.761 1611.85 190.33 1612.01 189.938C1612.17 189.546 1612.45 189.211 1612.8 188.976C1613.15 188.74 1613.57 188.615 1613.99 188.615C1614.27 188.615 1614.55 188.67 1614.81 188.778C1615.07 188.885 1615.31 189.043 1615.51 189.242C1615.71 189.442 1615.87 189.678 1615.98 189.938C1616.08 190.198 1616.14 190.477 1616.14 190.758Z" fill="#325D9C"/>
<path d="M1636.61 190.759C1636.61 191.185 1636.49 191.602 1636.25 191.957C1636.02 192.311 1635.68 192.588 1635.29 192.752C1634.89 192.916 1634.46 192.959 1634.04 192.876C1633.62 192.794 1633.24 192.589 1632.94 192.287C1632.63 191.986 1632.43 191.602 1632.35 191.184C1632.26 190.766 1632.31 190.333 1632.47 189.939C1632.63 189.546 1632.91 189.21 1633.27 188.974C1633.62 188.738 1634.04 188.613 1634.47 188.615C1635.03 188.616 1635.58 188.843 1635.98 189.245C1636.38 189.646 1636.61 190.19 1636.61 190.759Z" fill="#325D9C"/>
<path d="M1654.92 192.902C1656.11 192.902 1657.07 191.943 1657.07 190.758C1657.07 189.574 1656.11 188.615 1654.92 188.615C1653.74 188.615 1652.78 189.574 1652.78 190.758C1652.78 191.943 1653.74 192.902 1654.92 192.902Z" fill="#325D9C"/>
<path d="M1675.39 192.902C1676.57 192.902 1677.53 191.943 1677.53 190.758C1677.53 189.574 1676.57 188.615 1675.39 188.615C1674.2 188.615 1673.24 189.574 1673.24 190.758C1673.24 191.943 1674.2 192.902 1675.39 192.902Z" fill="#325D9C"/>
<path d="M1698 190.758C1698 191.184 1697.88 191.601 1697.64 191.956C1697.4 192.311 1697.07 192.587 1696.68 192.751C1696.28 192.915 1695.85 192.959 1695.43 192.877C1695.01 192.795 1694.63 192.59 1694.33 192.29C1694.02 191.989 1693.82 191.606 1693.74 191.188C1693.65 190.771 1693.69 190.338 1693.86 189.944C1694.02 189.551 1694.3 189.214 1694.65 188.978C1695 188.741 1695.42 188.615 1695.85 188.615C1696.42 188.614 1696.96 188.84 1697.37 189.242C1697.77 189.644 1698 190.189 1698 190.758Z" fill="#325D9C"/>
<path d="M1534.3 209.283C1534.3 209.709 1534.18 210.125 1533.94 210.48C1533.7 210.835 1533.37 211.112 1532.98 211.276C1532.58 211.44 1532.15 211.483 1531.73 211.401C1531.31 211.319 1530.93 211.115 1530.63 210.814C1530.32 210.514 1530.12 210.13 1530.03 209.713C1529.95 209.295 1529.99 208.862 1530.16 208.469C1530.32 208.075 1530.59 207.739 1530.95 207.502C1531.3 207.265 1531.72 207.139 1532.15 207.139C1532.72 207.139 1533.26 207.365 1533.67 207.766C1534.07 208.168 1534.3 208.714 1534.3 209.283Z" fill="#325D9C"/>
<path d="M1554.76 209.283C1554.76 209.707 1554.63 210.121 1554.4 210.474C1554.16 210.827 1553.82 211.101 1553.43 211.264C1553.04 211.426 1552.61 211.468 1552.19 211.386C1551.78 211.303 1551.39 211.099 1551.09 210.799C1550.79 210.499 1550.59 210.117 1550.51 209.701C1550.42 209.285 1550.47 208.854 1550.63 208.462C1550.79 208.071 1551.07 207.736 1551.42 207.5C1551.77 207.265 1552.19 207.139 1552.61 207.139C1553.18 207.139 1553.73 207.365 1554.13 207.767C1554.53 208.169 1554.76 208.714 1554.76 209.283Z" fill="#325D9C"/>
<path d="M1575.22 209.283C1575.22 209.709 1575.1 210.125 1574.86 210.48C1574.63 210.835 1574.29 211.112 1573.9 211.276C1573.51 211.44 1573.07 211.483 1572.65 211.401C1572.24 211.319 1571.85 211.115 1571.55 210.814C1571.25 210.514 1571.04 210.13 1570.96 209.713C1570.87 209.295 1570.92 208.862 1571.08 208.469C1571.24 208.075 1571.52 207.739 1571.87 207.502C1572.23 207.265 1572.64 207.139 1573.07 207.139C1573.64 207.139 1574.19 207.365 1574.59 207.766C1574.99 208.168 1575.22 208.714 1575.22 209.283Z" fill="#325D9C"/>
<path d="M1595.68 209.283C1595.68 209.707 1595.55 210.121 1595.32 210.474C1595.08 210.827 1594.75 211.101 1594.36 211.264C1593.96 211.426 1593.53 211.468 1593.12 211.386C1592.7 211.303 1592.32 211.099 1592.02 210.799C1591.72 210.499 1591.51 210.117 1591.43 209.701C1591.35 209.285 1591.39 208.854 1591.55 208.462C1591.71 208.071 1591.99 207.736 1592.34 207.5C1592.7 207.265 1593.11 207.139 1593.53 207.139C1594.1 207.139 1594.65 207.365 1595.05 207.767C1595.45 208.169 1595.68 208.714 1595.68 209.283Z" fill="#325D9C"/>
<path d="M1616.14 209.283C1616.14 209.707 1616.01 210.121 1615.78 210.474C1615.54 210.827 1615.21 211.101 1614.81 211.264C1614.42 211.426 1613.99 211.468 1613.57 211.386C1613.16 211.303 1612.78 211.099 1612.48 210.799C1612.18 210.499 1611.97 210.117 1611.89 209.701C1611.81 209.285 1611.85 208.854 1612.01 208.462C1612.17 208.071 1612.45 207.736 1612.8 207.5C1613.15 207.265 1613.57 207.139 1613.99 207.139C1614.27 207.139 1614.55 207.194 1614.81 207.302C1615.07 207.41 1615.31 207.568 1615.51 207.767C1615.71 207.966 1615.87 208.202 1615.98 208.462C1616.08 208.723 1616.14 209.001 1616.14 209.283Z" fill="#325D9C"/>
<path d="M1636.61 209.283C1636.61 209.709 1636.49 210.126 1636.25 210.481C1636.02 210.836 1635.68 211.113 1635.29 211.276C1634.89 211.44 1634.46 211.483 1634.04 211.401C1633.62 211.318 1633.24 211.113 1632.94 210.812C1632.63 210.51 1632.43 210.126 1632.35 209.708C1632.26 209.29 1632.31 208.857 1632.47 208.464C1632.63 208.07 1632.91 207.734 1633.27 207.498C1633.62 207.263 1634.04 207.137 1634.47 207.139C1635.03 207.141 1635.58 207.367 1635.98 207.769C1636.38 208.171 1636.61 208.715 1636.61 209.283Z" fill="#325D9C"/>
<path d="M1657.07 209.283C1657.07 209.707 1656.94 210.121 1656.71 210.474C1656.47 210.827 1656.14 211.101 1655.74 211.264C1655.35 211.426 1654.92 211.468 1654.5 211.386C1654.09 211.303 1653.71 211.099 1653.41 210.799C1653.11 210.499 1652.9 210.117 1652.82 209.701C1652.74 209.285 1652.78 208.854 1652.94 208.462C1653.1 208.071 1653.38 207.736 1653.73 207.5C1654.08 207.265 1654.5 207.139 1654.92 207.139C1655.49 207.139 1656.04 207.365 1656.44 207.767C1656.84 208.169 1657.07 208.714 1657.07 209.283Z" fill="#325D9C"/>
<path d="M1677.53 209.283C1677.53 209.707 1677.41 210.121 1677.17 210.474C1676.94 210.827 1676.6 211.101 1676.21 211.264C1675.82 211.426 1675.39 211.468 1674.97 211.386C1674.55 211.303 1674.17 211.099 1673.87 210.799C1673.57 210.499 1673.37 210.117 1673.28 209.701C1673.2 209.285 1673.24 208.854 1673.41 208.462C1673.57 208.071 1673.84 207.736 1674.2 207.5C1674.55 207.265 1674.96 207.139 1675.39 207.139C1675.96 207.139 1676.5 207.365 1676.91 207.767C1677.31 208.169 1677.53 208.714 1677.53 209.283Z" fill="#325D9C"/>
<path d="M1698 209.283C1698 209.709 1697.88 210.125 1697.64 210.48C1697.4 210.835 1697.07 211.112 1696.68 211.276C1696.28 211.44 1695.85 211.483 1695.43 211.401C1695.01 211.319 1694.63 211.115 1694.33 210.814C1694.02 210.514 1693.82 210.13 1693.74 209.713C1693.65 209.295 1693.69 208.862 1693.86 208.469C1694.02 208.075 1694.3 207.739 1694.65 207.502C1695 207.265 1695.42 207.139 1695.85 207.139C1696.42 207.139 1696.96 207.365 1697.37 207.766C1697.77 208.168 1698 208.714 1698 209.283Z" fill="#325D9C"/>
<path d="M1534.3 227.807C1534.3 228.233 1534.18 228.65 1533.94 229.005C1533.7 229.359 1533.37 229.636 1532.98 229.8C1532.58 229.964 1532.15 230.008 1531.73 229.926C1531.31 229.843 1530.93 229.639 1530.63 229.339C1530.32 229.038 1530.12 228.655 1530.03 228.237C1529.95 227.82 1529.99 227.387 1530.16 226.993C1530.32 226.6 1530.59 226.263 1530.95 226.026C1531.3 225.79 1531.72 225.663 1532.15 225.663C1532.43 225.662 1532.71 225.717 1532.97 225.824C1533.23 225.932 1533.47 226.089 1533.67 226.289C1533.87 226.488 1534.03 226.724 1534.14 226.985C1534.24 227.246 1534.3 227.525 1534.3 227.807Z" fill="#325D9C"/>
<path d="M1554.76 227.807C1554.76 228.231 1554.63 228.646 1554.4 228.998C1554.16 229.351 1553.82 229.626 1553.43 229.788C1553.04 229.95 1552.61 229.993 1552.19 229.91C1551.78 229.827 1551.39 229.623 1551.09 229.323C1550.79 229.023 1550.59 228.641 1550.51 228.226C1550.42 227.81 1550.47 227.379 1550.63 226.987C1550.79 226.595 1551.07 226.26 1551.42 226.025C1551.77 225.789 1552.19 225.663 1552.61 225.663C1553.18 225.663 1553.73 225.889 1554.13 226.291C1554.53 226.693 1554.76 227.239 1554.76 227.807Z" fill="#325D9C"/>
<path d="M1575.22 227.807C1575.22 228.233 1575.1 228.65 1574.86 229.005C1574.63 229.359 1574.29 229.636 1573.9 229.8C1573.51 229.964 1573.07 230.008 1572.65 229.926C1572.24 229.843 1571.85 229.639 1571.55 229.339C1571.25 229.038 1571.04 228.655 1570.96 228.237C1570.87 227.82 1570.92 227.387 1571.08 226.993C1571.24 226.6 1571.52 226.263 1571.87 226.026C1572.23 225.79 1572.64 225.663 1573.07 225.663C1573.35 225.662 1573.63 225.717 1573.89 225.824C1574.15 225.932 1574.39 226.089 1574.59 226.289C1574.79 226.488 1574.95 226.724 1575.06 226.985C1575.17 227.246 1575.22 227.525 1575.22 227.807Z" fill="#325D9C"/>
<path d="M1595.68 227.807C1595.68 228.231 1595.55 228.646 1595.32 228.998C1595.08 229.351 1594.75 229.626 1594.36 229.788C1593.96 229.95 1593.53 229.993 1593.12 229.91C1592.7 229.827 1592.32 229.623 1592.02 229.323C1591.72 229.023 1591.51 228.641 1591.43 228.226C1591.35 227.81 1591.39 227.379 1591.55 226.987C1591.71 226.595 1591.99 226.26 1592.34 226.025C1592.7 225.789 1593.11 225.663 1593.53 225.663C1594.1 225.663 1594.65 225.889 1595.05 226.291C1595.45 226.693 1595.68 227.239 1595.68 227.807Z" fill="#325D9C"/>
<path d="M1616.14 227.807C1616.14 228.231 1616.01 228.646 1615.78 228.998C1615.54 229.351 1615.21 229.626 1614.81 229.788C1614.42 229.95 1613.99 229.993 1613.57 229.91C1613.16 229.827 1612.78 229.623 1612.48 229.323C1612.18 229.023 1611.97 228.641 1611.89 228.226C1611.81 227.81 1611.85 227.379 1612.01 226.987C1612.17 226.595 1612.45 226.26 1612.8 226.025C1613.15 225.789 1613.57 225.663 1613.99 225.663C1614.27 225.663 1614.55 225.719 1614.81 225.826C1615.07 225.934 1615.31 226.092 1615.51 226.291C1615.71 226.49 1615.87 226.727 1615.98 226.987C1616.08 227.247 1616.14 227.526 1616.14 227.807Z" fill="#325D9C"/>
<path d="M1636.61 227.807C1636.61 228.233 1636.49 228.65 1636.25 229.005C1636.02 229.36 1635.68 229.637 1635.29 229.801C1634.89 229.965 1634.46 230.008 1634.04 229.925C1633.62 229.842 1633.24 229.637 1632.94 229.336C1632.63 229.035 1632.43 228.651 1632.35 228.233C1632.26 227.815 1632.31 227.381 1632.47 226.988C1632.63 226.595 1632.91 226.259 1633.27 226.023C1633.62 225.787 1634.04 225.662 1634.47 225.663C1635.03 225.663 1635.58 225.889 1635.98 226.291C1636.39 226.693 1636.61 227.239 1636.61 227.807Z" fill="#325D9C"/>
<path d="M1657.07 227.807C1657.07 228.231 1656.94 228.646 1656.71 228.998C1656.47 229.351 1656.14 229.626 1655.74 229.788C1655.35 229.95 1654.92 229.993 1654.5 229.91C1654.09 229.827 1653.71 229.623 1653.41 229.323C1653.11 229.023 1652.9 228.641 1652.82 228.226C1652.74 227.81 1652.78 227.379 1652.94 226.987C1653.1 226.595 1653.38 226.26 1653.73 226.025C1654.08 225.789 1654.5 225.663 1654.92 225.663C1655.49 225.663 1656.04 225.889 1656.44 226.291C1656.84 226.693 1657.07 227.239 1657.07 227.807Z" fill="#325D9C"/>
<path d="M1677.53 227.807C1677.53 228.231 1677.41 228.646 1677.17 228.998C1676.94 229.351 1676.6 229.626 1676.21 229.788C1675.82 229.95 1675.39 229.993 1674.97 229.91C1674.55 229.827 1674.17 229.623 1673.87 229.323C1673.57 229.023 1673.37 228.641 1673.28 228.226C1673.2 227.81 1673.24 227.379 1673.41 226.987C1673.57 226.595 1673.84 226.26 1674.2 226.025C1674.55 225.789 1674.96 225.663 1675.39 225.663C1675.96 225.663 1676.5 225.889 1676.91 226.291C1677.31 226.693 1677.53 227.239 1677.53 227.807Z" fill="#325D9C"/>
<path d="M1698 227.807C1698 228.233 1697.88 228.65 1697.64 229.005C1697.4 229.359 1697.07 229.636 1696.68 229.8C1696.28 229.964 1695.85 230.008 1695.43 229.926C1695.01 229.843 1694.63 229.639 1694.33 229.339C1694.02 229.038 1693.82 228.655 1693.74 228.237C1693.65 227.82 1693.69 227.387 1693.86 226.993C1694.02 226.6 1694.3 226.263 1694.65 226.026C1695 225.79 1695.42 225.663 1695.85 225.663C1696.13 225.662 1696.41 225.717 1696.67 225.824C1696.93 225.932 1697.17 226.089 1697.37 226.289C1697.57 226.488 1697.73 226.724 1697.84 226.985C1697.94 227.246 1698 227.525 1698 227.807Z" fill="#325D9C"/>
<path d="M1534.3 246.332C1534.3 246.757 1534.18 247.174 1533.94 247.529C1533.7 247.884 1533.37 248.161 1532.98 248.325C1532.58 248.489 1532.15 248.532 1531.73 248.45C1531.31 248.368 1530.93 248.164 1530.63 247.863C1530.32 247.562 1530.12 247.179 1530.03 246.762C1529.95 246.344 1529.99 245.911 1530.16 245.517C1530.32 245.124 1530.59 244.787 1530.95 244.551C1531.3 244.314 1531.72 244.188 1532.15 244.188C1532.43 244.187 1532.71 244.241 1532.97 244.349C1533.23 244.456 1533.47 244.614 1533.67 244.813C1533.87 245.012 1534.03 245.249 1534.14 245.509C1534.24 245.77 1534.3 246.049 1534.3 246.332Z" fill="#325D9C"/>
<path d="M1554.76 246.332C1554.76 246.756 1554.63 247.17 1554.4 247.523C1554.16 247.875 1553.82 248.15 1553.43 248.312C1553.04 248.475 1552.61 248.517 1552.19 248.434C1551.78 248.352 1551.39 248.147 1551.09 247.848C1550.79 247.548 1550.59 247.166 1550.51 246.75C1550.42 246.334 1550.47 245.903 1550.63 245.511C1550.79 245.119 1551.07 244.785 1551.42 244.549C1551.77 244.313 1552.19 244.188 1552.61 244.188C1553.18 244.188 1553.73 244.414 1554.13 244.816C1554.53 245.218 1554.76 245.763 1554.76 246.332Z" fill="#325D9C"/>
<path d="M1575.22 246.332C1575.22 246.757 1575.1 247.174 1574.86 247.529C1574.63 247.884 1574.29 248.161 1573.9 248.325C1573.51 248.489 1573.07 248.532 1572.65 248.45C1572.24 248.368 1571.85 248.164 1571.55 247.863C1571.25 247.562 1571.04 247.179 1570.96 246.762C1570.87 246.344 1570.92 245.911 1571.08 245.517C1571.24 245.124 1571.52 244.787 1571.87 244.551C1572.23 244.314 1572.64 244.188 1573.07 244.188C1573.35 244.187 1573.63 244.241 1573.89 244.349C1574.15 244.456 1574.39 244.614 1574.59 244.813C1574.79 245.012 1574.95 245.249 1575.06 245.509C1575.17 245.77 1575.22 246.049 1575.22 246.332Z" fill="#325D9C"/>
<path d="M1595.68 246.332C1595.68 246.756 1595.55 247.17 1595.32 247.523C1595.08 247.875 1594.75 248.15 1594.36 248.312C1593.96 248.475 1593.53 248.517 1593.12 248.434C1592.7 248.352 1592.32 248.147 1592.02 247.848C1591.72 247.548 1591.51 247.166 1591.43 246.75C1591.35 246.334 1591.39 245.903 1591.55 245.511C1591.71 245.119 1591.99 244.785 1592.34 244.549C1592.7 244.313 1593.11 244.188 1593.53 244.188C1594.1 244.188 1594.65 244.414 1595.05 244.816C1595.45 245.218 1595.68 245.763 1595.68 246.332Z" fill="#325D9C"/>
<path d="M1616.14 246.332C1616.14 246.756 1616.01 247.17 1615.78 247.523C1615.54 247.875 1615.21 248.15 1614.81 248.312C1614.42 248.475 1613.99 248.517 1613.57 248.434C1613.16 248.352 1612.78 248.147 1612.48 247.848C1612.18 247.548 1611.97 247.166 1611.89 246.75C1611.81 246.334 1611.85 245.903 1612.01 245.511C1612.17 245.119 1612.45 244.785 1612.8 244.549C1613.15 244.313 1613.57 244.188 1613.99 244.188C1614.27 244.188 1614.55 244.243 1614.81 244.351C1615.07 244.459 1615.31 244.616 1615.51 244.816C1615.71 245.015 1615.87 245.251 1615.98 245.511C1616.08 245.771 1616.14 246.05 1616.14 246.332Z" fill="#325D9C"/>
<path d="M1636.61 246.332C1636.61 246.758 1636.49 247.175 1636.25 247.53C1636.02 247.885 1635.68 248.161 1635.29 248.325C1634.89 248.489 1634.46 248.532 1634.04 248.449C1633.62 248.367 1633.24 248.162 1632.94 247.86C1632.63 247.559 1632.43 247.175 1632.35 246.757C1632.26 246.339 1632.31 245.906 1632.47 245.512C1632.63 245.119 1632.91 244.783 1633.27 244.547C1633.62 244.311 1634.04 244.186 1634.47 244.188C1635.03 244.188 1635.58 244.414 1635.98 244.816C1636.39 245.218 1636.61 245.763 1636.61 246.332Z" fill="#325D9C"/>
<path d="M1657.07 246.332C1657.07 246.756 1656.94 247.17 1656.71 247.523C1656.47 247.875 1656.14 248.15 1655.74 248.312C1655.35 248.475 1654.92 248.517 1654.5 248.434C1654.09 248.352 1653.71 248.147 1653.41 247.848C1653.11 247.548 1652.9 247.166 1652.82 246.75C1652.74 246.334 1652.78 245.903 1652.94 245.511C1653.1 245.119 1653.38 244.785 1653.73 244.549C1654.08 244.313 1654.5 244.188 1654.92 244.188C1655.49 244.188 1656.04 244.414 1656.44 244.816C1656.84 245.218 1657.07 245.763 1657.07 246.332Z" fill="#325D9C"/>
<path d="M1677.53 246.332C1677.53 246.756 1677.41 247.17 1677.17 247.523C1676.94 247.875 1676.6 248.15 1676.21 248.312C1675.82 248.475 1675.39 248.517 1674.97 248.434C1674.55 248.352 1674.17 248.147 1673.87 247.848C1673.57 247.548 1673.37 247.166 1673.28 246.75C1673.2 246.334 1673.24 245.903 1673.41 245.511C1673.57 245.119 1673.84 244.785 1674.2 244.549C1674.55 244.313 1674.96 244.188 1675.39 244.188C1675.96 244.188 1676.5 244.414 1676.91 244.816C1677.31 245.218 1677.53 245.763 1677.53 246.332Z" fill="#325D9C"/>
<path d="M1698 246.332C1698 246.757 1697.88 247.174 1697.64 247.529C1697.4 247.884 1697.07 248.161 1696.68 248.325C1696.28 248.489 1695.85 248.532 1695.43 248.45C1695.01 248.368 1694.63 248.164 1694.33 247.863C1694.02 247.562 1693.82 247.179 1693.74 246.762C1693.65 246.344 1693.69 245.911 1693.86 245.517C1694.02 245.124 1694.3 244.787 1694.65 244.551C1695 244.314 1695.42 244.188 1695.85 244.188C1696.13 244.187 1696.41 244.241 1696.67 244.349C1696.93 244.456 1697.17 244.614 1697.37 244.813C1697.57 245.012 1697.73 245.249 1697.84 245.509C1697.94 245.77 1698 246.049 1698 246.332Z" fill="#325D9C"/>
<path d="M1534.3 264.856C1534.3 265.282 1534.17 265.697 1533.94 266.051C1533.7 266.405 1533.36 266.681 1532.97 266.844C1532.58 267.006 1532.14 267.049 1531.73 266.966C1531.31 266.883 1530.92 266.678 1530.62 266.377C1530.32 266.076 1530.12 265.693 1530.03 265.276C1529.95 264.858 1529.99 264.426 1530.16 264.033C1530.32 263.64 1530.6 263.304 1530.95 263.067C1531.3 262.831 1531.72 262.705 1532.15 262.705C1532.72 262.705 1533.27 262.931 1533.67 263.335C1534.07 263.738 1534.3 264.285 1534.3 264.856Z" fill="#325D9C"/>
<path d="M1554.76 264.856C1554.76 265.28 1554.63 265.694 1554.39 266.045C1554.16 266.397 1553.82 266.67 1553.43 266.831C1553.04 266.993 1552.6 267.034 1552.19 266.95C1551.77 266.867 1551.39 266.662 1551.09 266.362C1550.79 266.062 1550.59 265.68 1550.51 265.264C1550.42 264.848 1550.47 264.418 1550.63 264.026C1550.79 263.635 1551.07 263.301 1551.42 263.065C1551.77 262.83 1552.19 262.705 1552.61 262.705C1552.89 262.705 1553.17 262.76 1553.43 262.868C1553.7 262.977 1553.93 263.135 1554.13 263.335C1554.33 263.535 1554.49 263.772 1554.6 264.033C1554.7 264.294 1554.76 264.574 1554.76 264.856Z" fill="#325D9C"/>
<path d="M1575.22 264.856C1575.22 265.282 1575.1 265.698 1574.86 266.052C1574.62 266.406 1574.29 266.682 1573.89 266.844C1573.5 267.007 1573.06 267.049 1572.65 266.966C1572.23 266.882 1571.84 266.676 1571.54 266.375C1571.24 266.073 1571.04 265.689 1570.96 265.271C1570.87 264.853 1570.92 264.421 1571.08 264.028C1571.25 263.635 1571.52 263.299 1571.88 263.064C1572.23 262.828 1572.65 262.703 1573.08 262.705C1573.65 262.707 1574.19 262.934 1574.59 263.337C1575 263.741 1575.22 264.287 1575.22 264.856Z" fill="#325D9C"/>
<path d="M1595.68 264.856C1595.68 265.28 1595.55 265.694 1595.32 266.045C1595.08 266.397 1594.74 266.67 1594.35 266.831C1593.96 266.993 1593.53 267.034 1593.11 266.95C1592.7 266.867 1592.31 266.662 1592.01 266.362C1591.72 266.062 1591.51 265.68 1591.43 265.264C1591.35 264.848 1591.39 264.418 1591.55 264.026C1591.72 263.635 1591.99 263.301 1592.34 263.065C1592.7 262.83 1593.11 262.705 1593.53 262.705C1593.82 262.705 1594.1 262.76 1594.36 262.868C1594.62 262.977 1594.86 263.135 1595.05 263.335C1595.25 263.535 1595.41 263.772 1595.52 264.033C1595.63 264.294 1595.68 264.574 1595.68 264.856Z" fill="#325D9C"/>
<path d="M1616.14 264.856C1616.14 265.28 1616.01 265.694 1615.77 266.045C1615.54 266.397 1615.2 266.67 1614.81 266.831C1614.42 266.993 1613.99 267.034 1613.57 266.95C1613.15 266.867 1612.77 266.662 1612.47 266.362C1612.17 266.062 1611.97 265.68 1611.89 265.264C1611.81 264.848 1611.85 264.418 1612.01 264.026C1612.17 263.635 1612.45 263.301 1612.8 263.065C1613.15 262.83 1613.57 262.705 1613.99 262.705C1614.28 262.705 1614.55 262.76 1614.82 262.868C1615.08 262.977 1615.31 263.135 1615.51 263.335C1615.71 263.535 1615.87 263.772 1615.98 264.033C1616.08 264.294 1616.14 264.574 1616.14 264.856Z" fill="#325D9C"/>
<path d="M1636.61 264.856C1636.61 265.282 1636.48 265.698 1636.25 266.052C1636.01 266.406 1635.67 266.682 1635.28 266.844C1634.89 267.007 1634.45 267.049 1634.04 266.966C1633.62 266.882 1633.23 266.676 1632.93 266.375C1632.63 266.073 1632.43 265.689 1632.34 265.271C1632.26 264.853 1632.31 264.421 1632.47 264.028C1632.63 263.635 1632.91 263.299 1633.27 263.064C1633.62 262.828 1634.04 262.703 1634.47 262.705C1635.04 262.707 1635.58 262.934 1635.98 263.337C1636.39 263.741 1636.61 264.287 1636.61 264.856Z" fill="#325D9C"/>
<path d="M1657.07 264.856C1657.07 265.28 1656.94 265.694 1656.7 266.045C1656.47 266.397 1656.13 266.67 1655.74 266.831C1655.35 266.993 1654.92 267.034 1654.5 266.95C1654.08 266.867 1653.7 266.662 1653.4 266.362C1653.1 266.062 1652.9 265.68 1652.82 265.264C1652.74 264.848 1652.78 264.418 1652.94 264.026C1653.1 263.635 1653.38 263.301 1653.73 263.065C1654.08 262.83 1654.5 262.705 1654.92 262.705C1655.21 262.705 1655.49 262.76 1655.75 262.868C1656.01 262.977 1656.24 263.135 1656.44 263.335C1656.64 263.535 1656.8 263.772 1656.91 264.033C1657.02 264.294 1657.07 264.574 1657.07 264.856Z" fill="#325D9C"/>
<path d="M1677.53 264.856C1677.53 265.28 1677.41 265.694 1677.17 266.045C1676.93 266.397 1676.6 266.67 1676.2 266.831C1675.81 266.993 1675.38 267.034 1674.97 266.95C1674.55 266.867 1674.17 266.662 1673.87 266.362C1673.57 266.062 1673.37 265.68 1673.28 265.264C1673.2 264.848 1673.24 264.418 1673.41 264.026C1673.57 263.635 1673.84 263.301 1674.2 263.065C1674.55 262.83 1674.96 262.705 1675.39 262.705C1675.67 262.705 1675.95 262.76 1676.21 262.868C1676.47 262.977 1676.71 263.135 1676.91 263.335C1677.11 263.535 1677.27 263.772 1677.37 264.033C1677.48 264.294 1677.54 264.574 1677.53 264.856Z" fill="#325D9C"/>
<path d="M1698 264.856C1698 265.282 1697.87 265.697 1697.64 266.051C1697.4 266.405 1697.06 266.681 1696.67 266.844C1696.28 267.006 1695.84 267.049 1695.43 266.966C1695.01 266.883 1694.63 266.678 1694.32 266.377C1694.02 266.076 1693.82 265.693 1693.73 265.276C1693.65 264.858 1693.69 264.426 1693.86 264.033C1694.02 263.64 1694.3 263.304 1694.65 263.067C1695 262.831 1695.42 262.705 1695.85 262.705C1696.42 262.705 1696.97 262.931 1697.37 263.335C1697.77 263.738 1698 264.285 1698 264.856Z" fill="#325D9C"/>
</g>
<defs>
<clipPath id="clip0_1489_17656">
<rect width="1176" height="283" fill="white" transform="translate(942)"/>
</clipPath>
<clipPath id="clip1_1489_17656">
<rect width="168" height="171" fill="white" transform="translate(1530 96)"/>
</clipPath>
</defs>
</svg>
