<svg width="978" height="650" viewBox="0 0 978 650" fill="none" xmlns="http://www.w3.org/2000/svg">
<g opacity="0.2" clip-path="url(#clip0_17_439)">
<path d="M578.3 -56.1741C578.3 -39.5634 564.636 -39.5634 564.636 -22.9491C564.636 -6.3348 578.3 -6.33848 578.3 10.2722C578.3 26.8828 564.636 26.8865 564.636 43.4971C564.636 60.1078 578.3 60.1078 578.3 76.7221C578.3 93.3364 564.636 93.3327 564.636 109.947C564.636 126.561 578.3 126.558 578.3 143.172C578.3 159.786 564.636 159.783 564.636 176.393C564.636 193.004 578.3 193.008 578.3 209.618C578.3 226.229 564.636 226.233 564.636 242.843C564.636 259.454 578.3 259.457 578.3 276.068C578.3 292.679 564.636 292.679 564.636 309.275C564.636 325.871 578.3 325.885 578.3 342.5C578.3 359.114 564.636 359.11 564.636 375.721C564.636 392.332 578.3 392.335 578.3 408.946C578.3 425.557 564.636 425.56 564.636 442.175C564.636 458.789 578.3 458.785 578.3 475.399C578.3 492.014 564.636 492.01 564.636 508.624C564.636 525.239 578.3 525.239 578.3 541.849C578.3 558.46 564.636 558.464 564.636 575.074C564.636 591.685 578.3 591.689 578.3 608.303C578.3 624.917 564.636 624.914 564.636 641.528C564.636 658.142 578.3 658.142 578.3 674.757C578.3 691.371 564.636 691.371 564.636 707.985" stroke="#BBD1DC" stroke-width="4" stroke-miterlimit="10"/>
<path d="M543.388 -56.1741C543.388 -39.5634 529.723 -39.5634 529.723 -22.9491C529.723 -6.3348 543.388 -6.33848 543.388 10.2722C543.388 26.8828 529.723 26.8865 529.723 43.4971C529.723 60.1078 543.388 60.1078 543.388 76.7221C543.388 93.3364 529.723 93.3327 529.723 109.947C529.723 126.561 543.388 126.558 543.388 143.172C543.388 159.786 529.723 159.783 529.723 176.393C529.723 193.004 543.388 193.008 543.388 209.618C543.388 226.229 529.723 226.233 529.723 242.843C529.723 259.454 543.388 259.457 543.388 276.068C543.388 292.679 529.723 292.679 529.723 309.289C529.723 325.9 543.388 325.9 543.388 342.514C543.388 359.129 529.723 359.125 529.723 375.736C529.723 392.346 543.388 392.35 543.388 408.961C543.388 425.571 529.723 425.575 529.723 442.189C529.723 458.804 543.388 458.8 543.388 475.414C543.388 492.029 529.723 492.025 529.723 508.639C529.723 525.253 543.388 525.253 543.388 541.864C543.388 558.475 529.723 558.478 529.723 575.089C529.723 591.7 543.388 591.703 543.388 608.318C543.388 624.932 529.723 624.928 529.723 641.543C529.723 658.157 543.388 658.157 543.388 674.771C543.388 691.386 529.723 691.386 529.723 708" stroke="#BBD1DC" stroke-width="4" stroke-miterlimit="10"/>
<path d="M508.475 -56.1741C508.475 -39.5634 494.811 -39.5634 494.811 -22.9491C494.811 -6.3348 508.475 -6.33848 508.475 10.2722C508.475 26.8828 494.811 26.8865 494.811 43.4971C494.811 60.1078 508.475 60.1078 508.475 76.7221C508.475 93.3364 494.811 93.3327 494.811 109.947C494.811 126.561 508.475 126.558 508.475 143.172C508.475 159.786 494.811 159.783 494.811 176.393C494.811 193.004 508.475 193.008 508.475 209.618C508.475 226.229 494.811 226.233 494.811 242.843C494.811 259.454 508.475 259.457 508.475 276.068C508.475 292.679 494.811 292.679 494.811 309.289C494.811 325.9 508.475 325.9 508.475 342.514C508.475 359.129 494.811 359.125 494.811 375.736C494.811 392.346 508.475 392.35 508.475 408.961C508.475 425.571 494.811 425.575 494.811 442.189C494.811 458.804 508.475 458.8 508.475 475.414C508.475 492.029 494.811 492.025 494.811 508.639C494.811 525.253 508.475 525.253 508.475 541.864C508.475 558.475 494.811 558.478 494.811 575.089C494.811 591.7 508.475 591.703 508.475 608.318C508.475 624.932 494.811 624.928 494.811 641.543C494.811 658.157 508.475 658.157 508.475 674.771C508.475 691.386 494.811 691.386 494.811 708" stroke="#BBD1DC" stroke-width="4" stroke-miterlimit="10"/>
<path d="M473.566 -56.1741C473.566 -39.5634 459.898 -39.5634 459.898 -22.9491C459.898 -6.3348 473.566 -6.33848 473.566 10.2722C473.566 26.8828 459.898 26.8865 459.898 43.4971C459.898 60.1078 473.566 60.1078 473.566 76.7221C473.566 93.3364 459.898 93.3327 459.898 109.947C459.898 126.561 473.566 126.558 473.566 143.172C473.566 159.786 459.898 159.783 459.898 176.393C459.898 193.004 473.566 193.008 473.566 209.618C473.566 226.229 459.898 226.233 459.898 242.843C459.898 259.454 473.566 259.457 473.566 276.068C473.566 292.679 459.898 292.679 459.898 309.289C459.898 325.9 473.566 325.9 473.566 342.514C473.566 359.129 459.898 359.125 459.898 375.736C459.898 392.346 473.566 392.35 473.566 408.961C473.566 425.571 459.898 425.575 459.898 442.189C459.898 458.804 473.566 458.8 473.566 475.414C473.566 492.029 459.898 492.025 459.898 508.639C459.898 525.253 473.566 525.253 473.566 541.864C473.566 558.475 459.898 558.478 459.898 575.089C459.898 591.7 473.566 591.703 473.566 608.318C473.566 624.932 459.898 624.928 459.898 641.543C459.898 658.157 473.566 658.157 473.566 674.771C473.566 691.386 459.898 691.386 459.898 708" stroke="#BBD1DC" stroke-width="4" stroke-miterlimit="10"/>
<path d="M438.653 -56.1741C438.653 -39.5634 424.989 -39.5634 424.989 -22.9491C424.989 -6.3348 438.653 -6.33848 438.653 10.2722C438.653 26.8828 424.989 26.8865 424.989 43.4971C424.989 60.1078 438.653 60.1078 438.653 76.7221C438.653 93.3364 424.989 93.3327 424.989 109.947C424.989 126.561 438.653 126.558 438.653 143.172C438.653 159.786 424.989 159.783 424.989 176.393C424.989 193.004 438.653 193.008 438.653 209.618C438.653 226.229 424.989 226.233 424.989 242.843C424.989 259.454 438.653 259.457 438.653 276.068C438.653 292.679 424.989 292.679 424.989 309.289C424.989 325.9 438.653 325.9 438.653 342.514C438.653 359.129 424.989 359.125 424.989 375.736C424.989 392.346 438.653 392.35 438.653 408.961C438.653 425.571 424.989 425.575 424.989 442.189C424.989 458.804 438.653 458.8 438.653 475.414C438.653 492.029 424.989 492.025 424.989 508.639C424.989 525.253 438.653 525.253 438.653 541.864C438.653 558.475 424.989 558.478 424.989 575.089C424.989 591.7 438.653 591.703 438.653 608.318C438.653 624.932 424.989 624.928 424.989 641.543C424.989 658.157 438.653 658.157 438.653 674.771C438.653 691.386 424.989 691.386 424.989 708" stroke="#BBD1DC" stroke-width="4" stroke-miterlimit="10"/>
<path d="M403.741 -56.1741C403.741 -39.5634 390.076 -39.5634 390.076 -22.9491C390.076 -6.3348 403.741 -6.33848 403.741 10.2722C403.741 26.8828 390.076 26.8865 390.076 43.4971C390.076 60.1078 403.741 60.1078 403.741 76.7221C403.741 93.3364 390.076 93.3327 390.076 109.947C390.076 126.561 403.741 126.558 403.741 143.172C403.741 159.786 390.076 159.783 390.076 176.393C390.076 193.004 403.741 193.008 403.741 209.618C403.741 226.229 390.076 226.233 390.076 242.843C390.076 259.454 403.741 259.457 403.741 276.068C403.741 292.679 390.076 292.679 390.076 309.289C390.076 325.9 403.741 325.9 403.741 342.514C403.741 359.129 390.076 359.125 390.076 375.736C390.076 392.346 403.741 392.35 403.741 408.961C403.741 425.571 390.076 425.575 390.076 442.189C390.076 458.804 403.741 458.8 403.741 475.414C403.741 492.029 390.076 492.025 390.076 508.639C390.076 525.253 403.741 525.253 403.741 541.864C403.741 558.475 390.076 558.478 390.076 575.089C390.076 591.7 403.741 591.703 403.741 608.318C403.741 624.932 390.076 624.928 390.076 641.543C390.076 658.157 403.741 658.157 403.741 674.771C403.741 691.386 390.076 691.386 390.076 708" stroke="#BBD1DC" stroke-width="4" stroke-miterlimit="10"/>
<path d="M368.846 -56.1741C368.846 -39.5634 355.178 -39.5634 355.178 -22.9491C355.178 -6.3348 368.846 -6.33848 368.846 10.2722C368.846 26.8828 355.178 26.8865 355.178 43.4971C355.178 60.1078 368.846 60.1078 368.846 76.7221C368.846 93.3364 355.178 93.3327 355.178 109.947C355.178 126.561 368.846 126.55 368.846 143.172C368.846 159.794 355.178 159.783 355.178 176.393C355.178 193.004 368.846 193.008 368.846 209.618C368.846 226.229 355.178 226.233 355.178 242.843C355.178 259.454 368.846 259.457 368.846 276.068C368.846 292.679 355.163 292.679 355.163 309.275C355.163 325.871 368.846 325.9 368.846 342.514C368.846 359.129 355.178 359.125 355.178 375.736C355.178 392.346 368.846 392.365 368.846 408.961C368.846 425.557 355.178 425.575 355.178 442.189C355.178 458.804 368.846 458.8 368.846 475.414C368.846 492.029 355.178 492.025 355.178 508.639C355.178 525.253 368.846 525.253 368.846 541.864C368.846 558.475 355.178 558.478 355.178 575.089C355.178 591.7 368.846 591.703 368.846 608.318C368.846 624.932 355.178 624.928 355.178 641.543C355.178 658.157 368.846 658.157 368.846 674.771C368.846 691.386 355.178 691.386 355.178 708" stroke="#BBD1DC" stroke-width="4" stroke-miterlimit="10"/>
<path d="M333.919 -56.1741C333.919 -39.5634 320.254 -39.5634 320.254 -22.9491C320.254 -6.3348 333.919 -6.33848 333.919 10.2722C333.919 26.8828 320.254 26.8865 320.254 43.4971C320.254 60.1078 333.919 60.1078 333.919 76.7221C333.919 93.3364 320.254 93.3327 320.254 109.947C320.254 126.561 333.919 126.558 333.919 143.172C333.919 159.786 320.254 159.783 320.254 176.393C320.254 193.004 333.919 193.008 333.919 209.618C333.919 226.229 320.254 226.233 320.254 242.843C320.254 259.454 333.919 259.457 333.919 276.068C333.919 292.679 320.254 292.679 320.254 309.275C320.254 325.871 333.919 325.885 333.919 342.5C333.919 359.114 320.254 359.11 320.254 375.721C320.254 392.332 333.919 392.335 333.919 408.946C333.919 425.557 320.254 425.56 320.254 442.175C320.254 458.789 333.919 458.785 333.919 475.399C333.919 492.014 320.254 492.01 320.254 508.624C320.254 525.239 333.919 525.239 333.919 541.849C333.919 558.46 320.254 558.464 320.254 575.074C320.254 591.685 333.919 591.689 333.919 608.303C333.919 624.917 320.254 624.914 320.254 641.528C320.254 658.142 333.919 658.142 333.919 674.757C333.919 691.371 320.254 691.371 320.254 707.985" stroke="#BBD1DC" stroke-width="4" stroke-miterlimit="10"/>
<path d="M299.006 -56.1741C299.006 -39.5634 285.342 -39.5634 285.342 -22.9491C285.342 -6.3348 299.006 -6.33848 299.006 10.2722C299.006 26.8828 285.342 26.8865 285.342 43.4971C285.342 60.1078 299.006 60.1078 299.006 76.7221C299.006 93.3364 285.342 93.3327 285.342 109.947C285.342 126.561 299.006 126.558 299.006 143.172C299.006 159.786 285.342 159.783 285.342 176.393C285.342 193.004 299.006 193.008 299.006 209.618C299.006 226.229 285.342 226.233 285.342 242.843C285.342 259.454 299.006 259.457 299.006 276.068C299.006 292.679 285.342 292.679 285.342 309.275C285.342 325.871 299.006 325.885 299.006 342.5C299.006 359.114 285.342 359.11 285.342 375.721C285.342 392.332 299.006 392.335 299.006 408.946C299.006 425.557 285.342 425.56 285.342 442.175C285.342 458.789 299.006 458.785 299.006 475.399C299.006 492.014 285.342 492.01 285.342 508.624C285.342 525.239 299.006 525.239 299.006 541.849C299.006 558.46 285.342 558.478 285.342 575.089C285.342 591.7 299.006 591.703 299.006 608.318C299.006 624.932 285.342 624.928 285.342 641.543C285.342 658.157 299.006 658.157 299.006 674.771C299.006 691.386 285.342 691.386 285.342 708" stroke="#BBD1DC" stroke-width="4" stroke-miterlimit="10"/>
<path d="M264.093 -56.1741C264.093 -39.5634 250.429 -39.5634 250.429 -22.9491C250.429 -6.3348 264.093 -6.33848 264.093 10.2722C264.093 26.8828 250.429 26.8865 250.429 43.4971C250.429 60.1078 264.093 60.1078 264.093 76.7221C264.093 93.3364 250.429 93.3327 250.429 109.947C250.429 126.561 264.093 126.558 264.093 143.172C264.093 159.786 250.429 159.783 250.429 176.393C250.429 193.004 264.093 193.008 264.093 209.618C264.093 226.229 250.429 226.233 250.429 242.843C250.429 259.454 264.093 259.457 264.093 276.068C264.093 292.679 250.429 292.679 250.429 309.275C250.429 325.871 264.093 325.885 264.093 342.5C264.093 359.114 250.429 359.11 250.429 375.721C250.429 392.332 264.093 392.335 264.093 408.946C264.093 425.557 250.429 425.56 250.429 442.175C250.429 458.789 264.093 458.785 264.093 475.399C264.093 492.014 250.429 492.01 250.429 508.624C250.429 525.239 264.093 525.239 264.093 541.849C264.093 558.46 250.429 558.464 250.429 575.074C250.429 591.685 264.093 591.689 264.093 608.303C264.093 624.917 250.429 624.914 250.429 641.528C250.429 658.142 264.093 658.142 264.093 674.757C264.093 691.371 250.429 691.371 250.429 707.985" stroke="#BBD1DC" stroke-width="4" stroke-miterlimit="10"/>
<path d="M229.181 -56.1741C229.181 -39.5634 215.513 -39.5634 215.513 -22.9491C215.513 -6.3348 229.181 -6.33848 229.181 10.2722C229.181 26.8828 215.513 26.8865 215.513 43.4971C215.513 60.1078 229.181 60.1078 229.181 76.7221C229.181 93.3364 215.513 93.3327 215.513 109.947C215.513 126.561 229.181 126.55 229.181 143.172C229.181 159.794 215.513 159.783 215.513 176.393C215.513 193.004 229.181 193.008 229.181 209.618C229.181 226.229 215.513 226.233 215.513 242.843C215.513 259.454 229.181 259.457 229.181 276.068C229.181 292.679 215.516 292.679 215.516 309.275C215.516 325.871 229.181 325.9 229.181 342.514C229.181 359.129 215.513 359.125 215.513 375.736C215.513 392.346 229.181 392.365 229.181 408.961C229.181 425.557 215.513 425.575 215.513 442.189C215.513 458.804 229.181 458.8 229.181 475.414C229.181 492.029 215.513 492.025 215.513 508.639C215.513 525.253 229.181 525.253 229.181 541.864C229.181 558.475 215.513 558.478 215.513 575.089C215.513 591.7 229.181 591.703 229.181 608.318C229.181 624.932 215.513 624.928 215.513 641.543C215.513 658.157 229.181 658.157 229.181 674.771C229.181 691.386 215.513 691.386 215.513 708" stroke="#BBD1DC" stroke-width="4" stroke-miterlimit="10"/>
<path d="M194.272 -56.1741C194.272 -39.5634 180.607 -39.5634 180.607 -22.9491C180.607 -6.3348 194.272 -6.33848 194.272 10.2722C194.272 26.8828 180.607 26.8865 180.607 43.4971C180.607 60.1078 194.272 60.1078 194.272 76.7221C194.272 93.3364 180.607 93.3327 180.607 109.947C180.607 126.561 194.272 126.558 194.272 143.172C194.272 159.786 180.607 159.783 180.607 176.393C180.607 193.004 194.272 193.008 194.272 209.618C194.272 226.229 180.607 226.233 180.607 242.843C180.607 259.454 194.272 259.457 194.272 276.068C194.272 292.679 180.607 292.679 180.607 309.275C180.607 325.871 194.272 325.885 194.272 342.5C194.272 359.114 180.607 359.11 180.607 375.721C180.607 392.332 194.272 392.335 194.272 408.946C194.272 425.557 180.607 425.56 180.607 442.175C180.607 458.789 194.272 458.785 194.272 475.399C194.272 492.014 180.607 492.01 180.607 508.624C180.607 525.239 194.272 525.239 194.272 541.849C194.272 558.46 180.607 558.464 180.607 575.074C180.607 591.685 194.272 591.689 194.272 608.303C194.272 624.917 180.607 624.914 180.607 641.528C180.607 658.142 194.272 658.142 194.272 674.757C194.272 691.371 180.607 691.371 180.607 707.985" stroke="#BBD1DC" stroke-width="4" stroke-miterlimit="10"/>
<path d="M159.359 -56.1741C159.359 -39.5634 145.695 -39.5634 145.695 -22.9491C145.695 -6.3348 159.359 -6.33848 159.359 10.2722C159.359 26.8828 145.695 26.8865 145.695 43.4971C145.695 60.1078 159.359 60.1078 159.359 76.7221C159.359 93.3364 145.695 93.3327 145.695 109.947C145.695 126.561 159.359 126.558 159.359 143.172C159.359 159.786 145.695 159.783 145.695 176.393C145.695 193.004 159.359 193.008 159.359 209.618C159.359 226.229 145.695 226.233 145.695 242.843C145.695 259.454 159.359 259.457 159.359 276.068C159.359 292.679 145.695 292.679 145.695 309.275C145.695 325.871 159.359 325.885 159.359 342.5C159.359 359.114 145.695 359.11 145.695 375.721C145.695 392.332 159.359 392.335 159.359 408.946C159.359 425.557 145.695 425.56 145.695 442.175C145.695 458.789 159.359 458.785 159.359 475.399C159.359 492.014 145.695 492.01 145.695 508.624C145.695 525.239 159.359 525.239 159.359 541.849C159.359 558.46 145.695 558.464 145.695 575.074C145.695 591.685 159.359 591.689 159.359 608.303C159.359 624.917 145.695 624.914 145.695 641.528C145.695 658.142 159.359 658.142 159.359 674.757C159.359 691.371 145.695 691.371 145.695 707.985" stroke="#BBD1DC" stroke-width="4" stroke-miterlimit="10"/>
<path d="M124.45 -56.1741C124.45 -39.5634 110.782 -39.5634 110.782 -22.9491C110.782 -6.3348 124.45 -6.33848 124.45 10.2722C124.45 26.8828 110.782 26.8865 110.782 43.4971C110.782 60.1078 124.45 60.1078 124.45 76.7221C124.45 93.3364 110.782 93.3327 110.782 109.947C110.782 126.561 124.45 126.55 124.45 143.172C124.45 159.794 110.782 159.783 110.782 176.393C110.782 193.004 124.45 193.008 124.45 209.618C124.45 226.229 110.782 226.233 110.782 242.843C110.782 259.454 124.45 259.457 124.45 276.068C124.45 292.679 110.782 292.679 110.782 309.275C110.782 325.871 124.45 325.885 124.45 342.5C124.45 359.114 110.782 359.11 110.782 375.721C110.782 392.332 124.45 392.335 124.45 408.946C124.45 425.557 110.782 425.56 110.782 442.175C110.782 458.789 124.45 458.785 124.45 475.399C124.45 492.014 110.782 492.01 110.782 508.624C110.782 525.239 124.45 525.239 124.45 541.849C124.45 558.46 110.782 558.464 110.782 575.074C110.782 591.685 124.45 591.689 124.45 608.303C124.45 624.917 110.782 624.914 110.782 641.528C110.782 658.142 124.45 658.142 124.45 674.757C124.45 691.371 110.782 691.371 110.782 707.985" stroke="#BBD1DC" stroke-width="4" stroke-miterlimit="10"/>
<path d="M89.5372 -56.1741C89.5372 -39.5634 75.8691 -39.5634 75.8691 -22.9491C75.8691 -6.3348 89.5372 -6.33848 89.5372 10.2722C89.5372 26.8828 75.8802 26.8865 75.8802 43.4971C75.8802 60.1078 89.5483 60.1078 89.5483 76.7221C89.5483 93.3364 75.8802 93.3327 75.8802 109.947C75.8802 126.561 89.5483 126.558 89.5483 143.172C89.5483 159.786 75.8802 159.783 75.8802 176.393C75.8802 193.004 89.5483 193.008 89.5483 209.618C89.5483 226.229 75.8802 226.233 75.8802 242.843C75.8802 259.454 89.5483 259.457 89.5483 276.068C89.5483 292.679 75.8802 292.679 75.8802 309.275C75.8802 325.871 89.5483 325.885 89.5483 342.5C89.5483 359.114 75.8802 359.125 75.8802 375.736C75.8802 392.346 89.5483 392.35 89.5483 408.961C89.5483 425.571 75.8802 425.575 75.8802 442.189C75.8802 458.804 89.5483 458.8 89.5483 475.414C89.5483 492.029 75.8802 492.025 75.8802 508.639C75.8802 525.253 89.5483 525.253 89.5483 541.864C89.5483 558.475 75.8802 558.478 75.8802 575.089C75.8802 591.7 89.5483 591.703 89.5483 608.318C89.5483 624.932 75.8802 624.928 75.8802 641.543C75.8802 658.157 89.5483 658.157 89.5483 674.771C89.5483 691.386 75.8802 691.386 75.8802 708" stroke="#BBD1DC" stroke-width="4" stroke-miterlimit="10"/>
<path d="M54.6246 -56.1741C54.6246 -39.5634 40.9602 -39.5634 40.9602 -22.9491C40.9602 -6.3348 54.6246 -6.33848 54.6246 10.2722C54.6246 26.8828 40.9602 26.8865 40.9602 43.4971C40.9602 60.1078 54.6246 60.1078 54.6246 76.7221C54.6246 93.3364 40.9602 93.3327 40.9602 109.947C40.9602 126.561 54.6246 126.558 54.6246 143.172C54.6246 159.786 40.9602 159.783 40.9602 176.393C40.9602 193.004 54.6246 193.008 54.6246 209.618C54.6246 226.229 40.9602 226.233 40.9602 242.843C40.9602 259.454 54.6246 259.457 54.6246 276.068C54.6246 292.679 40.9602 292.679 40.9602 309.275C40.9602 325.871 54.6246 325.885 54.6246 342.5C54.6246 359.114 40.9602 359.11 40.9602 375.721C40.9602 392.332 54.6246 392.335 54.6246 408.946C54.6246 425.557 40.9602 425.56 40.9602 442.175C40.9602 458.789 54.6246 458.785 54.6246 475.399C54.6246 492.014 40.9602 492.01 40.9602 508.624C40.9602 525.239 54.6246 525.239 54.6246 541.849C54.6246 558.46 40.9602 558.464 40.9602 575.074C40.9602 591.685 54.6246 591.689 54.6246 608.303C54.6246 624.917 40.9602 624.914 40.9602 641.528C40.9602 658.142 54.6246 658.142 54.6246 674.757C54.6246 691.371 40.9602 691.371 40.9602 707.985" stroke="#BBD1DC" stroke-width="4" stroke-miterlimit="10"/>
<path d="M19.7119 -56.1741C19.7119 -39.5634 6.04749 -39.5634 6.04749 -22.9491C6.04749 -6.3348 19.7119 -6.33848 19.7119 10.2722C19.7119 26.8828 6.04749 26.8865 6.04749 43.4971C6.04749 60.1078 19.7119 60.1078 19.7119 76.7221C19.7119 93.3364 6.04749 93.3327 6.04749 109.947C6.04749 126.561 19.7119 126.55 19.7119 143.172C19.7119 159.794 6.04749 159.783 6.04749 176.393C6.04749 193.004 19.7119 193.008 19.7119 209.618C19.7119 226.229 6.04749 226.233 6.04749 242.843C6.04749 259.454 19.7119 259.457 19.7119 276.068C19.7119 292.679 6.04749 292.679 6.04749 309.275C6.04749 325.871 19.7119 325.885 19.7119 342.5C19.7119 359.114 6.04749 359.125 6.04749 375.736C6.04749 392.346 19.7119 392.35 19.7119 408.961C19.7119 425.571 6.04749 425.575 6.04749 442.189C6.04749 458.804 19.7119 458.8 19.7119 475.414C19.7119 492.029 6.04749 492.025 6.04749 508.639C6.04749 525.253 19.7119 525.253 19.7119 541.864C19.7119 558.475 6.04749 558.478 6.04749 575.089C6.04749 591.7 19.7119 591.703 19.7119 608.318C19.7119 624.932 6.04749 624.928 6.04749 641.543C6.04749 658.157 19.7119 658.157 19.7119 674.771C19.7119 691.386 6.04749 691.386 6.04749 708" stroke="#BBD1DC" stroke-width="4" stroke-miterlimit="10"/>
<path d="M959.929 -58C959.929 -41.3894 946.261 -41.3894 946.261 -24.775C946.261 -8.16073 959.929 -8.16441 959.929 8.44623C959.929 25.0569 946.261 25.0606 946.261 41.6712C946.261 58.2818 959.929 58.2818 959.929 74.8961C959.929 91.5105 946.261 91.5068 946.261 108.121C946.261 124.735 959.929 124.724 959.929 141.346C959.929 157.968 946.261 157.957 946.261 174.567C946.261 191.178 959.929 191.182 959.929 207.792C959.929 224.403 946.261 224.407 946.261 241.017C946.261 257.628 959.929 257.632 959.929 274.242C959.929 290.853 946.246 290.853 946.246 307.449C946.246 324.045 959.929 324.074 959.929 340.688C959.929 357.303 946.261 357.299 946.261 373.91C946.261 390.52 959.929 390.539 959.929 407.135C959.929 423.731 946.261 423.749 946.261 440.363C946.261 456.978 959.929 456.974 959.929 473.588C959.929 490.203 946.261 490.199 946.261 506.813C946.261 523.428 959.929 523.428 959.929 540.038C959.929 556.649 946.261 556.652 946.261 573.263C946.261 589.874 959.929 589.877 959.929 606.492C959.929 623.106 946.261 623.102 946.261 639.717C946.261 656.331 959.929 656.331 959.929 672.945C959.929 689.56 946.261 689.56 946.261 706.174" stroke="#BBD1DC" stroke-width="4" stroke-miterlimit="10"/>
<path d="M925.002 -58C925.002 -41.3894 911.337 -41.3894 911.337 -24.775C911.337 -8.16073 925.002 -8.16441 925.002 8.44623C925.002 25.0569 911.337 25.0606 911.337 41.6712C911.337 58.2818 925.002 58.2818 925.002 74.8961C925.002 91.5105 911.337 91.5068 911.337 108.121C911.337 124.735 925.002 124.732 925.002 141.346C925.002 157.96 911.337 157.957 911.337 174.567C911.337 191.178 925.002 191.182 925.002 207.792C925.002 224.403 911.337 224.407 911.337 241.017C911.337 257.628 925.002 257.632 925.002 274.242C925.002 290.853 911.337 290.853 911.337 307.449C911.337 324.045 925.002 324.059 925.002 340.674C925.002 357.288 911.337 357.284 911.337 373.895C911.337 390.506 925.002 390.509 925.002 407.12C925.002 423.731 911.337 423.734 911.337 440.349C911.337 456.963 925.002 456.959 925.002 473.574C925.002 490.188 911.337 490.184 911.337 506.799C911.337 523.413 925.002 523.413 925.002 540.023C925.002 556.634 911.337 556.638 911.337 573.248C911.337 589.859 925.002 589.863 925.002 606.477C925.002 623.091 911.337 623.088 911.337 639.702C911.337 656.316 925.002 656.316 925.002 672.931C925.002 689.545 911.337 689.545 911.337 706.159" stroke="#BBD1DC" stroke-width="4" stroke-miterlimit="10"/>
<path d="M890.089 -58C890.089 -41.3894 876.425 -41.3894 876.425 -24.775C876.425 -8.16073 890.089 -8.16441 890.089 8.44623C890.089 25.0569 876.425 25.0606 876.425 41.6712C876.425 58.2818 890.089 58.2818 890.089 74.8961C890.089 91.5105 876.425 91.5068 876.425 108.121C876.425 124.735 890.089 124.732 890.089 141.346C890.089 157.96 876.425 157.957 876.425 174.567C876.425 191.178 890.089 191.182 890.089 207.792C890.089 224.403 876.425 224.407 876.425 241.017C876.425 257.628 890.089 257.632 890.089 274.242C890.089 290.853 876.425 290.853 876.425 307.449C876.425 324.045 890.089 324.059 890.089 340.674C890.089 357.288 876.425 357.284 876.425 373.895C876.425 390.506 890.089 390.509 890.089 407.12C890.089 423.731 876.425 423.734 876.425 440.349C876.425 456.963 890.089 456.959 890.089 473.574C890.089 490.188 876.425 490.184 876.425 506.799C876.425 523.413 890.089 523.413 890.089 540.023C890.089 556.634 876.425 556.652 876.425 573.263C876.425 589.874 890.089 589.877 890.089 606.492C890.089 623.106 876.425 623.102 876.425 639.717C876.425 656.331 890.089 656.331 890.089 672.945C890.089 689.56 876.425 689.56 876.425 706.174" stroke="#BBD1DC" stroke-width="4" stroke-miterlimit="10"/>
<path d="M855.176 -58C855.176 -41.3894 841.512 -41.3894 841.512 -24.775C841.512 -8.16073 855.176 -8.16441 855.176 8.44623C855.176 25.0569 841.512 25.0606 841.512 41.6712C841.512 58.2818 855.176 58.2818 855.176 74.8961C855.176 91.5105 841.512 91.5068 841.512 108.121C841.512 124.735 855.176 124.732 855.176 141.346C855.176 157.96 841.512 157.957 841.512 174.567C841.512 191.178 855.176 191.182 855.176 207.792C855.176 224.403 841.512 224.407 841.512 241.017C841.512 257.628 855.176 257.632 855.176 274.242C855.176 290.853 841.512 290.853 841.512 307.449C841.512 324.045 855.176 324.059 855.176 340.674C855.176 357.288 841.512 357.284 841.512 373.895C841.512 390.506 855.176 390.509 855.176 407.12C855.176 423.731 841.512 423.734 841.512 440.349C841.512 456.963 855.176 456.959 855.176 473.574C855.176 490.188 841.512 490.184 841.512 506.799C841.512 523.413 855.176 523.413 855.176 540.023C855.176 556.634 841.512 556.638 841.512 573.248C841.512 589.859 855.176 589.863 855.176 606.477C855.176 623.091 841.512 623.088 841.512 639.702C841.512 656.316 855.176 656.316 855.176 672.931C855.176 689.545 841.512 689.545 841.512 706.159" stroke="#BBD1DC" stroke-width="4" stroke-miterlimit="10"/>
<path d="M820.264 -58C820.264 -41.3894 806.596 -41.3894 806.596 -24.775C806.596 -8.16073 820.264 -8.16441 820.264 8.44623C820.264 25.0569 806.596 25.0606 806.596 41.6712C806.596 58.2818 820.264 58.2818 820.264 74.8961C820.264 91.5105 806.596 91.5068 806.596 108.121C806.596 124.735 820.264 124.724 820.264 141.346C820.264 157.968 806.596 157.957 806.596 174.567C806.596 191.178 820.264 191.182 820.264 207.792C820.264 224.403 806.596 224.407 806.596 241.017C806.596 257.628 820.264 257.632 820.264 274.242C820.264 290.853 806.599 290.853 806.599 307.449C806.599 324.045 820.264 324.074 820.264 340.688C820.264 357.303 806.596 357.299 806.596 373.91C806.596 390.52 820.264 390.539 820.264 407.135C820.264 423.731 806.596 423.749 806.596 440.363C806.596 456.978 820.264 456.974 820.264 473.588C820.264 490.203 806.596 490.199 806.596 506.813C806.596 523.428 820.264 523.428 820.264 540.038C820.264 556.649 806.596 556.652 806.596 573.263C806.596 589.874 820.264 589.877 820.264 606.492C820.264 623.106 806.596 623.102 806.596 639.717C806.596 656.331 820.264 656.331 820.264 672.945C820.264 689.56 806.596 689.56 806.596 706.174" stroke="#BBD1DC" stroke-width="4" stroke-miterlimit="10"/>
<path d="M785.355 -58C785.355 -41.3894 771.69 -41.3894 771.69 -24.775C771.69 -8.16073 785.355 -8.16441 785.355 8.44623C785.355 25.0569 771.69 25.0606 771.69 41.6712C771.69 58.2818 785.355 58.2818 785.355 74.8961C785.355 91.5105 771.69 91.5068 771.69 108.121C771.69 124.735 785.355 124.732 785.355 141.346C785.355 157.96 771.69 157.957 771.69 174.567C771.69 191.178 785.355 191.182 785.355 207.792C785.355 224.403 771.69 224.407 771.69 241.017C771.69 257.628 785.355 257.632 785.355 274.242C785.355 290.853 771.69 290.853 771.69 307.449C771.69 324.045 785.355 324.059 785.355 340.674C785.355 357.288 771.69 357.284 771.69 373.895C771.69 390.506 785.355 390.509 785.355 407.12C785.355 423.731 771.69 423.734 771.69 440.349C771.69 456.963 785.355 456.959 785.355 473.574C785.355 490.188 771.69 490.184 771.69 506.799C771.69 523.413 785.355 523.413 785.355 540.023C785.355 556.634 771.69 556.638 771.69 573.248C771.69 589.859 785.355 589.863 785.355 606.477C785.355 623.091 771.69 623.088 771.69 639.702C771.69 656.316 785.355 656.316 785.355 672.931C785.355 689.545 771.69 689.545 771.69 706.159" stroke="#BBD1DC" stroke-width="4" stroke-miterlimit="10"/>
<path d="M750.442 -58C750.442 -41.3894 736.777 -41.3894 736.777 -24.775C736.777 -8.16073 750.442 -8.16441 750.442 8.44623C750.442 25.0569 736.777 25.0606 736.777 41.6712C736.777 58.2818 750.442 58.2818 750.442 74.8961C750.442 91.5105 736.777 91.5068 736.777 108.121C736.777 124.735 750.442 124.732 750.442 141.346C750.442 157.96 736.777 157.957 736.777 174.567C736.777 191.178 750.442 191.182 750.442 207.792C750.442 224.403 736.777 224.407 736.777 241.017C736.777 257.628 750.442 257.632 750.442 274.242C750.442 290.853 736.777 290.853 736.777 307.449C736.777 324.045 750.442 324.059 750.442 340.674C750.442 357.288 736.777 357.284 736.777 373.895C736.777 390.506 750.442 390.509 750.442 407.12C750.442 423.731 736.777 423.734 736.777 440.349C736.777 456.963 750.442 456.959 750.442 473.574C750.442 490.188 736.777 490.184 736.777 506.799C736.777 523.413 750.442 523.413 750.442 540.023C750.442 556.634 736.777 556.638 736.777 573.248C736.777 589.859 750.442 589.863 750.442 606.477C750.442 623.091 736.777 623.088 736.777 639.702C736.777 656.316 750.442 656.316 750.442 672.931C750.442 689.545 736.777 689.545 736.777 706.159" stroke="#BBD1DC" stroke-width="4" stroke-miterlimit="10"/>
<path d="M715.533 -58C715.533 -41.3894 701.865 -41.3894 701.865 -24.775C701.865 -8.16073 715.533 -8.16441 715.533 8.44623C715.533 25.0569 701.865 25.0606 701.865 41.6712C701.865 58.2818 715.533 58.2818 715.533 74.8961C715.533 91.5105 701.865 91.5068 701.865 108.121C701.865 124.735 715.533 124.724 715.533 141.346C715.533 157.968 701.865 157.957 701.865 174.567C701.865 191.178 715.533 191.182 715.533 207.792C715.533 224.403 701.865 224.407 701.865 241.017C701.865 257.628 715.533 257.632 715.533 274.242C715.533 290.853 701.865 290.853 701.865 307.449C701.865 324.045 715.533 324.059 715.533 340.674C715.533 357.288 701.865 357.284 701.865 373.895C701.865 390.506 715.533 390.509 715.533 407.12C715.533 423.731 701.865 423.734 701.865 440.349C701.865 456.963 715.533 456.959 715.533 473.574C715.533 490.188 701.865 490.184 701.865 506.799C701.865 523.413 715.533 523.413 715.533 540.023C715.533 556.634 701.865 556.638 701.865 573.248C701.865 589.859 715.533 589.863 715.533 606.477C715.533 623.091 701.865 623.088 701.865 639.702C701.865 656.316 715.533 656.316 715.533 672.931C715.533 689.545 701.865 689.545 701.865 706.159" stroke="#BBD1DC" stroke-width="4" stroke-miterlimit="10"/>
<path d="M680.62 -58C680.62 -41.3894 666.952 -41.3894 666.952 -24.775C666.952 -8.16073 680.62 -8.16441 680.62 8.44623C680.62 25.0569 666.963 25.0606 666.963 41.6712C666.963 58.2818 680.631 58.2818 680.631 74.8961C680.631 91.5105 666.963 91.5068 666.963 108.121C666.963 124.735 680.631 124.732 680.631 141.346C680.631 157.96 666.963 157.957 666.963 174.567C666.963 191.178 680.631 191.182 680.631 207.792C680.631 224.403 666.963 224.407 666.963 241.017C666.963 257.628 680.631 257.632 680.631 274.242C680.631 290.853 666.963 290.853 666.963 307.449C666.963 324.045 680.631 324.059 680.631 340.674C680.631 357.288 666.963 357.299 666.963 373.91C666.963 390.52 680.631 390.524 680.631 407.135C680.631 423.745 666.963 423.749 666.963 440.363C666.963 456.978 680.631 456.974 680.631 473.588C680.631 490.203 666.963 490.199 666.963 506.813C666.963 523.428 680.631 523.428 680.631 540.038C680.631 556.649 666.963 556.652 666.963 573.263C666.963 589.874 680.631 589.877 680.631 606.492C680.631 623.106 666.963 623.102 666.963 639.717C666.963 656.331 680.631 656.331 680.631 672.945C680.631 689.56 666.963 689.56 666.963 706.174" stroke="#BBD1DC" stroke-width="4" stroke-miterlimit="10"/>
<path d="M645.707 -58C645.707 -41.3894 632.043 -41.3894 632.043 -24.775C632.043 -8.16073 645.707 -8.16441 645.707 8.44623C645.707 25.0569 632.043 25.0606 632.043 41.6712C632.043 58.2818 645.707 58.2818 645.707 74.8961C645.707 91.5105 632.043 91.5068 632.043 108.121C632.043 124.735 645.707 124.732 645.707 141.346C645.707 157.96 632.043 157.957 632.043 174.567C632.043 191.178 645.707 191.182 645.707 207.792C645.707 224.403 632.043 224.407 632.043 241.017C632.043 257.628 645.707 257.632 645.707 274.242C645.707 290.853 632.043 290.853 632.043 307.449C632.043 324.045 645.707 324.059 645.707 340.674C645.707 357.288 632.043 357.284 632.043 373.895C632.043 390.506 645.707 390.509 645.707 407.12C645.707 423.731 632.043 423.734 632.043 440.349C632.043 456.963 645.707 456.959 645.707 473.574C645.707 490.188 632.043 490.184 632.043 506.799C632.043 523.413 645.707 523.413 645.707 540.023C645.707 556.634 632.043 556.638 632.043 573.248C632.043 589.859 645.707 589.863 645.707 606.477C645.707 623.091 632.043 623.088 632.043 639.702C632.043 656.316 645.707 656.316 645.707 672.931C645.707 689.545 632.043 689.545 632.043 706.159" stroke="#BBD1DC" stroke-width="4" stroke-miterlimit="10"/>
<path d="M610.795 -58C610.795 -41.3894 597.13 -41.3894 597.13 -24.775C597.13 -8.16073 610.795 -8.16441 610.795 8.44623C610.795 25.0569 597.13 25.0606 597.13 41.6712C597.13 58.2818 610.795 58.2818 610.795 74.8961C610.795 91.5105 597.13 91.5068 597.13 108.121C597.13 124.735 610.795 124.724 610.795 141.346C610.795 157.968 597.13 157.957 597.13 174.567C597.13 191.178 610.795 191.182 610.795 207.792C610.795 224.403 597.13 224.407 597.13 241.017C597.13 257.628 610.795 257.632 610.795 274.242C610.795 290.853 597.13 290.853 597.13 307.449C597.13 324.045 610.795 324.059 610.795 340.674C610.795 357.288 597.13 357.299 597.13 373.91C597.13 390.52 610.795 390.524 610.795 407.135C610.795 423.745 597.13 423.749 597.13 440.363C597.13 456.978 610.795 456.974 610.795 473.588C610.795 490.203 597.13 490.199 597.13 506.813C597.13 523.428 610.795 523.428 610.795 540.038C610.795 556.649 597.13 556.652 597.13 573.263C597.13 589.874 610.795 589.877 610.795 606.492C610.795 623.106 597.13 623.102 597.13 639.717C597.13 656.331 610.795 656.331 610.795 672.945C610.795 689.56 597.13 689.56 597.13 706.174" stroke="#BBD1DC" stroke-width="4" stroke-miterlimit="10"/>
</g>
<defs>
<clipPath id="clip0_17_439">
<rect width="1176" height="650" fill="white"/>
</clipPath>
</defs>
</svg>
