<svg width="168" height="171" viewBox="0 0 168 171" fill="none" xmlns="http://www.w3.org/2000/svg">
<g clip-path="url(#clip0_17_459)">
<path d="M4.29935 2.14399C4.30082 2.56981 4.17577 2.98649 3.94004 3.34127C3.70431 3.69604 3.3685 3.97294 2.97514 4.13692C2.58178 4.30089 2.14855 4.34455 1.73034 4.26238C1.31212 4.18021 0.927711 3.97589 0.6258 3.67531C0.323889 3.37473 0.118053 2.9914 0.0343574 2.57387C-0.0493382 2.15633 -0.00712817 1.72337 0.155642 1.32982C0.318412 0.936272 0.594421 0.599829 0.948716 0.3631C1.30301 0.12637 1.71965 2.5317e-06 2.14589 0C2.71574 -3.38467e-06 3.26236 0.225644 3.666 0.627508C4.06964 1.02937 4.29739 1.57469 4.29935 2.14399Z" fill="#325D9C"/>
<path d="M24.7574 2.14399C24.7574 2.56803 24.6315 2.98255 24.3957 3.33513C24.1599 3.68771 23.8248 3.96251 23.4326 4.12478C23.0405 4.28705 22.609 4.32951 22.1927 4.24679C21.7764 4.16406 21.394 3.95986 21.0939 3.66002C20.7938 3.36018 20.5894 2.97816 20.5066 2.56226C20.4238 2.14637 20.4663 1.71528 20.6287 1.32352C20.7911 0.931758 21.0662 0.596913 21.4191 0.361328C21.772 0.125743 22.1869 0 22.6114 0C23.1805 0 23.7264 0.225884 24.1289 0.627961C24.5313 1.03004 24.7574 1.57537 24.7574 2.14399Z" fill="#325D9C"/>
<path d="M45.2228 2.14399C45.2243 2.56981 45.0992 2.98649 44.8635 3.34127C44.6278 3.69604 44.292 3.97294 43.8986 4.13692C43.5052 4.30089 43.072 4.34455 42.6538 4.26238C42.2356 4.18021 41.8512 3.97589 41.5493 3.67531C41.2474 3.37473 41.0415 2.9914 40.9578 2.57387C40.8741 2.15633 40.9163 1.72337 41.0791 1.32982C41.2419 0.936272 41.5179 0.599829 41.8722 0.3631C42.2265 0.12637 42.6431 2.5317e-06 43.0693 0C43.6392 -3.38467e-06 44.1858 0.225644 44.5895 0.627508C44.9931 1.02937 45.2208 1.57469 45.2228 2.14399Z" fill="#325D9C"/>
<path d="M63.5347 4.28798C64.7199 4.28798 65.6807 3.32809 65.6807 2.14399C65.6807 0.959898 64.7199 0 63.5347 0C62.3495 0 61.3887 0.959898 61.3887 2.14399C61.3887 3.32809 62.3495 4.28798 63.5347 4.28798Z" fill="#325D9C"/>
<path d="M86.1386 2.144C86.1386 2.56836 86.0126 2.98317 85.7764 3.33591C85.5403 3.68865 85.2047 3.96344 84.8121 4.12549C84.4196 4.28755 83.9877 4.32957 83.5712 4.24624C83.1547 4.16291 82.7723 3.95798 82.4725 3.65739C82.1727 3.35681 81.9689 2.97409 81.8869 2.55771C81.8049 2.14133 81.8485 1.71001 82.0121 1.31838C82.1756 0.926749 82.4518 0.592419 82.8057 0.357729C83.1596 0.123038 83.5753 -0.00145552 84 1.28409e-05C84.5679 0.00197595 85.1118 0.228726 85.5127 0.63059C85.9136 1.03245 86.1386 1.57667 86.1386 2.144Z" fill="#325D9C"/>
<path d="M106.611 2.144C106.613 2.57014 106.488 2.98711 106.252 3.34205C106.016 3.69698 105.679 3.97388 105.285 4.13763C104.892 4.30139 104.458 4.34462 104.04 4.26184C103.621 4.17907 103.237 3.97401 102.935 3.67269C102.634 3.37136 102.428 2.98734 102.346 2.56931C102.263 2.15129 102.306 1.7181 102.47 1.32468C102.634 0.931261 102.911 0.595333 103.266 0.359498C103.621 0.123663 104.039 -0.00145417 104.465 1.27526e-05C105.034 0.00196809 105.579 0.22848 105.981 0.630133C106.383 1.03179 106.609 1.57598 106.611 2.144Z" fill="#325D9C"/>
<path d="M124.923 4.28798C126.108 4.28798 127.069 3.32809 127.069 2.14399C127.069 0.959898 126.108 0 124.923 0C123.738 0 122.777 0.959898 122.777 2.14399C122.777 3.32809 123.738 4.28798 124.923 4.28798Z" fill="#325D9C"/>
<path d="M145.389 4.28798C146.574 4.28798 147.535 3.32809 147.535 2.14399C147.535 0.959898 146.574 0 145.389 0C144.203 0 143.243 0.959898 143.243 2.14399C143.243 3.32809 144.203 4.28798 145.389 4.28798Z" fill="#325D9C"/>
<path d="M168 2.14399C168.002 2.56981 167.876 2.98649 167.641 3.34127C167.405 3.69604 167.069 3.97294 166.676 4.13692C166.282 4.30089 165.849 4.34455 165.431 4.26238C165.013 4.18021 164.628 3.97589 164.326 3.67531C164.025 3.37473 163.819 2.9914 163.735 2.57387C163.651 2.15633 163.694 1.72337 163.856 1.32982C164.019 0.936272 164.295 0.599829 164.649 0.3631C165.004 0.12637 165.42 2.5317e-06 165.847 0C166.416 -3.38467e-06 166.963 0.225644 167.367 0.627508C167.77 1.02937 167.998 1.57469 168 2.14399Z" fill="#325D9C"/>
<path d="M4.29952 20.6684C4.30542 21.0951 4.18414 21.5139 3.95113 21.8716C3.71811 22.2293 3.38388 22.5097 2.99094 22.6771C2.59801 22.8444 2.16411 22.8913 1.74444 22.8117C1.32477 22.732 0.938291 22.5295 0.634145 22.2299C0.329999 21.9302 0.121932 21.5469 0.036404 21.1288C-0.0491239 20.7107 -0.00824806 20.2766 0.153833 19.8817C0.315915 19.4869 0.591878 19.1491 0.946629 18.9114C1.30138 18.6736 1.71889 18.5467 2.14606 18.5466C2.71267 18.5447 3.25708 18.7666 3.66051 19.1641C4.06394 19.5616 4.29365 20.1023 4.29952 20.6684Z" fill="#325D9C"/>
<path d="M24.7574 20.6684C24.7618 21.0933 24.6397 21.51 24.4066 21.8655C24.1735 22.221 23.8399 22.4993 23.4482 22.665C23.0565 22.8306 22.6243 22.8763 22.2065 22.7961C21.7888 22.7159 21.4043 22.5135 21.102 22.2145C20.7996 21.9156 20.593 21.5336 20.5084 21.1171C20.4237 20.7007 20.4649 20.2684 20.6267 19.8754C20.7884 19.4823 21.0634 19.1461 21.4168 18.9096C21.7702 18.673 22.186 18.5467 22.6114 18.5466C23.1767 18.5466 23.7192 18.7694 24.121 19.1667C24.5229 19.564 24.7516 20.1036 24.7574 20.6684Z" fill="#325D9C"/>
<path d="M45.2229 20.6684C45.2288 21.0951 45.1075 21.5139 44.8745 21.8716C44.6415 22.2293 44.3072 22.5097 43.9143 22.6771C43.5213 22.8444 43.0875 22.8913 42.6678 22.8117C42.2481 22.732 41.8616 22.5295 41.5575 22.2299C41.2533 21.9302 41.0453 21.5469 40.9597 21.1288C40.8742 20.7107 40.9151 20.2766 41.0772 19.8817C41.2393 19.4869 41.5152 19.1491 41.87 18.9114C42.2247 18.6736 42.6422 18.5467 43.0694 18.5466C43.636 18.5447 44.1804 18.7666 44.5838 19.1641C44.9873 19.5616 45.217 20.1023 45.2229 20.6684Z" fill="#325D9C"/>
<path d="M63.5347 22.8124C64.7199 22.8124 65.6807 21.8525 65.6807 20.6684C65.6807 19.4843 64.7199 18.5244 63.5347 18.5244C62.3495 18.5244 61.3887 19.4843 61.3887 20.6684C61.3887 21.8525 62.3495 22.8124 63.5347 22.8124Z" fill="#325D9C"/>
<path d="M86.1386 20.6684C86.1431 21.0937 86.0208 21.5106 85.7873 21.8663C85.5539 22.2219 85.2199 22.5002 84.8277 22.6657C84.4355 22.8312 84.003 22.8764 83.585 22.7956C83.1671 22.7148 82.7826 22.5116 82.4805 22.2119C82.1785 21.9122 81.9724 21.5296 81.8887 21.1126C81.8049 20.6956 81.8471 20.2632 82.01 19.8702C82.1729 19.4773 82.4491 19.1416 82.8035 18.906C83.1578 18.6703 83.5743 18.5452 84 18.5466C84.5641 18.5486 85.1047 18.7723 85.5049 19.1693C85.9051 19.5664 86.1328 20.1049 86.1386 20.6684Z" fill="#325D9C"/>
<path d="M106.611 20.6684C106.617 21.0954 106.496 21.5145 106.263 21.8724C106.029 22.2302 105.694 22.5106 105.301 22.6778C104.908 22.8449 104.473 22.8914 104.054 22.8111C103.634 22.7309 103.247 22.5276 102.943 22.2272C102.64 21.9268 102.432 21.5429 102.347 21.1242C102.263 20.7056 102.305 20.2713 102.468 19.8766C102.631 19.4819 102.908 19.1446 103.264 18.9078C103.62 18.6709 104.038 18.5452 104.465 18.5466C105.031 18.5466 105.573 18.7694 105.975 19.1667C106.377 19.564 106.606 20.1036 106.611 20.6684Z" fill="#325D9C"/>
<path d="M124.923 22.8124C126.108 22.8124 127.069 21.8525 127.069 20.6684C127.069 19.4843 126.108 18.5244 124.923 18.5244C123.738 18.5244 122.777 19.4843 122.777 20.6684C122.777 21.8525 123.738 22.8124 124.923 22.8124Z" fill="#325D9C"/>
<path d="M145.389 22.8124C146.574 22.8124 147.535 21.8525 147.535 20.6684C147.535 19.4843 146.574 18.5244 145.389 18.5244C144.203 18.5244 143.243 19.4843 143.243 20.6684C143.243 21.8525 144.203 22.8124 145.389 22.8124Z" fill="#325D9C"/>
<path d="M168 20.6684C168.002 21.0942 167.876 21.5109 167.641 21.8657C167.405 22.2205 167.069 22.4974 166.676 22.6613C166.282 22.8253 165.849 22.869 165.431 22.7868C165.013 22.7046 164.628 22.5003 164.326 22.1997C164.025 21.8992 163.819 21.5158 163.735 21.0983C163.651 20.6808 163.694 20.2478 163.856 19.8543C164.019 19.4607 164.295 19.1243 164.649 18.8875C165.004 18.6508 165.42 18.5244 165.847 18.5244C166.129 18.5235 166.409 18.5782 166.67 18.6855C166.931 18.7928 167.169 18.9506 167.369 19.1498C167.569 19.3489 167.728 19.5856 167.836 19.8462C167.944 20.1068 168 20.3862 168 20.6684Z" fill="#325D9C"/>
<path d="M4.29959 39.1927C4.30106 39.6185 4.17602 40.0352 3.94029 40.39C3.70456 40.7448 3.36875 41.0217 2.97538 41.1856C2.58202 41.3496 2.1488 41.3933 1.73058 41.3111C1.31236 41.2289 0.927955 41.0246 0.626044 40.724C0.324133 40.4234 0.118297 40.0401 0.0346016 39.6226C-0.049094 39.2051 -0.00688403 38.7721 0.155886 38.3785C0.318656 37.985 0.594665 37.6485 0.94896 37.4118C1.30325 37.1751 1.7199 37.0487 2.14613 37.0487C2.42858 37.0477 2.70844 37.1025 2.96966 37.2098C3.23089 37.3171 3.46835 37.4749 3.66841 37.6741C3.86848 37.8732 4.02722 38.1099 4.13553 38.3705C4.24384 38.6311 4.2996 38.9105 4.29959 39.1927Z" fill="#325D9C"/>
<path d="M24.7574 39.1928C24.7574 39.6169 24.6315 40.0314 24.3957 40.384C24.1599 40.7365 23.8248 41.0113 23.4326 41.1736C23.0405 41.3359 22.609 41.3783 22.1927 41.2956C21.7764 41.2129 21.394 41.0087 21.0939 40.7089C20.7938 40.409 20.5894 40.027 20.5066 39.6111C20.4238 39.1952 20.4663 38.7641 20.6287 38.3724C20.7911 37.9806 21.0662 37.6457 21.4191 37.4102C21.772 37.1746 22.1869 37.0488 22.6114 37.0488C23.1805 37.0488 23.7264 37.2747 24.1289 37.6768C24.5313 38.0789 24.7574 38.6242 24.7574 39.1928Z" fill="#325D9C"/>
<path d="M45.2228 39.1927C45.2243 39.6185 45.0992 40.0352 44.8635 40.39C44.6278 40.7448 44.292 41.0217 43.8986 41.1856C43.5052 41.3496 43.072 41.3933 42.6538 41.3111C42.2356 41.2289 41.8512 41.0246 41.5493 40.724C41.2474 40.4234 41.0415 40.0401 40.9578 39.6226C40.8741 39.2051 40.9163 38.7721 41.0791 38.3785C41.2419 37.985 41.5179 37.6485 41.8722 37.4118C42.2265 37.1751 42.6431 37.0487 43.0693 37.0487C43.3518 37.0477 43.6317 37.1025 43.8929 37.2098C44.1541 37.3171 44.3916 37.4749 44.5916 37.6741C44.7917 37.8732 44.9504 38.1099 45.0587 38.3705C45.1671 38.6311 45.2228 38.9105 45.2228 39.1927Z" fill="#325D9C"/>
<path d="M63.5347 41.3368C64.7199 41.3368 65.6807 40.3769 65.6807 39.1928C65.6807 38.0087 64.7199 37.0488 63.5347 37.0488C62.3495 37.0488 61.3887 38.0087 61.3887 39.1928C61.3887 40.3769 62.3495 41.3368 63.5347 41.3368Z" fill="#325D9C"/>
<path d="M86.1386 39.1928C86.1386 39.6169 86.0128 40.0314 85.777 40.384C85.5412 40.7365 85.206 41.0113 84.8139 41.1736C84.4217 41.3359 83.9902 41.3783 83.5739 41.2956C83.1576 41.2129 82.7752 41.0087 82.4751 40.7089C82.175 40.409 81.9706 40.027 81.8878 39.6111C81.805 39.1952 81.8475 38.7641 82.0099 38.3724C82.1723 37.9806 82.4474 37.6457 82.8003 37.4102C83.1532 37.1746 83.5682 37.0488 83.9926 37.0488C84.2744 37.0488 84.5535 37.1043 84.8139 37.212C85.0742 37.3198 85.3108 37.4777 85.5101 37.6768C85.7094 37.8759 85.8674 38.1122 85.9753 38.3724C86.0831 38.6325 86.1386 38.9113 86.1386 39.1928Z" fill="#325D9C"/>
<path d="M106.611 39.1927C106.613 39.6188 106.488 40.0358 106.252 40.3908C106.016 40.7457 105.679 41.0226 105.285 41.1863C104.892 41.3501 104.458 41.3933 104.04 41.3105C103.621 41.2278 103.237 41.0227 102.935 40.7214C102.634 40.4201 102.428 40.036 102.346 39.618C102.263 39.2 102.306 38.7668 102.47 38.3734C102.634 37.98 102.911 37.644 103.266 37.4082C103.621 37.1724 104.039 37.0473 104.465 37.0487C105.035 37.0487 105.58 37.2746 105.983 37.6767C106.385 38.0788 106.611 38.6241 106.611 39.1927Z" fill="#325D9C"/>
<path d="M124.923 41.3368C126.108 41.3368 127.069 40.3769 127.069 39.1928C127.069 38.0087 126.108 37.0488 124.923 37.0488C123.738 37.0488 122.777 38.0087 122.777 39.1928C122.777 40.3769 123.738 41.3368 124.923 41.3368Z" fill="#325D9C"/>
<path d="M145.389 41.3368C146.574 41.3368 147.535 40.3769 147.535 39.1928C147.535 38.0087 146.574 37.0488 145.389 37.0488C144.203 37.0488 143.243 38.0087 143.243 39.1928C143.243 40.3769 144.203 41.3368 145.389 41.3368Z" fill="#325D9C"/>
<path d="M168 39.1927C168.002 39.6185 167.876 40.0352 167.641 40.39C167.405 40.7448 167.069 41.0217 166.676 41.1856C166.282 41.3496 165.849 41.3933 165.431 41.3111C165.013 41.2289 164.628 41.0246 164.326 40.724C164.025 40.4234 163.819 40.0401 163.735 39.6226C163.651 39.2051 163.694 38.7721 163.856 38.3785C164.019 37.985 164.295 37.6485 164.649 37.4118C165.004 37.1751 165.42 37.0487 165.847 37.0487C166.129 37.0477 166.409 37.1025 166.67 37.2098C166.931 37.3171 167.169 37.4749 167.369 37.6741C167.569 37.8732 167.728 38.1099 167.836 38.3705C167.944 38.6311 168 38.9105 168 39.1927Z" fill="#325D9C"/>
<path d="M4.29949 57.7171C4.29949 58.1426 4.17319 58.5586 3.93656 58.9124C3.69993 59.2662 3.36361 59.5419 2.97012 59.7047C2.57662 59.8676 2.14363 59.9102 1.7259 59.8272C1.30817 59.7442 0.924458 59.5393 0.62329 59.2384C0.322123 58.9375 0.117025 58.5541 0.0339329 58.1368C-0.049159 57.7195 -0.00651323 57.2869 0.156477 56.8938C0.319468 56.5007 0.595483 56.1647 0.949619 55.9283C1.30375 55.6919 1.7201 55.5657 2.14602 55.5657C2.42909 55.5647 2.70956 55.6197 2.97127 55.7275C3.23299 55.8352 3.47077 55.9937 3.67094 56.1936C3.8711 56.3936 4.02969 56.6312 4.13756 56.8926C4.24543 57.1541 4.30047 57.4343 4.29949 57.7171Z" fill="#325D9C"/>
<path d="M24.7575 57.7172C24.7561 58.1409 24.6289 58.5547 24.3922 58.9063C24.1555 59.2579 23.8199 59.5316 23.4276 59.6927C23.0353 59.8538 22.6041 59.8952 22.1883 59.8117C21.7725 59.7281 21.3908 59.5233 21.0914 59.2232C20.792 58.9231 20.5884 58.541 20.5062 58.1253C20.4239 57.7096 20.4669 57.2789 20.6295 56.8876C20.7922 56.4963 21.0672 56.1619 21.42 55.9266C21.7727 55.6914 22.1874 55.5658 22.6115 55.5658C22.8939 55.5658 23.1736 55.6215 23.4345 55.7297C23.6953 55.8379 23.9322 55.9965 24.1316 56.1964C24.331 56.3962 24.4889 56.6335 24.5963 56.8945C24.7037 57.1554 24.7585 57.435 24.7575 57.7172Z" fill="#325D9C"/>
<path d="M45.2228 57.7171C45.2228 58.1426 45.0965 58.5586 44.8599 58.9124C44.6233 59.2662 44.2869 59.5419 43.8935 59.7047C43.5 59.8676 43.067 59.9102 42.6492 59.8272C42.2315 59.7442 41.8478 59.5393 41.5466 59.2384C41.2455 58.9375 41.0404 58.5541 40.9573 58.1368C40.8742 57.7195 40.9168 57.2869 41.0798 56.8938C41.2428 56.5007 41.5188 56.1647 41.873 55.9283C42.2271 55.6919 42.6434 55.5657 43.0694 55.5657C43.3524 55.5647 43.6329 55.6197 43.8946 55.7275C44.1563 55.8352 44.3941 55.9937 44.5943 56.1936C44.7944 56.3936 44.953 56.6312 45.0609 56.8926C45.1688 57.1541 45.2238 57.4343 45.2228 57.7171Z" fill="#325D9C"/>
<path d="M63.5347 59.8611C64.7199 59.8611 65.6807 58.9012 65.6807 57.7171C65.6807 56.533 64.7199 55.5731 63.5347 55.5731C62.3495 55.5731 61.3887 56.533 61.3887 57.7171C61.3887 58.9012 62.3495 59.8611 63.5347 59.8611Z" fill="#325D9C"/>
<path d="M86.1386 57.7172C86.1372 58.1409 86.0101 58.5547 85.7734 58.9063C85.5367 59.2579 85.201 59.5316 84.8087 59.6927C84.4164 59.8538 83.9852 59.8952 83.5694 59.8117C83.1536 59.7281 82.7719 59.5233 82.4725 59.2232C82.1731 58.9231 81.9695 58.541 81.8873 58.1253C81.805 57.7096 81.848 57.2789 82.0106 56.8876C82.1733 56.4963 82.4483 56.1619 82.8011 55.9266C83.1538 55.6914 83.5685 55.5658 83.9926 55.5658C84.275 55.5658 84.5547 55.6215 84.8156 55.7297C85.0764 55.8379 85.3133 55.9965 85.5127 56.1964C85.7121 56.3962 85.87 56.6335 85.9774 56.8945C86.0848 57.1554 86.1396 57.435 86.1386 57.7172Z" fill="#325D9C"/>
<path d="M106.611 57.7171C106.611 58.1429 106.485 58.5592 106.248 58.9131C106.011 59.2671 105.674 59.5428 105.28 59.7054C104.886 59.8681 104.453 59.9102 104.035 59.8266C103.617 59.743 103.233 59.5374 102.933 59.2357C102.632 58.9341 102.427 58.5501 102.345 58.1322C102.263 57.7144 102.306 57.2816 102.471 56.8886C102.635 56.4956 102.912 56.1602 103.267 55.9247C103.622 55.6891 104.039 55.5642 104.465 55.5657C104.748 55.5657 105.028 55.6214 105.288 55.7296C105.549 55.8378 105.786 55.9964 105.986 56.1963C106.185 56.3961 106.343 56.6334 106.45 56.8943C106.558 57.1553 106.612 57.4349 106.611 57.7171Z" fill="#325D9C"/>
<path d="M124.923 59.8611C126.108 59.8611 127.069 58.9012 127.069 57.7171C127.069 56.533 126.108 55.5731 124.923 55.5731C123.738 55.5731 122.777 56.533 122.777 57.7171C122.777 58.9012 123.738 59.8611 124.923 59.8611Z" fill="#325D9C"/>
<path d="M145.389 59.8611C146.574 59.8611 147.535 58.9012 147.535 57.7171C147.535 56.533 146.574 55.5731 145.389 55.5731C144.203 55.5731 143.243 56.533 143.243 57.7171C143.243 58.9012 144.203 59.8611 145.389 59.8611Z" fill="#325D9C"/>
<path d="M168 57.7171C168 58.1426 167.874 58.5586 167.637 58.9124C167.4 59.2662 167.064 59.5419 166.671 59.7047C166.277 59.8676 165.844 59.9102 165.426 59.8272C165.009 59.7442 164.625 59.5393 164.324 59.2384C164.023 58.9375 163.818 58.5541 163.734 58.1368C163.651 57.7195 163.694 57.2869 163.857 56.8938C164.02 56.5007 164.296 56.1647 164.65 55.9283C165.004 55.6919 165.421 55.5657 165.847 55.5657C166.13 55.5647 166.41 55.6197 166.672 55.7275C166.934 55.8352 167.171 55.9937 167.371 56.1936C167.572 56.3936 167.73 56.6312 167.838 56.8926C167.946 57.1541 168.001 57.4343 168 57.7171Z" fill="#325D9C"/>
<path d="M4.29949 76.2415C4.29949 76.667 4.17319 77.083 3.93656 77.4368C3.69994 77.7906 3.36361 78.0663 2.97012 78.2291C2.57662 78.392 2.14363 78.4346 1.7259 78.3516C1.30817 78.2686 0.924458 78.0637 0.62329 77.7628C0.322123 77.4619 0.117025 77.0785 0.0339329 76.6612C-0.049159 76.2439 -0.00651323 75.8113 0.156477 75.4182C0.319468 75.0251 0.595483 74.6891 0.949619 74.4527C1.30375 74.2163 1.72011 74.0901 2.14602 74.0901C2.71715 74.0901 3.2649 74.3168 3.66875 74.7202C4.0726 75.1237 4.29949 75.6709 4.29949 76.2415Z" fill="#325D9C"/>
<path d="M24.7575 76.2415C24.7561 76.6652 24.6289 77.079 24.3922 77.4306C24.1555 77.7822 23.8199 78.0558 23.4276 78.217C23.0353 78.3781 22.6041 78.4195 22.1883 78.336C21.7725 78.2524 21.3908 78.0476 21.0914 77.7475C20.792 77.4473 20.5884 77.0653 20.5062 76.6496C20.4239 76.2339 20.4669 75.8032 20.6295 75.4119C20.7922 75.0206 21.0672 74.6862 21.42 74.4509C21.7727 74.2156 22.1874 74.0901 22.6115 74.0901C22.8939 74.0901 23.1736 74.1458 23.4345 74.254C23.6953 74.3622 23.9322 74.5208 24.1316 74.7207C24.331 74.9205 24.4889 75.1578 24.5963 75.4187C24.7037 75.6797 24.7585 75.9593 24.7575 76.2415Z" fill="#325D9C"/>
<path d="M45.2228 76.2415C45.2228 76.667 45.0965 77.083 44.8599 77.4368C44.6233 77.7906 44.2869 78.0663 43.8935 78.2291C43.5 78.392 43.067 78.4346 42.6492 78.3516C42.2315 78.2686 41.8478 78.0637 41.5466 77.7628C41.2455 77.4619 41.0404 77.0785 40.9573 76.6612C40.8742 76.2439 40.9168 75.8113 41.0798 75.4182C41.2428 75.0251 41.5188 74.6891 41.873 74.4527C42.2271 74.2163 42.6434 74.0901 43.0694 74.0901C43.6405 74.0901 44.1882 74.3168 44.5921 74.7202C44.9959 75.1237 45.2228 75.6709 45.2228 76.2415Z" fill="#325D9C"/>
<path d="M63.5347 78.3855C64.7199 78.3855 65.6807 77.4256 65.6807 76.2415C65.6807 75.0574 64.7199 74.0975 63.5347 74.0975C62.3495 74.0975 61.3887 75.0574 61.3887 76.2415C61.3887 77.4256 62.3495 78.3855 63.5347 78.3855Z" fill="#325D9C"/>
<path d="M86.1386 76.2415C86.1372 76.6652 86.0101 77.079 85.7734 77.4306C85.5367 77.7822 85.201 78.0558 84.8087 78.217C84.4164 78.3781 83.9852 78.4195 83.5694 78.336C83.1536 78.2524 82.7719 78.0476 82.4725 77.7475C82.1731 77.4473 81.9695 77.0653 81.8873 76.6496C81.805 76.2339 81.848 75.8032 82.0106 75.4119C82.1733 75.0206 82.4483 74.6862 82.8011 74.4509C83.1538 74.2156 83.5685 74.0901 83.9926 74.0901C84.275 74.0901 84.5547 74.1458 84.8156 74.254C85.0764 74.3622 85.3133 74.5208 85.5127 74.7207C85.7121 74.9205 85.87 75.1578 85.9774 75.4187C86.0848 75.6797 86.1396 75.9593 86.1386 76.2415Z" fill="#325D9C"/>
<path d="M106.611 76.2415C106.611 76.6673 106.485 77.0836 106.248 77.4375C106.011 77.7915 105.674 78.0672 105.28 78.2299C104.886 78.3925 104.453 78.4346 104.035 78.351C103.617 78.2674 103.233 78.0618 102.933 77.7601C102.632 77.4585 102.427 77.0745 102.345 76.6567C102.263 76.2388 102.306 75.806 102.471 75.413C102.635 75.0201 102.912 74.6846 103.267 74.4491C103.622 74.2136 104.039 74.0886 104.465 74.0901C105.035 74.0921 105.581 74.3196 105.983 74.7228C106.386 75.1261 106.611 75.6722 106.611 76.2415Z" fill="#325D9C"/>
<path d="M124.923 78.3855C126.108 78.3855 127.069 77.4256 127.069 76.2415C127.069 75.0574 126.108 74.0975 124.923 74.0975C123.738 74.0975 122.777 75.0574 122.777 76.2415C122.777 77.4256 123.738 78.3855 124.923 78.3855Z" fill="#325D9C"/>
<path d="M145.389 78.3855C146.574 78.3855 147.535 77.4256 147.535 76.2415C147.535 75.0574 146.574 74.0975 145.389 74.0975C144.203 74.0975 143.243 75.0574 143.243 76.2415C143.243 77.4256 144.203 78.3855 145.389 78.3855Z" fill="#325D9C"/>
<path d="M168 76.2415C168 76.667 167.874 77.083 167.637 77.4368C167.4 77.7906 167.064 78.0663 166.671 78.2291C166.277 78.392 165.844 78.4346 165.426 78.3516C165.009 78.2686 164.625 78.0637 164.324 77.7628C164.023 77.4619 163.818 77.0785 163.734 76.6612C163.651 76.2439 163.694 75.8113 163.857 75.4182C164.02 75.0251 164.296 74.6891 164.65 74.4527C165.004 74.2163 165.421 74.0901 165.847 74.0901C166.418 74.0901 166.965 74.3168 167.369 74.7202C167.773 75.1237 168 75.6709 168 76.2415Z" fill="#325D9C"/>
<path d="M4.29959 94.7585C4.30106 95.1843 4.17602 95.601 3.94029 95.9558C3.70456 96.3105 3.36875 96.5874 2.97538 96.7514C2.58202 96.9154 2.1488 96.9591 1.73058 96.8769C1.31236 96.7947 0.927955 96.5904 0.626044 96.2898C0.324133 95.9892 0.118297 95.6059 0.0346016 95.1884C-0.049094 94.7708 -0.00688403 94.3379 0.155886 93.9443C0.318656 93.5508 0.594665 93.2143 0.94896 92.9776C1.30325 92.7409 1.7199 92.6145 2.14613 92.6145C2.71598 92.6145 3.2626 92.8401 3.66624 93.242C4.06988 93.6439 4.29763 94.1892 4.29959 94.7585Z" fill="#325D9C"/>
<path d="M24.7574 94.7585C24.7574 95.1825 24.6315 95.5971 24.3957 95.9496C24.1599 96.3022 23.8248 96.577 23.4326 96.7393C23.0405 96.9016 22.609 96.944 22.1927 96.8613C21.7764 96.7786 21.394 96.5744 21.0939 96.2745C20.7938 95.9747 20.5894 95.5927 20.5066 95.1768C20.4238 94.7609 20.4663 94.3298 20.6287 93.938C20.7911 93.5463 21.0662 93.2114 21.4191 92.9758C21.772 92.7402 22.1869 92.6145 22.6114 92.6145C23.1805 92.6145 23.7264 92.8404 24.1289 93.2425C24.5313 93.6445 24.7574 94.1899 24.7574 94.7585Z" fill="#325D9C"/>
<path d="M45.2228 94.7585C45.2243 95.1843 45.0992 95.601 44.8635 95.9558C44.6278 96.3105 44.292 96.5874 43.8986 96.7514C43.5052 96.9154 43.072 96.9591 42.6538 96.8769C42.2356 96.7947 41.8512 96.5904 41.5493 96.2898C41.2474 95.9892 41.0415 95.6059 40.9578 95.1884C40.8741 94.7708 40.9163 94.3379 41.0791 93.9443C41.2419 93.5508 41.5179 93.2143 41.8722 92.9776C42.2265 92.7409 42.6431 92.6145 43.0693 92.6145C43.6392 92.6145 44.1858 92.8401 44.5895 93.242C44.9931 93.6439 45.2208 94.1892 45.2228 94.7585Z" fill="#325D9C"/>
<path d="M63.5347 96.9025C64.7199 96.9025 65.6807 95.9426 65.6807 94.7585C65.6807 93.5744 64.7199 92.6145 63.5347 92.6145C62.3495 92.6145 61.3887 93.5744 61.3887 94.7585C61.3887 95.9426 62.3495 96.9025 63.5347 96.9025Z" fill="#325D9C"/>
<path d="M86.1386 94.7585C86.1386 95.1825 86.0128 95.5971 85.777 95.9496C85.5412 96.3022 85.206 96.577 84.8139 96.7393C84.4217 96.9016 83.9902 96.944 83.5739 96.8613C83.1576 96.7786 82.7752 96.5744 82.4751 96.2745C82.175 95.9747 81.9706 95.5927 81.8878 95.1768C81.805 94.7609 81.8475 94.3298 82.0099 93.938C82.1723 93.5463 82.4474 93.2114 82.8003 92.9758C83.1532 92.7402 83.5682 92.6145 83.9926 92.6145C84.2744 92.6145 84.5535 92.67 84.8139 92.7777C85.0742 92.8855 85.3108 93.0434 85.5101 93.2425C85.7094 93.4416 85.8674 93.6779 85.9753 93.938C86.0831 94.1981 86.1386 94.4769 86.1386 94.7585Z" fill="#325D9C"/>
<path d="M106.611 94.7585C106.613 95.1846 106.488 95.6016 106.252 95.9566C106.016 96.3115 105.679 96.5884 105.285 96.7521C104.892 96.9159 104.458 96.9591 104.04 96.8763C103.621 96.7936 103.237 96.5885 102.935 96.2872C102.634 95.9859 102.428 95.6018 102.346 95.1838C102.263 94.7658 102.306 94.3326 102.47 93.9392C102.634 93.5458 102.911 93.2098 103.266 92.974C103.621 92.7382 104.039 92.613 104.465 92.6145C105.034 92.6165 105.579 92.843 105.981 93.2446C106.383 93.6463 106.609 94.1905 106.611 94.7585Z" fill="#325D9C"/>
<path d="M124.923 96.9025C126.108 96.9025 127.069 95.9426 127.069 94.7585C127.069 93.5744 126.108 92.6145 124.923 92.6145C123.738 92.6145 122.777 93.5744 122.777 94.7585C122.777 95.9426 123.738 96.9025 124.923 96.9025Z" fill="#325D9C"/>
<path d="M145.389 96.9025C146.574 96.9025 147.535 95.9426 147.535 94.7585C147.535 93.5744 146.574 92.6145 145.389 92.6145C144.203 92.6145 143.243 93.5744 143.243 94.7585C143.243 95.9426 144.203 96.9025 145.389 96.9025Z" fill="#325D9C"/>
<path d="M168 94.7585C168.002 95.1843 167.876 95.601 167.641 95.9558C167.405 96.3105 167.069 96.5874 166.676 96.7514C166.282 96.9154 165.849 96.9591 165.431 96.8769C165.013 96.7947 164.628 96.5904 164.326 96.2898C164.025 95.9892 163.819 95.6059 163.735 95.1884C163.651 94.7708 163.694 94.3379 163.856 93.9443C164.019 93.5508 164.295 93.2143 164.649 92.9776C165.004 92.7409 165.42 92.6145 165.847 92.6145C166.416 92.6145 166.963 92.8401 167.367 93.242C167.77 93.6439 167.998 94.1892 168 94.7585Z" fill="#325D9C"/>
<path d="M4.29959 113.283C4.30106 113.709 4.17602 114.125 3.94029 114.48C3.70456 114.835 3.36875 115.112 2.97538 115.276C2.58202 115.44 2.1488 115.483 1.73058 115.401C1.31236 115.319 0.927955 115.115 0.626044 114.814C0.324133 114.514 0.118297 114.13 0.0346016 113.713C-0.049094 113.295 -0.00688403 112.862 0.155886 112.469C0.318656 112.075 0.594665 111.739 0.94896 111.502C1.30325 111.265 1.7199 111.139 2.14613 111.139C2.71598 111.139 3.2626 111.365 3.66624 111.766C4.06988 112.168 4.29763 112.714 4.29959 113.283Z" fill="#325D9C"/>
<path d="M24.7574 113.283C24.7574 113.707 24.6315 114.121 24.3957 114.474C24.1599 114.827 23.8248 115.101 23.4326 115.264C23.0405 115.426 22.609 115.468 22.1927 115.386C21.7764 115.303 21.394 115.099 21.0939 114.799C20.7938 114.499 20.5894 114.117 20.5066 113.701C20.4238 113.285 20.4663 112.854 20.6287 112.462C20.7911 112.071 21.0662 111.736 21.4191 111.5C21.772 111.265 22.1869 111.139 22.6114 111.139C23.1805 111.139 23.7264 111.365 24.1289 111.767C24.5313 112.169 24.7574 112.714 24.7574 113.283Z" fill="#325D9C"/>
<path d="M45.2228 113.283C45.2243 113.709 45.0992 114.125 44.8635 114.48C44.6278 114.835 44.292 115.112 43.8986 115.276C43.5052 115.44 43.072 115.483 42.6538 115.401C42.2356 115.319 41.8512 115.115 41.5493 114.814C41.2474 114.514 41.0415 114.13 40.9578 113.713C40.8741 113.295 40.9163 112.862 41.0791 112.469C41.2419 112.075 41.5179 111.739 41.8722 111.502C42.2265 111.265 42.6431 111.139 43.0693 111.139C43.6392 111.139 44.1858 111.365 44.5895 111.766C44.9931 112.168 45.2208 112.714 45.2228 113.283Z" fill="#325D9C"/>
<path d="M65.6807 113.283C65.6807 113.707 65.5549 114.121 65.3191 114.474C65.0833 114.827 64.7481 115.101 64.356 115.264C63.9638 115.426 63.5323 115.468 63.116 115.386C62.6997 115.303 62.3174 115.099 62.0172 114.799C61.7171 114.499 61.5127 114.117 61.4299 113.701C61.3471 113.285 61.3896 112.854 61.552 112.462C61.7145 112.071 61.9895 111.736 62.3424 111.5C62.6953 111.265 63.1103 111.139 63.5347 111.139C64.1039 111.139 64.6497 111.365 65.0522 111.767C65.4547 112.169 65.6807 112.714 65.6807 113.283Z" fill="#325D9C"/>
<path d="M86.1386 113.283C86.1386 113.707 86.0128 114.121 85.777 114.474C85.5412 114.827 85.206 115.101 84.8139 115.264C84.4217 115.426 83.9902 115.468 83.5739 115.386C83.1576 115.303 82.7752 115.099 82.4751 114.799C82.175 114.499 81.9706 114.117 81.8878 113.701C81.805 113.285 81.8475 112.854 82.0099 112.462C82.1723 112.071 82.4474 111.736 82.8003 111.5C83.1532 111.265 83.5682 111.139 83.9926 111.139C84.2744 111.139 84.5535 111.194 84.8139 111.302C85.0742 111.41 85.3108 111.568 85.5101 111.767C85.7094 111.966 85.8674 112.202 85.9753 112.462C86.0831 112.723 86.1386 113.001 86.1386 113.283Z" fill="#325D9C"/>
<path d="M106.611 113.283C106.613 113.709 106.488 114.126 106.252 114.481C106.016 114.836 105.679 115.113 105.285 115.277C104.892 115.44 104.458 115.484 104.04 115.401C103.621 115.318 103.237 115.113 102.935 114.812C102.634 114.51 102.428 114.126 102.346 113.708C102.263 113.29 102.306 112.857 102.47 112.464C102.634 112.07 102.911 111.734 103.266 111.498C103.621 111.263 104.039 111.137 104.465 111.139C105.034 111.141 105.579 111.367 105.981 111.769C106.383 112.171 106.609 112.715 106.611 113.283Z" fill="#325D9C"/>
<path d="M127.069 113.283C127.069 113.707 126.943 114.121 126.708 114.474C126.472 114.827 126.137 115.101 125.745 115.264C125.352 115.426 124.921 115.468 124.505 115.386C124.088 115.303 123.706 115.099 123.406 114.799C123.106 114.499 122.901 114.117 122.818 113.701C122.736 113.285 122.778 112.854 122.941 112.462C123.103 112.071 123.378 111.736 123.731 111.5C124.084 111.265 124.499 111.139 124.923 111.139C125.492 111.139 126.038 111.365 126.441 111.767C126.843 112.169 127.069 112.714 127.069 113.283Z" fill="#325D9C"/>
<path d="M147.535 113.283C147.535 113.707 147.409 114.121 147.173 114.474C146.937 114.827 146.602 115.101 146.21 115.264C145.818 115.426 145.386 115.468 144.97 115.386C144.554 115.303 144.171 115.099 143.871 114.799C143.571 114.499 143.367 114.117 143.284 113.701C143.201 113.285 143.244 112.854 143.406 112.462C143.568 112.071 143.843 111.736 144.196 111.5C144.549 111.265 144.964 111.139 145.389 111.139C145.958 111.139 146.504 111.365 146.906 111.767C147.309 112.169 147.535 112.714 147.535 113.283Z" fill="#325D9C"/>
<path d="M168 113.283C168.002 113.709 167.876 114.125 167.641 114.48C167.405 114.835 167.069 115.112 166.676 115.276C166.282 115.44 165.849 115.483 165.431 115.401C165.013 115.319 164.628 115.115 164.326 114.814C164.025 114.514 163.819 114.13 163.735 113.713C163.651 113.295 163.694 112.862 163.856 112.469C164.019 112.075 164.295 111.739 164.649 111.502C165.004 111.265 165.42 111.139 165.847 111.139C166.416 111.139 166.963 111.365 167.367 111.766C167.77 112.168 167.998 112.714 168 113.283Z" fill="#325D9C"/>
<path d="M4.29959 131.807C4.30106 132.233 4.17602 132.65 3.94029 133.004C3.70456 133.359 3.36875 133.636 2.97538 133.8C2.58202 133.964 2.1488 134.008 1.73058 133.926C1.31236 133.843 0.927955 133.639 0.626044 133.339C0.324133 133.038 0.118297 132.655 0.0346016 132.237C-0.049094 131.82 -0.00688403 131.387 0.155886 130.993C0.318656 130.599 0.594665 130.263 0.94896 130.026C1.30325 129.79 1.7199 129.663 2.14613 129.663C2.42858 129.662 2.70844 129.717 2.96966 129.824C3.23089 129.932 3.46835 130.089 3.66841 130.289C3.86848 130.488 4.02722 130.724 4.13553 130.985C4.24384 131.246 4.2996 131.525 4.29959 131.807Z" fill="#325D9C"/>
<path d="M24.7574 131.807C24.7574 132.231 24.6315 132.646 24.3957 132.998C24.1599 133.351 23.8248 133.626 23.4326 133.788C23.0405 133.95 22.609 133.993 22.1927 133.91C21.7764 133.827 21.394 133.623 21.0939 133.323C20.7938 133.024 20.5894 132.641 20.5066 132.226C20.4238 131.81 20.4663 131.379 20.6287 130.987C20.7911 130.595 21.0662 130.26 21.4191 130.025C21.772 129.789 22.1869 129.663 22.6114 129.663C23.1805 129.663 23.7264 129.889 24.1289 130.291C24.5313 130.693 24.7574 131.239 24.7574 131.807Z" fill="#325D9C"/>
<path d="M45.2228 131.807C45.2243 132.233 45.0992 132.65 44.8635 133.004C44.6278 133.359 44.292 133.636 43.8986 133.8C43.5052 133.964 43.072 134.008 42.6538 133.926C42.2356 133.843 41.8512 133.639 41.5493 133.339C41.2474 133.038 41.0415 132.655 40.9578 132.237C40.8741 131.82 40.9163 131.387 41.0791 130.993C41.2419 130.599 41.5179 130.263 41.8722 130.026C42.2265 129.79 42.6431 129.663 43.0693 129.663C43.3518 129.662 43.6317 129.717 43.8929 129.824C44.1541 129.932 44.3916 130.089 44.5916 130.289C44.7917 130.488 44.9504 130.724 45.0587 130.985C45.1671 131.246 45.2228 131.525 45.2228 131.807Z" fill="#325D9C"/>
<path d="M65.6807 131.807C65.6807 132.231 65.5549 132.646 65.3191 132.998C65.0833 133.351 64.7481 133.626 64.356 133.788C63.9638 133.95 63.5323 133.993 63.116 133.91C62.6997 133.827 62.3174 133.623 62.0172 133.323C61.7171 133.024 61.5127 132.641 61.4299 132.226C61.3471 131.81 61.3896 131.379 61.552 130.987C61.7145 130.595 61.9895 130.26 62.3424 130.025C62.6953 129.789 63.1103 129.663 63.5347 129.663C64.1039 129.663 64.6497 129.889 65.0522 130.291C65.4547 130.693 65.6807 131.239 65.6807 131.807Z" fill="#325D9C"/>
<path d="M86.1386 131.807C86.1386 132.231 86.0128 132.646 85.777 132.998C85.5412 133.351 85.206 133.626 84.8139 133.788C84.4217 133.95 83.9902 133.993 83.5739 133.91C83.1576 133.827 82.7752 133.623 82.4751 133.323C82.175 133.024 81.9706 132.641 81.8878 132.226C81.805 131.81 81.8475 131.379 82.0099 130.987C82.1723 130.595 82.4474 130.26 82.8003 130.025C83.1532 129.789 83.5682 129.663 83.9926 129.663C84.2744 129.663 84.5535 129.719 84.8139 129.827C85.0742 129.934 85.3108 130.092 85.5101 130.291C85.7094 130.49 85.8674 130.727 85.9753 130.987C86.0831 131.247 86.1386 131.526 86.1386 131.807Z" fill="#325D9C"/>
<path d="M106.611 131.807C106.613 132.233 106.488 132.65 106.252 133.005C106.016 133.36 105.679 133.637 105.285 133.801C104.892 133.965 104.458 134.008 104.04 133.925C103.621 133.842 103.237 133.637 102.935 133.336C102.634 133.035 102.428 132.651 102.346 132.233C102.263 131.815 102.306 131.381 102.47 130.988C102.634 130.594 102.911 130.259 103.266 130.023C103.621 129.787 104.039 129.662 104.465 129.663C105.035 129.663 105.58 129.889 105.983 130.291C106.385 130.693 106.611 131.239 106.611 131.807Z" fill="#325D9C"/>
<path d="M127.069 131.807C127.069 132.231 126.943 132.646 126.708 132.998C126.472 133.351 126.137 133.626 125.745 133.788C125.352 133.95 124.921 133.993 124.505 133.91C124.088 133.827 123.706 133.623 123.406 133.323C123.106 133.024 122.901 132.641 122.818 132.226C122.736 131.81 122.778 131.379 122.941 130.987C123.103 130.595 123.378 130.26 123.731 130.025C124.084 129.789 124.499 129.663 124.923 129.663C125.492 129.663 126.038 129.889 126.441 130.291C126.843 130.693 127.069 131.239 127.069 131.807Z" fill="#325D9C"/>
<path d="M147.535 131.807C147.535 132.231 147.409 132.646 147.173 132.998C146.937 133.351 146.602 133.626 146.21 133.788C145.818 133.95 145.386 133.993 144.97 133.91C144.554 133.827 144.171 133.623 143.871 133.323C143.571 133.024 143.367 132.641 143.284 132.226C143.201 131.81 143.244 131.379 143.406 130.987C143.568 130.595 143.843 130.26 144.196 130.025C144.549 129.789 144.964 129.663 145.389 129.663C145.958 129.663 146.504 129.889 146.906 130.291C147.309 130.693 147.535 131.239 147.535 131.807Z" fill="#325D9C"/>
<path d="M168 131.807C168.002 132.233 167.876 132.65 167.641 133.004C167.405 133.359 167.069 133.636 166.676 133.8C166.282 133.964 165.849 134.008 165.431 133.926C165.013 133.843 164.628 133.639 164.326 133.339C164.025 133.038 163.819 132.655 163.735 132.237C163.651 131.82 163.694 131.387 163.856 130.993C164.019 130.599 164.295 130.263 164.649 130.026C165.004 129.79 165.42 129.663 165.847 129.663C166.129 129.662 166.409 129.717 166.67 129.824C166.931 129.932 167.169 130.089 167.369 130.289C167.569 130.488 167.728 130.724 167.836 130.985C167.944 131.246 168 131.525 168 131.807Z" fill="#325D9C"/>
<path d="M4.29959 150.332C4.30106 150.757 4.17602 151.174 3.94029 151.529C3.70456 151.884 3.36875 152.161 2.97538 152.325C2.58202 152.489 2.1488 152.532 1.73058 152.45C1.31236 152.368 0.927955 152.164 0.626044 151.863C0.324133 151.562 0.118297 151.179 0.0346016 150.762C-0.049094 150.344 -0.00688403 149.911 0.155886 149.517C0.318656 149.124 0.594665 148.787 0.94896 148.551C1.30325 148.314 1.7199 148.188 2.14613 148.188C2.42858 148.187 2.70844 148.241 2.96966 148.349C3.23089 148.456 3.46835 148.614 3.66841 148.813C3.86848 149.012 4.02722 149.249 4.13553 149.509C4.24384 149.77 4.2996 150.049 4.29959 150.332Z" fill="#325D9C"/>
<path d="M24.7574 150.332C24.7574 150.756 24.6315 151.17 24.3957 151.523C24.1599 151.875 23.8248 152.15 23.4326 152.312C23.0405 152.475 22.609 152.517 22.1927 152.434C21.7764 152.352 21.394 152.147 21.0939 151.848C20.7938 151.548 20.5894 151.166 20.5066 150.75C20.4238 150.334 20.4663 149.903 20.6287 149.511C20.7911 149.119 21.0662 148.785 21.4191 148.549C21.772 148.313 22.1869 148.188 22.6114 148.188C23.1805 148.188 23.7264 148.414 24.1289 148.816C24.5313 149.218 24.7574 149.763 24.7574 150.332Z" fill="#325D9C"/>
<path d="M45.2228 150.332C45.2243 150.757 45.0992 151.174 44.8635 151.529C44.6278 151.884 44.292 152.161 43.8986 152.325C43.5052 152.489 43.072 152.532 42.6538 152.45C42.2356 152.368 41.8512 152.164 41.5493 151.863C41.2474 151.562 41.0415 151.179 40.9578 150.762C40.8741 150.344 40.9163 149.911 41.0791 149.517C41.2419 149.124 41.5179 148.787 41.8722 148.551C42.2265 148.314 42.6431 148.188 43.0693 148.188C43.3518 148.187 43.6317 148.241 43.8929 148.349C44.1541 148.456 44.3916 148.614 44.5916 148.813C44.7917 149.012 44.9504 149.249 45.0587 149.509C45.1671 149.77 45.2228 150.049 45.2228 150.332Z" fill="#325D9C"/>
<path d="M65.6807 150.332C65.6807 150.756 65.5549 151.17 65.3191 151.523C65.0833 151.875 64.7481 152.15 64.356 152.312C63.9638 152.475 63.5323 152.517 63.116 152.434C62.6997 152.352 62.3174 152.147 62.0172 151.848C61.7171 151.548 61.5127 151.166 61.4299 150.75C61.3471 150.334 61.3896 149.903 61.552 149.511C61.7145 149.119 61.9895 148.785 62.3424 148.549C62.6953 148.313 63.1103 148.188 63.5347 148.188C64.1039 148.188 64.6497 148.414 65.0522 148.816C65.4547 149.218 65.6807 149.763 65.6807 150.332Z" fill="#325D9C"/>
<path d="M86.1386 150.332C86.1386 150.756 86.0128 151.17 85.777 151.523C85.5412 151.875 85.206 152.15 84.8139 152.312C84.4217 152.475 83.9902 152.517 83.5739 152.434C83.1576 152.352 82.7752 152.147 82.4751 151.848C82.175 151.548 81.9706 151.166 81.8878 150.75C81.805 150.334 81.8475 149.903 82.0099 149.511C82.1723 149.119 82.4474 148.785 82.8003 148.549C83.1532 148.313 83.5682 148.188 83.9926 148.188C84.2744 148.188 84.5535 148.243 84.8139 148.351C85.0742 148.459 85.3108 148.616 85.5101 148.816C85.7094 149.015 85.8674 149.251 85.9753 149.511C86.0831 149.771 86.1386 150.05 86.1386 150.332Z" fill="#325D9C"/>
<path d="M106.611 150.332C106.613 150.758 106.488 151.175 106.252 151.53C106.016 151.885 105.679 152.161 105.285 152.325C104.892 152.489 104.458 152.532 104.04 152.449C103.621 152.367 103.237 152.162 102.935 151.86C102.634 151.559 102.428 151.175 102.346 150.757C102.263 150.339 102.306 149.906 102.47 149.512C102.634 149.119 102.911 148.783 103.266 148.547C103.621 148.311 104.039 148.186 104.465 148.188C105.035 148.188 105.58 148.414 105.983 148.816C106.385 149.218 106.611 149.763 106.611 150.332Z" fill="#325D9C"/>
<path d="M127.069 150.332C127.069 150.756 126.943 151.17 126.708 151.523C126.472 151.875 126.137 152.15 125.745 152.312C125.352 152.475 124.921 152.517 124.505 152.434C124.088 152.352 123.706 152.147 123.406 151.848C123.106 151.548 122.901 151.166 122.818 150.75C122.736 150.334 122.778 149.903 122.941 149.511C123.103 149.119 123.378 148.785 123.731 148.549C124.084 148.313 124.499 148.188 124.923 148.188C125.492 148.188 126.038 148.414 126.441 148.816C126.843 149.218 127.069 149.763 127.069 150.332Z" fill="#325D9C"/>
<path d="M147.535 150.332C147.535 150.756 147.409 151.17 147.173 151.523C146.937 151.875 146.602 152.15 146.21 152.312C145.818 152.475 145.386 152.517 144.97 152.434C144.554 152.352 144.171 152.147 143.871 151.848C143.571 151.548 143.367 151.166 143.284 150.75C143.201 150.334 143.244 149.903 143.406 149.511C143.568 149.119 143.843 148.785 144.196 148.549C144.549 148.313 144.964 148.188 145.389 148.188C145.958 148.188 146.504 148.414 146.906 148.816C147.309 149.218 147.535 149.763 147.535 150.332Z" fill="#325D9C"/>
<path d="M168 150.332C168.002 150.757 167.876 151.174 167.641 151.529C167.405 151.884 167.069 152.161 166.676 152.325C166.282 152.489 165.849 152.532 165.431 152.45C165.013 152.368 164.628 152.164 164.326 151.863C164.025 151.562 163.819 151.179 163.735 150.762C163.651 150.344 163.694 149.911 163.856 149.517C164.019 149.124 164.295 148.787 164.649 148.551C165.004 148.314 165.42 148.188 165.847 148.188C166.129 148.187 166.409 148.241 166.67 148.349C166.931 148.456 167.169 148.614 167.369 148.813C167.569 149.012 167.728 149.249 167.836 149.509C167.944 149.77 168 150.049 168 150.332Z" fill="#325D9C"/>
<path d="M4.29949 168.856C4.29949 169.282 4.17319 169.697 3.93656 170.051C3.69994 170.405 3.36361 170.681 2.97012 170.844C2.57662 171.006 2.14363 171.049 1.7259 170.966C1.30817 170.883 0.924458 170.678 0.62329 170.377C0.322123 170.076 0.117025 169.693 0.0339329 169.276C-0.049159 168.858 -0.00651323 168.426 0.156477 168.033C0.319468 167.64 0.595483 167.304 0.949619 167.067C1.30375 166.831 1.72011 166.705 2.14602 166.705C2.71715 166.705 3.2649 166.931 3.66875 167.335C4.0726 167.738 4.29949 168.285 4.29949 168.856Z" fill="#325D9C"/>
<path d="M24.7575 168.856C24.7561 169.28 24.6289 169.694 24.3922 170.045C24.1555 170.397 23.8199 170.67 23.4276 170.831C23.0353 170.993 22.6041 171.034 22.1883 170.95C21.7725 170.867 21.3908 170.662 21.0914 170.362C20.792 170.062 20.5884 169.68 20.5062 169.264C20.4239 168.848 20.4669 168.418 20.6295 168.026C20.7922 167.635 21.0672 167.301 21.42 167.065C21.7727 166.83 22.1874 166.705 22.6115 166.705C22.8939 166.705 23.1736 166.76 23.4345 166.868C23.6953 166.977 23.9322 167.135 24.1316 167.335C24.331 167.535 24.4889 167.772 24.5963 168.033C24.7037 168.294 24.7585 168.574 24.7575 168.856Z" fill="#325D9C"/>
<path d="M45.2228 168.856C45.2228 169.282 45.0963 169.698 44.8594 170.052C44.6224 170.406 44.2857 170.682 43.8917 170.844C43.4978 171.007 43.0644 171.049 42.6465 170.966C42.2286 170.882 41.8449 170.676 41.544 170.375C41.2431 170.073 41.0386 169.689 40.9564 169.271C40.8741 168.853 40.9178 168.421 41.082 168.028C41.2461 167.635 41.5233 167.299 41.8784 167.064C42.2335 166.828 42.6506 166.703 43.0768 166.705C43.6466 166.707 44.1925 166.934 44.5947 167.337C44.997 167.741 45.2228 168.287 45.2228 168.856Z" fill="#325D9C"/>
<path d="M65.6807 168.856C65.6793 169.28 65.5522 169.694 65.3155 170.045C65.0788 170.397 64.7431 170.67 64.3508 170.831C63.9586 170.993 63.5273 171.034 63.1115 170.95C62.6957 170.867 62.314 170.662 62.0146 170.362C61.7152 170.062 61.5116 169.68 61.4294 169.264C61.3472 168.848 61.3901 168.418 61.5527 168.026C61.7154 167.635 61.9904 167.301 62.3432 167.065C62.6959 166.83 63.1106 166.705 63.5347 166.705C63.8171 166.705 64.0968 166.76 64.3577 166.868C64.6185 166.977 64.8554 167.135 65.0548 167.335C65.2542 167.535 65.4121 167.772 65.5195 168.033C65.6269 168.294 65.6817 168.574 65.6807 168.856Z" fill="#325D9C"/>
<path d="M86.1386 168.856C86.1372 169.28 86.0101 169.694 85.7734 170.045C85.5367 170.397 85.201 170.67 84.8087 170.831C84.4164 170.993 83.9852 171.034 83.5694 170.95C83.1536 170.867 82.7719 170.662 82.4725 170.362C82.1731 170.062 81.9695 169.68 81.8873 169.264C81.805 168.848 81.848 168.418 82.0106 168.026C82.1733 167.635 82.4483 167.301 82.8011 167.065C83.1538 166.83 83.5685 166.705 83.9926 166.705C84.275 166.705 84.5547 166.76 84.8156 166.868C85.0764 166.977 85.3133 167.135 85.5127 167.335C85.7121 167.535 85.87 167.772 85.9774 168.033C86.0848 168.294 86.1396 168.574 86.1386 168.856Z" fill="#325D9C"/>
<path d="M106.611 168.856C106.611 169.282 106.485 169.698 106.248 170.052C106.011 170.406 105.674 170.682 105.28 170.844C104.886 171.007 104.453 171.049 104.035 170.966C103.617 170.882 103.233 170.676 102.933 170.375C102.632 170.073 102.427 169.689 102.345 169.271C102.263 168.853 102.306 168.421 102.471 168.028C102.635 167.635 102.912 167.299 103.267 167.064C103.622 166.828 104.039 166.703 104.465 166.705C105.035 166.707 105.581 166.934 105.983 167.337C106.386 167.741 106.611 168.287 106.611 168.856Z" fill="#325D9C"/>
<path d="M127.069 168.856C127.068 169.28 126.941 169.694 126.704 170.045C126.467 170.397 126.132 170.67 125.739 170.831C125.347 170.993 124.916 171.034 124.5 170.95C124.084 170.867 123.703 170.662 123.403 170.362C123.104 170.062 122.9 169.68 122.818 169.264C122.736 168.848 122.779 168.418 122.941 168.026C123.104 167.635 123.379 167.301 123.732 167.065C124.085 166.83 124.499 166.705 124.923 166.705C125.206 166.705 125.485 166.76 125.746 166.868C126.007 166.977 126.244 167.135 126.443 167.335C126.643 167.535 126.801 167.772 126.908 168.033C127.016 168.294 127.07 168.574 127.069 168.856Z" fill="#325D9C"/>
<path d="M147.535 168.856C147.533 169.28 147.406 169.694 147.169 170.045C146.933 170.397 146.597 170.67 146.205 170.831C145.812 170.993 145.381 171.034 144.965 170.95C144.55 170.867 144.168 170.662 143.869 170.362C143.569 170.062 143.366 169.68 143.283 169.264C143.201 168.848 143.244 168.418 143.407 168.026C143.569 167.635 143.844 167.301 144.197 167.065C144.55 166.83 144.965 166.705 145.389 166.705C145.671 166.705 145.951 166.76 146.212 166.868C146.472 166.977 146.709 167.135 146.909 167.335C147.108 167.535 147.266 167.772 147.373 168.033C147.481 168.294 147.536 168.574 147.535 168.856Z" fill="#325D9C"/>
<path d="M168 168.856C168 169.282 167.874 169.697 167.637 170.051C167.4 170.405 167.064 170.681 166.671 170.844C166.277 171.006 165.844 171.049 165.426 170.966C165.009 170.883 164.625 170.678 164.324 170.377C164.023 170.076 163.818 169.693 163.734 169.276C163.651 168.858 163.694 168.426 163.857 168.033C164.02 167.64 164.296 167.304 164.65 167.067C165.004 166.831 165.421 166.705 165.847 166.705C166.418 166.705 166.965 166.931 167.369 167.335C167.773 167.738 168 168.285 168 168.856Z" fill="#325D9C"/>
</g>
<defs>
<clipPath id="clip0_17_459">
<rect width="168" height="171" fill="white"/>
</clipPath>
</defs>
</svg>
