<svg width="88" height="88" fill="none" xmlns="http://www.w3.org/2000/svg"><g clip-path="url(#a)"><path d="M52.177 86.912c-.07.344-.303.399-.551.433-1.494.208-2.987.412-4.494.529a44.653 44.653 0 0 1-4.404.114 37.983 37.983 0 0 1-3.891-.305c-.263-.033-.529-.056-.792-.082a.342.342 0 0 1-.347-.468c.019-.095.038-.19.051-.286a.208.208 0 0 0-.19-.261.217.217 0 0 0-.27.177c0 .012 0 .025-.009.037-.19.673-.19.654-.895.526a45.692 45.692 0 0 1-4.515-1.022c-.23-.067-.473-.107-.64-.31a.19.19 0 0 0-.121-.07c-.65 0-1.204-.301-1.8-.502a36.105 36.105 0 0 1-2.061-.744 38.377 38.377 0 0 1-3.67-1.716A63.64 63.64 0 0 1 20.167 81c-.477-.298-.933-.628-1.396-.954a34.39 34.39 0 0 1-2.938-2.245c-1.278-1.095-2.564-2.19-3.674-3.46-.573-.65-1.208-1.223-1.744-1.908-.227-.284-.298-.494-.076-.824.313-.47.572-.979.835-1.479.264-.5.351-.48.687-.076.572.689 1.145 1.37 1.75 2.026a42.14 42.14 0 0 0 3.176 3.077 38.35 38.35 0 0 0 3.655 2.836 40.624 40.624 0 0 0 4.166 2.568c.555.29 1.12.56 1.679.841.021.01.055.013.065.03.255.418.763.262 1.114.485.388.221.796.406 1.219.551.425.17.86.311 1.293.464a46.082 46.082 0 0 0 4.745 1.412c.586.137 1.179.246 1.77.353.311.055.42.19.292.496-.1.24-.053.423.252.463.21.027.248.246.404.408.096-.293.191-.56.267-.828a.338.338 0 0 1 .435-.26 44.98 44.98 0 0 0 7.969.36c1.144-.048 2.268-.18 3.4-.32.879-.108 1.741-.304 2.613-.447.23-.038.34.017.35.263-.015.273.015.546.089.809.13-.326.053-.595.066-.853.014-.258.102-.36.325-.399a31.948 31.948 0 0 0 3.872-1.041c.655-.206 1.297-.454 1.944-.687.208-.076.414-.177.527.19-.035-.419.23-.491.49-.602a51.177 51.177 0 0 0 2.926-1.335 29.038 29.038 0 0 0 2.648-1.484c.191-.12.445-.363.668.063a.702.702 0 0 1 .366-.7 36.307 36.307 0 0 0 3.905-2.862c.506-.429 1.006-.862 1.51-1.29.778-.665 1.474-1.407 2.186-2.136a25.601 25.601 0 0 0 2.027-2.308c.535-.696 1.082-1.383 1.614-2.081.147-.19.26-.412.641-.103-.175-.42-.248-.7.191-.746a.136.136 0 0 0 .084-.101c-.044-.591.382-.973.654-1.412.43-.698.836-1.41 1.239-2.123.175-.313.372-.484.736-.33.05.023.099.025.122-.028a.303.303 0 0 0-.075-.302.123.123 0 0 0-.086-.064.122.122 0 0 0-.104.03c-.078.05-.109.164-.231.162-.052-.16.061-.273.122-.393a42.956 42.956 0 0 0 2.85-7.262c.212-.742.265-1.538.647-2.232.046-.084.091-.17.14-.252.073-.122.234-.217 0-.368-.106-.065-.03-.252 0-.381.3-1.465.514-2.946.638-4.436.161-1.534.204-3.079.128-4.62-.017-.288.027-.572.011-.866a50.609 50.609 0 0 0-.604-5.625c-.077-.45-.29-.893-.28-1.335.013-.546-.226-1-.348-1.494-.18-.723-.422-1.43-.603-2.154-.332-1.32-.898-2.552-1.41-3.803-.19-.472-.366-.931-.173-1.492-.34.244-.344.246-.51-.082-.763-1.505-1.543-2.999-2.438-4.428-.392-.636-.82-1.25-1.282-1.838-.412-.52-.747-1.092-1.165-1.609a47.495 47.495 0 0 0-3.207-3.624 43.282 43.282 0 0 0-4.351-3.798 40.011 40.011 0 0 0-4.111-2.754c-.222-.134-.382-.24-.073-.443-.036-.032-.057-.065-.069-.061-.467.145-.854-.038-1.257-.258a39.19 39.19 0 0 0-7.531-3.122 38.739 38.739 0 0 0-7.358-1.5c-.983-.097-1.971-.133-2.953-.213-1.857-.15-3.703 0-5.55.143a.7.7 0 0 0-.109.011c-.244.044-.572.191-.704-.038-.131-.229.086-.47.208-.689a1.65 1.65 0 0 0 .09-.19 7.03 7.03 0 0 0-.727.795c-.19.294-.48.334-.763.372-1.28.172-2.541.431-3.796.725-1.334.314-2.649.7-3.94 1.158-1.203.43-2.398.889-3.552 1.434-.946.418-1.868.887-2.762 1.406-.48.298-.973.588-1.477.836-.803.393-1.448 1.001-2.2 1.457-.196.1-.419.135-.636.1-.83-.018-1.357-.706-2.112-.882-.33-.076-.326-.227-.06-.425.321-.237.638-.48.954-.71.17-.118.353-.233.434.147.179-.746.677-1.05 1.31-1.194h.065c.635-.832 1.627-1.133 2.48-1.644.853-.512 1.772-.93 2.67-1.359a39.09 39.09 0 0 1 3.908-1.606c1.022-.357 2.066-.652 3.107-.954 1.195-.347 2.42-.549 3.625-.833.213-.042.428-.072.645-.09.587-.074.587-.074.875.466.182.39.414.755.691 1.085l.092-.046c-.2-.42-.382-.845-.605-1.255-.191-.351-.136-.506.261-.504.618 0 1.215-.148 1.828-.175.233-.01.395 0 .315.303-.02.07-.027.157.05.191.075.034.157-.036.205-.1.343-.451.81-.53 1.347-.537 1.42-.015 2.839-.109 4.26 0 .454.034.923 0 1.362.099.364.053.731.082 1.099.086a43.14 43.14 0 0 1 9.157 1.92 41.67 41.67 0 0 1 5.85 2.404c1.016.508 1.996 1.072 2.99 1.614.238.13.597.244.588.513 0 .202-.397.191-.615.288-.217.098-.41.13-.511.492.377-.18.764-.34 1.16-.475a.822.822 0 0 1 .85.103c1.456 1.01 2.91 2.013 4.264 3.163a46.583 46.583 0 0 1 4.176 3.985 45.549 45.549 0 0 1 2.51 2.987 42.358 42.358 0 0 1 2.595 3.749 36.298 36.298 0 0 1 2.032 3.742c.048.098.059.21.03.315-.03.134-.024.235.163.24.124 0 .162.124.206.226.45 1.028.904 2.052 1.29 3.107.072.2.19.399.099.628-.014.032-.025.085-.01.103.637.7.683 1.634.954 2.48a28.61 28.61 0 0 1 .881 3.607c.323 1.825.573 3.655.721 5.507a42.23 42.23 0 0 1 .012 6.104 42.821 42.821 0 0 1-1.412 8.443c-.19.72-.328 1.456-.835 2.053a.342.342 0 0 0-.012.515c.092.091-.027.274-.073.408a42.024 42.024 0 0 1-1.798 4.418c-.267.572-.617 1.095-.888 1.65-.328.671-.698 1.316-1.053 1.97a25.027 25.027 0 0 1-2.142 3.215c-.19.244-.368.494-.546.75a32.985 32.985 0 0 1-2.333 2.893 35.077 35.077 0 0 1-3.092 3.119c-1.585 1.415-3.207 2.79-5.004 3.939-.666.425-1.31.874-2.01 1.255-.594.323-1.168.712-1.763 1.051a30.26 30.26 0 0 1-2.608 1.309c-.67.303-1.35.572-2.032.852-.2.084-.335.077-.452-.124a1.3 1.3 0 0 0-.607-.635.43.43 0 0 1-.211-.28.211.211 0 0 0-.217-.139.21.21 0 0 0-.087.028c-.122.05-.059.164-.036.254.088.327.234.635.43.912.177.255.114.43-.172.523-1.114.356-2.225.722-3.345 1.058-.957.281-1.93.509-2.913.681-.23.025-.421.075-.515-.248Z" fill="#BBD1DC"/><path d="m34.684 55.108-.475-.191c-.3-.115-.452-.323-.319-.634.174-.402-.105-.776-.032-1.169.015-.086-.027-.221-.141-.223-.153 0-.136.143-.138.248v.868c0 .112.057.27-.08.326-.137.055-.24-.084-.326-.177a5.39 5.39 0 0 1-.876-1.49c-.486-1.108-.572-2.29-.572-3.47-.017-1.616 0-3.231 0-4.847 0-.68.042-1.36.048-2.041 0-.323.23-.573.257-.885.025-.287.052-.552-.17-.777a.572.572 0 0 1-.131-.473c.09-1.31.059-2.63.32-3.93.508-2.512 2.498-4.042 5.035-3.538 1.755.347 2.924 1.43 3.416 3.19.278 1.111.4 2.256.365 3.4 0 1.048.023 2.099.02 3.144 0 1.156-.01 2.312-.034 3.468-.026 1.505.04 3.012-.091 4.517-.113 1.284-.433 2.503-1.225 3.537a3.421 3.421 0 0 1-2.241 1.335 6.387 6.387 0 0 1-2.61-.188Zm2.117-3.795c.025-.324.079-.707.082-1.093.012-1.661 0-3.325 0-4.988.014-2.228.05-4.456.046-6.686a9.86 9.86 0 0 0-.11-1.98.486.486 0 0 0-.497-.43.462.462 0 0 0-.52.354 1.718 1.718 0 0 0-.06.356c-.068 1.027-.068 2.068-.068 3.098 0 1.168-.015 2.337-.017 3.506v4.226c0 1.192-.063 2.386.042 3.578.032.382.212.59.541.609.33.019.433-.25.561-.55Zm14.816.382c-.405 1.276-.91 2.397-2.011 3.132-.784.52-1.668.608-2.568.55-.355-.024-.73.01-1.066-.253-.122-.097-.412 0-.636-.099-.883-.381-1.45-1.047-1.867-1.88-.53-1.069-.695-2.193-.737-3.358-.078-1.795-.034-3.59-.023-5.383.012-2.022-.053-4.046.077-6.068.072-1.131.166-2.272.667-3.314.828-1.716 2.502-2.586 4.403-2.313a4.476 4.476 0 0 1 1.494.553c.77.398 1.4 1.021 1.807 1.787.19.376.328.778.406 1.192.182.873.277 1.762.286 2.654.029 1.29.012 2.575 0 3.864 0 1.178-.023 2.355-.015 3.531 0 1.145.02 2.29-.053 3.434-.044.675-.03 1.366-.164 1.97Zm-4.697.14c.53.155.748.031.862-.478.034-.14.053-.285.057-.43.02-.553.031-1.106.033-1.66 0-2.437.028-4.87.042-7.307 0-1.35.015-2.7 0-4.051a5.421 5.421 0 0 0-.134-1.4.448.448 0 0 0-.642-.324.48.48 0 0 0-.21.192 1.162 1.162 0 0 0-.191.648 21.145 21.145 0 0 0-.054 1.698c0 1.745-.006 3.49-.019 5.236a90.38 90.38 0 0 1-.053 3.037c-.044 1.234-.256 2.469.023 3.705.053.224.057.457.011.683-.065.25-.044.473.284.45l-.01.002Zm-1.051 2.65c.065-.6.19-1.196.04-1.797-.017-.076-.012-.19-.13-.18-.069 0-.1.064-.115.121a3.014 3.014 0 0 0-.036 1.88c.025.066.05.15.138.14.087-.01.08-.106.103-.166v.002Zm2.63-16.84c.082-.297.178-.593.24-.894.161-.705.283-1.418.365-2.137.011-.105.034-.232-.147-.217-.112.011-.19.053-.164.19.107.752-.126 1.456-.29 2.171-.065.275-.193.565-.004.885v.002ZM1.017 53.198a17.145 17.145 0 0 1-.48-2.377 52.045 52.045 0 0 1-.321-2.364 30.17 30.17 0 0 1-.128-1.83c-.063-1.239-.118-2.48-.067-3.719.027-.663.09-1.324.109-1.986.038-1.23.255-2.44.381-3.658.061-.61.191-1.213.315-1.816a.347.347 0 0 1 .439-.319h.032c.176-.019.468-.013.447-.19-.025-.222-.254-.018-.382-.01-.381.019-.412 0-.332-.363a43.37 43.37 0 0 1 2.21-7.145 37.463 37.463 0 0 1 1.93-4.115c.345-.616.633-1.286 1.076-1.818.343-.414.45-.921.774-1.335.325-.414.573-.887.893-1.313.792-1.068 1.54-2.166 2.421-3.17a78.211 78.211 0 0 1 2.638-2.873c.142-.147.29-.326.536-.293.065 0 .09-.012.1-.067.078-.494.505-.712.824-1.002.559-.51 1.144-.992 1.717-1.488a.44.44 0 0 1 .381-.148c.943.152 1.856.417 2.78.648.078.02.19.033.19.143 0 .11-.116.176-.204.239a31.622 31.622 0 0 0-2.127 1.678 39.767 39.767 0 0 0-3.365 3.224 41.46 41.46 0 0 0-3.182 3.827c-.217.301-.452.587-.717.917-.097-.33.027-.65-.138-.976-.164.364-.066.7-.085 1.022a1.19 1.19 0 0 1-.182.612 47.819 47.819 0 0 0-2.813 4.96c-.083.168-.098.437-.435.364-.124-.026-.1.174-.063.264a.736.736 0 0 1-.065.587c-.552 1.389-1.177 2.75-1.555 4.197 0 .025 0 .053-.021.069-.462.473-.32 1.13-.507 1.69-.239.717-.35.85-1.109.953a.939.939 0 0 0-.532.144c.272.038.548.023.815-.042.528-.09.558-.092.43.444a37.556 37.556 0 0 0-.783 4.788 33.916 33.916 0 0 0-.226 4.979c.02.45-.106.61-.545.751-.328.105-.68.168-.965.393a.528.528 0 0 0-.224.311c-.03.136-.072.267.07.359.14.091.222-.015.323-.078.382-.239.8-.409 1.042-.819.04-.068.14-.16.244-.105.105.056.076.143.09.227.055.307-.055.62.03.927v.07c-.381.262-.065.512.016.762.112.351.09.717.14 1.074.121.822.228 1.646.34 2.47a.662.662 0 0 1-.1.552c-.588.707-1.19 1.394-2.08 1.774Z" fill="#BBD1DC"/><path d="M68.517 31.962a2.174 2.174 0 0 1-.347-.545c-.357-.809-.87-1.526-1.336-2.264-.525-.826-1.12-1.597-1.717-2.371-.353-.462-.75-.884-1.144-1.31-.176-.19-.311-.364-.212-.669a.24.24 0 0 1-.41.025 27.385 27.385 0 0 0-4.888-3.897 27.996 27.996 0 0 0-8.535-3.554c-.74-.177-1.488-.257-2.234-.362-.326-.048-.215-.279-.292-.481-.013.544-.343.4-.64.366a25.998 25.998 0 0 0-3.614-.131 24.226 24.226 0 0 0-3.382.318c-1.042.191-2.099.319-3.106.645-.763.252-1.555.488-2.32.778-1.335.51-2.596 1.187-3.868 1.833-.268.138-.51.319-.764.475a26.321 26.321 0 0 0-4.074 3.087c-.85.78-1.657 1.608-2.414 2.48a28.215 28.215 0 0 0-2.52 3.475c-.159.25-.168.245-.508.191.258.773-.328 1.267-.607 1.85-1.097 2.29-1.97 4.664-2.367 7.188a1.751 1.751 0 0 1-.797 1.313.983.983 0 0 0-.367.55c.286 0 .412-.19.572-.318.08-.059.16-.126.262-.07.101.055.053.15.046.23a30.494 30.494 0 0 0-.163 3.757c.041 1.855.267 3.702.676 5.512a27.284 27.284 0 0 0 1.598 4.874 27.913 27.913 0 0 0 1.527 2.976 25.266 25.266 0 0 0 2.83 3.886c.232.267.176.469.014.734-.555.916-.5.702-1.026.1a27.562 27.562 0 0 1-4.878-8.026 28.406 28.406 0 0 1-1.32-4.197 27.097 27.097 0 0 1-.714-6.231c0-.764.067-1.513.11-2.265.052-.88.152-1.749.268-2.617.08-.607.229-1.205.368-1.803a36.22 36.22 0 0 1 .872-3.023.717.717 0 0 1 .225-.408c.14.085.06.28.19.368.12-.021.113-.132.094-.19-.227-.764.115-1.428.433-2.072.191-.392.334-.815.68-1.145.162-.149.1-.477.238-.715a31.898 31.898 0 0 1 3.298-4.783 27.911 27.911 0 0 1 7.719-6.346 29.878 29.878 0 0 1 4.578-2.114 25.522 25.522 0 0 1 3.84-1.043 27.825 27.825 0 0 1 5.025-.548c.928-.024 1.857.004 2.782.082.229.023.511-.011.522.382.119-.288.319-.324.573-.28 1.257.207 2.526.354 3.756.703 1.276.363 2.566.69 3.775 1.238.618.279 1.23.601 1.843.88.812.383 1.602.81 2.368 1.28a25.458 25.458 0 0 1 3.445 2.506 28.997 28.997 0 0 1 4.727 5.109 29.825 29.825 0 0 1 2.616 4.416.499.499 0 0 1 .07.381 3.673 3.673 0 0 1-.975-.723c-.07-.063-.131-.175-.236-.139-.105.036-.027.168-.042.254-.023.13-.057.257-.088.381l-.034.017Z" fill="#BBD1DC"/><path d="M29.24 54.844c-.544.132-1.061.056-1.573.067-.482.011-.967-.025-1.448 0-.341.017-.446-.118-.442-.437v-3.796c0-1.978.028-3.954.03-5.93 0-1.362-.024-2.724-.028-4.087 0-.917-.296-1.295-1.206-1.438-.381-.06-.752-.168-1.145-.118-.17.02-.19-.095-.204-.227-.1-.733 0-1.467-.017-2.202 0-.177.13-.236.277-.288a6.468 6.468 0 0 0 2.575-1.556c.467-.477.94-.954 1.25-1.574a.404.404 0 0 1 .381-.27c.572 0 1.133 0 1.7.017.29 0 .399.114.395.442-.02 2.06 0 4.12 0 6.18 0 1.073-.036 2.145-.044 3.217v3.637a1.77 1.77 0 0 1-.116.815.303.303 0 0 0-.037.21c.334.778.1 1.589.145 2.382.063 1.092-.047 2.183.014 3.276.019.355-.042.717 0 1.077a.24.24 0 0 1-.143.27.276.276 0 0 1-.287-.111c-.087-.092-.133-.326-.316-.178-.183.15-.01.277.084.399.05.063.103.126.154.223Z" fill="#BBD1DC"/><path d="M63.16 8.424c-.35.072-.637-.105-.923-.252a38.823 38.823 0 0 0-8.343-3.142c-.16-.04-.343-.051-.412-.25-.015-.044-.04-.1-.095-.078-.65.277-1.238-.105-1.841-.204a83.676 83.676 0 0 0-4.197-.572c-.22-.023-.45-.025-.418-.407-.246.4-.881.458-1.144.164-.054-.059-.1-.133-.155-.044-.15.247-.381.159-.586.159h-1.665c-.166 0-.342.038-.465-.126-.018-.027-.075-.06-.08-.054-.52.453-1.155.245-1.737.292a44.326 44.326 0 0 0-4.853.668 38.959 38.959 0 0 0-6.791 1.946 30.921 30.921 0 0 0-3.869 1.78c-.637.356-1.282.715-1.938 1.041-.811.404-1.488 1.003-2.268 1.448-.365.208-.659.572-1.172.332-.19-.086-.301.154-.297.316 0 .382-.216.609-.493.786-.572.359-1.016.85-1.545 1.25-.14.105-.255.27-.471.206-.05-.014-.11 0-.11.057 0 .422-.369.572-.61.792a45.338 45.338 0 0 0-3.736 3.927 29.8 29.8 0 0 0-2.225 2.965c-.635.967-1.318 1.907-1.82 2.968-.303.639-.7 1.234-1.003 1.871-.42.88-.777 1.791-1.189 2.67-.633 1.359-.965 2.818-1.43 4.232-.168.513-.252 1.055-.382 1.58-.055.213-.042.469-.292.59a.113.113 0 0 0-.042.092c.17.75-.158 1.446-.246 2.165-.088.72-.168 1.389-.28 2.08-.03.19.026.415-.203.545-.036.02-.04.141-.02.202.202.645.028 1.292.03 1.938 0 .699-.02 1.399-.03 2.099.015.14.002.281-.04.416-.117.032-.132-.065-.182-.107a.097.097 0 0 0-.13-.017.118.118 0 0 0-.032.16c.06.118.137.223.19.34.472.86.258 1.812.369 2.718.032.252.19.54-.04.803-.011.013.162.19.181.353a42.554 42.554 0 0 0 1.238 6.016c.117.425.191.866.311 1.282.12.416.382.814.511 1.246.323 1.036.775 2.02 1.193 3.014.444 1.054 1.055 2.043 1.612 3.052a35.245 35.245 0 0 0 2.816 4.328.439.439 0 0 1 .064.532c-.19.357-.303.372-.557.052a24.19 24.19 0 0 1-1.68-2.394c-.643-1.038-1.319-2.059-1.866-3.155-.548-1.097-1.11-2.196-1.574-3.337a42.864 42.864 0 0 1-1.593-4.603 43.693 43.693 0 0 1-.795-3.342 40.04 40.04 0 0 1-.66-5.15c-.05-.777-.157-1.57-.044-2.327.076-.514-.029-.987-.017-1.477.028-1.34.129-2.677.301-4.006.202-1.541.406-3.09.87-4.578.254-.807.364-1.642.635-2.447a52.559 52.559 0 0 1 2.37-5.904c.5-1.046 1.144-2.005 1.621-3.064a.163.163 0 0 1 .036-.06c.5-.396.67-1.02 1.03-1.514.361-.494.71-1.032 1.078-1.539a34.362 34.362 0 0 1 1.889-2.375c.061-.069.11-.256.27-.114.064.055.087.015.089-.035.01-.501.417-.751.702-1.056a42.161 42.161 0 0 1 5.26-4.77c.743-.572 1.472-1.19 2.325-1.58.316-.144.509-.382.763-.539a39.93 39.93 0 0 1 3.657-2.052 37.797 37.797 0 0 1 3.882-1.66 43.755 43.755 0 0 1 3.201-1.022 31.696 31.696 0 0 1 4.737-.985c.873-.103 1.742-.246 2.627-.301.967-.063 1.94-.109 2.909-.19.404-.037.813.03 1.223-.018.278-.032.255.305.44.47.115-.506.512-.476.834-.418.8.143 1.61.078 2.406.204.953.148 1.919.139 2.844.41.255.11.53.165.807.16.313-.032.643.082.954.147.31.065.654.15.98.235.327.083.63.167.945.253.315.086.656.166.977.271a43.77 43.77 0 0 1 5.631 2.17c.563.274 1.135.533 1.68.84.27.15.369.342.142.609a.314.314 0 0 1-.044.023Zm.912 34.911c1.31.246 1.974 1.51 2.068 2.446.076.763.091 1.541.1 2.306 0 .561-.043 1.131-.022 1.694.013.338-.347.55-.269.82.078.271.275.473.258.786-.042.763-.05 1.545-.319 2.29a2.386 2.386 0 0 1-2.29 1.571 4.491 4.491 0 0 1-.934-.032c-1.294-.285-2.04-1.145-2.171-2.549a18.293 18.293 0 0 1-.013-3.466c.076-.763-.124-1.486-.033-2.237.097-.8.03-1.624.43-2.364.318-.593.762-1.045 1.451-1.206.593-.146 1.185-.25 1.744-.059Zm-.456 9.468c.034-.437.158-.964.1-1.467-.104-.88-.016-1.755-.045-2.633-.03-.954 0-1.922-.01-2.884 0-.227-.04-.486-.305-.496-.293 0-.337.265-.347.502-.013.347-.011.698-.011 1.045 0 1.961.004 3.922.011 5.883 0 .19 0 .37.248.416.248.046.29-.118.359-.366Zm-5.896-9.038c-.087.702-.344.92-.955.933-.337 0-.673 0-1.01-.035-.918-.063-1.956-.706-2.25-2.071-.172-.8-.14-1.608-.149-2.413a88.338 88.338 0 0 1 .014-3.625 7.751 7.751 0 0 1 .295-2.178 2.191 2.191 0 0 1 1.591-1.536c.233-.079.474-.133.718-.16 1.064-.021 2.024.234 2.627 1.204.31.445.484.971.498 1.514 0 1.047.135 2.098 0 3.142-.07.534.015 1.041.024 1.562.04.88-.024 1.76-.19 2.625a2.271 2.271 0 0 1-.659 1.223c-.234.229-.395.341-.555-.185Zm-1.777-9.62c-.107.082-.069.162-.082.23-.057.3.141.563.096.882a8.526 8.526 0 0 0-.054 1.513c.042 1.144-.025 2.289-.019 3.433 0 .71-.048 1.421.053 2.13.027.18.083.333.31.318.227-.016.284-.162.295-.346.02-.312.035-.625.036-.938 0-1.097 0-2.194.016-3.289 0-.133-.048-.33.124-.381.244-.075.2-.233.166-.399-.147-.732-.357-1.454-.304-2.213 0-.078-.023-.202-.076-.23a1.274 1.274 0 0 1-.56-.71Z" fill="#BBD1DC"/><path d="m11.255 69.544-.715 1.326c-.114.212-.217.431-.35.63-.182.27-.342.284-.535.019-.319-.441-.675-.851-.99-1.292-.798-1.116-1.587-2.237-2.29-3.42a46.712 46.712 0 0 1-3.433-6.999c-.693-1.791-1.221-3.624-1.73-5.473a1.082 1.082 0 0 1-.025-.107c-.1-.784-.307-.7.482-1.13.512-.281.895-.724 1.309-1.126.084-.08.147-.223.286-.19.14.032.118.19.14.304.211 1.1.497 2.184.814 3.258.267.91.553 1.814.858 2.715.191.582.44 1.144.666 1.717a.381.381 0 0 1 0 .404c-.112.16-.095.311.149.29.19-.017.206.143.252.244a44.431 44.431 0 0 0 1.69 3.354c.502.892 1.02 1.774 1.595 2.623.574.849 1.114 1.657 1.742 2.436a.37.37 0 0 1 .085.417ZM68.55 31.942c1.068.25 1.754.912 2.14 1.93.42 1.067.767 2.16 1.04 3.272.429 1.853.762 3.728.762 5.635-.127.122-.166-.15-.282-.042 0 .017-.029.046-.02.06.298.538.424 1.157.36 1.77-.07 1.034-.061 2.073-.254 3.096a.64.64 0 0 1-.128.353c-.237-.2-.19-.529-.382-.764-.034.124-.03.25-.093.321a.6.6 0 0 0 .19.954c.453.225.192.507.163.725a20.557 20.557 0 0 1-.763 3.197 32.69 32.69 0 0 1-.832 2.312 28.062 28.062 0 0 1-7.821 10.854c-.056.046-.094.109-.145.16-.163.172-.285.113-.34-.086-.084-.313-.145-.633-.216-.954a.3.3 0 0 1 .12-.32c.779-.595 1.35-1.398 2.074-2.047.017-.015.029-.048.048-.053.494-.155.546-.685.855-1.004.324-.356.623-.734.896-1.13.287-.382.552-.79.828-1.185a16.542 16.542 0 0 0 1.421-2.43c.067-.146.164-.24.344-.155.074.032.133.19.234.055a.26.26 0 0 0 0-.337c-.274-.21-.133-.414-.03-.628a26.374 26.374 0 0 0 1.938-5.746c.475-2.216.673-4.483.59-6.749-.016-.658-.191-1.316-.014-1.976a.4.4 0 0 0-.02-.215c-.449-1.376-.53-2.837-.97-4.218a32.083 32.083 0 0 0-1.486-3.989c-.095-.206-.153-.43-.229-.645l.021-.02ZM63.16 8.423a.316.316 0 0 0 .061-.034c.954-.32 1.555.382 2.263.763.707.382 1.335.9 2.045 1.286.238.151.453.336.639.55.16.165-.056.417.053.617.029 0 .069 0 .07-.013.119-.431.125-.439.493-.166a38.826 38.826 0 0 1 3.254 2.747 40.37 40.37 0 0 1 3.957 4.261 37.225 37.225 0 0 1 2.384 3.312 41.038 41.038 0 0 1 1.918 3.275c.433.845.849 1.696 1.202 2.583.19.488.45.954.631 1.454.572 1.526 1.16 3.061 1.498 4.662.171.807.417 1.595.562 2.413.145.818.3 1.635.41 2.455.184 1.373.289 2.756.315 4.141.015.763.042 1.526.01 2.278-.01.236.047.484-.115.7a.154.154 0 0 0-.019.103c.16 1.55-.179 3.052-.381 4.578a36.756 36.756 0 0 1-1.236 5.532 25.232 25.232 0 0 1-1.013 2.901c-.063.147-.07.397-.33.348a.555.555 0 0 1-.344-.637c.131-.454.288-.9.471-1.336.296-.724.538-1.47.725-2.23a36.75 36.75 0 0 0 1.065-4.862c.108-.736.19-1.482.284-2.22.13-1.189.186-2.384.168-3.58 0-.842-.063-1.691-.084-2.532-.029-1.04-.135-2.064-.263-3.087a38.547 38.547 0 0 0-2.394-9.328 42.153 42.153 0 0 0-3.434-6.8c-.687-1.109-1.483-2.14-2.246-3.194-.095-.133-.37-.259-.078-.492.078-.063-.074-.137-.147-.139-.349-.015-.523-.273-.713-.504a33.54 33.54 0 0 0-2.507-2.75c-.128-.122-.292-.23-.269-.445 0-.047 0-.112-.057-.112-.477 0-.675-.41-.954-.668a39.429 39.429 0 0 0-3.09-2.55c-.474-.346-.916-.763-1.4-1.05-.61-.354-1.18-.782-1.817-1.09a2.499 2.499 0 0 1-.965-.68c-.074-.099-.147-.068-.242-.078-.222-.02-.416-.1-.38-.382Zm-3.157 37.831-.988 3.625c-.46 1.696-.926 3.39-1.37 5.09-.09.342-.258.495-.605.459a1.178 1.178 0 0 0-.143 0c-1.051.013-.954.086-.704-.939.279-1.16.618-2.306.933-3.458a3.45 3.45 0 0 1 .145-.408c.038-.088.055-.243.215-.092.094.09.134-.013.119-.08-.317-1.26.381-2.343.637-3.498.32-1.447.752-2.862 1.145-4.296.154-.554.381-1.107.492-1.654.206-.954.477-1.89.719-2.833.44-1.717.925-3.42 1.385-5.131a.392.392 0 0 1 .435-.338c.3-.022.602-.022.902 0 .191.03.267.105.212.315-.229.849-.4 1.717-.68 2.548-.316.954-.484 1.938-.762 2.9-.17.603-.337 1.205-.502 1.808-.542 1.99-1.082 3.979-1.621 5.965l.036.017ZM45.546 72.487c-.042-.013-.095-.013-.107-.036-.17-.343-.087-.702-.051-1.057.025-.229.215-.19.364-.19a27.366 27.366 0 0 0 6.559-1.239 26.343 26.343 0 0 0 4.285-1.806 27.734 27.734 0 0 0 4.513-2.965c.336-.276.424-.24.56.191.262.841.266.845-.445 1.38a29.642 29.642 0 0 1-5.23 3.143 28.96 28.96 0 0 1-6.655 2.14 22.98 22.98 0 0 1-3.583.437l-.21.002Zm-6.438-1.251c-.155-.412-.126-.456.305-.382 1.376.244 2.77.372 4.166.382h.939c.11 0 .239.02.258.148.05.323.087.645.11.97.012.15-.126.154-.235.156a23.671 23.671 0 0 1-4.467-.261c-.954-.157-1.908-.28-2.84-.502a28.42 28.42 0 0 1-4.089-1.316 31.239 31.239 0 0 1-4.538-2.331c-.47-.287-.483-.319-.25-.828.282-.618.328-.63.898-.294.242.113.44.304.561.542.04.093.12.229.242.133.164-.131.275-.013.391.048 1.132.641 2.308 1.2 3.52 1.67 1.37.5 2.741 1.006 4.197 1.252.275.048.515.117.563.452.005.11.093.195.269.16Zm-22.431 2.862c.216-.359.382-.29.572-.113.191.177.338.31.508.462.17.152.093.303.065.469-.017.091-.029.227.084.25.156.03.11-.113.112-.19 0-.17.115-.207.204-.098.424.517 1.107.696 1.538 1.192.526.607 1.259.918 1.908 1.356a39.792 39.792 0 0 0 3.788 2.247c.252.136.162.325.166.607.27-.431.529-.263.794-.128 1.421.723 2.924 1.248 4.387 1.864.664.28 1.376.349 2.042.612.666.263 1.394.382 2.098.548.834.202 1.677.341 2.518.494.191.034.483-.035.44.324-.045.359-.192.473-.596.414-1.818-.269-3.579-.788-5.342-1.286a32.456 32.456 0 0 1-5.748-2.262c-.526-.263-1.08-.471-1.587-.778-.507-.307-1.05-.573-1.577-.874a.274.274 0 0 1-.153-.382.271.271 0 0 0-.032-.312c-.159.522-.407.332-.68.13-.173-.129-.381-.21-.572-.323-.221-.135-.381-.294-.235-.588.05-.097.08-.246-.057-.274-.137-.029-.091.118-.107.206-.04.246-.19.2-.341.112-.496-.297-.97-.629-1.421-.992a44.492 44.492 0 0 1-3.65-3.069c-.906-.843-1.736-1.77-2.573-2.688-.454-.5-.857-1.037-1.282-1.558a.599.599 0 0 1 .078-.773c.18-.156.263.014.347.113.317.381.622.763.935 1.144.804.99 1.675 1.925 2.606 2.797.017.017.052.032.052.047 0 .338.314.363.497.521.231.183.23.185.214.779Zm22.227 9.782c.333.312.763.045 1.165.112.406.058.815.096 1.225.112 1.129.084 2.26.105 3.392.065 1.2-.055 2.402-.042 3.594-.19a45.217 45.217 0 0 0 5.914-1.084c1.06-.28 2.098-.628 3.151-.935.794-.23 1.544-.616 2.312-.93a39.349 39.349 0 0 0 5.405-2.794c.27-.162.347-.112.382.191a.632.632 0 0 1-.323.668 45.063 45.063 0 0 1-6.452 3.155c-1.413.559-2.861.982-4.323 1.402-.557.16-1.121.382-1.716.317-.12-.014-.165.093-.248.116-.155.042-.34.13-.409-.124-.02-.076 0-.19-.128-.18a.191.191 0 0 0-.18.155c-.062.365-.325.382-.617.41-.504.05-.992.2-1.501.225a.557.557 0 0 1-.382-.047.19.19 0 0 0-.204-.03c-.86.438-1.799.312-2.71.367-.552.033-1.103.094-1.653.082-1.345-.028-2.695.012-4.029-.165-.359-.046-.704-.039-1.055-.058a9.853 9.853 0 0 1-1.103-.164c-.158-.026-.333-.07-.274-.292.059-.221.084-.452.39-.43.102-.003.22.024.377.047Zm-9.537-62.002c-.114-.527.19-.632.435-.764a57.939 57.939 0 0 1 2.074-1.155c.145-.077.354-.351.526 0 .149.309.105.48-.223.644-.614.307-1.269.573-1.824.943-.772.524-1.55 1.05-2.289 1.623a29.441 29.441 0 0 0-2.997 2.707 25.675 25.675 0 0 0-2.617 3.199 25.304 25.304 0 0 0-2.862 5.341 23.843 23.843 0 0 0-1.278 4.283c-.065.326-.08.686-.448.858a.307.307 0 0 1-.308.029c-.106-.065-.07-.176-.055-.266.163-1.048.418-2.08.763-3.084.191-.572.35-1.173.573-1.747.26-.687.541-1.366.86-2.028.055-.118.097-.288.288-.285.04 0 .076 0 .069-.05-.117-.655.4-1.058.656-1.55a21.283 21.283 0 0 1 2.232-3.325 29.038 29.038 0 0 1 3.737-3.857c.668-.584 1.412-1.083 2.125-1.616.14-.127.315-.265.563.1Zm-5.223 39.545c-.09.103-.115.303-.294.324-.18.021-.242-.127-.332-.244-.235-.307-.483-.603-.717-.908a27.143 27.143 0 0 1-3.342-5.482 26.645 26.645 0 0 1-2.217-8.105 29.984 29.984 0 0 1-.155-3.97c0-.17-.055-.382.24-.382.077 0 .083-.08.039-.135-.044-.055-.136-.095-.149-.153-.147-.652.063-1.29.088-1.936.01-.252.202-.381.381-.496.103-.072.216-.217.344-.14.127.08.047.226.03.34a31.325 31.325 0 0 0-.29 3.133c-.02 1.107.027 2.215.141 3.317a23.979 23.979 0 0 0 1.357 6.16c.43 1.173.932 2.32 1.501 3.433.874 1.732 2.015 3.28 3.243 4.77.105.138.239.262.132.474Z" fill="#BBD1DC"/><path d="M78.675 42.015c.223-.314.36-.213.44.039.228.694.638 1.125 1.428 1.11.264.015.527.058.782.13.09.019.204.026.225.146.021.12-.057.157-.124.206-.381.288-.654.706-1.06.979-.231.156-.231.403-.191.654.07.427.147.855.19 1.284.044.347-.02.395-.316.244-.456-.236-.954-.4-1.292-.83-.126-.162-.269-.047-.381.021a14.77 14.77 0 0 1-1.376.723c-.105.05-.215.164-.33.077-.114-.088-.053-.23-.015-.34.141-.41.116-.85.246-1.265a.671.671 0 0 0-.23-.715c-.335-.313-.648-.647-.966-.977-.17-.177-.19-.3.116-.333.48-.052.954-.134 1.435-.191a.573.573 0 0 0 .505-.345c.212-.42.422-.84.641-1.256.052-.097.102-.261.256-.179a.255.255 0 0 1 .076.353.546.546 0 0 0-.059.465Zm-68.042 3.35c-.11.017-.215.04-.324.05-.792.078-1.412.559-2.098.883-.212.101-.458.355-.645.22-.187-.136-.027-.449.019-.676.286-1.434.292-1.434-.834-2.388-.055-.048-.116-.088-.168-.14-.08-.081-.225-.15-.164-.288.046-.104.191-.093.29-.106.525-.067 1.052-.128 1.572-.218.264-.046.47-.1.515-.5.046-.398.319-.799.573-1.144.162-.22.24-.042.303.084.203.356.38.727.526 1.11a.805.805 0 0 0 .792.605c.231.019.458.04.616.248.058.074.13.095.208 0 .115-.143.265-.067.403-.038.09.017.204.02.22.148.014.128-.067.16-.144.225-.347.3-.68.61-1.022.914a.655.655 0 0 0-.231.664c.084.4.141.807.206 1.211.023.13.07.286-.035.382-.104.095-.24-.04-.354-.088-.033-.013-.061-.04-.094-.055-.211-.11-.538-.17-.572-.382-.046-.252.3-.328.473-.482.044-.038.11-.073.086-.142-.02-.045-.067-.063-.117-.097Zm51.495-20.819c.145-.315.284-.212.418-.072.33.343.639.723.974 1.041a14.73 14.73 0 0 1 1.5 1.648c.465.597.904 1.215 1.35 1.826a.406.406 0 0 1 .105.353c-.177-.03-.347-.168-.535-.012-.123.1-.22-.034-.245-.126-.053-.19-.215-.353-.19-.572a.213.213 0 0 0-.111-.21 6.023 6.023 0 0 1-1.215-1.167 25.783 25.783 0 0 0-3.896-3.827c-.208-.168-.505-.267-.523-.605 0-.02-.02-.059-.028-.059-.609.061-.954-.436-1.374-.711a25.623 25.623 0 0 0-2.562-1.486c-1.999-.99-4.332-1.873-6.425-2.232h-.036c-.145-.048-.382-.023-.412-.168-.042-.19.225-.162.322-.269.254-.282.542-.206.855-.122 1.305.35 2.62.67 3.87 1.189a27.724 27.724 0 0 1 3.597 1.775 24.222 24.222 0 0 1 2.983 2.038c.325.267.675.5.986.788.311.288.63.469.592.98ZM45.447 70.368c.032-.19.19-.19.334-.19a31.023 31.023 0 0 0 3.298-.435c1.606-.323 3.18-.79 4.703-1.395a23.822 23.822 0 0 0 3.186-1.545 26.773 26.773 0 0 0 3.315-2.241c.218-.17.382-.487.752-.369 0 0 .038-.026.042-.045.017-.084-.054-.243.087-.224.142.02.058.203.1.306a.477.477 0 0 1-.178.602 27.236 27.236 0 0 1-5.69 3.59 27.79 27.79 0 0 1-3.68 1.393c-1.938.58-3.937.93-5.956 1.041-.319.02-.422-.14-.313-.488ZM81.72 59.937c-.36.786-.677 1.593-1.086 2.36-.366.69-.732 1.383-1.11 2.068-.25.452-.597.843-.8 1.325-.066.162-.207.18-.364.15-.156-.028-.267 0-.154.18a.488.488 0 0 1-.07.573c-.489.71-.981 1.415-1.477 2.117-.07.101-.124.252-.307.153-.067-.037-.117.015-.12.087-.033.614-.552.935-.87 1.36-.525.702-1.158 1.322-1.75 1.975a1.218 1.218 0 0 1-.507.39c-.077.024-.141.052-.153.132-.036.27-.26.4-.427.573-.118.114-.279.36-.43.202-.15-.158-.305-.466-.102-.69.202-.226.381-.602.772-.66a.17.17 0 0 0 .115-.075c.381-.8 1.127-1.301 1.65-1.988.479-.631 1.005-1.228 1.495-1.852a6.56 6.56 0 0 0 .615-.85.895.895 0 0 1 .557-.369c.149-.052.328-.09.133-.31-.139-.157 0-.3.084-.424a72.438 72.438 0 0 0 1.61-2.6c.155-.264.191-.649.609-.697.048 0 .023-.076.017-.124-.051-.429.076-.763.49-.953.027-.012.067-.05.063-.062-.148-.381.15-.665.266-.978.179-.471.406-.925.629-1.38.055-.112.067-.356.254-.276a.572.572 0 0 1 .395.552.494.494 0 0 1-.027.091ZM66.031 29.55c.763.61 1.475 1.144 1.908 2.037a31.132 31.132 0 0 1 1.835 4.54c.326 1.096.59 2.21.788 3.336.336 1.849.381 3.709.381 5.576a1.47 1.47 0 0 1-.133.695c-.35-.45-.588-.882-.573-1.462a25.99 25.99 0 0 0-.322-4.349 26.334 26.334 0 0 0-1.349-5.15 25.724 25.724 0 0 0-1.514-3.316c-.287-.54-.626-1.053-.954-1.573a.332.332 0 0 1-.067-.334ZM36.628 69.888c-2.078-.557-3.985-1.423-5.843-2.402-.527-.277-.987-.673-1.527-.954a.475.475 0 0 1-.099-.715c.134-.153.24-.025.344.044a26.37 26.37 0 0 0 12.045 4.25c.954.084 1.907.103 2.852.124.261 0 .368.09.362.36-.005.271-.166.325-.4.328a25.827 25.827 0 0 1-6.767-.774 5.404 5.404 0 0 1-.967-.261Zm33.575-23.792c.147.029.09.21.214.239.15-.118.143-.37.381-.418a.762.762 0 0 1 .038.496 26.894 26.894 0 0 1-1.463 6.654 26.531 26.531 0 0 1-1.764 3.95 27.186 27.186 0 0 1-2.852 4.166c-.084.101-.191.298-.34.143-.149-.154-.345-.368-.145-.635.303-.404.6-.813.906-1.213a24.497 24.497 0 0 0 2.084-3.329 25.718 25.718 0 0 0 2.237-5.898c.317-1.312.544-2.644.68-3.987-.008-.055.007-.1.024-.168ZM47.921 17.359c.307.025.418.15.382.414-.036.263-.212.31-.448.274a27.08 27.08 0 0 0-4.94-.257c-1.467.068-2.927.26-4.362.572-1.53.338-3.032.793-4.493 1.36-.36.134-.689.323-1.045.45-.124.044-.292.258-.382 0-.07-.207-.19-.494.113-.637.558-.253 1.129-.482 1.694-.719.954-.402 1.978-.606 2.955-.953a.32.32 0 0 1 .066-.025c.785-.02 1.496-.382 2.276-.445.78-.063 1.551-.236 2.331-.278a27.103 27.103 0 0 1 5.853.244ZM12.143 54.634c-.32-.178-.645-.406-1.01-.572a.547.547 0 0 0-.545.013c-.28.162-.572.309-.86.458-.106.053-.22.149-.334.082-.115-.067-.058-.223-.039-.332.055-.32.119-.639.191-.954a.622.622 0 0 0-.225-.68 7.14 7.14 0 0 1-.721-.764c-.128-.14-.109-.227.092-.255.345-.05.686-.119 1.033-.155a.711.711 0 0 0 .63-.458c.12-.298.269-.582.446-.849.134-.19.24-.223.355.014.172.358.36.707.527 1.068a.465.465 0 0 0 .416.29c.37.044.738.103 1.104.173.214.042.254.151.082.317-.293.284-.572.591-.872.864a.406.406 0 0 0-.145.44c.073.354.136.71.178 1.07.032.258-.046.32-.303.23Zm65.233-21.279c.049.066.094.135.134.207.146.303.301.602.427.915a.6.6 0 0 0 .513.393c.32.053.641.109.954.18.391.085.391.116.147.415-.208.258-.504.406-.733.64a.664.664 0 0 0-.215.678c.073.304.122.614.147.925.026.325-.067.382-.348.231-.28-.15-.62-.32-.92-.5a.473.473 0 0 0-.507-.01c-.32.167-.642.333-.97.482-.271.124-.36.059-.323-.235.016-.18.054-.358.114-.528.264-.668-.074-1.168-.45-1.656a2.689 2.689 0 0 0-.265-.244c-.057-.057-.154-.105-.112-.206.042-.101.14-.1.219-.096.988.065 1.614-.364 1.871-1.335a.296.296 0 0 1 .317-.256Zm-.364 19.938a.443.443 0 0 0-.017.076c-.018.296.11.655-.105.872-.32.277-.695.48-1.101.6-.19.066-.21-.073-.19-.203.024-.228.072-.452.144-.67.233-.593 0-1.02-.442-1.385-.214-.175-.542-.381-.485-.616.057-.234.464-.19.712-.19.64-.018 1.104-.23 1.295-.89.061-.17.144-.332.246-.482.103-.177.2-.282.334 0 .133.282.307.517.414.803a.817.817 0 0 0 .715.572c.288.03.573.092.857.14.105.017.234 0 .276.127.042.128-.076.166-.139.233a3.7 3.7 0 0 1-.595.572c-.485.302-.425.723-.342 1.172.04.213.077.427.1.643.023.215-.096.29-.286.19-.31-.162-.617-.332-.91-.518-.205-.13-.159-.392-.247-.584-.064-.153-.066-.33-.234-.462ZM9.523 36.938c.012-.088.1-.22.126-.382.094-.532-.322-.787-.584-1.125-.028-.036-.082-.05-.12-.078-.164-.126-.381-.279-.332-.48.05-.203.313-.192.496-.178.763.015 1.336-.214 1.58-1.019.059-.19.126-.54.35-.53.226.01.306.345.363.572.191.763.72 1.017 1.433 1.057.22.011.542-.035.612.19.07.226-.25.317-.402.46-.763.704-.763.702-.609 1.729.033.207.191.469 0 .614-.19.145-.315-.159-.505-.191a1.189 1.189 0 0 1-.382-.19c-.34-.21-.671-.382-1.06-.087-.083.063-.277.191-.317-.085-.023-.16-.155-.073-.233-.083-.109-.013-.135.08-.137.172.005.084.005.168 0 .252a.242.242 0 0 1-.292.204c-.168-.013-.118-.16-.107-.255.023-.172.069-.336.12-.567Zm18.745 30.018c-.19.706-.25.73-.83.29a143.03 143.03 0 0 1-2.167-1.685c-.156-.126-.341-.253-.36-.477-.02-.223-.176-.032-.275-.116-.486-.416-.916-.889-1.362-1.335a.269.269 0 0 1-.029-.336 5.93 5.93 0 0 1 .218-.381c.294-.443.52-.462.849-.039.26.332.679.552.736 1.034a.201.201 0 0 0 .248.162.47.47 0 0 1 .48.182c.434.4.888.777 1.361 1.129.254.19.422.502.633.763.056.067.073.221.226.04.108-.13.402.128.381.36-.024.14-.06.276-.109.409Zm41.342 8.551c-.3-.355-.073-.534.105-.628.647-.343 1.045-.954 1.606-1.394.124-.096.218-.35.435-.191.172.128.19.572.044.727-.406.48-.916.847-1.393 1.247a41.058 41.058 0 0 1-2.19 1.76c-.435.318-.883.625-1.326.936a.53.53 0 0 1-.606.085c-.191-.103-.344-.082-.252.206.038.115.034.231-.105.26-.14.029-.162-.11-.19-.21-.104-.496.121-.763.652-.763.066 0 .13.012.137-.065.025-.294.286-.368.471-.507.626-.471 1.26-.931 1.887-1.397a.632.632 0 0 1 .725-.066ZM28.08 65.094c-.102.364-.285.423-.573.19a27.165 27.165 0 0 1-3.264-3 .46.46 0 0 1 .074-.729c.157-.105.258 0 .34.103a21.819 21.819 0 0 0 2.67 2.576c.191.162.401.307.596.465.12.105.223.227.156.395Zm36.158-3.397a.815.815 0 0 1-.214.343c-.65.662-1.29 1.335-1.978 1.955-.24.22-.382.136-.572-.042-.218-.21-.058-.355.082-.48.82-.71 1.58-1.488 2.268-2.326.118-.15.269-.19.326.067.064.153.094.317.088.483Zm-1.284 9.274a27.018 27.018 0 0 1-1.666-2.156c-.078-.106-.112-.22 0-.322.251-.243.529-.456.829-.635.152-.082.242-.044.291.13.252.892.416 1.804.609 2.71a.258.258 0 0 1-.063.273Zm-34.619-5.082c-.135-.078-.368-.15-.303-.355.064-.204.236-.42.47-.358.192.051.459.206.411.47-.048.266-.319.277-.578.243Z" fill="#BBD1DC"/><path d="m25.533 18.814-.813-.633a.056.056 0 0 0-.067 0l-1.49 1.205a.047.047 0 0 0-.02.029.047.047 0 0 0 .005.034l.448.93a.13.13 0 0 1-.04.163l-.965.779c-.069.057-.122.044-.162-.039l-2.925-6.556a.133.133 0 0 1 .048-.17l1.156-.934a.139.139 0 0 1 .178 0l5.793 4.238.033.025c.038.05.028.095-.029.143l-.973.786a.134.134 0 0 1-.177 0Zm-2.898-.458a.07.07 0 0 0 .042-.013l1.051-.85a.059.059 0 0 0 .023-.037.04.04 0 0 0-.021-.044l-2.417-1.867c-.023-.018-.04-.021-.05-.012-.01.01 0 .025 0 .05l1.336 2.745a.04.04 0 0 0 .036.028Zm4.25-8.61a.12.12 0 0 1 .06-.075L27.99 9.1a.122.122 0 0 1 .093 0 .113.113 0 0 1 .073.06l3.304 6.088a.114.114 0 0 1 .01.094.121.121 0 0 1-.06.074l-1.099.595a.143.143 0 0 1-.17-.013l-3.71-2.736a.055.055 0 0 0-.05 0c-.013 0-.01.023 0 .046l1.98 3.625a.124.124 0 0 1-.049.168l-1.045.572a.115.115 0 0 1-.094.01.12.12 0 0 1-.074-.06l-3.302-6.102a.117.117 0 0 1 .011-.136.121.121 0 0 1 .038-.03l1.09-.591a.147.147 0 0 1 .17.011l3.71 2.734a.055.055 0 0 0 .05 0c.013 0 .01-.023 0-.046L26.898 9.84a.115.115 0 0 1-.013-.093Zm6.261 4.809a2.032 2.032 0 0 1-1.045-.506 2.42 2.42 0 0 1-.666-1.064l-.855-2.589a2.399 2.399 0 0 1-.099-1.242 2.06 2.06 0 0 1 .54-1.03 2.622 2.622 0 0 1 1.091-.664 2.67 2.67 0 0 1 1.278-.12 2.04 2.04 0 0 1 1.051.506c.31.287.537.65.66 1.055l.857 2.588c.142.401.177.833.101 1.252a2.045 2.045 0 0 1-.545 1.031c-.305.31-.682.538-1.097.664a2.578 2.578 0 0 1-1.27.119Zm1.448-1.774c.103-.248.108-.526.014-.777l-.89-2.686a1.057 1.057 0 0 0-.475-.623.883.883 0 0 0-.742-.054.876.876 0 0 0-.553.48 1.059 1.059 0 0 0-.01.787l.888 2.682c.073.257.242.477.473.614a.868.868 0 0 0 .73.055.88.88 0 0 0 .565-.479Zm5.214-6.912a.115.115 0 0 1 .08-.048l1.177-.17a.128.128 0 0 1 .092.023c.026.02.043.05.047.082l.987 6.856a.128.128 0 0 1-.059.125.112.112 0 0 1-.046.014l-1.236.18a.147.147 0 0 1-.157-.073l-2.54-3.85a.053.053 0 0 0-.043-.022c-.013 0-.019.015-.015.042l.599 4.086a.128.128 0 0 1-.059.124.113.113 0 0 1-.046.015l-1.177.17a.115.115 0 0 1-.092-.023.126.126 0 0 1-.047-.082l-.987-6.856a.12.12 0 0 1 .025-.091.11.11 0 0 1 .08-.048l1.227-.177a.147.147 0 0 1 .156.072l2.532 3.85c.015.017.03.026.044.024.013-.002.019-.017.015-.043l-.588-4.088a.111.111 0 0 1 .03-.092Zm4.754 6.849a.128.128 0 0 1-.033-.09l.086-2.621v-.063L42.98 5.677a.17.17 0 0 1 0-.061c0-.056.039-.082.105-.079l1.292.042a.133.133 0 0 1 .14.107l.867 2.623c0 .021.015.03.03.033.016.002.023 0 .031-.03l1.038-2.56a.135.135 0 0 1 .147-.098l1.291.042c.048 0 .077.015.09.044a.13.13 0 0 1 0 .103l-1.938 4.15-.014.062-.084 2.62a.114.114 0 0 1-.038.086.128.128 0 0 1-.087.035l-1.21-.04a.12.12 0 0 1-.078-.038Zm9.246-5.937 1.162.254a.111.111 0 0 1 .077.053.11.11 0 0 1 .017.092l-1.479 6.768a.12.12 0 0 1-.147.093l-1.167-.255a.115.115 0 0 1-.077-.054.113.113 0 0 1-.017-.091l.971-4.447c0-.026 0-.042-.01-.05-.009-.007-.028 0-.045.018l-1.257 1.33a.148.148 0 0 1-.158.05l-.231-.05a.147.147 0 0 1-.122-.111l-.59-1.717c0-.025-.019-.034-.034-.034-.016 0-.023.013-.029.04l-.97 4.444a.122.122 0 0 1-.056.079.12.12 0 0 1-.092.017l-1.171-.258a.114.114 0 0 1-.078-.053.12.12 0 0 1-.016-.092l1.479-6.768a.115.115 0 0 1 .053-.078.118.118 0 0 1 .092-.015l1.162.253a.145.145 0 0 1 .122.111l.763 2.234c.011.044.032.05.06.013l1.622-1.717a.149.149 0 0 1 .166-.059Zm6.094 2.15 1.129.514a.12.12 0 0 1 .065.068.121.121 0 0 1 0 .094l-2.862 6.31a.125.125 0 0 1-.068.063.119.119 0 0 1-.096 0l-1.091-.496a.11.11 0 0 1-.065-.069.114.114 0 0 1 0-.093l2.31-5.097a.067.067 0 0 0 0-.044c0-.015-.013-.025-.028-.023l-.903-.217h-.042c-.055-.027-.066-.073-.036-.142l.334-.833a.148.148 0 0 1 .143-.092l1.051.015a.46.46 0 0 1 .159.042Zm-.361 7.241a2.17 2.17 0 0 1 .338-1.69l1.566-2.523a2.161 2.161 0 0 1 1.36-1.046 2.495 2.495 0 0 1 2.757 1.717 2.153 2.153 0 0 1-.319 1.677l-1.568 2.525a2.162 2.162 0 0 1-1.37 1.05 2.491 2.491 0 0 1-2.754-1.717l-.01.008Zm2.328.409a.954.954 0 0 0 .526-.439l1.648-2.655a.923.923 0 0 0 .159-.662.741.741 0 0 0-.365-.504.717.717 0 0 0-.606-.099.924.924 0 0 0-.52.437l-1.648 2.655a.954.954 0 0 0-.166.664.717.717 0 0 0 .357.505.73.73 0 0 0 .614.098Zm1.873 2.369a2.178 2.178 0 0 1 .6-1.616l1.948-2.246a2.15 2.15 0 0 1 1.508-.814 2.195 2.195 0 0 1 1.615.605 2.22 2.22 0 0 1 .836 1.525 2.154 2.154 0 0 1-.591 1.612l-1.946 2.246a2.165 2.165 0 0 1-1.526.82 2.5 2.5 0 0 1-2.452-2.125l.008-.008Zm2.234.762a.942.942 0 0 0 .59-.35L68.613 17a.916.916 0 0 0 .254-.62.739.739 0 0 0-.273-.548.726.726 0 0 0-.584-.19.937.937 0 0 0-.582.35l-2.049 2.35a.954.954 0 0 0-.266.628.712.712 0 0 0 .272.555.732.732 0 0 0 .59.195v-.008Zm1.572 3.326a.112.112 0 0 1 .087-.056l7.822-1.23a.175.175 0 0 1 .16.072l.468.609c.028.038.038.07.024.1a.116.116 0 0 1-.087.052l-7.822 1.23a.17.17 0 0 1-.158-.072l-.47-.608c-.026-.036-.035-.068-.024-.097Zm2.249 2.78a1.627 1.627 0 0 1 .63-1.49c.223-.177.49-.289.772-.325a1.612 1.612 0 0 1 1.189 2.875 1.634 1.634 0 0 1-1.604.225 1.596 1.596 0 0 1-.987-1.284Zm1.484.584a.817.817 0 0 0 .607-.175.785.785 0 0 0 .314-.532.762.762 0 0 0-.154-.588.742.742 0 0 0-.527-.297.788.788 0 0 0-.595.166.81.81 0 0 0-.326.541.763.763 0 0 0 .681.886Zm-.591-6.17a1.58 1.58 0 0 1 .112-.823c.108-.264.286-.495.513-.667.224-.175.491-.287.773-.323a1.604 1.604 0 0 1 1.7 2.209 1.562 1.562 0 0 1-.51.664 1.622 1.622 0 0 1-1.6.223 1.638 1.638 0 0 1-.988-1.284Zm1.484.585a.85.85 0 0 0 .923-.71.752.752 0 0 0-.15-.589.763.763 0 0 0-.535-.3.8.8 0 0 0-.603.167.787.787 0 0 0-.318.541.762.762 0 0 0 .156.592.763.763 0 0 0 .527.3Zm-54.7 50.673.529-.855a.047.047 0 0 0 0-.063l-1.33-1.327a.046.046 0 0 0-.063 0l-.852.53a.127.127 0 0 1-.163-.021l-.856-.855c-.061-.06-.054-.114.02-.162l6.048-3.513a.13.13 0 0 1 .17.026l1.024 1.023a.134.134 0 0 1 .03.17l-3.503 6.056-.021.034c-.042.044-.09.038-.142-.013l-.862-.86a.133.133 0 0 1-.029-.17Zm.142-2.861c.003.014.01.028.019.04l.933.93c.01.01.023.016.038.018.017 0 .028 0 .038-.025l1.559-2.537c.013-.023.015-.04 0-.05-.016-.01-.027 0-.05 0l-2.512 1.591c-.02.01-.027.021-.025.038v-.005Zm9.092 1.411a.115.115 0 0 1 .09.019l.953.658a.12.12 0 0 1 .05.078.126.126 0 0 1-.02.09l-3.84 5.55a.118.118 0 0 1-.076.05.116.116 0 0 1-.09-.02l-1-.693a.144.144 0 0 1-.066-.152l.744-4.428c0-.025 0-.04-.015-.048-.015-.007-.025 0-.038.021l-2.29 3.316a.12.12 0 0 1-.078.05.115.115 0 0 1-.09-.02l-.953-.66a.12.12 0 0 1-.03-.166l3.84-5.55a.12.12 0 0 1 .078-.05.125.125 0 0 1 .09.019l.993.688a.143.143 0 0 1 .063.153l-.744 4.428a.06.06 0 0 0 .016.047c.011.008.024 0 .04-.023l2.289-3.308a.108.108 0 0 1 .084-.05Zm.038 7.789a1.993 1.993 0 0 1-.412-1.055c-.03-.414.05-.829.233-1.202l1.106-2.413c.165-.38.428-.71.763-.954a1.977 1.977 0 0 1 1.068-.381c.421-.02.84.067 1.22.25.387.169.727.431.99.763.238.305.383.673.415 1.059.03.41-.048.82-.227 1.19L30.794 77.5c-.166.38-.43.708-.763.954-.313.228-.685.36-1.072.381a2.586 2.586 0 0 1-1.223-.254 2.526 2.526 0 0 1-.99-.753Zm2.21-.309c.24-.107.428-.301.526-.544l1.144-2.504c.122-.235.15-.509.076-.763a.869.869 0 0 0-.494-.529.852.852 0 0 0-.713-.025c-.24.11-.43.308-.529.554l-1.144 2.506c-.12.232-.146.502-.07.752a.84.84 0 0 0 .484.524.857.857 0 0 0 .72.029Zm7.971-3.198a.11.11 0 0 1 .092-.011l1.12.292a.113.113 0 0 1 .074.055.12.12 0 0 1 .011.092l-1.705 6.53a.111.111 0 0 1-.055.072.118.118 0 0 1-.092.013l-1.179-.309a.14.14 0 0 1-.112-.122l-.817-4.412a.056.056 0 0 0-.032-.04c-.013 0-.023.011-.029.034l-1.01 3.895a.11.11 0 0 1-.054.073.118.118 0 0 1-.092.013l-1.12-.294a.114.114 0 0 1-.074-.055.113.113 0 0 1-.012-.09l1.706-6.531a.122.122 0 0 1 .147-.086l1.17.305a.146.146 0 0 1 .112.124l.816 4.412a.055.055 0 0 0 .033.04c.011 0 .022 0 .028-.034l1.019-3.893a.123.123 0 0 1 .055-.073Zm3.211 7.498a.114.114 0 0 1-.029-.088l.21-2.547v-.06l-1.383-4.232a.143.143 0 0 1 0-.06c0-.054.04-.077.107-.071l1.253.103a.132.132 0 0 1 .132.11l.717 2.595c0 .02.014.03.027.032.013.002.025 0 .032-.029l1.133-2.44a.13.13 0 0 1 .147-.087l1.256.103c.045 0 .074.019.085.047a.132.132 0 0 1 0 .1l-2.07 3.947-.015.059-.21 2.546a.122.122 0 0 1-.041.082.114.114 0 0 1-.088.027l-1.166-.095a.111.111 0 0 1-.097-.042Zm8.35-7.043 1.145-.113a.112.112 0 0 1 .087.027.116.116 0 0 1 .044.08l.654 6.718a.11.11 0 0 1-.026.088.116.116 0 0 1-.08.044l-1.164.113a.115.115 0 0 1-.088-.027.111.111 0 0 1-.042-.08l-.43-4.412c0-.027 0-.043-.024-.044-.023-.002-.026 0-.038.028l-.763 1.6a.145.145 0 0 1-.132.094l-.229.021a.14.14 0 0 1-.147-.065l-1.06-1.42c-.015-.02-.03-.028-.042-.022-.012.006-.02.02-.015.046l.429 4.412a.113.113 0 0 1-.027.088.12.12 0 0 1-.082.044l-1.162.112a.122.122 0 0 1-.131-.106l-.655-6.719a.12.12 0 0 1 .11-.132l1.144-.112a.148.148 0 0 1 .147.067l1.4 1.844c.025.038.044.037.059 0l.992-2.071a.143.143 0 0 1 .126-.103Zm4.912-1.119 1.145-.362a.126.126 0 0 1 .091 0 .13.13 0 0 1 .06.07l2.022 6.44a.119.119 0 0 1-.01.092.11.11 0 0 1-.069.059l-1.108.351a.111.111 0 0 1-.091 0 .115.115 0 0 1-.058-.07l-1.635-5.2a.061.061 0 0 0-.024-.035.027.027 0 0 0-.037 0l-.797.43-.036.02c-.058.02-.096 0-.119-.078l-.286-.809a.144.144 0 0 1 .044-.16l.775-.672a.38.38 0 0 1 .133-.076Zm5.262 5.062a2.117 2.117 0 0 1-1.195-1.181l-1.213-2.629a2.112 2.112 0 0 1-.12-1.667 2.434 2.434 0 0 1 2.871-1.328 2.1 2.1 0 0 1 1.194 1.171l1.214 2.629a2.108 2.108 0 0 1 .118 1.677 2.432 2.432 0 0 1-2.862 1.324l-.007.003Zm1.58-1.675a.904.904 0 0 0-.075-.664l-1.276-2.764a.895.895 0 0 0-.454-.485.722.722 0 0 0-.603.027.707.707 0 0 0-.409.44.918.918 0 0 0 .079.657l1.276 2.766a.925.925 0 0 0 .45.488.692.692 0 0 0 .603-.02.707.707 0 0 0 .408-.445Zm3.788-1.05a2.121 2.121 0 0 1-1.364-.98l-1.61-2.408a2.097 2.097 0 0 1-.382-1.625 2.43 2.43 0 0 1 2.627-1.757 2.085 2.085 0 0 1 1.37.973l1.61 2.405a2.11 2.11 0 0 1 .381 1.639 2.436 2.436 0 0 1-2.626 1.757l-.006-.004Zm1.297-1.908a.908.908 0 0 0-.177-.644l-1.692-2.532a.904.904 0 0 0-.525-.406.72.72 0 0 0-.593.12.709.709 0 0 0-.332.5.908.908 0 0 0 .179.637l1.692 2.531a.928.928 0 0 0 .523.412.691.691 0 0 0 .591-.112.707.707 0 0 0 .334-.5v-.006Zm1.463-4.537a1.527 1.527 0 0 1-.809 0 1.59 1.59 0 0 1-1.12-1.117 1.593 1.593 0 0 1 .406-1.519c.196-.196.44-.337.709-.407.264-.069.542-.069.807 0 .268.07.513.21.707.408a1.576 1.576 0 0 1-.694 2.636l-.006-.002Zm.382-1.51a.828.828 0 0 0-.803-.799.73.73 0 0 0-.552.22.75.75 0 0 0-.22.555.78.78 0 0 0 .238.56.763.763 0 0 0 .572.239.749.749 0 0 0 .712-.48.743.743 0 0 0 .047-.294h.006Zm2.737 4.186a.117.117 0 0 1-.065-.079l-2.19-7.393a.175.175 0 0 1 .05-.164l.529-.53c.034-.034.064-.045.091-.035a.112.112 0 0 1 .065.076l2.188 7.396a.164.164 0 0 1-.048.162l-.528.53c-.04.033-.07.046-.097.037h.005Zm2.393-2.53a1.568 1.568 0 0 1-1.522-.412 1.56 1.56 0 0 1-.413-1.509 1.566 1.566 0 0 1 2.625-.711 1.567 1.567 0 0 1 .414 1.52 1.542 1.542 0 0 1-1.104 1.112Zm.381-1.507a.791.791 0 0 0-.25-.572.765.765 0 0 0-1.253.837c.041.095.1.18.175.252a.792.792 0 0 0 .573.246.72.72 0 0 0 .55-.221.726.726 0 0 0 .205-.542Z" fill="#fff"/></g><defs><clipPath id="a"><path fill="#fff" d="M0 0h88v88H0z"/></clipPath></defs></svg>