<svg width="99" height="72" fill="none" xmlns="http://www.w3.org/2000/svg"><g clip-path="url(#a)"><path d="M66.01 29.97v2.322h30.027v32.9H56.739l-7.56 4.158-7.56-4.158H2.32v-32.9h30.027V29.97H0v37.545h41.023L49.179 72l8.155-4.485h41.023V29.969H66.01Z" fill="#BBD1DC"/><path d="M9.688 39.505h7.11a8.38 8.38 0 0 1 3.541.76 9.667 9.667 0 0 1 2.893 2.024 9.41 9.41 0 0 1 1.948 2.944 9.087 9.087 0 0 1 .013 7.016 9.368 9.368 0 0 1-1.937 2.957 9.548 9.548 0 0 1-2.892 2.036 8.43 8.43 0 0 1-3.567.76H9.688V39.505Zm4.805 14.427h1.102c.833 0 1.577-.131 2.23-.393a4.758 4.758 0 0 0 1.655-1.08 4.615 4.615 0 0 0 1.03-1.63 5.849 5.849 0 0 0 .356-2.073 5.695 5.695 0 0 0-.367-2.062 4.619 4.619 0 0 0-2.697-2.723c-.654-.262-1.39-.393-2.207-.393h-1.102v10.354Zm13.629 4.072 3.138-18.5h4.756l3.7 9.864 3.68-9.863h4.756l3.135 18.5h-4.78l-1.592-10.649-4.365 10.648h-1.912l-4.142-10.648-1.594 10.648h-4.78Z" fill="#BBD1DC"/><path d="M67.635 45.687c-1.11-1.357-2.484-2.036-4.118-2.036a5.04 5.04 0 0 0-1.997.392 4.86 4.86 0 0 0-1.582 1.068 4.917 4.917 0 0 0-1.041 1.607 5.279 5.279 0 0 0-.38 2.012 5.342 5.342 0 0 0 .38 2.036 4.91 4.91 0 0 0 4.596 3.091c1.536 0 2.917-.654 4.142-1.962v5.692l-.49.172c-.67.243-1.36.436-2.059.576a9.649 9.649 0 0 1-8.64-2.576 10.124 10.124 0 0 1-2.145-3.116c-.54-1.202-.81-2.515-.81-3.938.001-1.423.267-2.727.797-3.913a9.768 9.768 0 0 1 8.937-5.803c.729 0 1.456.079 2.169.234.767.174 1.518.416 2.243.724l-.002 5.74Z" fill="url(#b)"/><path d="M82.443 54.79h-6.864l-1.104 3.215h-5.122l7.035-18.5h5.246l7.035 18.5h-5.123l-1.103-3.215Zm-1.275-3.655-2.157-6.16-2.157 6.16h4.314Zm-23.683-37.9h-2.188V8.314a6.127 6.127 0 0 0-1.792-4.33 6.116 6.116 0 0 0-10.445 4.33v4.56h-2.187v-4.56c0-2.205.875-4.32 2.433-5.879a8.302 8.302 0 0 1 11.746 0 8.317 8.317 0 0 1 2.433 5.879v4.92Z" fill="#BBD1DC"/><path d="M60.081 12.9H38.277v19.4h21.804V12.9Z" fill="#BBD1DC"/><path d="M59.144 13.839h-19.93V31.36h19.93V13.84Z" fill="#325D9C"/><path d="M58.206 14.777H40.152v15.646h18.054V14.777Z" fill="#002E5D"/><path d="M51.048 22.238a1.872 1.872 0 0 0-1.916-1.871 1.868 1.868 0 0 0-1.82 1.964 1.871 1.871 0 0 0 1.044 1.585v2.19a.825.825 0 1 0 1.648 0v-2.19a1.87 1.87 0 0 0 1.044-1.678Z" fill="#BBD1DC"/></g><defs><linearGradient id="b" x1="60.565" y1="30.779" x2="60.565" y2="72.791" gradientUnits="userSpaceOnUse"><stop stop-color="#BBD1DC"/><stop offset="1" stop-color="#BBD1DC"/><stop offset="1" stop-color="#39B54A"/></linearGradient><clipPath id="a"><path fill="#fff" d="M0 0h99v72H0z"/></clipPath></defs></svg>