<svg width="60" height="35" fill="none" xmlns="http://www.w3.org/2000/svg"><g clip-path="url(#a)"><mask id="b" style="mask-type:luminance" maskUnits="userSpaceOnUse" x="0" y="3" width="60" height="16"><path d="M.98 3.5h58.038v15.18H.98V3.5Z" fill="#fff"/></mask><g mask="url(#b)"><path d="M4.388 10.443c-.015-.105.03-.164.044-.194.18.03.364.045.547.045.43 0 .726-.075 1.037-.224.666-.358.933-1.014.933-1.849 0-1.386-.74-2.281-2.325-2.281-.133 0-.578.015-.666.09a.355.355 0 0 0-.119.209c-.03.342-.044.79-.044 3.563 0 2.326.015 2.923.044 3.4.045.357.119.506.518.626.252.06.578.104 1.022.148.074.09.045.523-.03.597-.473 0-1.628-.045-2.22-.045-.696 0-1.733.045-2.059.045-.074-.074-.074-.506-.014-.581.34-.045.666-.074.858-.134.386-.105.4-.403.43-.835.014-.537.03-2.013.03-3.206 0-2.266 0-2.624-.016-3.117-.03-.536-.133-.655-.607-.745a5.625 5.625 0 0 0-.74-.12c-.06-.104-.03-.507.044-.581.192 0 1.11.045 1.821.045 1.007 0 1.703-.015 2.621-.015.534 0 1.436.09 2.043.582.518.417.948 1.088.948 2.087 0 1.402-.874 2.266-1.629 2.64-.563.298-1.17.372-1.629.372-.267 0-.444-.014-.637-.074-.087-.06-.19-.343-.205-.448Z" fill="#405C77"/></g><path d="M9.275 13.976c.296-.044.474-.074.651-.149.178-.074.238-.239.252-.402.06-.373.074-1.372.074-3.877 0-1.088 0-2.788-.03-3.28-.015-.12-.03-.463-.237-.508-.148-.044-.488-.089-.903-.148-.074-.045-.074-.432.03-.493.814-.089 1.895-.342 2.413-.566.044.015.134.149.134.194-.104.283-.134.447-.134.984-.014.745-.014 2.505-.03 3.817 0 2.282.016 3.251.03 3.653.015.358.044.567.356.641.207.06.252.09.636.134.045.105.03.493-.073.597-.341 0-.741-.045-1.659-.045-.592 0-1.332.045-1.525.045-.045-.09-.074-.478.015-.597Zm7.285-2.356c-.414.165-1.362.448-1.702.643-.074.03-.178.312-.178.491 0 .552.385.97 1.036.97.178 0 .518-.09.711-.239.134-.09.163-.194.193-.372.03-.194.03-1.149.03-1.417 0-.016-.045-.09-.09-.075Zm-.073-1.877c-.237-.373-.696-.553-1.096-.553-.4 0-.622.105-.666.15-.178.149-.415.656-.622 1.073-.06.075-.592-.178-.563-.312.06-.254.296-.94.415-1.03.637-.417 1.629-.804 2.014-.804.696 0 1.229.327 1.554.82.282.462.37.91.37 1.505 0 .761-.059 1.924-.059 2.55 0 .344.133.552.578.552.222 0 .34-.03.533-.074.014.074-.015.521-.074.581-.356.358-.919.507-1.289.507-.459 0-.725-.208-.814-.433-.06-.088-.089-.223-.118-.327 0-.015-.06-.03-.074-.015-.844.522-1.392.775-1.85.775-.282 0-.593-.179-.845-.418a1.941 1.941 0 0 1-.518-1.342c0-.417.281-.895.34-.954.563-.283 2.237-.641 2.844-.954a.38.38 0 0 0 .104-.149c.03-.089.03-.224.03-.253-.002-.284-.017-.613-.194-.895Zm4.413.551c0 .879.384 1.819 1.406 1.819.193 0 .504-.09.652-.254.222-.208.4-.656.4-1.193 0-.879-.356-1.73-1.378-1.73-.621 0-1.08.493-1.08 1.358Zm3.553 5.74c0-.447-.207-.79-.725-.984-.4-.15-1.067-.224-1.836-.224-.252 0-.43.075-.533.135-.548.358-.77.7-.77 1.073 0 .358.133.656.444.925.415.358.948.477 1.54.477 1.318 0 1.88-.73 1.88-1.402Zm-.577-7.44c.237.089.474.134.829.134.503 0 .71-.164.903-.359.06-.014.237.105.252.134 0 .21-.207.731-.356.91-.118.134-.251.238-.577.238h-.34c-.016 0-.046.03-.046.046.03.119.074.402.074.507 0 1.073-.4 1.58-.903 1.968-.452.345-.99.556-1.555.61-.03 0-.325.03-.355.03-.104.03-.326.15-.326.344 0 .268.252.402.637.432.785.06 1.97.12 2.488.299.563.208 1.007.73 1.007 1.475 0 .955-.652 1.924-1.866 2.52a3.967 3.967 0 0 1-1.762.403c-.755 0-1.362-.149-1.895-.567-.474-.373-.711-.939-.711-1.357 0-.134.06-.537.119-.612.162-.208.696-.61 1.377-1.088.014 0 .014-.03 0-.03-.578-.223-.815-.596-.889-.88-.015-.089.074-.268.089-.327.222-.15.74-.433.962-.626.016-.016.016-.06-.014-.075-.785-.268-1.392-.88-1.392-2.087 0-.627.266-1.283.858-1.715.37-.299 1.333-.672 1.94-.656.623.015.978.15 1.452.329Zm7.518 5.024c.378.288.914.41 1.446.397.637-.016 1.532-.396 1.504-1.528-.023-.924-.594-1.313-1.99-2.055-1.44-.756-2.344-1.434-2.377-2.836-.04-1.654 1.27-2.611 2.943-2.65 1.124-.03 1.766.165 2.419.223-.092.495-.157 1.466-.2 2.198-.041.105-.5.117-.576.03-.108-.79-.238-1.263-.584-1.508-.361-.245-.836-.308-1.25-.298a1.44 1.44 0 0 0-1.461 1.467c.02.85.398 1.199 1.06 1.6.616.372 1.453.71 1.993 1.01.84.473 1.418 1.085 1.444 2.158.034 1.431-1.146 2.846-3.351 2.9-.948.023-1.873-.284-2.262-.423-.137-.175-.487-1.821-.545-2.372.026-.135.527-.266.617-.209.302.888.628 1.521 1.17 1.896Zm10.889 1.089c-.977 0-1.733-.373-2.235-1.074-.386-.536-.593-1.267-.593-2.042 0-1.148.533-2.088 1.555-2.699.71-.447 1.525-.626 1.925-.626.637 0 1.036.134 1.317.268.267.12.385.253.46.402a.65.65 0 0 1-.03.284c-.105.268-.415.641-.563.7-.03.015-.119.03-.148.015-.37-.342-.948-.85-1.717-.85-1.126 0-1.54.984-1.54 1.953 0 .641.177 1.328.577 1.79.4.492.947.73 1.658.73.534 0 1.11-.149 1.748-.73.03.015.103.074.103.149 0 .163-.059.507-.103.566-.681.866-1.763 1.164-2.414 1.164Zm6.649-3.087c-.414.165-1.362.448-1.703.643-.073.03-.178.312-.178.491 0 .552.385.97 1.037.97.178 0 .517-.09.71-.239.134-.09.163-.194.193-.372.03-.194.03-1.149.03-1.417 0-.016-.044-.09-.089-.075Zm-.074-1.877c-.237-.373-.696-.553-1.096-.553-.4 0-.622.105-.666.15-.178.149-.415.656-.622 1.073-.059.075-.593-.178-.563-.312.06-.254.296-.94.415-1.03.637-.417 1.629-.804 2.014-.804.696 0 1.229.327 1.555.82.282.462.37.91.37 1.505 0 .761-.06 1.924-.06 2.55 0 .344.134.552.578.552.222 0 .34-.03.533-.074.015.074-.015.521-.073.581-.356.358-.918.507-1.288.507-.46 0-.726-.208-.815-.433-.059-.088-.089-.223-.118-.327 0-.015-.06-.03-.074-.015-.844.522-1.392.775-1.851.775-.282 0-.592-.179-.844-.418a1.941 1.941 0 0 1-.518-1.342c0-.417.281-.895.34-.954.563-.283 2.237-.641 2.843-.954a.371.371 0 0 0 .104-.149c.03-.089.03-.224.03-.253-.001-.284-.016-.613-.194-.895Zm3.539 4.13c.208-.045.311-.209.326-.463.03-.417.03-1.476.03-2.43V9.906c-.06-.208-.326-.417-.844-.656-.03-.12.03-.402.103-.447.607-.06 1.57-.358 1.925-.552.03.016.09.075.09.12 0 .074-.015.596-.015.834 0 .03.074.03.088.016.638-.552 1.407-.954 1.985-.954.651 0 1.155.298 1.51.805.296.447.414 1.073.414 1.789 0 .88 0 2.221.03 2.684 0 .044.06.18.104.209.282.134.518.179.844.223.06.105.03.492-.06.597-.206 0-.724-.045-1.539-.045-.651 0-1.095.045-1.48.045-.059-.09-.09-.506 0-.597.281-.03.518-.074.607-.119.193-.06.237-.193.237-.73 0-.984.014-2.118-.044-2.684-.03-.254-.134-.597-.415-.835-.207-.18-.489-.313-.903-.313-.43 0-.918.179-1.215.447-.088.074-.162.209-.162.492 0 1.014 0 2.505.03 3.206.014.268.073.387.31.447a3.1 3.1 0 0 0 .608.089c.058.09.03.492-.06.597-.222 0-.666-.045-1.525-.045-.622 0-1.377.045-1.525.045-.073-.09-.073-.522 0-.597.184-.023.367-.058.546-.104Zm-14.236 1.282a.093.093 0 0 1-.06-.02l-.001-.007-.084-.071-.699-.636-.004-.092.385-.43.09-.004.78.742v.027h.005c.092 0-.091.275-.099.284l-.095.089c-.057.063-.144.118-.218.118Z" fill="#405C77"/><path d="M41.615 18.68c-.286 0-.618-.174-.985-.517l-2.362-2.42c-.229-.213-.287-.43-.297-.572a.591.591 0 0 1 .13-.421l.067-.075a.57.57 0 0 1 .416-.167c.138 0 .35.044.575.254l2.565 2.185c.85.794.583 1.278.428 1.449l-.068.074a.615.615 0 0 1-.469.21Z" fill="#405C77"/><path d="M37.814 15.053c-.103 0-.235-.119-.261-.142l.012-.105c.002-.002.275-.16.393-.302a2.09 2.09 0 0 0 .234-.398l.106-.017c.046.051.153.178.153.26 0 .098-.512.704-.637.704Z" fill="#405C77"/><mask id="c" style="mask-type:luminance" maskUnits="userSpaceOnUse" x="0" y="3" width="60" height="16"><path d="M.98 3.5h58.038v15.18H.98V3.5Z" fill="#fff"/></mask><g mask="url(#c)"><path d="M37.726 14.966a.347.347 0 0 1-.239-.09l-.315-.29c-.157-.145-.153-.411.01-.594l.168-.19a.464.464 0 0 1 .341-.161c.092 0 .174.031.239.09l.315.29c.158.144.152.41-.01.594l-.169.19a.466.466 0 0 1-.34.16Z" fill="#405C77"/></g><mask id="d" style="mask-type:luminance" maskUnits="userSpaceOnUse" x="0" y="3" width="60" height="16"><path d="M.98 3.5h58.038v15.18H.98V3.5Z" fill="#fff"/></mask><g mask="url(#d)"><path d="M37.129 13.569a5.742 5.742 0 0 1-8.133.667c-2.43-2.077-2.727-5.744-.663-8.19a5.743 5.743 0 0 1 8.133-.668c2.429 2.078 2.725 5.745.663 8.19Zm-.343-8.57a6.234 6.234 0 0 0-8.829.725c-2.239 2.656-1.917 6.635.72 8.892a6.234 6.234 0 0 0 8.827-.725c2.241-2.656 1.918-6.637-.718-8.891Z" fill="#405C77"/></g><path d="M10.795 26.608v-3.666h1.447c.278 0 .515.053.71.159.196.105.345.251.448.439.104.186.156.4.156.644s-.053.458-.158.645a1.088 1.088 0 0 1-.456.435 1.535 1.535 0 0 1-.72.155H11.3v-.62h.797a.77.77 0 0 0 .368-.078.51.51 0 0 0 .219-.216.679.679 0 0 0 .073-.32.662.662 0 0 0-.073-.32.491.491 0 0 0-.219-.213.798.798 0 0 0-.372-.077h-.523v3.033h-.775Zm3.264 0v-3.666h1.447c.277 0 .513.049.71.148.196.098.346.237.448.417.104.18.156.39.156.632a1.2 1.2 0 0 1-.157.629 1.021 1.021 0 0 1-.457.4 1.67 1.67 0 0 1-.72.14h-.968v-.623h.843a.97.97 0 0 0 .369-.06.438.438 0 0 0 .218-.183.576.576 0 0 0 .074-.303.6.6 0 0 0-.074-.308.45.45 0 0 0-.22-.19.903.903 0 0 0-.37-.066h-.523v3.033h-.776Zm1.98-1.668.912 1.668h-.856l-.891-1.668h.836Zm4.699-.165c0 .4-.076.74-.227 1.02-.15.281-.356.495-.616.643a1.74 1.74 0 0 1-.874.22c-.326 0-.619-.074-.878-.222a1.58 1.58 0 0 1-.614-.642c-.15-.28-.225-.62-.225-1.019 0-.4.075-.74.225-1.02.15-.281.355-.495.614-.642.26-.148.552-.222.878-.222.323 0 .614.074.873.222.26.147.466.36.617.641.151.28.227.621.227 1.021Zm-.786 0c0-.26-.039-.477-.117-.655a.887.887 0 0 0-.324-.405.872.872 0 0 0-.49-.138.872.872 0 0 0-.49.138.898.898 0 0 0-.327.405 1.661 1.661 0 0 0-.114.655c0 .259.038.477.114.655a.898.898 0 0 0 .326.405c.14.092.303.138.49.138a.87.87 0 0 0 .491-.138.887.887 0 0 0 .325-.405 1.64 1.64 0 0 0 .116-.655Zm1.36 1.833v-3.666h2.428v.639h-1.653v.873h1.492v.64h-1.492v1.514h-.775Zm2.95 0v-3.666h2.47v.639h-1.695v.873h1.568v.64h-1.568v.875h1.703v.64h-2.478Zm5.076-2.612a.453.453 0 0 0-.184-.336c-.11-.08-.256-.12-.443-.12a.844.844 0 0 0-.32.053.452.452 0 0 0-.2.145.35.35 0 0 0-.069.212.301.301 0 0 0 .041.171.43.43 0 0 0 .128.128.97.97 0 0 0 .186.09c.07.026.145.047.225.065l.33.08c.16.035.306.083.44.142.134.06.25.133.348.22.098.088.173.19.227.308a.973.973 0 0 1 .084.407 1.014 1.014 0 0 1-.172.584 1.09 1.09 0 0 1-.487.381c-.211.09-.466.134-.764.134-.296 0-.554-.045-.774-.136a1.134 1.134 0 0 1-.512-.403 1.193 1.193 0 0 1-.191-.664h.75a.562.562 0 0 0 .105.308.587.587 0 0 0 .253.184.992.992 0 0 0 .36.061.935.935 0 0 0 .342-.057.524.524 0 0 0 .227-.16.368.368 0 0 0 .08-.234.305.305 0 0 0-.073-.207.557.557 0 0 0-.211-.144 2.154 2.154 0 0 0-.338-.107l-.4-.1c-.309-.076-.553-.193-.732-.353-.179-.16-.268-.376-.267-.646a.96.96 0 0 1 .177-.582c.121-.166.286-.296.496-.389.21-.093.45-.14.717-.14.272 0 .51.047.712.14.204.093.363.223.477.389.113.165.171.358.175.576h-.743Zm3.304 0a.453.453 0 0 0-.185-.336c-.108-.08-.256-.12-.442-.12a.845.845 0 0 0-.32.053.452.452 0 0 0-.2.145.35.35 0 0 0-.069.212.301.301 0 0 0 .041.171.43.43 0 0 0 .127.128.97.97 0 0 0 .187.09c.07.026.145.047.225.065l.33.08c.16.035.306.083.44.142.134.06.25.133.347.22a.93.93 0 0 1 .228.308.973.973 0 0 1 .084.407 1.014 1.014 0 0 1-.172.584 1.09 1.09 0 0 1-.487.381c-.211.09-.466.134-.764.134-.297 0-.554-.045-.774-.136a1.133 1.133 0 0 1-.512-.403 1.201 1.201 0 0 1-.192-.664h.75a.563.563 0 0 0 .106.308.587.587 0 0 0 .253.184.992.992 0 0 0 .36.061c.13 0 .245-.019.342-.057a.524.524 0 0 0 .227-.16.368.368 0 0 0 .08-.234.304.304 0 0 0-.073-.207.556.556 0 0 0-.211-.144 2.154 2.154 0 0 0-.339-.107l-.399-.1c-.309-.076-.553-.193-.732-.353-.18-.16-.268-.376-.267-.646a.96.96 0 0 1 .177-.582c.12-.166.286-.296.496-.389.21-.093.45-.14.716-.14.273 0 .51.047.713.14.204.093.363.223.476.389.114.165.172.358.176.576h-.743Zm2.09-1.054v3.666h-.776v-3.666h.776Zm4.007 1.833c0 .4-.075.74-.227 1.02-.15.281-.356.495-.616.643a1.74 1.74 0 0 1-.874.22c-.326 0-.618-.074-.877-.222a1.58 1.58 0 0 1-.614-.642c-.15-.28-.226-.62-.226-1.019 0-.4.075-.74.226-1.02.15-.281.355-.495.614-.642.259-.148.551-.222.877-.222.324 0 .615.074.874.222.26.147.465.36.616.641.151.28.227.621.227 1.021Zm-.786 0c0-.26-.039-.477-.116-.655a.887.887 0 0 0-.324-.405.872.872 0 0 0-.49-.138.872.872 0 0 0-.491.138.898.898 0 0 0-.326.405 1.661 1.661 0 0 0-.115.655c0 .259.038.477.115.655a.898.898 0 0 0 .326.405c.14.092.303.138.49.138a.866.866 0 0 0 .49-.138.887.887 0 0 0 .325-.405 1.64 1.64 0 0 0 .116-.655Zm4.428-1.833v3.666h-.67L40.116 24.3h-.027v2.308h-.775v-3.666h.68l1.583 2.306h.032v-2.306h.772Zm1.272 3.666h-.83l1.265-3.666h1l1.264 3.666h-.831l-.919-2.829h-.028l-.92 2.83Zm-.052-1.44h1.963v.604H43.6v-.605Zm3.192 1.44v-3.666h.775v3.027h1.572v.64h-2.347ZM-.371 30.782v-3.667h1.446c.279 0 .515.054.711.16.196.105.345.251.448.438a1.3 1.3 0 0 1 .156.645c0 .243-.053.458-.158.645a1.087 1.087 0 0 1-.457.435 1.534 1.534 0 0 1-.72.155h-.92v-.62H.93a.79.79 0 0 0 .37-.078.511.511 0 0 0 .218-.217.679.679 0 0 0 .073-.32.661.661 0 0 0-.073-.319.49.49 0 0 0-.219-.213.797.797 0 0 0-.372-.077H.404v3.033h-.775Zm3.264 0v-3.667h.775v3.028H5.24v.64H2.893Zm3.586 0h-.83l1.266-3.667h.999l1.264 3.667h-.831l-.919-2.829H7.4l-.92 2.83Zm-.051-1.441H8.39v.605H6.428v-.605Zm5.45-1.04a.806.806 0 0 0-.105-.231.712.712 0 0 0-.389-.281.936.936 0 0 0-.274-.038.881.881 0 0 0-.494.14.916.916 0 0 0-.33.406 1.587 1.587 0 0 0-.118.648c0 .256.04.473.117.652a.91.91 0 0 0 .33.41c.141.093.309.14.502.14a.996.996 0 0 0 .45-.093.667.667 0 0 0 .286-.267c.067-.115.1-.25.1-.407l.158.024h-.945v-.584H12.7v.462c0 .322-.068.599-.204.83a1.39 1.39 0 0 1-.562.534 1.752 1.752 0 0 1-.82.186c-.344 0-.646-.075-.906-.227a1.578 1.578 0 0 1-.61-.65c-.144-.282-.216-.616-.216-1.003 0-.297.043-.562.13-.795a1.68 1.68 0 0 1 .364-.594c.157-.162.339-.286.547-.37a1.77 1.77 0 0 1 .675-.128c.207 0 .4.03.58.091.179.06.337.145.476.255a1.363 1.363 0 0 1 .512.89h-.788Zm2.18-1.186v3.667h-.776v-3.667h.776Zm1.27 3.667h-.831l1.266-3.667h.999l1.264 3.667h-.831l-.919-2.829h-.028l-.92 2.83Zm-.052-1.441h1.962v.605h-1.962v-.605Zm3.191 1.441v-3.667h1.447c.277 0 .513.05.709.149.197.098.347.237.45.417.103.18.155.39.155.632 0 .244-.053.453-.158.629a1.022 1.022 0 0 1-.456.4 1.67 1.67 0 0 1-.72.14h-.968v-.623h.843c.148 0 .27-.02.369-.06a.44.44 0 0 0 .218-.183.578.578 0 0 0 .073-.303.6.6 0 0 0-.073-.308.45.45 0 0 0-.22-.19.903.903 0 0 0-.37-.066h-.524v3.033h-.775Zm1.98-1.669.912 1.67h-.856l-.892-1.67h.836Zm2.104-1.998v3.667h-.775v-3.667h.775Zm2.627 1.055a.453.453 0 0 0-.184-.337c-.109-.08-.256-.12-.442-.12a.845.845 0 0 0-.32.054.45.45 0 0 0-.201.145.349.349 0 0 0-.069.211.303.303 0 0 0 .042.172.43.43 0 0 0 .127.127.967.967 0 0 0 .186.092c.07.025.146.046.226.064l.33.079c.16.036.306.084.44.143.133.06.249.133.347.22.098.088.174.19.227.308a.973.973 0 0 1 .084.407 1.014 1.014 0 0 1-.171.584c-.113.163-.275.29-.487.38-.212.09-.467.135-.765.135-.296 0-.554-.045-.773-.136a1.132 1.132 0 0 1-.512-.403 1.204 1.204 0 0 1-.192-.664h.75a.564.564 0 0 0 .106.308.587.587 0 0 0 .252.184c.106.04.226.061.36.061a.935.935 0 0 0 .342-.057.525.525 0 0 0 .227-.16.368.368 0 0 0 .081-.234.304.304 0 0 0-.073-.208.556.556 0 0 0-.212-.143 2.154 2.154 0 0 0-.338-.107l-.4-.1c-.308-.076-.553-.193-.732-.353-.179-.16-.268-.376-.266-.647a.961.961 0 0 1 .177-.582 1.19 1.19 0 0 1 .496-.388c.21-.093.449-.14.716-.14.272 0 .51.047.713.14.204.093.363.223.476.388.113.166.172.358.175.577h-.743Zm1.315-1.055h.956l1.01 2.464h.043l1.01-2.464h.956v3.667h-.752v-2.387h-.03l-.95 2.37h-.512l-.949-2.378h-.03v2.395h-.752v-3.667Zm7.08 3.667h-1.3v-3.667h1.311c.369 0 .686.074.953.22.266.146.47.356.614.629.144.273.216.6.216.981 0 .382-.072.71-.216.985a1.49 1.49 0 0 1-.618.632c-.267.147-.587.22-.96.22Zm-.524-.664h.492c.23 0 .422-.04.578-.122a.784.784 0 0 0 .355-.381c.08-.173.12-.396.12-.67 0-.27-.04-.492-.12-.664a.777.777 0 0 0-.353-.38 1.244 1.244 0 0 0-.578-.121h-.494v2.338Zm2.893.664v-3.667h2.47v.64h-1.695v.873h1.568v.64h-1.568v.875h1.703v.64h-2.478Zm2.947-3.027v-.64h3.012v.64h-1.123v3.027h-.766v-3.027h-1.123Zm3.508 3.027v-3.667h2.47v.64h-1.695v.873h1.569v.64h-1.569v.875h1.703v.64h-2.478Zm6.322-2.383h-.784a.768.768 0 0 0-.088-.27.687.687 0 0 0-.17-.204.75.75 0 0 0-.24-.13.919.919 0 0 0-.291-.044.87.87 0 0 0-.496.141.903.903 0 0 0-.328.409 1.618 1.618 0 0 0-.116.648c0 .261.038.48.116.659a.892.892 0 0 0 .33.402c.14.091.303.137.488.137.104 0 .2-.014.288-.042a.692.692 0 0 0 .41-.315.761.761 0 0 0 .097-.261l.784.003a1.464 1.464 0 0 1-.476.904 1.525 1.525 0 0 1-.483.29 1.764 1.764 0 0 1-.632.106 1.73 1.73 0 0 1-.878-.222 1.576 1.576 0 0 1-.608-.642c-.148-.28-.222-.62-.222-1.02s.075-.74.225-1.02c.15-.28.355-.494.612-.64.258-.149.548-.223.87-.223.213 0 .41.03.591.09.183.06.345.146.486.261.14.113.255.253.343.417.09.165.147.354.172.566Zm.417-.645v-.639h3.011v.64h-1.122v3.027h-.767v-3.027h-1.122Zm4.282-.639v3.667h-.775v-3.667h.776Zm4.008 1.834c0 .4-.076.74-.227 1.02a1.58 1.58 0 0 1-.616.643 1.74 1.74 0 0 1-.874.22c-.326 0-.618-.074-.877-.222a1.58 1.58 0 0 1-.614-.642c-.15-.28-.226-.62-.226-1.02s.075-.74.226-1.02c.15-.28.355-.494.614-.64.259-.149.551-.223.877-.223.323 0 .615.074.874.222.26.147.465.36.616.641.151.28.227.62.227 1.02Zm-.786 0c0-.26-.039-.478-.116-.655a.887.887 0 0 0-.325-.405.872.872 0 0 0-.49-.138.872.872 0 0 0-.49.138.897.897 0 0 0-.327.405 1.66 1.66 0 0 0-.114.655c0 .259.038.477.114.655a.898.898 0 0 0 .326.405c.14.092.304.138.491.138a.87.87 0 0 0 .49-.138.887.887 0 0 0 .325-.405c.077-.178.116-.396.116-.655Zm4.427-1.834v3.667h-.67l-1.595-2.308h-.026v2.308H58v-3.667h.68l1.584 2.307h.032v-2.307h.771Z" fill="#405C77"/></g><defs><clipPath id="a"><path fill="#fff" transform="translate(0 3.5)" d="M0 0h60v27.5H0z"/></clipPath></defs></svg>