<svg width="138" height="56" fill="none" xmlns="http://www.w3.org/2000/svg"><path d="M44.234 39.416 26.992 54.538a5.882 5.882 0 0 1-7.761 0L2.001 39.416A5.873 5.873 0 0 1 0 34.992V8.32A5.882 5.882 0 0 1 5.058 2.5L22.284.056a6.131 6.131 0 0 1 1.65 0L41.17 2.5a5.882 5.882 0 0 1 5.05 5.82v26.672a5.887 5.887 0 0 1-1.985 4.424Z" fill="#BBD1DC"/><path d="M38.028 24.524a14.922 14.922 0 1 1-29.845.009 14.922 14.922 0 0 1 29.845-.009Z" fill="#468B96"/><path d="M40.196 37.484 26.252 50.185a4.634 4.634 0 0 1-6.285 0l-13.945-12.7a5.04 5.04 0 0 1-1.62-3.719V11.351A4.888 4.888 0 0 1 8.497 6.46L22.44 4.405a4.55 4.55 0 0 1 1.314 0l13.95 2.054a4.883 4.883 0 0 1 4.09 4.892v22.415a5.023 5.023 0 0 1-1.599 3.718Z" fill="#325D9C"/><path d="M38.909 36.709 26.015 48.534a4.275 4.275 0 0 1-5.812 0L7.31 36.709a4.686 4.686 0 0 1-1.498-3.452V12.45a4.533 4.533 0 0 1 3.784-4.542l12.898-1.905a4.19 4.19 0 0 1 1.235 0l12.894 1.905a4.529 4.529 0 0 1 3.784 4.542v20.808a4.668 4.668 0 0 1-1.498 3.45Z" fill="#fff"/><path d="M31.04 21.42h-2.054V16.8a5.747 5.747 0 0 0-11.494 0v4.28h-2.054V16.8a7.801 7.801 0 1 1 15.602 0v4.618Z" fill="#BBD1DC"/><path d="M33.479 21.105H13V39.31h20.479V21.106Z" fill="#BBD1DC"/><path d="M32.598 21.986H13.88V38.43h18.718V21.986Z" fill="#325D9C"/><path d="M31.717 22.867H14.761V37.55h16.956V22.867Z" fill="#002E5D"/><path d="M24.995 29.868a1.756 1.756 0 1 0-2.529 1.575v2.054a.774.774 0 1 0 1.548 0v-2.054a1.756 1.756 0 0 0 .98-1.575Zm33.749-9.027a10.96 10.96 0 0 1-1.467-.696 4.332 4.332 0 0 1-1.1-.876 3.61 3.61 0 0 1-.709-1.235 5.295 5.295 0 0 1-.25-1.726 5.224 5.224 0 0 1 .438-2.159 4.38 4.38 0 0 1 1.187-1.572 5.253 5.253 0 0 1 1.844-.96 8.457 8.457 0 0 1 2.422-.323 11.49 11.49 0 0 1 2.29.218c.761.156 1.51.364 2.243.622a8.522 8.522 0 0 1-.784 2.755l-.731-.289a5.98 5.98 0 0 0-.793-.236 8.183 8.183 0 0 0-.946-.158c-.399-.042-.8-.063-1.2-.061a4.888 4.888 0 0 0-.828.074 2.29 2.29 0 0 0-.753.263c-.233.134-.423.33-.552.565a1.9 1.9 0 0 0-.219.972 1.674 1.674 0 0 0 .609 1.353c.198.157.416.286.648.386l.718.298 1.437.552a17.53 17.53 0 0 1 1.655.744c.474.238.9.558 1.262.946.354.399.626.863.801 1.367.209.638.306 1.308.29 1.98a5.505 5.505 0 0 1-.439 2.228 4.843 4.843 0 0 1-1.27 1.717 6.02 6.02 0 0 1-2.076 1.13 9.04 9.04 0 0 1-2.842.407c-.526 0-.999 0-1.415-.048a10.8 10.8 0 0 1-2.304-.433c-.367-.11-.748-.246-1.147-.408.048-.49.136-.974.263-1.45.127-.503.28-1.011.438-1.523a12.54 12.54 0 0 0 1.892.613 8.475 8.475 0 0 0 1.896.201 4.296 4.296 0 0 0 2.374-.56 1.919 1.919 0 0 0 .876-1.717 2.046 2.046 0 0 0-.202-.96 2.188 2.188 0 0 0-.53-.647 3.124 3.124 0 0 0-.731-.439 18.74 18.74 0 0 0-.84-.346l-1.455-.569Zm10.046-9.258h9.785a7.687 7.687 0 0 1 0 2.974H72.29v3.74h4.989a7.875 7.875 0 0 1 0 3H72.29v4.542h6.451a7.4 7.4 0 0 1 .145 1.463 7.626 7.626 0 0 1-.145 1.51h-9.95V11.584Zm24.124 13.98c.412.89.685 1.836.81 2.808a11.46 11.46 0 0 1-2.238.6c-.712.1-1.43.148-2.15.144a8.922 8.922 0 0 1-3.565-.648 7.128 7.128 0 0 1-2.558-1.857 7.884 7.884 0 0 1-1.572-2.82 11.495 11.495 0 0 1-.526-3.548 11.112 11.112 0 0 1 .552-3.56 8.268 8.268 0 0 1 1.594-2.843 7.164 7.164 0 0 1 2.567-1.87 8.432 8.432 0 0 1 3.464-.675c.71-.004 1.42.045 2.124.145.72.118 1.424.32 2.098.6a5.462 5.462 0 0 1-.29 1.401c-.163.456-.338.916-.525 1.38a10.371 10.371 0 0 0-1.489-.407 8.65 8.65 0 0 0-1.533-.119c-1.538 0-2.718.5-3.538 1.498-.82.999-1.232 2.482-1.235 4.45 0 3.898 1.654 5.848 4.962 5.851a8.628 8.628 0 0 0 1.559-.122 10.138 10.138 0 0 0 1.489-.408Zm3.333-13.98c.306-.048.6-.079.876-.096.276-.018.582-.022.876-.022a10.553 10.553 0 0 1 1.712.118v8.943c0 .978.035 1.815.105 2.51.05.595.199 1.178.438 1.725.188.425.507.778.911 1.008.473.233.997.345 1.524.324a3.092 3.092 0 0 0 1.511-.324 2.19 2.19 0 0 0 .898-1.008c.24-.547.388-1.13.438-1.725.07-.698.105-1.535.105-2.51v-8.943c.32-.048.626-.079.911-.096.285-.018.57-.022.841-.022a10.575 10.575 0 0 1 1.774.118v9.688a16.77 16.77 0 0 1-.285 3.201 6.306 6.306 0 0 1-1.033 2.484 4.887 4.887 0 0 1-1.989 1.594 9.158 9.158 0 0 1-6.333 0 4.858 4.858 0 0 1-1.988-1.594 6.236 6.236 0 0 1-1.034-2.484 16.413 16.413 0 0 1-.289-3.201l.03-9.688Zm16.358 0c.7-.079 1.362-.149 1.975-.206a22.648 22.648 0 0 1 2.054-.083 14.47 14.47 0 0 1 2.602.24 7.087 7.087 0 0 1 2.312.85 4.871 4.871 0 0 1 1.669 1.656c.446.802.665 1.71.635 2.628a5.38 5.38 0 0 1-.241 1.69 5.005 5.005 0 0 1-.613 1.284c-.229.355-.5.681-.806.972a6.11 6.11 0 0 1-.815.635l-.407.263 4.196 7.292-1.008.092a11.696 11.696 0 0 1-2.877-.092l-4.502-8.01.573-.29c.224-.114.495-.254.815-.438.331-.184.641-.404.924-.657a3.56 3.56 0 0 0 .753-.959c.216-.404.324-.856.316-1.314 0-1.007-.292-1.747-.876-2.22a3.418 3.418 0 0 0-2.23-.705 5.871 5.871 0 0 0-.959.07v14.545c-.289.03-.573.06-.876.083-.302.022-.569.035-.841.035h-.875c-.32 0-.614-.048-.933-.096l.035-17.265Zm14.483 0h9.784a7.665 7.665 0 0 1 0 2.974h-6.285v3.74h4.989c.094.49.143.99.144 1.49a7.819 7.819 0 0 1-.144 1.51h-4.989v4.542h6.452c.096.481.144.971.144 1.463a7.663 7.663 0 0 1-.144 1.51h-9.951V11.584ZM56.45 39.442a4.962 4.962 0 0 1-.667-.315 2.041 2.041 0 0 1-.508-.403 1.786 1.786 0 0 1-.324-.565 2.485 2.485 0 0 1-.114-.793c-.006-.338.06-.674.193-.985.123-.278.309-.524.543-.718a2.33 2.33 0 0 1 .845-.438c.36-.105.734-.155 1.108-.15.352-.002.702.03 1.047.097.348.074.69.171 1.025.289a3.943 3.943 0 0 1-.35 1.248l-.338-.131a2.646 2.646 0 0 0-.359-.11 5.082 5.082 0 0 0-.985-.1 2.274 2.274 0 0 0-.381.035c-.121.02-.238.06-.346.118a.745.745 0 0 0-.25.258.876.876 0 0 0-.1.438.788.788 0 0 0 .078.368c.05.097.12.183.206.25.091.071.191.13.298.175l.329.14.656.25c.259.1.512.214.758.341.217.111.413.26.578.438.163.181.288.393.368.622.095.293.14.6.132.907.003.35-.067.698-.206 1.02a2.163 2.163 0 0 1-.587.789 2.73 2.73 0 0 1-.946.516c-.426.131-.87.193-1.314.184h-.648a4.186 4.186 0 0 1-.543-.07 4.105 4.105 0 0 1-.508-.127 4.714 4.714 0 0 1-.526-.184c.024-.224.063-.447.118-.665.056-.228.126-.46.21-.697.284.119.577.212.876.28.288.066.582.098.876.097.38.02.757-.07 1.087-.258a.876.876 0 0 0 .394-.784.96.96 0 0 0-.092-.438.92.92 0 0 0-.241-.294 1.417 1.417 0 0 0-.333-.206l-.386-.157-.674-.272Zm5.74 0a4.77 4.77 0 0 1-.67-.315 2.104 2.104 0 0 1-.503-.403 1.705 1.705 0 0 1-.324-.565 2.482 2.482 0 0 1-.114-.793 2.329 2.329 0 0 1 .193-.985c.121-.28.308-.526.543-.719.247-.202.533-.35.84-.438.36-.103.734-.154 1.109-.148.351-.003.702.03 1.047.096.349.074.692.17 1.029.289a3.851 3.851 0 0 1-.355 1.248l-.333-.131a2.725 2.725 0 0 0-.363-.11 5.11 5.11 0 0 0-.99-.1 2.243 2.243 0 0 0-.377.035 1.067 1.067 0 0 0-.346.118.798.798 0 0 0-.254.258.877.877 0 0 0-.096.438.846.846 0 0 0 .074.368.82.82 0 0 0 .21.25c.092.071.192.13.298.175l.329.14.657.25c.258.1.51.215.758.341.215.111.41.26.573.438.163.181.288.392.368.622.095.293.14.6.132.907a2.5 2.5 0 0 1-.202 1.02 2.215 2.215 0 0 1-.587.788c-.28.233-.603.409-.95.517-.426.131-.87.193-1.314.184h-.648a4.085 4.085 0 0 1-.543-.07 4.381 4.381 0 0 1-.513-.127 5.448 5.448 0 0 1-.525-.184c.023-.224.064-.447.122-.665.057-.228.127-.438.206-.697.284.119.577.212.876.28.288.065.581.098.876.097.38.02.756-.07 1.086-.259a.876.876 0 0 0 .394-.783.959.959 0 0 0-.092-.438.985.985 0 0 0-.24-.294 1.447 1.447 0 0 0-.338-.206l-.38-.157-.662-.272Zm4.613-4.236c.257-.042.518-.064.78-.065.268 0 .536.023.8.065v6.504h2.73c.022.117.036.236.043.355v.67a2.669 2.669 0 0 1-.044.355h-4.31v-7.884Zm7.822.001h4.471a3.504 3.504 0 0 1 0 1.358h-2.89v1.712h2.281c.05.23.078.465.084.7 0 .233-.022.465-.066.693h-2.3v2.085h2.953a3.503 3.503 0 0 1 0 1.358h-4.533v-7.906Zm5.82-.001a3.433 3.433 0 0 1 1.327 0l3.066 5.024v-5.024c.25-.042.504-.064.758-.065.22-.001.44.02.656.065v7.884a3.557 3.557 0 0 1-.635.07 3.827 3.827 0 0 1-.67-.07l-3.065-5.01v5.01a3.9 3.9 0 0 1-.714.07 3.744 3.744 0 0 1-.701-.07l-.022-7.884Zm12.535 6.4c.095.203.174.414.236.63.062.215.109.433.14.653a5.429 5.429 0 0 1-1.029.276 7.588 7.588 0 0 1-.981.061 4.103 4.103 0 0 1-1.634-.297 3.301 3.301 0 0 1-1.178-.846 3.63 3.63 0 0 1-.718-1.287 5.223 5.223 0 0 1-.24-1.625 5.125 5.125 0 0 1 .249-1.63c.155-.481.404-.928.731-1.313a3.346 3.346 0 0 1 1.174-.854 3.881 3.881 0 0 1 1.585-.307c.324-.002.648.02.968.066a4.2 4.2 0 0 1 .964.276 2.675 2.675 0 0 1-.132.64 8.23 8.23 0 0 1-.245.63 4.593 4.593 0 0 0-.679-.184 3.626 3.626 0 0 0-.7-.057 1.992 1.992 0 0 0-1.621.683 3.18 3.18 0 0 0-.56 2.037c0 1.782.753 2.676 2.268 2.676.24.003.478-.016.714-.057a4.53 4.53 0 0 0 .688-.171Zm1.646-6.399.907-.092c.28-.027.591-.04.937-.04a6.3 6.3 0 0 1 1.187.11c.374.066.733.198 1.06.39.316.188.579.455.762.775a2.3 2.3 0 0 1 .293 1.209 2.446 2.446 0 0 1-.39 1.361c-.106.16-.229.306-.367.438a3.097 3.097 0 0 1-.373.29l-.188.122 1.918 3.333-.46.044h-.494c-.275 0-.549-.022-.82-.066l-2.062-3.666.263-.131c.1-.053.227-.118.372-.201.157-.082.304-.182.438-.298.14-.125.257-.273.346-.438.1-.187.15-.397.144-.609a1.232 1.232 0 0 0-.394-1.012 1.563 1.563 0 0 0-1.02-.324 2.675 2.675 0 0 0-.438.03v6.658c-.132.017-.263.03-.394.04h-.78a3.675 3.675 0 0 1-.438-.044l-.009-7.88Zm8.203 5.084-2.457-5.067c.307-.044.615-.066.925-.066.278 0 .556.022.832.066l1.554 3.574 1.538-3.574a5.264 5.264 0 0 1 1.677 0l-2.457 5.067v2.83c-.144 0-.285.034-.416.043-.131.009-.263 0-.394 0h-.39c-.136 0-.271 0-.412-.044v-2.829Zm4.949-5.119a37.46 37.46 0 0 1 1.016-.07 19.91 19.91 0 0 1 1.043-.027c.373 0 .746.037 1.112.11.364.068.711.208 1.021.411.314.212.568.5.74.837.209.433.308.912.289 1.393.02.48-.079.956-.289 1.388a2.323 2.323 0 0 1-.732.84 2.71 2.71 0 0 1-1.002.439 5.57 5.57 0 0 1-1.095.11h-.504v2.53a3.319 3.319 0 0 1-.403.044h-.771a3.57 3.57 0 0 1-.438-.043l.013-7.962Zm1.599 4.06c.083.006.167.006.25 0h.276c.181 0 .363-.023.538-.07.17-.045.328-.126.464-.237.143-.117.254-.268.325-.438.088-.209.13-.435.122-.661a1.702 1.702 0 0 0-.122-.688 1.158 1.158 0 0 0-.325-.438 1.172 1.172 0 0 0-.464-.24 2.013 2.013 0 0 0-.538-.07h-.224l-.302.025v2.816Zm6.329-2.667h-1.963a3.526 3.526 0 0 1 0-1.358h5.536a3.464 3.464 0 0 1 0 1.358h-1.962v6.525a3.862 3.862 0 0 1-.779.04h-.399a3.65 3.65 0 0 1-.438-.044l.005-6.521Zm4.681-1.359a5.041 5.041 0 0 1 1.612 0v7.884a4.672 4.672 0 0 1-1.612 0v-7.884Zm6.364 8.016a3.536 3.536 0 0 1-1.537-.307 2.822 2.822 0 0 1-1.065-.85 3.599 3.599 0 0 1-.617-1.283 6.04 6.04 0 0 1-.206-1.616 6.178 6.178 0 0 1 .206-1.63c.118-.473.328-.92.617-1.313a2.887 2.887 0 0 1 1.065-.854 3.996 3.996 0 0 1 3.065 0 2.85 2.85 0 0 1 1.065.854c.291.393.502.84.622 1.314.137.532.204 1.08.201 1.63a6.248 6.248 0 0 1-.201 1.615c-.12.465-.332.901-.622 1.283a2.798 2.798 0 0 1-1.06.854 3.504 3.504 0 0 1-1.533.303Zm0-1.314c1.13 0 1.699-.907 1.699-2.72a4.057 4.057 0 0 0-.411-2.04 1.395 1.395 0 0 0-1.279-.68c-1.148 0-1.722.907-1.722 2.72 0 1.813.571 2.712 1.713 2.698v.022Zm4.748-6.702a3.424 3.424 0 0 1 1.327 0l3.065 5.024v-5.024c.251-.042.504-.064.758-.065.221-.001.441.02.657.065v7.884a3.504 3.504 0 0 1-.635.07 3.79 3.79 0 0 1-.67-.07l-3.066-5.01v5.01a3.857 3.857 0 0 1-.714.07 3.753 3.753 0 0 1-.701-.07l-.021-7.884Z" fill="#BBD1DC"/></svg>