<svg width="60" height="19" fill="none" xmlns="http://www.w3.org/2000/svg"><g clip-path="url(#a)"><path d="M.753 6.836.515 8.352H2.93C1.03 10.07 0 12.744 0 14.472c0 1.277.404 2.269 1.222 2.949.652.551 1.553.854 2.674.928l.11.01v-.534l-.083-.018c-1.02-.23-2.72-.91-2.738-2.977-.009-1.544 1.58-4.429 3.418-5.642l-.487 2.803H5.67l.873-5.146-5.789-.01Z" fill="#0096FF"/><path d="M2.26 0C1.461 0 .81.652.8 1.443l-.056 4.06.836.01h.827l.046-3.85H9.29l.046 10.429H7.15l-.285 1.663h2.674c.799 0 1.46-.726 1.47-1.525L10.98 0H2.26Z" fill="#0096FF"/><path d="M25.48 10.75c0 .524-.166.928-.497 1.213-.34.294-.726.44-1.204.44-.367 0-.67-.082-.9-.256a1.472 1.472 0 0 1-.505-.69 2.794 2.794 0 0 1-.166-.983V6.248h-1.69v4.621c0 .947.248 1.7.744 2.233.496.542 1.148.818 1.939.818.597 0 1.111-.138 1.543-.413.285-.184.533-.396.726-.616v.891h1.69V6.248h-1.69v4.502h.01Zm6.652-4.659c-.478 0-.937.157-1.37.45a2.593 2.593 0 0 0-.707.708V6.248h-1.709v7.534h1.71V9.638c0-.358.091-.67.256-.928a1.82 1.82 0 0 1 .662-.606 1.706 1.706 0 0 1 1.204-.166c.128.028.23.065.312.11l.147.074.441-1.82-.092-.045c-.211-.12-.487-.166-.854-.166Zm7.369.423c-.386-.285-.92-.432-1.599-.432-.542 0-1.038.138-1.48.414a3.27 3.27 0 0 0-.762.625v-.892h-1.69v7.535h1.68v-4.53c0-.285.074-.551.23-.79.157-.24.368-.432.635-.58.266-.146.57-.22.928-.22.367-.027.643.028.845.175.202.138.34.33.423.588.092.266.128.56.128.9v4.466h1.682V9.215c0-.56-.074-1.084-.22-1.552a2.188 2.188 0 0 0-.8-1.149Zm2.196-.266h1.69v7.534h-1.69V6.248Zm8.867 0h1.69v7.534h-1.69V6.248Zm9.215 1.415a2.24 2.24 0 0 0-.799-1.149c-.386-.285-.919-.432-1.599-.432-.542 0-1.038.138-1.479.414-.303.183-.56.395-.763.625v-.892h-1.69v7.535h1.681v-4.53c0-.285.074-.551.23-.79a1.75 1.75 0 0 1 .634-.58c.266-.146.57-.22.928-.22.358-.027.643.028.845.175.202.138.34.33.423.588.092.266.129.56.129.9v4.466H60V9.215c0-.57-.074-1.084-.22-1.552ZM17.77 4.392h-1.69v1.856h-1.507v1.654h1.507v3.886l.009-.009c.083 1.443.735 2.003 2.26 2.003.496 0 .772-.027.781-.027l.12-.01v-1.552l-.147.009s-.322.027-.46.027c-.726 0-.873-.165-.873-.992V7.892h1.691V6.238h-1.69V4.392Zm29.863 0h-1.691v1.856h-1.507v1.654h1.507v3.886l.009-.009c.083 1.443.735 2.003 2.26 2.003.497 0 .772-.027.781-.027l.12-.01v-1.552l-.147.009s-.322.027-.46.027c-.726 0-.873-.165-.873-.992V7.892h1.691V6.238h-1.69V4.392Zm-5.091.598a.864.864 0 1 0 0-1.728.864.864 0 0 0 0 1.727Zm8.867 0a.864.864 0 1 0 0-1.728.864.864 0 0 0 0 1.727Z" fill="#003C46"/></g><defs><clipPath id="a"><path fill="#fff" d="M0 0h60v18.377H0z"/></clipPath></defs></svg>