<svg width="60" height="12" fill="none" xmlns="http://www.w3.org/2000/svg"><g clip-path="url(#a)"><path d="M4.74 0v7.189a.606.606 0 0 1-1.213 0V.055L2.315 1.262V7.19a1.816 1.816 0 0 0 3.632 0V1.212L4.739 0Zm3.63 3.632v3.532a4.188 4.188 0 0 1-8.371 0V3.582L1.212 2.37v4.794a2.973 2.973 0 0 0 5.947 0V2.42L8.37 3.632Z" fill="url(#b)"/><path d="M13.614 8.371c-.164-.1-.299-.23-.404-.399a1.8 1.8 0 0 1-.23-.579 3.377 3.377 0 0 1-.07-.683V3.527h-1.436V6.71c0 .409.05.798.155 1.172.1.374.26.704.479.988.23.29.523.522.858.679.349.17.773.254 1.267.254.479 0 .893-.08 1.242-.244a2.36 2.36 0 0 0 .858-.659c.225-.28.39-.609.5-.983.109-.374.164-.778.164-1.207V3.527H15.56V6.71c0 .224-.025.449-.07.668a1.67 1.67 0 0 1-.22.584 1.167 1.167 0 0 1-1.037.559c-.245 0-.449-.05-.619-.15Zm9.284 1.377h1.153v-6.22h-1.437v3.65l-2.898-3.65h-1.123v6.22h1.437V6.191l2.868 3.557Zm4.27 0v-6.22h-1.436v6.22h1.437Zm1.542-1.99c.15.389.36.733.634 1.037.273.305.603.553.973.729a2.77 2.77 0 0 0 1.237.279c.26 0 .519-.035.788-.1.27-.065.524-.154.764-.28a2.44 2.44 0 0 0 .633-.453 1.87 1.87 0 0 0 .42-.614l-1.173-.693a1.247 1.247 0 0 1-.604.663 1.785 1.785 0 0 1-.394.15c-.131.03-.265.044-.4.045a1.46 1.46 0 0 1-.678-.155c-.2-.1-.374-.24-.518-.414a2.13 2.13 0 0 1-.44-1.312c0-.23.03-.454.095-.678.065-.22.165-.42.3-.594a1.497 1.497 0 0 1 1.227-.599c.273-.004.544.057.788.18.28.145.5.383.624.673l1.102-.773a2.405 2.405 0 0 0-.958-.978 2.944 2.944 0 0 0-1.521-.379c-.494 0-.928.09-1.317.27A3.096 3.096 0 0 0 28.7 5.468a3.152 3.152 0 0 0-.214 1.117c0 .4.075.788.224 1.173Zm10.572-4.23v2.409h-2.48v-2.41h-1.437v6.221h1.437v-2.55h2.48v2.55h1.436v-6.22h-1.436Zm4.55 4.958V7.164h2.454V5.997H43.83V4.789h2.859V3.527h-4.295v6.221h4.375V8.486H43.83Zm4.03-.728c.15.389.36.733.634 1.037.273.305.603.553.973.729a2.77 2.77 0 0 0 1.237.279c.26 0 .519-.035.788-.1.27-.065.524-.154.763-.28a2.44 2.44 0 0 0 .634-.453c.18-.175.322-.383.42-.614l-1.173-.693a1.247 1.247 0 0 1-.604.663 1.785 1.785 0 0 1-.394.15c-.131.03-.265.044-.4.045a1.531 1.531 0 0 1-1.192-.569 2.13 2.13 0 0 1-.444-1.312c0-.23.03-.454.095-.678a1.8 1.8 0 0 1 .3-.594 1.497 1.497 0 0 1 1.227-.599c.273-.004.544.057.788.18.13.07.244.155.354.264.11.11.2.245.27.41l1.102-.774a2.405 2.405 0 0 0-.958-.978 2.944 2.944 0 0 0-1.521-.379c-.494 0-.928.09-1.317.27a3.096 3.096 0 0 0-1.801 2.823c0 .4.07.788.22 1.173Zm6.655 1.99v-6.22h1.437V6.21l2.275-2.684h1.611l-2.33 2.779L60 9.748h-1.636l-1.761-2.504-.649.673v1.831h-1.437Z" fill="#000"/></g><defs><linearGradient id="b" x1="4.24" y1=".544" x2="4.24" y2="11.255" gradientUnits="userSpaceOnUse"><stop stop-color="#1FB1FF"/><stop offset="1" stop-color="#3082ED"/></linearGradient><clipPath id="a"><path fill="#fff" d="M0 0h60v11.207H0z"/></clipPath></defs></svg>