<svg width="16" height="16" fill="none" xmlns="http://www.w3.org/2000/svg"><g clip-path="url(#a)"><path d="M.348 11.916c.327 1.158 1.326 1.37 1.393 1.411 1.644.448 10.863.45 12.532 0 1.144-.33 1.354-1.345 1.393-1.411.435-2.316.464-5.336-.02-7.964l.02.131c-.327-1.159-1.326-1.37-1.393-1.411-1.622-.44-10.865-.458-12.532 0C.597 3.003.387 4.016.348 4.083c-.466 2.434-.49 5.227 0 7.833Zm6.057-1.482V5.572l4.178 2.434-4.178 2.428Z" fill="#002E5D"/></g><defs><clipPath id="a"><path fill="#fff" d="M0 0h16v16H0z"/></clipPath></defs></svg>