<svg width="129" height="112" fill="none" xmlns="http://www.w3.org/2000/svg"><g clip-path="url(#a)"><path d="M68.094 83.276H28.838c-.492 0-.962-.195-1.31-.541a1.843 1.843 0 0 1-.543-1.305V19.337a1.847 1.847 0 0 1 1.853-1.843h39.256c.49 0 .961.195 1.308.54.347.346.543.815.543 1.303V81.43c0 .49-.195.958-.542 1.304a1.856 1.856 0 0 1-1.309.542Zm-39.256-64.69a.757.757 0 0 0-.755.752V81.43a.75.75 0 0 0 .755.752h39.256a.756.756 0 0 0 .755-.752V19.337a.753.753 0 0 0-.755-.752H28.838Z" fill="#fff"/><path d="M84.03 59.889v47.139a4.953 4.953 0 0 1-1.464 3.516A4.995 4.995 0 0 1 79.035 112H5a4.998 4.998 0 0 1-4.619-3.068A4.95 4.95 0 0 1 0 107.028v-47.14h84.03Z" fill="#F70431"/><path d="M49.246 76.517H34.782v35.481h14.464V76.517Z" fill="#fff"/><path d="m34.782 76.517 9.505 15.05 4.96-6.37 6.313 3.265-4.877-8.44-15.901-3.505Z" fill="#003889" style="mix-blend-mode:multiply" opacity=".2"/><path d="m34.782 76.517 10.063 11.34 3.44-7.119s7.99 5.474 7.99 5.206c0-.268-7.034-9.42-7.034-9.42l-14.46-.007Z" fill="#fff"/><path d="m107.597 55.227-.24-.135a1.945 1.945 0 0 0 .038-2.306l-4.648-6.23a1.884 1.884 0 0 0-2.205-.588c-.019-.09-.041-.179-.062-.268-2.252-9.687-7.134-25.978-13.79-21.944-9.286 5.63-8.533 16.04-8.525 16.144l-10.49-14.073c-1.195-1.604-3.545-1.842-5.244-.538L44.049 39.386l22.768 30.507 8.658 11.6L98.24 112l18.372-14.09c1.701-1.299 2.112-3.66.916-5.262l-10.498-14.07c.085.032 9.768 3.608 17.643-3.924 5.637-5.398-8.493-14.588-17.077-19.427Z" fill="#003889" style="mix-blend-mode:multiply" opacity=".2"/><path d="m98.243 112-24.95-30.506-9.488-11.601-24.95-30.507 17.364-14.09a3.76 3.76 0 0 1 5.276.53l22.58 27.614 9.49 11.6 22.58 27.613c.312.38.546.819.688 1.29a3.74 3.74 0 0 1-.293 2.848 3.73 3.73 0 0 1-.935 1.124L98.243 112Z" fill="#F70431"/><path d="m73.291 81.494-9.489-11.601L84.075 53.44l9.49 11.6L73.29 81.493Z" fill="#fff"/><path d="m104.635 78.578-10.6-12.956-5.218-6.383-5.218-6.382-10.6-12.952s-1.56-10.49 7.368-16.148c6.36-4.033 12.415 12.257 15.361 21.945a131.71 131.71 0 0 1 1.809 6.46 143.55 143.55 0 0 1 5.991 3.068c8.93 4.836 23.719 14.026 18.468 19.424-7.356 7.566-17.361 3.924-17.361 3.924Z" fill="#C9DAF4"/><path d="M94.042 65.623 83.606 52.855l11.915-7.05c.068-.038.138-.07.21-.098a131.831 131.831 0 0 1 1.81 6.46c.743.357 3.049 1.476 5.99 3.068-.042.066-.09.129-.143.187l-9.346 10.2Z" fill="#C9DAF4"/><path d="m98.057 46.56 5.095 6.228a1.963 1.963 0 0 1-.284 2.765l-10.26 8.326-7.583-9.273 10.26-8.325a1.978 1.978 0 0 1 2.775.282l-.003-.004Z" fill="#fff"/><path d="M93.603 63.076 86.02 53.8l-.99.802 7.585 9.276.99-.802Z" fill="#003889" style="mix-blend-mode:multiply" opacity=".2"/><path d="M84.03 94.623v12.405a4.95 4.95 0 0 1-.664 2.478 4.975 4.975 0 0 1-1.817 1.818L51.961 59.889h3.658l28.41 34.734Z" fill="#D5062C"/><path d="M75.992 18.914a.468.468 0 0 1-.835-.087c-1.194-3.182-5.01-14.75 1.189-18.245 6.876-3.881 3.206 12.737-.354 18.332Zm37.214-.736a.53.53 0 0 1-.743-.59c.805-3.757 4.236-17.1 12.287-16.675 8.924.47-4.729 14.092-11.544 17.265Zm4.31 24.391a.312.312 0 0 1-.277-.166.3.3 0 0 1-.035-.164.301.301 0 0 1 .055-.158c1.332-1.819 6.369-8.147 10.575-6.01 4.669 2.375-5.911 6.42-10.318 6.498Z" fill="#002E5D"/><path d="M40.264 21.074a3.04 3.04 0 0 0 3.046-3.034 3.04 3.04 0 0 0-3.046-3.034 3.04 3.04 0 0 0-3.046 3.034 3.04 3.04 0 0 0 3.046 3.034Z" fill="#fff"/></g><defs><clipPath id="a"><path fill="#fff" d="M0 0h129v112H0z"/></clipPath></defs></svg>