<svg width="731" height="535" fill="none" xmlns="http://www.w3.org/2000/svg"><g clip-path="url(#a)"><path d="M450.631 519.029h-33.117l44.397-408.345h33.123l-44.403 408.345Z" fill="#325D9C"/><path d="M609.523 397.967H284.951l26.362-242.458h324.572l-26.362 242.458Z" fill="#fff"/><g clip-path="url(#b)"><path d="M463.933 323.657h-59.341a2.808 2.808 0 0 1-1.979-.816 2.78 2.78 0 0 1-.821-1.968v-93.694a2.777 2.777 0 0 1 .822-1.966 2.81 2.81 0 0 1 1.978-.816h59.341a2.81 2.81 0 0 1 1.978.816c.525.522.82 1.229.82 1.966v93.694c0 .738-.295 1.446-.819 1.968a2.806 2.806 0 0 1-1.979.816Zm-59.341-97.612c-.302 0-.593.119-.807.332a1.13 1.13 0 0 0-.334.802v93.694c0 .301.12.59.334.802.214.213.505.333.807.333h59.341a1.144 1.144 0 0 0 1.142-1.135v-93.694a1.144 1.144 0 0 0-1.142-1.134h-59.341Z" fill="#fff"/><path d="M488.021 288.368v71.13c0 .986-.195 1.961-.575 2.872a7.517 7.517 0 0 1-4.086 4.06 7.593 7.593 0 0 1-2.889.571H368.558a7.582 7.582 0 0 1-5.343-2.194 7.467 7.467 0 0 1-2.215-5.309v-71.13h127.021Z" fill="#F70431"/><path d="M435.442 313.459h-21.865v53.539h21.865v-53.539Z" fill="#fff"/><path d="m413.577 313.459 14.369 22.711 7.496-9.613 9.545 4.926-7.373-12.735-24.037-5.289Z" fill="#003889" style="mix-blend-mode:multiply" opacity=".2"/><path d="m413.577 313.459 15.212 17.11 5.199-10.74s12.078 8.26 12.078 7.855c0-.404-10.631-14.215-10.631-14.215l-21.858-.01Z" fill="#fff"/><path d="m523.646 281.333-.362-.203a2.929 2.929 0 0 0 .057-3.481l-7.026-9.399a2.856 2.856 0 0 0-3.332-.887c-.03-.135-.062-.27-.094-.405-3.404-14.617-10.785-39.198-20.845-33.112-14.038 8.495-12.899 24.203-12.887 24.36L463.3 236.971c-1.807-2.42-5.359-2.78-7.928-.812l-27.786 21.272 34.417 46.032 13.087 17.505L509.504 367l27.772-21.26c2.571-1.961 3.192-5.524 1.385-7.941l-15.87-21.23c.128.049 14.766 5.443 26.669-5.922 8.522-8.145-12.838-22.012-25.814-29.314Z" fill="#003889" style="mix-blend-mode:multiply" opacity=".2"/><path d="m509.506 367-37.715-46.031-14.341-17.505-37.716-46.032 26.248-21.262a5.693 5.693 0 0 1 7.975.801l34.133 41.667 14.344 17.502 34.134 41.667a5.624 5.624 0 0 1 1.249 4.139 5.635 5.635 0 0 1-2.065 3.802L509.506 367Z" fill="#F70431"/><path d="m471.789 320.969-14.344-17.505 30.646-24.826 14.344 17.502-30.646 24.829Z" fill="#fff"/><path d="m519.17 316.569-16.023-19.549-7.888-9.632-7.888-9.63-16.023-19.544s-2.359-15.829 11.137-24.366c9.614-6.085 18.766 18.496 23.221 33.113a197.795 197.795 0 0 1 2.733 9.748c1.124.539 4.61 2.228 9.057 4.63 13.498 7.296 35.854 21.164 27.917 29.308-11.12 11.417-26.243 5.922-26.243 5.922Z" fill="#C9DAF4"/><path d="m503.157 297.02-15.776-19.264 18.012-10.638c.102-.058.208-.108.318-.149a199.887 199.887 0 0 1 2.734 9.747c1.124.54 4.609 2.228 9.056 4.63-.064.1-.137.194-.217.282l-14.127 15.392Z" fill="#C9DAF4"/><path d="m509.226 268.254 7.701 9.399c.499.61.735 1.392.655 2.174a2.96 2.96 0 0 1-1.084 1.998l-15.508 12.563-11.464-13.991 15.508-12.563a2.994 2.994 0 0 1 4.197.426l-.005-.006Z" fill="#fff"/><path d="m502.493 293.178-11.465-13.997-1.494 1.21 11.464 13.997 1.495-1.21Z" fill="#003889" style="mix-blend-mode:multiply" opacity=".2"/><path d="M488.021 340.78v18.718a7.46 7.46 0 0 1-1.003 3.74 7.525 7.525 0 0 1-2.746 2.743l-44.726-77.613h5.529l42.946 52.412Z" fill="#D5062C"/><path d="M475.871 226.54a.709.709 0 0 1-1.262-.13c-1.804-4.802-7.572-22.258 1.797-27.532 10.395-5.856 4.847 19.22-.535 27.662Zm56.255-1.111a.81.81 0 0 1-.839-.1.796.796 0 0 1-.285-.79c1.217-5.669 6.404-25.804 18.574-25.162 13.488.709-7.149 21.265-17.45 26.052Zm6.515 36.804a.477.477 0 0 1-.42-.25.47.47 0 0 1 .03-.486c2.014-2.745 9.629-12.294 15.986-9.068 7.057 3.583-8.936 9.686-15.596 9.804Z" fill="#002E5D"/><path d="M421.864 229.799c2.544 0 4.605-2.049 4.605-4.578 0-2.529-2.061-4.578-4.605-4.578-2.543 0-4.604 2.049-4.604 4.578 0 2.529 2.061 4.578 4.604 4.578Z" fill="#fff"/></g><path d="M648.219 170.532H295.713l3.745-34.486H651.97l-3.751 34.486Zm-26.034 239.417H269.68l1.911-17.558h352.506l-1.912 17.558Z" fill="#DAE3FE"/><path d="m309.674 170.532-.914 8.456 321.74 26.036 3.751-34.492H309.674Z" fill="#F70431" style="mix-blend-mode:multiply" opacity=".2"/><path d="m429.374 409.949-.875 8.033 32.292 7.609 1.7-15.642h-33.117Z" fill="#F70431" style="mix-blend-mode:multiply" opacity=".25"/><path d="M622.185 410.506H501.242a.56.56 0 0 1-.394-.951.561.561 0 0 1 .394-.163h120.453l1.789-16.444H403.106a.56.56 0 0 1-.557-.557.56.56 0 0 1 .557-.557h220.991a.565.565 0 0 1 .412.184.544.544 0 0 1 .139.434l-1.906 17.558a.554.554 0 0 1-.557.496Z" fill="#002E5D"/><path d="m651.034 144.669-307.579 25.863h304.764l2.815-25.863Z" fill="#325D9C"/><path d="M501.789 117.535H453.78a.55.55 0 0 1-.413-.184.558.558 0 0 1-.139-.434l1.371-12.623a.558.558 0 0 1 .557-.501h48.004a.55.55 0 0 1 .229.05.556.556 0 0 1 .328.568l-1.376 12.628a.555.555 0 0 1-.552.496Zm-47.374-1.114h46.884l1.254-11.508h-46.895l-1.243 11.508Zm104.334 54.674H295.713a.558.558 0 0 1-.557-.618l3.751-34.492a.554.554 0 0 1 .557-.502h176.253a.556.556 0 0 1 0 1.114H299.96l-3.628 33.373h262.417a.558.558 0 0 1 0 1.114v.011Z" fill="#002E5D"/><path d="M653.118 365.046c-1.026-4.958-10.277-49.749-10.277-49.749l-12.819-6.412 7.674-36.252a17.677 17.677 0 0 0-2.586-13.476 17.693 17.693 0 0 0-11.447-7.575l-22.634-4.217-.234 12.957 1.427.312.713 19.118 6.521 2.284-.451 8.74 1.978 13.714-32.326-15.04-20.655-35.478v-11.219l-3.867-6.01-3.25 4.768-8.689-8.189-4.871 5.498 12.418 16.216 16.72 43.015 29.567 22.632-.658 50.864 8.979 147.265-1.577 6.044-8.026 5.047v4.567l19.027-.066-1.8-12.812-.1-2.841 9.893-81.808.969 26.967 1.968 55.08h.63l-1.422 5.532-7.964 5.258-.162 4.546h19.05l-1.794-12.863.496-2.501 6.381-123.596 3.266-2.022 2.352-4.908 2.012-1.838 6.209-16.048s.384-.546-.641-5.504Zm-14.574 16.65-5.161-15.213v-26.66l10.321 27.685-5.16 14.188Z" fill="#fff"/><path d="M613.53 532.276h-5.044l-.351-7.755-7.68 9.921 13.527.14-.452-2.306Zm21.034 0h-5.044l-.352-7.755-7.68 9.921 13.527.14-.451-2.306Zm-12.796-95.756 2.942 82.47h5.328l-4.224-113.692-4.046 31.222Z" fill="#002E5D"/><path d="m602.199 260.634 7.541 1.727-.39 19.674-6.437-2.356-.714-19.045Z" fill="#FDC8AA"/><path d="m633.354 328.577 2.704-7.537 13.766 45.087-4.292 17.976-3.639-3.939-1.733-2.974 3.539-9.715-10.345-28.665v-10.233Z" fill="#325D9C"/><path d="m600.767 247.326 16.463 2.869a17.424 17.424 0 0 1 14.235 19.858l-9.698 61.492h-6.883l-5.746-40.034 10.745.05-1.867-32.537-17.249-3.632v-8.066Z" fill="#002E5D"/><path d="m550.606 241.238-8.599-7.704-4.688 5.348 3.807 5.102 8.616 11.046 3.891 9.994 4.509-2.869-7.536-20.917Z" fill="#FDC8AA"/><path d="m595.377 371.569 8.99 147.421h4.982l13.839-151.136-27.811 3.715Z" fill="#002E5D"/><path d="m623.189 367.853-2.631-29.668h-8.717l-4.882-30.704-33.033-16.182-15.768-29.1-.016-.045-4.509 2.869 12.796 32.877 29.634 22.861-.691 50.724.006.084 27.811-3.716Z" fill="#325D9C"/><path d="M625.262 332.108h-10.377a.558.558 0 0 1-.558-.48l-5.885-40.803a.56.56 0 0 1 .479-.635.56.56 0 0 1 .635.479l5.813 40.319h9.442l12.339-58.595a17.132 17.132 0 0 0-2.556-13.106 17.154 17.154 0 0 0-11.188-7.299l-22.082-3.977v11.882l8.361 1.843a.561.561 0 0 1 .44.557l-.14 23.302a.555.555 0 0 1-.951.393.557.557 0 0 1-.163-.393l.134-22.839-8.361-1.844a.56.56 0 0 1-.44-.557v-13.029a.554.554 0 0 1 .201-.429.55.55 0 0 1 .457-.123l22.739 4.1a18.254 18.254 0 0 1 14.636 21.725l-12.434 59.046a.558.558 0 0 1-.541.463Z" fill="#002E5D"/><path d="M609.439 282.593a.575.575 0 0 1-.184-.033l-6.527-2.279a.56.56 0 0 1-.373-.507l-.713-19.117a.554.554 0 0 1 .557-.557.554.554 0 0 1 .557.557l.703 18.739 6.164 2.155a.56.56 0 0 1 .182.958.563.563 0 0 1-.366.129v-.045Zm-7.669 18.705a.549.549 0 0 1-.245-.055l-23.141-11.308a.56.56 0 0 1-.239-.223l-20.655-35.473a.612.612 0 0 1-.073-.278V242.92l-3.299-5.169-2.842 4.178a.556.556 0 0 1-.644.212.569.569 0 0 1-.204-.123l-8.198-7.899-4.186 4.724 10.305 13.53a.562.562 0 0 1 .041.619.552.552 0 0 1-.339.26.568.568 0 0 1-.424-.055.58.58 0 0 1-.164-.144l-10.589-13.926a.558.558 0 0 1 0-.708l4.882-5.498a.56.56 0 0 1 .803-.027l8.137 7.837 2.948-4.328a.586.586 0 0 1 .206-.177.587.587 0 0 1 .262-.068.56.56 0 0 1 .463.262l3.84 6.016a.51.51 0 0 1 .089.295v11.052l20.494 35.205 23.018 11.258a.543.543 0 0 1 .283.32.541.541 0 0 1-.027.426.554.554 0 0 1-.502.306Z" fill="#002E5D"/><path d="M612.048 519.548h-7.68a.556.556 0 0 1-.558-.524l-8.995-147.477.791-50.518-29.461-22.549a.507.507 0 0 1-.178-.24l-15.873-41.07a.55.55 0 0 1 .01-.43.562.562 0 0 1 .528-.331.576.576 0 0 1 .389.175c.05.054.089.116.115.185l15.823 40.925 29.539 22.622a.553.553 0 0 1 .217.451l-.786 50.78 8.962 146.909h6.688L625.29 402.73a.56.56 0 0 1 .999-.279.563.563 0 0 1 .116.413l-13.806 116.188a.556.556 0 0 1-.551.496Z" fill="#002E5D"/><path d="M633.527 519.547h-8.817a.558.558 0 0 1-.557-.557l-2.943-82.041a.558.558 0 0 1 1.115 0l2.92 81.506h7.753l6.571-127.262c.138-2.7-.24-5.402-1.115-7.96l-5.64-16.633a.494.494 0 0 1-.034-.178v-38.325a.556.556 0 0 1 1.115 0v38.213l5.607 16.544a22.264 22.264 0 0 1 1.159 8.356l-6.577 127.808a.56.56 0 0 1-.557.529Zm-38.155-147.443a.558.558 0 1 1-.072-1.114l30.441-4.011a.576.576 0 0 1 .416.112.57.57 0 0 1 .214.373.559.559 0 0 1-.485.629l-30.441 4.011h-.073Z" fill="#002E5D"/><path d="M647.539 387.188a.552.552 0 0 1-.418-.195l-5.501-6.328a.551.551 0 0 1-.123-.4.556.556 0 0 1 .964-.329l4.888 5.626 5.373-14.138a7.185 7.185 0 0 0 .318-4.011l-10.696-51.738-12.551-6.294a.551.551 0 0 1-.279-.325.552.552 0 0 1 .034-.427.556.556 0 0 1 .747-.246l12.819 6.418a.562.562 0 0 1 .295.384l10.751 52.005a8.253 8.253 0 0 1-.368 4.629l-5.701 15.007a.561.561 0 0 1-.424.351l-.128.011Z" fill="#002E5D"/><path d="M640.16 377.746a.557.557 0 0 1-.524-.746l3.472-9.47-10.277-28.197a.562.562 0 0 1 .337-.716.562.562 0 0 1 .716.337l10.339 28.409c.05.121.05.258 0 .379l-3.539 9.681a.559.559 0 0 1-.524.323Zm-.257 18.394a.57.57 0 0 1-.262-.065.572.572 0 0 1-.285-.381.552.552 0 0 1 .081-.419.568.568 0 0 1 .154-.155l3.154-2.128 2.286-4.774a.56.56 0 0 1 1.008.485l-2.352 4.908a.55.55 0 0 1-.195.222l-3.277 2.229a.56.56 0 0 1-.312.078Zm-86.197-130.593a.553.553 0 0 1-.538-.403.56.56 0 0 1 .242-.627l4.944-3.098a.565.565 0 0 1 .62.02.564.564 0 0 1 .219.58.54.54 0 0 1-.09.198.534.534 0 0 1-.158.149l-4.95 3.098a.557.557 0 0 1-.289.083Zm60.142 269.452h-19.1a.558.558 0 0 1-.558-.557v-4.562a.558.558 0 0 1 .262-.474l7.853-4.941.976-3.052a.558.558 0 1 1 1.064.339L603.308 525a.556.556 0 0 1-.234.301l-7.769 4.885v3.699h17.896l-1.8-12.222a.564.564 0 0 1 1.115-.161l1.872 12.862a.553.553 0 0 1-.317.583.573.573 0 0 1-.223.052Zm21.034 0h-19.1a.558.558 0 0 1-.557-.557v-4.562a.546.546 0 0 1 .262-.474l7.852-4.941.976-3.052a.558.558 0 1 1 1.064.339L624.343 525a.561.561 0 0 1-.234.301l-7.77 4.885v3.699h17.913l-1.778-12.222a.564.564 0 0 1 1.115-.161l1.867 12.862a.56.56 0 0 1-.574.635Z" fill="#002E5D"/><path d="M154.6 157.292a16.17 16.17 0 0 1-14.932-9.972 16.148 16.148 0 0 1 3.503-17.605 16.17 16.17 0 0 1 24.868 2.448 16.147 16.147 0 0 1-2.01 20.397 16.165 16.165 0 0 1-11.429 4.732Zm0-28.716a12.588 12.588 0 0 0-11.615 7.778 12.577 12.577 0 0 0 9.186 17.139c2.442.483 4.971.232 7.27-.721a12.58 12.58 0 0 0 7.761-11.623 12.587 12.587 0 0 0-3.697-8.893 12.6 12.6 0 0 0-8.905-3.68Z" fill="#DAE3FE"/><path d="m363.925 98.395-9.653-25.133-15.494 15.486 25.147 9.647Z" fill="#DCE5FE"/><path d="M16.163 344.162A16.166 16.166 0 0 1 1.23 334.19a16.148 16.148 0 0 1 3.503-17.605 16.165 16.165 0 0 1 17.614-3.502 16.16 16.16 0 0 1 9.978 14.925c0 4.284-1.703 8.393-4.734 11.422a16.166 16.166 0 0 1-11.43 4.732Zm0-28.721c-2.49 0-4.923.738-6.992 2.12a12.576 12.576 0 0 0 4.54 22.795 12.587 12.587 0 0 0 12.918-5.353 12.575 12.575 0 0 0 2.119-6.99 12.586 12.586 0 0 0-3.692-8.887 12.6 12.6 0 0 0-8.893-3.685Z" fill="#DAE3FE"/></g><defs><clipPath id="a"><path fill="#fff" d="M0 0h783v535H0z"/></clipPath><clipPath id="b"><path fill="#fff" transform="translate(361 198)" d="M0 0h195v169H0z"/></clipPath></defs></svg>