<svg width="167" height="143" viewBox="0 0 167 143" fill="none" xmlns="http://www.w3.org/2000/svg">
<g clip-path="url(#clip0_1403_16638)">
<path d="M153.826 10.6601L14.875 2.3728L9.96225 85.3848L148.914 93.6721L153.826 10.6601Z" fill="#F3F8FF"/>
<path d="M20.271 18.4914L4.71191 20.4397L5.11022 23.6454L20.6693 21.6971L20.271 18.4914Z" fill="#BBD1DC"/>
<path d="M20.936 23.8343L5.37695 25.7826L5.77526 28.9883L21.3343 27.04L20.936 23.8343Z" fill="#BBD1DC"/>
<path d="M117.649 -0.00142106L113.062 15.0505L116.14 15.9955L120.727 0.943626L117.649 -0.00142106Z" fill="#BBD1DC"/>
<path d="M122.779 1.57359L118.192 16.6255L121.27 17.5705L125.857 2.51864L122.779 1.57359Z" fill="#BBD1DC"/>
<path d="M159.01 71.124C161.439 71.124 163.409 69.147 163.409 66.7083C163.409 64.2695 161.439 62.2925 159.01 62.2925C156.581 62.2925 154.611 64.2695 154.611 66.7083C154.611 69.147 156.581 71.124 159.01 71.124Z" fill="#F0F0FF"/>
<path d="M122.414 102.322C108.313 121.788 77.4458 123.379 53.4711 105.875C29.4964 88.3707 21.4914 58.4032 35.5927 38.9344C49.6939 19.4656 80.5604 17.8779 104.535 35.3819C104.783 35.5634 105.03 35.7456 105.274 35.9285C105.889 36.3924 106.494 36.8627 107.087 37.3393C112.752 41.9054 117.418 47.1897 120.989 52.8362C121.406 53.495 121.808 54.1584 122.194 54.8264C131.359 70.659 132.091 88.9638 122.414 102.322Z" fill="#6FA0FF"/>
<path d="M109.521 92.919C119.435 79.2355 113.81 58.1669 96.9563 45.8611C80.1028 33.5553 58.4034 34.6721 48.4892 48.3557C38.5751 62.0392 44.2005 83.1078 61.054 95.4136C77.9074 107.719 99.6069 106.603 109.521 92.919Z" fill="white"/>
<path d="M103.003 51.5164C102.95 51.5164 102.898 51.5058 102.849 51.485C102.8 51.4643 102.756 51.4339 102.719 51.3957C99.2359 47.7981 95.1988 44.7871 90.7623 42.4784C90.669 42.4301 90.5986 42.3465 90.5666 42.2461C90.5347 42.1457 90.5438 42.0367 90.5919 41.943C90.64 41.8493 90.7233 41.7787 90.8233 41.7466C90.9233 41.7145 91.0319 41.7236 91.1252 41.7719C95.6379 44.1198 99.7445 47.1819 103.287 50.8406C103.341 50.8967 103.378 50.9674 103.392 51.0441C103.406 51.1208 103.398 51.2 103.368 51.2718C103.337 51.3437 103.287 51.405 103.222 51.4481C103.157 51.4912 103.081 51.5142 103.003 51.5143V51.5164Z" fill="#002E5D"/>
<path d="M46.4848 77.8423C46.4074 77.8424 46.3316 77.8197 46.2669 77.777C46.2022 77.7342 46.1514 77.6733 46.1208 77.6019C43.9463 72.5274 42.9556 67.1976 43.2499 62.1887C43.5559 56.9987 45.2546 52.1339 48.1666 48.1175C51.5746 43.4137 56.5018 40.001 62.4219 38.2502C68.1616 36.5555 74.6081 36.4676 81.0621 38.0044C81.1127 38.0165 81.1604 38.0384 81.2025 38.0689C81.2447 38.0995 81.2804 38.138 81.3077 38.1824C81.335 38.2269 81.3533 38.2762 81.3616 38.3277C81.3698 38.3792 81.3679 38.4319 81.3559 38.4827C81.344 38.5334 81.3221 38.5813 81.2917 38.6236C81.2613 38.6659 81.2228 38.7018 81.1786 38.7292C81.1344 38.7566 81.0852 38.775 81.0339 38.7833C80.9826 38.7916 80.9301 38.7897 80.8796 38.7776C67.7448 35.6488 55.452 39.4068 48.805 48.5846C43.1951 56.3283 42.4628 67.0588 46.8457 77.2884C46.8712 77.3488 46.8815 77.4146 46.8756 77.4799C46.8698 77.5453 46.8479 77.6081 46.812 77.6629C46.7761 77.7178 46.7272 77.7628 46.6698 77.7941C46.6123 77.8254 46.5481 77.842 46.4827 77.8423H46.4848Z" fill="#002E5D"/>
<path d="M93.2523 81.0399C97.8809 74.6516 95.2545 64.8155 87.3862 59.0703C79.5179 53.3251 69.3872 53.8465 64.7587 60.2348C60.1301 66.6232 62.7565 76.4593 70.6248 82.2045C78.4931 87.9497 88.6238 87.4283 93.2523 81.0399Z" fill="#BBD1DC"/>
<g style="mix-blend-mode:multiply" opacity="0.38">
<path d="M122.195 54.8306L78.7605 69.3848C78.6184 69.4371 78.4673 69.4602 78.3161 69.4528C78.165 69.4454 78.0169 69.4076 77.8805 69.3417C77.7442 69.2758 77.6224 69.1831 77.5224 69.069C77.4224 68.955 77.3462 68.822 77.2983 68.6779C77.2505 68.5338 77.2319 68.3815 77.2437 68.23C77.2555 68.0786 77.2975 67.9311 77.3671 67.7962C77.4367 67.6613 77.5326 67.5418 77.6491 67.4448C77.7655 67.3478 77.9002 67.2753 78.0451 67.2315L120.987 52.8404C121.406 53.4992 121.809 54.1626 122.195 54.8306Z" fill="#5C76CC"/>
</g>
<g style="mix-blend-mode:multiply" opacity="0.38">
<path d="M107.092 37.3435L72.4383 69.3096C72.2159 69.5027 71.9273 69.6013 71.6337 69.5844C71.3401 69.5675 71.0646 69.4364 70.8656 69.219C70.6666 69.0017 70.5598 68.715 70.5678 68.4199C70.5758 68.1248 70.698 67.8444 70.9085 67.6382L105.275 35.9327C105.89 36.3966 106.496 36.8669 107.092 37.3435Z" fill="#5C76CC"/>
</g>
<path d="M119.47 46.0733L122.581 35.992L130.416 31.8178L130.109 36.1933L134.05 29.8827L136.208 28.7335L133.891 38.3921L119.47 46.0733Z" fill="#325D9C"/>
<path d="M119.47 46.0733L129.53 49.1385L133.05 47.2638L130.405 44.4601L135.434 45.9938L143.156 41.88L133.891 38.3921L119.47 46.0733Z" fill="#325D9C"/>
<path d="M78.025 69.2852C77.7728 69.2847 77.528 69.1995 77.3295 69.0432C77.131 68.8869 76.9903 68.6685 76.9297 68.4227C76.869 68.1769 76.892 67.9178 76.9949 67.6866C77.0977 67.4554 77.2747 67.2654 77.4975 67.1467L134.121 36.9855C134.384 36.861 134.685 36.8431 134.961 36.9357C135.237 37.0283 135.467 37.2241 135.603 37.4825C135.739 37.7409 135.77 38.0419 135.691 38.323C135.611 38.6041 135.427 38.8435 135.176 38.9916L78.5536 69.1528C78.3909 69.2398 78.2094 69.2853 78.025 69.2852Z" fill="#002E5D"/>
<path d="M92.983 26.5039L89.7471 16.4618L93.7617 8.52218L96.0196 12.278L95.6239 4.84047L96.7286 2.65326L100.372 11.8904L92.983 26.5039Z" fill="#325D9C"/>
<path d="M92.9834 26.5039L102.968 23.1982L104.772 19.6309L101.001 18.8672L105.994 17.2149L109.949 9.38965L100.372 11.8904L92.9834 26.5039Z" fill="#325D9C"/>
<path d="M71.7464 69.6411C71.5534 69.6405 71.3637 69.5902 71.1954 69.4952C71.0271 69.4003 70.8858 69.2636 70.785 69.0984C70.6841 68.9331 70.627 68.7447 70.6191 68.5511C70.6112 68.3574 70.6528 68.1649 70.7399 67.992L99.7547 10.6098C99.8193 10.4724 99.9106 10.3494 100.023 10.2481C100.136 10.1467 100.268 10.0691 100.411 10.0199C100.554 9.97061 100.706 9.95067 100.857 9.96125C101.008 9.97183 101.155 10.0127 101.29 10.0815C101.425 10.1502 101.544 10.2454 101.642 10.3615C101.74 10.4776 101.813 10.6121 101.858 10.7572C101.903 10.9023 101.918 11.0549 101.903 11.206C101.888 11.3572 101.843 11.5038 101.771 11.6372L72.7562 69.0194C72.6615 69.2065 72.517 69.3636 72.3388 69.4734C72.1605 69.5831 71.9555 69.6412 71.7464 69.6411Z" fill="#002E5D"/>
<path d="M62.5562 69.4748C62.4588 69.4746 62.3648 69.4383 62.2924 69.3728C62.2199 69.3073 62.1741 69.2173 62.1637 69.12C61.7945 65.7116 62.5858 62.5531 64.4364 59.9952C66.2606 57.4775 68.9553 55.7659 72.2282 55.0467C72.3307 55.0242 72.438 55.0435 72.5263 55.1005C72.6147 55.1574 72.6769 55.2472 72.6993 55.3501C72.7217 55.4531 72.7024 55.5608 72.6457 55.6494C72.589 55.7381 72.4996 55.8006 72.397 55.8231C69.3162 56.4999 66.785 58.1045 65.0758 60.4633C63.338 62.8613 62.6037 65.826 62.9508 69.0342C62.9618 69.1391 62.931 69.244 62.8652 69.3262C62.7994 69.4083 62.7038 69.461 62.5995 69.4727L62.5562 69.4748Z" fill="#002E5D"/>
<g style="mix-blend-mode:multiply" opacity="0.24">
<path d="M143.157 73.5908V110.743L134.674 109.316L134.421 104.051L120.729 105.612L125.095 109.58C126.572 110.905 128.112 113.13 128.225 115.115C128.234 115.308 128.222 115.501 128.189 115.691L128.251 115.626C128.251 115.626 127.847 117.888 126.014 119.276C125.822 119.445 125.617 119.598 125.401 119.734C125.154 119.883 124.88 119.983 124.596 120.029C123.752 120.317 122.38 119.991 120.83 119.372C118.257 118.393 115.094 116.512 111.994 114.427C111.621 114.179 111.409 114.03 111.409 114.03C109.523 112.739 107.674 111.382 106.015 110.124C106.437 110.47 113.16 116.104 114.307 120.557C114.307 120.557 115.3 122.819 113.252 124.3C112.645 124.788 111.818 125.007 110.831 125.013C109.184 125.061 107.626 124.506 107.626 124.506L107.597 124.498C105.935 124.03 104.09 123.28 102.216 122.38C101.714 122.144 101.195 121.888 100.668 121.614C98.0299 120.264 95.4059 118.707 93.2187 117.33L93.0731 117.411C95.7741 119.53 101.323 124.236 102.615 128.067C102.615 128.067 103.765 130.388 101.778 131.929C101.006 132.588 99.9923 132.835 98.8233 132.777C98.1538 132.759 97.4899 132.649 96.8503 132.449C96.8503 132.449 96.8007 132.438 96.7015 132.409C92.0528 131.127 86.0958 126.784 82.614 124.013C84.4815 125.536 91.041 131.137 91.922 135.334C91.922 135.334 92.7661 137.752 90.2338 139.041C90.2338 139.041 88.5162 140.341 86.4355 139.646C83.7229 138.829 80.5334 135.496 73.0001 131.12C71.6232 133.916 69.8897 136.299 69.1828 136.409C67.693 136.639 65.0268 136.401 64.5657 132.739C64.5132 132.321 64.5898 131.897 64.7852 131.525C65.1703 130.783 65.93 129.374 66.8859 127.867C66.5788 127.718 66.2697 127.568 65.9532 127.418C65.049 128.925 64.0258 130.357 62.8934 131.7C62.8934 131.7 59.9297 134.951 56.7971 133.245C53.7226 131.566 54.8115 127.973 55.0995 127.178C55.1352 127.08 55.1797 126.987 55.2324 126.897C55.4656 126.505 56.2063 125.243 57.2371 123.72L55.4055 123.02C54.2808 124.838 53.3206 126.07 53.3206 126.07C53.3206 126.07 51.2716 128.41 47.5177 127.164C43.7637 125.919 44.8958 120.999 44.8958 120.999C44.8958 120.999 45.2914 120.3 45.9509 119.244C45.5594 119.077 45.1754 118.909 44.7976 118.743C43.8955 119.995 43.215 120.787 43.215 120.787C43.215 120.787 41.07 123.026 37.3751 121.634C33.6802 120.242 35.0107 115.405 35.0107 115.405C35.0107 115.405 35.2692 114.991 35.7197 114.323C34.538 113.687 33.4477 113.076 32.4489 112.488C30.8294 111.568 29.4799 110.733 28.6169 110.081L28.8542 113.695L15.9326 119.42V77.6474L26.5383 78.2406L26.876 83.3765L58.3471 81.8503L58.385 81.8566L71.1294 73.8174L96.6224 70.3221L126.165 78.1887L133.157 77.8508L133.047 75.4676L143.157 73.5908Z" fill="#325D9C"/>
</g>
<path d="M156.859 77.4452L134.431 80.4946V114.383L166.604 121.412L156.859 77.4452Z" fill="#002E5D"/>
<path d="M27.91 78.1104L28.5356 113.63L0.396484 124.502L4.6432 75.6753L27.91 78.1104Z" fill="#6FA0FF"/>
<path d="M124.849 114.18L101.059 90.6659L74.0735 86.2522L59.5154 83.2516H28L28.4706 110.003C33.2543 113.576 41.2603 118.5 54.5312 124.168C81.9518 135.887 82.2019 145.426 88.7866 141.824C94.6392 138.627 84.1284 128.705 81.7176 126.54C86.5467 130.777 96.3833 138.542 100.48 135.381C104.936 131.943 96.0878 123.579 92.4826 120.46L92.6324 120.384C98.8754 124.748 108.811 130.862 112.31 128.311C117.561 124.483 105.74 113.785 105.74 113.785C112.118 119.135 121.434 126.128 124.667 124.336C126.167 123.505 127.727 121.333 127.709 119.86C127.694 117.874 126.261 115.578 124.849 114.18Z" fill="white"/>
<path d="M57.791 84.2599C57.791 84.2599 58.1075 87.3316 65.5427 88.9044L74.1259 86.2565L101.113 90.6659L120.68 110.013L134.431 109.117V82.8798H127.431L98.2989 73.5919L72.6688 75.8511L57.791 84.2599Z" fill="#DCF3FF"/>
<path d="M59.252 86.3233L77.0449 79.8877L99.6744 78.9725L122.675 93.3774H134.427V109.108L120.676 110.004L101.06 90.6659L74.1255 86.2523L65.5424 88.9002C65.5424 88.9002 62.0395 88.3558 59.252 86.3233Z" fill="#BBD1DC"/>
<path d="M134.431 93.3806L161.541 98.5684L166.604 121.412L134.431 114.383V93.3806Z" fill="#325D9C"/>
<path d="M28.1579 92.1656L28.5356 113.63L0.396484 124.502L2.70923 97.9128L28.1579 92.1656Z" fill="#325D9C"/>
<path d="M28.1572 92.1656L57.7904 93.6729L100.943 99.8235C100.943 99.8235 123.24 125.049 127.71 120.372C127.71 120.372 126.951 123.703 123.845 124.595C120.739 125.486 110.962 117.963 110.962 117.963L105.741 113.785L99.4388 108.198L87.3612 106.099C87.3612 106.099 111.911 131.229 113.545 124.626C113.545 124.626 114.429 126.933 112.314 128.314C110.199 129.696 106.686 128.247 106.686 128.247C106.686 128.247 102.301 126.725 98.0345 123.88L92.6409 120.384L87.3655 116.451L74.8353 112.167C74.8353 112.167 100.876 138.712 101.505 131.569C101.505 131.569 102.542 133.944 100.482 135.382C98.4228 136.821 95.536 135.667 95.536 135.667C95.536 135.667 90.4273 134.153 81.7144 126.541L78.9976 123.999L75.6952 123.618C75.6952 123.618 88.5672 142.718 90.4664 138.296C90.4664 138.296 91.1933 140.751 88.6052 141.914C88.6052 141.914 86.8263 143.13 84.7805 142.338C82.7347 141.546 77.9741 137.328 77.2651 136.993C77.2651 136.993 74.0767 134.567 71.076 132.705C68.0753 130.843 64.5208 128.616 59.5207 126.393C54.5207 124.17 46.9156 120.975 41.7531 118.164C36.5905 115.353 30.7432 111.907 28.459 110.009L28.1572 92.1656Z" fill="#BBD1DC"/>
<path d="M34.5987 115.635C34.5987 115.635 33.0361 120.401 36.6603 121.972C40.2845 123.543 42.535 121.408 42.535 121.408C42.535 121.408 52.0973 111.239 48.4098 106.162C44.7222 101.084 34.5987 115.635 34.5987 115.635Z" fill="#BBD1DC"/>
<path d="M44.1967 121.7C44.1967 121.7 42.8336 126.558 46.5179 127.985C50.2023 129.412 52.362 127.173 52.362 127.173C52.362 127.173 61.4907 116.556 57.5974 111.603C53.7041 106.649 44.1967 121.7 44.1967 121.7Z" fill="#BBD1DC"/>
<path d="M54.2383 128.095C54.1806 128.182 54.1314 128.273 54.0916 128.37C53.7656 129.151 52.509 132.686 55.4959 134.513C58.542 136.372 61.6597 133.266 61.6597 133.266C61.6597 133.266 70.4665 124.1 66.8159 118.961C63.3584 114.094 55.1562 126.713 54.2383 128.095Z" fill="#BBD1DC"/>
<path d="M63.2752 134.382C63.2442 133.963 63.341 133.544 63.5527 133.181C64.8631 130.932 70.1111 122.387 73.0854 124.502C76.5028 126.939 69.2955 138.104 67.7108 138.272C66.2125 138.435 63.56 138.064 63.2752 134.382Z" fill="#BBD1DC"/>
<path d="M48.0066 105.645C49.8477 107.005 49.7137 110.996 47.2954 114.295C44.8772 117.594 41.0905 118.956 39.2494 117.59C37.4082 116.225 37.8778 112.454 40.295 109.155C42.7122 105.856 46.1644 104.285 48.0066 105.645Z" fill="white"/>
<path d="M57.0666 111.061C58.9943 112.295 59.1768 116.516 56.977 119.969C54.7771 123.422 51.0453 124.798 49.1187 123.564C47.1921 122.33 47.4094 118.53 49.604 115.077C51.7986 111.624 55.14 109.826 57.0666 111.061Z" fill="white"/>
<path d="M66.2433 118.317C68.171 119.552 68.3219 123.401 66.1273 126.851C63.9327 130.3 60.2188 132.054 58.2954 130.819C56.372 129.584 56.5766 125.974 58.7712 122.521C60.9658 119.068 64.3168 117.083 66.2433 118.317Z" fill="white"/>
<path d="M72.9799 124.423C74.1078 125.209 74.4802 127.632 73.0854 129.654C71.6906 131.676 69.0476 132.529 67.9155 131.743C66.7834 130.957 66.9965 128.793 68.3945 126.771C69.7925 124.749 71.852 123.636 72.9799 124.423Z" fill="white"/>
<path d="M166.605 121.806C166.576 121.806 166.548 121.803 166.52 121.796L150.433 118.282C150.331 118.259 150.241 118.197 150.185 118.108C150.128 118.02 150.109 117.912 150.131 117.809C150.154 117.706 150.216 117.616 150.304 117.559C150.392 117.502 150.5 117.483 150.602 117.506L166.085 120.887L162.273 103.7C162.251 103.598 162.271 103.491 162.328 103.404C162.384 103.316 162.472 103.254 162.574 103.231C162.675 103.209 162.782 103.227 162.87 103.283C162.958 103.338 163.021 103.426 163.045 103.528L166.99 121.322C167.003 121.38 167.003 121.44 166.989 121.498C166.976 121.556 166.95 121.61 166.913 121.657C166.876 121.703 166.829 121.741 166.775 121.767C166.722 121.792 166.663 121.806 166.604 121.806H166.605Z" fill="#002E5D"/>
<path d="M134.431 114.78C134.326 114.78 134.225 114.738 134.151 114.664C134.077 114.589 134.035 114.488 134.035 114.383V80.4978C134.035 80.4016 134.07 80.3087 134.133 80.2363C134.196 80.1639 134.283 80.1168 134.378 80.1037L139.476 79.411C139.528 79.4025 139.582 79.4045 139.633 79.417C139.685 79.4295 139.733 79.4522 139.776 79.4838C139.818 79.5154 139.854 79.5553 139.881 79.601C139.908 79.6467 139.925 79.6974 139.932 79.75C139.939 79.8027 139.936 79.8562 139.922 79.9074C139.908 79.9587 139.884 80.0066 139.851 80.0483C139.819 80.0901 139.778 80.1249 139.732 80.1506C139.685 80.1763 139.634 80.1924 139.582 80.198L134.826 80.8452V114.386C134.826 114.491 134.784 114.591 134.709 114.665C134.635 114.739 134.535 114.78 134.431 114.78Z" fill="#002E5D"/>
<path d="M65.5422 89.3016C65.5142 89.3017 65.4862 89.2985 65.4589 89.2921C57.7567 87.6175 57.4075 84.4284 57.3959 84.2928C57.3896 84.2169 57.4052 84.1409 57.4407 84.0737C57.4762 84.0064 57.5303 83.9509 57.5964 83.9136L72.4731 75.5048C72.5225 75.4771 72.5771 75.4602 72.6334 75.455L98.2636 73.1957C98.3155 73.1913 98.3679 73.197 98.4176 73.2127L115.299 78.5933C115.349 78.6091 115.394 78.6345 115.434 78.6682C115.474 78.7018 115.507 78.7429 115.531 78.7892C115.555 78.8356 115.569 78.8862 115.574 78.9381C115.578 78.9901 115.572 79.0425 115.556 79.0922C115.541 79.1419 115.515 79.1881 115.482 79.228C115.448 79.2679 115.407 79.3007 115.361 79.3247C115.315 79.3487 115.265 79.3634 115.213 79.3678C115.161 79.3723 115.109 79.3664 115.059 79.3506L98.2551 73.9944L72.7885 76.2388L58.2526 84.4548C58.5164 85.1422 59.7751 87.2214 65.5253 88.4935L76.8031 85.0098C76.8444 84.9969 76.8876 84.9911 76.9308 84.9929L98.6856 85.6199C98.7905 85.623 98.89 85.6678 98.962 85.7445C99.034 85.8212 99.0727 85.9234 99.0697 86.0288C99.0666 86.1341 99.0219 86.2339 98.9456 86.3062C98.8692 86.3785 98.7673 86.4174 98.6624 86.4143L76.973 85.7936L65.6583 89.2889C65.6204 89.2989 65.5813 89.3032 65.5422 89.3016Z" fill="#002E5D"/>
<path d="M62.5005 85.5818C62.4069 85.5821 62.3163 85.5491 62.2446 85.4887C62.173 85.4283 62.125 85.3443 62.1092 85.2517C62.0934 85.1591 62.1108 85.0639 62.1583 84.983C62.2058 84.902 62.2803 84.8406 62.3686 84.8096C63.5229 84.4008 65.3398 83.7505 65.8504 83.5481C65.9992 82.9857 66.4086 80.8303 66.7515 78.9068C66.7699 78.803 66.8287 78.7108 66.9149 78.6506C66.9576 78.6207 67.0057 78.5996 67.0565 78.5884C67.1073 78.5772 67.1598 78.5762 67.2109 78.5854C67.2621 78.5945 67.311 78.6137 67.3548 78.6419C67.3986 78.67 67.4365 78.7066 67.4662 78.7494C67.496 78.7923 67.517 78.8405 67.5281 78.8915C67.5393 78.9425 67.5403 78.9952 67.5312 79.0466C67.5312 79.0583 67.3149 80.2594 67.088 81.4542C66.5995 84.0322 66.5605 84.0597 66.3832 84.1762C66.3336 84.2101 66.2165 84.2822 62.6271 85.5595C62.5864 85.5737 62.5436 85.5812 62.5005 85.5818Z" fill="#002E5D"/>
<path d="M28.0872 88.5931C27.9834 88.5928 27.8839 88.5518 27.8099 88.4787C27.7359 88.4056 27.6934 88.3064 27.6915 88.2022L27.5206 78.4684L14.4249 77.0978C14.3205 77.0868 14.2247 77.0347 14.1586 76.9529C14.0925 76.871 14.0615 76.7662 14.0725 76.6614C14.0834 76.5566 14.1353 76.4605 14.2168 76.3941C14.2983 76.3278 14.4028 76.2967 14.5072 76.3076L27.9511 77.7153C28.0472 77.7251 28.1364 77.77 28.2017 77.8415C28.267 77.9129 28.304 78.006 28.3056 78.1029L28.4881 88.1885C28.4891 88.2406 28.4798 88.2925 28.4608 88.341C28.4418 88.3896 28.4135 88.4339 28.3775 88.4715C28.3414 88.5091 28.2983 88.5392 28.2507 88.56C28.203 88.5809 28.1518 88.5921 28.0998 88.5931H28.0872Z" fill="#002E5D"/>
<path d="M0.396124 124.9C0.341198 124.9 0.286832 124.889 0.236488 124.866C0.186143 124.844 0.140922 124.812 0.103704 124.772C0.0664857 124.731 0.0380856 124.683 0.0203118 124.631C0.00253786 124.579 -0.00422052 124.523 0.000466875 124.469L1.52718 106.917C1.53175 106.865 1.54648 106.814 1.57054 106.768C1.59459 106.722 1.6275 106.681 1.66737 106.647C1.70725 106.613 1.75331 106.588 1.80294 106.572C1.85256 106.557 1.90478 106.551 1.9566 106.556C2.00842 106.56 2.05883 106.575 2.10495 106.599C2.15108 106.623 2.19201 106.656 2.22542 106.696C2.25883 106.736 2.28406 106.783 2.29967 106.833C2.31527 106.882 2.32095 106.935 2.31638 106.987L0.844535 123.903L28.3928 113.258C28.4415 113.239 28.4936 113.229 28.5461 113.229C28.5986 113.23 28.6504 113.241 28.6985 113.262C28.7466 113.284 28.7901 113.314 28.8264 113.352C28.8626 113.39 28.891 113.435 28.9099 113.484C28.9287 113.533 28.9376 113.586 28.936 113.638C28.9345 113.691 28.9225 113.743 28.9008 113.791C28.8791 113.839 28.8481 113.882 28.8096 113.918C28.7711 113.954 28.7259 113.981 28.6766 114L0.538561 124.877C0.492863 124.894 0.444565 124.901 0.396124 124.9Z" fill="#002E5D"/>
<path d="M41.424 83.653H28.0001C27.8952 83.653 27.7946 83.6112 27.7204 83.5367C27.6462 83.4622 27.6045 83.3612 27.6045 83.2558C27.6045 83.1505 27.6462 83.0495 27.7204 82.975C27.7946 82.9005 27.8952 82.8586 28.0001 82.8586H41.424C41.5289 82.8586 41.6296 82.9005 41.7038 82.975C41.778 83.0495 41.8197 83.1505 41.8197 83.2558C41.8197 83.3612 41.778 83.4622 41.7038 83.5367C41.6296 83.6112 41.5289 83.653 41.424 83.653Z" fill="#002E5D"/>
<path d="M123.456 125.025C122.2 125.025 120.54 124.472 118.435 123.355C116.105 122.121 113.241 120.194 109.921 117.628C104.284 113.272 99.2047 108.508 99.1593 108.46C99.0838 108.388 99.0398 108.289 99.0367 108.184C99.0337 108.079 99.0719 107.978 99.1431 107.901C99.2143 107.825 99.3127 107.78 99.4169 107.776C99.5211 107.772 99.6227 107.809 99.6995 107.88C99.7502 107.927 104.805 112.668 110.413 117.001C120.128 124.51 123.432 124.604 124.535 123.992C125.979 123.192 127.384 121.149 127.372 119.861C127.356 117.987 125.983 115.799 124.629 114.459L100.924 91.0334L93.3532 89.7962C93.3019 89.7879 93.2527 89.7695 93.2084 89.7421C93.1642 89.7146 93.1258 89.6787 93.0953 89.6364C93.0649 89.594 93.0431 89.5461 93.0311 89.4953C93.0192 89.4445 93.0173 89.3918 93.0256 89.3403C93.0339 89.2887 93.0523 89.2394 93.0796 89.1949C93.1069 89.1505 93.1427 89.1119 93.1849 89.0814C93.227 89.0509 93.2748 89.029 93.3254 89.017C93.376 89.0049 93.4285 89.0031 93.4798 89.0114L101.176 90.2686C101.255 90.2819 101.328 90.3188 101.387 90.3746L125.177 113.896C126.646 115.349 128.137 117.755 128.156 119.857C128.171 121.552 126.423 123.846 124.909 124.685C124.461 124.92 123.961 125.037 123.456 125.025Z" fill="#002E5D"/>
<path d="M110.189 129.307C107.445 129.307 103.255 127.586 97.6858 124.158C92.135 120.741 87.1634 116.804 87.1138 116.765C87.0731 116.733 87.0391 116.693 87.0138 116.647C86.9886 116.601 86.9725 116.551 86.9665 116.499C86.9605 116.448 86.9648 116.395 86.979 116.345C86.9932 116.295 87.0172 116.248 87.0495 116.207C87.0818 116.166 87.1217 116.132 87.1672 116.107C87.2126 116.081 87.2625 116.065 87.3142 116.059C87.3658 116.053 87.4181 116.057 87.4681 116.072C87.5181 116.086 87.5648 116.11 87.6055 116.142C87.654 116.182 92.5939 120.092 98.1057 123.485C105.275 127.896 110.125 129.455 112.132 127.992C112.871 127.45 113.262 126.747 113.311 125.841C113.549 121.384 105.627 114.132 105.547 114.06C105.504 114.027 105.468 113.985 105.442 113.937C105.415 113.889 105.399 113.836 105.394 113.781C105.389 113.727 105.396 113.672 105.413 113.62C105.43 113.568 105.458 113.52 105.494 113.479C105.531 113.439 105.575 113.406 105.625 113.383C105.674 113.361 105.728 113.349 105.783 113.348C105.837 113.347 105.891 113.358 105.942 113.379C105.992 113.4 106.037 113.431 106.075 113.471C106.412 113.778 114.355 121.051 114.093 125.884C114.032 127.028 113.526 127.953 112.59 128.637C111.98 129.084 111.18 129.308 110.189 129.307Z" fill="#002E5D"/>
<path d="M98.137 136.521C95.5711 136.521 91.9985 134.882 87.4659 131.618C82.8035 128.262 78.7678 124.329 78.7277 124.29C78.6565 124.215 78.6169 124.116 78.6172 124.013C78.6175 123.91 78.6578 123.811 78.7294 123.737C78.8011 123.663 78.8985 123.62 79.0011 123.617C79.1038 123.614 79.2036 123.651 79.2795 123.721C79.3196 123.76 83.3183 127.655 87.9312 130.977C92.3003 134.122 95.7599 135.724 98.1275 135.726C99.0001 135.726 99.7239 135.507 100.292 135.07C101.007 134.518 101.357 133.818 101.363 132.93C101.395 127.985 90.9614 119.658 90.8559 119.574C90.7735 119.509 90.7203 119.413 90.708 119.309C90.6957 119.204 90.7254 119.099 90.7905 119.016C90.8555 118.933 90.9506 118.88 91.0549 118.867C91.1592 118.855 91.2641 118.885 91.3465 118.95C91.7896 119.301 102.189 127.604 102.155 132.931C102.147 134.065 101.683 134.995 100.774 135.697C100.066 136.247 99.1872 136.522 98.137 136.521Z" fill="#002E5D"/>
<path d="M35.3672 114.979C35.2958 114.979 35.2258 114.96 35.1646 114.923C32.7793 113.509 30.4667 111.975 28.2358 110.326C28.1909 110.297 28.1526 110.258 28.1231 110.213C28.0936 110.167 28.0737 110.117 28.0645 110.063C28.0552 110.01 28.0569 109.955 28.0694 109.903C28.0819 109.85 28.105 109.801 28.1372 109.758C28.1694 109.714 28.2101 109.678 28.2568 109.651C28.3034 109.624 28.3551 109.607 28.4086 109.601C28.462 109.594 28.5162 109.599 28.5678 109.615C28.6194 109.63 28.6673 109.656 28.7085 109.691C30.9162 111.325 33.2052 112.845 35.5666 114.245C35.6417 114.29 35.7002 114.358 35.733 114.439C35.7657 114.52 35.7709 114.61 35.7477 114.694C35.7245 114.779 35.6743 114.853 35.6047 114.906C35.5351 114.959 35.4502 114.987 35.3629 114.987L35.3672 114.979Z" fill="#002E5D"/>
<path d="M56.429 125.372C56.3738 125.372 56.3191 125.361 56.2686 125.338C55.6356 125.056 55.0468 124.801 54.4824 124.56C54.3967 124.526 54.3254 124.463 54.2809 124.382C54.2363 124.301 54.2213 124.207 54.2382 124.117C54.2552 124.026 54.3032 123.944 54.374 123.885C54.4447 123.826 54.5338 123.793 54.6258 123.793C54.6792 123.793 54.732 123.803 54.7809 123.825C55.3528 124.069 55.9415 124.327 56.5872 124.612C56.6702 124.648 56.738 124.713 56.7794 124.794C56.8208 124.875 56.8332 124.967 56.8145 125.057C56.7958 125.146 56.7473 125.226 56.6769 125.283C56.6065 125.34 56.5186 125.372 56.4279 125.372H56.429Z" fill="#002E5D"/>
<path d="M86.2534 143C84.2793 143 82.5121 141.605 79.6612 139.355C77.645 137.767 75.136 135.785 71.5772 133.483C71.5334 133.455 71.4957 133.418 71.4661 133.376C71.4364 133.333 71.4155 133.284 71.4045 133.233C71.3935 133.182 71.3926 133.13 71.4018 133.078C71.4111 133.027 71.4303 132.978 71.4585 132.934C71.4866 132.89 71.523 132.852 71.5658 132.823C71.6085 132.793 71.6566 132.772 71.7074 132.761C71.7582 132.75 71.8107 132.749 71.8618 132.758C71.913 132.767 71.9618 132.787 72.0055 132.815C75.5928 135.137 78.125 137.13 80.1497 138.73C84.178 141.908 85.6847 143.098 88.6495 141.478C89.5674 140.976 90.0654 140.293 90.1709 139.388C90.5402 136.221 85.9506 130.846 81.5435 126.871L81.4781 126.811C81.3325 126.682 81.2196 126.582 81.1436 126.516L81.1352 126.509L81.0951 126.473C81.0539 126.439 81.0286 126.415 81.0286 126.415C80.9632 126.342 80.9272 126.247 80.9275 126.149C80.9278 126.05 80.9645 125.956 81.0304 125.883C81.0963 125.81 81.1868 125.764 81.2843 125.755C81.3818 125.745 81.4795 125.772 81.5583 125.831C81.5583 125.831 81.5773 125.847 81.6047 125.87L81.6553 125.914C81.7334 125.982 81.8505 126.086 82.0046 126.223L82.032 126.248L82.0721 126.284C84.2804 128.273 91.4623 135.118 90.9527 139.481C90.8177 140.646 90.1678 141.552 89.023 142.177C87.9943 142.74 87.1048 143 86.2534 143Z" fill="#002E5D"/>
<path d="M65.8383 130.005C65.7718 130.005 65.7064 129.988 65.6484 129.955C65.3544 129.794 65.0554 129.632 64.7516 129.469C64.7057 129.444 64.6651 129.411 64.6321 129.371C64.5991 129.33 64.5743 129.284 64.5591 129.234C64.5286 129.133 64.5392 129.024 64.5885 128.931C64.6379 128.838 64.7221 128.769 64.8225 128.738C64.9229 128.708 65.0314 128.718 65.124 128.768C65.4314 128.933 65.7328 129.096 66.0282 129.258C66.105 129.301 66.1655 129.368 66.2003 129.449C66.2351 129.53 66.2423 129.62 66.2205 129.705C66.1988 129.791 66.1495 129.866 66.0804 129.921C66.0112 129.975 65.9261 130.004 65.8383 130.005Z" fill="#002E5D"/>
<path d="M45.3695 120.364C45.3096 120.364 45.2505 120.351 45.1965 120.325C44.8135 120.139 44.4347 119.95 44.0686 119.766C44.0219 119.743 43.9802 119.71 43.9459 119.671C43.9116 119.632 43.8853 119.586 43.8686 119.537C43.8519 119.487 43.8451 119.435 43.8485 119.383C43.852 119.33 43.8656 119.279 43.8887 119.233C43.9118 119.186 43.9438 119.144 43.983 119.109C44.0222 119.075 44.0677 119.049 44.117 119.032C44.1664 119.015 44.2185 119.008 44.2705 119.012C44.3224 119.015 44.3732 119.029 44.4199 119.052C44.7829 119.234 45.1585 119.421 45.5394 119.606C45.6197 119.645 45.6844 119.711 45.7229 119.792C45.7614 119.873 45.7715 119.965 45.7514 120.052C45.7313 120.139 45.6823 120.218 45.6124 120.273C45.5425 120.329 45.4557 120.36 45.3663 120.36L45.3695 120.364Z" fill="#002E5D"/>
<path d="M36.6611 122.374C36.6073 122.374 36.5541 122.362 36.5049 122.341C34.8727 121.635 33.9632 120.216 33.8746 118.236C33.8416 117.316 33.9588 116.396 34.2217 115.513C34.2339 115.476 34.2513 115.44 34.2734 115.407C34.5773 114.971 41.7529 104.731 46.3647 104.684C47.3354 104.672 48.1288 105.092 48.7334 105.924C48.7952 106.01 48.8208 106.116 48.8046 106.22C48.7884 106.324 48.7316 106.417 48.6468 106.479C48.6049 106.51 48.5573 106.532 48.5068 106.545C48.4562 106.557 48.4038 106.559 48.3525 106.551C48.2488 106.535 48.1558 106.478 48.094 106.393C47.6477 105.778 47.0927 105.479 46.3963 105.479H46.3721C42.3163 105.519 35.5047 115.04 34.9571 115.813C34.7957 116.343 33.7279 120.271 36.8172 121.608C36.9012 121.644 36.9702 121.708 37.0126 121.789C37.055 121.87 37.0681 121.963 37.0497 122.053C37.0313 122.143 36.9826 122.224 36.9118 122.281C36.8409 122.339 36.7524 122.371 36.6611 122.37V122.374Z" fill="#002E5D"/>
<path d="M46.0947 112.358C46.0633 112.357 46.0322 112.353 46.0018 112.345C45.909 112.327 45.7138 112.288 42.1887 109.857C42.1021 109.798 42.0426 109.706 42.0233 109.602C42.0041 109.499 42.0265 109.392 42.0859 109.305C42.1452 109.218 42.2365 109.158 42.3397 109.139C42.4429 109.119 42.5495 109.142 42.6361 109.202C44.0014 110.143 45.5376 111.18 46.0567 111.495C46.5114 111.093 47.8134 109.702 48.9582 108.423C48.9917 108.38 49.0335 108.345 49.0811 108.319C49.1287 108.294 49.1811 108.278 49.2349 108.273C49.2888 108.269 49.343 108.275 49.3943 108.292C49.4456 108.31 49.4928 108.337 49.533 108.374C49.5733 108.41 49.6057 108.454 49.6282 108.503C49.6508 108.553 49.6631 108.606 49.6643 108.66C49.6655 108.715 49.6556 108.768 49.6352 108.819C49.6149 108.869 49.5844 108.915 49.5458 108.953C46.7963 112.025 46.3405 112.358 46.0947 112.358Z" fill="#002E5D"/>
<path d="M48.9336 128.868C48.0589 128.859 47.1935 128.687 46.3814 128.361C44.7228 127.72 43.7563 126.332 43.5843 124.347C43.5124 123.422 43.5915 122.492 43.8186 121.593C43.829 121.556 43.8446 121.52 43.865 121.487C43.8734 121.474 44.6848 120.193 45.9076 118.521C45.9363 118.474 45.9744 118.434 46.0195 118.402C46.0646 118.371 46.1158 118.349 46.1697 118.339C46.2237 118.328 46.2792 118.329 46.3327 118.341C46.3863 118.353 46.4368 118.377 46.4809 118.409C46.525 118.442 46.5618 118.484 46.589 118.532C46.6162 118.58 46.6331 118.633 46.6388 118.688C46.6444 118.743 46.6386 118.798 46.6217 118.851C46.6048 118.903 46.5772 118.951 46.5407 118.993C45.4719 120.45 44.7228 121.608 44.5614 121.852C44.4231 122.393 43.5168 126.39 46.662 127.606C49.9718 128.887 51.9164 127.052 52.0746 126.895C52.3911 126.518 60.8888 116.409 57.291 111.835C57.2288 111.752 57.2015 111.648 57.2148 111.545C57.2282 111.442 57.2811 111.348 57.3623 111.284C57.4436 111.22 57.5466 111.19 57.6494 111.201C57.7522 111.212 57.8466 111.263 57.9124 111.343C61.9671 116.51 53.0506 126.996 52.6686 127.439L52.6539 127.454C52.5821 127.525 51.2559 128.868 48.9336 128.868Z" fill="#002E5D"/>
<path d="M55.5339 117.926C55.5067 117.925 55.4795 117.923 55.4527 117.918C55.3588 117.903 55.1626 117.872 51.5394 115.575C51.4576 115.515 51.4014 115.427 51.3823 115.328C51.3631 115.228 51.3823 115.125 51.436 115.04C51.4898 114.954 51.574 114.892 51.6716 114.866C51.7692 114.841 51.8728 114.854 51.9614 114.902C53.3626 115.791 54.9389 116.768 55.4717 117.065C55.9096 116.641 57.1524 115.19 58.2413 113.86C58.308 113.778 58.4042 113.727 58.5087 113.717C58.6132 113.707 58.7174 113.739 58.7984 113.806C58.8794 113.873 58.9306 113.969 58.9407 114.074C58.9508 114.179 58.9189 114.284 58.8522 114.365C56.1923 117.614 55.7798 117.926 55.5339 117.926Z" fill="#002E5D"/>
<path d="M57.5819 135.507C56.7745 135.509 55.9827 135.284 55.2956 134.858C55.2511 134.831 55.2125 134.795 55.1818 134.753C55.1511 134.711 55.129 134.663 55.1167 134.613C55.1044 134.562 55.1022 134.509 55.1101 134.458C55.1181 134.406 55.1361 134.357 55.1631 134.312C55.1902 134.267 55.2257 134.229 55.2676 134.198C55.3096 134.167 55.3572 134.145 55.4077 134.133C55.4582 134.12 55.5106 134.118 55.562 134.126C55.6133 134.134 55.6626 134.152 55.707 134.179C58.4503 135.854 61.2694 133.107 61.3887 132.99C61.4678 132.907 69.9211 124.007 66.5016 119.195C66.4406 119.109 66.4161 119.002 66.4334 118.898C66.4507 118.794 66.5084 118.702 66.5939 118.64C66.6794 118.579 66.7856 118.555 66.8892 118.572C66.9928 118.589 67.0853 118.647 67.1463 118.733C68.7373 120.973 68.3259 124.264 65.9551 128.249C64.8043 130.147 63.463 131.921 61.9521 133.545C61.3435 134.118 60.6489 134.592 59.8936 134.949C59.1733 135.304 58.384 135.494 57.5819 135.507Z" fill="#002E5D"/>
<path d="M65.0032 124.905C64.9705 124.904 64.9379 124.899 64.9061 124.891C64.8122 124.872 64.6181 124.831 61.1078 122.361C61.0219 122.3 60.9635 122.208 60.9454 122.104C60.9273 122 60.951 121.894 61.0113 121.807C61.0716 121.721 61.1636 121.662 61.2669 121.644C61.3703 121.626 61.4767 121.65 61.5626 121.71C62.9162 122.664 64.4398 123.713 64.961 124.041C65.3714 123.66 66.455 122.441 67.3982 121.326C67.4319 121.286 67.4731 121.253 67.5193 121.23C67.5656 121.206 67.6161 121.191 67.6679 121.187C67.7198 121.183 67.7719 121.189 67.8214 121.205C67.8709 121.221 67.9168 121.247 67.9564 121.28C67.996 121.314 68.0286 121.356 68.0524 121.402C68.0761 121.448 68.0905 121.499 68.0947 121.551C68.0989 121.603 68.0928 121.656 68.0769 121.705C68.061 121.755 68.0354 121.801 68.0018 121.841C65.6764 124.589 65.2448 124.905 65.0032 124.905Z" fill="#002E5D"/>
<path d="M67.1415 138.699C66.2057 138.699 64.9259 138.468 63.99 137.405C63.92 137.326 63.8842 137.223 63.8903 137.117C63.8965 137.012 63.9441 136.913 64.0227 136.843C64.1013 136.773 64.2045 136.737 64.3096 136.743C64.4147 136.749 64.513 136.797 64.583 136.876C65.5125 137.929 66.9157 137.953 67.6691 137.874C67.9729 137.831 69.0692 136.766 70.4556 134.611C71.8694 132.415 72.9329 130.12 73.3718 128.318C73.6683 127.102 73.8192 125.509 72.8569 124.822C72.8129 124.793 72.7751 124.755 72.746 124.711C72.7168 124.666 72.6968 124.617 72.6871 124.564C72.6774 124.512 72.6782 124.458 72.6896 124.407C72.7009 124.355 72.7225 124.306 72.7531 124.262C72.7836 124.219 72.8225 124.182 72.8675 124.154C72.9125 124.126 72.9626 124.107 73.0149 124.099C73.0672 124.091 73.1206 124.093 73.1719 124.106C73.2232 124.119 73.2715 124.142 73.3138 124.174C74.409 124.954 74.6717 126.471 74.0946 128.686C73.6039 130.573 72.495 132.923 71.0538 135.147C70.5347 135.945 68.7643 138.558 67.7514 138.665C67.5488 138.686 67.3453 138.698 67.1415 138.699Z" fill="#002E5D"/>
<path d="M71.6057 130.343C71.5355 130.343 71.4666 130.325 71.4063 130.289L68.989 128.866C68.9431 128.841 68.9027 128.806 68.8702 128.764C68.8377 128.723 68.8139 128.675 68.8001 128.624C68.7862 128.573 68.7826 128.52 68.7896 128.467C68.7965 128.415 68.8138 128.364 68.8404 128.319C68.867 128.273 68.9024 128.233 68.9446 128.202C68.9867 128.17 69.0347 128.147 69.0858 128.134C69.1369 128.121 69.1901 128.119 69.2421 128.127C69.2941 128.135 69.3441 128.153 69.3889 128.181L71.535 129.44L73.662 127.11C73.733 127.032 73.8318 126.986 73.9368 126.981C74.0417 126.977 74.1442 127.014 74.2217 127.085C74.2993 127.156 74.3454 127.256 74.3501 127.361C74.3547 127.466 74.3175 127.569 74.2465 127.647L71.9032 130.217C71.8651 130.257 71.819 130.29 71.7677 130.311C71.7165 130.333 71.6613 130.344 71.6057 130.343Z" fill="#002E5D"/>
<path d="M120.679 110.405C120.577 110.404 120.479 110.363 120.406 110.292C120.333 110.22 120.291 110.123 120.287 110.02C120.284 109.918 120.32 109.818 120.389 109.742C120.457 109.666 120.552 109.619 120.654 109.611L134.406 108.714C134.458 108.711 134.51 108.718 134.559 108.735C134.608 108.751 134.654 108.778 134.693 108.812C134.732 108.847 134.764 108.888 134.787 108.935C134.81 108.982 134.824 109.033 134.827 109.085C134.83 109.137 134.824 109.189 134.807 109.239C134.79 109.288 134.764 109.334 134.73 109.373C134.695 109.412 134.654 109.444 134.607 109.467C134.56 109.491 134.51 109.504 134.458 109.508L120.703 110.405H120.679Z" fill="#002E5D"/>
</g>
<defs>
<clipPath id="clip0_1403_16638">
<rect width="167" height="143" fill="white"/>
</clipPath>
</defs>
</svg>
