<svg width="165" height="153" viewBox="0 0 165 153" fill="none" xmlns="http://www.w3.org/2000/svg">
<g clip-path="url(#clip0_1403_16703)">
<path d="M163.844 10.6419L24.4204 2.36792L19.491 85.2464L158.914 93.5204L163.844 10.6419Z" fill="#F3F8FF"/>
<path d="M2.30891 50.4004C1.80353 50.5059 1.3608 50.8076 1.07809 51.2391C0.795374 51.6706 0.695835 52.1967 0.801364 52.7015L20.1856 145.428C20.2912 145.933 20.5932 146.375 21.0252 146.658C21.4573 146.94 21.9839 147.04 22.4893 146.934L154.469 119.406C154.975 119.301 155.417 118.999 155.7 118.567C155.983 118.136 156.082 117.61 155.977 117.105L144.137 60.4655C144.065 60.1213 144.088 59.7642 144.203 59.432C144.318 59.0998 144.522 58.805 144.791 58.5789L150.878 53.4745C151.148 53.2485 151.351 52.9538 151.467 52.6216C151.582 52.2893 151.605 51.9321 151.533 51.588L145.461 22.5243C145.355 22.0196 145.053 21.5775 144.621 21.2952C144.189 21.0128 143.663 20.9133 143.157 21.0184L2.30891 50.4004Z" fill="#6FA0FF"/>
<path d="M106.479 146.479C106.448 146.478 106.417 146.476 106.387 146.471L89.8017 143.784C89.7281 143.772 89.6576 143.745 89.5943 143.706C89.5309 143.667 89.4759 143.615 89.4325 143.555C89.389 143.494 89.358 143.426 89.341 143.353C89.3241 143.28 89.3216 143.205 89.3338 143.132C89.346 143.058 89.3725 142.988 89.4119 142.924C89.4513 142.861 89.5028 142.806 89.5635 142.763C89.6241 142.719 89.6928 142.688 89.7654 142.671C89.8381 142.655 89.9134 142.652 89.987 142.664L106.011 145.26L117.11 76.9114L12.3177 59.9336L1.21968 128.284L36.3675 133.977C36.4411 133.989 36.5117 134.015 36.5751 134.054C36.6385 134.094 36.6936 134.145 36.7372 134.205C36.7808 134.266 36.8121 134.334 36.8292 134.407C36.8463 134.479 36.849 134.554 36.837 134.628C36.8251 134.701 36.7987 134.772 36.7595 134.835C36.7203 134.899 36.669 134.954 36.6085 134.997C36.548 135.041 36.4795 135.072 36.4069 135.089C36.3343 135.106 36.259 135.109 36.1854 135.097L0.476492 129.311C0.402889 129.3 0.332346 129.273 0.268909 129.234C0.205471 129.195 0.150387 129.144 0.106816 129.084C0.0632441 129.023 0.0320423 128.955 0.0149996 128.882C-0.00204303 128.81 -0.00459129 128.735 0.00750101 128.661L11.2876 59.1923C11.3118 59.0439 11.394 58.9112 11.516 58.8234C11.6381 58.7355 11.7902 58.6997 11.9387 58.7238L117.849 75.8825C117.923 75.8944 117.993 75.9207 118.057 75.96C118.12 75.9992 118.175 76.0505 118.219 76.111C118.262 76.1715 118.294 76.24 118.311 76.3126C118.328 76.3851 118.33 76.4603 118.318 76.5339L107.038 146.002C107.017 146.135 106.949 146.256 106.846 146.343C106.744 146.43 106.614 146.478 106.479 146.479Z" fill="#002E5D"/>
<g style="mix-blend-mode:multiply" opacity="0.25">
<path d="M81.4089 36.1833L15.8057 64.9351L54.4867 152.995L120.09 124.244L81.4089 36.1833Z" fill="#325D9C"/>
</g>
<path d="M89.0086 32.9592L21.7705 57.6569L54.9974 147.912L122.235 123.214L89.0086 32.9592Z" fill="white"/>
<path d="M93.8944 63.5095L37.8633 84.0906L38.2754 85.2101L94.3065 64.629L93.8944 63.5095Z" fill="#F0F0FF"/>
<path d="M89.7274 52.1904L33.6963 72.7715L34.1084 73.891L90.1395 53.3099L89.7274 52.1904Z" fill="#F0F0FF"/>
<path d="M98.0604 74.8269L42.0293 95.408L42.4415 96.5276L98.4726 75.9464L98.0604 74.8269Z" fill="#F0F0FF"/>
<path d="M102.226 86.145L46.1953 106.726L46.6075 107.846L102.639 87.2645L102.226 86.145Z" fill="#F0F0FF"/>
<path d="M106.393 97.463L50.3623 118.044L50.7745 119.164L106.806 98.5825L106.393 97.463Z" fill="#F0F0FF"/>
<path d="M110.56 108.78L54.5288 129.361L54.941 130.481L110.972 109.9L110.56 108.78Z" fill="#F0F0FF"/>
<g style="mix-blend-mode:multiply" opacity="0.25">
<path d="M117.97 21.9013L46.8809 30.7585L58.7969 126.183L129.886 117.326L117.97 21.9013Z" fill="#002E5D"/>
</g>
<path d="M122.935 21.1144L51.5947 27.6498L60.3871 123.412L131.728 116.876L122.935 21.1144Z" fill="white"/>
<path d="M119.764 51.8871L60.3145 57.3332L60.4235 58.521L119.873 53.075L119.764 51.8871Z" fill="#F0F0FF"/>
<path d="M120.868 63.8961L61.4185 69.3422L61.5275 70.5301L120.977 65.084L120.868 63.8961Z" fill="#F0F0FF"/>
<path d="M121.97 75.9041L62.52 81.3502L62.6291 82.5381L122.079 77.092L121.97 75.9041Z" fill="#F0F0FF"/>
<path d="M123.073 87.9122L63.623 93.3583L63.7321 94.5461L123.182 89.1L123.073 87.9122Z" fill="#F0F0FF"/>
<path d="M114.081 36.0995L73.7114 39.7976L74.4766 48.1315L114.846 44.4334L114.081 36.0995Z" fill="#F0F0FF"/>
<path d="M87.3405 89.2659C86.2036 87.2214 84.3021 85.71 82.0522 85.0626C79.8023 84.4152 77.3873 84.6845 75.3357 85.8115C73.2841 86.9385 71.763 88.8314 71.1054 91.076C70.4478 93.3206 70.7072 95.7341 71.8268 97.7881C72.2845 98.6155 72.8709 99.3651 73.564 100.009C74.5571 100.924 75.7457 101.6 77.0395 101.988C78.3334 102.376 79.6987 102.465 81.0319 102.247C81.3647 102.194 81.6938 102.119 82.0175 102.025C82.6537 101.845 83.2674 101.593 83.8469 101.275C85.9026 100.143 87.4249 98.2432 88.0798 95.9919C88.7348 93.7405 88.4689 91.3216 87.3405 89.2659ZM83.4478 100.546C82.8719 100.862 82.2593 101.107 81.6237 101.275C81.2789 101.365 80.9284 101.432 80.5746 101.476C79.91 101.557 79.2378 101.556 78.5737 101.47C78.418 101.45 78.2645 101.426 78.1121 101.396C76.7316 101.139 75.4427 100.524 74.3739 99.6144C74.1017 99.3855 73.8456 99.1382 73.6075 98.8741C72.4989 97.6357 71.8033 96.0835 71.617 94.4327C71.4307 92.7818 71.7629 91.1139 72.5677 89.6601C73.3725 88.2062 74.6099 87.0383 76.1087 86.318C77.6075 85.5978 79.2933 85.3609 80.9329 85.6402C82.5724 85.9195 84.0844 86.7011 85.2594 87.8768C86.4345 89.0525 87.2145 90.5641 87.4914 92.2023C87.7682 93.8404 87.5283 95.524 86.8048 97.0198C86.0812 98.5157 84.9099 99.7498 83.4531 100.551L83.4478 100.546Z" fill="#BBD1DC"/>
<path d="M84.5591 90.795C84.0785 89.9188 83.3746 89.1849 82.5187 88.6678C81.6629 88.1506 80.6854 87.8685 79.6853 87.85C78.6852 87.8314 77.698 88.0772 76.8235 88.5622C75.949 89.0473 75.2184 89.7545 74.7055 90.6123C74.1926 91.4701 73.9157 92.4481 73.9028 93.4471C73.8899 94.4462 74.1415 95.4309 74.6321 96.3016C75.1226 97.1724 75.8348 97.8982 76.6964 98.4056C77.5581 98.9131 78.5387 99.1841 79.5389 99.1914C80.5109 99.2029 81.4693 98.9621 82.32 98.4924C83.6369 97.7664 84.612 96.5486 85.0317 95.1058C85.4514 93.663 85.2815 92.1128 84.5591 90.795ZM81.9124 97.768C81.0734 98.2297 80.1161 98.4325 79.1616 98.3508C78.2071 98.269 77.2984 97.9064 76.5502 97.3087C75.8021 96.7111 75.2482 95.9052 74.9586 94.9931C74.669 94.081 74.6567 93.1035 74.9232 92.1844C75.1898 91.2653 75.7232 90.4458 76.456 89.8295C77.1888 89.2132 78.0882 88.8279 79.0403 88.7222C79.9924 88.6165 80.9545 88.7951 81.805 89.2356C82.6554 89.6761 83.356 90.3586 83.8181 91.1968C84.4363 92.3204 84.5835 93.6429 84.2273 94.8746C83.8711 96.1064 83.0406 97.1468 81.9177 97.768H81.9124Z" fill="#BBD1DC"/>
<path d="M86.6362 91.4898C86.4854 90.9688 86.277 90.4662 86.0147 89.9913C85.7469 89.5046 85.4252 89.0495 85.0556 88.6346L84.7772 88.3237L84.1547 88.8788L84.4331 89.1897C84.7608 89.557 85.045 89.9608 85.28 90.3932C85.5111 90.8139 85.6957 91.2586 85.8305 91.7192L85.947 92.12L86.7473 91.8863L86.6362 91.4898ZM86.0698 94.1969L86.001 94.6083C85.8357 95.5699 85.4589 96.4829 84.8979 97.2816L84.6575 97.621L85.3383 98.1011L85.5786 97.7617C86.2124 96.8628 86.6371 95.8338 86.8215 94.75L86.8924 94.3386L86.0698 94.1969ZM82.3888 86.7512C81.37 86.3323 80.2706 86.1455 79.1705 86.2045L78.7544 86.2278L78.801 87.061L79.217 87.0378C80.1941 86.9832 81.171 87.1487 82.0754 87.5221L82.4608 87.6807L82.7784 86.9109L82.3888 86.7512ZM83.1055 99.0084L82.717 99.2199C82.0413 99.594 81.3042 99.8447 80.5404 99.9602C80.3403 99.9898 80.137 100.01 79.9327 100.02L79.5166 100.044L79.5357 100.397L79.5611 100.876L79.9782 100.854H80.0407C81.1204 100.788 82.1719 100.483 83.1182 99.9591L83.5068 99.7476L83.1055 99.0084Z" fill="#BBD1DC"/>
<path d="M75.4835 114.683C75.6179 114.549 75.7431 114.405 75.8582 114.254C75.9801 114.095 76.0902 113.928 76.1875 113.753C76.2714 113.606 76.3463 113.453 76.4119 113.297C76.502 113.085 76.5749 112.865 76.63 112.641C76.6779 112.452 76.7133 112.26 76.7359 112.066C76.7475 111.96 76.7549 111.865 76.7581 111.764C76.7929 111.005 76.6287 110.251 76.2817 109.576C76.2179 109.446 76.1472 109.32 76.07 109.197C75.7718 108.733 75.3885 108.329 74.9404 108.007C74.7783 107.889 74.6081 107.783 74.4311 107.689C73.745 107.325 72.9746 107.148 72.198 107.176C71.4214 107.205 70.6661 107.437 70.0084 107.851C69.3507 108.264 68.8141 108.844 68.4528 109.531C68.0914 110.219 67.9182 110.989 67.9506 111.765C67.983 112.54 68.22 113.294 68.6374 113.948C69.0548 114.603 69.638 115.136 70.3279 115.493C71.0178 115.851 71.7899 116.02 72.5662 115.983C73.3425 115.947 74.0954 115.707 74.7487 115.286C75.0149 115.113 75.2613 114.91 75.4835 114.683ZM74.3592 114.704C73.5893 115.2 72.6629 115.395 71.758 115.251C70.853 115.107 70.0331 114.634 69.4557 113.924C68.8782 113.213 68.5839 112.314 68.6292 111.4C68.6745 110.486 69.0562 109.62 69.701 108.97C69.8936 108.777 70.1066 108.605 70.3362 108.457C70.9116 108.088 71.5775 107.885 72.2609 107.87C72.9442 107.855 73.6185 108.028 74.2099 108.37C74.3941 108.475 74.5685 108.597 74.7308 108.733C74.9936 108.952 75.2245 109.207 75.4168 109.49C75.4358 109.517 75.4549 109.544 75.4729 109.574C75.8138 110.106 76.0135 110.715 76.0534 111.346C76.0932 111.976 75.9717 112.606 75.7005 113.177C75.6111 113.368 75.5048 113.551 75.3829 113.724C75.1098 114.114 74.7635 114.446 74.3634 114.704H74.3592Z" fill="#F0F0FF"/>
<path d="M73.7955 113.821C73.705 113.878 73.5953 113.898 73.4904 113.875C73.3855 113.852 73.2938 113.789 73.2355 113.699L70.791 109.9C70.7332 109.81 70.7135 109.7 70.7363 109.595C70.7591 109.49 70.8225 109.398 70.9128 109.34C71.0035 109.282 71.1135 109.262 71.2187 109.285C71.3239 109.308 71.4157 109.372 71.4739 109.463L73.9183 113.261C73.976 113.352 73.9955 113.461 73.9725 113.566C73.9494 113.671 73.8858 113.762 73.7955 113.821Z" fill="#F0F0FF"/>
<path d="M74.8479 112.272C74.7573 112.33 74.6474 112.35 74.5423 112.327C74.4372 112.304 74.3454 112.241 74.2869 112.151L72.6406 109.592C72.5828 109.501 72.5631 109.391 72.5859 109.286C72.6087 109.181 72.6722 109.09 72.7624 109.031C72.8531 108.973 72.9631 108.954 73.0683 108.977C73.1735 109 73.2653 109.063 73.3235 109.154L74.9697 111.713C75.0275 111.803 75.0471 111.913 75.0243 112.018C75.0015 112.123 74.9381 112.214 74.8479 112.272Z" fill="#F0F0FF"/>
<path d="M71.9503 114.129C71.8598 114.187 71.7501 114.207 71.6452 114.184C71.5403 114.161 71.4486 114.098 71.3903 114.008L69.744 111.449C69.6859 111.358 69.6661 111.248 69.6889 111.143C69.7118 111.038 69.7754 110.946 69.8658 110.888C69.9564 110.831 70.0662 110.811 70.1712 110.834C70.2761 110.857 70.3676 110.921 70.4258 111.011L72.0731 113.57C72.1311 113.66 72.1507 113.77 72.1277 113.875C72.1047 113.98 72.0409 114.071 71.9503 114.129Z" fill="#F0F0FF"/>
<path d="M111.212 108.634C111.116 108.645 111.02 108.649 110.923 108.646C110.348 108.626 109.735 108.318 109.185 107.8C108.357 108.594 107.406 109.145 106.432 109.05C105.525 108.96 104.669 108.31 103.958 107.157C103.674 106.691 103.436 106.198 103.247 105.685C102.026 106.946 100.721 108.121 99.3392 109.202L98.7812 108.502C100.264 107.349 101.652 106.08 102.934 104.707C102.458 102.923 102.39 100.837 103.074 99.0634C103.498 97.9731 104.809 95.6943 105.974 96.0242C106.89 96.2833 106.954 97.5829 106.986 98.2079C106.986 98.2671 106.986 98.3136 106.994 98.3623C107.146 100.509 105.799 102.813 103.936 104.932C104.125 105.548 104.389 106.137 104.72 106.689C105.271 107.578 105.91 108.101 106.52 108.161C107.162 108.223 107.896 107.79 108.59 107.118C108.504 107 108.422 106.876 108.342 106.747C107.553 105.457 107.379 104.061 107.875 103.013C108.405 101.901 109.69 101.157 110.689 101.004C111.247 100.917 111.679 101.014 111.938 101.288C112.599 101.985 111.927 103.658 111.467 104.592C111.014 105.508 110.454 106.368 109.798 107.152C110.186 107.521 110.6 107.746 110.954 107.759C112.013 107.795 113.146 105.955 113.897 104.736C114.58 103.629 114.956 103.018 115.522 103.276C115.997 103.494 115.881 104.062 115.746 104.719C115.617 105.345 115.429 106.29 115.774 106.665C115.974 106.876 116.738 107.248 119.507 106.105L119.85 106.931C117.366 107.957 115.863 108.066 115.121 107.275C114.571 106.69 114.637 105.794 114.775 105.019L114.66 105.204C113.807 106.586 112.655 108.454 111.212 108.634ZM110.895 101.872C110.812 101.882 110.73 101.898 110.649 101.918C109.96 102.088 109.051 102.622 108.685 103.398C108.253 104.312 108.619 105.489 109.109 106.286C109.141 106.341 109.176 106.392 109.214 106.448C109.595 105.988 109.938 105.498 110.241 104.983C111.216 103.33 111.438 102.113 111.287 101.895C111.161 101.853 111.025 101.845 110.895 101.872ZM105.707 96.885C105.37 96.9273 104.423 98.062 103.907 99.3838C103.378 100.766 103.364 102.4 103.66 103.871C105.361 101.813 106.2 99.958 106.095 98.4247C106.095 98.376 106.088 98.3189 106.085 98.2523C106.032 97.1948 105.86 96.922 105.724 96.8839L105.707 96.885Z" fill="#F70431"/>
<path d="M116.998 101.638C117.014 101.762 116.992 101.887 116.937 101.998C116.881 102.109 116.794 102.202 116.686 102.263C116.578 102.325 116.454 102.353 116.33 102.345C116.206 102.336 116.087 102.291 115.989 102.215C115.89 102.138 115.817 102.035 115.777 101.917C115.738 101.799 115.735 101.672 115.767 101.552C115.8 101.432 115.868 101.325 115.962 101.243C116.056 101.162 116.172 101.11 116.296 101.095C116.378 101.084 116.461 101.09 116.54 101.112C116.62 101.133 116.695 101.17 116.76 101.221C116.825 101.271 116.88 101.334 116.92 101.406C116.961 101.478 116.988 101.557 116.998 101.638Z" fill="#F70431"/>
<path d="M98.0042 109.826C98.0185 109.939 97.9991 110.053 97.9483 110.154C97.8975 110.256 97.8178 110.34 97.7191 110.396C97.6204 110.452 97.5073 110.477 97.3941 110.469C97.2809 110.461 97.1727 110.419 97.0833 110.349C96.9939 110.28 96.9272 110.185 96.8918 110.077C96.8564 109.969 96.8539 109.854 96.8845 109.744C96.9151 109.635 96.9775 109.538 97.0638 109.464C97.15 109.39 97.2563 109.344 97.369 109.33C97.519 109.312 97.6702 109.354 97.7893 109.447C97.9084 109.54 97.9857 109.677 98.0042 109.826Z" fill="#F70431"/>
<path d="M162.16 84.5612H136.624C135.055 84.5612 133.784 85.8309 133.784 87.3973V97.2001C133.784 98.7665 135.055 100.036 136.624 100.036H162.16C163.728 100.036 164.999 98.7665 164.999 97.2001V87.3973C164.999 85.8309 163.728 84.5612 162.16 84.5612Z" fill="#474747"/>
<path d="M165 85.0212V94.824C164.998 95.5752 164.698 96.295 164.166 96.8263C163.634 97.3576 162.914 97.6574 162.162 97.6602H136.625C135.872 97.6582 135.151 97.3588 134.619 96.8273C134.087 96.2958 133.787 95.5756 133.785 94.824V85.0212C133.787 84.2693 134.086 83.5487 134.619 83.0168C135.151 82.485 135.872 82.1852 136.625 82.1829H162.162C162.914 82.186 163.635 82.4861 164.166 83.0178C164.698 83.5495 164.998 84.2697 165 85.0212Z" fill="#5E5E5E"/>
<path d="M145.977 76.7665V89.4097C145.977 91.0054 147.506 92.2976 149.392 92.2976C151.279 92.2976 152.808 91.0054 152.808 89.4097V76.7665H145.977Z" fill="#474747"/>
<path d="M149.392 79.6936C151.279 79.6936 152.808 78.3831 152.808 76.7665C152.808 75.1499 151.279 73.8394 149.392 73.8394C147.506 73.8394 145.977 75.1499 145.977 76.7665C145.977 78.3831 147.506 79.6936 149.392 79.6936Z" fill="#5E5E5E"/>
<path opacity="0.5" d="M152.19 91.0657L145.593 97.6591H137.68L148.237 87.1171L152.19 91.0657Z" fill="#474747"/>
<g style="mix-blend-mode:multiply" opacity="0.25">
<path d="M155.651 34.2908L151.124 28.6471L147.462 31.5774L148.053 32.3176L117.593 56.6924L115.93 61.1518C115.913 61.1954 115.909 61.2426 115.916 61.2886C115.923 61.3346 115.942 61.3779 115.972 61.4143C116.001 61.4507 116.039 61.4788 116.082 61.496C116.126 61.5133 116.173 61.5189 116.219 61.5124L120.938 60.8631L151.398 36.483L151.989 37.2232L155.651 34.2908Z" fill="#325D9C"/>
</g>
<path d="M149.728 30.5141L145.896 26.7841L117.02 56.3826L120.852 60.1126L149.728 30.5141Z" fill="#325D9C"/>
<path d="M152.041 29.4936L146.856 24.447L143.582 27.8035L148.766 32.8502L152.041 29.4936Z" fill="#2D4351"/>
<path d="M117.024 56.3815L115.925 61.0165C115.915 61.0613 115.917 61.1079 115.93 61.1518C115.943 61.1958 115.968 61.2355 116.001 61.2673C116.034 61.2992 116.075 61.322 116.119 61.3336C116.164 61.3452 116.21 61.3452 116.255 61.3337L120.86 60.1113L117.024 56.3815Z" fill="#2D4351"/>
<g style="mix-blend-mode:multiply" opacity="0.3">
<path d="M148.091 32.1932L146.175 30.3282L118.936 58.2485L120.852 60.1135L148.091 32.1932Z" fill="#CE9820"/>
</g>
<path d="M29.8351 18.4616L14.2231 20.4067L14.6228 23.6072L30.2347 21.6621L29.8351 18.4616Z" fill="#BBD1DC"/>
<path d="M30.5016 23.7969L14.8896 25.7421L15.2893 28.9426L30.9012 26.9974L30.5016 23.7969Z" fill="#BBD1DC"/>
<path d="M127.543 -0.000963218L122.941 15.0267L126.029 15.9703L130.631 0.942563L127.543 -0.000963218Z" fill="#BBD1DC"/>
<path d="M132.692 1.57149L128.09 16.5992L131.178 17.5427L135.78 2.51501L132.692 1.57149Z" fill="#BBD1DC"/>
<path d="M124.264 145.879C126.701 145.879 128.677 143.905 128.677 141.47C128.677 139.036 126.701 137.062 124.264 137.062C121.826 137.062 119.85 139.036 119.85 141.47C119.85 143.905 121.826 145.879 124.264 145.879Z" fill="#F0F0FF"/>
<g clip-path="url(#clip1_1403_16703)">
<path d="M62.8097 49.2753L64.8879 49.0599L65.3727 46.2321L66.6812 46.0965L66.6212 45.5179L65.4838 45.6359L65.6226 44.8905L64.3211 44.5138L64.1585 45.0261L62.8097 49.2753Z" fill="#002E5D"/>
<path d="M65.4235 44.4725C65.8486 44.4285 66.1597 44.069 66.1183 43.6696C66.0769 43.2702 65.6987 42.9822 65.2736 43.0262C64.8485 43.0703 64.5375 43.4298 64.5789 43.8292C64.6203 44.2286 64.9985 44.5166 65.4235 44.4725Z" fill="#002E5D"/>
<path d="M71.1228 48.4135L69.0447 48.6289L67.99 45.9607L66.6816 46.0964L66.6216 45.5179L67.7591 45.3999L67.4703 44.699L68.6668 44.0633L68.9311 44.5313L71.1228 48.4135Z" fill="#325D9C"/>
<path d="M67.5793 44.2491C67.1542 44.2931 66.776 44.0051 66.7346 43.6057C66.6932 43.2063 67.0043 42.8468 67.4294 42.8028C67.8545 42.7587 68.2326 43.0467 68.274 43.4461C68.3154 43.8455 68.0044 44.205 67.5793 44.2491Z" fill="#325D9C"/>
<path d="M67.5712 41.18L64.8003 41.4672L64.9202 42.6243L67.6912 42.337L67.5712 41.18Z" fill="#002E5D"/>
<path d="M68.4654 40.795L63.8472 41.2737L63.8772 41.563L68.4954 41.0842L68.4654 40.795Z" fill="#002E5D"/>
<path d="M64.0306 41.5471L64.1075 41.5391L64.1525 41.973L64.2445 42.1096L64.0136 42.1336L64.0756 41.981L64.0306 41.5471Z" fill="#002E5D"/>
<path d="M72.4229 48.1462L73.7095 42.8616L75.0322 42.7245L77.3683 47.6335L76.0456 47.7706L75.6152 46.7002L73.9178 46.8761L73.7235 48.0113L72.4229 48.1462ZM74.0816 45.9488L75.272 45.8254L74.47 43.82L74.4552 43.8216L74.0816 45.9488Z" fill="#002E5D"/>
<path d="M78.8357 42.3302L79.0622 44.5153L79.0769 44.5138L80.4744 42.1603L81.922 42.0102L80.2647 44.6519L82.5237 47.099L81.0761 47.2491L79.1304 45.0304L79.1157 45.0319L79.364 47.4266L78.1148 47.5561L77.5864 42.4597L78.8357 42.3302Z" fill="#002E5D"/>
<path d="M82.9785 47.0518L84.2652 41.7673L85.5879 41.6302L87.9239 46.5391L86.6012 46.6762L86.1708 45.6058L84.4735 45.7818L84.2792 46.917L82.9785 47.0518ZM84.6373 44.8544L85.8276 44.731L85.0256 42.7257L85.0109 42.7272L84.6373 44.8544Z" fill="#002E5D"/>
<path d="M92.7866 43.3889C92.8754 44.2455 92.694 44.9345 92.243 45.4564C91.7966 45.9729 91.1228 46.2782 90.2212 46.3717C89.6774 46.4281 89.1594 46.4462 88.6672 46.4267L88.1461 41.4003C88.6239 41.2803 89.1346 41.1921 89.6784 41.1357C90.58 41.0422 91.3013 41.1956 91.8428 41.5957C92.3888 41.9907 92.7036 42.5885 92.7866 43.3889ZM91.5956 43.5123C91.4837 42.4327 90.9085 41.9466 89.87 42.0543C89.7281 42.069 89.5924 42.0972 89.463 42.1388L89.8046 45.434C89.9397 45.448 90.0784 45.448 90.2203 45.4333C91.2588 45.3256 91.7173 44.6853 91.5956 43.5123Z" fill="#002E5D"/>
<path d="M94.6646 41.6559L94.7724 42.6961L96.8081 42.4851L96.9015 43.3858L94.8658 43.5969L94.9946 44.8396L97.1772 44.6133L97.2764 45.5696L93.8448 45.9253L93.3164 40.829L96.748 40.4732L96.8472 41.4296L94.6646 41.6559Z" fill="#002E5D"/>
<path d="M102.224 41.9024L102.21 41.9039L101.472 43.9559L100.34 44.0733L99.1969 42.2162L99.1824 42.2177L99.5059 45.3385L98.3228 45.4611L97.7944 40.3647L99.073 40.2322L100.802 43.0869L100.817 43.0854L101.924 39.9366L103.232 39.801L103.76 44.8974L102.548 45.0231L102.224 41.9024Z" fill="#002E5D"/>
<path d="M104.984 44.7704L104.456 39.6741L105.83 39.5316L106.358 44.628L104.984 44.7704Z" fill="#002E5D"/>
<path d="M108.344 39.2709L108.771 43.3827L111.034 43.1481L111.136 44.1327L107.586 44.5007L107.058 39.4043L108.344 39.2709Z" fill="#002E5D"/>
<path d="M111.388 38.9554L112.658 41.0323L112.673 41.0308L113.49 38.7376L114.886 38.5929L113.389 41.9236L113.592 43.8781L112.306 44.0115L112.103 42.0569L109.963 39.1032L111.388 38.9554Z" fill="#002E5D"/>
</g>
</g>
<defs>
<clipPath id="clip0_1403_16703">
<rect width="165" height="153" fill="white"/>
</clipPath>
<clipPath id="clip1_1403_16703">
<rect width="53" height="8" fill="white" transform="translate(62 41.4653) rotate(-5.91879)"/>
</clipPath>
</defs>
</svg>
