<svg width="16" height="16" fill="none" xmlns="http://www.w3.org/2000/svg"><g clip-path="url(#a)"><path d="M8.002 0a4.165 4.165 0 0 0-4.154 4.154 4.165 4.165 0 0 0 4.154 4.154 4.165 4.165 0 0 0 4.154-4.154A4.165 4.165 0 0 0 8.002 0Zm7.129 11.628a3.88 3.88 0 0 0-.417-.762c-.835-1.233-2.123-2.05-3.574-2.25a.765.765 0 0 0-.526.128 4.37 4.37 0 0 1-2.612.852 4.37 4.37 0 0 1-2.612-.852.68.68 0 0 0-.526-.127 5.126 5.126 0 0 0-3.574 2.25 4.47 4.47 0 0 0-.417.761.386.386 0 0 0 .018.345c.145.254.326.508.49.725.254.345.526.653.834.944.254.254.544.49.835.725A8.219 8.219 0 0 0 7.984 16a8.218 8.218 0 0 0 4.934-1.633c.29-.217.58-.471.835-.725.29-.29.58-.599.834-.944.181-.235.345-.471.49-.725.09-.109.109-.236.054-.345Z" fill="#325D9C"/></g><defs><clipPath id="a"><path fill="#fff" d="M0 0h16v16H0z"/></clipPath></defs></svg>