<svg width="16" height="16" fill="none" xmlns="http://www.w3.org/2000/svg"><g clip-path="url(#a)"><path d="M2.323 2.355C3.893.785 5.785 0 8 0c2.215 0 4.097.785 5.645 2.355C15.215 3.903 16 5.785 16 8c0 2.215-.785 4.107-2.355 5.677C12.097 15.226 10.215 16 8 16c-2.215 0-4.108-.774-5.677-2.323C.774 12.107 0 10.215 0 8c0-2.215.774-4.097 2.323-5.645Zm8.645 7.742a.437.437 0 0 0 .129-.323.52.52 0 0 0-.194-.42L9.033 8V3.355A.43.43 0 0 0 8.87 3a.43.43 0 0 0-.355-.161H7.484c-.15 0-.28.053-.387.161a.48.48 0 0 0-.13.355v5.032c0 .409.162.742.485 1l2.16 1.58c.087.087.194.13.323.13a.434.434 0 0 0 .388-.194l.645-.806Z" fill="#325D9C"/></g><defs><clipPath id="a"><path fill="#fff" d="M0 0h16v16H0z"/></clipPath></defs></svg>