<svg width="24" height="24" fill="none" xmlns="http://www.w3.org/2000/svg"><g clip-path="url(#a)"><path d="M0 23.996h5.881l2.178-8.443h3.703v-1.778H8.543l.606-2.221-3.535-1.556-.604 1.506L0 23.996ZM8.713 10.22c1.203 0 2.178-.994 2.178-2.222 0-1.227-.975-2.221-2.178-2.221-1.203 0-2.179.994-2.179 2.221 0 1.228.976 2.222 2.179 2.222Z" fill="#002E5D"/><path d="M23.525 23.996h-5.88l-2.18-8.443h-3.702v-1.778h3.219l-.605-2.221 3.535-1.556.604 1.506 5.01 12.492ZM14.813 10.22c-1.203 0-2.179-.994-2.179-2.222 0-1.227.976-2.221 2.179-2.221 1.203 0 2.178.994 2.178 2.221 0 1.228-.975 2.222-2.178 2.222Z" fill="#325D9C"/><path d="M15.682.888H7.84v3.555h7.842V.888Z" fill="#002E5D"/><path d="M18.297 0H5.227v.889h13.07V0Z" fill="#002E5D"/><path d="M5.662.888h.217v1.334l.218.444h-.653l.218-.444V.888Z" fill="#002E5D"/></g><defs><clipPath id="a"><path fill="#fff" d="M0 0h24v24H0z"/></clipPath></defs></svg>