<svg width="168" height="146" fill="none" xmlns="http://www.w3.org/2000/svg"><g clip-path="url(#a)"><path d="M168 146H0l14.304-12.023h139.392L168 146Z" fill="#F0F0FF"/><path d="M46.112 39.08h-15.98c-.682 0-1.336.27-1.819.751a2.56 2.56 0 0 0-.754 1.814v95.993c0 .68.271 1.332.754 1.813a2.578 2.578 0 0 0 1.82.751h15.98V39.08Z" fill="#2D4351"/><path d="M107.968 39.08h-64.89a2.572 2.572 0 0 0-2.577 2.568v95.991a2.572 2.572 0 0 0 2.577 2.568h64.89a2.572 2.572 0 0 0 2.576-2.568V41.648a2.572 2.572 0 0 0-2.576-2.568Z" fill="#435E6D"/><path d="M37.014 52.723h-6.411c-.662 0-1.198.534-1.198 1.193v15.165c0 .66.536 1.194 1.198 1.194h6.411c.662 0 1.198-.535 1.198-1.194V53.916c0-.659-.536-1.193-1.198-1.193Zm.81 53.882h-8.03a.388.388 0 0 0-.39.387v1.743a.39.39 0 0 0 .39.387h8.03a.388.388 0 0 0 .388-.387v-1.743a.388.388 0 0 0-.389-.387Zm0 6.872h-8.03a.388.388 0 0 0-.39.387v1.743a.39.39 0 0 0 .39.387h8.03a.388.388 0 0 0 .388-.387v-1.743a.388.388 0 0 0-.389-.387Zm0 6.872h-8.03a.388.388 0 0 0-.39.387v1.743c0 .214.175.387.39.387h8.03a.388.388 0 0 0 .388-.387v-1.743a.388.388 0 0 0-.389-.387Z" fill="#22353F"/><path d="M108.052 140.206H50.644c-1.258 0-2.311-.987-2.352-2.205l-2.703-82.46c-.04-1.218.949-2.205 2.207-2.205h57.409c1.259 0 2.312.987 2.351 2.205l2.702 82.46c.042 1.218-.947 2.205-2.206 2.205Z" fill="#22353F" style="mix-blend-mode:multiply" opacity=".2"/><path d="M58.07 50.74h-5.642c-.605 0-1.185.24-1.613.666a2.269 2.269 0 0 0-.668 1.607v84.922a2.272 2.272 0 0 0 2.28 2.273h5.644V50.74Z" fill="#BBD1DC"/><path d="M114.996 53.011v84.924a2.262 2.262 0 0 1-1.407 2.102 2.276 2.276 0 0 1-.874.171H55.308a2.286 2.286 0 0 1-1.613-.665 2.272 2.272 0 0 1-.668-1.608V53.011c0-.603.24-1.18.668-1.607a2.285 2.285 0 0 1 1.613-.666h57.407c.605 0 1.185.24 1.613.666.428.426.668 1.004.668 1.607Z" fill="#fff"/><path d="m70.847 67.182-5.099-4.967-5.099 4.967V50.74h10.198v16.442Z" fill="#325D9C"/><path d="m64.9 48.66 1.179 6.101a.283.283 0 0 1-.3.337.286.286 0 0 1-.16-.063l-5.098-4.126 4.38-2.25Z" fill="#435E6D"/><path d="M63.897 51.685c1.741-.916 2.691-2.53 2.122-3.607-.57-1.077-2.444-1.207-4.186-.292-1.742.916-2.692 2.53-2.122 3.607.57 1.077 2.444 1.207 4.186.292Z" fill="#2D4351"/><path d="M106.826 64.126H76.324v3.056h30.502v-3.056ZM84.484 75.483H60.521v3.056h23.963v-3.056ZM72.502 86.84H60.521v3.056h11.981V86.84Zm34.324 0H76.324v3.056h30.502V86.84ZM83.448 98.198H60.52v3.055h22.927v-3.055Zm23.378 0h-19.72v3.055h19.72v-3.055Zm0 11.357H60.521v3.055h46.305v-3.055ZM78.3 120.912H60.52v3.056H78.3v-3.056Z" fill="#BBD1DC"/><path d="M113.727 88.489v49.959c0 .12-.012.239-.036.357a19.842 19.842 0 0 1-5.127 1.448h-5.791c-7.415-1.03-14.107-5.934-18.373-12.913a32.89 32.89 0 0 1-4.314-11.461 33.275 33.275 0 0 1-.489-6.601 31.17 31.17 0 0 1 .16-2.43c.66-6.231 3.168-11.698 6.93-15.633a21.737 21.737 0 0 1 2.741-2.43c3.378-2.516 7.447-3.978 11.918-4.011 4.405-.034 8.642 1.321 12.381 3.715Z" fill="#1F3549" style="mix-blend-mode:multiply" opacity=".2"/><path d="M133.498 111.747c0-13.994-8.365-25.645-19.432-28.179v-.51h-4.519c-13.227 0-23.95 12.845-23.95 28.689s10.724 28.688 23.95 28.688h4.519v-.51c11.067-2.531 19.432-14.184 19.432-28.178Z" fill="#002E5D"/><path d="M138.017 111.747a34.26 34.26 0 0 1-.616 6.486c-1.512 7.84-5.708 14.45-11.366 18.368-3.521 2.439-7.608 3.834-11.968 3.834-13.228 0-23.951-12.844-23.951-28.688 0-15.843 10.723-28.689 23.951-28.689 13.227 0 23.95 12.844 23.95 28.689Z" fill="#325D9C"/><path d="M114.066 135.023c10.732 0 19.432-10.421 19.432-23.276s-8.7-23.276-19.432-23.276-19.432 10.42-19.432 23.276c0 12.855 8.7 23.276 19.432 23.276Z" fill="#fff"/><path d="m103.534 117.609-.826-1.81 10.361-4.692v-9.55h1.994v10.83l-11.529 5.222Z" fill="#325D9C"/><path d="M114.105 90.705h-.078a.571.571 0 0 0-.573.57v3.86c0 .316.256.571.573.571h.078a.572.572 0 0 0 .573-.57v-3.86a.572.572 0 0 0-.573-.57Zm9.431 9.7a.84.84 0 0 1 0-1.037l2.087-2.5a.537.537 0 0 1 .432-.214.544.544 0 0 1 .433.214.84.84 0 0 1 0 1.036l-2.087 2.501a.543.543 0 0 1-.865 0Zm8.096 11.406v-.128a.67.67 0 0 0-.671-.669h-2.833a.67.67 0 0 0-.671.669v.128c0 .37.3.669.671.669h2.833a.67.67 0 0 0 .671-.669Zm-8.096 11.278a.542.542 0 0 1 .865 0l2.087 2.5a.839.839 0 0 1 0 1.036.54.54 0 0 1-.674.158.532.532 0 0 1-.191-.158l-2.087-2.499a.84.84 0 0 1 0-1.037Zm-9.509 9.7h.079a.572.572 0 0 0 .572-.571v-3.86a.572.572 0 0 0-.572-.571h-.079a.572.572 0 0 0-.572.571v3.86c0 .315.256.571.572.571Zm-9.43-9.7a.84.84 0 0 1 0 1.036l-2.087 2.5a.543.543 0 0 1-.865 0 .84.84 0 0 1 0-1.036l2.087-2.5a.54.54 0 0 1 .674-.158.532.532 0 0 1 .191.158ZM96.5 111.683v.128c0 .37.3.669.67.669h2.834a.67.67 0 0 0 .671-.669v-.128a.67.67 0 0 0-.671-.669H97.17a.67.67 0 0 0-.67.669Zm8.097-11.278a.546.546 0 0 1-.865 0l-2.087-2.5a.84.84 0 0 1 0-1.037.543.543 0 0 1 .865 0l2.087 2.5a.84.84 0 0 1 0 1.037Z" fill="#BBD1DC"/><path d="M18.386 108.414a2.673 2.673 0 0 0-5.233-1.084c-.3 1.44.628 2.85 2.073 3.149a2.673 2.673 0 0 0 3.16-2.065Z" fill="#325D9C"/><path d="M148.868 105.043c2.753 0 4.985-2.224 4.985-4.968 0-2.743-2.232-4.967-4.985-4.967-2.754 0-4.986 2.224-4.986 4.967 0 2.744 2.232 4.968 4.986 4.968Z" fill="#F0F0FF"/><path d="M121.499 37.495v32.3a42.063 42.063 0 0 1-.811 1.538C113.542 62.25 92.8 57.584 92.8 57.584s-12.536-17.117-23.74-20.05a1.15 1.15 0 0 0 .034-.043l52.405.004Z" fill="#325D9C" style="mix-blend-mode:multiply" opacity=".25"/><path d="M137.552 19.982h-4.972v1.903h3.794l1.709-1.673a.725.725 0 0 0-.531-.23Z" fill="#325D9C"/><path d="M159.015 50.48c.14-.275.12-.63-.128-.933l-37.395-45.95a1.073 1.073 0 0 0-.772-.393L61.437 0c-.393-.022-.694.171-.834.445L59.49 2.612l3.821 1.942 34.812 42.774a1.078 1.078 0 0 0 .772.393l55.187 2.98 3.821 1.943 1.111-2.164Z" fill="#325D9C"/><path d="m157.072 53.091-59.284-3.2a1.084 1.084 0 0 1-.772-.393l-27.718-34.06-1.02-1.25-8.656-10.64c-.496-.61-.08-1.422.706-1.38l11.055.598 1.34.072 46.889 2.533a1.087 1.087 0 0 1 .773.392l37.395 45.949c.494.609.077 1.421-.708 1.38Z" fill="#002E5D"/><path d="M123.993 65.477c-8.099-8.25-29.229-10.632-29.229-10.632S80.43 39.195 68.97 37.502c10.242-16.65 28.982-24.208 43.336-16.91 14.354 7.297 19.208 26.85 11.688 44.885Zm12.383-43.592V72.35h1.91V20.713a.726.726 0 0 0-.201-.5l-1.709 1.672Z" fill="#325D9C"/><path d="m139.176 70.285-1.504-.699a.815.815 0 0 0-.681 0l-1.504.7a.806.806 0 0 0-.436.507l-2.594 8.956a.794.794 0 0 0 .131.707.807.807 0 0 0 .645.321h8.196a.806.806 0 0 0 .777-1.028l-2.595-8.956a.804.804 0 0 0-.435-.508Z" fill="#325D9C"/><path d="M75.084 125.058c-4.401-.016-8.844 2.9-11.019 6.889-2.1-1.604-5.226-1.616-8.098-.029-.245-3.998-3.265-6.941-7.675-6.957-1.647-.005-3.3.398-4.837 1.116v2.278c1.339-.731 2.82-1.153 4.295-1.147 3.748.015 6.2 2.783 5.89 6.375v.021l-10.178-.036v2.588a6 6 0 0 1 1.521-.332l8.122.028a9.794 9.794 0 0 1-2.169 3.292c-.489.502-1.026.955-1.604 1.353a10.05 10.05 0 0 1-2.197 1.146h4.011c.062-.048.124-.098.186-.149 1.813-1.495 3.266-3.454 4.046-5.634l3.647.014 3.743.013c-.272 2.177.234 4.141 1.323 5.645.026.038.054.075.083.111h3.874a5.337 5.337 0 0 1-2.432-2.445c-.478-.957-.688-2.08-.575-3.303l7.965.03c.246.02 2.55.259 2.181 1.789-.15.621.234 1.126.855 1.129.622.003 1.25-.501 1.399-1.12.169-.7.135-1.289-.034-1.782l2.49.009c-1.001 2.55-3.194 4.674-5.725 5.693h3.889c2.155-1.748 3.805-4.156 4.445-6.809 1.289-5.365-2.034-9.757-7.422-9.776Zm-17.991 8.56c.897-.437 1.81-.669 2.678-.667a4.346 4.346 0 0 1 2.35.684l-5.028-.017Zm23.338.085-6.848-.025-8.005-.029a.059.059 0 0 1 .005-.017v-.007c1.423-3.587 5.206-6.333 8.957-6.32 3.766.015 6.217 2.796 5.892 6.398Z" fill="#325D9C" style="mix-blend-mode:multiply" opacity=".2"/><path d="M87.41 134.834c.02-5.362-4.348-9.757-9.74-9.776-4.407-.016-8.154 2.9-9.38 6.889a7.46 7.46 0 0 0-8.106-.029 9.781 9.781 0 0 0-9.33-6.957c-5.391-.019-9.791 4.341-9.81 9.706-.02 5.365 4.348 9.756 9.74 9.776a9.885 9.885 0 0 0 5.97-2.002c.378-.29.733-.606 1.064-.947a9.718 9.718 0 0 0 2.706-5.634l3.65.013 3.748.014a9.736 9.736 0 0 0 3.188 6.16 9.798 9.798 0 0 0 6.49 2.492c5.391.02 9.791-4.332 9.81-9.705Zm-9.748-7.528a7.545 7.545 0 0 1 4.894 1.831 7.499 7.499 0 0 1 2.518 4.566l-6.853-.025-8.014-.029v-.022a7.528 7.528 0 0 1 7.455-6.321Zm-13.429 5.646a5.199 5.199 0 0 1 2.516.684l-5.034-.018a5.178 5.178 0 0 1 2.518-.666Zm-13.387-5.743a7.525 7.525 0 0 1 7.407 6.374v.022l-14.866-.054a7.524 7.524 0 0 1 7.46-6.342Zm6.018 11.936a7.52 7.52 0 0 1-1.283 1.351 7.522 7.522 0 0 1-3.575 1.605 7.52 7.52 0 0 1-7.062-2.718 7.473 7.473 0 0 1-1.564-3.582l2.335.008a3.452 3.452 0 0 0-.468 1.778 1.125 1.125 0 0 0 1.562 1.068 1.13 1.13 0 0 0 .694-1.059c.006-1.53 2.369-1.752 2.62-1.771l8.13.029a7.322 7.322 0 0 1-1.39 3.291Zm20.744 3.147a7.478 7.478 0 0 1-6.05-3.094 7.318 7.318 0 0 1-1.361-3.303l7.972.03c.251.021 2.612.259 2.607 1.789a1.123 1.123 0 0 0 1.123 1.128 1.13 1.13 0 0 0 1.132-1.12 3.45 3.45 0 0 0-.457-1.781l2.492.009a7.488 7.488 0 0 1-2.55 4.547 7.537 7.537 0 0 1-4.908 1.795Z" fill="#F70431"/></g><defs><clipPath id="a"><path fill="#fff" d="M0 0h168v146H0z"/></clipPath></defs></svg>