<svg width="24" height="24" fill="none" xmlns="http://www.w3.org/2000/svg"><g clip-path="url(#a)"><path d="M11.625 4.875a4.501 4.501 0 0 0 0 9 4.501 4.501 0 0 0 0-9Zm0 6.75a2.25 2.25 0 1 1 .001-4.501 2.25 2.25 0 0 1-.001 4.501Zm0-11.25C5.203.375 0 5.578 0 12s5.203 11.625 11.625 11.625S23.25 18.422 23.25 12 18.047.375 11.625.375Zm0 21a9.322 9.322 0 0 1-6.098-2.269 4.038 4.038 0 0 1 3.262-1.851c.975.3 1.903.45 2.836.45.933 0 1.86-.146 2.836-.45a4.05 4.05 0 0 1 3.262 1.851 9.322 9.322 0 0 1-6.098 2.269Zm7.627-3.942C18.108 15.96 16.34 15 14.325 15c-.478 0-1.219.45-2.7.45-1.477 0-2.222-.45-2.7-.45-2.01 0-3.778.96-4.927 2.433A9.308 9.308 0 0 1 2.25 12c0-5.17 4.205-9.375 9.375-9.375S21 6.83 21 12c0 2.025-.652 3.9-1.748 5.433Z" fill="#325D9C"/></g><defs><clipPath id="a"><path fill="#fff" d="M0 0h23.25v24H0z"/></clipPath></defs></svg>