<svg width="24" height="24" fill="none" xmlns="http://www.w3.org/2000/svg"><g clip-path="url(#a)" fill="#F70431"><path d="M14.105 15.254v1.065a8.581 8.581 0 0 0 4.658 7.65l.053.028.053-.027a8.581 8.581 0 0 0 4.657-7.65v-1.066a5.021 5.021 0 0 1-2.376-2.315h-4.668a5.021 5.021 0 0 1-2.377 2.315Zm4.977-.084c.629 0 1.23.195 1.74.562l-.82 1.14a1.58 1.58 0 0 0-2.497 1.28 1.58 1.58 0 0 0 2.497 1.282l.82 1.141a2.962 2.962 0 0 1-1.74.562 2.986 2.986 0 0 1-2.983-2.983 2.987 2.987 0 0 1 2.983-2.984ZM5.49.016l-5 5h5v-5Z"/><path d="M14.16 21.528a10.015 10.015 0 0 1-1.46-5.209v-2.036l.471-.165a3.622 3.622 0 0 0 2.196-2.133l.172-.452h2.48V0H6.897v6.422H.474V24h15.815a10.016 10.016 0 0 1-2.128-2.472ZM4.9 8.911h8.396v1.405H4.901V8.911Zm0 5.716h6.24v1.405H4.9v-1.405Zm6.834 4.263H4.901v-1.405h6.833v1.405Zm.734-5.716H4.901V11.77h7.567v1.405Z"/></g><defs><clipPath id="a"><path fill="#fff" d="M0 0h24v24H0z"/></clipPath></defs></svg>