<svg width="24" height="24" fill="none" xmlns="http://www.w3.org/2000/svg"><g clip-path="url(#a)"><path d="M20.4 21.6H18v-1.2c0-.72-.48-1.2-1.2-1.2h-2.4v-2.76c3.48-1.08 6-4.2 6-8.04C20.4 3.72 16.68 0 12 0S3.6 3.72 3.6 8.4c0 3.84 2.52 6.96 6 8.04v2.76H7.2c-.72 0-1.2.48-1.2 1.2v1.2H3.6c-.72 0-1.2.48-1.2 1.2V24h19.2v-1.2c0-.72-.48-1.2-1.2-1.2ZM8.4 12c0-.72.48-1.2 1.2-1.2h1.2V7.68l-.36.36c-.48.48-1.2.48-1.68 0a1.16 1.16 0 0 1 0-1.68l2.4-2.4c.36-.36.84-.48 1.32-.24.48.12.72.6.72 1.08v6h1.2c.72 0 1.2.48 1.2 1.2s-.48 1.2-1.2 1.2H9.6c-.72 0-1.2-.48-1.2-1.2Z" fill="#F70431"/></g><defs><clipPath id="a"><path fill="#fff" d="M0 0h24v24H0z"/></clipPath></defs></svg>