<svg width="24" height="24" fill="none" xmlns="http://www.w3.org/2000/svg"><g clip-path="url(#a)" fill="#F70431"><path d="M13.2 0h-12C.48 0 0 .48 0 1.2v21.6c0 .72.48 1.2 1.2 1.2h15.6c.72 0 1.2-.48 1.2-1.2v-18L13.2 0ZM3.6 3.6H12c.72 0 1.2.48 1.2 1.2S12.72 6 12 6H3.6c-.72 0-1.2-.48-1.2-1.2s.48-1.2 1.2-1.2Zm10.8 16.8H3.6c-.72 0-1.2-.48-1.2-1.2S2.88 18 3.6 18h10.8c.72 0 1.2.48 1.2 1.2s-.6 1.2-1.2 1.2Zm0-4.8H3.6c-.72 0-1.2-.48-1.2-1.2s.48-1.2 1.2-1.2h10.8c.72 0 1.2.48 1.2 1.2s-.6 1.2-1.2 1.2Zm0-4.8H3.6c-.72 0-1.2-.48-1.2-1.2s.48-1.2 1.2-1.2h10.8c.72 0 1.2.48 1.2 1.2s-.6 1.2-1.2 1.2Zm6 8.4 1.8 4.8 1.8-4.8h-3.6Zm3-19.2H21c-.36 0-.6.24-.6.6v16.2H24V.6c0-.36-.24-.6-.6-.6Z"/></g><defs><clipPath id="a"><path fill="#fff" d="M0 0h24v24H0z"/></clipPath></defs></svg>