<svg width="24" height="24" fill="none" xmlns="http://www.w3.org/2000/svg"><g clip-path="url(#a)" fill="#F70431"><path d="M16.8 7.2c2.28 0 4.32.84 6 2.16V3.6c0-.6-.6-1.2-1.2-1.2h-1.2V1.2c0-.72-.48-1.2-1.2-1.2S18 .48 18 1.2v1.2H6V1.2C6 .48 5.52 0 4.8 0S3.6.48 3.6 1.2v1.2H1.2C.6 2.4 0 2.88 0 3.6v16.8c0 .72.6 1.2 1.2 1.2h7.32c-.84-1.44-1.32-3.12-1.32-4.8 0-5.28 4.32-9.6 9.6-9.6Z"/><path d="M16.8 9.6c-3.96 0-7.2 3.24-7.2 7.2s3.24 7.2 7.2 7.2 7.2-3.24 7.2-7.2-3.24-7.2-7.2-7.2Zm2.4 8.4h-2.4c-.72 0-1.2-.48-1.2-1.2v-3.6c0-.72.48-1.2 1.2-1.2s1.2.48 1.2 1.2v2.4h1.2c.72 0 1.2.48 1.2 1.2s-.48 1.2-1.2 1.2Z"/></g><defs><clipPath id="a"><path fill="#fff" d="M0 0h24v24H0z"/></clipPath></defs></svg>