<svg width="24" height="24" fill="none" xmlns="http://www.w3.org/2000/svg"><g clip-path="url(#a)" fill="#F70431"><path d="M15.487 4.174a.703.703 0 0 0-.474-.874 10.584 10.584 0 0 0-6.025 0 .703.703 0 0 0 .4 1.349 9.17 9.17 0 0 1 5.225 0c.367.11.763-.1.874-.475ZM10.455 5.83a.704.704 0 0 0 .278 1.379c.84-.17 1.694-.17 2.534 0a.704.704 0 0 0 .279-1.38 7.758 7.758 0 0 0-3.091 0Z"/><path d="M21.89 9.89h-.75v-.703C21.14 4.147 17.04 0 12 0 6.96 0 2.86 4.147 2.86 9.188v.703h-.75A2.11 2.11 0 0 0 0 12v4.219c0 1.163.946 2.156 2.11 2.156h2.859a.703.703 0 0 0 .703-.703v-7.078a.703.703 0 0 0-.703-.703h-.703v-.704c0-4.264 3.47-7.78 7.734-7.78 4.265 0 7.734 3.516 7.734 7.78v.704h-.703a.703.703 0 0 0-.703.703v7.078c0 .389.315.703.703.703h.703v.703c0 1.163-.946 2.11-2.109 2.11H13.98A2.106 2.106 0 0 0 12 19.78c-1.163 0-2.11.947-2.11 2.11 0 1.164.948 2.11 2.11 2.11.915 0 1.689-.59 1.98-1.406h3.645a3.52 3.52 0 0 0 3.516-3.516v-.703h.75c1.163 0 2.109-.993 2.109-2.156V12c0-1.163-.946-2.11-2.11-2.11Z"/><path d="M16.922 13.406A4.928 4.928 0 0 0 12 8.484a4.928 4.928 0 0 0-4.922 4.922c0 2.714 2.208 4.969 4.922 4.969 2.714 0 4.922-2.255 4.922-4.969ZM10.8 14.958l-1.055-1.055a.703.703 0 1 1 .994-.994l.558.558 1.612-1.613a.703.703 0 1 1 .994.995l-2.109 2.109a.703.703 0 0 1-.994 0Z"/></g><defs><clipPath id="a"><path fill="#fff" d="M0 0h24v24H0z"/></clipPath></defs></svg>