<svg width="24" height="24" fill="none" xmlns="http://www.w3.org/2000/svg"><g clip-path="url(#a)"><g clip-path="url(#b)"><path d="M19.71 10.367a4.484 4.484 0 0 0-.386-3.683 4.535 4.535 0 0 0-4.885-2.176A4.486 4.486 0 0 0 11.057 3 4.536 4.536 0 0 0 6.73 6.14a4.486 4.486 0 0 0-2.998 2.175 4.537 4.537 0 0 0 .558 5.318 4.484 4.484 0 0 0 .385 3.684 4.535 4.535 0 0 0 4.885 2.175A4.483 4.483 0 0 0 12.942 21a4.536 4.536 0 0 0 4.328-3.142 4.486 4.486 0 0 0 2.999-2.176 4.537 4.537 0 0 0-.56-5.316v.001Zm-6.767 9.457a3.363 3.363 0 0 1-2.16-.781c.029-.015.076-.041.107-.06l3.585-2.07a.582.582 0 0 0 .294-.51v-5.054l1.515.875a.053.053 0 0 1 .03.042v4.184a3.377 3.377 0 0 1-3.37 3.374Zm-7.247-3.096a3.359 3.359 0 0 1-.402-2.26l.106.064 3.584 2.07a.584.584 0 0 0 .59 0l4.375-2.527v1.75a.056.056 0 0 1-.021.046l-3.623 2.092a3.377 3.377 0 0 1-4.608-1.235h-.001Zm-.943-7.824a3.362 3.362 0 0 1 1.755-1.479l-.001.124v4.14a.583.583 0 0 0 .294.51l4.376 2.527-1.515.874a.053.053 0 0 1-.051.005L5.987 13.51a3.377 3.377 0 0 1-1.235-4.606Zm12.446 2.897-4.376-2.527 1.515-.874a.053.053 0 0 1 .051-.005l3.624 2.092a3.374 3.374 0 0 1-.521 6.088V12.31a.582.582 0 0 0-.293-.51Zm1.507-2.27a4.733 4.733 0 0 0-.106-.063l-3.584-2.07a.584.584 0 0 0-.59 0l-4.375 2.527v-1.75a.056.056 0 0 1 .021-.047l3.623-2.09a3.373 3.373 0 0 1 5.01 3.493h.001ZM9.227 12.65l-1.515-.874a.053.053 0 0 1-.03-.042V7.55a3.374 3.374 0 0 1 5.533-2.591 2.503 2.503 0 0 0-.106.06l-3.585 2.07a.582.582 0 0 0-.294.51l-.003 5.05v.001Zm.823-1.774L12 9.75l1.949 1.125v2.25l-1.95 1.125-1.949-1.125v-2.25Z" fill="#F70431"/></g><circle cx="12" cy="12" r="11" stroke="#F70431" stroke-width="2"/><path stroke="#F70431" stroke-width="2" d="m19.707 4.707-15 15"/></g><defs><clipPath id="a"><path fill="#fff" d="M0 0h24v24H0z"/></clipPath><clipPath id="b"><path fill="#fff" transform="translate(3 3)" d="M0 0h18v18H0z"/></clipPath></defs></svg>