<svg width="24" height="24" fill="none" xmlns="http://www.w3.org/2000/svg"><g clip-path="url(#a)"><path d="M17.672 11.344a6.335 6.335 0 0 0-6.328 6.328A6.335 6.335 0 0 0 17.672 24 6.335 6.335 0 0 0 24 17.672a6.335 6.335 0 0 0-6.328-6.328ZM14.156.412v3.807h3.807L14.156.412Z" fill="#F70431"/><path d="M12.75 5.625V0H0v24h13.239a7.726 7.726 0 0 1-3.302-6.328c0-4.265 3.47-7.735 7.735-7.735.237 0 .471.015.703.036V5.625H12.75ZM5.016 20.072l-2.4-2.4.993-.994 1.407 1.406 2.812-2.813.994.995-3.806 3.806Zm0-5.625-2.4-2.4.993-.994 1.407 1.406 2.812-2.813.994.995-3.806 3.806Zm0-5.625-2.4-2.4.993-.994 1.407 1.406L7.828 4.02l.994.995-3.806 3.806Z" fill="#F70431"/><path d="M18.165 15.22c-.43 0-.783.128-1.057.385-.272.256-.454.643-.545 1.162h2.087v.705h-2.156l-.009.206v.252l.01.179h1.867v.7h-1.79c.195.952.75 1.428 1.666 1.428.437 0 .884-.094 1.341-.284v.93c-.4.186-.865.279-1.396.279-.735 0-1.333-.202-1.794-.604-.458-.403-.757-.986-.897-1.749h-.696v-.7h.623l-.01-.17v-.17l.01-.297h-.623v-.705h.687c.115-.766.407-1.367.874-1.803.467-.437 1.07-.655 1.808-.655.61 0 1.157.134 1.639.403l-.385.856c-.47-.232-.888-.348-1.254-.348Z" fill="#fff"/></g><defs><clipPath id="a"><path fill="#fff" d="M0 0h24v24H0z"/></clipPath></defs></svg>