<svg width="638" height="478" viewBox="0 0 638 478" fill="none" xmlns="http://www.w3.org/2000/svg">
<g clip-path="url(#clip0_1170_5322)">
<path d="M596.103 294.185L620.231 309.09L609.317 427.8H529.598L596.103 294.185Z" fill="#ECF3FE"/>
<path d="M507.167 416.487L38.4414 199.823L143.773 0L587.313 264.441L507.167 416.487Z" fill="white"/>
<path d="M399.353 173.873H399.268L256.476 145.898C256.42 145.888 256.366 145.866 256.319 145.835C256.271 145.803 256.23 145.763 256.198 145.715C256.166 145.668 256.144 145.615 256.133 145.559C256.122 145.503 256.122 145.445 256.134 145.389C256.145 145.333 256.166 145.279 256.198 145.231C256.23 145.183 256.27 145.142 256.318 145.11C256.366 145.078 256.419 145.056 256.475 145.044C256.531 145.033 256.589 145.032 256.646 145.043L399.434 173.018C399.539 173.04 399.632 173.1 399.696 173.186C399.76 173.273 399.789 173.38 399.779 173.487C399.769 173.593 399.72 173.693 399.641 173.766C399.563 173.839 399.46 173.88 399.353 173.882V173.873Z" fill="#002E5D"/>
<path d="M336.483 232.877C336.398 232.878 336.314 232.853 336.244 232.805L226.242 159.816C226.189 159.787 226.143 159.747 226.106 159.7C226.069 159.652 226.043 159.597 226.028 159.538C226.014 159.479 226.012 159.418 226.022 159.359C226.032 159.299 226.055 159.243 226.088 159.192C226.122 159.142 226.165 159.099 226.216 159.066C226.266 159.034 226.323 159.012 226.383 159.002C226.442 158.993 226.503 158.996 226.562 159.011C226.62 159.026 226.675 159.053 226.722 159.09L336.724 232.079C336.801 232.131 336.86 232.207 336.891 232.294C336.922 232.382 336.924 232.478 336.897 232.567C336.87 232.656 336.815 232.734 336.741 232.79C336.666 232.846 336.576 232.876 336.483 232.877Z" fill="#002E5D"/>
<path d="M586.742 78.1182L594.594 65.4919L579.77 46.8873L565.724 51.7247L549.32 42.6597L545.941 28.1789L522.31 25.5166L515.796 38.8784L497.812 44.0678L485.192 36.2098L466.605 51.0457L471.429 65.1147L462.368 81.5191L447.902 84.9012C446.573 96.7102 446.57 96.7417 445.238 108.548L458.59 115.067L463.775 133.08L455.923 145.71L470.748 164.314L484.796 159.477L501.188 168.545L504.567 183.023L528.192 185.688L534.709 172.323L552.709 167.137L565.326 174.995L583.919 160.159L579.082 146.099L588.143 129.695L602.61 126.313C603.941 114.504 603.944 114.472 605.273 102.663L591.922 96.1445L586.742 78.1182ZM533.758 135.158C527.919 136.841 521.712 136.754 515.923 134.907C510.134 133.06 505.021 129.537 501.233 124.782C497.445 120.028 495.15 114.256 494.639 108.196C494.129 102.137 495.425 96.0616 498.364 90.7393C501.304 85.4171 505.754 81.0866 511.152 78.2955C516.551 75.5044 522.655 74.3781 528.693 75.0589C534.732 75.7397 540.432 78.1971 545.075 82.1204C549.718 86.0437 553.093 91.2566 554.776 97.1C555.893 100.98 556.236 105.042 555.784 109.055C555.333 113.068 554.096 116.952 552.144 120.486C550.192 124.02 547.564 127.135 544.409 129.652C541.254 132.17 537.635 134.041 533.758 135.158Z" fill="white"/>
<path d="M521.084 176.79H521.052L497.409 174.134C497.319 174.123 497.236 174.085 497.168 174.026C497.101 173.966 497.053 173.888 497.032 173.801L493.696 159.512L477.644 150.629L463.78 155.406C463.695 155.436 463.603 155.438 463.516 155.413C463.429 155.387 463.353 155.336 463.297 155.265L448.472 136.66C448.416 136.59 448.383 136.504 448.378 136.413C448.373 136.323 448.396 136.234 448.444 136.157L456.18 123.695L451.104 106.052L437.913 99.6208C437.832 99.5815 437.764 99.5176 437.721 99.4381C437.678 99.3586 437.66 99.2675 437.671 99.1776L440.335 75.5313C440.344 75.442 440.381 75.3579 440.441 75.2909C440.501 75.2238 440.58 75.1771 440.667 75.1573L454.945 71.8192L463.818 55.7511L459.047 41.877C459.018 41.7916 459.016 41.6992 459.041 41.6125C459.066 41.5258 459.118 41.4491 459.189 41.3929L477.776 26.557C477.846 26.5014 477.933 26.4688 478.022 26.4638C478.112 26.4587 478.202 26.4814 478.278 26.5287L490.744 34.261L508.373 29.1784L514.802 15.977C514.842 15.8966 514.906 15.8303 514.984 15.787C515.063 15.7438 515.153 15.7256 515.242 15.7349L538.873 18.4004C538.962 18.41 539.046 18.4472 539.113 18.507C539.18 18.5667 539.227 18.646 539.247 18.7336L542.579 33.0226L557.435 41.2389L558.635 41.9021L572.501 37.1276C572.586 37.0985 572.678 37.0965 572.764 37.1218C572.85 37.1472 572.926 37.1986 572.982 37.269L587.809 55.8737C587.865 55.9445 587.897 56.0308 587.902 56.1207C587.908 56.2106 587.885 56.3 587.838 56.3766L580.099 68.852L585.177 86.4917L598.353 92.9258C598.434 92.9652 598.501 93.0286 598.544 93.1073C598.588 93.186 598.607 93.2762 598.598 93.3659L595.934 117.015C595.924 117.105 595.886 117.189 595.826 117.256C595.766 117.323 595.686 117.37 595.598 117.389L581.32 120.727L580.692 121.846C577.552 127.504 575.749 130.795 572.432 136.796L577.206 150.67C577.236 150.755 577.239 150.847 577.214 150.934C577.19 151.021 577.138 151.097 577.068 151.154L558.475 165.99C558.404 166.045 558.319 166.078 558.229 166.083C558.14 166.088 558.051 166.065 557.975 166.018L545.519 158.273L527.893 163.356L521.464 176.557C521.427 176.626 521.372 176.684 521.305 176.725C521.239 176.766 521.162 176.788 521.084 176.79ZM497.811 173.288L520.826 175.884L527.205 162.799C527.232 162.745 527.271 162.696 527.318 162.657C527.365 162.618 527.419 162.589 527.478 162.573L545.478 157.384C545.536 157.366 545.597 157.361 545.657 157.37C545.718 157.378 545.775 157.399 545.827 157.431L558.186 165.116L576.295 150.657L571.559 136.89C571.539 136.832 571.531 136.771 571.537 136.71C571.542 136.65 571.561 136.591 571.59 136.538L579.942 121.416L580.652 120.13C580.681 120.077 580.722 120.031 580.771 119.994C580.819 119.957 580.875 119.931 580.934 119.917L595.102 116.613L597.696 93.5796L584.621 87.1926C584.566 87.1666 584.517 87.129 584.477 87.0824C584.438 87.0357 584.409 86.9811 584.392 86.9223L579.207 68.9086C579.19 68.8502 579.186 68.7889 579.194 68.7287C579.203 68.6685 579.224 68.6109 579.257 68.5597L586.936 56.1943L572.489 38.0674L558.741 42.8042C558.684 42.8234 558.623 42.8305 558.562 42.8251C558.502 42.8197 558.443 42.8019 558.39 42.7728L557.017 42.0153C551.364 38.8721 548.069 37.0647 541.995 33.7078C541.942 33.6776 541.896 33.6369 541.859 33.5883C541.822 33.5397 541.796 33.4841 541.781 33.4249L538.474 19.2459L515.449 16.659L509.07 29.7348C509.044 29.7897 509.006 29.8383 508.96 29.8773C508.913 29.9164 508.859 29.945 508.8 29.9611L490.8 35.1505C490.742 35.168 490.68 35.1728 490.619 35.1646C490.559 35.1565 490.501 35.1356 490.449 35.1034L478.093 27.4182L459.983 41.877L464.719 55.6442C464.739 55.7019 464.746 55.763 464.74 55.8235C464.735 55.8841 464.717 55.9429 464.688 55.9963L455.627 72.4038C455.597 72.457 455.557 72.5034 455.508 72.5402C455.459 72.577 455.404 72.6033 455.344 72.6175L441.179 75.9305L438.585 98.9639L451.66 105.348C451.715 105.374 451.763 105.412 451.802 105.459C451.841 105.505 451.87 105.56 451.886 105.618L457.072 123.632C457.089 123.691 457.093 123.753 457.084 123.813C457.076 123.874 457.054 123.932 457.021 123.984L449.345 136.349L463.793 154.473L477.549 149.736C477.607 149.716 477.668 149.709 477.729 149.714C477.789 149.719 477.848 149.738 477.901 149.768L494.296 158.833C494.349 158.862 494.396 158.903 494.432 158.952C494.469 159 494.495 159.056 494.51 159.115L497.811 173.288ZM518.15 127.454C510.26 127.461 502.661 124.474 496.885 119.095C491.109 113.716 487.586 106.345 487.027 98.4688C486.468 90.5925 488.914 82.797 493.871 76.6546C498.829 70.5121 505.93 66.4797 513.742 65.3706C521.554 64.2615 529.495 66.1582 535.965 70.6783C542.434 75.1983 546.95 82.0054 548.602 89.7265C550.254 97.4477 548.918 105.508 544.865 112.283C540.812 119.058 534.343 124.042 526.762 126.231C523.963 127.039 521.064 127.451 518.15 127.454ZM518.182 65.9445C513.844 65.9381 509.555 66.8641 505.606 68.6599C501.657 70.4557 498.139 73.0794 495.29 76.3534C492.442 79.6275 490.329 83.4756 489.096 87.6374C487.862 91.7993 487.535 96.1778 488.139 100.477C488.742 104.776 490.261 108.895 492.592 112.556C494.924 116.216 498.014 119.333 501.653 121.696C505.292 124.058 509.396 125.61 513.687 126.248C517.978 126.886 522.355 126.594 526.524 125.392C533.531 123.366 539.572 118.878 543.539 112.753C547.505 106.628 549.131 99.2757 548.116 92.0474C547.102 84.8191 543.516 78.1996 538.017 73.4045C532.518 68.6094 525.475 65.9606 518.182 65.9445Z" fill="#002E5D"/>
<path d="M149.061 326.378L156.913 313.752L142.076 295.147L128.031 299.985L111.636 290.92L108.256 276.439L84.6284 273.773L78.1144 287.135L60.1147 292.318L47.4951 284.46L28.8954 299.315L33.7416 313.378L24.6805 329.782L10.2142 333.164C8.88561 344.973 8.87933 345.005 7.55078 356.814L20.9022 363.33L26.0876 381.343L18.2357 393.973L33.0601 412.577L47.1119 407.737L63.5067 416.805L66.8987 431.283L90.5236 433.948L97.0376 420.586L115.037 415.397L127.657 423.255L146.25 408.419L141.413 394.359L150.475 377.955L164.941 374.573C166.273 362.764 166.276 362.732 167.604 350.926L154.253 344.404L149.061 326.378ZM96.0765 383.405C90.2374 385.089 84.0307 385.001 78.2412 383.155C72.4516 381.308 67.3394 377.784 63.5508 373.03C59.7623 368.275 57.4677 362.503 56.9572 356.443C56.4467 350.383 57.7432 344.308 60.6828 338.986C63.6223 333.664 68.0729 329.333 73.4717 326.542C78.8705 323.751 84.975 322.625 91.0133 323.307C97.0516 323.988 102.752 326.446 107.395 330.37C112.037 334.293 115.413 339.507 117.094 345.35C118.212 349.23 118.555 353.292 118.103 357.305C117.652 361.317 116.414 365.201 114.463 368.735C112.511 372.269 109.883 375.384 106.728 377.901C103.573 380.418 99.9537 382.288 96.0765 383.405Z" fill="white"/>
<path d="M120.536 414.344C120.455 414.344 120.376 414.321 120.307 414.278L107.851 406.533L98.8118 409.139C98.701 409.171 98.582 409.157 98.481 409.102C98.38 409.046 98.3052 408.952 98.2731 408.842C98.2411 408.731 98.2543 408.612 98.31 408.51C98.3656 408.409 98.4591 408.335 98.5699 408.302L107.798 405.643C107.856 405.627 107.917 405.622 107.977 405.63C108.037 405.639 108.094 405.659 108.146 405.69L120.505 413.376L138.615 398.917L133.878 385.15C133.858 385.092 133.851 385.031 133.856 384.97C133.862 384.91 133.88 384.851 133.91 384.798L141.586 370.898L142.971 368.384C143.001 368.331 143.041 368.284 143.09 368.247C143.139 368.211 143.194 368.184 143.254 368.17L157.422 364.857L160.016 341.824L146.941 335.44C146.886 335.413 146.837 335.375 146.797 335.327C146.758 335.28 146.729 335.225 146.712 335.166L141.526 317.153C141.509 317.094 141.505 317.033 141.514 316.973C141.522 316.913 141.544 316.855 141.576 316.804L149.253 304.438L134.805 286.315L121.055 291.061C120.997 291.081 120.936 291.088 120.875 291.083C120.815 291.077 120.756 291.059 120.703 291.029L104.308 281.964C104.208 281.908 104.133 281.813 104.102 281.702C104.07 281.591 104.083 281.472 104.139 281.37C104.166 281.32 104.203 281.276 104.248 281.241C104.292 281.205 104.344 281.178 104.398 281.163C104.453 281.147 104.511 281.142 104.568 281.149C104.624 281.155 104.679 281.173 104.729 281.201L120.957 290.174L134.821 285.403C134.906 285.374 134.997 285.372 135.083 285.397C135.169 285.423 135.246 285.474 135.301 285.545L150.129 304.146C150.184 304.217 150.217 304.303 150.222 304.393C150.227 304.483 150.204 304.572 150.157 304.649L142.418 317.112L147.497 334.751L160.672 341.186C160.753 341.225 160.82 341.288 160.863 341.367C160.907 341.446 160.924 341.536 160.914 341.626L158.254 365.275C158.244 365.365 158.206 365.449 158.146 365.516C158.085 365.583 158.006 365.63 157.918 365.649L143.64 368.987L142.349 371.326C139.617 376.276 137.836 379.498 134.764 385.055L139.538 398.929C139.568 399.015 139.57 399.107 139.546 399.193C139.521 399.28 139.47 399.357 139.4 399.413L120.807 414.249C120.73 414.311 120.635 414.344 120.536 414.344ZM25.9554 403.676C25.8901 403.676 25.8257 403.661 25.767 403.633C25.7082 403.605 25.6566 403.563 25.6162 403.512L10.7917 384.908C10.7353 384.837 10.7019 384.751 10.6963 384.661C10.6907 384.571 10.713 384.481 10.7603 384.405L18.4992 371.942L13.4206 354.299L0.245032 347.868C0.163538 347.829 0.0963975 347.765 0.0530268 347.685C0.00965621 347.606 -0.00776971 347.515 0.00319277 347.425L2.66656 323.779C2.67615 323.689 2.71339 323.605 2.77309 323.538C2.83279 323.471 2.91195 323.424 2.99949 323.404L17.2743 320.066L26.1469 303.998L21.3793 290.118C21.3499 290.033 21.3478 289.94 21.3731 289.853C21.3984 289.767 21.4499 289.69 21.5206 289.634L40.1077 274.798C40.1785 274.742 40.2646 274.71 40.3545 274.705C40.4444 274.7 40.5336 274.722 40.6102 274.77L53.079 282.521L70.7082 277.438L77.1373 264.237C77.1598 264.181 77.1934 264.131 77.2362 264.089C77.279 264.047 77.33 264.014 77.386 263.992C77.442 263.971 77.5018 263.961 77.5618 263.964C77.6217 263.967 77.6804 263.982 77.7342 264.008C77.7881 264.034 77.8359 264.072 77.8748 264.117C77.9136 264.163 77.9426 264.216 77.96 264.274C77.9774 264.331 77.9827 264.392 77.9757 264.451C77.9688 264.511 77.9496 264.568 77.9194 264.62L71.3897 277.995C71.3632 278.05 71.3255 278.098 71.279 278.138C71.2324 278.177 71.1782 278.207 71.1196 278.224L53.1199 283.41C53.0612 283.428 52.9996 283.433 52.9389 283.424C52.8783 283.416 52.8201 283.395 52.7681 283.363L40.4123 275.678L22.2995 290.118L27.0358 303.885C27.0596 303.946 27.0698 304.011 27.0654 304.077C27.0611 304.142 27.0424 304.205 27.0107 304.262L17.9495 320.67C17.9197 320.723 17.8791 320.769 17.8305 320.806C17.7819 320.843 17.7262 320.869 17.6669 320.884L3.49887 324.197L0.907734 347.23L13.9765 353.611C14.0318 353.637 14.0809 353.674 14.1204 353.721C14.16 353.768 14.1891 353.822 14.2057 353.881L19.3912 371.895C19.4081 371.954 19.4124 372.015 19.4037 372.076C19.3951 372.137 19.3737 372.195 19.3409 372.247L11.6649 384.603L26.1124 402.726L39.869 397.99C39.9243 397.965 39.984 397.953 40.0444 397.953C40.1048 397.953 40.1646 397.965 40.2199 397.989C40.2752 398.014 40.3249 398.049 40.3659 398.093C40.4068 398.138 40.4381 398.19 40.4577 398.248C40.4773 398.305 40.4849 398.365 40.4799 398.426C40.4749 398.486 40.4575 398.544 40.4287 398.598C40.3999 398.651 40.3605 398.697 40.3128 398.734C40.2651 398.772 40.2102 398.798 40.1516 398.813L26.1061 403.654C26.0575 403.67 26.0065 403.677 25.9554 403.676ZM80.4037 375.723C72.4954 375.727 64.8795 372.731 59.0916 367.338C53.3037 361.944 49.7741 354.556 49.2146 346.661C48.6551 338.766 51.1071 330.953 56.0765 324.796C61.0458 318.639 68.1628 314.597 75.9925 313.484C83.8223 312.371 91.7825 314.27 98.2683 318.799C104.754 323.328 109.283 330.149 110.942 337.887C112.601 345.625 111.267 353.706 107.208 360.498C103.15 367.291 96.669 372.291 89.0722 374.491C86.2547 375.306 83.3366 375.721 80.4037 375.723ZM80.4383 314.214C74.0865 314.216 67.8963 316.217 62.7432 319.934C57.5901 323.65 53.7349 328.894 51.723 334.923C49.7111 340.952 49.6443 347.462 51.532 353.532C53.4197 359.601 57.1665 364.923 62.2422 368.745C67.318 372.566 73.4658 374.694 79.8162 374.827C86.1665 374.96 92.398 373.092 97.6291 369.486C102.86 365.88 106.826 360.72 108.966 354.735C111.106 348.75 111.311 342.243 109.553 336.134C107.746 329.809 103.926 324.246 98.6734 320.29C93.4206 316.334 87.0217 314.2 80.4477 314.214H80.4383Z" fill="#002E5D"/>
<path d="M402.963 431.974L262.624 396.585C261.037 396.185 259.545 395.477 258.232 394.5C256.919 393.523 255.811 392.297 254.971 390.891C254.132 389.486 253.577 387.929 253.339 386.309C253.102 384.689 253.185 383.038 253.584 381.45L323.702 102.934C324.51 99.7273 326.557 96.9732 329.394 95.2773C332.23 93.5815 335.624 93.0827 338.828 93.8907L479.18 129.28C480.766 129.68 482.259 130.388 483.572 131.365C484.885 132.342 485.992 133.568 486.832 134.973C487.671 136.379 488.226 137.936 488.464 139.556C488.702 141.176 488.618 142.827 488.219 144.415L418.101 422.931C417.701 424.52 416.992 426.015 416.015 427.329C415.037 428.644 413.811 429.753 412.405 430.593C410.999 431.433 409.441 431.987 407.821 432.224C406.201 432.461 404.55 432.376 402.963 431.974Z" fill="white"/>
<path d="M475.587 147.897L345.622 115.126C344.354 114.807 343.011 115.005 341.889 115.677C340.767 116.348 339.956 117.438 339.636 118.706L272.138 386.822C271.818 388.091 272.015 389.435 272.686 390.558C273.356 391.681 274.444 392.493 275.712 392.813L405.677 425.59C406.305 425.749 406.958 425.782 407.599 425.687C408.239 425.593 408.855 425.373 409.411 425.041C409.967 424.709 410.452 424.27 410.839 423.75C411.225 423.23 411.505 422.639 411.663 422.01L479.162 153.895C479.321 153.266 479.355 152.612 479.261 151.97C479.168 151.329 478.949 150.712 478.617 150.155C478.285 149.598 477.846 149.112 477.327 148.724C476.807 148.337 476.216 148.056 475.587 147.897Z" fill="white"/>
<path d="M445.479 359.457C441.167 361.184 436.44 361.589 431.898 360.62C431.565 360.551 431.229 360.476 430.89 360.388L255.99 316.288C238.245 311.806 231.998 289.804 244.74 276.656L307.722 211.708L310.234 209.118L325.668 193.2L328.181 190.61L370.355 147.118C383.097 133.979 405.274 139.574 410.274 157.176L448.877 293.179L455.919 317.989L459.562 330.822C463.105 343.298 456.142 355.182 445.479 359.457Z" fill="#F70431"/>
<g style="mix-blend-mode:multiply" opacity="0.25">
<path d="M328.183 190.61L303.647 288.062L290.309 288.263L310.234 209.118L328.183 190.61Z" fill="#325D9C"/>
</g>
<g style="mix-blend-mode:multiply" opacity="0.25">
<path d="M455.919 317.989L445.479 359.457C441.168 361.184 436.44 361.589 431.898 360.62L448.877 293.179L455.919 317.989Z" fill="#325D9C"/>
</g>
<path d="M483.93 136.704L343.575 101.315C341.989 100.915 340.34 100.832 338.721 101.07C337.103 101.308 335.548 101.862 334.143 102.702C332.739 103.542 331.514 104.65 330.538 105.964C329.563 107.277 328.855 108.771 328.455 110.358L285.735 280.06L299.07 279.859L339.64 118.722C339.958 117.456 340.765 116.368 341.884 115.697C343.002 115.026 344.342 114.826 345.607 115.142L475.569 147.91C476.197 148.068 476.788 148.348 477.308 148.735C477.828 149.121 478.266 149.607 478.599 150.163C478.931 150.72 479.15 151.336 479.244 151.977C479.338 152.619 479.305 153.272 479.146 153.901L434.491 331.278L411.648 422.016C411.328 423.285 410.518 424.375 409.395 425.046C408.273 425.717 406.93 425.915 405.662 425.596L275.716 392.816C274.448 392.496 273.359 391.685 272.688 390.561C272.017 389.438 271.82 388.094 272.138 386.825L285.559 333.522L272.22 333.721L258.335 388.874C257.935 390.462 257.852 392.113 258.089 393.732C258.327 395.352 258.881 396.909 259.72 398.315C260.559 399.72 261.667 400.946 262.98 401.923C264.292 402.9 265.784 403.609 267.371 404.009L407.725 439.398C409.312 439.798 410.961 439.882 412.58 439.644C414.198 439.406 415.754 438.851 417.158 438.011C418.563 437.172 419.788 436.063 420.764 434.75C421.74 433.436 422.448 431.943 422.848 430.355L447.845 331.068L492.966 151.839C493.365 150.251 493.449 148.601 493.211 146.981C492.973 145.361 492.419 143.804 491.58 142.399C490.741 140.993 489.633 139.767 488.321 138.79C487.008 137.813 485.516 137.104 483.93 136.704Z" fill="#C9DAF4"/>
<path d="M406.016 432.791C404.957 432.789 403.902 432.657 402.875 432.398L262.514 397.009C259.2 396.169 256.354 394.049 254.601 391.112C252.847 388.175 252.33 384.662 253.161 381.343L323.279 102.827C324.115 99.5084 326.233 96.6581 329.169 94.9028C332.104 93.1474 335.616 92.6307 338.932 93.4664L479.281 128.871C482.594 129.712 485.44 131.833 487.193 134.769C488.946 137.706 489.465 141.219 488.634 144.537L418.516 423.054C417.809 425.835 416.197 428.302 413.933 430.066C411.67 431.829 408.884 432.788 406.016 432.791ZM403.079 431.553C406.171 432.33 409.445 431.847 412.181 430.21C414.918 428.574 416.893 425.917 417.675 422.824L487.792 144.311C488.568 141.217 488.086 137.94 486.451 135.202C484.815 132.463 482.161 130.486 479.07 129.704L338.719 94.315C337.188 93.9287 335.596 93.8479 334.035 94.0774C332.473 94.3068 330.972 94.842 329.616 95.6523C328.261 96.4626 327.079 97.5321 326.137 98.7998C325.195 100.068 324.512 101.509 324.127 103.041L254.006 381.557C253.228 384.651 253.709 387.927 255.344 390.666C256.979 393.405 259.634 395.383 262.725 396.163L403.079 431.553Z" fill="#002E5D"/>
<path d="M637.577 440.282H501.142C501.081 440.287 501.021 440.279 500.963 440.26C500.906 440.24 500.854 440.209 500.809 440.168C500.765 440.127 500.729 440.077 500.705 440.022C500.681 439.967 500.668 439.907 500.668 439.846C500.668 439.786 500.681 439.726 500.705 439.67C500.729 439.615 500.765 439.565 500.809 439.524C500.854 439.484 500.906 439.452 500.963 439.433C501.021 439.413 501.081 439.406 501.142 439.411H637.577C637.686 439.42 637.787 439.47 637.861 439.551C637.935 439.631 637.976 439.737 637.976 439.846C637.976 439.956 637.935 440.061 637.861 440.142C637.787 440.222 637.686 440.272 637.577 440.282Z" fill="#002E5D"/>
<path d="M534.015 217.362L559.562 226.427L556.211 256.225L546.927 255.266V263.504L553.243 267.723L569.528 338.055L581.472 431.355L580.985 431.465L583.975 439.848H560.021L561.465 436.833H571.582L574.308 432.845L574.019 431.465L550.545 350.986L535.246 376.562L546.917 431.421L546.38 431.433L549.421 439.848H525.438L526.82 436.824H536.974L539.7 432.948L540.105 431.506H539.279L520.215 378.002L529.596 327.679L522.325 296.008L459.422 284.199L463.913 263.165L465.562 263.734L466.489 277.19L517.953 277.099L516.863 272.224L517.269 267.496L470.911 240.895L476.081 219.911L477.582 220.832L476.837 235.395L534.455 259.481L536.035 254.307L529.404 250.092L537.31 229.998L533.045 228.587L534.015 217.362Z" fill="white"/>
<path d="M533.71 219.911L554.969 229.168L554.555 256.046L544.2 254.895L548.254 233.572L533.047 228.586L533.71 219.911Z" fill="#325D9C"/>
<path d="M546.304 232.93L537.629 255.338L529.406 250.092L537.312 229.998L546.304 232.93Z" fill="#FDC8AA"/>
<path d="M526.391 262.942L550.547 274.235L559.348 317.351L536.637 325.303L527.701 273.415L522.484 270.382L526.391 262.942Z" fill="#3B82F4"/>
<path d="M526.391 262.942L476.845 239.641L476.839 235.395L477.583 220.832L476.082 219.911L470.969 240.883L522.484 270.485L526.391 262.942Z" fill="#FDC8AA"/>
<path d="M510.199 283.568L519.427 283.385L522.326 296.008L512.385 294.185L510.199 283.568Z" fill="#3B82F4"/>
<path d="M510.199 283.568L466.074 280.657L466.489 277.19L465.562 263.734L463.913 263.165L459.422 284.199L512.385 294.185L510.199 283.568Z" fill="#FDC8AA"/>
<path d="M547.391 321.538L559.344 317.351L564.335 315.616L569.527 338.055L581.471 431.355H577.944L547.391 321.538Z" fill="#325D9C"/>
<path d="M534.457 259.481L535.977 254.235L540.227 256.992L540.286 261.936L534.457 259.481Z" fill="#FDC8AA"/>
<path d="M545.812 334.946L550.545 350.977L535.246 376.556L546.914 431.415L543.067 431.446L528.227 378.156C527.737 376.395 527.881 374.518 528.635 372.853L545.812 334.946Z" fill="#325D9C"/>
<path d="M556.21 256.662H556.166L544.102 255.404C544.042 255.398 543.984 255.379 543.932 255.349C543.88 255.32 543.834 255.279 543.798 255.231C543.762 255.182 543.736 255.127 543.723 255.068C543.709 255.009 543.708 254.948 543.719 254.889L547.765 233.807L532.909 229.039C532.813 229.011 532.73 228.951 532.673 228.869C532.616 228.788 532.588 228.689 532.595 228.59L533.458 217.274C533.465 217.211 533.486 217.149 533.52 217.095C533.554 217.04 533.599 216.994 533.653 216.96C533.709 216.923 533.773 216.9 533.839 216.892C533.906 216.883 533.973 216.891 534.036 216.913L559.696 226.028C559.788 226.062 559.866 226.125 559.918 226.208C559.97 226.291 559.992 226.389 559.982 226.487L556.631 256.284C556.617 256.387 556.567 256.481 556.49 256.55C556.413 256.619 556.313 256.659 556.21 256.662ZM544.665 254.6L555.827 255.753L559.09 226.729L534.294 217.928L533.502 228.323L548.399 233.103C548.5 233.137 548.586 233.206 548.64 233.298C548.693 233.39 548.712 233.498 548.691 233.603L544.665 254.6Z" fill="#002E5D"/>
<path d="M540.211 257.429C540.128 257.429 540.047 257.406 539.976 257.363L529.159 250.463C529.074 250.409 529.01 250.326 528.979 250.23C528.947 250.134 528.95 250.03 528.986 249.935L536.888 229.844C536.907 229.788 536.937 229.736 536.976 229.691C537.015 229.647 537.063 229.611 537.116 229.585C537.17 229.56 537.228 229.546 537.287 229.544C537.346 229.541 537.405 229.551 537.461 229.573C537.516 229.594 537.566 229.626 537.608 229.668C537.651 229.709 537.684 229.759 537.707 229.813C537.729 229.868 537.741 229.927 537.74 229.986C537.739 230.046 537.726 230.104 537.702 230.158L529.941 249.916L540.456 256.624C540.539 256.674 540.603 256.75 540.637 256.84C540.672 256.93 540.675 257.029 540.647 257.122C540.619 257.214 540.561 257.295 540.482 257.35C540.403 257.406 540.308 257.433 540.211 257.429Z" fill="#002E5D"/>
<path d="M581.485 431.899H574.02C573.925 431.899 573.833 431.869 573.758 431.812C573.682 431.755 573.628 431.675 573.602 431.584L546.494 338.696C546.462 338.585 546.475 338.465 546.53 338.364C546.586 338.262 546.68 338.187 546.791 338.154C546.902 338.121 547.022 338.134 547.123 338.19C547.225 338.246 547.3 338.34 547.333 338.451L574.343 431.028H580.989L569.186 338.523L552.854 268.005L546.679 263.885C546.619 263.845 546.57 263.791 546.536 263.727C546.502 263.663 546.484 263.592 546.485 263.52V257.485C546.48 257.425 546.487 257.364 546.507 257.307C546.526 257.25 546.557 257.197 546.598 257.153C546.639 257.108 546.689 257.072 546.744 257.048C546.799 257.024 546.859 257.011 546.92 257.011C546.98 257.011 547.04 257.024 547.095 257.048C547.151 257.072 547.2 257.108 547.241 257.153C547.282 257.197 547.313 257.25 547.333 257.307C547.352 257.364 547.36 257.425 547.355 257.485V263.288L553.479 267.374C553.572 267.434 553.638 267.529 553.661 267.638L570.034 338.36C570.036 338.375 570.036 338.389 570.034 338.404L581.906 431.443C581.914 431.504 581.909 431.566 581.891 431.625C581.873 431.684 581.843 431.739 581.803 431.785C581.716 431.863 581.602 431.904 581.485 431.899Z" fill="#002E5D"/>
<path d="M541.369 281.763C541.293 281.763 541.218 281.743 541.153 281.704L470.693 241.273C470.61 241.225 470.545 241.153 470.508 241.065C470.471 240.978 470.463 240.881 470.485 240.788L475.655 219.808C475.672 219.741 475.704 219.679 475.749 219.627C475.794 219.574 475.85 219.534 475.914 219.508C475.978 219.482 476.046 219.471 476.115 219.477C476.184 219.482 476.25 219.504 476.308 219.54L477.841 220.483C477.907 220.524 477.961 220.583 477.997 220.652C478.033 220.721 478.05 220.798 478.045 220.876L477.295 235.021L540.389 261.442C540.446 261.462 540.498 261.493 540.541 261.533C540.585 261.574 540.621 261.622 540.645 261.677C540.669 261.731 540.682 261.79 540.683 261.85C540.684 261.91 540.672 261.969 540.649 262.024C540.626 262.079 540.592 262.129 540.549 262.17C540.506 262.211 540.455 262.244 540.4 262.264C540.344 262.285 540.284 262.295 540.225 262.292C540.165 262.289 540.107 262.274 540.053 262.247L476.676 235.74C476.593 235.705 476.523 235.645 476.475 235.569C476.427 235.492 476.404 235.403 476.409 235.313L477.16 221.103L476.359 220.6L471.409 240.678L541.589 280.949C541.672 280.998 541.737 281.072 541.773 281.161C541.809 281.25 541.815 281.348 541.79 281.44C541.765 281.533 541.711 281.615 541.634 281.673C541.558 281.732 541.465 281.763 541.369 281.763Z" fill="#002E5D"/>
<path d="M522.484 270.922C522.415 270.922 522.347 270.906 522.286 270.875C522.235 270.85 522.189 270.814 522.152 270.771C522.115 270.727 522.086 270.677 522.068 270.623C522.051 270.568 522.044 270.511 522.048 270.454C522.053 270.397 522.068 270.342 522.094 270.291L527.151 260.267C527.206 260.169 527.297 260.096 527.404 260.063C527.512 260.03 527.628 260.04 527.728 260.091C527.828 260.141 527.905 260.229 527.943 260.335C527.98 260.441 527.976 260.557 527.93 260.66L522.873 270.684C522.836 270.755 522.78 270.815 522.711 270.857C522.643 270.899 522.564 270.922 522.484 270.922Z" fill="#002E5D"/>
<path d="M546.925 431.899H539.271C539.181 431.899 539.093 431.871 539.019 431.819C538.945 431.767 538.89 431.694 538.859 431.609L519.798 378.147C519.773 378.074 519.766 377.996 519.779 377.92L529.148 327.805L516.434 272.321C516.419 272.213 516.444 272.102 516.506 272.012C516.568 271.922 516.662 271.858 516.769 271.833C516.875 271.809 516.987 271.825 517.082 271.88C517.177 271.934 517.249 272.022 517.282 272.126L530.015 327.698C530.027 327.756 530.027 327.816 530.015 327.874L520.652 377.964L539.585 431.028H546.397L534.83 376.65C534.807 376.543 534.827 376.431 534.883 376.336L550.182 350.76C550.208 350.706 550.246 350.658 550.292 350.619C550.338 350.58 550.392 350.552 550.449 350.535C550.507 350.517 550.568 350.513 550.628 350.52C550.687 350.528 550.745 350.548 550.797 350.578C550.848 350.609 550.893 350.651 550.928 350.7C550.963 350.749 550.988 350.804 551 350.863C551.013 350.922 551.013 350.983 551 351.042C550.988 351.101 550.964 351.157 550.929 351.206L535.718 376.638L547.361 431.371C547.375 431.434 547.375 431.5 547.359 431.563C547.344 431.626 547.315 431.685 547.273 431.735C547.231 431.787 547.178 431.829 547.118 431.857C547.057 431.885 546.991 431.9 546.925 431.899Z" fill="#002E5D"/>
<path d="M529.595 328.232C529.492 328.232 529.393 328.195 529.315 328.129C529.236 328.062 529.184 327.97 529.166 327.869C529.149 327.768 529.168 327.663 529.22 327.574C529.272 327.486 529.354 327.418 529.451 327.384L555.013 318.378C555.067 318.359 555.124 318.351 555.181 318.354C555.238 318.357 555.294 318.372 555.346 318.396C555.397 318.421 555.443 318.456 555.481 318.498C555.519 318.541 555.549 318.59 555.568 318.644C555.587 318.698 555.595 318.755 555.592 318.812C555.589 318.869 555.575 318.925 555.55 318.976C555.525 319.028 555.491 319.074 555.448 319.112C555.406 319.15 555.356 319.18 555.302 319.199L529.74 328.207C529.693 328.224 529.644 328.232 529.595 328.232Z" fill="#002E5D"/>
<path d="M522.324 296.496C522.297 296.499 522.27 296.499 522.242 296.496L459.339 284.639C459.282 284.629 459.227 284.607 459.178 284.574C459.13 284.542 459.088 284.5 459.056 284.451C459.025 284.403 459.003 284.349 458.992 284.292C458.981 284.235 458.982 284.177 458.994 284.121L463.494 263.039C463.508 262.979 463.534 262.922 463.571 262.873C463.608 262.823 463.655 262.782 463.709 262.752C463.763 262.723 463.823 262.705 463.885 262.7C463.946 262.695 464.008 262.704 464.066 262.725L465.693 263.297C465.773 263.326 465.843 263.378 465.894 263.446C465.945 263.514 465.976 263.596 465.982 263.68L466.839 276.747H517.996C518.112 276.747 518.223 276.793 518.305 276.875C518.387 276.957 518.433 277.068 518.433 277.184C518.433 277.3 518.387 277.411 518.305 277.493C518.223 277.575 518.112 277.621 517.996 277.621H466.434C466.323 277.621 466.216 277.579 466.135 277.503C466.054 277.427 466.005 277.323 465.998 277.212L465.146 264.029L464.258 263.715L459.955 283.869L522.421 295.647C522.526 295.669 522.62 295.729 522.683 295.815C522.747 295.902 522.776 296.009 522.766 296.116C522.756 296.222 522.707 296.322 522.628 296.395C522.55 296.468 522.447 296.509 522.34 296.511L522.324 296.496Z" fill="#002E5D"/>
<path d="M512.384 294.622C512.284 294.622 512.187 294.587 512.11 294.524C512.032 294.461 511.978 294.374 511.957 294.276L509.303 281.971C509.291 281.915 509.29 281.857 509.3 281.8C509.311 281.744 509.332 281.69 509.363 281.642C509.394 281.594 509.435 281.552 509.482 281.52C509.529 281.487 509.583 281.464 509.639 281.452C509.695 281.44 509.752 281.438 509.809 281.448C509.865 281.458 509.919 281.48 509.967 281.511C510.015 281.542 510.057 281.582 510.09 281.629C510.122 281.676 510.145 281.729 510.157 281.785L512.808 294.094C512.82 294.15 512.821 294.208 512.811 294.264C512.801 294.32 512.78 294.374 512.749 294.422C512.718 294.47 512.678 294.511 512.631 294.543C512.584 294.576 512.531 294.598 512.475 294.61C512.445 294.618 512.415 294.622 512.384 294.622Z" fill="#002E5D"/>
<path d="M549.369 440.282H525.481C525.407 440.281 525.336 440.263 525.271 440.228C525.207 440.192 525.153 440.142 525.113 440.08C525.075 440.018 525.052 439.946 525.048 439.873C525.043 439.799 525.057 439.726 525.088 439.659L526.476 436.736C526.512 436.662 526.567 436.599 526.637 436.555C526.706 436.511 526.787 436.488 526.869 436.488H536.693L539.291 432.716C539.358 432.627 539.458 432.567 539.569 432.549C539.679 432.531 539.792 432.557 539.885 432.62C539.977 432.684 540.042 432.78 540.065 432.89C540.088 432.999 540.068 433.114 540.01 433.209L537.28 437.186C537.241 437.244 537.187 437.291 537.125 437.324C537.062 437.357 536.993 437.374 536.922 437.374H527.145L526.172 439.423H548.751L546.517 433.106C546.498 433.052 546.49 432.995 546.493 432.938C546.496 432.881 546.511 432.825 546.535 432.773C546.56 432.722 546.594 432.676 546.637 432.637C546.679 432.599 546.729 432.57 546.783 432.551C546.837 432.532 546.894 432.524 546.951 432.527C547.008 432.53 547.064 432.544 547.115 432.569C547.166 432.593 547.213 432.628 547.251 432.67C547.289 432.713 547.318 432.763 547.337 432.816L549.778 439.713C549.801 439.778 549.809 439.849 549.8 439.918C549.79 439.987 549.765 440.053 549.725 440.11C549.685 440.167 549.631 440.213 549.57 440.245C549.508 440.278 549.439 440.294 549.369 440.294V440.282Z" fill="#002E5D"/>
<path d="M547.494 434.561L544.269 437.956L536.919 436.925H526.869L525.48 439.848H549.366L547.494 434.561Z" fill="#002E5D"/>
<path d="M583.977 440.282H560.107C560.032 440.282 559.959 440.264 559.894 440.228C559.828 440.193 559.773 440.141 559.734 440.078C559.694 440.015 559.672 439.942 559.668 439.868C559.665 439.793 559.681 439.719 559.714 439.653L561.099 436.73C561.135 436.655 561.191 436.593 561.261 436.549C561.331 436.505 561.412 436.481 561.495 436.481H571.307L573.907 432.71C573.973 432.614 574.073 432.549 574.187 432.528C574.3 432.508 574.417 432.533 574.512 432.598C574.607 432.663 574.672 432.764 574.693 432.877C574.714 432.991 574.689 433.108 574.623 433.203L571.897 437.179C571.857 437.237 571.802 437.285 571.74 437.317C571.677 437.35 571.607 437.368 571.536 437.368H561.759L560.785 439.417H583.367L581.131 433.099C581.093 432.99 581.099 432.871 581.149 432.767C581.199 432.663 581.288 432.583 581.396 432.545C581.505 432.506 581.625 432.513 581.729 432.562C581.833 432.612 581.913 432.701 581.951 432.81L584.394 439.706C584.417 439.773 584.424 439.843 584.414 439.913C584.405 439.982 584.378 440.048 584.338 440.106C584.296 440.162 584.242 440.208 584.179 440.238C584.116 440.269 584.047 440.284 583.977 440.282Z" fill="#002E5D"/>
<path d="M582.103 434.561L578.878 437.956L571.528 436.925H561.478L560.09 439.848H583.975L582.103 434.561Z" fill="#002E5D"/>
<path d="M466.088 281.091H466.044C465.987 281.085 465.932 281.068 465.881 281.04C465.831 281.013 465.786 280.976 465.75 280.931C465.714 280.886 465.687 280.835 465.67 280.78C465.654 280.725 465.649 280.667 465.655 280.61L466.016 277.127C466.034 277.018 466.094 276.919 466.182 276.852C466.27 276.785 466.38 276.753 466.491 276.765C466.601 276.776 466.703 276.829 466.776 276.912C466.849 276.996 466.887 277.104 466.883 277.215L466.506 280.688C466.498 280.795 466.451 280.895 466.374 280.97C466.297 281.044 466.195 281.087 466.088 281.091Z" fill="#002E5D"/>
<path d="M476.848 238.255C476.733 238.255 476.621 238.209 476.54 238.127C476.458 238.045 476.412 237.934 476.412 237.818V235.329C476.407 235.268 476.414 235.208 476.434 235.15C476.453 235.093 476.484 235.041 476.525 234.996C476.566 234.952 476.616 234.916 476.671 234.892C476.726 234.867 476.786 234.855 476.847 234.855C476.907 234.855 476.967 234.867 477.022 234.892C477.078 234.916 477.127 234.952 477.168 234.996C477.209 235.041 477.24 235.093 477.26 235.15C477.279 235.208 477.287 235.268 477.282 235.329V237.818C477.282 237.875 477.271 237.932 477.25 237.985C477.228 238.038 477.196 238.086 477.156 238.127C477.116 238.167 477.068 238.2 477.015 238.222C476.962 238.244 476.905 238.255 476.848 238.255Z" fill="#002E5D"/>
<path d="M466.089 432.82H16.3311C16.2153 432.82 16.1043 432.774 16.0224 432.692C15.9405 432.61 15.8945 432.499 15.8945 432.383C15.8945 432.267 15.9405 432.156 16.0224 432.074C16.1043 431.992 16.2153 431.946 16.3311 431.946H466.089C466.205 431.946 466.316 431.992 466.398 432.074C466.48 432.156 466.526 432.267 466.526 432.383C466.526 432.499 466.48 432.61 466.398 432.692C466.316 432.774 466.205 432.82 466.089 432.82Z" fill="#002E5D"/>
<path d="M533.044 478H141.704C141.644 478.005 141.583 477.998 141.526 477.978C141.469 477.959 141.416 477.927 141.372 477.886C141.327 477.845 141.292 477.796 141.267 477.74C141.243 477.685 141.23 477.625 141.23 477.565C141.23 477.504 141.243 477.444 141.267 477.389C141.292 477.333 141.327 477.284 141.372 477.243C141.416 477.202 141.469 477.171 141.526 477.151C141.583 477.132 141.644 477.124 141.704 477.129H533.044C533.153 477.139 533.254 477.188 533.328 477.269C533.402 477.35 533.443 477.455 533.443 477.565C533.443 477.674 533.402 477.78 533.328 477.86C533.254 477.941 533.153 477.991 533.044 478Z" fill="#002E5D"/>
<path d="M133.539 432.367H119.18L149.815 326.592H164.177L133.539 432.367Z" fill="#454E54"/>
<path d="M210.774 432.367H196.414L227.049 326.592H241.409L210.774 432.367Z" fill="#454E54"/>
<path d="M170.655 328.314H153.711V432.367H170.655V328.314Z" fill="white"/>
<path d="M246.343 328.314H229.398V432.367H246.343V328.314Z" fill="white"/>
<path d="M230.465 382.066H246.345V393.85L230.465 382.066Z" fill="#C9DAF4"/>
<path d="M154.777 382.066H170.657V393.85L154.777 382.066Z" fill="#C9DAF4"/>
<path d="M154.246 335.5H170.126V347.287L154.246 335.5Z" fill="#C9DAF4"/>
<path d="M230.465 335.5H246.345V347.287L230.465 335.5Z" fill="#C9DAF4"/>
<path d="M170.658 432.82H153.714C153.598 432.82 153.487 432.774 153.405 432.692C153.323 432.61 153.277 432.499 153.277 432.383C153.277 432.267 153.323 432.156 153.405 432.074C153.487 431.992 153.598 431.946 153.714 431.946H170.231V328.751H154.15V398.53C154.15 398.646 154.104 398.757 154.023 398.839C153.941 398.921 153.83 398.967 153.714 398.967C153.598 398.967 153.487 398.921 153.405 398.839C153.323 398.757 153.277 398.646 153.277 398.53V328.314C153.277 328.257 153.289 328.2 153.311 328.148C153.333 328.095 153.365 328.047 153.405 328.006C153.446 327.966 153.494 327.934 153.547 327.913C153.6 327.891 153.657 327.88 153.714 327.881H170.658C170.716 327.88 170.772 327.891 170.825 327.913C170.878 327.934 170.926 327.966 170.967 328.006C171.007 328.047 171.04 328.095 171.062 328.148C171.084 328.2 171.095 328.257 171.095 328.314V432.354C171.099 432.414 171.09 432.474 171.07 432.53C171.05 432.587 171.018 432.638 170.977 432.682C170.937 432.725 170.887 432.76 170.832 432.784C170.777 432.808 170.718 432.82 170.658 432.82Z" fill="#002E5D"/>
<path d="M246.342 432.82H229.382C229.266 432.82 229.155 432.773 229.073 432.692C228.991 432.61 228.945 432.498 228.945 432.383V328.342C228.945 328.285 228.957 328.229 228.979 328.176C229.001 328.123 229.033 328.075 229.073 328.035C229.114 327.994 229.162 327.962 229.215 327.941C229.268 327.919 229.325 327.908 229.382 327.909H246.342C246.399 327.908 246.456 327.919 246.509 327.941C246.562 327.962 246.61 327.994 246.651 328.035C246.691 328.075 246.723 328.123 246.745 328.176C246.767 328.229 246.779 328.285 246.779 328.342V432.383C246.779 432.498 246.733 432.61 246.651 432.692C246.569 432.773 246.458 432.82 246.342 432.82ZM229.834 431.946H245.921V328.751H229.834V431.946Z" fill="#002E5D"/>
<path d="M280.199 317.681H119.859V335.503H280.199V317.681Z" fill="white"/>
<path d="M280.199 364.244H119.859V382.066H280.199V364.244Z" fill="white"/>
<path d="M142.404 321.129L135.438 335.503H157.366L164.326 321.129H142.404Z" fill="#33DA82"/>
<path d="M188.932 321.129L181.969 335.503H203.894L210.858 321.129H188.932Z" fill="#33DA82"/>
<path d="M235.459 321.129L228.496 335.503H250.425L257.385 321.129H235.459Z" fill="#33DA82"/>
<path d="M144.071 366.831L136.688 382.066H158.616L165.997 366.831H144.071Z" fill="#33DA82"/>
<path d="M190.603 366.831L183.219 382.066H205.144L212.528 366.831H190.603Z" fill="#33DA82"/>
<path d="M237.13 366.831L229.746 382.066H251.675L259.056 366.831H237.13Z" fill="#33DA82"/>
<path d="M280.196 335.937H119.857C119.8 335.937 119.743 335.925 119.69 335.903C119.637 335.881 119.59 335.849 119.549 335.808C119.509 335.768 119.477 335.72 119.456 335.667C119.434 335.614 119.423 335.557 119.423 335.5V330.543C119.418 330.483 119.426 330.422 119.445 330.365C119.465 330.307 119.496 330.255 119.537 330.21C119.578 330.166 119.628 330.13 119.683 330.106C119.738 330.081 119.798 330.069 119.858 330.069C119.919 330.069 119.979 330.081 120.034 330.106C120.089 330.13 120.139 330.166 120.18 330.21C120.221 330.255 120.252 330.307 120.272 330.365C120.291 330.422 120.299 330.483 120.293 330.543V335.066H279.76V318.115H175.766C175.657 318.105 175.555 318.055 175.481 317.975C175.407 317.894 175.366 317.789 175.366 317.679C175.366 317.57 175.407 317.464 175.481 317.384C175.555 317.303 175.657 317.253 175.766 317.244H280.196C280.312 317.244 280.423 317.29 280.505 317.372C280.587 317.454 280.633 317.565 280.633 317.681V335.5C280.633 335.616 280.587 335.727 280.505 335.809C280.423 335.891 280.312 335.937 280.196 335.937Z" fill="#002E5D"/>
<path d="M280.199 382.5H119.859C119.744 382.5 119.634 382.454 119.553 382.373C119.471 382.292 119.426 382.181 119.426 382.066V364.244C119.425 364.187 119.436 364.13 119.458 364.077C119.479 364.024 119.511 363.976 119.552 363.935C119.592 363.895 119.64 363.863 119.693 363.841C119.745 363.819 119.802 363.807 119.859 363.807H175.84C175.956 363.807 176.067 363.853 176.149 363.935C176.231 364.017 176.277 364.128 176.277 364.244C176.277 364.36 176.231 364.471 176.149 364.553C176.067 364.635 175.956 364.681 175.84 364.681H120.293V381.629H279.762V364.681H203.485C203.37 364.681 203.258 364.635 203.177 364.553C203.095 364.471 203.049 364.36 203.049 364.244C203.049 364.128 203.095 364.017 203.177 363.935C203.258 363.853 203.37 363.807 203.485 363.807H280.199C280.256 363.807 280.313 363.819 280.366 363.841C280.419 363.862 280.467 363.895 280.507 363.935C280.548 363.976 280.58 364.024 280.602 364.077C280.624 364.13 280.635 364.187 280.635 364.244V382.066C280.635 382.123 280.624 382.18 280.602 382.233C280.58 382.286 280.548 382.334 280.507 382.374C280.467 382.414 280.418 382.446 280.365 382.468C280.312 382.489 280.256 382.5 280.199 382.5Z" fill="#002E5D"/>
<path d="M97.4047 432.197H38.8984L40.2521 427.137L44.5989 410.867L47.1178 401.435L49.1719 393.743L51.4647 385.165L53.5219 377.471L58.4089 359.187H77.8974L82.3918 376.006L86.101 389.89L90.3191 405.678L94.0283 419.565L97.4047 432.197Z" fill="white"/>
<path d="M86.1004 389.89L47.1172 401.435L49.1712 393.743L51.464 385.165L82.3912 376.006L86.1004 389.89Z" fill="#ECF3FE"/>
<path d="M94.0286 419.565L63.2773 428.671L65.3314 420.979L67.6242 412.398L90.3194 405.678L94.0286 419.565Z" fill="#ECF3FE"/>
<path d="M78.692 384.999L49.1719 393.743L53.5218 377.468L74.9827 371.115L78.692 384.999Z" fill="#3B82F4"/>
<path d="M86.307 413.495L40.2539 427.137L44.6007 410.867L82.5977 399.615L86.307 413.495Z" fill="#3B82F4"/>
<path d="M97.4064 432.631H38.9002C38.8331 432.631 38.767 432.615 38.707 432.585C38.647 432.555 38.5949 432.512 38.5547 432.458C38.5142 432.405 38.4864 432.344 38.4733 432.278C38.4603 432.213 38.4623 432.145 38.4793 432.081L57.9867 359.074C58.0128 358.982 58.0681 358.902 58.1441 358.845C58.2201 358.789 58.3127 358.758 58.4075 358.759H77.8928C77.9877 358.758 78.0802 358.789 78.1563 358.845C78.2323 358.902 78.2876 358.982 78.3137 359.074L97.821 432.081C97.8381 432.145 97.8401 432.213 97.827 432.278C97.814 432.344 97.7861 432.405 97.7456 432.458C97.7061 432.511 97.655 432.554 97.5962 432.584C97.5374 432.614 97.4724 432.63 97.4064 432.631ZM39.4687 431.757H96.838L77.5788 359.621H58.7342L39.4687 431.757Z" fill="#002E5D"/>
<path d="M53.5225 377.908C53.4283 377.907 53.3367 377.877 53.2614 377.82C53.1862 377.763 53.1312 377.684 53.1048 377.593C53.088 377.538 53.0823 377.481 53.0882 377.424C53.094 377.367 53.1111 377.311 53.1386 377.261C53.1662 377.21 53.2034 377.166 53.2483 377.13C53.2932 377.095 53.3448 377.068 53.4 377.053L73.1554 371.2C73.2117 371.179 73.2717 371.169 73.3317 371.172C73.3918 371.175 73.4506 371.191 73.5044 371.218C73.5582 371.245 73.6059 371.282 73.6445 371.328C73.683 371.375 73.7117 371.428 73.7286 371.486C73.7455 371.544 73.7503 371.604 73.7428 371.664C73.7352 371.724 73.7154 371.781 73.6846 371.833C73.6537 371.884 73.6126 371.929 73.5637 371.964C73.5148 371.999 73.4592 372.024 73.4004 372.036L53.645 377.889C53.605 377.9 53.5639 377.906 53.5225 377.908Z" fill="#002E5D"/>
<path d="M49.1705 394.18C49.0662 394.179 48.9657 394.141 48.8873 394.072C48.8088 394.003 48.7575 393.909 48.7427 393.805C48.7279 393.702 48.7505 393.597 48.8066 393.509C48.8626 393.421 48.9482 393.355 49.048 393.325L65.8888 388.337C65.9451 388.316 66.0051 388.306 66.0651 388.309C66.1252 388.312 66.184 388.328 66.2378 388.355C66.2916 388.381 66.3393 388.419 66.3779 388.465C66.4164 388.511 66.4451 388.565 66.462 388.623C66.4789 388.68 66.4837 388.741 66.4762 388.801C66.4686 388.86 66.4488 388.918 66.418 388.97C66.3871 389.021 66.346 389.066 66.2971 389.101C66.2482 389.136 66.1926 389.16 66.1338 389.173L49.3087 394.158C49.2642 394.173 49.2175 394.181 49.1705 394.18Z" fill="#002E5D"/>
<path d="M44.5994 411.308C44.4948 411.307 44.3938 411.269 44.3148 411.201C44.2358 411.132 44.1839 411.038 44.1687 410.934C44.1535 410.831 44.1759 410.725 44.2319 410.637C44.2879 410.548 44.3737 410.483 44.4738 410.453L77.8915 400.548C78.0027 400.516 78.1221 400.529 78.2239 400.584C78.3256 400.64 78.4014 400.733 78.4349 400.844C78.467 400.955 78.454 401.074 78.3987 401.175C78.3434 401.276 78.2502 401.352 78.1396 401.384L44.7219 411.289C44.6822 411.301 44.6409 411.307 44.5994 411.308Z" fill="#002E5D"/>
<path d="M40.2517 427.574C40.1472 427.573 40.0462 427.535 39.9671 427.467C39.8881 427.398 39.8363 427.304 39.8211 427.2C39.8058 427.097 39.8283 426.991 39.8842 426.903C39.9402 426.814 40.026 426.749 40.1261 426.719L69.5457 418.006C69.654 417.981 69.7678 417.998 69.8639 418.054C69.96 418.11 70.0311 418.2 70.0627 418.307C70.0944 418.414 70.0842 418.528 70.0342 418.628C69.9842 418.727 69.8983 418.804 69.7938 418.842L40.3742 427.555C40.3346 427.567 40.2933 427.573 40.2517 427.574Z" fill="#002E5D"/>
<path d="M386.225 477.566H327.719L329.069 472.506L333.416 456.237L335.863 447.09L337.992 439.112L340.21 430.821L342.342 422.84L347.226 404.556H366.718L371.275 421.617L374.984 435.501L378.825 449.865L382.535 463.746L386.225 477.566Z" fill="white"/>
<path d="M374.985 435.501L335.863 447.09L337.993 439.112L340.21 430.821L371.275 421.617L374.985 435.501Z" fill="#ECF3FE"/>
<path d="M382.536 463.746L346.414 474.445L350.761 458.176L378.827 449.865L382.536 463.746Z" fill="#ECF3FE"/>
<path d="M367.512 430.368L337.992 439.112L342.342 422.84L363.803 416.488L367.512 430.368Z" fill="#325D9C"/>
<path d="M375.127 458.864L329.07 472.506L333.417 456.236L371.417 444.984L375.127 458.864Z" fill="#325D9C"/>
<path d="M386.227 478H327.721C327.654 478 327.588 477.984 327.528 477.955C327.468 477.925 327.416 477.882 327.375 477.829C327.334 477.776 327.307 477.714 327.293 477.648C327.28 477.582 327.283 477.515 327.3 477.45L346.804 404.443C346.831 404.351 346.887 404.271 346.964 404.215C347.04 404.158 347.133 404.128 347.228 404.128H366.72C366.815 404.127 366.907 404.158 366.983 404.214C367.059 404.271 367.115 404.351 367.141 404.443L386.648 477.453C386.665 477.518 386.667 477.586 386.654 477.652C386.641 477.718 386.613 477.78 386.573 477.833C386.532 477.886 386.479 477.928 386.419 477.957C386.359 477.986 386.294 478 386.227 478ZM328.289 477.139H385.659L366.384 405.005H347.561L328.289 477.139Z" fill="#002E5D"/>
<path d="M342.345 423.28C342.241 423.28 342.14 423.242 342.061 423.173C341.982 423.105 341.93 423.01 341.915 422.907C341.9 422.803 341.922 422.698 341.978 422.609C342.034 422.521 342.12 422.455 342.22 422.425L361.975 416.572C362.031 416.552 362.091 416.543 362.15 416.547C362.21 416.55 362.268 416.566 362.321 416.593C362.374 416.619 362.421 416.657 362.46 416.702C362.498 416.748 362.526 416.801 362.543 416.858C362.56 416.916 362.565 416.976 362.558 417.035C362.551 417.094 362.532 417.151 362.502 417.203C362.472 417.254 362.432 417.299 362.384 417.334C362.336 417.37 362.281 417.395 362.223 417.408L342.468 423.261C342.428 423.273 342.387 423.28 342.345 423.28Z" fill="#002E5D"/>
<path d="M337.994 439.549C337.889 439.549 337.788 439.511 337.709 439.442C337.63 439.374 337.578 439.279 337.563 439.176C337.548 439.072 337.57 438.967 337.626 438.878C337.682 438.79 337.768 438.725 337.868 438.694L354.709 433.706C354.82 433.674 354.939 433.688 355.041 433.743C355.142 433.798 355.218 433.891 355.252 434.001C355.269 434.056 355.274 434.114 355.268 434.171C355.262 434.229 355.245 434.284 355.218 434.335C355.19 434.385 355.153 434.43 355.108 434.466C355.064 434.502 355.012 434.529 354.957 434.545L338.116 439.53C338.077 439.543 338.035 439.549 337.994 439.549Z" fill="#002E5D"/>
<path d="M333.417 456.677C333.312 456.675 333.212 456.637 333.133 456.568C333.055 456.5 333.004 456.405 332.989 456.302C332.974 456.198 332.997 456.093 333.053 456.005C333.109 455.917 333.194 455.852 333.294 455.822L366.718 445.92C366.827 445.895 366.94 445.913 367.036 445.968C367.132 446.024 367.204 446.115 367.235 446.222C367.267 446.328 367.257 446.443 367.207 446.542C367.157 446.642 367.071 446.718 366.966 446.757L333.549 456.658C333.506 456.671 333.461 456.677 333.417 456.677Z" fill="#002E5D"/>
<path d="M329.072 472.943C328.978 472.942 328.886 472.911 328.811 472.855C328.735 472.798 328.681 472.719 328.654 472.628C328.622 472.517 328.635 472.397 328.69 472.296C328.745 472.194 328.838 472.118 328.949 472.084L358.369 463.375C358.425 463.353 358.485 463.344 358.545 463.347C358.605 463.35 358.664 463.365 358.718 463.392C358.772 463.419 358.819 463.457 358.858 463.503C358.897 463.549 358.925 463.603 358.942 463.66C358.959 463.718 358.964 463.779 358.956 463.838C358.949 463.898 358.929 463.956 358.898 464.007C358.867 464.059 358.826 464.104 358.777 464.139C358.728 464.174 358.673 464.198 358.614 464.211L329.197 472.921C329.157 472.934 329.115 472.941 329.072 472.943Z" fill="#002E5D"/>
<path d="M171.173 53.051L203.877 64.8601L198.073 70.2349L193.767 69.5654L179.885 90.3106L173.497 84.7188L171.091 95.3051L186.415 109.069L204.078 129.047L240.898 140.077L240.772 140.932L243.749 140.388L250.452 137.32L251.95 139.244L249.55 141.205L256.818 144.125L255.678 149.83L241.667 148.359L239.227 147.621L239.173 147.882L199.628 140.533L186.437 130.298L192.266 145.728L213.171 154.46L213.008 154.916L214.908 154.856L221.817 152.219L222.797 154.105L220.869 156.271L227.012 158.471L223.623 164.962L212.398 162.843L210.514 161.815L210.363 162.233L185.086 155.718L169.426 130.258L162.589 160.797L183.412 261.109H182.263L183.268 263.027L186.179 267.113L196.613 267.77L197.288 270.655H172.2L175.548 263.027L174.759 261.04L156.75 207.571L134.426 261.109H132.909L133.662 263.027L136.536 267.173L146.989 267.767L147.617 270.655H122.522L126.706 261.16L125.543 261.109L138.421 207.7C138.421 207.7 130.685 195.533 125.832 181.611C125.832 181.611 119.447 162.4 119.039 154.027L117.195 153.624C117.195 153.624 117.412 144.848 125.361 131.307C130.129 123.182 135.56 115.466 141.599 108.236C141.599 108.236 149.451 98.6087 159.596 88.5724L163.321 84.8948L171.173 53.051Z" fill="white"/>
<path d="M176.748 54.9716L165.473 84.9609H168.155L180.888 67.2458L198.011 70.2884L204.035 64.9198L176.748 54.9716Z" fill="#325D9C"/>
<path d="M183.409 67.6952L175.168 86.1584L179.882 90.3011L193.764 69.5654L183.409 67.6952Z" fill="#FDC8AA"/>
<path d="M162.863 100.29L163.294 112.363L199.626 140.533L239.065 147.86L240.264 143.022L203.144 134.495L162.863 100.29Z" fill="#3B82F4"/>
<path d="M170.619 124.867L181.103 130.663L189.813 149.632L211.977 157.635L210.35 162.234L185.073 155.718L169.41 130.258L170.619 124.867Z" fill="#3B82F4"/>
<path d="M163.293 112.363C163.293 112.363 135.767 135.406 130.887 156.004L146.396 158.496L152.14 159.31L169.415 130.258L170.621 124.867V118.04L163.293 112.363Z" fill="#3B82F4"/>
<path d="M146.398 158.496L152.143 159.31L162.577 160.794L183.4 261.109H177.549L146.398 158.496Z" fill="#325D9C"/>
<path d="M146.92 178.113L156.748 207.571L134.426 261.109L129.043 261.075L146.396 212.342L146.92 178.113Z" fill="#325D9C"/>
<path d="M239.227 147.618L241.667 148.356L255.69 149.83L256.56 145.471L240.266 143.022L239.227 147.618Z" fill="#FDC8AA"/>
<path d="M210.5 161.815L212.384 162.843L223.61 164.965L225.811 160.74L211.976 157.635L210.5 161.815Z" fill="#FDC8AA"/>
<path d="M168.32 85.3475H163.295C163.229 85.3473 163.164 85.3323 163.105 85.3036C163.046 85.2748 162.994 85.233 162.953 85.1813C162.913 85.1296 162.884 85.0694 162.87 85.0051C162.855 84.9408 162.856 84.8741 162.871 84.81L170.626 52.9033C170.64 52.844 170.667 52.7883 170.704 52.7401C170.741 52.6919 170.789 52.6521 170.842 52.6235C170.896 52.5941 170.956 52.5766 171.017 52.5722C171.078 52.5679 171.14 52.5768 171.197 52.5984L204.226 64.5269C204.296 64.5528 204.359 64.5966 204.408 64.654C204.457 64.7115 204.49 64.7806 204.504 64.8546C204.518 64.9287 204.513 65.0051 204.489 65.0766C204.465 65.148 204.423 65.212 204.367 65.2624L198.337 70.5807C198.287 70.6241 198.229 70.6559 198.166 70.6738C198.103 70.6918 198.037 70.6954 197.972 70.6844L181.012 67.7141L168.675 85.1809C168.633 85.2348 168.58 85.278 168.518 85.307C168.456 85.3359 168.388 85.3498 168.32 85.3475ZM163.848 84.4768H168.094L180.459 66.9849C180.507 66.9174 180.573 66.8647 180.649 66.833C180.725 66.8013 180.808 66.7918 180.89 66.8057L197.916 69.7792L203.236 65.0864L171.357 53.5728L163.848 84.4768Z" fill="#002E5D"/>
<path d="M179.882 90.7381C179.777 90.7386 179.675 90.7006 179.596 90.6313L170.099 82.3238C170.05 82.2879 170.01 82.2424 169.98 82.1901C169.95 82.1378 169.931 82.0799 169.924 82.02C169.918 81.96 169.924 81.8994 169.942 81.8419C169.96 81.7844 169.99 81.7313 170.029 81.6858C170.069 81.6403 170.117 81.6036 170.172 81.5778C170.226 81.552 170.285 81.5378 170.346 81.536C170.406 81.5342 170.466 81.5449 170.522 81.5674C170.577 81.59 170.628 81.6238 170.67 81.6668L179.794 89.6474L193.472 69.2732C193.502 69.2214 193.542 69.1762 193.591 69.1407C193.639 69.1051 193.694 69.0798 193.752 69.0663C193.81 69.0529 193.871 69.0516 193.93 69.0625C193.988 69.0734 194.044 69.0963 194.094 69.1298C194.144 69.1632 194.186 69.2066 194.218 69.257C194.25 69.3075 194.272 69.3641 194.281 69.4232C194.291 69.4823 194.288 69.5428 194.273 69.6008C194.258 69.6588 194.231 69.7131 194.195 69.7604L180.237 90.5464C180.201 90.5987 180.155 90.6427 180.101 90.6753C180.046 90.7078 179.986 90.7282 179.923 90.735L179.882 90.7381Z" fill="#002E5D"/>
<path d="M239.119 148.249H239.04L199.548 140.96C199.479 140.948 199.414 140.919 199.36 140.875L163.027 112.706C162.977 112.673 162.934 112.63 162.902 112.579C162.869 112.529 162.847 112.472 162.838 112.413C162.828 112.353 162.831 112.293 162.845 112.234C162.86 112.176 162.887 112.122 162.924 112.074C162.961 112.027 163.007 111.987 163.059 111.958C163.112 111.93 163.17 111.912 163.23 111.907C163.29 111.901 163.35 111.909 163.407 111.928C163.464 111.947 163.517 111.977 163.561 112.018L199.809 140.121L238.792 147.31L240.463 140.394L203.951 129.453C203.874 129.428 203.805 129.384 203.75 129.324L186.106 109.365L166.736 92.1368C166.657 92.058 166.611 91.9517 166.608 91.8398C166.604 91.7279 166.644 91.619 166.718 91.5355C166.793 91.4521 166.897 91.4004 167.008 91.3912C167.12 91.3821 167.23 91.416 167.317 91.4862L186.702 108.73L186.74 108.768L204.328 128.651L241.116 139.681C241.226 139.711 241.319 139.781 241.378 139.879C241.436 139.976 241.455 140.092 241.43 140.203L239.565 147.916C239.54 148.015 239.482 148.102 239.401 148.162C239.32 148.223 239.22 148.254 239.119 148.249Z" fill="#002E5D"/>
<path d="M171.063 95.8396C171.03 95.844 170.996 95.844 170.963 95.8396C170.852 95.8106 170.757 95.7395 170.699 95.6413C170.64 95.5432 170.622 95.4259 170.649 95.3146L172.285 88.4876C172.316 88.3796 172.388 88.2878 172.485 88.2313C172.582 88.1748 172.697 88.1579 172.807 88.1843C172.916 88.2106 173.011 88.278 173.072 88.3726C173.132 88.4671 173.154 88.5815 173.133 88.6919L171.484 95.5032C171.462 95.5983 171.408 95.6831 171.332 95.7441C171.256 95.8051 171.161 95.8387 171.063 95.8396Z" fill="#002E5D"/>
<path d="M146.397 158.933H146.325L117.116 154.165C117.008 154.148 116.91 154.09 116.842 154.004C116.775 153.918 116.742 153.809 116.752 153.7C117.851 140.042 129.371 122.969 138.841 111.053C145.212 103.068 152.042 95.4611 159.296 88.2707C159.38 88.1931 159.491 88.1515 159.605 88.1547C159.719 88.158 159.828 88.2058 159.907 88.2881C159.986 88.3703 160.03 88.4803 160.029 88.5946C160.029 88.7088 159.983 88.8182 159.903 88.8993C159.51 89.2671 120.112 127.614 117.666 153.363L146.466 158.078C146.574 158.097 146.67 158.155 146.737 158.241C146.804 158.327 146.837 158.435 146.828 158.544C146.819 158.652 146.77 158.754 146.691 158.828C146.611 158.903 146.506 158.945 146.397 158.946V158.933Z" fill="#002E5D"/>
<path d="M183.4 261.546H174.785C174.694 261.547 174.605 261.518 174.53 261.465C174.456 261.412 174.4 261.337 174.371 261.251L144.357 172.144C144.334 172.089 144.323 172.029 144.324 171.969C144.325 171.909 144.339 171.85 144.364 171.796C144.388 171.741 144.424 171.692 144.469 171.652C144.513 171.612 144.565 171.582 144.622 171.563C144.679 171.544 144.739 171.537 144.799 171.542C144.858 171.547 144.916 171.564 144.969 171.593C145.022 171.622 145.068 171.661 145.105 171.708C145.142 171.755 145.168 171.809 145.183 171.867L175.096 260.672H182.866L162.137 160.885C162.123 160.824 162.123 160.761 162.137 160.7L170.193 124.785C170.204 124.727 170.226 124.672 170.259 124.623C170.291 124.574 170.333 124.532 170.382 124.5C170.431 124.467 170.486 124.445 170.544 124.435C170.602 124.424 170.661 124.425 170.719 124.438C170.776 124.451 170.83 124.475 170.878 124.51C170.926 124.544 170.966 124.588 170.996 124.638C171.027 124.688 171.047 124.744 171.055 124.803C171.063 124.861 171.06 124.92 171.044 124.977L163.023 160.81L183.827 261.031C183.841 261.094 183.84 261.16 183.825 261.223C183.81 261.286 183.781 261.345 183.74 261.396C183.699 261.446 183.647 261.487 183.588 261.514C183.529 261.542 183.465 261.556 183.4 261.556V261.546Z" fill="#002E5D"/>
<path d="M134.425 261.546H125.631C125.565 261.547 125.499 261.532 125.44 261.503C125.381 261.474 125.329 261.432 125.288 261.38C125.248 261.328 125.219 261.268 125.205 261.203C125.191 261.139 125.191 261.073 125.207 261.009L137.946 207.819C121.271 180.885 118.642 154.338 118.617 154.07C118.615 153.96 118.655 153.853 118.728 153.771C118.801 153.689 118.903 153.638 119.013 153.627C119.122 153.617 119.232 153.648 119.319 153.715C119.407 153.782 119.466 153.88 119.484 153.989C119.509 154.253 122.138 180.706 138.781 207.511C138.812 207.56 138.832 207.615 138.842 207.672C138.851 207.73 138.848 207.788 138.834 207.844L126.174 260.672H134.139L156.347 207.401C156.396 207.302 156.482 207.224 156.586 207.185C156.69 207.146 156.805 207.149 156.907 207.191C157.01 207.234 157.092 207.315 157.137 207.416C157.183 207.518 157.188 207.633 157.151 207.738L134.83 261.279C134.796 261.359 134.74 261.427 134.668 261.474C134.596 261.522 134.511 261.547 134.425 261.546Z" fill="#002E5D"/>
<path d="M210.351 162.67C210.315 162.675 210.278 162.675 210.242 162.67L184.968 156.154C184.859 156.126 184.764 156.058 184.704 155.963L169.041 130.503C169.009 130.454 168.987 130.399 168.976 130.341C168.965 130.284 168.966 130.224 168.979 130.167C168.992 130.11 169.016 130.056 169.05 130.008C169.084 129.96 169.128 129.92 169.177 129.889C169.227 129.859 169.283 129.839 169.341 129.83C169.399 129.821 169.458 129.824 169.515 129.839C169.571 129.854 169.625 129.88 169.671 129.916C169.718 129.951 169.756 129.996 169.785 130.047L185.354 155.359L210.075 161.73L212.613 154.721L192.088 146.15C192.033 146.127 191.984 146.093 191.943 146.05C191.902 146.008 191.87 145.957 191.849 145.901L185.97 130.412C185.949 130.358 185.938 130.301 185.94 130.244C185.941 130.186 185.953 130.13 185.977 130.077C186 130.025 186.034 129.978 186.076 129.938C186.118 129.899 186.167 129.869 186.221 129.849C186.329 129.808 186.449 129.811 186.554 129.859C186.659 129.906 186.742 129.993 186.783 130.1L192.597 145.398L213.326 154.058C213.429 154.101 213.511 154.182 213.556 154.285C213.601 154.387 213.605 154.503 213.568 154.608L210.741 162.381C210.712 162.462 210.659 162.533 210.59 162.585C210.521 162.636 210.438 162.666 210.351 162.67Z" fill="#002E5D"/>
<path d="M255.681 150.308H255.634L241.654 148.777C241.543 148.76 241.443 148.7 241.375 148.611C241.306 148.521 241.275 148.409 241.288 148.297C241.3 148.185 241.356 148.082 241.442 148.01C241.528 147.938 241.639 147.902 241.751 147.91L255.345 149.397L256.343 144.396L249.358 141.655C249.287 141.627 249.225 141.58 249.177 141.52C249.13 141.46 249.099 141.388 249.088 141.313C249.077 141.237 249.086 141.159 249.114 141.088C249.142 141.017 249.189 140.954 249.248 140.907L251.397 139.213L250.319 137.861L243.931 140.784C243.879 140.813 243.821 140.83 243.761 140.835C243.702 140.84 243.642 140.833 243.585 140.814C243.529 140.796 243.477 140.765 243.432 140.725C243.388 140.686 243.352 140.637 243.327 140.583C243.302 140.528 243.288 140.47 243.287 140.41C243.286 140.35 243.296 140.291 243.319 140.235C243.341 140.18 243.375 140.13 243.418 140.088C243.46 140.046 243.511 140.014 243.567 139.992L250.269 136.924C250.358 136.884 250.459 136.874 250.554 136.898C250.649 136.921 250.733 136.976 250.794 137.053L252.326 139.018C252.362 139.063 252.388 139.114 252.403 139.169C252.418 139.224 252.422 139.282 252.415 139.338C252.408 139.395 252.39 139.45 252.362 139.499C252.334 139.549 252.296 139.592 252.251 139.627L250.367 141.121L256.984 143.717C257.079 143.755 257.158 143.825 257.206 143.915C257.255 144.006 257.271 144.11 257.251 144.21L256.102 149.959C256.082 150.057 256.029 150.144 255.953 150.208C255.876 150.271 255.78 150.307 255.681 150.308Z" fill="#002E5D"/>
<path d="M223.64 165.414C223.582 165.412 223.525 165.399 223.471 165.377C223.188 165.311 215.361 163.805 212.371 163.236C212.26 163.212 212.163 163.145 212.1 163.05C212.037 162.955 212.014 162.839 212.035 162.727C212.056 162.616 212.121 162.516 212.214 162.451C212.307 162.386 212.422 162.36 212.535 162.378C218.706 163.56 222.353 164.264 223.417 164.481C223.885 163.689 225.361 160.775 226.395 158.697L220.688 156.705C220.62 156.681 220.559 156.642 220.51 156.589C220.461 156.537 220.426 156.473 220.408 156.403C220.39 156.334 220.39 156.261 220.407 156.191C220.424 156.121 220.458 156.057 220.506 156.004L222.268 154.023L221.583 152.719L215.053 155.274C214.999 155.299 214.941 155.311 214.882 155.312C214.823 155.313 214.764 155.302 214.709 155.279C214.654 155.257 214.605 155.223 214.563 155.181C214.522 155.138 214.49 155.088 214.468 155.033C214.447 154.978 214.437 154.918 214.439 154.859C214.441 154.8 214.456 154.742 214.481 154.688C214.506 154.635 214.542 154.587 214.587 154.548C214.631 154.509 214.683 154.479 214.739 154.46L221.633 151.779C221.733 151.74 221.844 151.739 221.944 151.777C222.045 151.815 222.127 151.888 222.177 151.983L223.182 153.898C223.224 153.976 223.24 154.066 223.23 154.154C223.219 154.242 223.181 154.325 223.122 154.391L221.593 156.107L227.152 158.05C227.21 158.07 227.264 158.102 227.309 158.144C227.354 158.187 227.389 158.238 227.412 158.295C227.436 158.352 227.447 158.414 227.445 158.476C227.443 158.537 227.427 158.598 227.4 158.653C224.426 164.635 224.005 165.414 223.64 165.414Z" fill="#002E5D"/>
<path d="M147.734 271.259H122.366C122.291 271.259 122.218 271.241 122.153 271.205C122.088 271.169 122.033 271.118 121.993 271.055C121.953 270.992 121.93 270.92 121.926 270.845C121.922 270.771 121.937 270.697 121.97 270.63L125.56 262.822C125.613 262.725 125.701 262.651 125.806 262.616C125.911 262.581 126.026 262.587 126.126 262.633C126.227 262.68 126.306 262.763 126.348 262.866C126.39 262.968 126.391 263.083 126.351 263.187L123.044 270.375H147.184L146.666 268.175L136.458 267.525C136.393 267.52 136.33 267.501 136.273 267.469C136.216 267.437 136.167 267.392 136.129 267.339L133.302 263.253C133.265 263.206 133.238 263.152 133.222 263.094C133.207 263.037 133.203 262.976 133.212 262.917C133.22 262.858 133.241 262.801 133.273 262.751C133.304 262.7 133.346 262.656 133.395 262.622C133.444 262.588 133.5 262.564 133.558 262.553C133.617 262.541 133.677 262.541 133.736 262.554C133.794 262.566 133.849 262.591 133.898 262.626C133.946 262.661 133.987 262.705 134.018 262.756L136.722 266.654L147.043 267.311C147.136 267.317 147.225 267.353 147.296 267.414C147.367 267.474 147.417 267.556 147.439 267.647L148.158 270.715C148.172 270.779 148.171 270.845 148.157 270.909C148.142 270.973 148.113 271.033 148.072 271.084C148.031 271.135 147.979 271.177 147.92 271.205C147.861 271.234 147.796 271.249 147.731 271.249L147.734 271.259Z" fill="#002E5D"/>
<path d="M125.247 264.567L126.924 267.936L136.488 267.097L147.019 267.77L147.735 270.834H122.367L125.247 264.567Z" fill="#002E5D"/>
<path d="M197.329 271.259H171.958C171.885 271.259 171.813 271.24 171.75 271.205C171.686 271.17 171.632 271.119 171.593 271.058C171.554 270.996 171.53 270.926 171.525 270.853C171.519 270.78 171.532 270.706 171.562 270.64L175.152 262.832C175.2 262.726 175.288 262.644 175.397 262.604C175.506 262.564 175.626 262.568 175.731 262.616C175.837 262.665 175.919 262.753 175.959 262.862C175.999 262.971 175.995 263.091 175.946 263.196L172.639 270.385H196.779L196.261 268.185L186.053 267.534C185.991 267.527 185.93 267.507 185.876 267.475C185.822 267.443 185.775 267.4 185.739 267.349L182.913 263.262C182.856 263.167 182.837 263.054 182.86 262.946C182.884 262.837 182.947 262.742 183.038 262.679C183.129 262.615 183.241 262.589 183.351 262.606C183.46 262.622 183.56 262.679 183.629 262.766L186.333 266.663L196.654 267.32C196.747 267.327 196.836 267.363 196.908 267.423C196.979 267.484 197.03 267.565 197.052 267.657L197.768 270.724C197.783 270.788 197.783 270.855 197.769 270.918C197.754 270.982 197.725 271.042 197.685 271.094C197.644 271.145 197.592 271.186 197.533 271.215C197.475 271.244 197.41 271.258 197.344 271.259H197.329Z" fill="#002E5D"/>
<path d="M174.84 264.567L176.517 267.936L186.081 267.097L196.612 267.77L197.328 270.834H171.957L174.84 264.567Z" fill="#002E5D"/>
<path d="M79.0932 92.9603L112.781 93.8216L100.585 108.441L98.478 107.718L87.9972 121.548L83.3049 118.122V124.889L86.2447 127.495L105.215 132.885L104.731 134.111L153.928 149.387L153.825 149.931L156.934 150.098L159.66 147.838L168.278 152.446L167.336 159.656L154.346 157.739L152.147 157.355L98.9146 146.099L98.5031 146.998L83.7415 144.465C83.7415 144.465 58.8101 159.455 39.3719 162.758L39.8053 163.528L61.1248 192.173C61.1248 192.173 63.16 194.759 63.5338 197.315L101.713 260.993L100.513 261.109L104.342 266.931L114.898 267.839L116.343 270.668L94.0212 270.567L95.6356 265.469L93.4119 261.122H92.8309L58.5368 213.835L31.6456 261.043L30.9609 261.109L30.3516 263.027L33.2913 267.173L43.7627 267.773L44.4379 270.658H19.1139L23.555 261.037H22.8766L44.1835 209.023C44.4877 208.185 44.5718 207.282 44.4278 206.401C44.2837 205.521 43.9163 204.692 43.3606 203.994L29.8742 192.509C29.8742 192.509 17.2923 181.313 14.4562 177.736C11.62 174.159 8.02072 170.293 7.54646 160.665C7.54646 160.665 7.14758 152.134 12.2074 143.233L9.90832 142.315C9.90832 142.315 13.3632 136.233 30.3013 130.003C30.3013 130.003 42.9869 125.455 49.259 123.968C49.259 123.968 66.7311 119.586 68.6909 119.417L72.7739 117.98L79.0932 92.9603Z" fill="white"/>
<path d="M218.152 271.259H9.3975C9.28172 271.259 9.17068 271.213 9.0888 271.131C9.00693 271.049 8.96094 270.938 8.96094 270.822C8.96094 270.706 9.00693 270.595 9.0888 270.513C9.17068 270.431 9.28172 270.385 9.3975 270.385H218.152C218.268 270.385 218.379 270.431 218.461 270.513C218.542 270.595 218.588 270.706 218.588 270.822C218.588 270.938 218.542 271.049 218.461 271.131C218.379 271.213 218.268 271.259 218.152 271.259Z" fill="#002E5D"/>
<path d="M110.429 96.6348L83.6887 97.5589L76.9141 116.77L79.3073 117.128L87.9162 103.836L100.586 108.425L110.429 96.6348Z" fill="#325D9C"/>
<path d="M91.4436 104.986L81.8203 117.056L87.9982 121.526L98.4789 107.702L91.4436 104.986Z" fill="#FDC8AA"/>
<path d="M66.8398 130.71L77.0128 130.135L81.8716 135.214L102.082 139.417L98.5051 146.998L72.7759 142.472L66.8398 130.71Z" fill="#3B82F4"/>
<path d="M67.7235 132.518L22.5938 146.891L30.8885 149.874L35.1757 157.346L39.4722 162.947C39.4722 162.947 52.3494 160.162 63.1725 154.985C63.1725 154.985 73.2543 150.242 76.0308 148.749C78.8072 147.256 83.7382 144.465 83.7382 144.465L72.7769 142.472L67.7235 132.518Z" fill="#3B82F4"/>
<path d="M21.1717 146.401C21.1717 146.401 16.5297 160.797 26.7246 172.078C33.5777 179.659 43.4429 190.419 49.1779 196.664C50.5435 198.149 51.4371 200.007 51.7452 202.002C52.0533 203.997 51.7621 206.038 50.9085 207.867L26.0682 261.134L31.6587 261.043L60.3936 210.538L62.3032 207.395C62.3032 207.395 65.0514 202.25 63.5407 197.315C63.5407 197.315 62.991 195.209 62.5356 194.414C62.0802 193.618 39.4824 162.947 39.4824 162.947L35.1764 157.346L30.8892 149.874L21.1717 146.401Z" fill="#325D9C"/>
<path d="M102.082 139.417L153.17 152.603L152.143 157.346L98.8945 146.175L102.082 139.417Z" fill="#FDC8AA"/>
<path d="M153.168 152.603L168.055 154.13L167.333 159.647L154.342 157.729L152.141 157.346L153.168 152.603Z" fill="#FDC8AA"/>
<path d="M63.5292 197.315L101.737 261.122H97.1292L60.043 211.312C60.043 211.312 62.4488 207.455 63.1052 205.49C63.7616 203.526 64.3867 199.908 63.5292 197.315Z" fill="#325D9C"/>
<path d="M72.773 118.405C72.7375 118.408 72.7017 118.408 72.6662 118.405C72.5551 118.374 72.4602 118.302 72.4016 118.203C72.3429 118.104 72.3252 117.985 72.3521 117.873L78.6713 92.866C78.6934 92.7688 78.7489 92.6825 78.8281 92.6222C78.9074 92.5618 79.0053 92.5313 79.1048 92.536L112.899 93.4004C112.982 93.402 113.063 93.4271 113.131 93.4728C113.2 93.5184 113.255 93.5827 113.289 93.6581C113.321 93.7332 113.332 93.8159 113.321 93.8969C113.309 93.9779 113.275 94.0541 113.223 94.117L100.87 108.755C100.812 108.824 100.734 108.872 100.647 108.895C100.56 108.917 100.468 108.912 100.383 108.881L88.0748 104.216L79.6513 117.418C79.5877 117.513 79.4894 117.579 79.3775 117.603C79.2656 117.626 79.1489 117.604 79.0527 117.543C78.9564 117.481 78.8882 117.384 78.8627 117.272C78.8372 117.161 78.8565 117.044 78.9163 116.946L87.5315 103.43C87.585 103.346 87.666 103.282 87.7609 103.25C87.8559 103.218 87.9589 103.219 88.0528 103.254L100.402 107.938L111.97 94.2082L79.4283 93.4067L73.1938 118.075C73.1707 118.169 73.1166 118.252 73.0403 118.312C72.964 118.372 72.8699 118.405 72.773 118.405Z" fill="#002E5D"/>
<path d="M87.973 121.997C87.8803 121.997 87.7901 121.967 87.7154 121.912L79.9043 116.176C79.8582 116.142 79.8191 116.099 79.7895 116.05C79.7598 116.001 79.7401 115.946 79.7315 115.89C79.7141 115.775 79.743 115.658 79.8117 115.565C79.8804 115.471 79.9834 115.409 80.0979 115.392C80.2125 115.374 80.3293 115.403 80.4226 115.472L87.885 120.954L98.1334 107.438C98.1667 107.389 98.2096 107.347 98.2596 107.315C98.3096 107.283 98.3655 107.262 98.4241 107.252C98.4826 107.243 98.5424 107.245 98.5999 107.26C98.6575 107.274 98.7115 107.3 98.7587 107.336C98.8059 107.372 98.8453 107.417 98.8745 107.468C98.9037 107.52 98.922 107.577 98.9285 107.636C98.9349 107.695 98.9293 107.755 98.9119 107.811C98.8945 107.868 98.8658 107.921 98.8275 107.966L88.3185 121.824C88.2783 121.878 88.2262 121.922 88.1662 121.952C88.1062 121.982 88.04 121.997 87.973 121.997Z" fill="#002E5D"/>
<path d="M83.3077 125.301C83.2505 125.301 83.1938 125.29 83.1408 125.269C83.0879 125.247 83.0397 125.215 82.9991 125.175C82.9586 125.134 82.9264 125.087 82.9044 125.034C82.8824 124.981 82.8711 124.924 82.8711 124.867V120.746C82.8711 120.63 82.9171 120.519 82.999 120.437C83.0808 120.355 83.1919 120.309 83.3077 120.309C83.4234 120.309 83.5345 120.355 83.6164 120.437C83.6982 120.519 83.7442 120.63 83.7442 120.746V124.867C83.7442 124.924 83.7329 124.981 83.7109 125.034C83.689 125.087 83.6568 125.134 83.6162 125.175C83.5756 125.215 83.5274 125.247 83.4745 125.269C83.4215 125.29 83.3648 125.301 83.3077 125.301Z" fill="#002E5D"/>
<path d="M98.48 147.435H98.4046L72.7006 142.931C72.6337 142.92 72.5704 142.893 72.5159 142.852C72.4613 142.812 72.417 142.759 72.3865 142.698L66.4504 130.915C66.4216 130.863 66.4034 130.806 66.3971 130.748C66.3907 130.689 66.3963 130.63 66.4135 130.573C66.4307 130.517 66.4592 130.464 66.4972 130.419C66.5352 130.374 66.5819 130.337 66.6346 130.31C66.6873 130.284 66.7448 130.268 66.8036 130.265C66.8625 130.261 66.9215 130.269 66.9771 130.289C67.0327 130.309 67.0837 130.339 67.127 130.379C67.1704 130.419 67.2052 130.468 67.2294 130.522L73.0649 142.111L98.2319 146.511L104.708 133.19L86.0583 127.872C85.9526 127.836 85.8648 127.76 85.813 127.661C85.7613 127.562 85.7495 127.447 85.7801 127.339C85.8107 127.231 85.8813 127.14 85.9775 127.083C86.0737 127.026 86.188 127.008 86.297 127.033L105.456 132.496C105.517 132.513 105.574 132.544 105.622 132.585C105.671 132.627 105.709 132.679 105.735 132.738C105.761 132.795 105.775 132.858 105.775 132.921C105.775 132.985 105.761 133.048 105.735 133.105L98.8883 147.19C98.851 147.266 98.7926 147.329 98.7202 147.373C98.6478 147.416 98.5644 147.438 98.48 147.435Z" fill="#002E5D"/>
<path d="M30.8908 150.308C30.8404 150.309 30.7904 150.3 30.7431 150.283L9.77852 142.812C9.71689 142.789 9.661 142.753 9.61485 142.706C9.5687 142.66 9.53343 142.603 9.51156 142.541C9.49028 142.479 9.48347 142.413 9.49163 142.347C9.49979 142.282 9.52272 142.219 9.55867 142.164C18.1769 128.793 66.6673 119.373 68.7276 118.977C68.7846 118.964 68.8434 118.963 68.9007 118.974C68.958 118.985 69.0125 119.007 69.0611 119.039C69.1097 119.071 69.1514 119.113 69.1837 119.161C69.216 119.21 69.2382 119.265 69.2491 119.322C69.26 119.379 69.2594 119.438 69.2472 119.495C69.235 119.552 69.2115 119.606 69.1781 119.654C69.1447 119.702 69.1021 119.742 69.0528 119.773C69.0035 119.804 68.9484 119.825 68.8909 119.835C68.3978 119.929 19.8667 129.356 10.6014 142.18L31.0384 149.463C31.1334 149.499 31.2129 149.567 31.2632 149.655C31.3136 149.743 31.3315 149.846 31.314 149.946C31.2966 150.047 31.2447 150.138 31.1675 150.204C31.0902 150.27 30.9923 150.307 30.8908 150.308Z" fill="#002E5D"/>
<path d="M152.143 157.789C152.113 157.792 152.082 157.792 152.052 157.789L98.7907 146.599C98.6778 146.575 98.579 146.508 98.516 146.411C98.453 146.314 98.4309 146.197 98.4546 146.084C98.4784 145.971 98.546 145.872 98.6426 145.809C98.7392 145.746 98.8568 145.724 98.9697 145.747L151.813 156.846L153.446 149.708L104.617 134.529C104.559 134.515 104.504 134.49 104.456 134.454C104.408 134.418 104.368 134.373 104.339 134.321C104.309 134.269 104.291 134.211 104.284 134.152C104.278 134.092 104.283 134.032 104.301 133.975C104.319 133.918 104.348 133.865 104.387 133.82C104.426 133.774 104.474 133.737 104.527 133.711C104.581 133.685 104.64 133.67 104.699 133.668C104.759 133.665 104.819 133.675 104.874 133.696L154.09 148.988C154.195 149.02 154.284 149.091 154.339 149.186C154.393 149.281 154.41 149.393 154.385 149.5L152.567 157.453C152.544 157.548 152.49 157.633 152.413 157.694C152.336 157.755 152.241 157.788 152.143 157.789Z" fill="#002E5D"/>
<path d="M167.363 160.08H167.301L154.279 158.163C154.219 158.159 154.16 158.143 154.106 158.115C154.053 158.087 154.006 158.048 153.968 158.001C153.93 157.954 153.902 157.9 153.886 157.841C153.871 157.783 153.867 157.722 153.876 157.662C153.885 157.603 153.906 157.545 153.938 157.494C153.97 157.443 154.013 157.399 154.063 157.365C154.113 157.331 154.169 157.308 154.229 157.297C154.288 157.286 154.349 157.288 154.408 157.302L166.99 159.153L167.85 152.703L159.753 148.337L157.241 150.358C157.197 150.399 157.145 150.43 157.088 150.45C157.032 150.47 156.972 150.478 156.912 150.473C156.853 150.469 156.795 150.452 156.742 150.424C156.689 150.397 156.642 150.358 156.605 150.312C156.567 150.265 156.539 150.211 156.524 150.153C156.508 150.096 156.504 150.035 156.512 149.976C156.521 149.917 156.541 149.86 156.572 149.809C156.604 149.758 156.645 149.714 156.694 149.679L159.424 147.479C159.49 147.425 159.572 147.392 159.657 147.384C159.743 147.376 159.829 147.394 159.904 147.435L168.519 152.081C168.597 152.124 168.66 152.189 168.7 152.268C168.741 152.347 168.756 152.436 168.745 152.524L167.803 159.709C167.795 159.766 167.776 159.821 167.747 159.871C167.718 159.921 167.679 159.964 167.633 159.999C167.555 160.056 167.46 160.085 167.363 160.08Z" fill="#002E5D"/>
<path d="M31.6086 261.546H22.849C22.7773 261.547 22.7064 261.53 22.6429 261.497C22.5793 261.463 22.525 261.415 22.4849 261.355C22.4447 261.296 22.4199 261.227 22.4128 261.156C22.4056 261.084 22.4163 261.012 22.4439 260.946L43.7477 208.964C44.1177 208.054 44.1865 207.051 43.944 206.099C43.7014 205.148 43.1604 204.3 42.4003 203.68C36.5271 198.965 25.0884 189.416 14.4475 178.358C6.80285 170.406 6.50762 161.206 7.60689 154.891C8.33011 150.714 9.76653 146.693 11.8532 143.003C11.9155 142.909 12.0122 142.842 12.1227 142.817C12.2331 142.793 12.3489 142.812 12.4455 142.871C12.542 142.93 12.6119 143.025 12.6402 143.134C12.6686 143.244 12.6533 143.36 12.5976 143.459C10.5758 147.069 9.17739 150.994 8.46118 155.07C6.90964 163.943 9.14586 171.575 15.0756 177.739C25.6726 188.762 37.0767 198.289 42.9311 202.985C43.8436 203.723 44.4945 204.735 44.7875 205.872C45.0805 207.008 45 208.209 44.558 209.297L23.496 260.672H31.348L61.6846 207.43C63.0055 205.111 63.6222 202.457 63.4593 199.793C63.2964 197.129 62.361 194.57 60.7675 192.43L34.8625 157.607C34.7933 157.514 34.7639 157.397 34.7807 157.282C34.7975 157.168 34.8591 157.064 34.952 156.995C35.0449 156.926 35.1614 156.897 35.276 156.913C35.3905 156.93 35.4937 156.992 35.5629 157.085L61.4836 191.912C63.1777 194.188 64.1721 196.909 64.345 199.742C64.5179 202.575 63.8619 205.398 62.4573 207.863L31.9918 261.326C31.953 261.393 31.8971 261.449 31.8298 261.488C31.7625 261.526 31.6862 261.547 31.6086 261.546Z" fill="#002E5D"/>
<path d="M101.781 261.546H92.8302C92.7615 261.547 92.6938 261.531 92.6326 261.499C92.5714 261.468 92.5185 261.423 92.4784 261.367L58.1844 214.093C58.1449 214.048 58.1153 213.994 58.0975 213.936C58.0797 213.879 58.0741 213.818 58.081 213.758C58.0879 213.698 58.1072 213.64 58.1376 213.587C58.168 213.535 58.209 213.49 58.2578 213.454C58.3067 213.419 58.3624 213.394 58.4214 213.381C58.4804 213.368 58.5414 213.367 58.6006 213.379C58.6599 213.391 58.716 213.415 58.7654 213.45C58.8149 213.485 58.8566 213.529 58.8879 213.581L93.0532 260.672H101.012L63.2096 197.789C63.1795 197.741 63.1595 197.686 63.1506 197.63C63.1418 197.573 63.1443 197.515 63.158 197.46C63.1718 197.404 63.1965 197.352 63.2307 197.306C63.2649 197.26 63.3079 197.221 63.3572 197.192C63.4561 197.133 63.5742 197.115 63.686 197.143C63.7977 197.171 63.8941 197.242 63.954 197.34L102.155 260.886C102.196 260.952 102.217 261.028 102.219 261.105C102.22 261.183 102.201 261.259 102.162 261.326C102.124 261.394 102.069 261.45 102.002 261.488C101.935 261.527 101.859 261.547 101.781 261.546Z" fill="#002E5D"/>
<path d="M39.3654 163.384C39.2641 163.383 39.166 163.348 39.0881 163.283C39.0102 163.218 38.9572 163.128 38.9382 163.029C38.9269 162.972 38.9268 162.915 38.9381 162.858C38.9494 162.802 38.9718 162.749 39.004 162.701C39.0362 162.654 39.0775 162.613 39.1255 162.582C39.1736 162.551 39.2273 162.53 39.2837 162.519C57.6698 158.974 83.5403 144.235 83.7978 144.088C83.8473 144.059 83.9019 144.041 83.9586 144.033C84.0152 144.026 84.0727 144.03 84.1278 144.045C84.1829 144.06 84.2346 144.085 84.2798 144.12C84.325 144.155 84.363 144.198 84.3914 144.248C84.4199 144.298 84.4383 144.352 84.4457 144.409C84.453 144.466 84.4492 144.523 84.4343 144.578C84.4194 144.633 84.3938 144.685 84.359 144.73C84.3242 144.776 84.2808 144.814 84.2313 144.842C83.9706 144.993 57.9776 159.804 39.447 163.387L39.3654 163.384Z" fill="#002E5D"/>
<path d="M44.4838 271.259H19.1158C19.0414 271.259 18.9682 271.241 18.9029 271.205C18.8377 271.169 18.7826 271.118 18.743 271.055C18.7033 270.992 18.6804 270.92 18.6764 270.845C18.6724 270.771 18.6874 270.697 18.7201 270.63L22.3005 262.844C22.3533 262.747 22.4413 262.673 22.5465 262.638C22.6517 262.603 22.7663 262.609 22.867 262.655C22.9677 262.702 23.0471 262.785 23.0888 262.888C23.1306 262.99 23.1318 263.105 23.092 263.209L19.7879 270.397H43.9279L43.4097 268.197L33.2022 267.547C33.1397 267.54 33.0794 267.519 33.0253 267.487C32.9712 267.455 32.9244 267.412 32.8881 267.361L30.0614 263.275C30.0284 263.228 30.005 263.174 29.9926 263.118C29.9802 263.062 29.979 263.004 29.989 262.947C29.9991 262.89 30.0202 262.836 30.0513 262.787C30.0823 262.739 30.1225 262.697 30.1697 262.664C30.217 262.631 30.2702 262.607 30.3265 262.595C30.3827 262.582 30.4409 262.581 30.4976 262.591C30.5544 262.601 30.6085 262.622 30.6571 262.653C30.7057 262.685 30.7476 262.725 30.7806 262.772L33.4848 266.67L43.8054 267.327C43.8986 267.333 43.9874 267.369 44.0586 267.429C44.1299 267.49 44.1798 267.572 44.2011 267.663L44.9204 270.731C44.9344 270.795 44.934 270.861 44.9191 270.925C44.9042 270.989 44.8752 271.049 44.8342 271.1C44.7933 271.151 44.7414 271.192 44.6824 271.221C44.6234 271.25 44.5588 271.265 44.4932 271.265L44.4838 271.259Z" fill="#002E5D"/>
<path d="M116.432 271.259H93.9342C93.8655 271.259 93.7976 271.243 93.7362 271.212C93.6748 271.181 93.6216 271.136 93.5809 271.081C93.5401 271.025 93.5131 270.961 93.5019 270.893C93.4907 270.825 93.4957 270.755 93.5165 270.69L95.1874 265.447L94.2609 263.592C94.2188 263.49 94.2169 263.376 94.2555 263.273C94.2942 263.169 94.3705 263.084 94.4692 263.035C94.5679 262.986 94.6816 262.976 94.7874 263.007C94.8933 263.038 94.9834 263.108 95.0398 263.203L96.0448 265.214C96.092 265.312 96.101 265.424 96.0699 265.529L94.5373 270.398H115.744L114.673 268.197L104.245 267.311C104.179 267.305 104.115 267.284 104.058 267.25C104.001 267.215 103.952 267.169 103.916 267.113L101.428 263.281C101.392 263.234 101.366 263.179 101.352 263.121C101.338 263.063 101.336 263.002 101.346 262.943C101.356 262.884 101.378 262.828 101.411 262.778C101.444 262.728 101.487 262.685 101.537 262.652C101.587 262.619 101.643 262.597 101.702 262.587C101.761 262.577 101.822 262.579 101.88 262.593C101.938 262.607 101.992 262.633 102.04 262.67C102.088 262.706 102.127 262.751 102.157 262.804L104.531 266.459L114.993 267.352C115.068 267.357 115.141 267.383 115.203 267.425C115.265 267.468 115.315 267.526 115.348 267.594L116.834 270.662C116.866 270.728 116.881 270.802 116.877 270.876C116.873 270.95 116.851 271.022 116.811 271.085C116.772 271.148 116.718 271.2 116.653 271.235C116.588 271.271 116.515 271.29 116.441 271.29L116.432 271.259Z" fill="#002E5D"/>
<path d="M95.4687 266.006L98.4775 268.512L104.272 266.858L114.945 267.77L116.43 270.834H93.9297L95.4687 266.006Z" fill="#002E5D"/>
<path d="M21.9934 264.567L23.6705 267.936L33.2342 267.097L43.7652 267.77L44.4813 270.834H19.1133L21.9934 264.567Z" fill="#002E5D"/>
<path d="M139.795 76.1499C141.14 72.1446 138.985 67.8068 134.983 66.4612C130.981 65.1156 126.646 67.2718 125.302 71.2771C123.957 75.2824 126.112 79.6201 130.114 80.9657C134.116 82.3113 138.45 80.1552 139.795 76.1499Z" fill="white"/>
<path d="M134.425 60.0856L125.728 61.7861C124.55 62.0155 123.413 61.5063 123.216 60.6419L111.937 14.814C111.845 14.4394 111.831 14.0499 111.895 13.6695C111.959 13.2891 112.1 12.9258 112.309 12.602C112.519 12.2781 112.792 12.0006 113.113 11.7864C113.433 11.5722 113.794 11.4259 114.173 11.3564L126.133 9.01476C126.51 8.93656 126.899 8.93616 127.276 9.01359C127.653 9.09102 128.01 9.24464 128.325 9.46505C128.641 9.68546 128.908 9.96802 129.111 10.2954C129.313 10.6228 129.447 10.9881 129.503 11.369L136.309 58.0739C136.451 58.954 135.59 59.8561 134.425 60.0856Z" fill="white"/>
<path d="M128.832 79.432C127.117 79.4307 125.446 78.8832 124.062 77.8687C122.677 76.8542 121.652 75.4253 121.133 73.7887C120.614 72.1521 120.628 70.3926 121.175 68.765C121.721 67.1373 122.771 65.7258 124.172 64.7347C125.573 63.7435 127.253 63.2242 128.968 63.2518C130.684 63.2794 132.346 63.8524 133.714 64.8881C135.083 65.9237 136.087 67.3682 136.58 69.0126C137.074 70.657 137.033 72.416 136.461 74.0351C135.905 75.6147 134.872 76.9824 133.506 77.9492C132.139 78.916 130.506 79.4341 128.832 79.432ZM128.848 64.1277C127.038 64.1244 125.292 64.8017 123.957 66.0253C122.621 67.249 121.794 68.9299 121.638 70.7351C121.482 72.5403 122.01 74.3383 123.116 75.7729C124.221 77.2075 125.825 78.1742 127.61 78.4816C129.394 78.789 131.228 78.4147 132.75 77.4327C134.272 76.4507 135.369 74.9327 135.826 73.1793C136.282 71.4258 136.064 69.5648 135.214 67.9648C134.365 66.3647 132.946 65.1422 131.238 64.5394C130.471 64.2662 129.663 64.1249 128.848 64.1214V64.1277Z" fill="#002E5D"/>
<path d="M120.214 60.5759C119.174 60.5759 118.282 60.0698 117.999 59.2337L102.961 14.5059C102.82 14.0907 102.765 13.651 102.799 13.2137C102.834 12.7764 102.957 12.3508 103.162 11.963C103.372 11.5652 103.661 11.2144 104.011 10.9323C104.361 10.6501 104.764 10.4426 105.198 10.3223L116.919 6.99363C117.349 6.86551 117.801 6.82729 118.247 6.88137C118.693 6.93544 119.123 7.08064 119.51 7.30795C119.888 7.52946 120.217 7.82613 120.476 8.17966C120.736 8.5332 120.92 8.93612 121.018 9.36361L131.696 55.3299C131.954 56.4363 131.068 57.6118 129.658 58.011L121.131 60.4344C120.833 60.5226 120.524 60.5702 120.214 60.5759ZM117.845 7.73542C117.613 7.73538 117.381 7.76818 117.158 7.83286L105.436 11.1615C105.117 11.2494 104.819 11.4019 104.561 11.6095C104.302 11.817 104.09 12.0754 103.935 12.3685C103.784 12.6514 103.693 12.9624 103.668 13.282C103.643 13.6015 103.683 13.9229 103.787 14.2261L118.825 58.9571C119.033 59.5858 119.984 59.8655 120.905 59.6046L129.432 57.1812C130.352 56.9203 131.002 56.166 130.861 55.5373L120.182 9.57106C120.111 9.25836 119.977 8.96362 119.787 8.70515C119.597 8.44669 119.357 8.23002 119.08 8.0686C118.707 7.8464 118.28 7.73114 117.845 7.73542Z" fill="#002E5D"/>
<path d="M264.768 82.352C263.638 82.3559 262.518 82.1357 261.474 81.7041C260.429 81.2725 259.48 80.6381 258.682 79.8375C258.598 79.7541 258.552 79.641 258.552 79.5232C258.552 79.4053 258.598 79.2922 258.682 79.2088C258.765 79.1255 258.878 79.0786 258.996 79.0786C259.113 79.0786 259.226 79.1255 259.31 79.2088C260.028 79.928 260.881 80.498 261.82 80.8859C262.759 81.2737 263.765 81.4718 264.781 81.4688C264.897 81.4688 265.008 81.5147 265.091 81.5966C265.173 81.6784 265.22 81.7895 265.221 81.9057C265.222 81.9653 265.212 82.0247 265.19 82.0801C265.168 82.1355 265.134 82.1857 265.092 82.2276C265.049 82.2694 264.999 82.3021 264.943 82.3235C264.887 82.345 264.828 82.3547 264.768 82.352ZM270.547 79.9506C270.461 79.9515 270.376 79.9266 270.303 79.8791C270.231 79.8315 270.174 79.7635 270.141 79.6836C270.107 79.6037 270.098 79.5156 270.114 79.4305C270.131 79.3454 270.172 79.2672 270.233 79.2057C270.955 78.4875 271.527 77.6332 271.916 76.6922C272.305 75.7513 272.504 74.7424 272.501 73.7239V73.6925C272.496 73.6322 272.503 73.5715 272.523 73.5143C272.542 73.457 272.574 73.4045 272.614 73.3599C272.655 73.3154 272.705 73.2798 272.76 73.2555C272.816 73.2311 272.876 73.2186 272.936 73.2186C272.996 73.2186 273.056 73.2311 273.112 73.2555C273.167 73.2798 273.217 73.3154 273.257 73.3599C273.298 73.4045 273.33 73.457 273.349 73.5143C273.369 73.5715 273.376 73.6322 273.371 73.6925V73.7239C273.375 74.856 273.155 75.9777 272.724 77.0243C272.293 78.0709 271.659 79.0217 270.858 79.8218C270.816 79.8636 270.765 79.8963 270.71 79.9179C270.654 79.9395 270.594 79.9496 270.535 79.9475L270.547 79.9506ZM256.562 74.1797C256.505 74.181 256.448 74.1708 256.395 74.1499C256.342 74.129 256.294 74.0977 256.253 74.0579C256.213 74.0181 256.18 73.9705 256.158 73.918C256.136 73.8655 256.125 73.8092 256.125 73.7522V73.7334C256.123 72.6039 256.344 71.4852 256.775 70.4415C257.206 69.3977 257.839 68.4495 258.638 67.6513C258.721 67.5679 258.834 67.5211 258.952 67.5211C259.07 67.5211 259.182 67.5679 259.266 67.6513C259.349 67.7346 259.396 67.8477 259.396 67.9656C259.396 68.0835 259.349 68.1965 259.266 68.2799C258.549 68.9973 257.98 69.8496 257.593 70.7877C257.206 71.7257 257.008 72.7311 257.011 73.7459C257.008 73.8629 256.96 73.9742 256.875 74.0555C256.791 74.1367 256.679 74.1814 256.562 74.1797ZM270.513 68.3585C270.455 68.3598 270.397 68.3494 270.343 68.3278C270.289 68.3062 270.24 68.2739 270.199 68.2328C269.482 67.5162 268.631 66.9483 267.694 66.5615C266.757 66.1748 265.753 65.9769 264.74 65.9791C264.623 65.9799 264.511 65.935 264.427 65.8539C264.343 65.7728 264.294 65.662 264.291 65.5453C264.289 65.4885 264.299 65.432 264.32 65.3791C264.34 65.3261 264.371 65.2778 264.411 65.2371C264.45 65.1964 264.498 65.164 264.55 65.1419C264.602 65.1198 264.658 65.1084 264.715 65.1084H264.74C265.868 65.1066 266.985 65.3279 268.026 65.7594C269.068 66.1909 270.015 66.8243 270.811 67.623C270.854 67.6635 270.888 67.7122 270.911 67.7663C270.934 67.8203 270.946 67.8785 270.946 67.9373C270.946 67.9961 270.934 68.0543 270.911 68.1083C270.888 68.1623 270.854 68.2111 270.811 68.2516C270.727 68.3186 270.621 68.3522 270.513 68.3459V68.3585Z" fill="#002E5D"/>
<path d="M490.885 383.075C489.755 383.079 488.635 382.859 487.59 382.427C486.545 381.996 485.596 381.361 484.798 380.561C484.756 380.52 484.722 380.471 484.699 380.417C484.676 380.363 484.665 380.305 484.665 380.246C484.665 380.188 484.676 380.13 484.699 380.076C484.722 380.022 484.756 379.973 484.798 379.932C484.838 379.889 484.887 379.855 484.941 379.831C484.995 379.808 485.053 379.796 485.112 379.796C485.171 379.796 485.229 379.808 485.283 379.831C485.337 379.855 485.386 379.889 485.426 379.932C486.144 380.651 486.997 381.221 487.936 381.609C488.875 381.997 489.881 382.195 490.897 382.192C491.013 382.193 491.124 382.239 491.206 382.321C491.288 382.402 491.335 382.513 491.337 382.629C491.339 382.688 491.328 382.748 491.306 382.803C491.284 382.859 491.251 382.909 491.208 382.951C491.166 382.993 491.115 383.025 491.059 383.047C491.004 383.068 490.944 383.078 490.885 383.075ZM496.664 380.674C496.577 380.675 496.492 380.65 496.42 380.602C496.347 380.555 496.291 380.487 496.257 380.407C496.223 380.327 496.214 380.239 496.231 380.154C496.247 380.069 496.289 379.99 496.35 379.929C497.071 379.211 497.643 378.356 498.032 377.415C498.422 376.474 498.621 375.466 498.617 374.447V374.416C498.612 374.355 498.62 374.295 498.639 374.237C498.659 374.18 498.69 374.128 498.731 374.083C498.772 374.039 498.821 374.003 498.877 373.979C498.932 373.954 498.992 373.942 499.052 373.942C499.113 373.942 499.173 373.954 499.228 373.979C499.283 374.003 499.333 374.039 499.374 374.083C499.415 374.128 499.446 374.18 499.465 374.237C499.485 374.295 499.492 374.355 499.487 374.416V374.447C499.491 375.579 499.272 376.701 498.84 377.747C498.409 378.794 497.775 379.745 496.975 380.545C496.892 380.627 496.78 380.673 496.664 380.674ZM482.69 374.893C482.634 374.894 482.577 374.884 482.525 374.863C482.472 374.842 482.424 374.81 482.383 374.771C482.343 374.731 482.31 374.684 482.288 374.631C482.266 374.579 482.254 374.523 482.254 374.466V374.447C482.252 373.318 482.473 372.199 482.904 371.155C483.335 370.111 483.968 369.163 484.767 368.365C484.808 368.324 484.857 368.291 484.911 368.269C484.965 368.246 485.022 368.235 485.081 368.235C485.139 368.235 485.197 368.246 485.251 368.269C485.304 368.291 485.353 368.324 485.395 368.365C485.436 368.406 485.469 368.455 485.491 368.509C485.513 368.563 485.525 368.621 485.525 368.679C485.525 368.738 485.513 368.796 485.491 368.849C485.469 368.903 485.436 368.952 485.395 368.994C484.677 369.711 484.109 370.563 483.722 371.501C483.335 372.439 483.137 373.445 483.14 374.46C483.137 374.577 483.089 374.688 483.004 374.769C482.92 374.85 482.807 374.895 482.69 374.893ZM496.642 369.072C496.584 369.074 496.526 369.063 496.472 369.042C496.418 369.02 496.369 368.988 496.328 368.947C495.611 368.23 494.76 367.662 493.823 367.275C492.886 366.889 491.882 366.691 490.869 366.693C490.752 366.694 490.64 366.649 490.556 366.568C490.472 366.487 490.423 366.376 490.42 366.259C490.418 366.202 490.428 366.146 490.449 366.093C490.469 366.04 490.5 365.992 490.54 365.951C490.579 365.91 490.626 365.878 490.679 365.856C490.731 365.833 490.787 365.822 490.844 365.822H490.885C492.01 365.822 493.124 366.044 494.163 366.475C495.202 366.907 496.146 367.539 496.94 368.337C496.983 368.377 497.017 368.426 497.04 368.48C497.063 368.534 497.075 368.592 497.075 368.651C497.075 368.71 497.063 368.768 497.04 368.822C497.017 368.876 496.983 368.925 496.94 368.965C496.857 369.037 496.751 369.075 496.642 369.072Z" fill="#002E5D"/>
<path d="M280.194 463.592C279.064 463.595 277.945 463.375 276.901 462.943C275.857 462.512 274.908 461.877 274.11 461.077C274.067 461.037 274.033 460.988 274.01 460.934C273.986 460.88 273.974 460.822 273.974 460.763C273.974 460.704 273.986 460.645 274.01 460.591C274.033 460.537 274.067 460.489 274.11 460.448C274.151 460.406 274.2 460.373 274.254 460.35C274.308 460.327 274.366 460.315 274.425 460.315C274.483 460.315 274.541 460.327 274.595 460.35C274.649 460.373 274.698 460.406 274.739 460.448C275.455 461.167 276.306 461.737 277.244 462.126C278.181 462.514 279.186 462.713 280.2 462.711C280.309 462.721 280.411 462.771 280.485 462.851C280.559 462.932 280.6 463.037 280.6 463.147C280.6 463.256 280.559 463.362 280.485 463.442C280.411 463.523 280.309 463.573 280.2 463.582L280.194 463.592ZM285.976 461.19C285.918 461.192 285.86 461.181 285.806 461.159C285.752 461.138 285.703 461.106 285.662 461.064C285.62 461.023 285.587 460.975 285.565 460.921C285.542 460.867 285.53 460.809 285.53 460.75C285.53 460.692 285.542 460.634 285.565 460.58C285.587 460.526 285.62 460.477 285.662 460.436C286.382 459.717 286.953 458.863 287.342 457.923C287.731 456.983 287.929 455.975 287.927 454.957V454.923C287.927 454.807 287.973 454.696 288.055 454.614C288.136 454.532 288.247 454.486 288.363 454.486C288.479 454.486 288.59 454.532 288.672 454.614C288.754 454.696 288.8 454.807 288.8 454.923V454.957C288.804 456.089 288.584 457.21 288.153 458.256C287.722 459.302 287.088 460.252 286.287 461.052C286.249 461.094 286.202 461.128 286.151 461.152C286.099 461.176 286.043 461.189 285.986 461.19H285.976ZM272.003 455.41C271.946 455.411 271.89 455.401 271.837 455.38C271.784 455.359 271.736 455.328 271.695 455.288C271.654 455.248 271.622 455.201 271.6 455.148C271.578 455.096 271.566 455.039 271.566 454.982C271.564 453.852 271.785 452.733 272.216 451.689C272.647 450.644 273.28 449.696 274.079 448.897C274.162 448.814 274.275 448.767 274.393 448.767C274.511 448.767 274.624 448.814 274.707 448.897C274.79 448.98 274.837 449.094 274.837 449.211C274.837 449.329 274.79 449.442 274.707 449.526C273.99 450.244 273.421 451.096 273.034 452.035C272.647 452.974 272.449 453.98 272.452 454.995C272.445 455.107 272.396 455.212 272.314 455.289C272.232 455.366 272.125 455.409 272.012 455.41H272.003ZM285.951 449.589C285.893 449.589 285.835 449.579 285.782 449.557C285.728 449.536 285.679 449.504 285.637 449.463C284.92 448.747 284.069 448.179 283.132 447.793C282.195 447.407 281.192 447.209 280.178 447.212C280.062 447.212 279.95 447.167 279.866 447.085C279.783 447.003 279.735 446.892 279.732 446.775C279.73 446.718 279.74 446.662 279.76 446.608C279.78 446.555 279.811 446.506 279.851 446.465C279.89 446.424 279.938 446.391 279.99 446.369C280.043 446.347 280.099 446.335 280.156 446.335C281.287 446.332 282.406 446.553 283.451 446.984C284.495 447.416 285.445 448.05 286.243 448.85C286.285 448.891 286.319 448.94 286.342 448.994C286.365 449.048 286.377 449.106 286.377 449.164C286.377 449.223 286.365 449.281 286.342 449.335C286.319 449.389 286.285 449.438 286.243 449.479C286.166 449.549 286.065 449.588 285.961 449.589H285.951Z" fill="#002E5D"/>
<path d="M337.995 354.51C337.958 354.514 337.92 354.514 337.882 354.51L303.497 345.313C303.385 345.283 303.29 345.21 303.231 345.11C303.173 345.01 303.157 344.89 303.186 344.778C303.216 344.666 303.289 344.57 303.389 344.512C303.489 344.454 303.608 344.438 303.72 344.467L338.105 353.667C338.209 353.693 338.299 353.755 338.359 353.843C338.42 353.931 338.445 354.038 338.432 354.144C338.418 354.25 338.366 354.347 338.286 354.416C338.205 354.486 338.102 354.524 337.995 354.522V354.51Z" fill="#002E5D"/>
<path d="M401.075 386.514C401.041 386.518 401.006 386.518 400.972 386.514L309.148 363.713C309.092 363.699 309.04 363.674 308.994 363.64C308.948 363.606 308.909 363.563 308.879 363.514C308.849 363.465 308.83 363.411 308.821 363.354C308.813 363.297 308.815 363.239 308.829 363.183C308.843 363.128 308.868 363.075 308.902 363.029C308.936 362.983 308.979 362.944 309.028 362.914C309.077 362.885 309.131 362.865 309.188 362.856C309.245 362.848 309.303 362.85 309.358 362.864L401.182 385.668C401.286 385.694 401.377 385.757 401.438 385.845C401.498 385.933 401.524 386.04 401.511 386.146C401.498 386.253 401.446 386.35 401.366 386.421C401.286 386.492 401.182 386.53 401.075 386.53V386.514Z" fill="#002E5D"/>
<path d="M342.094 268.614C342.352 268.683 342.531 268.841 342.63 269.088C342.795 269.298 342.843 269.532 342.775 269.789L340.65 277.751C340.582 278.008 340.417 278.213 340.156 278.364C339.96 278.477 339.733 278.5 339.475 278.431L336.615 277.668C336.358 277.599 336.195 277.694 336.126 277.951L332.806 290.396C332.737 290.654 332.572 290.858 332.311 291.009C332.115 291.122 331.888 291.145 331.631 291.076L322.587 288.663C322.329 288.594 322.118 288.455 321.953 288.246C321.853 287.998 321.838 287.746 321.907 287.488L325.227 275.043C325.296 274.786 325.201 274.623 324.944 274.554L303.378 268.8C303.12 268.731 302.909 268.592 302.744 268.383C302.645 268.135 302.629 267.883 302.698 267.625L304.368 261.364C304.451 261.055 304.631 260.689 304.91 260.266L325.32 232.179C325.598 231.756 326.021 231.62 326.588 231.772L336.25 234.35C337.023 234.556 337.184 234.985 336.734 235.638L317.87 261.654C317.736 261.95 317.798 262.132 318.055 262.201L327.563 264.737C327.82 264.806 327.984 264.711 328.052 264.454L330.403 255.642C330.472 255.384 330.604 255.199 330.8 255.086C331.061 254.934 331.321 254.893 331.578 254.962L340.622 257.375C340.88 257.444 341.058 257.602 341.158 257.849C341.323 258.059 341.371 258.292 341.302 258.55L338.951 267.362C338.882 267.619 338.977 267.782 339.234 267.851L342.094 268.614ZM358.53 299.164C353.429 297.803 349.757 295.222 347.514 291.422C345.285 287.571 344.851 283.094 346.212 277.993L352.192 255.577C353.54 250.527 356.132 246.913 359.97 244.735C363.821 242.506 368.298 242.072 373.399 243.433C378.501 244.794 382.166 247.4 384.395 251.252C386.69 255.066 387.163 259.497 385.816 264.548L379.836 286.963C378.474 292.065 375.842 295.723 371.939 297.939C368.102 300.116 363.632 300.525 358.53 299.164ZM361.026 289.811C362.829 290.292 364.43 290.084 365.829 289.188C367.241 288.24 368.222 286.735 368.772 284.674L375.062 261.099C375.612 259.037 375.504 257.27 374.738 255.796C373.972 254.322 372.687 253.344 370.883 252.863C369.08 252.382 367.479 252.59 366.081 253.486C364.734 254.396 363.785 255.882 363.235 257.943L356.945 281.519C356.396 283.58 356.471 285.366 357.172 286.878C357.937 288.352 359.222 289.33 361.026 289.811ZM423.618 290.365C423.875 290.433 424.054 290.592 424.154 290.839C424.319 291.048 424.367 291.282 424.298 291.54L422.174 299.501C422.105 299.759 421.94 299.963 421.679 300.114C421.483 300.228 421.256 300.25 420.999 300.181L418.139 299.418C417.881 299.35 417.718 299.444 417.649 299.702L414.329 312.146C414.26 312.404 414.095 312.608 413.834 312.76C413.638 312.873 413.412 312.895 413.154 312.826L404.11 310.414C403.853 310.345 403.641 310.206 403.476 309.996C403.377 309.749 403.361 309.496 403.43 309.239L406.75 296.794C406.819 296.536 406.725 296.373 406.467 296.304L384.901 290.551C384.644 290.482 384.432 290.343 384.268 290.133C384.168 289.886 384.153 289.633 384.221 289.376L385.892 283.115C385.974 282.805 386.155 282.439 386.433 282.017L406.843 253.929C407.122 253.507 407.544 253.371 408.111 253.522L417.773 256.1C418.546 256.306 418.708 256.736 418.257 257.388L399.393 283.405C399.259 283.7 399.321 283.882 399.579 283.951L409.086 286.488C409.344 286.556 409.507 286.462 409.576 286.204L411.927 277.393C411.995 277.135 412.128 276.949 412.324 276.836C412.585 276.685 412.844 276.644 413.102 276.712L422.145 279.125C422.403 279.194 422.582 279.352 422.681 279.599C422.846 279.809 422.894 280.043 422.825 280.3L420.474 289.112C420.406 289.37 420.5 289.533 420.758 289.602L423.618 290.365Z" fill="white"/>
</g>
<defs>
<clipPath id="clip0_1170_5322">
<rect width="638" height="478" fill="white"/>
</clipPath>
</defs>
</svg>
