<svg width="474" height="415" viewBox="0 0 474 415" fill="none" xmlns="http://www.w3.org/2000/svg">
<g clip-path="url(#clip0_627_12060)">
<path d="M437.327 126.122L59.2871 47.5602L8.36435 291.306L386.404 369.867L437.327 126.122Z" fill="#BBD1DC"/>
<path d="M300.854 314.75C341.68 314.75 374.776 281.742 374.776 241.024C374.776 200.306 341.68 167.297 300.854 167.297C260.028 167.297 226.932 200.306 226.932 241.024C226.932 281.742 260.028 314.75 300.854 314.75Z" fill="white"/>
<path d="M120.009 197.105C87.577 147.909 103.928 85.4325 156.524 57.5573C209.12 29.6822 278.051 46.9613 310.483 96.1542C342.915 145.347 326.565 207.82 273.966 235.699C221.366 263.578 152.439 246.294 120.009 197.105ZM386.719 368.309L314.111 258.174L307.825 261.505L297.9 246.455C345.099 214.52 362.096 157.008 340.504 106.013C337.532 99.0134 333.927 92.2982 329.733 85.951C290.748 26.8116 207.885 6.03881 144.656 39.5533C134.118 45.1384 124.788 51.8783 116.741 59.5072C76.5059 97.6516 68.2718 158.02 100.761 207.302C137.146 262.491 211.743 284.269 272.935 259.687L282.856 274.737L276.568 278.07L329.263 358.006L386.719 368.309Z" fill="#F3F8FF"/>
<path d="M360.652 73.9368C327.305 11.276 249.341 -12.5565 186.517 20.7C123.692 53.9565 99.7936 131.712 133.141 194.373C164.262 252.851 234.243 277.511 294.512 253.505L303 269.45L296.753 272.758L363.492 398.164C364.792 400.607 366.561 402.771 368.7 404.532C370.838 406.293 373.303 407.617 375.954 408.428C378.606 409.239 381.391 409.52 384.152 409.257C386.912 408.994 389.594 408.192 392.043 406.895C394.493 405.598 396.662 403.834 398.428 401.701C400.194 399.568 401.521 397.11 402.334 394.465C403.147 391.821 403.429 389.043 403.166 386.29C402.902 383.537 402.097 380.862 400.797 378.419L334.059 253.013L327.81 256.32L319.321 240.376C373.03 204.041 391.773 132.418 360.652 73.9368ZM152.266 184.25C124.526 132.129 144.408 67.4416 196.669 39.7781C248.929 12.1147 313.786 31.9376 341.525 84.0633C369.263 136.189 349.383 200.871 297.121 228.532C244.858 256.193 180.004 236.373 152.266 184.25Z" fill="#325D9C"/>
<path d="M406.996 8.71892C359.046 -11.2443 306.92 4.23312 290.569 43.2983C285.368 55.7225 284.417 69.037 287.078 82.0579C288.522 89.1829 287.132 96.589 283.201 102.71L261.183 137.095C260.87 137.585 260.696 138.15 260.681 138.731C260.666 139.311 260.81 139.885 261.097 140.39C261.385 140.895 261.805 141.313 262.313 141.597C262.821 141.881 263.397 142.022 263.979 142.004L320.316 140.27C325.51 140.127 330.643 141.416 335.15 143.994C339.231 146.308 343.45 148.372 347.783 150.174C395.732 170.139 447.858 154.657 464.208 115.596C480.558 76.535 454.942 28.6834 406.996 8.71892Z" fill="#F70431"/>
<path d="M399.997 170.763C397.795 170.763 395.578 170.693 393.346 170.553C381.062 169.782 368.873 166.91 357.119 162.015C352.774 160.207 348.544 158.137 344.45 155.817C339.996 153.269 334.923 151.995 329.789 152.136L273.448 153.872C272.806 153.892 272.17 153.737 271.61 153.423C271.05 153.11 270.587 152.65 270.269 152.093C269.952 151.536 269.793 150.904 269.81 150.263C269.826 149.623 270.018 148.999 270.364 148.46L292.381 114.075C296.284 108.03 297.66 100.702 296.215 93.658C294.872 87.1833 294.465 80.5502 295.008 73.9607C295.567 67.3367 297.159 60.8402 299.725 54.7052C305.181 41.6712 314.882 30.7457 327.781 23.1089C340.304 15.693 355.42 11.5855 371.49 11.231C371.533 11.2296 371.576 11.2368 371.616 11.2522C371.657 11.2676 371.694 11.2909 371.725 11.3207C371.756 11.3505 371.781 11.3863 371.798 11.4258C371.816 11.4654 371.825 11.508 371.825 11.5511C371.827 11.6379 371.794 11.7219 371.734 11.7846C371.674 11.8473 371.591 11.8837 371.504 11.8858C338.417 12.6174 311.145 29.1213 300.332 54.9579C295.341 66.8821 294.139 80.2244 296.859 93.5283C298.338 100.738 296.93 108.239 292.936 114.427L270.918 148.812C270.637 149.251 270.481 149.758 270.467 150.28C270.453 150.801 270.583 151.316 270.841 151.769C271.099 152.222 271.477 152.597 271.932 152.852C272.388 153.107 272.905 153.233 273.428 153.217L329.769 151.481C335.023 151.337 340.215 152.64 344.775 155.247C348.847 157.554 353.054 159.612 357.376 161.41C405.083 181.274 457.118 165.841 473.372 127.008C473.408 126.933 473.473 126.874 473.551 126.844C473.63 126.814 473.717 126.816 473.795 126.848C473.873 126.88 473.935 126.941 473.969 127.018C474.003 127.095 474.006 127.182 473.978 127.261C469.962 136.858 463.758 145.207 455.541 152.075C447.608 158.705 438.143 163.684 427.408 166.873C418.691 169.457 409.499 170.763 399.997 170.763Z" fill="#002E5D"/>
<path d="M350.436 53.1879C351.232 49.4019 353.253 45.8188 356.499 42.4384C359.745 39.0581 363.974 36.5787 369.185 35C374.395 33.4223 380.117 33.2808 386.351 34.5754C392.145 35.7792 397.037 37.9086 401.029 40.9635C405.02 44.0184 407.841 47.6306 409.492 51.8003C411.143 55.9699 411.519 60.207 410.62 64.5116C409.912 67.899 408.603 70.725 406.691 72.9897C404.887 75.1587 402.764 77.0427 400.395 78.5775C398.108 80.0352 394.049 82.4459 388.217 85.8095C386.855 86.596 385.538 87.4572 384.271 88.3891C383.255 89.1554 382.467 89.8856 381.905 90.5797C381.363 91.2439 380.888 91.9605 380.489 92.7188C380.107 93.4499 379.492 94.7462 378.644 96.6079C377.017 100.596 374.206 102.174 370.211 101.344C368.133 100.911 366.526 99.8697 365.391 98.2205C364.255 96.5713 363.966 94.4107 364.524 91.7385C365.224 88.3873 366.349 85.5956 367.9 83.3635C369.388 81.1928 371.244 79.2982 373.386 77.7652C375.49 76.266 378.268 74.5463 381.719 72.6061C384.744 70.9049 386.944 69.605 388.321 68.7063C389.687 67.8152 390.923 66.7387 391.992 65.5077C393.061 64.2816 393.792 62.7997 394.114 61.2071C394.781 58.019 394.155 55.0814 392.235 52.3942C390.315 49.7071 387.475 47.9728 383.716 47.1915C379.319 46.2769 375.851 46.7099 373.312 48.4905C370.772 50.2711 368.333 53.1637 365.994 57.1684C363.695 61.391 360.644 63.1076 356.842 62.3183C354.603 61.8526 352.879 60.6731 351.669 58.7796C350.46 56.8862 350.049 55.0223 350.436 53.1879ZM365.998 124.795C363.56 124.288 361.596 123.058 360.106 121.106C358.616 119.153 358.168 116.762 358.76 113.933C359.284 111.423 360.605 109.493 362.722 108.143C364.839 106.794 367.176 106.386 369.733 106.918C372.252 107.442 374.191 108.739 375.55 110.81C376.91 112.881 377.327 115.174 376.804 117.689C376.22 120.479 374.863 122.484 372.732 123.704C370.601 124.924 368.356 125.287 365.998 124.795Z" fill="white"/>
<path d="M408.079 253.036L436.193 231.01L414.109 202.97L385.995 224.996L408.079 253.036Z" fill="#F3F8FF"/>
<path d="M103.205 409.357L87.6493 382.23L86.6532 405.192L66.6171 395.793L70.7249 403.331L46.207 409.357H103.205Z" fill="#F3F8FF"/>
<path d="M107.81 407.92C107.746 407.92 107.683 407.901 107.63 407.866C107.576 407.831 107.534 407.78 107.508 407.722L95.4129 379.526L96.1915 405.851C96.1935 405.91 96.1798 405.967 96.1518 406.019C96.1238 406.07 96.0826 406.113 96.0323 406.143C95.9821 406.173 95.9247 406.189 95.8662 406.189C95.8076 406.189 95.75 406.174 95.6994 406.145L71.9907 392.57L79.226 405.699C79.2526 405.747 79.2667 405.801 79.2668 405.857C79.2669 405.912 79.2531 405.966 79.2267 406.014C79.2002 406.063 79.162 406.104 79.1155 406.133C79.0691 406.163 79.0158 406.181 78.9607 406.185L44.4461 407.92C44.402 407.924 44.3576 407.919 44.3154 407.905C44.2733 407.892 44.2344 407.87 44.201 407.841C44.1676 407.812 44.1404 407.777 44.121 407.737C44.1017 407.697 44.0905 407.654 44.0883 407.61C44.0861 407.566 44.0928 407.522 44.108 407.48C44.1233 407.439 44.1468 407.401 44.1771 407.369C44.2074 407.337 44.2439 407.311 44.2844 407.293C44.325 407.275 44.3687 407.266 44.4129 407.265L78.4036 405.556L70.8566 391.863C70.821 391.8 70.8074 391.727 70.8179 391.655C70.8285 391.583 70.8626 391.517 70.915 391.466C70.9661 391.415 71.0331 391.382 71.1052 391.373C71.1774 391.364 71.2505 391.379 71.3129 391.416L95.5283 405.276L94.702 377.813C94.7004 377.737 94.7252 377.663 94.7722 377.604C94.8193 377.544 94.8856 377.502 94.9599 377.486C95.0342 377.47 95.1119 377.479 95.1797 377.514C95.2476 377.548 95.3014 377.605 95.332 377.674L108.109 407.464C108.143 407.544 108.144 407.634 108.111 407.715C108.079 407.795 108.015 407.86 107.935 407.894C107.896 407.91 107.853 407.919 107.81 407.92Z" fill="#002E5D"/>
<path d="M227.043 329.258C226.959 329.256 226.879 329.222 226.82 329.163C226.76 329.103 226.725 329.024 226.723 328.94C226.72 328.856 226.75 328.775 226.806 328.712C226.862 328.649 226.94 328.61 227.023 328.603L292.015 324.606C292.058 324.603 292.101 324.609 292.142 324.623C292.183 324.636 292.22 324.658 292.253 324.687C292.285 324.715 292.312 324.75 292.33 324.788C292.349 324.827 292.361 324.869 292.363 324.912C292.366 324.955 292.36 324.998 292.346 325.038C292.332 325.079 292.31 325.117 292.282 325.149C292.253 325.181 292.219 325.207 292.18 325.226C292.141 325.245 292.099 325.256 292.056 325.259L227.064 329.258H227.043Z" fill="#002E5D"/>
<path d="M86.447 337.903C86.3767 337.903 86.3083 337.88 86.2518 337.838C86.1952 337.797 86.1535 337.738 86.1326 337.671L8.97404 86.9498C8.95205 86.8677 8.96285 86.7803 9.00418 86.706C9.04551 86.6317 9.11413 86.5763 9.19561 86.5514C9.27708 86.5265 9.36505 86.5342 9.44099 86.5727C9.51693 86.6113 9.57491 86.6777 9.60273 86.758L86.6844 337.232L132.607 334.407C132.693 334.403 132.777 334.433 132.841 334.491C132.905 334.548 132.944 334.629 132.949 334.714C132.954 334.8 132.925 334.885 132.869 334.949C132.812 335.014 132.733 335.055 132.647 335.061L86.4669 337.902L86.447 337.903Z" fill="#002E5D"/>
<path d="M174.37 127.788L169.482 156.128L172.729 155.478L176.618 176.766L160.369 179.879L129.983 215.69C128.978 216.874 128.388 218.354 128.302 219.904C128.216 221.453 128.64 222.989 129.508 224.276L151.47 256.84L149.746 326.435L138.919 398.161H140.909L132.644 414.673H168.815L168.77 408.317H151.083L146.563 398.275L149.639 398.325L176.033 306.75L185.045 398.2H187.391L179.433 414.528L215.334 414.68L215.534 408.232L197.893 408.288L193.275 398.27L196.916 398.172L200.186 260.939L203.502 206.914L214.211 206.041C216.15 205.882 218.034 205.318 219.74 204.385C221.446 203.452 222.935 202.171 224.112 200.625C225.288 199.08 226.125 197.304 226.567 195.415C227.009 193.525 227.048 191.564 226.679 189.659L219.2 150.957L223.253 136.562L207.469 135.431L208.04 140.917L204.354 141.086L209.743 151.518L211.458 153.461L214.835 184.465L202.842 187.393L189.091 178.486L191.805 166.679L199.908 169.12L197.905 132.119L204.35 131.167V119.731L174.37 127.788Z" fill="white"/>
<path d="M204.211 119.768L204.349 127.37L179.062 131.757L181.023 153.821L169.504 156.001L174.369 127.792L204.211 119.768Z" fill="#412D47"/>
<path d="M215.527 411.602H188.741L183.433 406.663L179.355 414.673H215.527V411.602Z" fill="#002E5D"/>
<path d="M199.919 169.328L198.077 132.099L185.959 133.89L187.189 165.181L199.919 169.328Z" fill="#F4B18F"/>
<path d="M168.798 411.602H142.012L136.703 406.663L132.627 414.673H168.798V411.602Z" fill="#002E5D"/>
<path d="M217.125 172.073L220.126 191.103L204.354 195.49L203.492 207.143L215.164 205.899C223.661 204.586 228.591 196.198 226.611 187.853L223.427 172.059L217.125 172.073Z" fill="#F70431"/>
<path d="M223.418 172.059L219.341 150.714L223.251 136.567L207.283 135.332L208.064 141.132L209.417 141.201L210.299 145.765L213.671 151.225L217.12 172.073L223.418 172.059Z" fill="#F4B18F"/>
<path d="M188.969 178.428L199.01 184.931L191.705 258.8L161.862 250.359L155.561 236.764L147.324 242.608L136.266 221.525C135.815 220.664 135.631 219.689 135.736 218.723C135.841 217.758 136.232 216.845 136.857 216.101L163.024 184.997L177.428 179.797L185.953 191.351L188.969 178.428Z" fill="#F70431"/>
<path d="M165.998 251.529L191.705 258.8L193.955 398.325L185.043 398.161L176.162 306.219L181.995 286.07L178.02 281.097L146.052 398.325H138.883L149.709 326.603L151.463 256.84L164.691 276.221L174.566 267.154L165.998 251.529Z" fill="#412D47"/>
<path d="M147.33 242.609L167.186 274.222L171.12 270.32L155.567 236.764L147.33 242.609Z" fill="#F4B18F"/>
<path d="M169.483 156.46C169.435 156.461 169.388 156.45 169.344 156.43C169.301 156.41 169.262 156.381 169.231 156.344C169.2 156.307 169.178 156.265 169.165 156.218C169.153 156.172 169.151 156.124 169.159 156.077L174.047 127.736C174.057 127.674 174.085 127.616 174.127 127.569C174.17 127.522 174.225 127.488 174.286 127.471L204.262 119.411C204.31 119.398 204.361 119.397 204.411 119.406C204.46 119.416 204.506 119.437 204.546 119.468C204.586 119.498 204.619 119.538 204.641 119.583C204.664 119.628 204.675 119.677 204.675 119.727V131.169C204.675 131.247 204.646 131.323 204.595 131.383C204.543 131.442 204.471 131.481 204.393 131.492L183.586 134.566L185.381 152.976C185.388 153.057 185.366 153.138 185.317 153.204C185.267 153.269 185.196 153.314 185.115 153.329L169.54 156.45C169.521 156.455 169.502 156.458 169.483 156.46ZM174.656 128.053L169.881 155.717L184.698 152.75L182.906 134.324C182.898 134.24 182.923 134.157 182.975 134.09C183.027 134.024 183.102 133.98 183.186 133.968L204.021 130.89V120.16L174.656 128.053Z" fill="#002E5D"/>
<path d="M199.918 169.655C199.884 169.655 199.849 169.649 199.816 169.639L180.459 163.334C180.38 163.304 180.315 163.245 180.279 163.169C180.242 163.093 180.236 163.005 180.262 162.925C180.289 162.844 180.345 162.777 180.42 162.738C180.495 162.698 180.582 162.688 180.664 162.711L199.566 168.869L197.831 134.829C197.829 134.786 197.835 134.743 197.849 134.703C197.864 134.662 197.886 134.625 197.915 134.593C197.944 134.561 197.979 134.535 198.018 134.517C198.057 134.499 198.099 134.488 198.142 134.486C198.185 134.484 198.228 134.49 198.268 134.504C198.309 134.519 198.346 134.541 198.378 134.57C198.41 134.599 198.436 134.633 198.455 134.672C198.473 134.711 198.484 134.753 198.486 134.796L200.246 169.311C200.248 169.364 200.237 169.417 200.214 169.466C200.191 169.514 200.157 169.556 200.113 169.588C200.057 169.631 199.989 169.654 199.918 169.655Z" fill="#002E5D"/>
<path d="M185.972 191.946C185.92 191.946 185.869 191.935 185.823 191.912C185.777 191.889 185.737 191.855 185.706 191.814L178.667 182.323C178.616 182.253 178.594 182.166 178.607 182.079C178.62 181.993 178.667 181.916 178.738 181.864C178.808 181.813 178.896 181.791 178.982 181.804C179.069 181.818 179.146 181.864 179.198 181.935L185.814 190.855L190.606 170.35C190.616 170.308 190.634 170.269 190.659 170.234C190.684 170.199 190.716 170.169 190.752 170.147C190.789 170.124 190.829 170.109 190.872 170.102C190.915 170.094 190.958 170.096 191 170.106C191.042 170.115 191.082 170.133 191.117 170.158C191.152 170.183 191.181 170.215 191.204 170.251C191.227 170.288 191.242 170.328 191.249 170.371C191.257 170.413 191.255 170.457 191.245 170.498L186.293 191.689C186.279 191.75 186.247 191.806 186.202 191.849C186.157 191.893 186.101 191.923 186.039 191.935C186.017 191.942 185.995 191.945 185.972 191.946Z" fill="#002E5D"/>
<path d="M164.723 276.673C164.669 276.673 164.616 276.66 164.569 276.635C164.521 276.61 164.481 276.574 164.451 276.529L129.224 224.705C128.298 223.332 127.844 221.696 127.93 220.043C128.017 218.39 128.639 216.81 129.703 215.54L159.912 179.712C159.96 179.654 160.027 179.615 160.102 179.601L176.238 176.51L173.657 162.203C173.649 162.161 173.65 162.117 173.659 162.075C173.668 162.033 173.686 161.993 173.71 161.958C173.735 161.923 173.766 161.893 173.802 161.869C173.839 161.846 173.879 161.83 173.922 161.823C173.964 161.815 174.008 161.816 174.05 161.825C174.092 161.834 174.132 161.851 174.167 161.876C174.202 161.9 174.233 161.932 174.256 161.968C174.279 162.004 174.295 162.044 174.303 162.087L176.942 176.712C176.95 176.754 176.949 176.798 176.94 176.84C176.931 176.882 176.913 176.921 176.889 176.957C176.864 176.992 176.833 177.022 176.796 177.045C176.76 177.068 176.72 177.084 176.677 177.092L160.335 180.223L130.205 215.962C129.233 217.123 128.665 218.567 128.586 220.077C128.507 221.587 128.922 223.082 129.768 224.337L165 276.161C165.033 276.21 165.052 276.267 165.056 276.326C165.059 276.385 165.047 276.444 165.02 276.496C164.993 276.548 164.952 276.592 164.902 276.624C164.851 276.655 164.794 276.672 164.735 276.673H164.723Z" fill="#002E5D"/>
<path d="M160.782 280.351C160.716 280.351 160.652 280.331 160.597 280.295C160.542 280.258 160.5 280.205 160.476 280.144C160.452 280.083 160.447 280.016 160.461 279.952C160.476 279.888 160.509 279.829 160.558 279.785L174.341 266.915C174.405 266.857 174.49 266.826 174.576 266.829C174.662 266.833 174.744 266.87 174.803 266.933C174.862 266.996 174.894 267.08 174.892 267.166C174.889 267.252 174.853 267.334 174.791 267.393L161.006 280.264C160.945 280.32 160.865 280.351 160.782 280.351Z" fill="#002E5D"/>
<path d="M171.136 270.683C171.073 270.684 171.012 270.666 170.959 270.632C170.906 270.598 170.864 270.55 170.838 270.493L147.482 220.1C147.451 220.032 147.445 219.956 147.464 219.883C147.483 219.811 147.526 219.748 147.587 219.703L171.631 202.246C171.701 202.2 171.787 202.183 171.87 202.198C171.952 202.214 172.026 202.26 172.076 202.328C172.125 202.395 172.147 202.479 172.136 202.563C172.125 202.646 172.083 202.722 172.018 202.775L148.19 220.07L171.435 270.219C171.453 270.258 171.463 270.3 171.465 270.343C171.466 270.386 171.459 270.429 171.445 270.469C171.43 270.51 171.407 270.547 171.378 270.578C171.348 270.61 171.313 270.635 171.274 270.653C171.231 270.673 171.184 270.684 171.136 270.683Z" fill="#002E5D"/>
<path d="M146.998 243.171C146.928 243.171 146.86 243.15 146.804 243.109C146.747 243.068 146.705 243.01 146.684 242.944C146.662 242.877 146.663 242.806 146.685 242.74C146.707 242.674 146.75 242.617 146.807 242.577L155.377 236.492C155.447 236.453 155.529 236.442 155.608 236.46C155.686 236.477 155.755 236.523 155.802 236.588C155.849 236.653 155.87 236.733 155.862 236.813C155.854 236.893 155.816 236.966 155.757 237.021L147.188 243.106C147.133 243.147 147.067 243.17 146.998 243.171Z" fill="#002E5D"/>
<path d="M202.72 187.725C202.655 187.725 202.591 187.706 202.537 187.67L192.957 181.3C192.889 181.249 192.843 181.175 192.829 181.092C192.815 181.009 192.833 180.924 192.88 180.854C192.926 180.784 192.998 180.735 193.081 180.716C193.163 180.698 193.249 180.712 193.322 180.755L202.784 187.046C209.462 185.481 213.395 184.572 214.514 184.337C214.364 181.883 212.047 161.5 211.127 153.505C211.119 153.461 211.121 153.416 211.131 153.373C211.142 153.33 211.161 153.289 211.188 153.253C211.214 153.218 211.248 153.188 211.287 153.166C211.326 153.143 211.369 153.129 211.413 153.124C211.457 153.119 211.502 153.123 211.545 153.136C211.588 153.148 211.628 153.17 211.662 153.198C211.696 153.227 211.724 153.262 211.744 153.302C211.765 153.342 211.776 153.385 211.779 153.43C211.788 153.508 212.68 161.254 213.539 168.926C214.043 173.433 214.439 177.031 214.713 179.622C215.244 184.649 215.224 184.669 215.088 184.82C215.032 184.882 214.955 184.921 214.871 184.929C214.473 184.99 207.443 186.627 202.801 187.717C202.774 187.723 202.747 187.725 202.72 187.725ZM214.843 184.273C214.808 184.274 214.774 184.279 214.741 184.289C214.774 184.282 214.808 184.277 214.842 184.273H214.843Z" fill="#002E5D"/>
<path d="M208.262 149.115C208.203 149.115 208.144 149.099 208.093 149.069C208.042 149.038 208.001 148.995 207.973 148.943L203.707 141.078C203.68 141.027 203.666 140.969 203.668 140.911C203.67 140.853 203.688 140.797 203.719 140.748C203.75 140.698 203.794 140.658 203.846 140.632C203.897 140.605 203.955 140.592 204.013 140.595L216.614 141.245C216.702 141.249 216.784 141.289 216.843 141.354C216.902 141.419 216.933 141.505 216.928 141.593C216.924 141.681 216.884 141.763 216.819 141.822C216.754 141.88 216.667 141.911 216.579 141.906L204.556 141.286L208.543 148.638C208.564 148.676 208.576 148.718 208.581 148.76C208.585 148.803 208.581 148.846 208.569 148.887C208.557 148.929 208.536 148.967 208.509 149C208.482 149.033 208.448 149.061 208.41 149.081C208.364 149.104 208.313 149.116 208.262 149.115Z" fill="#002E5D"/>
<path d="M219.665 149.57C219.635 149.569 219.605 149.565 219.576 149.558C219.492 149.534 219.421 149.478 219.379 149.402C219.336 149.326 219.325 149.237 219.349 149.153L222.828 136.862L207.665 135.69L208.392 141.089C208.399 141.173 208.374 141.256 208.321 141.322C208.268 141.388 208.192 141.431 208.108 141.442C208.024 141.453 207.94 141.432 207.871 141.382C207.803 141.333 207.756 141.259 207.741 141.176L206.96 135.375C206.954 135.328 206.958 135.279 206.973 135.234C206.988 135.188 207.013 135.146 207.046 135.111C207.08 135.076 207.121 135.048 207.167 135.031C207.213 135.013 207.262 135.006 207.311 135.009L223.279 136.245C223.328 136.248 223.375 136.263 223.417 136.287C223.459 136.311 223.495 136.344 223.523 136.383C223.551 136.423 223.57 136.469 223.578 136.516C223.586 136.564 223.583 136.613 223.57 136.66L219.988 149.335C219.968 149.405 219.925 149.465 219.866 149.507C219.808 149.55 219.737 149.571 219.665 149.57Z" fill="#002E5D"/>
<path d="M207.283 207.026C207.2 207.024 207.121 206.991 207.062 206.933C207.002 206.875 206.967 206.797 206.963 206.714C206.959 206.632 206.987 206.551 207.04 206.487C207.093 206.424 207.169 206.383 207.251 206.373L214.38 205.664C216.254 205.478 218.069 204.905 219.709 203.983C221.35 203.06 222.78 201.808 223.91 200.305C225.039 198.802 225.843 197.081 226.271 195.252C226.698 193.423 226.74 191.525 226.393 189.679L219.605 153.524C219.597 153.481 219.597 153.438 219.606 153.396C219.615 153.354 219.632 153.314 219.657 153.279C219.681 153.243 219.712 153.213 219.748 153.189C219.784 153.166 219.824 153.15 219.867 153.142C219.909 153.134 219.953 153.135 219.995 153.143C220.037 153.152 220.077 153.169 220.112 153.194C220.148 153.218 220.178 153.249 220.202 153.285C220.225 153.321 220.242 153.361 220.249 153.403L227.038 189.565C227.401 191.5 227.358 193.49 226.909 195.407C226.461 197.325 225.619 199.129 224.435 200.704C223.251 202.28 221.751 203.593 220.032 204.56C218.312 205.527 216.41 206.127 214.445 206.323L207.311 207.026H207.283Z" fill="#002E5D"/>
<path d="M221.252 172.401C219.129 172.401 216.201 172.388 216.015 172.386C215.927 172.386 215.843 172.351 215.781 172.289C215.719 172.227 215.684 172.143 215.684 172.056C215.684 171.968 215.719 171.884 215.781 171.822C215.843 171.76 215.927 171.725 216.015 171.725C217.942 171.734 223.025 171.75 223.392 171.725C223.476 171.724 223.557 171.755 223.619 171.812C223.681 171.869 223.718 171.947 223.724 172.03C223.73 172.114 223.703 172.196 223.65 172.261C223.597 172.326 223.521 172.368 223.438 172.378C223.278 172.397 222.375 172.401 221.252 172.401Z" fill="#002E5D"/>
<path d="M200.179 261.502C200.149 261.501 200.119 261.497 200.09 261.49L173.501 254.041C173.417 254.017 173.346 253.961 173.304 253.886C173.261 253.81 173.25 253.721 173.274 253.637C173.298 253.554 173.353 253.483 173.429 253.44C173.505 253.398 173.595 253.387 173.679 253.411L199.884 260.749L204.03 192.935C204.035 192.849 204.075 192.768 204.14 192.71C204.205 192.653 204.29 192.623 204.377 192.629C204.464 192.634 204.545 192.673 204.603 192.738C204.661 192.803 204.69 192.888 204.685 192.975L200.515 261.193C200.509 261.277 200.472 261.355 200.411 261.412C200.35 261.469 200.27 261.501 200.186 261.502H200.179Z" fill="#002E5D"/>
<path d="M197.05 398.652H185.058C184.977 398.652 184.898 398.622 184.837 398.568C184.777 398.513 184.739 398.438 184.731 398.357L175.711 306.781C175.707 306.697 175.735 306.615 175.79 306.551C175.846 306.487 175.923 306.447 176.007 306.438C176.091 306.43 176.176 306.454 176.242 306.506C176.309 306.558 176.353 306.633 176.365 306.717L185.361 397.993H196.734L199.855 261.163C199.857 261.075 199.894 260.992 199.957 260.931C200.021 260.87 200.106 260.838 200.194 260.839C200.282 260.841 200.366 260.878 200.426 260.941C200.487 261.005 200.52 261.09 200.518 261.177L197.389 398.329C197.389 398.373 197.38 398.416 197.362 398.456C197.345 398.496 197.32 398.532 197.288 398.562C197.256 398.592 197.219 398.616 197.178 398.631C197.137 398.647 197.094 398.654 197.05 398.652Z" fill="#002E5D"/>
<path d="M149.637 398.652H138.883C138.836 398.652 138.789 398.642 138.747 398.623C138.704 398.603 138.666 398.574 138.635 398.538C138.604 398.502 138.581 398.46 138.568 398.414C138.555 398.369 138.551 398.321 138.558 398.274L149.407 326.403L151.131 256.829C151.133 256.744 151.168 256.663 151.23 256.603C151.291 256.543 151.373 256.509 151.458 256.509H151.468C151.555 256.511 151.637 256.548 151.697 256.611C151.757 256.674 151.79 256.758 151.787 256.845L150.063 326.44C150.064 326.453 150.064 326.467 150.063 326.48L139.268 397.997H149.392L181.682 285.978C181.71 285.899 181.767 285.833 181.842 285.794C181.916 285.755 182.003 285.747 182.084 285.77C182.165 285.793 182.234 285.847 182.277 285.919C182.32 285.992 182.333 286.078 182.314 286.159L149.95 398.415C149.931 398.483 149.89 398.543 149.833 398.585C149.777 398.628 149.708 398.652 149.637 398.652Z" fill="#002E5D"/>
<path d="M215.534 415H179.356C179.3 415 179.245 414.986 179.196 414.959C179.147 414.932 179.105 414.892 179.076 414.845C179.047 414.797 179.03 414.742 179.028 414.687C179.025 414.631 179.038 414.575 179.063 414.525L185.614 401.655C185.653 401.578 185.722 401.519 185.805 401.492C185.887 401.465 185.977 401.472 186.055 401.512C186.132 401.551 186.191 401.619 186.218 401.702C186.245 401.784 186.238 401.874 186.199 401.951L179.892 414.345H215.2V408.566H197.736C197.672 408.565 197.609 408.547 197.556 408.512C197.502 408.477 197.46 408.428 197.434 408.37L194.6 401.934C194.565 401.855 194.563 401.765 194.594 401.684C194.626 401.603 194.688 401.537 194.768 401.502C194.847 401.467 194.938 401.465 195.019 401.496C195.1 401.528 195.166 401.59 195.201 401.67L197.949 407.91H215.534C215.621 407.91 215.704 407.944 215.766 408.005C215.828 408.066 215.863 408.149 215.863 408.236V414.672C215.863 414.715 215.855 414.758 215.838 414.798C215.822 414.838 215.798 414.874 215.767 414.904C215.736 414.935 215.7 414.959 215.66 414.975C215.62 414.992 215.577 415 215.534 415Z" fill="#002E5D"/>
<path d="M168.797 415H132.626C132.569 415 132.514 414.986 132.465 414.959C132.416 414.932 132.375 414.892 132.345 414.845C132.316 414.797 132.299 414.742 132.297 414.687C132.295 414.631 132.307 414.575 132.332 414.525L138.883 401.655C138.923 401.578 138.991 401.519 139.074 401.492C139.157 401.465 139.247 401.472 139.324 401.512C139.402 401.551 139.461 401.619 139.488 401.702C139.515 401.784 139.508 401.874 139.468 401.951L133.165 414.345H168.473V408.566H151.005C150.941 408.566 150.879 408.547 150.825 408.512C150.772 408.478 150.73 408.428 150.704 408.37L147.87 401.934C147.834 401.855 147.832 401.765 147.864 401.684C147.895 401.603 147.958 401.537 148.037 401.502C148.117 401.467 148.207 401.465 148.289 401.496C148.37 401.528 148.435 401.59 148.47 401.67L151.219 407.91H168.797C168.884 407.91 168.967 407.944 169.029 408.005C169.091 408.066 169.125 408.149 169.126 408.236V414.672C169.126 414.715 169.118 414.758 169.101 414.798C169.085 414.838 169.06 414.874 169.03 414.904C168.999 414.935 168.963 414.959 168.923 414.975C168.883 414.992 168.84 415 168.797 415Z" fill="#002E5D"/>
<path d="M259.907 415H0.328331C0.283466 415.003 0.238493 414.996 0.196188 414.981C0.153882 414.966 0.115143 414.942 0.0823615 414.912C0.0495801 414.881 0.0234524 414.844 0.00559145 414.803C-0.0122695 414.762 -0.0214844 414.717 -0.0214844 414.673C-0.0214844 414.628 -0.0122695 414.583 0.00559145 414.542C0.0234524 414.501 0.0495801 414.464 0.0823615 414.433C0.115143 414.403 0.153882 414.379 0.196188 414.364C0.238493 414.349 0.283466 414.342 0.328331 414.345H259.907C259.952 414.342 259.997 414.349 260.039 414.364C260.081 414.379 260.12 414.403 260.153 414.433C260.186 414.464 260.212 414.501 260.23 414.542C260.248 414.583 260.257 414.628 260.257 414.673C260.257 414.717 260.248 414.762 260.23 414.803C260.212 414.844 260.186 414.881 260.153 414.912C260.12 414.942 260.081 414.966 260.039 414.981C259.997 414.996 259.952 415.003 259.907 415Z" fill="#002E5D"/>
<path d="M59.313 229.15L39.7246 244.497L55.1115 264.033L74.7 248.687L59.313 229.15Z" fill="#F3F8FF"/>
</g>
<defs>
<clipPath id="clip0_627_12060">
<rect width="474" height="415" fill="white"/>
</clipPath>
</defs>
</svg>
