<svg width="84" height="105" viewBox="0 0 84 105" fill="none" xmlns="http://www.w3.org/2000/svg">
<g id="Akademily_2 1" clip-path="url(#clip0_44_238)">
<path id="Vector" d="M0.159424 87.2708H21.1116L28.8716 56.7013H42.0636V50.2657H30.5961L32.7516 42.2211L20.1592 36.5898L18.0075 42.0423L0.159424 87.2708Z" fill="#E5E5E5"/>
<path id="Vector_2" d="M31.1988 37.3929C35.4846 37.3929 38.959 33.7912 38.959 29.3483C38.959 24.9054 35.4846 21.3037 31.1988 21.3037C26.9131 21.3037 23.4387 24.9054 23.4387 29.3483C23.4387 33.7912 26.9131 37.3929 31.1988 37.3929Z" fill="#E5E5E5"/>
<path id="Vector_3" d="M83.9698 87.2708H63.0182L55.2576 56.7013H42.0657V50.2657H53.5336L51.3784 42.2211L63.9706 36.5898L66.1226 42.0423L83.9698 87.2708Z" fill="#E5E5E5"/>
<path id="Vector_4" d="M52.9307 37.3929C48.6449 37.3929 45.1707 33.7912 45.1707 29.3483C45.1707 24.9054 48.6449 21.3037 52.9307 21.3037C57.2164 21.3037 60.6907 24.9054 60.6907 29.3483C60.6907 33.7912 57.2164 37.3929 52.9307 37.3929Z" fill="#E5E5E5"/>
<path id="Vector_5" d="M56.0265 3.60547H28.0903V16.4769H56.0265V3.60547Z" fill="#E5E5E5"/>
<path id="Vector_6" d="M65.3434 0.388672H18.783V3.60652H65.3434V0.388672Z" fill="#E5E5E5"/>
<path id="Vector_7" d="M20.3296 3.60547H21.1057V8.43224L21.8817 10.0412H19.5537L20.3296 8.43224V3.60547Z" fill="#E5E5E5"/>
<path id="Vector_8" d="M0.159424 104.817L3.69764 93.8545H6.27616L9.80012 104.817H7.22159L6.60564 102.444H3.29655L2.69495 104.817H0.159424ZM3.79799 100.506H6.11857L4.97264 96.0619H4.94391L3.79799 100.506Z" fill="#E5E5E5"/>
<path id="Vector_9" d="M13.6907 93.8545V98.5546H13.7193L16.8852 93.8545H19.7072L15.9827 99.1105L19.8503 104.817H17.0283L13.7193 99.6658H13.6907V104.817H11.2554V93.8545H13.6907Z" fill="#E5E5E5"/>
<path id="Vector_10" d="M20.7375 104.817L24.2759 93.8545H26.8543L30.3782 104.817H27.7996L27.1837 102.444H23.8748L23.2731 104.817H20.7375ZM24.3761 100.506H26.6966L25.5507 96.0619H25.522L24.3761 100.506Z" fill="#E5E5E5"/>
<path id="Vector_11" d="M40.3862 99.1859C40.3862 101.029 39.8986 102.455 38.9245 103.466C37.9601 104.467 36.5996 104.968 34.8419 104.968C33.7818 104.968 32.7792 104.892 31.8337 104.742V93.9303C32.7792 93.7801 33.7818 93.7051 34.8419 93.7051C36.5996 93.7051 37.9601 94.1907 38.9245 95.1617C39.8986 96.1227 40.3862 97.4643 40.3862 99.1859ZM38.0646 99.1859C38.0646 96.8636 37.0523 95.7023 35.0279 95.7023C34.7513 95.7023 34.4838 95.7324 34.226 95.7924V102.88C34.4838 102.94 34.7513 102.97 35.0279 102.97C37.0523 102.97 38.0646 101.709 38.0646 99.1859Z" fill="#E5E5E5"/>
<path id="Vector_12" d="M44.3545 95.9117V98.1492H48.323V100.087H44.3545V102.76H48.6093V104.817H41.9197V93.8545H48.6093V95.9117H44.3545Z" fill="#E5E5E5"/>
<path id="Vector_13" d="M58.8852 98.104H58.8569L57.0239 102.308H54.8176L52.9836 98.104H52.9553V104.817H50.6489V93.8545H53.1414L55.9061 100.311H55.9344L58.6991 93.8545H61.2493V104.817H58.8852V98.104Z" fill="#E5E5E5"/>
<path id="Vector_14" d="M63.6362 104.817V93.8545H66.3149V104.817H63.6362Z" fill="#E5E5E5"/>
<path id="Vector_15" d="M71.2165 93.8545V102.699H75.6279V104.817H68.7087V93.8545H71.2165Z" fill="#E5E5E5"/>
<path id="Vector_16" d="M77.1494 93.8545L79.1836 98.5546H79.212L81.2462 93.8545H83.9674L80.4147 100.612V104.817H77.9079V100.612L74.3706 93.8545H77.1494Z" fill="#E5E5E5"/>
</g>
<defs>
<clipPath id="clip0_44_238">
<rect width="84" height="105" fill="white"/>
</clipPath>
</defs>
</svg>
