<svg width="230" height="38" viewBox="0 0 230 38" fill="none" xmlns="http://www.w3.org/2000/svg">
<g clip-path="url(#clip0_9_1393)">
<path d="M0 37.2966H9.06687L12.425 24.1737H18.1337V21.411H13.1712L14.104 17.9577L8.65474 15.5403L7.72362 17.8809L0 37.2966Z" fill="#002E5D"/>
<path d="M13.4321 15.8853C15.2867 15.8853 16.7902 14.3391 16.7902 12.4319C16.7902 10.5247 15.2867 8.97852 13.4321 8.97852C11.5775 8.97852 10.074 10.5247 10.074 12.4319C10.074 14.3391 11.5775 15.8853 13.4321 15.8853Z" fill="#002E5D"/>
<path d="M36.2682 37.2966H27.2016L23.8432 24.1737H18.1345V21.411H23.0972L22.1645 17.9577L27.6137 15.5403L28.5449 17.8809L36.2682 37.2966Z" fill="#325D9C"/>
<path d="M22.8364 15.8853C20.9817 15.8853 19.4783 14.3391 19.4783 12.4319C19.4783 10.5247 20.9817 8.97852 22.8364 8.97852C24.691 8.97852 26.1945 10.5247 26.1945 12.4319C26.1945 14.3391 24.691 15.8853 22.8364 15.8853Z" fill="#325D9C"/>
<path d="M24.1761 1.38098H12.0869V6.90644H24.1761V1.38098Z" fill="#002E5D"/>
<path d="M28.2077 0H8.05908V1.38136H28.2077V0Z" fill="#002E5D"/>
<path d="M8.72859 1.38098H9.06442V3.45302L9.40025 4.1437H8.39282L8.72859 3.45302V1.38098Z" fill="#002E5D"/>
<path d="M42 36.6703L49.9187 12.3329H55.6895L63.5762 36.6703H57.8054L56.4268 31.4021H49.021L47.6746 36.6703H42ZM50.1432 27.1009H55.3368L52.7721 17.2335H52.7078L50.1432 27.1009Z" fill="#002E5D"/>
<path d="M72.2837 12.3329V22.7677H72.3478L79.4332 12.3329H85.7489L77.4133 24.002L86.0693 36.6703H79.7536L72.3478 25.2347H72.2837V36.6703H66.8335V12.3329H72.2837Z" fill="#002E5D"/>
<path d="M88.0544 36.6703L95.9733 12.3329H101.744L109.631 36.6703H103.86L102.481 31.4021H95.0757L93.729 36.6703H88.0544ZM96.1976 27.1009H101.391L98.8264 17.2335H98.7623L96.1976 27.1009Z" fill="#002E5D"/>
<path d="M132.029 24.1681C132.029 28.259 130.938 31.4254 128.758 33.6701C126.599 35.8919 123.555 37.0044 119.621 37.0044C117.248 37.0044 115.004 36.8364 112.888 36.5031V12.5C115.004 12.1667 117.248 12 119.621 12C123.555 12 126.599 13.0782 128.758 15.2338C130.938 17.3675 132.029 20.3459 132.029 24.1681ZM126.833 24.1681C126.833 19.0124 124.568 16.4341 120.037 16.4341C119.418 16.4341 118.819 16.5009 118.242 16.6341V32.3699C118.819 32.5025 119.418 32.5703 120.037 32.5703C124.568 32.5703 126.833 29.7697 126.833 24.1681Z" fill="#002E5D"/>
<path d="M140.91 16.9002V21.8676H149.792V26.1691H140.91V32.1037H150.432V36.6703H135.461V12.3329H150.432V16.9002H140.91Z" fill="#002E5D"/>
<path d="M173.431 21.7675H173.367L169.265 31.1015H164.327L160.223 21.7675H160.159V36.6703H154.998V12.3329H160.576L166.763 26.6674H166.827L173.014 12.3329H178.722V36.6703H173.431V21.7675Z" fill="#002E5D"/>
<path d="M184.063 36.6703V12.3329H190.058V36.6703H184.063Z" fill="#002E5D"/>
<path d="M201.028 12.3329V31.9685H210.901V36.6703H195.416V12.3329H201.028Z" fill="#002E5D"/>
<path d="M214.306 12.3329L218.859 22.7677H218.922L223.475 12.3329H229.565L221.614 27.3363V36.6703H216.004V27.3363L208.087 12.3329H214.306Z" fill="#002E5D"/>
</g>
<defs>
<clipPath id="clip0_9_1393">
<rect width="230" height="38" fill="white"/>
</clipPath>
</defs>
</svg>
